<svg xmlns="http://www.w3.org/2000/svg" width="1391.69" height="435.28" viewBox="0 0 1391.69 435.28">
  <defs>
    <style>
      .cls-1 {
        fill: #ececec;
        fill-rule: evenodd;
        mix-blend-mode: multiply;
      }
    </style>
  </defs>
  <path id="bg-modal-yamashita_pc.svg" class="cls-1" d="M4344.53,2639.66V2483.02h-23.98v66.88h-63.36v-66.88h-23.98v156.64h23.98v-68.42h63.36v68.42h23.98Zm91.07,0V2483.02h-23.98v156.64h23.98Zm181.5,0-36.3-69.3a45.418,45.418,0,0,0,22.36-14.19q9.1-10.44,9.1-27.39a48.808,48.808,0,0,0-3.41-18.37,40.827,40.827,0,0,0-9.81-14.52,45.935,45.935,0,0,0-15.33-9.46,56.223,56.223,0,0,0-20.16-3.41H4502.7v156.64h23.98v-66h29.6l32.88,66h27.94Zm-36.16-92.62q-7.35,6.39-19.18,6.38h-35.08v-49.06h35.08q11.835,0,19.18,6.49t7.34,18.15Q4588.28,2540.67,4580.94,2547.04Zm199.18-6.05a112.01,112.01,0,0,0-1.54-16.61,53.126,53.126,0,0,0-4.41-13.86,44.865,44.865,0,0,0-8.82-12.1,56.821,56.821,0,0,0-18.51-12.43,59.393,59.393,0,0,0-22.93-4.29,58.534,58.534,0,0,0-22.81,4.29,57.157,57.157,0,0,0-18.41,12.43,44.865,44.865,0,0,0-8.82,12.1,56.032,56.032,0,0,0-4.51,13.86,101.545,101.545,0,0,0-1.66,16.61q-0.225,9.135-.22,20.35t0.22,20.35a101.317,101.317,0,0,0,1.66,16.61,55.76,55.76,0,0,0,4.51,13.86,44.558,44.558,0,0,0,8.82,12.1,57,57,0,0,0,18.41,12.43,58.534,58.534,0,0,0,22.81,4.29,59.393,59.393,0,0,0,22.93-4.29,56.665,56.665,0,0,0,18.51-12.43,44.558,44.558,0,0,0,8.82-12.1,52.886,52.886,0,0,0,4.41-13.86,111.752,111.752,0,0,0,1.54-16.61q0.225-9.12.22-20.35T4780.12,2540.99Zm-24.09,40.04a97.449,97.449,0,0,1-1.31,13.2,32.815,32.815,0,0,1-2.85,9.02,30.271,30.271,0,0,1-4.72,6.71,30.713,30.713,0,0,1-10.19,7.04,33.55,33.55,0,0,1-26.09,0,30.859,30.859,0,0,1-10.2-7.04,29.9,29.9,0,0,1-4.71-6.71,32.15,32.15,0,0,1-2.85-9.02,97.274,97.274,0,0,1-1.32-13.2q-0.33-7.8-.33-19.69t0.33-19.69a97.616,97.616,0,0,1,1.32-13.2,32.257,32.257,0,0,1,2.85-9.02,30.127,30.127,0,0,1,4.71-6.71,31.008,31.008,0,0,1,10.2-7.04,33.55,33.55,0,0,1,26.09,0,30.86,30.86,0,0,1,10.19,7.04,30.5,30.5,0,0,1,4.72,6.71,32.927,32.927,0,0,1,2.85,9.02,97.791,97.791,0,0,1,1.31,13.2q0.33,7.815.33,19.69T4756.03,2581.03Zm186.01-76.67v-21.34H4841.72v156.64h23.98v-66.22h65.12V2552.1H4865.7v-47.74h76.34Zm165,82.5V2483.02h-23.98v102.74q0,15.84-8.88,24.86t-23.57,9.02q-14.685,0-23.46-9.02t-8.77-24.86V2483.02H4994.4v103.84a55.365,55.365,0,0,0,4.3,22.11,50.059,50.059,0,0,0,11.79,17.05,53.774,53.774,0,0,0,17.85,11,64.572,64.572,0,0,0,44.53,0,55.048,55.048,0,0,0,17.97-11,49.508,49.508,0,0,0,11.9-17.05,55.365,55.365,0,0,0,4.3-22.11h0Zm203.06,52.8V2483.02h-23.98l-44.77,97.46-45.65-97.46h-23.98v156.64h23.98V2534.94l36.87,76.34h17.55l36-76.34v104.72h23.98Zm90.85,0V2483.02h-23.98v156.64h23.98Zm-1047.4,119.36h-25.96l-32.89,68.86-32.89-68.86h-25.96l46.86,92.18v64.46h23.98V2851.2Zm163.01,156.64-57.42-156.64H4440l-57.42,156.64h25.3l10.78-31.46h61.82l10.78,31.46h25.3Zm-42.68-51.7H4425.7l24.42-69.52Zm229.68,51.7V2759.02h-23.98l-44.77,97.46-45.65-97.46h-23.98v156.64h23.98V2810.94l36.87,76.34h17.56l35.99-76.34v104.72h23.98Zm182.16,0-57.42-156.64h-19.14l-57.42,156.64h25.3l10.78-31.46h61.82l10.78,31.46h25.3Zm-42.68-51.7h-48.18l24.42-69.52Zm186.01-11.22a36.131,36.131,0,0,0-9.57-13.86,42.753,42.753,0,0,0-11.66-7.15,80.358,80.358,0,0,0-17.6-4.51l-17.82-2.64q-11.445-1.755-17.6-7.26a17.568,17.568,0,0,1-4.51-6.49,21.775,21.775,0,0,1-1.43-8.03,23,23,0,0,1,7.37-17.49q7.365-6.93,21.23-6.93a64.178,64.178,0,0,1,18.37,2.53,38.385,38.385,0,0,1,15.73,9.57l15.18-14.96a63.706,63.706,0,0,0-21.56-13.64q-11.445-4.17-27.06-4.18a68,68,0,0,0-22,3.3,45.751,45.751,0,0,0-16.39,9.46,42.316,42.316,0,0,0-10.34,14.63,46.738,46.738,0,0,0-3.63,18.59q0,19.14,11.44,29.92,10.56,9.9,29.7,12.54l18.48,2.64a58.043,58.043,0,0,1,10.56,2.42,20.078,20.078,0,0,1,6.6,4.18q6.165,5.505,6.16,16.28,0,11.445-8.47,17.71t-23.87,6.27a69.263,69.263,0,0,1-21.78-3.19q-9.675-3.18-18.26-11.77l-15.84,15.62q11.22,11.445,24.42,16.06t31.02,4.62a79.235,79.235,0,0,0,22.66-3.08,52.328,52.328,0,0,0,17.82-9.02,41.558,41.558,0,0,0,11.66-14.52,43.577,43.577,0,0,0,4.18-19.36A49.659,49.659,0,0,0,5029.05,2852.74Zm172.81,62.92V2759.02h-23.98v66.88h-63.36v-66.88h-23.98v156.64h23.98v-68.42h63.36v68.42h23.98Zm91.08,0V2759.02h-23.98v156.64h23.98Zm163.46-135.3v-21.34H5346.18v21.34h43.12v135.3h23.98v-135.3h43.12Zm168.52,135.3-57.42-156.64h-19.14l-57.42,156.64h25.3l10.78-31.46h61.82l10.78,31.46h25.3Zm-42.68-51.7h-48.18l24.42-69.52Z" transform="translate(-4233.22 -2481.69)"/>
</svg>
