<svg xmlns="http://www.w3.org/2000/svg" width="670.53" height="245.38" viewBox="0 0 670.53 245.38">
  <defs>
    <style>
      .cls-1 {
        fill: #ececec;
        fill-rule: evenodd;
        mix-blend-mode: multiply;
      }
    </style>
  </defs>
  <path id="bg-modal-yamashita.svg" class="cls-1" d="M6048.81,2528.16v-75.47h-11.55v32.23h-30.53v-32.23h-11.55v75.47h11.55V2495.2h30.53v32.96h11.55Zm43.89,0v-75.47h-11.56v75.47h11.56Zm87.45,0-17.49-33.39a21.964,21.964,0,0,0,10.77-6.83q4.38-5.04,4.38-13.2a23.575,23.575,0,0,0-1.64-8.85,19.625,19.625,0,0,0-4.73-7,22.1,22.1,0,0,0-7.38-4.56,27.216,27.216,0,0,0-9.72-1.64h-29.31v75.47h11.55v-31.8h14.26l15.84,31.8h13.47Zm-17.43-44.62a13.582,13.582,0,0,1-9.24,3.07h-16.9v-23.64h16.9a13.466,13.466,0,0,1,9.24,3.13q3.54,3.135,3.54,8.75T6162.72,2483.54Zm95.97-2.92a54.11,54.11,0,0,0-.74-8,25.722,25.722,0,0,0-2.13-6.68,21.488,21.488,0,0,0-4.24-5.83,27.529,27.529,0,0,0-8.92-5.99,28.617,28.617,0,0,0-11.05-2.06,28.136,28.136,0,0,0-10.99,2.06,27.538,27.538,0,0,0-8.87,5.99,21.532,21.532,0,0,0-4.25,5.83,26.98,26.98,0,0,0-2.18,6.68,48.917,48.917,0,0,0-.79,8c-0.07,2.94-.11,6.2-0.11,9.81s0.04,6.87.11,9.8a49.045,49.045,0,0,0,.79,8.01,26.9,26.9,0,0,0,2.18,6.67,21.38,21.38,0,0,0,4.25,5.83,27.379,27.379,0,0,0,8.87,5.99,28.137,28.137,0,0,0,10.99,2.07,28.619,28.619,0,0,0,11.05-2.07,27.371,27.371,0,0,0,8.92-5.99,21.336,21.336,0,0,0,4.24-5.83,25.649,25.649,0,0,0,2.13-6.67,54.252,54.252,0,0,0,.74-8.01q0.105-4.395.11-9.8C6258.8,2486.82,6258.76,2483.56,6258.69,2480.62Zm-11.6,19.29a47.131,47.131,0,0,1-.64,6.36,15.811,15.811,0,0,1-1.37,4.35,14.614,14.614,0,0,1-2.27,3.23,14.863,14.863,0,0,1-4.92,3.4,16.187,16.187,0,0,1-12.57,0,14.924,14.924,0,0,1-4.91-3.4,14.614,14.614,0,0,1-2.27-3.23,15.479,15.479,0,0,1-1.37-4.35,47.131,47.131,0,0,1-.64-6.36c-0.1-2.5-.16-5.67-0.16-9.48s0.06-6.98.16-9.49a47.131,47.131,0,0,1,.64-6.36,15.586,15.586,0,0,1,1.37-4.35,14.85,14.85,0,0,1,2.27-3.23,15.05,15.05,0,0,1,4.91-3.39,16.187,16.187,0,0,1,12.57,0,14.063,14.063,0,0,1,7.19,6.62,15.923,15.923,0,0,1,1.37,4.35,47.131,47.131,0,0,1,.64,6.36q0.15,3.765.15,9.49C6247.24,2494.24,6247.19,2497.41,6247.09,2499.91Zm89.62-36.94v-10.28h-48.34v75.47h11.56v-31.9h31.37v-10.28h-31.37v-23.01h36.78Zm79.5,39.75v-50.03h-11.56v49.5q0,7.635-4.28,11.98t-11.35,4.35q-7.08,0-11.31-4.35t-4.22-11.98v-49.5h-11.55v50.03a26.6,26.6,0,0,0,2.07,10.66,24.2,24.2,0,0,0,5.68,8.21,25.8,25.8,0,0,0,8.6,5.3,31.066,31.066,0,0,0,21.45,0,26.488,26.488,0,0,0,8.66-5.3,24.07,24.07,0,0,0,5.74-8.21,26.774,26.774,0,0,0,2.07-10.66h0Zm97.83,25.44v-75.47h-11.55l-21.57,46.96-22-46.96h-11.55v75.47h11.55v-50.45l17.77,36.78h8.46l17.34-36.78v50.45h11.55Zm43.78,0v-75.47h-11.55v75.47h11.55Zm-504.66,93.16h-12.51l-15.85,33.17-15.84-33.17h-12.51l22.58,44.41v31.06h11.55v-31.06Zm78.54,75.47-27.66-75.47h-9.22l-27.67,75.47h12.19l5.19-15.16h29.79l5.19,15.16h12.19Zm-20.56-24.91h-23.21l11.76-33.5Zm110.66,24.91v-75.47h-11.55l-21.57,46.95-22-46.95h-11.55v75.47h11.55v-50.46l17.77,36.78h8.46l17.34-36.78v50.46h11.55Zm87.77,0-27.66-75.47h-9.23l-27.66,75.47h12.19l5.19-15.16h29.79l5.19,15.16h12.19Zm-20.56-24.91h-23.22l11.77-33.5Zm89.62-5.41a17.436,17.436,0,0,0-4.61-6.68,20.573,20.573,0,0,0-5.62-3.44,38.378,38.378,0,0,0-8.48-2.17l-8.59-1.28a16.194,16.194,0,0,1-8.48-3.49,8.553,8.553,0,0,1-2.17-3.13,10.49,10.49,0,0,1-.69-3.87,11.114,11.114,0,0,1,3.55-8.43q3.555-3.33,10.23-3.34a30.884,30.884,0,0,1,8.85,1.22,18.556,18.556,0,0,1,7.58,4.61l7.32-7.2a30.786,30.786,0,0,0-10.39-6.58,38.1,38.1,0,0,0-13.04-2.01,32.757,32.757,0,0,0-10.6,1.59,22.028,22.028,0,0,0-7.9,4.56,20.463,20.463,0,0,0-4.98,7.05,22.573,22.573,0,0,0-1.75,8.95q0,9.225,5.51,14.42,5.1,4.77,14.31,6.04l8.91,1.27a28.527,28.527,0,0,1,5.09,1.17,9.731,9.731,0,0,1,3.18,2.01q2.955,2.655,2.96,7.85a9.99,9.99,0,0,1-4.08,8.53q-4.08,3.015-11.5,3.02a33.284,33.284,0,0,1-10.49-1.54,22.372,22.372,0,0,1-8.8-5.67l-7.63,7.53a30.735,30.735,0,0,0,11.77,7.74,45.328,45.328,0,0,0,14.94,2.22,38.094,38.094,0,0,0,10.92-1.48,25.152,25.152,0,0,0,8.58-4.35,19.879,19.879,0,0,0,5.62-6.99,21.091,21.091,0,0,0,2.02-9.33A24.072,24.072,0,0,0,6378.63,2666.47Zm83.26,30.32v-75.47h-11.55v32.22h-30.53v-32.22h-11.55v75.47h11.55v-32.97h30.53v32.97h11.55Zm43.89,0v-75.47h-11.56v75.47h11.56Zm78.75-65.19v-10.28h-53.1v10.28h20.77v65.19h11.56V2631.6h20.77Zm81.2,65.19-27.67-75.47h-9.22l-27.67,75.47h12.19l5.2-15.16h29.78l5.2,15.16h12.19Zm-20.57-24.91h-23.21l11.77-33.5Z" transform="translate(-5995.19 -2452.06)"/>
</svg>
