<svg xmlns="http://www.w3.org/2000/svg" width="423.66" height="274.13" viewBox="0 0 423.66 274.13">
  <defs>
    <style>
      .cls-1 {
        fill: #ececec;
        fill-rule: evenodd;
        mix-blend-mode: multiply;
      }
    </style>
  </defs>
  <path id="bg-modal-kuda.svg" class="cls-1" d="M6074.67,2449.53h-17.34l-21.97,46-21.96-46h-17.34l31.3,61.58v43.05h16.01v-43.05Zm105.51,69.36v-69.36h-16.01v68.63q0,10.575-5.93,16.61-5.94,6.015-15.75,6.02t-15.67-6.02q-5.865-6.03-5.86-16.61v-68.63h-16.02v69.36a37.093,37.093,0,0,0,2.87,14.77,33.579,33.579,0,0,0,7.88,11.39,35.781,35.781,0,0,0,11.93,7.35,43.2,43.2,0,0,0,29.74,0,36.717,36.717,0,0,0,12-7.35,32.93,32.93,0,0,0,7.95-11.39,36.92,36.92,0,0,0,2.87-14.77h0Zm107.57-55.1v-14.26h-73.62v14.26h28.8v90.37h16.02v-90.37h28.8Zm112.56,90.37-38.35-104.63h-12.78l-38.36,104.63h16.9l7.2-21.01h41.29l7.21,21.01h16.89Zm-28.5-34.53h-32.19l16.32-46.44ZM6076,2722.79l-37.47-63.63,33.94-41h-19.4l-42.76,52.61v-52.61h-16.02v104.63h16.02v-30.42l17.64-21.16,29.39,51.58H6076Zm106.24-35.27v-69.36h-16.02v68.62q0,10.59-5.93,16.61t-15.74,6.02q-9.81,0-15.67-6.02t-5.86-16.61v-68.62H6107v69.36a37.128,37.128,0,0,0,2.87,14.77,33.677,33.677,0,0,0,7.88,11.39,35.921,35.921,0,0,0,11.93,7.34,43.045,43.045,0,0,0,29.74,0,36.864,36.864,0,0,0,12-7.34,33.024,33.024,0,0,0,7.95-11.39,36.955,36.955,0,0,0,2.87-14.77h0Zm117.64-29.1a73.305,73.305,0,0,0-.96-10.95,41.641,41.641,0,0,0-3.09-10.28,31.054,31.054,0,0,0-6.48-9.19,31.389,31.389,0,0,0-11.93-7.42,45.731,45.731,0,0,0-15.16-2.42h-36.82v104.63h36.82a45.475,45.475,0,0,0,15.16-2.43,31.268,31.268,0,0,0,11.93-7.42,29.967,29.967,0,0,0,6.48-9.4,45.06,45.06,0,0,0,3.09-10.73,79.554,79.554,0,0,0,.96-11.46c0.04-3.92.07-7.79,0.07-11.61S6299.92,2662.15,6299.88,2658.42Zm-16.68,30.35q-0.735,8.16-4.83,12.71-6.45,7.05-17.72,7.05h-19.19v-76.12h19.19q11.265,0,17.72,7.06a20.36,20.36,0,0,1,4.83,11.97q0.735,7.425.73,18.3T6283.2,2688.77Zm134.75,34.02-38.36-104.63h-12.78l-38.35,104.63h16.89l7.21-21.02h41.29l7.2,21.02h16.9Zm-28.51-34.54h-32.18l16.31-46.43Z" transform="translate(-5994.28 -2449.53)"/>
</svg>
