<svg xmlns="http://www.w3.org/2000/svg" width="1354.38" height="419.6" viewBox="0 0 1354.38 419.6">
  <defs>
    <style>
      .cls-1 {
        fill: #ececec;
        fill-rule: evenodd;
        mix-blend-mode: multiply;
      }
    </style>
  </defs>
  <path id="bg-modal-akamine_pc.svg" class="cls-1" d="M4342.55,2608.66l-51-86.6,46.2-55.8h-26.4l-58.2,71.6v-71.6h-21.8v142.4h21.8v-41.4l24-28.8,40,70.2h25.4Zm135.59,0v-19.4h-69.4v-42.8h59.2v-19.4h-59.2v-41.4h69.4v-19.4h-91.2v142.4h91.2Zm160.8,0v-142.4h-21.8v100l-65.8-100h-19.8v142.4h21.8v-100.2l65.8,100.2h19.8Zm82.8,0v-142.4h-21.8v142.4h21.8Zm158-42.6h-21.8a34.764,34.764,0,0,1-9.8,17.6q-7.2,6.81-19.2,6.8a29.673,29.673,0,0,1-11.8-2.3,26.273,26.273,0,0,1-13.5-12.4,29.425,29.425,0,0,1-2.6-8.2,97.492,97.492,0,0,1-1.3-12.1q-0.4-7.2-.4-18t0.4-18a97.71,97.71,0,0,1,1.3-12.1,29.534,29.534,0,0,1,2.6-8.2,27.086,27.086,0,0,1,4.3-6.1,27.39,27.39,0,0,1,9.2-6.3,29.848,29.848,0,0,1,11.8-2.3q12,0,19.1,6.8a35.19,35.19,0,0,1,9.7,17.6h22q-3.81-21.39-17.4-32.6-13.6-11.19-33.4-11.2a53.2,53.2,0,0,0-20.6,3.9,52.174,52.174,0,0,0-16.87,11.3,40.652,40.652,0,0,0-8.08,11,50.919,50.919,0,0,0-4.14,12.6,91.921,91.921,0,0,0-1.51,15.1q-0.21,8.31-.2,18.5t0.2,18.5a91.7,91.7,0,0,0,1.51,15.1,50.646,50.646,0,0,0,4.14,12.6,40.348,40.348,0,0,0,8.08,11,52.014,52.014,0,0,0,16.87,11.3,53.2,53.2,0,0,0,20.6,3.9,57.41,57.41,0,0,0,18.1-2.8,45.679,45.679,0,0,0,15.2-8.4,47.617,47.617,0,0,0,11.2-13.8,59.414,59.414,0,0,0,6.3-18.8h0Zm153.8,42.6v-142.4h-21.8v60.8h-57.6v-60.8h-21.8v142.4h21.8v-62.2h57.6v62.2h21.8Zm82.8,0v-142.4h-21.8v142.4h21.8Zm164.99,0-33-63a41.242,41.242,0,0,0,20.33-12.9q8.265-9.5,8.27-24.9a44.26,44.26,0,0,0-3.1-16.7,37.072,37.072,0,0,0-8.92-13.2,41.808,41.808,0,0,0-13.93-8.6,51.207,51.207,0,0,0-18.33-3.1h-55.32v142.4h21.8v-60h26.91l29.89,60h25.4Zm-32.87-84.2q-6.675,5.8-17.44,5.8h-31.89v-44.6h31.89q10.755,0,17.44,5.9t6.67,16.5Q5255.13,2518.665,5248.46,2524.46Zm181.07-5.5a100.991,100.991,0,0,0-1.4-15.1,47.994,47.994,0,0,0-4.01-12.6,40.763,40.763,0,0,0-8.01-11,51.732,51.732,0,0,0-16.84-11.3,53.952,53.952,0,0,0-20.84-3.9,53.231,53.231,0,0,0-20.74,3.9,51.921,51.921,0,0,0-16.73,11.3,40.808,40.808,0,0,0-8.02,11,50.452,50.452,0,0,0-4.1,12.6,91.921,91.921,0,0,0-1.51,15.1q-0.195,8.31-.2,18.5t0.2,18.5a91.7,91.7,0,0,0,1.51,15.1,50.186,50.186,0,0,0,4.1,12.6,40.5,40.5,0,0,0,8.02,11,51.761,51.761,0,0,0,16.73,11.3,53.231,53.231,0,0,0,20.74,3.9,53.952,53.952,0,0,0,20.84-3.9,51.575,51.575,0,0,0,16.84-11.3,40.458,40.458,0,0,0,8.01-11,47.757,47.757,0,0,0,4.01-12.6,100.737,100.737,0,0,0,1.4-15.1q0.2-8.3.2-18.5T5429.53,2518.96Zm-21.9,36.4a88.483,88.483,0,0,1-1.19,12,29.771,29.771,0,0,1-2.59,8.2,27.461,27.461,0,0,1-4.29,6.1,27.951,27.951,0,0,1-9.27,6.4,30.5,30.5,0,0,1-23.72,0,28.158,28.158,0,0,1-9.27-6.4,27.416,27.416,0,0,1-4.28-6.1,29.437,29.437,0,0,1-2.59-8.2,88.306,88.306,0,0,1-1.2-12q-0.3-7.095-.3-17.9t0.3-17.9a88.649,88.649,0,0,1,1.2-12,29.546,29.546,0,0,1,2.59-8.2,27.648,27.648,0,0,1,4.28-6.1,28.308,28.308,0,0,1,9.27-6.4,30.5,30.5,0,0,1,23.72,0,28.1,28.1,0,0,1,9.27,6.4,27.693,27.693,0,0,1,4.29,6.1,29.882,29.882,0,0,1,2.59,8.2,88.824,88.824,0,0,1,1.19,12q0.3,7.11.3,17.9T5407.63,2555.36Zm178.1,5.3v-94.4h-21.8v93.4q0,14.4-8.07,22.6t-21.43,8.2q-13.35,0-21.33-8.2t-7.97-22.6v-93.4h-21.8v94.4a50.291,50.291,0,0,0,3.91,20.1,45.58,45.58,0,0,0,10.72,15.5,48.813,48.813,0,0,0,16.23,10,58.7,58.7,0,0,0,40.48,0,49.993,49.993,0,0,0,16.33-10,44.869,44.869,0,0,0,10.82-15.5,50.291,50.291,0,0,0,3.91-20.1h0Zm-1229.58,324-52.2-142.4h-17.4l-52.2,142.4h23l9.8-28.6h56.2l9.8,28.6h23Zm-38.8-47h-43.8l22.2-63.2Zm194.2,47-51-86.6,46.2-55.8h-26.4l-58.2,71.6v-71.6h-21.8v142.4h21.8v-41.4l24-28.8,40,70.2h25.4Zm149.19,0-52.2-142.4h-17.4l-52.2,142.4h23l9.8-28.6h56.2l9.8,28.6h23Zm-38.8-47h-43.8l22.2-63.2Zm208.8,47v-142.4h-21.8l-40.7,88.6-41.5-88.6h-21.8v142.4h21.8v-95.2l33.52,69.4h15.96l32.72-69.4v95.2h21.8Zm82.6,0v-142.4h-21.8v142.4h21.8Zm168.4,0v-142.4h-21.8v100l-65.8-100h-19.8v142.4h21.8v-100.2l65.8,100.2h19.8Zm152.2,0v-19.4h-69.4v-42.8h59.2v-19.4h-59.2v-41.4h69.4v-19.4h-91.2v142.4h91.2Z" transform="translate(-4231.34 -2465.06)"/>
</svg>
