<svg xmlns="http://www.w3.org/2000/svg" width="583.844" height="275" viewBox="0 0 583.844 275">
  <defs>
    <style>
      .cls-1 {
        fill: #ececec;
        fill-rule: evenodd;
      }
    </style>
  </defs>
  <path id="bg-modal-sinjyo.svg" class="cls-1" d="M121.9,2931.16V2826.53H105.882v73.48l-48.347-73.48H42.987v104.63H59v-73.62l48.347,73.62H121.9Zm124.759,0-38.354-104.63H195.52l-38.354,104.63h16.9l7.2-21.01h41.293l7.2,21.01h16.9Zm-28.508-34.53H185.968l16.312-46.44Zm141.22-31.37a74.535,74.535,0,0,0-1.031-11.1,35.457,35.457,0,0,0-2.946-9.26,29.845,29.845,0,0,0-5.887-8.08,37.987,37.987,0,0,0-12.369-8.3,39.677,39.677,0,0,0-15.313-2.87,39.108,39.108,0,0,0-15.239,2.87,38.159,38.159,0,0,0-12.294,8.3,29.825,29.825,0,0,0-5.892,8.08,37.493,37.493,0,0,0-3.017,9.26,67.68,67.68,0,0,0-1.1,11.1q-0.149,6.09-.147,13.59c0,4.99.048,9.53,0.147,13.59a67.68,67.68,0,0,0,1.1,11.1,37.281,37.281,0,0,0,3.017,9.25,29.713,29.713,0,0,0,5.892,8.09,38.159,38.159,0,0,0,12.294,8.3,39.107,39.107,0,0,0,15.239,2.86,39.675,39.675,0,0,0,15.313-2.86,37.987,37.987,0,0,0,12.369-8.3,29.734,29.734,0,0,0,5.887-8.09,35.265,35.265,0,0,0,2.946-9.25,74.535,74.535,0,0,0,1.031-11.1c0.1-4.06.147-8.6,0.147-13.59S359.467,2869.32,359.371,2865.26ZM343.28,2892a65.615,65.615,0,0,1-.877,8.82,21.771,21.771,0,0,1-1.906,6.02,20.061,20.061,0,0,1-3.148,4.48,20.583,20.583,0,0,1-6.81,4.71,22.452,22.452,0,0,1-17.428,0,20.562,20.562,0,0,1-6.81-4.71,19.973,19.973,0,0,1-3.15-4.48,21.673,21.673,0,0,1-1.9-6.02,65.091,65.091,0,0,1-.879-8.82q-0.22-5.22-.218-13.15t0.218-13.15a65.091,65.091,0,0,1,.879-8.82,21.859,21.859,0,0,1,1.9-6.03,20.436,20.436,0,0,1,3.15-4.48,20.686,20.686,0,0,1,6.81-4.7,22.452,22.452,0,0,1,17.428,0,19.525,19.525,0,0,1,9.958,9.18,21.958,21.958,0,0,1,1.906,6.03,65.615,65.615,0,0,1,.877,8.82q0.221,5.205.22,13.15T343.28,2892Zm152.608,39.16V2826.53H479.871l-29.9,65.1-30.492-65.1H403.456v104.63h16.018v-69.95l24.628,51h11.726l24.043-51v69.95h16.017Zm60.69,0V2826.53H540.56v104.63h16.018Zm-441.512,126.6a24.1,24.1,0,0,0-6.392-9.26,28.315,28.315,0,0,0-7.789-4.77,53.272,53.272,0,0,0-11.756-3.02l-11.9-1.76q-7.642-1.17-11.756-4.85a11.7,11.7,0,0,1-3.012-4.34,14.439,14.439,0,0,1-.955-5.36,15.336,15.336,0,0,1,4.923-11.68q4.922-4.635,14.181-4.63a42.589,42.589,0,0,1,12.27,1.69,25.692,25.692,0,0,1,10.507,6.39l10.14-9.99a42.482,42.482,0,0,0-14.4-9.11,52.732,52.732,0,0,0-18.075-2.79,45.4,45.4,0,0,0-14.7,2.2A30.53,30.53,0,0,0,55.4,3002.8a28.134,28.134,0,0,0-6.907,9.77,31.192,31.192,0,0,0-2.425,12.42q0,12.78,7.642,19.98,7.054,6.615,19.839,8.38l12.344,1.76a38.954,38.954,0,0,1,7.054,1.62,13.5,13.5,0,0,1,4.409,2.79q4.112,3.675,4.114,10.88,0,7.635-5.657,11.83t-15.944,4.18a46.07,46.07,0,0,1-14.548-2.13,31.1,31.1,0,0,1-12.2-7.86l-10.58,10.44a42.5,42.5,0,0,0,16.312,10.72,62.7,62.7,0,0,0,20.72,3.09,52.912,52.912,0,0,0,15.136-2.06,35.014,35.014,0,0,0,11.9-6.02,27.832,27.832,0,0,0,7.789-9.7,29.155,29.155,0,0,0,2.792-12.93A33.208,33.208,0,0,0,115.066,3057.76Zm112.491,42.03V2995.16H211.539v44.67H169.217v-44.67H153.2v104.63h16.018v-45.7h42.322v45.7h16.018Zm63.776,0V2995.16H275.315v104.63h16.018Zm126.671,0V2995.16H401.986v73.47l-48.347-73.47H339.091v104.63h16.018v-73.63l48.347,73.63H418Zm93.459-33.07v-71.56H495.445v70.39q0,10.29-5.07,15.57t-13.887,5.29c-3.82,0-6.785-.58-8.89-1.76a26.892,26.892,0,0,1-5.952-4.55l-10.58,10.43a33.922,33.922,0,0,0,11.388,7.79,38.257,38.257,0,0,0,14.034,2.35,39.574,39.574,0,0,0,13.524-2.28,34.119,34.119,0,0,0,11.143-6.54,29.69,29.69,0,0,0,7.564-10.58,36.241,36.241,0,0,0,2.744-14.55h0Zm114.768-32.84a74.659,74.659,0,0,0-1.031-11.1,35.385,35.385,0,0,0-2.946-9.25,29.886,29.886,0,0,0-5.887-8.09,37.976,37.976,0,0,0-12.369-8.3,39.671,39.671,0,0,0-15.313-2.86,39.114,39.114,0,0,0-15.239,2.86,38.169,38.169,0,0,0-12.294,8.3,29.861,29.861,0,0,0-5.891,8.09,37.376,37.376,0,0,0-3.017,9.25,67.9,67.9,0,0,0-1.105,11.1q-0.149,6.1-.147,13.59t0.147,13.6a67.661,67.661,0,0,0,1.105,11.09,37.315,37.315,0,0,0,3.017,9.26,29.82,29.82,0,0,0,5.891,8.08,38.01,38.01,0,0,0,12.294,8.3,39.115,39.115,0,0,0,15.239,2.87A39.673,39.673,0,0,0,604,3097.8a37.819,37.819,0,0,0,12.369-8.3,29.845,29.845,0,0,0,5.887-8.08,35.337,35.337,0,0,0,2.946-9.26,74.39,74.39,0,0,0,1.031-11.09q0.145-6.105.147-13.6T626.231,3033.88Zm-16.091,26.74a65.451,65.451,0,0,1-.877,8.82,21.958,21.958,0,0,1-1.906,6.03,20.259,20.259,0,0,1-3.148,4.48,20.559,20.559,0,0,1-6.81,4.7,22.452,22.452,0,0,1-17.428,0,20.538,20.538,0,0,1-6.81-4.7,20.2,20.2,0,0,1-3.15-4.48,21.893,21.893,0,0,1-1.9-6.03,65.253,65.253,0,0,1-.879-8.82q-0.22-5.2-.218-13.15t0.218-13.15a65.425,65.425,0,0,1,.879-8.82,21.706,21.706,0,0,1,1.9-6.02,19.973,19.973,0,0,1,3.15-4.48,20.71,20.71,0,0,1,6.81-4.71,22.452,22.452,0,0,1,17.428,0,20.731,20.731,0,0,1,6.81,4.71,20.029,20.029,0,0,1,3.148,4.48,21.771,21.771,0,0,1,1.906,6.02,65.624,65.624,0,0,1,.877,8.82q0.221,5.22.221,13.15T610.14,3060.62Z" transform="translate(-42.531 -2825.66)"/>
</svg>
