<svg xmlns="http://www.w3.org/2000/svg" width="685.69" height="217.62" viewBox="0 0 685.69 217.62">
  <defs>
    <style>
      .cls-1 {
        fill: #ececec;
        fill-rule: evenodd;
      }
    </style>
  </defs>
  <path id="bg-modal-akamine.svg" class="cls-1" d="M6040.22,2524.16l-25.5-43.3,23.1-27.9h-13.2l-29.1,35.8v-35.8h-10.9v71.2h10.9v-20.7l12-14.4,20,35.1h12.7Zm67.8,0v-9.7h-34.7v-21.4h29.6v-9.7h-29.6v-20.7h34.7v-9.7h-45.6v71.2h45.6Zm80.4,0v-71.2h-10.9v50l-32.9-50h-9.9v71.2h10.9v-50.1l32.9,50.1h9.9Zm41.4,0v-71.2h-10.9v71.2h10.9Zm79-21.3h-10.9a17.361,17.361,0,0,1-4.9,8.8q-3.6,3.4-9.6,3.4a14.819,14.819,0,0,1-5.9-1.15,13.137,13.137,0,0,1-6.75-6.2,14.658,14.658,0,0,1-1.3-4.1,48.746,48.746,0,0,1-.65-6.05c-0.14-2.4-.2-5.4-0.2-9s0.06-6.6.2-9a48.965,48.965,0,0,1,.65-6.05,14.767,14.767,0,0,1,1.3-4.1,13.5,13.5,0,0,1,2.15-3.05,13.645,13.645,0,0,1,4.6-3.15,15,15,0,0,1,5.9-1.15q6,0,9.55,3.4a17.633,17.633,0,0,1,4.85,8.8h11q-1.9-10.7-8.7-16.3a25.435,25.435,0,0,0-16.7-5.6,26.669,26.669,0,0,0-10.31,1.95,26.254,26.254,0,0,0-8.43,5.65,20.4,20.4,0,0,0-4.04,5.5,25.6,25.6,0,0,0-2.07,6.3,46.043,46.043,0,0,0-.75,7.55q-0.1,4.155-.1,9.25c0,3.4.03,6.49,0.1,9.25a45.819,45.819,0,0,0,.75,7.55,25.323,25.323,0,0,0,2.07,6.3,20.1,20.1,0,0,0,4.04,5.5,26.093,26.093,0,0,0,8.43,5.65,26.669,26.669,0,0,0,10.31,1.95,28.585,28.585,0,0,0,9.05-1.4,22.889,22.889,0,0,0,7.6-4.2,23.676,23.676,0,0,0,5.6-6.9,29.664,29.664,0,0,0,3.15-9.4h0Zm76.9,21.3v-71.2h-10.9v30.4h-28.8v-30.4h-10.9v71.2h10.9v-31.1h28.8v31.1h10.9Zm41.39,0v-71.2h-10.9v71.2h10.9Zm82.5,0-16.5-31.5a20.541,20.541,0,0,0,10.16-6.45q4.14-4.74,4.14-12.45a22.033,22.033,0,0,0-1.55-8.35,18.624,18.624,0,0,0-4.46-6.6,21.013,21.013,0,0,0-6.96-4.3,25.631,25.631,0,0,0-9.17-1.55h-27.66v71.2h10.9v-30h13.46l14.94,30h12.7Zm-16.44-42.1a12.764,12.764,0,0,1-8.71,2.9h-15.95v-22.3h15.95a12.692,12.692,0,0,1,8.71,2.95,10.429,10.429,0,0,1,3.34,8.25Q6496.51,2479.17,6493.17,2482.06Zm90.54-2.75a49.905,49.905,0,0,0-.7-7.55,24.3,24.3,0,0,0-2-6.3,20.482,20.482,0,0,0-4.01-5.5,25.892,25.892,0,0,0-8.42-5.65,26.976,26.976,0,0,0-10.42-1.95,26.651,26.651,0,0,0-10.37,1.95,26.074,26.074,0,0,0-8.36,5.65,20.268,20.268,0,0,0-4.01,5.5,25.156,25.156,0,0,0-2.05,6.3,45.991,45.991,0,0,0-.76,7.55c-0.06,2.77-.1,5.85-0.1,9.25s0.04,6.49.1,9.25a45.764,45.764,0,0,0,.76,7.55,24.893,24.893,0,0,0,2.05,6.3,19.968,19.968,0,0,0,4.01,5.5,25.914,25.914,0,0,0,8.36,5.65,26.651,26.651,0,0,0,10.37,1.95,26.976,26.976,0,0,0,10.42-1.95,25.735,25.735,0,0,0,8.42-5.65,20.175,20.175,0,0,0,4.01-5.5,24.057,24.057,0,0,0,2-6.3,49.658,49.658,0,0,0,.7-7.55c0.07-2.76.1-5.85,0.1-9.25S6583.78,2482.08,6583.71,2479.31Zm-10.95,18.2a44.33,44.33,0,0,1-.59,6,14.658,14.658,0,0,1-1.3,4.1,13.257,13.257,0,0,1-6.78,6.25,15.252,15.252,0,0,1-11.86,0,13.983,13.983,0,0,1-4.63-3.2,13.546,13.546,0,0,1-2.14-3.05,14.658,14.658,0,0,1-1.3-4.1,44.153,44.153,0,0,1-.6-6c-0.1-2.36-.15-5.35-0.15-8.95s0.05-6.58.15-8.95a44.5,44.5,0,0,1,.6-6,14.767,14.767,0,0,1,1.3-4.1,13.774,13.774,0,0,1,2.14-3.05,14.132,14.132,0,0,1,4.63-3.2,15.252,15.252,0,0,1,11.86,0,13.257,13.257,0,0,1,6.78,6.25,14.767,14.767,0,0,1,1.3,4.1,44.671,44.671,0,0,1,.59,6q0.15,3.555.15,8.95C6572.91,2492.16,6572.86,2495.15,6572.76,2497.51Zm89.05,2.65v-47.2h-10.9v46.7q0,7.2-4.03,11.3t-10.72,4.1q-6.675,0-10.66-4.1t-3.99-11.3v-46.7h-10.9v47.2a25.062,25.062,0,0,0,1.96,10.05,22.742,22.742,0,0,0,5.36,7.75,24.3,24.3,0,0,0,8.11,5,29.348,29.348,0,0,0,20.24,0,24.987,24.987,0,0,0,8.17-5,22.455,22.455,0,0,0,5.41-7.75,25.231,25.231,0,0,0,1.95-10.05h0ZM6037.02,2670l-26.1-71.2h-8.7l-26.1,71.2h11.5l4.9-14.3h28.1l4.9,14.3h11.5Zm-19.4-23.5h-21.9l11.1-31.6Zm97.1,23.5-25.5-43.3,23.1-27.9h-13.2l-29.1,35.8v-35.8h-10.9V2670h10.9v-20.7l12-14.4,20,35.1h12.7Zm74.6,0-26.1-71.2h-8.7l-26.1,71.2h11.5l4.9-14.3h28.1l4.9,14.3h11.5Zm-19.4-23.5h-21.9l11.1-31.6Zm104.4,23.5v-71.2h-10.9l-20.35,44.3-20.75-44.3h-10.9V2670h10.9v-47.6l16.76,34.7h7.98l16.36-34.7V2670h10.9Zm41.3,0v-71.2h-10.9V2670h10.9Zm84.2,0v-71.2h-10.9v50l-32.9-50h-9.9V2670h10.9v-50.1l32.9,50.1h9.9Zm76.1,0v-9.7h-34.7v-21.4h29.6v-9.7h-29.6v-20.7h34.7v-9.7h-45.6V2670h45.6Z" transform="translate(-5976.12 -2452.38)"/>
</svg>
