<svg xmlns="http://www.w3.org/2000/svg" width="714.59" height="448.68" viewBox="0 0 714.59 448.68">
  <defs>
    <style>
      .cls-1 {
        fill: #ececec;
        fill-rule: evenodd;
        mix-blend-mode: multiply;
      }
    </style>
  </defs>
  <path id="bg-modal-kuda_pc.svg" class="cls-1" d="M4342.63,2468.41h-28.38l-35.96,75.28-35.96-75.28h-28.38l51.23,100.78v70.47h26.22v-70.47Zm172.7,113.53V2468.41h-26.22v112.32q0,17.325-9.71,27.18-9.7,9.87-25.77,9.86t-25.65-9.86q-9.585-9.855-9.59-27.18V2468.41h-26.21v113.53a60.684,60.684,0,0,0,4.69,24.17,54.941,54.941,0,0,0,12.9,18.64,58.89,58.89,0,0,0,19.52,12.03,70.576,70.576,0,0,0,48.68,0,60.271,60.271,0,0,0,19.64-12.03,54.114,54.114,0,0,0,13.01-18.64,60.518,60.518,0,0,0,4.71-24.17h0Zm176.06-90.2v-23.33h-120.5v23.33h47.14v147.92h26.22V2491.74h47.14Zm184.24,147.92-62.78-171.25h-20.92l-62.78,171.25h27.66l11.79-34.39h67.59l11.78,34.39h27.66Zm-46.66-56.52h-52.68l26.7-76.01Zm-460.12,332.52-61.34-104.15,55.57-67.1h-31.75l-70,86.11v-86.11h-26.22v171.25h26.22v-49.79l28.87-34.63,48.1,84.42h30.55Zm173.9-57.72V2744.41h-26.22v112.32q0,17.325-9.71,27.18-9.7,9.87-25.77,9.86t-25.65-9.86q-9.585-9.855-9.59-27.18V2744.41H4419.6v113.53a60.684,60.684,0,0,0,4.69,24.17,54.941,54.941,0,0,0,12.9,18.64,58.789,58.789,0,0,0,19.52,12.03,70.576,70.576,0,0,0,48.68,0,60.271,60.271,0,0,0,19.64-12.03,54.114,54.114,0,0,0,13.01-18.64,60.518,60.518,0,0,0,4.71-24.17h0Zm192.53-47.63a120.451,120.451,0,0,0-1.56-17.92,68.568,68.568,0,0,0-5.06-16.83,52.1,52.1,0,0,0-30.13-27.18,74.471,74.471,0,0,0-24.82-3.97h-60.25v171.25h60.25a74.471,74.471,0,0,0,24.82-3.97,51.12,51.12,0,0,0,19.52-12.14,48.943,48.943,0,0,0,10.61-15.4,74.072,74.072,0,0,0,5.06-17.55,131.038,131.038,0,0,0,1.56-18.77q0.12-9.615.13-19T4735.28,2810.31Zm-27.29,49.67q-1.2,13.35-7.91,20.81-10.545,11.535-29,11.54h-31.4V2767.74h31.4q18.45,0,29,11.54,6.7,7.47,7.91,19.61t1.2,29.94Q4709.19,2846.635,4707.99,2859.98Zm220.55,55.68-62.77-171.25h-20.93l-62.78,171.25h27.66l11.79-34.39h67.59l11.78,34.39h27.66Zm-46.66-56.52h-52.67l26.7-76.01Z" transform="translate(-4213.94 -2468.41)"/>
</svg>
