<svg xmlns="http://www.w3.org/2000/svg" width="660.218" height="17.37" viewBox="0 0 660.218 17.37">
  <defs>
    <style>
      .cls-1 {
        fill: #acacac;
        fill-rule: evenodd;
        opacity: 0.46;
      }
    </style>
  </defs>
  <path id="copyright.svg" class="cls-1" d="M907.132,6267.66h-3.384a3.478,3.478,0,0,1-.96,1.77,2.678,2.678,0,0,1-1.92.66,2.637,2.637,0,0,1-2.136-.89,2.512,2.512,0,0,1-.684-1.45,12.046,12.046,0,0,1-.12-1.32c-0.024-.54-0.036-1.22-0.036-2.05s0.012-1.52.036-2.06a12.046,12.046,0,0,1,.12-1.32,2.512,2.512,0,0,1,.684-1.45,2.637,2.637,0,0,1,2.136-.89,2.678,2.678,0,0,1,1.92.66,3.478,3.478,0,0,1,.96,1.77h3.384a6.442,6.442,0,0,0-10.9-3.53,4.915,4.915,0,0,0-1.392,2.57,31.429,31.429,0,0,0,0,8.49,4.878,4.878,0,0,0,1.392,2.57,6.253,6.253,0,0,0,4.608,1.87,7.021,7.021,0,0,0,2.28-.36,5.711,5.711,0,0,0,1.872-1.04,5.908,5.908,0,0,0,1.368-1.69,7.208,7.208,0,0,0,.768-2.31h0Zm16.1-5.35a11.427,11.427,0,0,0-.18-1.8,6.352,6.352,0,0,0-.5-1.57,4.926,4.926,0,0,0-1-1.38,6.14,6.14,0,0,0-4.608-1.87,6.57,6.57,0,0,0-2.592.48,6.392,6.392,0,0,0-2.04,1.39,4.926,4.926,0,0,0-1,1.38,6.015,6.015,0,0,0-.492,1.57,12.514,12.514,0,0,0-.168,1.8q-0.024.96-.024,2.07c0,0.73.008,1.42,0.024,2.06a12.514,12.514,0,0,0,.168,1.8,6.015,6.015,0,0,0,.492,1.57,4.926,4.926,0,0,0,1,1.38,6.392,6.392,0,0,0,2.04,1.39,6.57,6.57,0,0,0,2.592.48,6.14,6.14,0,0,0,4.608-1.87,4.926,4.926,0,0,0,1-1.38,6.352,6.352,0,0,0,.5-1.57,11.427,11.427,0,0,0,.18-1.8c0.016-.64.024-1.33,0.024-2.06S923.252,6262.95,923.236,6262.31Zm-3.348,4.09a10.43,10.43,0,0,1-.132,1.34,3.118,3.118,0,0,1-.264.85,3.044,3.044,0,0,1-.408.59,2.765,2.765,0,0,1-.9.66,3.015,3.015,0,0,1-1.236.25,3.1,3.1,0,0,1-1.248-.25,2.734,2.734,0,0,1-.912-0.66,2.674,2.674,0,0,1-.4-0.59,3.462,3.462,0,0,1-.252-0.85,10.43,10.43,0,0,1-.132-1.34c-0.024-.53-0.036-1.21-0.036-2.02s0.012-1.5.036-2.03a10.068,10.068,0,0,1,.132-1.33,3.421,3.421,0,0,1,.252-0.86,2.4,2.4,0,0,1,.4-0.58,2.484,2.484,0,0,1,.912-0.66,2.944,2.944,0,0,1,1.248-.26,2.863,2.863,0,0,1,1.236.26,2.506,2.506,0,0,1,.9.66,2.7,2.7,0,0,1,.408.58,3.087,3.087,0,0,1,.264.86,10.068,10.068,0,0,1,.132,1.33c0.024,0.53.036,1.21,0.036,2.03S919.912,6265.87,919.888,6266.4Zm19.38-7.29a4.986,4.986,0,0,0-1.116-1.71,5.362,5.362,0,0,0-1.776-1.15,6.289,6.289,0,0,0-2.364-.42h-6.624v17.09h3.336v-6.43h3.288a6.289,6.289,0,0,0,2.364-.42,5.362,5.362,0,0,0,1.776-1.15,4.986,4.986,0,0,0,1.116-1.71A5.664,5.664,0,0,0,939.268,6259.11Zm-3.612,3.76a2.479,2.479,0,0,1-1.812.64h-3.12v-4.7h3.12a2.484,2.484,0,0,1,1.812.65,2.283,2.283,0,0,1,.66,1.71A2.244,2.244,0,0,1,935.656,6262.87Zm20.172-7.04H952.2l-3.156,6.89-3.2-6.89H942.22l5.136,10.08v7.01h3.336v-7.01Zm17.136,17.09-3.816-7.37a4.813,4.813,0,0,0,1.188-.61,4.373,4.373,0,0,0,1-.96,4.617,4.617,0,0,0,.684-1.28,4.964,4.964,0,0,0,.252-1.64,5.472,5.472,0,0,0-.372-2.02,4.648,4.648,0,0,0-1.092-1.66,5.377,5.377,0,0,0-1.752-1.13,6.132,6.132,0,0,0-2.328-.42h-6.7v17.09h3.336v-6.82h2.4l3.336,6.82h3.864Zm-4.692-10.22a2.49,2.49,0,0,1-1.764.62h-3.144v-4.51h3.144a2.49,2.49,0,0,1,1.764.62A2.355,2.355,0,0,1,968.272,6262.7Zm12.467,10.22v-17.09H977.4v17.09h3.336Zm17.856-7.01v-2.49h-6.48v2.78h3.144v0.65a3.353,3.353,0,0,1-.768,2.28,3.081,3.081,0,0,1-2.376.96,2.637,2.637,0,0,1-2.136-.89,2.6,2.6,0,0,1-.42-0.61,3.206,3.206,0,0,1-.24-0.84,11.835,11.835,0,0,1-.12-1.31c-0.024-.53-0.036-1.22-0.036-2.06s0.012-1.54.036-2.07a9.9,9.9,0,0,1,.132-1.31,3.071,3.071,0,0,1,.252-0.82,2.993,2.993,0,0,1,.4-0.6,2.685,2.685,0,0,1,2.136-.92,2.929,2.929,0,0,1,3.072,2.5h3.384a7.284,7.284,0,0,0-.649-2.1,5.9,5.9,0,0,0-1.287-1.75,5.8,5.8,0,0,0-1.923-1.19,7.1,7.1,0,0,0-2.585-.43,6.27,6.27,0,0,0-4.617,1.87,4.912,4.912,0,0,0-1.394,2.57,31.321,31.321,0,0,0,0,8.49,4.874,4.874,0,0,0,1.394,2.57,6.27,6.27,0,0,0,4.617,1.87,7.176,7.176,0,0,0,2.633-.46,6.61,6.61,0,0,0,2.2-1.48,5.367,5.367,0,0,0,1.262-2.14,10.525,10.525,0,0,0,.373-3.07h0Zm17.235,7.01v-17.09h-3.34v6.96h-5.78v-6.96h-3.34v17.09h3.34v-7.15h5.78v7.15h3.34Zm16.65-14.11v-2.98h-12.26v2.98h4.46v14.11h3.34v-14.11h4.46Zm27.78,2.18a8.722,8.722,0,0,0-1.86-2.76,8.831,8.831,0,0,0-2.76-1.86,8.765,8.765,0,0,0-6.77,0,8.7,8.7,0,0,0-4.62,4.62,8.765,8.765,0,0,0,0,6.77,8.831,8.831,0,0,0,1.86,2.76,9.068,9.068,0,0,0,2.76,1.86,8.765,8.765,0,0,0,6.77,0,8.831,8.831,0,0,0,2.76-1.86,8.5,8.5,0,0,0,1.86-2.76A8.648,8.648,0,0,0,1060.26,6260.99Zm-1.91,6.06a6.34,6.34,0,0,1-3.49,3.55,6.785,6.785,0,0,1-5.21,0,6.4,6.4,0,0,1-3.5-3.55,7.14,7.14,0,0,1,0-5.35,6.673,6.673,0,0,1,1.4-2.14,6.576,6.576,0,0,1,2.1-1.41,6.785,6.785,0,0,1,5.21,0,6.363,6.363,0,0,1,2.1,1.41,6.486,6.486,0,0,1,1.39,2.14A7.27,7.27,0,0,1,1058.35,6267.05Zm-4.1-.56a3.856,3.856,0,0,1-.88.59,2.252,2.252,0,0,1-.94.18,1.957,1.957,0,0,1-1.71-.78,4.284,4.284,0,0,1,0-4.2,1.957,1.957,0,0,1,1.71-.78,2.252,2.252,0,0,1,.94.18,3.778,3.778,0,0,1,.88.58l1.34-1.34a6.348,6.348,0,0,0-1.42-.94,4.221,4.221,0,0,0-1.74-.33,4.508,4.508,0,0,0-1.7.31,3.9,3.9,0,0,0-1.35.9,3.991,3.991,0,0,0-.91,1.48,5.593,5.593,0,0,0-.34,2.04,5.483,5.483,0,0,0,.34,2.02,4.16,4.16,0,0,0,.91,1.48,3.641,3.641,0,0,0,1.35.9,4.71,4.71,0,0,0,1.7.3,4.48,4.48,0,0,0,1.75-.32,5.379,5.379,0,0,0,1.41-.93Zm28.87,6.43v-2.81h-6.6l4.78-5.54c0.29-.34.55-0.65,0.78-0.95a5.6,5.6,0,0,0,.57-0.9,4.015,4.015,0,0,0,.35-0.95,4.72,4.72,0,0,0,.12-1.11,5.505,5.505,0,0,0-.38-2.08,4.34,4.34,0,0,0-1.07-1.56,4.809,4.809,0,0,0-1.64-.98,5.917,5.917,0,0,0-2.09-.35,6.163,6.163,0,0,0-2.05.33,4.858,4.858,0,0,0-1.66.99,4.411,4.411,0,0,0-1.1,1.57,5.209,5.209,0,0,0-.4,2.1h3.12a2.622,2.622,0,0,1,.18-1.04,1.815,1.815,0,0,1,.48-0.68,2.066,2.066,0,0,1,.67-0.36,2.783,2.783,0,0,1,.76-0.1,1.947,1.947,0,0,1,1.53.58,2.212,2.212,0,0,1,.53,1.55,2.707,2.707,0,0,1-.2,1.06,4.547,4.547,0,0,1-.69,1.01l-6.38,7.41v2.81h10.39Zm14.14-12.14a5.366,5.366,0,0,0-.42-2.18,4.734,4.734,0,0,0-1.13-1.59,4.858,4.858,0,0,0-1.66-.99,6.135,6.135,0,0,0-3.97,0,5.113,5.113,0,0,0-1.65.99,4.623,4.623,0,0,0-1.14,1.59,5.366,5.366,0,0,0-.42,2.18v7.2a5.317,5.317,0,0,0,.42,2.17,4.623,4.623,0,0,0,1.14,1.59,4.943,4.943,0,0,0,1.65.99,6.135,6.135,0,0,0,3.97,0,4.711,4.711,0,0,0,2.79-2.58,5.317,5.317,0,0,0,.42-2.17v-7.2Zm-3.12,7.17a2.328,2.328,0,0,1-.58,1.69,1.946,1.946,0,0,1-1.49.62,2.014,2.014,0,0,1-1.5-.62,2.328,2.328,0,0,1-.58-1.69v-7.13a2.386,2.386,0,0,1,.58-1.7,1.977,1.977,0,0,1,1.5-.62,1.912,1.912,0,0,1,1.49.62,2.386,2.386,0,0,1,.58,1.7v7.13Zm17.45,4.97v-2.81h-6.6l4.77-5.54c0.29-.34.55-0.65,0.78-0.95a5.69,5.69,0,0,0,.58-0.9,4.507,4.507,0,0,0,.35-0.95,4.72,4.72,0,0,0,.12-1.11,5.318,5.318,0,0,0-.39-2.08,4.219,4.219,0,0,0-1.07-1.56,4.715,4.715,0,0,0-1.64-.98,5.917,5.917,0,0,0-2.09-.35,6.206,6.206,0,0,0-2.05.33,5.055,5.055,0,0,0-1.66.99,4.411,4.411,0,0,0-1.1,1.57,5.384,5.384,0,0,0-.4,2.1h3.12a2.622,2.622,0,0,1,.18-1.04,1.815,1.815,0,0,1,.48-0.68,2.115,2.115,0,0,1,.68-0.36,2.712,2.712,0,0,1,.75-0.1,1.97,1.97,0,0,1,1.54.58,2.259,2.259,0,0,1,.53,1.55,2.539,2.539,0,0,1-.21,1.06,4.15,4.15,0,0,1-.68,1.01l-6.39,7.41v2.81h10.4Zm15.09-12.14a5.366,5.366,0,0,0-.42-2.18,4.6,4.6,0,0,0-1.13-1.59,4.909,4.909,0,0,0-1.65-.99,5.962,5.962,0,0,0-1.98-.33,5.894,5.894,0,0,0-1.99.33,5.055,5.055,0,0,0-1.66.99,4.623,4.623,0,0,0-1.14,1.59,5.366,5.366,0,0,0-.42,2.18v7.2a5.317,5.317,0,0,0,.42,2.17,4.623,4.623,0,0,0,1.14,1.59,4.89,4.89,0,0,0,1.66.99,5.894,5.894,0,0,0,1.99.33,5.962,5.962,0,0,0,1.98-.33,4.752,4.752,0,0,0,1.65-.99,4.6,4.6,0,0,0,1.13-1.59,5.317,5.317,0,0,0,.42-2.17v-7.2Zm-3.12,7.17a2.368,2.368,0,0,1-.57,1.69,1.961,1.961,0,0,1-1.49.62,1.983,1.983,0,0,1-1.5-.62,2.333,2.333,0,0,1-.59-1.69v-7.13a2.391,2.391,0,0,1,.59-1.7,1.948,1.948,0,0,1,1.5-.62,1.926,1.926,0,0,1,1.49.62,2.427,2.427,0,0,1,.57,1.7v7.13Zm27.87-5.64a12.463,12.463,0,0,0-.18-1.8,6.715,6.715,0,0,0-.51-1.57,4.9,4.9,0,0,0-.99-1.38,6.809,6.809,0,0,0-7.2-1.39,6.221,6.221,0,0,0-2.04,1.39,4.75,4.75,0,0,0-1,1.38,5.864,5.864,0,0,0-.49,1.57,12.506,12.506,0,0,0-.17,1.8c-0.02.64-.02,1.33-0.02,2.07s0,1.42.02,2.06a12.506,12.506,0,0,0,.17,1.8,5.864,5.864,0,0,0,.49,1.57,4.75,4.75,0,0,0,1,1.38,6.221,6.221,0,0,0,2.04,1.39,6.49,6.49,0,0,0,7.2-1.39,4.9,4.9,0,0,0,.99-1.38,6.715,6.715,0,0,0,.51-1.57,12.463,12.463,0,0,0,.18-1.8c0.01-.64.02-1.33,0.02-2.06S1151.44,6262.95,1151.43,6262.31Zm-3.35,4.09a12.675,12.675,0,0,1-.13,1.34,3.407,3.407,0,0,1-.27.85,2.968,2.968,0,0,1-.41.59,2.765,2.765,0,0,1-.9.66,3,3,0,0,1-1.23.25,3.1,3.1,0,0,1-1.25-.25,2.705,2.705,0,0,1-.91-0.66,2.92,2.92,0,0,1-.4-0.59,3.468,3.468,0,0,1-.25-0.85,10.474,10.474,0,0,1-.13-1.34c-0.03-.53-0.04-1.21-0.04-2.02s0.01-1.5.04-2.03a10.112,10.112,0,0,1,.13-1.33,3.428,3.428,0,0,1,.25-0.86,2.6,2.6,0,0,1,.4-0.58,2.46,2.46,0,0,1,.91-0.66,2.94,2.94,0,0,1,1.25-.26,2.848,2.848,0,0,1,1.23.26,2.506,2.506,0,0,1,.9.66,2.643,2.643,0,0,1,.41.58,3.362,3.362,0,0,1,.27.86,12.189,12.189,0,0,1,.13,1.33c0.02,0.53.03,1.21,0.03,2.03S1148.1,6265.87,1148.08,6266.4Zm19.52-4.09a10.162,10.162,0,0,0-.18-1.8,6.263,6.263,0,0,0-.5-1.57,4.943,4.943,0,0,0-1-1.38,6.149,6.149,0,0,0-4.61-1.87,6.574,6.574,0,0,0-2.59.48,6.436,6.436,0,0,0-2.04,1.39,4.9,4.9,0,0,0-.99,1.38,5.88,5.88,0,0,0-.5,1.57,12.55,12.55,0,0,0-.16,1.8q-0.03.96-.03,2.07c0,0.73.01,1.42,0.03,2.06a12.55,12.55,0,0,0,.16,1.8,5.88,5.88,0,0,0,.5,1.57,4.9,4.9,0,0,0,.99,1.38,6.436,6.436,0,0,0,2.04,1.39,6.574,6.574,0,0,0,2.59.48,6.149,6.149,0,0,0,4.61-1.87,4.943,4.943,0,0,0,1-1.38,6.263,6.263,0,0,0,.5-1.57,10.162,10.162,0,0,0,.18-1.8c0.02-.64.03-1.33,0.03-2.06S1167.62,6262.95,1167.6,6262.31Zm-3.35,4.09a8.926,8.926,0,0,1-.13,1.34,3.058,3.058,0,0,1-.26.85,2.968,2.968,0,0,1-.41.59,2.765,2.765,0,0,1-.9.66,3.014,3.014,0,0,1-1.24.25,3.049,3.049,0,0,1-1.24-.25,2.748,2.748,0,0,1-.92-0.66,2.516,2.516,0,0,1-.39-0.59,3.08,3.08,0,0,1-.25-0.85,10.258,10.258,0,0,1-.14-1.34c-0.02-.53-0.03-1.21-0.03-2.02s0.01-1.5.03-2.03a9.9,9.9,0,0,1,.14-1.33,3.055,3.055,0,0,1,.25-0.86,2.272,2.272,0,0,1,.39-0.58,2.5,2.5,0,0,1,.92-0.66,2.894,2.894,0,0,1,1.24-.26,2.862,2.862,0,0,1,1.24.26,2.506,2.506,0,0,1,.9.66,2.643,2.643,0,0,1,.41.58,3.031,3.031,0,0,1,.26.86,8.642,8.642,0,0,1,.13,1.33c0.03,0.53.04,1.21,0.04,2.03S1164.28,6265.87,1164.25,6266.4Zm21.33,6.52-6.07-10.3,5.66-6.79h-4.06l-6.02,7.44v-7.44h-3.34v17.09h3.34v-5.14l2.21-2.64,4.39,7.78h3.89Zm6.19,0v-17.09h-3.34v17.09h3.34Zm17.78,0v-17.09h-3.33v10.47l-6.77-10.47h-2.98v17.09h3.34v-10.49l6.77,10.49h2.97Zm17.91,0-6.24-17.09h-2.62l-6.21,17.09h3.48l1.03-3.02h6.07l1.01,3.02h3.48Zm-5.38-5.83h-4.25l2.16-6.22Zm27.36-11.26h-3.48l-2.66,10.78-3.12-10.78h-2.5l-3.12,10.78-2.64-10.78h-3.48l4.56,17.09h2.79l3.14-10.37,3.14,10.37h2.79Zm16.06,17.09-6.24-17.09h-2.62l-6.21,17.09h3.48l1.03-3.02h6.07l1.01,3.02h3.48Zm-5.38-5.83h-4.25l2.16-6.22Zm33.98,5.83-6.24-17.09h-2.61l-6.22,17.09h3.48l1.03-3.02h6.08l1,3.02h3.48Zm-5.37-5.83h-4.25l2.16-6.22Zm19.29,5.83v-2.98h-7.75v-14.11h-3.33v17.09h11.08Zm14.52,0v-2.98h-7.75v-14.11h-3.33v17.09h11.08Zm21.17,0-3.81-7.37a4.729,4.729,0,0,0,1.18-.61,4.485,4.485,0,0,0,1.68-2.24,4.907,4.907,0,0,0,.26-1.64,5.416,5.416,0,0,0-.38-2.02,4.527,4.527,0,0,0-1.09-1.66,5.336,5.336,0,0,0-1.75-1.13,6.124,6.124,0,0,0-2.33-.42h-6.69v17.09h3.33v-6.82h2.4l3.34,6.82h3.86Zm-4.69-10.22a2.487,2.487,0,0,1-1.76.62h-3.15v-4.51h3.15a2.487,2.487,0,0,1,1.76.62A2.355,2.355,0,0,1,1339.02,6262.7Zm11.51,10.22v-17.09h-3.34v17.09h3.34Zm16.89-7.01v-2.49h-6.48v2.78h3.15v0.65a3.365,3.365,0,0,1-.77,2.28,3.075,3.075,0,0,1-2.38.96,2.628,2.628,0,0,1-2.13-.89,2.38,2.38,0,0,1-.42-0.61,2.8,2.8,0,0,1-.24-0.84,10.162,10.162,0,0,1-.12-1.31c-0.03-.53-0.04-1.22-0.04-2.06s0.01-1.54.04-2.07a9.944,9.944,0,0,1,.13-1.31,3.077,3.077,0,0,1,.25-0.82,3.3,3.3,0,0,1,.4-0.6,2.683,2.683,0,0,1,2.13-.92,2.934,2.934,0,0,1,3.08,2.5h3.38a7.225,7.225,0,0,0-.65-2.1,5.843,5.843,0,0,0-1.29-1.75,5.669,5.669,0,0,0-1.92-1.19,7.121,7.121,0,0,0-2.58-.43,6.274,6.274,0,0,0-4.62,1.87,4.957,4.957,0,0,0-1.4,2.57,32.319,32.319,0,0,0,0,8.49,4.919,4.919,0,0,0,1.4,2.57,6.274,6.274,0,0,0,4.62,1.87,7.156,7.156,0,0,0,2.63-.46,6.62,6.62,0,0,0,2.2-1.48,5.421,5.421,0,0,0,1.26-2.14,10.5,10.5,0,0,0,.37-3.07h0Zm16.28,7.01v-17.09h-3.34v6.96h-5.78v-6.96h-3.34v17.09h3.34v-7.15h5.78v7.15h3.34Zm15.69-14.11v-2.98h-12.26v2.98h4.46v14.11h3.34v-14.11h4.46Zm14.16,7.01a3.7,3.7,0,0,0-1.01-1.56,4.184,4.184,0,0,0-1.32-.83,7.7,7.7,0,0,0-1.94-.49l-2.02-.29a3.331,3.331,0,0,1-.92-0.25,2.669,2.669,0,0,1-.66-0.42,1.618,1.618,0,0,1-.38-0.58,1.785,1.785,0,0,1-.12-0.65,2.048,2.048,0,0,1,.64-1.52,2.747,2.747,0,0,1,2-.64,7.956,7.956,0,0,1,1.76.21,3.63,3.63,0,0,1,1.74.97l2.11-2.09a6.508,6.508,0,0,0-2.42-1.54,9.606,9.606,0,0,0-3.1-.45,7.661,7.661,0,0,0-2.49.38,5.566,5.566,0,0,0-1.88,1.07,4.618,4.618,0,0,0-1.17,1.63,5.279,5.279,0,0,0-.41,2.1,4.543,4.543,0,0,0,1.22,3.36,5.8,5.8,0,0,0,3.32,1.42l2.06,0.29a4.6,4.6,0,0,1,.92.22,1.927,1.927,0,0,1,.59.38,1.887,1.887,0,0,1,.53,1.44,1.813,1.813,0,0,1-.77,1.57,3.892,3.892,0,0,1-2.25.54,8.227,8.227,0,0,1-2.26-.31,4.425,4.425,0,0,1-1.87-1.13l-2.16,2.16a6.735,6.735,0,0,0,2.77,1.76,11.229,11.229,0,0,0,3.47.49,8.615,8.615,0,0,0,2.49-.34,6.327,6.327,0,0,0,2.01-1.01,4.66,4.66,0,0,0,1.83-3.83A6.238,6.238,0,0,0,1413.55,6265.82Zm23.4,7.1-3.81-7.37a4.729,4.729,0,0,0,1.18-.61,4.485,4.485,0,0,0,1.68-2.24,4.907,4.907,0,0,0,.26-1.64,5.416,5.416,0,0,0-.38-2.02,4.657,4.657,0,0,0-1.09-1.66,5.336,5.336,0,0,0-1.75-1.13,6.124,6.124,0,0,0-2.33-.42h-6.69v17.09h3.33v-6.82h2.4l3.34,6.82h3.86Zm-4.69-10.22a2.487,2.487,0,0,1-1.76.62h-3.15v-4.51h3.15a2.487,2.487,0,0,1,1.76.62A2.355,2.355,0,0,1,1432.26,6262.7Zm19.43,10.22v-2.98h-7.92v-4.15h6.74v-2.97h-6.74v-4.01h7.92v-2.98h-11.26v17.09h11.26Zm16.15-7.1a3.8,3.8,0,0,0-1.01-1.56,4.423,4.423,0,0,0-1.32-.83,7.7,7.7,0,0,0-1.94-.49l-2.02-.29a3.331,3.331,0,0,1-.92-0.25,2.341,2.341,0,0,1-.66-0.42,1.65,1.65,0,0,1-.39-0.58,1.785,1.785,0,0,1-.12-0.65,2.058,2.058,0,0,1,.65-1.52,2.721,2.721,0,0,1,1.99-.64,8.042,8.042,0,0,1,1.77.21,3.722,3.722,0,0,1,1.74.97l2.11-2.09a6.624,6.624,0,0,0-2.43-1.54,9.585,9.585,0,0,0-3.09-.45,7.767,7.767,0,0,0-2.5.38,5.518,5.518,0,0,0-1.87,1.07,4.773,4.773,0,0,0-1.18,1.63,5.277,5.277,0,0,0-.4,2.1,4.5,4.5,0,0,0,1.22,3.36,5.766,5.766,0,0,0,3.31,1.42l2.07,0.29a4.788,4.788,0,0,1,.92.22,2.054,2.054,0,0,1,.59.38,1.887,1.887,0,0,1,.53,1.44,1.813,1.813,0,0,1-.77,1.57,3.928,3.928,0,0,1-2.26.54,8.155,8.155,0,0,1-2.25-.31,4.459,4.459,0,0,1-1.88-1.13l-2.16,2.16a6.832,6.832,0,0,0,2.78,1.76,11.163,11.163,0,0,0,3.46.49,8.685,8.685,0,0,0,2.5-.34,6.17,6.17,0,0,0,2-1.01,4.631,4.631,0,0,0,1.84-3.83A6.238,6.238,0,0,0,1467.84,6265.82Zm15.43,7.1v-2.98h-7.92v-4.15h6.74v-2.97h-6.74v-4.01h7.92v-2.98h-11.26v17.09h11.26Zm16.92,0-3.82-7.37a4.624,4.624,0,0,0,1.19-.61,4.329,4.329,0,0,0,1-.96,4.608,4.608,0,0,0,.68-1.28,4.913,4.913,0,0,0,.25-1.64,5.411,5.411,0,0,0-.37-2.02,4.657,4.657,0,0,0-1.09-1.66,5.336,5.336,0,0,0-1.75-1.13,6.161,6.161,0,0,0-2.33-.42h-6.7v17.09h3.34v-6.82h2.4l3.34,6.82h3.86Zm-4.69-10.22a2.5,2.5,0,0,1-1.77.62h-3.14v-4.51h3.14a2.5,2.5,0,0,1,1.77.62A2.355,2.355,0,0,1,1495.5,6262.7Zm21.01-6.87h-3.48l-3.43,11.14-3.43-11.14h-3.46l5.64,17.09h2.5Zm14.52,17.09v-2.98h-7.92v-4.15h6.74v-2.97h-6.74v-4.01h7.92v-2.98h-11.26v17.09h11.26Zm16.39-10.5a11.589,11.589,0,0,0-.14-1.79,6.722,6.722,0,0,0-.51-1.65,5.194,5.194,0,0,0-1.08-1.52,5.025,5.025,0,0,0-2-1.23,7.592,7.592,0,0,0-2.51-.4h-6.17v17.09h6.17a7.592,7.592,0,0,0,2.51-.4,5.222,5.222,0,0,0,3.08-2.77,7.1,7.1,0,0,0,.51-1.7,12.25,12.25,0,0,0,.14-1.84v-3.79Zm-3.47,4.86a3.2,3.2,0,0,1-.58,1.61,2.854,2.854,0,0,1-1.04.79,3.532,3.532,0,0,1-1.46.26h-2.52v-11.13h2.52a3.7,3.7,0,0,1,1.46.26,2.854,2.854,0,0,1,1.04.79,2.639,2.639,0,0,1,.38.65,3.731,3.731,0,0,1,.22.89c0.04,0.35.08,0.76,0.09,1.24s0.03,1.02.03,1.66A24.474,24.474,0,0,1,1543.95,6267.28Zm10.82,5.64v-3.55h-3.58v3.55h3.58Z" transform="translate(-894.562 -6255.69)"/>
</svg>
