<svg xmlns="http://www.w3.org/2000/svg" width="365.53" height="21.72" viewBox="0 0 365.53 21.72">
  <defs>
    <style>
      .cls-1 {
        fill-rule: evenodd;
      }
    </style>
  </defs>
  <path id="en-akamine.svg" class="cls-1" d="M2562.78,3686.65l-7.65-12.99,6.93-8.37h-3.96l-8.73,10.74v-10.74h-3.27v21.36h3.27v-6.21l3.6-4.32,6,10.53h3.81Zm21.54,0v-2.91h-10.41v-6.42h8.88v-2.91h-8.88v-6.21h10.41v-2.91h-13.68v21.36h13.68Zm25.32,0v-21.36h-3.27v15l-9.87-15h-2.97v21.36h3.27v-15.03l9.87,15.03h2.97Zm13.62,0v-21.36h-3.27v21.36h3.27Zm24.9-6.39h-3.27a5.209,5.209,0,0,1-1.47,2.64,4.023,4.023,0,0,1-2.88,1.02,4.468,4.468,0,0,1-1.77-.34,4.1,4.1,0,0,1-1.38-.95,4.049,4.049,0,0,1-.64-0.91,4.452,4.452,0,0,1-.39-1.23,14.824,14.824,0,0,1-.2-1.82q-0.06-1.08-.06-2.7t0.06-2.7a14.636,14.636,0,0,1,.2-1.81,4.452,4.452,0,0,1,.39-1.23,3.846,3.846,0,0,1,2.02-1.86,4.472,4.472,0,0,1,1.77-.35,3.981,3.981,0,0,1,2.87,1.02,5.256,5.256,0,0,1,1.45,2.64h3.3a7.842,7.842,0,0,0-2.61-4.89,7.621,7.621,0,0,0-5.01-1.68,7.987,7.987,0,0,0-3.09.59,7.854,7.854,0,0,0-2.53,1.69,6.129,6.129,0,0,0-1.21,1.65,7.623,7.623,0,0,0-.62,1.89,13.926,13.926,0,0,0-.23,2.27c-0.02.83-.03,1.75-0.03,2.77s0.01,1.95.03,2.78a13.8,13.8,0,0,0,.23,2.26,7.623,7.623,0,0,0,.62,1.89,6.129,6.129,0,0,0,1.21,1.65,7.885,7.885,0,0,0,2.53,1.7,7.984,7.984,0,0,0,3.09.58,8.655,8.655,0,0,0,2.72-.42,6.873,6.873,0,0,0,2.28-1.26,7.14,7.14,0,0,0,1.68-2.07,8.921,8.921,0,0,0,.94-2.82h0Zm24.27,6.39v-21.36h-3.27v9.12h-8.64v-9.12h-3.27v21.36h3.27v-9.33h8.64v9.33h3.27Zm13.62,0v-21.36h-3.27v21.36h3.27Zm25.95,0-4.95-9.45a6.221,6.221,0,0,0,3.05-1.93,5.482,5.482,0,0,0,1.24-3.74,6.621,6.621,0,0,0-.47-2.5,5.533,5.533,0,0,0-1.33-1.98,6.244,6.244,0,0,0-2.09-1.29,7.661,7.661,0,0,0-2.75-.47h-8.3v21.36h3.27v-9h4.04l4.48,9H2712Zm-4.93-12.63a3.854,3.854,0,0,1-2.62.87h-4.78v-6.69h4.78a3.816,3.816,0,0,1,2.62.89,3.111,3.111,0,0,1,1,2.47A3.075,3.075,0,0,1,2707.07,3674.02Zm28.36-.82a15.266,15.266,0,0,0-.21-2.27,7.2,7.2,0,0,0-.6-1.89,6.085,6.085,0,0,0-1.2-1.65,7.854,7.854,0,0,0-2.53-1.69,8.544,8.544,0,0,0-6.24,0,7.881,7.881,0,0,0-2.51,1.69,6.085,6.085,0,0,0-1.2,1.65,7.609,7.609,0,0,0-.61,1.89,13.926,13.926,0,0,0-.23,2.27c-0.02.83-.03,1.75-0.03,2.77s0.01,1.95.03,2.78a13.8,13.8,0,0,0,.23,2.26,7.609,7.609,0,0,0,.61,1.89,6.085,6.085,0,0,0,1.2,1.65,7.912,7.912,0,0,0,2.51,1.7,8.682,8.682,0,0,0,6.24,0,7.885,7.885,0,0,0,2.53-1.7,6.085,6.085,0,0,0,1.2-1.65,7.2,7.2,0,0,0,.6-1.89,15.125,15.125,0,0,0,.21-2.26c0.02-.83.03-1.76,0.03-2.78S2735.45,3674.03,2735.43,3673.2Zm-3.28,5.46a13.28,13.28,0,0,1-.18,1.8,4.452,4.452,0,0,1-.39,1.23,4.079,4.079,0,0,1-2.04,1.87,4.556,4.556,0,0,1-3.55,0,4.079,4.079,0,0,1-2.04-1.87,4.452,4.452,0,0,1-.39-1.23,13.28,13.28,0,0,1-.18-1.8c-0.03-.71-0.04-1.61-0.04-2.69s0.01-1.97.04-2.68a13.28,13.28,0,0,1,.18-1.8,4.452,4.452,0,0,1,.39-1.23,4.151,4.151,0,0,1,.65-0.92,4.107,4.107,0,0,1,1.39-.96,4.556,4.556,0,0,1,3.55,0,4.107,4.107,0,0,1,1.39.96,4.151,4.151,0,0,1,.65.92,4.452,4.452,0,0,1,.39,1.23,13.28,13.28,0,0,1,.18,1.8c0.03,0.71.04,1.6,0.04,2.68S2732.18,3677.95,2732.15,3678.66Zm40.6,7.99-7.83-21.36h-2.61l-7.83,21.36h3.45l1.47-4.29h8.43l1.47,4.29h3.45Zm-5.82-7.05h-6.57l3.33-9.48Zm30.33,7.05-7.65-12.99,6.93-8.37h-3.96l-8.73,10.74v-10.74h-3.27v21.36h3.27v-6.21l3.6-4.32,6,10.53h3.81Zm23.58,0-7.83-21.36h-2.61l-7.83,21.36h3.45l1.47-4.29h8.43l1.47,4.29h3.45Zm-5.82-7.05h-6.57l3.33-9.48Zm32.52,7.05v-21.36h-3.27l-6.11,13.29-6.22-13.29h-3.27v21.36h3.27v-14.28l5.03,10.41h2.39l4.91-10.41v14.28h3.27Zm13.59,0v-21.36h-3.27v21.36h3.27Zm26.46,0v-21.36h-3.27v15l-9.87-15h-2.97v21.36h3.27v-15.03l9.87,15.03h2.97Zm24.03,0v-2.91h-10.41v-6.42h8.88v-2.91h-8.88v-6.21h10.41v-2.91h-13.68v21.36h13.68Z" transform="translate(-2546.09 -3665.12)"/>
</svg>
