<svg xmlns="http://www.w3.org/2000/svg" width="196.03" height="21.56" viewBox="0 0 196.03 21.56">
  <defs>
    <style>
      .cls-1 {
        fill-rule: evenodd;
      }
    </style>
  </defs>
  <path id="en-kuda.svg" class="cls-1" d="M2559.51,3665.29h-3.54l-4.48,9.39-4.49-9.39h-3.54l6.39,12.57v8.79h3.27v-8.79Zm22.74,14.16v-14.16h-3.27v14.01a4.611,4.611,0,0,1-1.21,3.39,4.31,4.31,0,0,1-3.21,1.23,4.241,4.241,0,0,1-3.2-1.23,4.648,4.648,0,0,1-1.2-3.39v-14.01h-3.27v14.16a7.6,7.6,0,0,0,.59,3.02,6.713,6.713,0,0,0,1.61,2.32,7.32,7.32,0,0,0,2.43,1.5,8.8,8.8,0,0,0,6.07,0,7.515,7.515,0,0,0,2.45-1.5,6.9,6.9,0,0,0,1.63-2.32,7.6,7.6,0,0,0,.58-3.02h0Zm23.16-11.25v-2.91h-15.03v2.91h5.88v18.45h3.27V3668.2h5.88Zm24.18,18.45-7.83-21.36h-2.61l-7.83,21.36h3.45l1.47-4.29h8.43l1.47,4.29h3.45Zm-5.82-7.05h-6.57l3.33-9.48Zm42.33,7.05-7.65-12.99,6.93-8.37h-3.96l-8.73,10.74v-10.74h-3.27v21.36h3.27v-6.21l3.6-4.32,6,10.53h3.81Zm22.89-7.2v-14.16h-3.27v14.01a4.611,4.611,0,0,1-1.21,3.39,4.31,4.31,0,0,1-3.21,1.23,4.241,4.241,0,0,1-3.2-1.23,4.648,4.648,0,0,1-1.2-3.39v-14.01h-3.27v14.16a7.6,7.6,0,0,0,.59,3.02,6.825,6.825,0,0,0,1.6,2.32,7.469,7.469,0,0,0,2.44,1.5,8.8,8.8,0,0,0,6.07,0,7.515,7.515,0,0,0,2.45-1.5,6.737,6.737,0,0,0,1.62-2.32,7.432,7.432,0,0,0,.59-3.02h0Zm25.22-5.94a16.356,16.356,0,0,0-.2-2.23,8.484,8.484,0,0,0-.63-2.1,6.31,6.31,0,0,0-1.32-1.88,6.475,6.475,0,0,0-2.44-1.51,9.271,9.271,0,0,0-3.09-.5h-7.52v21.36h7.52a9.272,9.272,0,0,0,3.09-.49,6.5,6.5,0,0,0,2.44-1.52,6.112,6.112,0,0,0,1.32-1.92,9.167,9.167,0,0,0,.63-2.19,17.86,17.86,0,0,0,.2-2.34c0.01-.8.01-1.59,0.01-2.37S2714.22,3674.27,2714.21,3673.51Zm-3.41,6.2a4.327,4.327,0,0,1-.99,2.59,4.635,4.635,0,0,1-3.61,1.44h-3.92V3668.2h3.92a4.635,4.635,0,0,1,3.61,1.44,4.161,4.161,0,0,1,.99,2.45c0.1,1.01.15,2.25,0.15,3.73S2710.9,3678.6,2710.8,3679.71Zm28.71,6.94-7.83-21.36h-2.61l-7.83,21.36h3.45l1.47-4.29h8.43l1.47,4.29h3.45Zm-5.82-7.05h-6.57l3.33-9.48Z" transform="translate(-2543.47 -3665.28)"/>
</svg>
