<svg xmlns="http://www.w3.org/2000/svg" width="251.72" height="21.72" viewBox="0 0 251.72 21.72">
  <defs>
    <style>
      .cls-1 {
        fill-rule: evenodd;
      }
    </style>
  </defs>
  <path id="en-sinjyo.svg" class="cls-1" d="M1117.21,3460.65v-21.36h-3.27v15l-9.87-15h-2.97v21.36h3.27v-15.03l9.87,15.03h2.97Zm26.07,0-7.83-21.36h-2.61l-7.83,21.36h3.45l1.47-4.29h8.43l1.47,4.29h3.45Zm-5.82-7.05h-6.57l3.33-9.48Zm28.23-6.4a15.266,15.266,0,0,0-.21-2.27,7.2,7.2,0,0,0-.6-1.89,6.085,6.085,0,0,0-1.2-1.65,7.748,7.748,0,0,0-2.53-1.69,8.067,8.067,0,0,0-3.12-.59,7.945,7.945,0,0,0-3.11.59,7.667,7.667,0,0,0-2.51,1.69,5.923,5.923,0,0,0-1.21,1.65,7.609,7.609,0,0,0-.61,1.89,13.926,13.926,0,0,0-.23,2.27c-0.02.83-.03,1.75-0.03,2.77s0.01,1.95.03,2.78a13.8,13.8,0,0,0,.23,2.26,7.609,7.609,0,0,0,.61,1.89,5.923,5.923,0,0,0,1.21,1.65,7.7,7.7,0,0,0,2.51,1.7,7.944,7.944,0,0,0,3.11.58,8.065,8.065,0,0,0,3.12-.58,7.778,7.778,0,0,0,2.53-1.7,6.085,6.085,0,0,0,1.2-1.65,7.2,7.2,0,0,0,.6-1.89,15.125,15.125,0,0,0,.21-2.26c0.02-.83.03-1.76,0.03-2.78S1165.71,3448.03,1165.69,3447.2Zm-3.28,5.46a13.28,13.28,0,0,1-.18,1.8,4.452,4.452,0,0,1-.39,1.23,4.4,4.4,0,0,1-.64.91,4.314,4.314,0,0,1-1.39.96,4.581,4.581,0,0,1-3.56,0,4.208,4.208,0,0,1-1.39-.96,4.094,4.094,0,0,1-.65-0.91,4.465,4.465,0,0,1-.38-1.23,13.28,13.28,0,0,1-.18-1.8c-0.03-.71-0.05-1.61-0.05-2.69s0.02-1.97.05-2.68a13.28,13.28,0,0,1,.18-1.8,4.465,4.465,0,0,1,.38-1.23,4.151,4.151,0,0,1,.65-0.92,4.208,4.208,0,0,1,1.39-.96,4.581,4.581,0,0,1,3.56,0,4.314,4.314,0,0,1,1.39.96,4.024,4.024,0,0,1,1.03,2.15,13.28,13.28,0,0,1,.18,1.8c0.03,0.71.04,1.6,0.04,2.68S1162.44,3451.95,1162.41,3452.66Zm31.75,7.99v-21.36h-3.27l-6.1,13.29-6.23-13.29h-3.27v21.36h3.27v-14.28l5.03,10.41h2.39l4.91-10.41v14.28h3.27Zm13.59,0v-21.36h-3.27v21.36h3.27Zm35.27-8.58a4.915,4.915,0,0,0-1.31-1.89,5.79,5.79,0,0,0-1.59-.97,10.844,10.844,0,0,0-2.4-.62l-2.43-.36a4.575,4.575,0,0,1-2.4-.99,2.372,2.372,0,0,1-.61-0.88,2.991,2.991,0,0,1-.2-1.1,3.128,3.128,0,0,1,1.01-2.38,4.058,4.058,0,0,1,2.89-.95,8.751,8.751,0,0,1,2.51.35,5.2,5.2,0,0,1,2.14,1.3l2.07-2.04a8.666,8.666,0,0,0-2.94-1.86,10.757,10.757,0,0,0-3.69-.57,9.273,9.273,0,0,0-3,.45,6.2,6.2,0,0,0-2.23,1.29,5.771,5.771,0,0,0-1.41,2,6.346,6.346,0,0,0-.5,2.53,5.335,5.335,0,0,0,1.56,4.08,7.2,7.2,0,0,0,4.05,1.71l2.52,0.36a7.82,7.82,0,0,1,1.44.33,2.732,2.732,0,0,1,.9.57,3.225,3.225,0,0,1-.31,4.64,5.4,5.4,0,0,1-3.26.85,9.466,9.466,0,0,1-2.97-.43,6.367,6.367,0,0,1-2.49-1.61l-2.16,2.13a8.688,8.688,0,0,0,3.33,2.19,12.814,12.814,0,0,0,4.23.63,10.789,10.789,0,0,0,3.09-.42,7.135,7.135,0,0,0,2.43-1.23,5.667,5.667,0,0,0,1.59-1.98,5.95,5.95,0,0,0,.57-2.64A6.776,6.776,0,0,0,1243.02,3452.07Zm24.76,8.58v-21.36h-3.27v9.12h-8.64v-9.12h-3.27v21.36h3.27v-9.33h8.64v9.33h3.27Zm13.62,0v-21.36h-3.27v21.36h3.27Zm26.46,0v-21.36h-3.27v15l-9.87-15h-2.97v21.36h3.27v-15.03l9.87,15.03h2.97Zm20.28-6.75v-14.61h-3.27v14.37a4.428,4.428,0,0,1-1.04,3.18,3.73,3.73,0,0,1-2.83,1.08,3.786,3.786,0,0,1-1.82-.36,5.511,5.511,0,0,1-1.21-.93l-2.16,2.13a6.888,6.888,0,0,0,2.32,1.59,7.806,7.806,0,0,0,2.87.48,8.076,8.076,0,0,0,2.76-.46,7.04,7.04,0,0,0,2.28-1.34,6.078,6.078,0,0,0,1.54-2.16,7.456,7.456,0,0,0,.56-2.97h0Zm24.63-6.7a15.266,15.266,0,0,0-.21-2.27,7.2,7.2,0,0,0-.6-1.89,6.085,6.085,0,0,0-1.2-1.65,7.854,7.854,0,0,0-2.53-1.69,8.544,8.544,0,0,0-6.24,0,7.772,7.772,0,0,0-2.51,1.69,6.085,6.085,0,0,0-1.2,1.65,8.06,8.06,0,0,0-.62,1.89,13.981,13.981,0,0,0-.22,2.27c-0.02.83-.03,1.75-0.03,2.77s0.01,1.95.03,2.78a13.853,13.853,0,0,0,.22,2.26,8.06,8.06,0,0,0,.62,1.89,6.085,6.085,0,0,0,1.2,1.65,7.8,7.8,0,0,0,2.51,1.7,8.682,8.682,0,0,0,6.24,0,7.885,7.885,0,0,0,2.53-1.7,6.085,6.085,0,0,0,1.2-1.65,7.2,7.2,0,0,0,.6-1.89,15.125,15.125,0,0,0,.21-2.26c0.02-.83.03-1.76,0.03-2.78S1352.79,3448.03,1352.77,3447.2Zm-3.29,5.46a15.355,15.355,0,0,1-.17,1.8,4.452,4.452,0,0,1-.39,1.23,4.094,4.094,0,0,1-.65.91,4.208,4.208,0,0,1-1.39.96,4.39,4.39,0,0,1-1.78.36,4.343,4.343,0,0,1-1.77-.36,4.079,4.079,0,0,1-2.04-1.87,4.452,4.452,0,0,1-.39-1.23,13.28,13.28,0,0,1-.18-1.8c-0.03-.71-0.04-1.61-0.04-2.69s0.01-1.97.04-2.68a13.28,13.28,0,0,1,.18-1.8,4.452,4.452,0,0,1,.39-1.23,4.151,4.151,0,0,1,.65-0.92,4.107,4.107,0,0,1,1.39-.96,4.343,4.343,0,0,1,1.77-.36,4.39,4.39,0,0,1,1.78.36,4.208,4.208,0,0,1,1.39.96,4.151,4.151,0,0,1,.65.92,4.452,4.452,0,0,1,.39,1.23,15.355,15.355,0,0,1,.17,1.8c0.03,0.71.05,1.6,0.05,2.68S1349.51,3451.95,1349.48,3452.66Z" transform="translate(-1101.09 -3439.12)"/>
</svg>
