<svg xmlns="http://www.w3.org/2000/svg" width="386.38" height="21.72" viewBox="0 0 386.38 21.72">
  <defs>
    <style>
      .cls-1 {
        fill-rule: evenodd;
      }
    </style>
  </defs>
  <path id="en-yamashita.svg" class="cls-1" d="M2561.28,3686.65v-21.36h-3.27v9.12h-8.64v-9.12h-3.27v21.36h3.27v-9.33h8.64v9.33h3.27Zm13.62,0v-21.36h-3.27v21.36h3.27Zm25.95,0-4.95-9.45a6.177,6.177,0,0,0,3.05-1.93,5.482,5.482,0,0,0,1.24-3.74,6.617,6.617,0,0,0-.46-2.5,5.689,5.689,0,0,0-1.34-1.98,6.244,6.244,0,0,0-2.09-1.29,7.661,7.661,0,0,0-2.75-.47h-8.3v21.36h3.27v-9h4.04l4.48,9h3.81Zm-4.93-12.63a3.854,3.854,0,0,1-2.62.87h-4.78v-6.69h4.78a3.816,3.816,0,0,1,2.62.89,3.111,3.111,0,0,1,1,2.47A3.075,3.075,0,0,1,2595.92,3674.02Zm28.36-.82a15.266,15.266,0,0,0-.21-2.27,7.2,7.2,0,0,0-.6-1.89,6.085,6.085,0,0,0-1.2-1.65,7.748,7.748,0,0,0-2.53-1.69,8.067,8.067,0,0,0-3.12-.59,7.945,7.945,0,0,0-3.11.59,7.667,7.667,0,0,0-2.51,1.69,5.923,5.923,0,0,0-1.21,1.65,7.609,7.609,0,0,0-.61,1.89,13.926,13.926,0,0,0-.23,2.27c-0.02.83-.03,1.75-0.03,2.77s0.01,1.95.03,2.78a13.8,13.8,0,0,0,.23,2.26,7.609,7.609,0,0,0,.61,1.89,5.923,5.923,0,0,0,1.21,1.65,7.7,7.7,0,0,0,2.51,1.7,7.944,7.944,0,0,0,3.11.58,8.065,8.065,0,0,0,3.12-.58,7.778,7.778,0,0,0,2.53-1.7,6.085,6.085,0,0,0,1.2-1.65,7.2,7.2,0,0,0,.6-1.89,15.125,15.125,0,0,0,.21-2.26c0.02-.83.03-1.76,0.03-2.78S2624.3,3674.03,2624.28,3673.2Zm-3.28,5.46a13.28,13.28,0,0,1-.18,1.8,4.452,4.452,0,0,1-.39,1.23,4.4,4.4,0,0,1-.64.91,4.314,4.314,0,0,1-1.39.96,4.581,4.581,0,0,1-3.56,0,4.208,4.208,0,0,1-1.39-.96,4.094,4.094,0,0,1-.65-0.91,4.465,4.465,0,0,1-.38-1.23,13.28,13.28,0,0,1-.18-1.8c-0.03-.71-0.05-1.61-0.05-2.69s0.02-1.97.05-2.68a13.28,13.28,0,0,1,.18-1.8,4.465,4.465,0,0,1,.38-1.23,4.151,4.151,0,0,1,.65-0.92,4.208,4.208,0,0,1,1.39-.96,4.581,4.581,0,0,1,3.56,0,4.314,4.314,0,0,1,1.39.96,4.024,4.024,0,0,1,1.03,2.15,13.28,13.28,0,0,1,.18,1.8c0.03,0.71.04,1.6,0.04,2.68S2621.03,3677.95,2621,3678.66Zm26.56-10.46v-2.91h-13.68v21.36h3.27v-9.03h8.88v-2.91h-8.88v-6.51h10.41Zm23.7,11.25v-14.16h-3.27v14.01a4.611,4.611,0,0,1-1.21,3.39,4.31,4.31,0,0,1-3.21,1.23,4.241,4.241,0,0,1-3.2-1.23,4.648,4.648,0,0,1-1.2-3.39v-14.01h-3.27v14.16a7.6,7.6,0,0,0,.59,3.02,6.713,6.713,0,0,0,1.61,2.32,7.32,7.32,0,0,0,2.43,1.5,8.8,8.8,0,0,0,6.07,0,7.515,7.515,0,0,0,2.45-1.5,6.737,6.737,0,0,0,1.62-2.32,7.432,7.432,0,0,0,.59-3.02h0Zm28.89,7.2v-21.36h-3.27l-6.1,13.29-6.23-13.29h-3.27v21.36h3.27v-14.28l5.03,10.41h2.39l4.91-10.41v14.28h3.27Zm13.59,0v-21.36h-3.27v21.36h3.27Zm35.76-21.36h-3.54l-4.49,9.39-4.48-9.39h-3.54l6.39,12.57v8.79h3.27v-8.79Zm23.43,21.36-7.83-21.36h-2.61l-7.83,21.36h3.45l1.47-4.29h8.43l1.47,4.29h3.45Zm-5.82-7.05h-6.57l3.33-9.48Zm32.52,7.05v-21.36h-3.27l-6.11,13.29-6.22-13.29h-3.27v21.36h3.27v-14.28l5.03,10.41h2.39l4.91-10.41v14.28h3.27Zm26.04,0-7.83-21.36h-2.61l-7.83,21.36h3.45l1.47-4.29h8.43l1.47,4.29h3.45Zm-5.82-7.05h-6.57l3.33-9.48Zm26.56-1.53a4.892,4.892,0,0,0-1.3-1.89,5.79,5.79,0,0,0-1.59-.97,10.844,10.844,0,0,0-2.4-.62l-2.43-.36a4.575,4.575,0,0,1-2.4-.99,2.4,2.4,0,0,1-.62-0.88,2.99,2.99,0,0,1-.19-1.1,3.119,3.119,0,0,1,1-2.38,4.085,4.085,0,0,1,2.9-.95,8.681,8.681,0,0,1,2.5.35,5.23,5.23,0,0,1,2.15,1.3l2.07-2.04a8.666,8.666,0,0,0-2.94-1.86,10.757,10.757,0,0,0-3.69-.57,9.273,9.273,0,0,0-3,.45,6.248,6.248,0,0,0-2.24,1.29,5.771,5.771,0,0,0-1.41,2,6.342,6.342,0,0,0-.49,2.53,5.335,5.335,0,0,0,1.56,4.08,7.2,7.2,0,0,0,4.05,1.71l2.52,0.36a7.82,7.82,0,0,1,1.44.33,2.732,2.732,0,0,1,.9.57,3.215,3.215,0,0,1-.32,4.64,5.371,5.371,0,0,1-3.25.85,9.466,9.466,0,0,1-2.97-.43,6.367,6.367,0,0,1-2.49-1.61l-2.16,2.13a8.688,8.688,0,0,0,3.33,2.19,12.814,12.814,0,0,0,4.23.63,10.789,10.789,0,0,0,3.09-.42,7.135,7.135,0,0,0,2.43-1.23,5.667,5.667,0,0,0,1.59-1.98,5.95,5.95,0,0,0,.57-2.64A6.775,6.775,0,0,0,2846.41,3678.07Zm24.77,8.58v-21.36h-3.27v9.12h-8.64v-9.12H2856v21.36h3.27v-9.33h8.64v9.33h3.27Zm13.62,0v-21.36h-3.27v21.36h3.27Zm23.49-18.45v-2.91h-15.03v2.91h5.88v18.45h3.27V3668.2h5.88Zm24.18,18.45-7.83-21.36h-2.61l-7.83,21.36h3.45l1.47-4.29h8.43l1.47,4.29h3.45Zm-5.82-7.05h-6.57l3.33-9.48Z" transform="translate(-2546.09 -3665.12)"/>
</svg>
