<svg xmlns="http://www.w3.org/2000/svg" width="54" height="260" viewBox="0 0 54 260">
  <defs>
    <style>
      .cls-1 {
        stroke: #000;
        stroke-linejoin: round;
        stroke-width: 2px;
        fill-rule: evenodd;
      }
    </style>
  </defs>
  <path id="h-about.svg" class="cls-1" d="M850.9,1180.25l49.84-18.27v-6.09l-49.84-18.27v8.05l10.01,3.43v19.67l-10.01,3.43v8.05Zm16.45-13.58v-15.33l22.12,7.77Zm1.89,66.15a11.537,11.537,0,0,0,3.29-1.7,12.6,12.6,0,0,0,2.415-2.4,11.42,11.42,0,0,0,1.575-2.83,9.39,9.39,0,0,0,1.435,2.45,10.547,10.547,0,0,0,2.31,2.14,12.787,12.787,0,0,0,3.08,1.54,11.528,11.528,0,0,0,3.745.59q6.369,0,10.01-4.02t3.64-11.03v-19.39H850.9v20.2a19.358,19.358,0,0,0,.91,6.07,13.228,13.228,0,0,0,2.7,4.77,12.352,12.352,0,0,0,4.41,3.12,15.257,15.257,0,0,0,6.055,1.12A13.469,13.469,0,0,0,869.238,1232.82Zm-9.415-9.09a8.131,8.131,0,0,1-2.135-6.07V1205.8h15.19v11.86a8.213,8.213,0,0,1-2.1,6.07,7.419,7.419,0,0,1-5.46,2.09A7.538,7.538,0,0,1,859.823,1223.73Zm21.665-.85a9.018,9.018,0,0,1-1.82-5.88v-11.2h14.28V1217a9.024,9.024,0,0,1-1.82,5.88A7.437,7.437,0,0,1,881.488,1222.88Zm0.8,63.77a34.6,34.6,0,0,0,5.285-.49,16.95,16.95,0,0,0,4.41-1.4,14.258,14.258,0,0,0,3.85-2.81,18.035,18.035,0,0,0,3.955-5.89,18.9,18.9,0,0,0,1.365-7.29,18.6,18.6,0,0,0-1.365-7.26,18.124,18.124,0,0,0-3.955-5.86,14.213,14.213,0,0,0-3.85-2.8,17.391,17.391,0,0,0-4.41-1.44,32.027,32.027,0,0,0-5.285-.53c-1.937-.04-4.1-0.07-6.475-0.07s-4.539.03-6.475,0.07a32,32,0,0,0-5.285.53,17.365,17.365,0,0,0-4.41,1.44,14.183,14.183,0,0,0-3.85,2.8,18.108,18.108,0,0,0-3.955,5.86,18.6,18.6,0,0,0-1.365,7.26,18.9,18.9,0,0,0,1.365,7.29,18.019,18.019,0,0,0,3.955,5.89,14.227,14.227,0,0,0,3.85,2.81,16.926,16.926,0,0,0,4.41,1.4,34.58,34.58,0,0,0,5.285.49q2.9,0.075,6.475.07T882.293,1286.65Zm-12.74-7.66a30.976,30.976,0,0,1-4.2-.42,10.271,10.271,0,0,1-2.87-.91,9.223,9.223,0,0,1-2.135-1.5,9.761,9.761,0,0,1-2.24-3.24,10.671,10.671,0,0,1,0-8.3,9.292,9.292,0,0,1,4.375-4.75,10.61,10.61,0,0,1,2.87-.91,31.152,31.152,0,0,1,4.2-.41q2.484-.1,6.265-0.11t6.265,0.11a31.186,31.186,0,0,1,4.2.41,10.622,10.622,0,0,1,2.87.91,9.292,9.292,0,0,1,4.375,4.75,10.671,10.671,0,0,1,0,8.3,9.775,9.775,0,0,1-2.24,3.24,9.245,9.245,0,0,1-2.135,1.5,10.282,10.282,0,0,1-2.87.91,31.01,31.01,0,0,1-4.2.42q-2.485.1-6.265,0.1T869.553,1278.99Zm-1.855,61.98h33.04v-7.63h-32.69a10.8,10.8,0,0,1-7.91-2.82,10.068,10.068,0,0,1-2.87-7.5,9.937,9.937,0,0,1,2.87-7.47,10.867,10.867,0,0,1,7.91-2.79h32.69v-7.63H867.7a17.677,17.677,0,0,0-7.035,1.37,15.958,15.958,0,0,0-5.425,3.75,17.08,17.08,0,0,0-3.5,5.68,20.55,20.55,0,0,0,0,14.17,17.574,17.574,0,0,0,3.5,5.72,15.758,15.758,0,0,0,5.425,3.78,17.5,17.5,0,0,0,7.035,1.37h0Zm26.25,49.49h6.79v-35.07h-6.79v13.72H850.9v7.63h43.05v13.72Z" transform="translate(-851 -1134)"/>
</svg>
