<svg xmlns="http://www.w3.org/2000/svg" width="83.25" height="426.91" viewBox="0 0 83.25 426.91">
  <defs>
    <style>
      .cls-1 {
        fill-rule: evenodd;
      }
    </style>
  </defs>
  <path id="about_pc.svg" class="cls-1" d="M2231.9,1455.02l81.88-30.02v-10l-81.88-30.02v13.23l16.44,5.63v32.32l-16.44,5.63v13.23Zm27.02-22.31v-25.19l36.34,12.77Zm3.11,111.54a18.86,18.86,0,0,0,5.4-2.79,20.037,20.037,0,0,0,3.97-3.94,18.757,18.757,0,0,0,2.59-4.65,15.365,15.365,0,0,0,2.36,4.03,17.757,17.757,0,0,0,3.79,3.51,21.382,21.382,0,0,0,5.06,2.53,18.706,18.706,0,0,0,6.15.97q10.47,0,16.45-6.61t5.98-18.11v-31.86H2231.9v33.19a32.024,32.024,0,0,0,1.49,9.97,21.97,21.97,0,0,0,4.43,7.83,20.235,20.235,0,0,0,7.25,5.13,25.072,25.072,0,0,0,9.94,1.84A22.137,22.137,0,0,0,2262.03,1544.25Zm-15.47-14.93q-3.51-3.435-3.51-9.97v-19.48h24.96v19.48q0,6.525-3.45,9.97a12.167,12.167,0,0,1-8.97,3.44A12.371,12.371,0,0,1,2246.56,1529.32Zm35.59-1.39a14.886,14.886,0,0,1-2.99-9.66v-18.4h23.46v18.4q0,5.97-2.99,9.66-2.985,3.675-8.74,3.68T2282.15,1527.93Zm1.33,107.64a58.692,58.692,0,0,0,8.68-.81,27.386,27.386,0,0,0,7.24-2.31,23.346,23.346,0,0,0,6.33-4.6,29.946,29.946,0,0,0,6.5-9.68,31.153,31.153,0,0,0,2.24-11.99,30.689,30.689,0,0,0-2.24-11.92,30.023,30.023,0,0,0-6.5-9.62,23.179,23.179,0,0,0-6.33-4.61,29,29,0,0,0-7.24-2.36,53.411,53.411,0,0,0-8.68-.87c-3.19-.08-6.73-0.11-10.64-0.11s-7.46.03-10.64,0.11a53.3,53.3,0,0,0-8.68.87,29.075,29.075,0,0,0-7.25,2.36,23.138,23.138,0,0,0-6.32,4.61,29.862,29.862,0,0,0-6.5,9.62,30.689,30.689,0,0,0-2.24,11.92,31.153,31.153,0,0,0,2.24,11.99,29.787,29.787,0,0,0,6.5,9.68,23.3,23.3,0,0,0,6.32,4.6,27.457,27.457,0,0,0,7.25,2.31,58.561,58.561,0,0,0,8.68.81q4.77,0.105,10.64.11C2276.75,1635.68,2280.29,1635.64,2283.48,1635.57Zm-20.93-12.6a50.8,50.8,0,0,1-6.9-.68,17.378,17.378,0,0,1-4.72-1.49,15.33,15.33,0,0,1-7.19-7.8,17.518,17.518,0,0,1,0-13.63,16.1,16.1,0,0,1,3.68-5.33,15.823,15.823,0,0,1,3.51-2.47,17.037,17.037,0,0,1,4.72-1.49,52.272,52.272,0,0,1,6.9-.69q4.08-.165,10.29-0.17t10.29,0.17a52.636,52.636,0,0,1,6.9.69,17.037,17.037,0,0,1,4.72,1.49,15.539,15.539,0,0,1,3.5,2.47,15.956,15.956,0,0,1,3.68,5.33,17.518,17.518,0,0,1,0,13.63,16.057,16.057,0,0,1-3.68,5.33,15.864,15.864,0,0,1-3.5,2.47,17.378,17.378,0,0,1-4.72,1.49,51.14,51.14,0,0,1-6.9.68q-4.08.18-10.29,0.18T2262.55,1622.97Zm-3.05,104.71h54.28v-12.53h-53.71q-8.28,0-12.99-4.64-4.725-4.65-4.72-12.33t4.72-12.26q4.71-4.59,12.99-4.58h53.71V1668.8H2259.5a28.964,28.964,0,0,0-11.56,2.25,26.273,26.273,0,0,0-8.91,6.16,27.931,27.931,0,0,0-5.75,9.34,33.734,33.734,0,0,0,0,23.27,28.67,28.67,0,0,0,5.75,9.39,25.87,25.87,0,0,0,8.91,6.22,28.964,28.964,0,0,0,11.56,2.25h0Zm43.12,84.18h11.16v-57.61h-11.16v22.54H2231.9v12.53h70.72v22.54Z" transform="translate(-2231.22 -1384.97)"/>
</svg>
