<svg xmlns="http://www.w3.org/2000/svg" width="88.78" height="414.31" viewBox="0 0 88.78 414.31">
  <defs>
    <style>
      .cls-1 {
        fill-rule: evenodd;
      }
    </style>
  </defs>
  <path id="connect_pc.svg" class="cls-1" d="M2235.14,5884.47c-4.2,1.3-5.4,1.7-5.4,3,0,2.8,4.5,10,7.6,10a5.672,5.672,0,0,0,2.6-.8c12.2-6.3,27.7-13.7,41.6-13.7,8.4,0,15.3,5,15.3,13.9,0,17.1-21.9,24.6-35.9,25.7-1.3.1-3.4,0.3-3.4,2.1,0,1.6,1.5,5.2,2.3,6.7,0.8,1.4,1.5,2.4,3.2,2.4,4.5,0,15.2-3.3,19.5-5,13.4-5.5,25.6-16.3,25.6-31.7a25.857,25.857,0,0,0-6.8-17.6c-5.2-5.3-12.4-7.3-19.7-7.3-12.6,0-25.2,5.1-36.9,9.2C2240.54,5882.87,2237.44,5883.77,2235.14,5884.47Zm37.5,152.8c5,0,5.1,1.1,5.1,3.1,0,3.5-1.6,5.4-5.2,5.4-2.6,0-6.6-1.6-6.6-4.7C2265.94,6037.87,2270.24,6037.27,2272.64,6037.27Zm4.9-35.3c-1.5,0-2.4.6-2.4,2.2,0,0.5.1,0.9,0.1,1.4,0.3,3.9,1.8,18.4,1.8,21.6,0,1.2-.9,1.7-2.1,1.7h-2.6c-7.9,0-16.6,3.2-16.6,12.4,0,9.3,9.5,13.6,17.6,13.6,6.8,0,12.7-2.5,13.9-9.8,0.1-.9.5-2.3,1.6-2.3,1.6,0,6.5,3.5,8,4.6,0.7,0.5,1.6,1.4,2.6,1.4,2.5,0,6.2-5.7,6.2-7.3,0-2.4-11.8-7.9-14.1-8.8-0.3-.1-0.7-0.3-1-0.4-1.5-.6-2.8-1-3.1-2.5-0.5-2.1-1-16.5-1-19.4,0-2.1.2-5.1,0.2-5.3,0-1.2-.9-1.8-2-2.1A41.869,41.869,0,0,0,2277.54,6001.97Zm15.3-15.4c-2.1,0-6.7,5.5-6.7,6.9,0,0.7.9,1.3,1.3,1.6a56.667,56.667,0,0,1,12.5,12.9c0.5,0.7,1.2,1.8,2.2,1.8,1.8,0,7.5-4.5,7.5-6.9C2309.64,6000.27,2295.34,5986.57,2292.84,5986.57Zm-33.6-16.31c-0.9,0-.9,1-0.9,1.71,0,3.2-1.7,14.3-3.2,16.8-0.8,1.3-1.7,1.4-3,1.6a88.8,88.8,0,0,1-10.3.5h-4.6c-1.1,0-1.8.3-1.8,1.6,0,1,.5,4.6.7,5.8,0.4,2.3.8,3.2,2.5,3.2,2.3,0,10-1,10.8-1a1.346,1.346,0,0,1,1.4,1.3c0,0.8-1.8,5-2.3,6.1a186.722,186.722,0,0,1-11.9,23.1c-0.5.8-1.8,2.7-1.8,3.6,0,2.1,6.7,5,8.9,5,1.1,0,1.4-.4,2-1.4a254.452,254.452,0,0,0,16.3-35.6c1.2-3.3,1.1-4,4.7-4.6,9.2-1.7,10.4-1.9,10.4-4.1a47.48,47.48,0,0,0-.5-5.3c-0.2-1.2-.3-3-1.5-3a3.553,3.553,0,0,0-1,.2,48.394,48.394,0,0,1-5.7,1.5,1.164,1.164,0,0,1-1.1-1.3,32.418,32.418,0,0,1,1.1-4.5c0.3-1.1,1-4.6,1.8-5.3,0.9-.7,1.6-1.1,1.6-1.8s-1.1-1-1.6-1.2C2268.64,5972.67,2260.34,5970.26,2259.24,5970.26Zm-0.3,120.41a1.248,1.248,0,0,0-1.2,1.5c0,0.2.2,2.3,0.2,3.9a92.263,92.263,0,0,1-1.1,12.9c-0.3,2.1-1.2,2.7-3.2,3.1-5.5,1-11.1,2.4-16.7,3-1.2.1-2.9,0.1-2.9,1.6,0,0.6,1.7,10.4,4.1,10.4a7.419,7.419,0,0,0,2.1-.7c1.8-.7,10-3.5,11.5-3.5a1.256,1.256,0,0,1,1.3,1.3c0,1.5-1.8,5.8-2.5,7.6a79.534,79.534,0,0,1-17.9,27.8,3.74,3.74,0,0,0-1.4,2.3c0,2.3,6.4,6.1,8.2,6.1a2.333,2.333,0,0,0,1.7-1c3-3,7.7-10.4,9.9-14.2,5.4-9,10.3-19.7,12.8-29.9,0.7-2.8,1.8-3.6,7.4-3.6,6.1,0,6.4,4.2,6.4,9.1,0,6.5-1.6,16.9-4.5,22.6-2.5,5-5,6.2-10.5,6.2-2,0-3.5-.4-4.5-0.4-1.1,0-1.4.8-1.4,1.7a20.094,20.094,0,0,0,1.8,7.2c1,2.1,2.4,2.3,4.6,2.3,8.1,0,14.9-3.5,18.9-10.8,4.4-8,6-21.5,6-30.6,0-5.6-1.2-11.3-6.2-14.6-3.5-2.2-7.3-2.2-11.3-2.2h-1.2a1.944,1.944,0,0,1-2.2-2,5.019,5.019,0,0,1,.2-1.2c0.3-1.6.5-3,.7-4.1,0.5-3.6.7-5.2,2.6-6.6a1.681,1.681,0,0,0,.9-1.3c0-1.1-1.8-1.4-2.6-1.6C2267.44,6092.57,2259.94,6090.67,2258.94,6090.67Zm40.7,0c-1.2,0-4.8,3-4.8,4.2a2.43,2.43,0,0,0,.9,1.4,86.339,86.339,0,0,1,7.1,7.7,2.865,2.865,0,0,0,1.4,1.1c1.3,0,4.8-3,4.8-4.6C2309.04,6099.27,2300.64,6090.67,2299.64,6090.67Zm9.4-7.1c-1,0-4.8,3-4.8,4.2a2.314,2.314,0,0,0,1,1.4c2.5,2.5,4.8,5,7.1,7.7,0.5,0.6.8,1.1,1.4,1.1,1.2,0,4.8-3,4.8-4.6C2318.54,6092.27,2310.14,6083.57,2309.04,6083.57Zm-16.3,18c-1.6,0-7.1,3.3-7.1,5.1a3.152,3.152,0,0,0,.9,1.7c6.3,6.7,9.6,13.2,13.4,21.4,0.4,1,1,2.3,2.3,2.3,2,0,8.3-3.7,8.3-6C2310.54,6123.57,2296.54,6101.57,2292.74,6101.57Zm-21.9,173.2c0,1.6-.8,3.4-2.7,3.4-3,0-7.8-1.7-7.8-5.3a4.142,4.142,0,0,1,4.3-4A6.11,6.11,0,0,1,2270.84,6274.77Zm9.3-64.8a13.643,13.643,0,0,0-3.8,1.1c-5.8,2.3-18.9,3.7-25.3,3.7h-2.4c-3,0-3.1.2-3.1,2.5,0,1.7.3,9.2,2.5,9.2,1.6,0,15.7-2.9,18.1-3.5a23.992,23.992,0,0,1,2.4-.4c0.8,0,1.7.3,1.7,1.2,0,1-1.8,2.8-2.6,3.6-9.2,10.1-20.8,22.5-31.1,31.4-0.9.7-2.4,1.8-2.4,3,0,1.6,5.1,7.2,7.2,7.2a1.356,1.356,0,0,0,1.1-.7c3.6-4.1,7.2-8.2,11.1-12,6.4-6.3,13.3-9.8,22.4-9.8,8.7,0,16.9,4,16.9,13.7,0,10.1-9.5,15.4-12.1,15.4a1.24,1.24,0,0,1-1.2-1.3,9.944,9.944,0,0,0-1.8-6.4,16.311,16.311,0,0,0-13.3-7.1c-6.7,0-12.8,5.2-12.8,12.1,0,10.2,11.8,13.6,20.1,13.6,16.1,0,31.8-9.2,31.8-26.9,0-8.7-4.1-15.4-11.9-19.4a29.328,29.328,0,0,0-12.3-3,19,19,0,0,0-4.1.4,5.853,5.853,0,0,1-1.3.2,1.507,1.507,0,0,1-1.7-1.3,2.989,2.989,0,0,1,1-1.7c4.7-4.9,8.9-9.5,14.5-13.4,1.1-.8,2.2-1.4,2.2-2.1C2289.94,6217.57,2284.14,6209.97,2280.14,6209.97Z" transform="translate(-2229.75 -5872.16)"/>
</svg>
