<svg xmlns="http://www.w3.org/2000/svg" width="57" height="305" viewBox="0 0 57 305">
  <defs>
    <style>
      .cls-1 {
        stroke: #000;
        stroke-linejoin: round;
        stroke-width: 2px;
        fill-rule: evenodd;
      }
    </style>
  </defs>
  <path id="h-output.svg" class="cls-1" d="M885.11,4016.14a37.894,37.894,0,0,0,5.436-.5,17.106,17.106,0,0,0,4.536-1.45,14.534,14.534,0,0,0,3.96-2.88,18.6,18.6,0,0,0,4.068-6.06,19.419,19.419,0,0,0,1.4-7.5,19.16,19.16,0,0,0-1.4-7.47,18.54,18.54,0,0,0-4.068-6.02,14.371,14.371,0,0,0-3.96-2.89,18.311,18.311,0,0,0-4.536-1.48,33.8,33.8,0,0,0-5.436-.54q-2.988-.075-6.66-0.07t-6.66.07a33.771,33.771,0,0,0-5.436.54,18.284,18.284,0,0,0-4.536,1.48,14.341,14.341,0,0,0-3.96,2.89,18.524,18.524,0,0,0-4.068,6.02,19.16,19.16,0,0,0-1.4,7.47,19.419,19.419,0,0,0,1.4,7.5,18.582,18.582,0,0,0,4.068,6.06,14.5,14.5,0,0,0,3.96,2.88,17.082,17.082,0,0,0,4.536,1.45,37.867,37.867,0,0,0,5.436.5q2.986,0.075,6.66.07T885.11,4016.14Zm-13.1-7.88a32.568,32.568,0,0,1-4.32-.43,10.737,10.737,0,0,1-2.952-.94,9.676,9.676,0,0,1-2.2-1.54,10.082,10.082,0,0,1-2.3-3.34,10.959,10.959,0,0,1,0-8.53,10.082,10.082,0,0,1,2.3-3.34,9.676,9.676,0,0,1,2.2-1.54,10.737,10.737,0,0,1,2.952-.94,32.568,32.568,0,0,1,4.32-.43q2.554-.105,6.444-0.1t6.444,0.1a32.6,32.6,0,0,1,4.32.43,10.749,10.749,0,0,1,2.952.94,9.7,9.7,0,0,1,2.2,1.54,10.1,10.1,0,0,1,2.3,3.34,10.959,10.959,0,0,1,0,8.53,10.1,10.1,0,0,1-2.3,3.34,9.7,9.7,0,0,1-2.2,1.54,10.749,10.749,0,0,1-2.952.94,32.6,32.6,0,0,1-4.32.43q-2.556.1-6.444,0.11T872.006,4008.26Zm-1.908,62.67h33.984v-7.84H870.458q-5.184,0-8.136-2.91a10.336,10.336,0,0,1-2.952-7.71,10.206,10.206,0,0,1,2.952-7.68c1.968-1.92,4.68-2.87,8.136-2.87h33.624v-7.85H870.1a18.115,18.115,0,0,0-7.236,1.41,16.275,16.275,0,0,0-5.58,3.86,17.527,17.527,0,0,0-3.6,5.84,21.123,21.123,0,0,0,0,14.57,18.019,18.019,0,0,0,3.6,5.88,16.238,16.238,0,0,0,5.58,3.9,18.286,18.286,0,0,0,7.236,1.4h0Zm27,51.27h6.984v-36.08H897.1v14.12h-44.28v7.84H897.1v14.12Zm-2.376,50.75a13.782,13.782,0,0,0,4.932-3.31,15.973,15.973,0,0,0,3.24-5.2,18.439,18.439,0,0,0,1.188-6.78v-19.48H852.818v7.85h20.16v11.66a18.385,18.385,0,0,0,1.188,6.77,15.775,15.775,0,0,0,3.24,5.18,13.859,13.859,0,0,0,4.9,3.32A17.272,17.272,0,0,0,894.722,4172.95Zm-12.555-9.16a9.527,9.527,0,0,1-2.205-6.57v-11.19H897.1v11.19a9.432,9.432,0,0,1-2.242,6.57,8.175,8.175,0,0,1-6.362,2.47A8.06,8.06,0,0,1,882.167,4163.79ZM870.1,4226.74h33.984v-7.85H870.458q-5.184,0-8.136-2.9a10.344,10.344,0,0,1-2.952-7.72,10.236,10.236,0,0,1,2.952-7.68q2.952-2.865,8.136-2.87h33.624v-7.84H870.1a18.112,18.112,0,0,0-7.236,1.4,16.554,16.554,0,0,0-5.58,3.86,17.573,17.573,0,0,0-3.6,5.85,21.123,21.123,0,0,0,0,14.57,18.019,18.019,0,0,0,3.6,5.88,16.213,16.213,0,0,0,5.58,3.89,18.115,18.115,0,0,0,7.236,1.41h0Zm27,51.26h6.984v-36.07H897.1v14.11h-44.28v7.85H897.1V4278Z" transform="translate(-851 -3976)"/>
</svg>
