<svg xmlns="http://www.w3.org/2000/svg" width="83.29" height="477.12" viewBox="0 0 83.29 477.12">
  <defs>
    <style>
      .cls-1 {
        fill-rule: evenodd;
      }
    </style>
  </defs>
  <path id="output_pc.svg" class="cls-1" d="M2283.9,4734.26a58.692,58.692,0,0,0,8.68-.81,27.815,27.815,0,0,0,7.25-2.3,23.349,23.349,0,0,0,6.32-4.61,29.682,29.682,0,0,0,6.5-9.68,31.138,31.138,0,0,0,2.24-11.98,30.7,30.7,0,0,0-2.24-11.93,29.862,29.862,0,0,0-6.5-9.62,23.138,23.138,0,0,0-6.32-4.61,29.075,29.075,0,0,0-7.25-2.36,53.411,53.411,0,0,0-8.68-.87q-4.77-.1-10.64-0.11t-10.64.11a53.411,53.411,0,0,0-8.68.87,28.866,28.866,0,0,0-7.24,2.36,23.03,23.03,0,0,0-6.33,4.61,29.862,29.862,0,0,0-6.5,9.62,30.7,30.7,0,0,0-2.24,11.93,31.138,31.138,0,0,0,2.24,11.98,29.682,29.682,0,0,0,6.5,9.68,23.238,23.238,0,0,0,6.33,4.61,27.623,27.623,0,0,0,7.24,2.3,58.692,58.692,0,0,0,8.68.81q4.77,0.1,10.64.11T2283.9,4734.26Zm-20.93-12.59a52.636,52.636,0,0,1-6.9-.69,17.378,17.378,0,0,1-4.72-1.49,15.539,15.539,0,0,1-3.5-2.47,16.014,16.014,0,0,1-3.68-5.32,17.542,17.542,0,0,1,0-13.64,15.956,15.956,0,0,1,3.68-5.33,15.539,15.539,0,0,1,3.5-2.47,17.378,17.378,0,0,1,4.72-1.49,52.636,52.636,0,0,1,6.9-.69q4.08-.165,10.29-0.17t10.29,0.17a52.636,52.636,0,0,1,6.9.69,17.378,17.378,0,0,1,4.72,1.49,15.823,15.823,0,0,1,3.51,2.47,16.1,16.1,0,0,1,3.68,5.33,17.542,17.542,0,0,1,0,13.64,16.162,16.162,0,0,1-3.68,5.32,15.823,15.823,0,0,1-3.51,2.47,17.378,17.378,0,0,1-4.72,1.49,52.636,52.636,0,0,1-6.9.69q-4.08.165-10.29,0.17T2262.97,4721.67Zm-3.05,100.1h54.28v-12.53h-53.7q-8.28,0-13-4.64t-4.71-12.32q0-7.68,4.71-12.27t13-4.58h53.7v-12.54h-54.28a28.964,28.964,0,0,0-11.56,2.25,26.273,26.273,0,0,0-8.91,6.16,28.3,28.3,0,0,0-5.75,9.34,33.734,33.734,0,0,0,0,23.27,28.839,28.839,0,0,0,5.75,9.39,25.9,25.9,0,0,0,8.91,6.23,29.135,29.135,0,0,0,11.56,2.24h0Zm43.13,81.88h11.15v-57.61h-11.15v22.54h-70.73v12.53h70.73v22.54Zm-3.8,81.07a21.927,21.927,0,0,0,7.88-5.3,25.271,25.271,0,0,0,5.17-8.3,29.3,29.3,0,0,0,1.9-10.83v-31.11h-81.88v12.54h32.2v18.63a29.27,29.27,0,0,0,1.9,10.81,25.282,25.282,0,0,0,5.17,8.28,22.15,22.15,0,0,0,7.82,5.29A27.59,27.59,0,0,0,2299.25,4984.72Zm-20.05-14.64q-3.525-3.96-3.52-10.49v-17.87h27.37v17.87q0,6.54-3.58,10.49t-10.17,3.95Q2282.715,4974.03,2279.2,4970.08Zm-19.28,100.55h54.28V5058.1h-53.7q-8.28,0-13-4.64t-4.71-12.33q0-7.68,4.71-12.26t13-4.58h53.7v-12.54h-54.28a28.964,28.964,0,0,0-11.56,2.25,26.273,26.273,0,0,0-8.91,6.16,28.093,28.093,0,0,0-5.75,9.34,33.734,33.734,0,0,0,0,23.27,28.839,28.839,0,0,0,5.75,9.39,25.87,25.87,0,0,0,8.91,6.22,28.964,28.964,0,0,0,11.56,2.25h0Zm43.13,81.88h11.15v-57.62h-11.15v22.54h-70.73v12.54h70.73v22.54Z" transform="translate(-2231.62 -4675.38)"/>
</svg>
