<svg xmlns="http://www.w3.org/2000/svg" width="32.68" height="230.594" viewBox="0 0 32.68 230.594">
  <defs>
    <style>
      .cls-1 {
        fill-rule: evenodd;
      }
    </style>
  </defs>
  <path id="header-copy.svg" class="cls-1" d="M3844.57,902.757v-1.692a1.755,1.755,0,0,1-.89-0.48,1.339,1.339,0,0,1-.33-0.96,1.307,1.307,0,0,1,.45-1.068,1.437,1.437,0,0,1,.3-0.216,1.453,1.453,0,0,1,.42-0.126,6.271,6.271,0,0,1,.66-0.06c0.27-.012.61-0.018,1.03-0.018s0.76,0.006,1.03.018a6.271,6.271,0,0,1,.66.06,1.453,1.453,0,0,1,.42.126,1.437,1.437,0,0,1,.3.216,1.307,1.307,0,0,1,.45,1.068,1.339,1.339,0,0,1-.33.96,1.755,1.755,0,0,1-.89.48v1.692a3.225,3.225,0,0,0,1.77-5.448,2.472,2.472,0,0,0-1.29-.7,15.678,15.678,0,0,0-4.24,0,2.472,2.472,0,0,0-1.29.7,3.142,3.142,0,0,0-.93,2.3,3.511,3.511,0,0,0,.18,1.14,2.856,2.856,0,0,0,.52.936,3,3,0,0,0,.84.684,3.634,3.634,0,0,0,1.16.384h0Zm2.67,8.652a5.714,5.714,0,0,0,.9-0.09,3.283,3.283,0,0,0,.79-0.252,2.615,2.615,0,0,0,.69-0.5,3.284,3.284,0,0,0,.69-1.014,3.241,3.241,0,0,0,.24-1.29,3.119,3.119,0,0,0-.93-2.316,2.615,2.615,0,0,0-.69-0.5,3.1,3.1,0,0,0-.79-0.246,6.257,6.257,0,0,0-.9-0.084c-0.32-.008-0.66-0.012-1.03-0.012s-0.71,0-1.03.012a6.257,6.257,0,0,0-.9.084,3.1,3.1,0,0,0-.79.246,2.615,2.615,0,0,0-.69.5,3.263,3.263,0,0,0,0,4.62,2.615,2.615,0,0,0,.69.5,3.283,3.283,0,0,0,.79.252,5.714,5.714,0,0,0,.9.09c0.32,0.008.66,0.012,1.03,0.012S3846.92,911.417,3847.24,911.409Zm-2.04-1.674a5.215,5.215,0,0,1-.67-0.066,1.544,1.544,0,0,1-.43-0.132,1.655,1.655,0,0,1-.29-0.2,1.253,1.253,0,0,1-.33-0.45,1.508,1.508,0,0,1-.13-0.618,1.552,1.552,0,0,1,.13-0.624,1.242,1.242,0,0,1,.33-0.456,1.434,1.434,0,0,1,.29-0.2,1.711,1.711,0,0,1,.43-0.126,5.215,5.215,0,0,1,.67-0.066c0.26-.012.6-0.018,1.01-0.018s0.75,0.006,1.01.018a5.215,5.215,0,0,1,.67.066,1.711,1.711,0,0,1,.43.126,1.434,1.434,0,0,1,.29.2,1.242,1.242,0,0,1,.33.456,1.552,1.552,0,0,1,.13.624,1.508,1.508,0,0,1-.13.618,1.253,1.253,0,0,1-.33.45,1.655,1.655,0,0,1-.29.2,1.544,1.544,0,0,1-.43.132,5.215,5.215,0,0,1-.67.066c-0.26.012-.6,0.018-1.01,0.018S3845.46,909.747,3845.2,909.735Zm3.64,9.33a2.513,2.513,0,0,0,.86-0.558,2.67,2.67,0,0,0,.57-0.888,3.144,3.144,0,0,0,.21-1.182v-3.312h-8.54v1.668h3.21v1.644a3.144,3.144,0,0,0,.21,1.182,2.692,2.692,0,0,0,.58.888,2.473,2.473,0,0,0,.85.558,2.811,2.811,0,0,0,1.03.192A2.721,2.721,0,0,0,3848.84,919.065Zm-1.88-1.806a1.261,1.261,0,0,1-.32-0.906v-1.56h2.35v1.56a1.219,1.219,0,0,1-.32.906A1.273,1.273,0,0,1,3846.96,917.259Zm3.52,9.246v-1.812l-3.44-1.578,3.44-1.6V919.7l-5.04,2.568h-3.5v1.668h3.5Zm-8.54,9.168,3.68-1.908a2.408,2.408,0,0,0,.31.594,2.176,2.176,0,0,0,.48.5,2.309,2.309,0,0,0,.64.342,2.461,2.461,0,0,0,.82.126,2.745,2.745,0,0,0,1.01-.186,2.362,2.362,0,0,0,.83-0.546,2.756,2.756,0,0,0,.56-0.876,3.064,3.064,0,0,0,.21-1.164v-3.348h-8.54v1.668h3.41v1.2l-3.41,1.668v1.932Zm5.11-2.346a1.222,1.222,0,0,1-.31-0.882v-1.572h2.25v1.572a1.222,1.222,0,0,1-.31.882A1.171,1.171,0,0,1,3847.05,933.327Zm-5.11,5.394h8.54v-1.668h-8.54v1.668Zm3.5,8.088h1.25v-3.24h-1.39v1.572h-0.33a1.7,1.7,0,0,1-1.14-.384,1.54,1.54,0,0,1-.48-1.188,1.307,1.307,0,0,1,.45-1.068,1.275,1.275,0,0,1,.3-0.21,1.6,1.6,0,0,1,.42-0.12,6.023,6.023,0,0,1,.66-0.06c0.26-.012.61-0.018,1.03-0.018s0.77,0.006,1.03.018a5.038,5.038,0,0,1,.66.066,1.535,1.535,0,0,1,.41.126,1.845,1.845,0,0,1,.3.2,1.358,1.358,0,0,1,.46,1.068,1.465,1.465,0,0,1-1.25,1.536V946.8a3.674,3.674,0,0,0,1.05-.325,2.959,2.959,0,0,0,1.47-1.605,3.662,3.662,0,0,0,.21-1.292,3.152,3.152,0,0,0-.93-2.309,2.473,2.473,0,0,0-1.29-.7,15.678,15.678,0,0,0-4.24,0,2.473,2.473,0,0,0-1.29.7,3.152,3.152,0,0,0-.93,2.309,3.49,3.49,0,0,0,.23,1.316,3.236,3.236,0,0,0,.74,1.1,2.678,2.678,0,0,0,1.07.631,5.265,5.265,0,0,0,1.53.187h0Zm-3.5,8.256h8.54V953.4H3847v-2.892h3.48v-1.668h-8.54v1.668h3.57V953.4h-3.57v1.668Zm7.05,7.488h1.49v-6.132h-1.49v2.232h-7.05v1.668h7.05v2.232Zm-1.09,12.21a4.365,4.365,0,0,0,1.38-.93,4.474,4.474,0,0,0,.93-1.38,4.38,4.38,0,0,0,0-3.384,4.45,4.45,0,0,0-.93-1.38,4.332,4.332,0,0,0-1.38-.93,4.347,4.347,0,0,0-3.38,0,4.332,4.332,0,0,0-1.38.93,4.45,4.45,0,0,0-.93,1.38,4.38,4.38,0,0,0,0,3.384,4.474,4.474,0,0,0,.93,1.38,4.365,4.365,0,0,0,1.38.93A4.347,4.347,0,0,0,3847.9,974.763Zm-3.03-.954a3.294,3.294,0,0,1-1.07-.7,3.21,3.21,0,0,1-.7-1.05,3.354,3.354,0,0,1,.7-3.654,3.325,3.325,0,0,1,1.07-.7,3.609,3.609,0,0,1,2.68,0,3.325,3.325,0,0,1,1.07.7,3.371,3.371,0,0,1,.7,3.654,3.21,3.21,0,0,1-.7,1.05,3.294,3.294,0,0,1-1.07.7A3.689,3.689,0,0,1,3844.87,973.809Zm0.28-2.052a2.162,2.162,0,0,1-.29-0.438,1.142,1.142,0,0,1-.09-0.474,0.972,0.972,0,0,1,.39-0.852,2.135,2.135,0,0,1,2.1,0,0.972,0.972,0,0,1,.39.852,1.142,1.142,0,0,1-.09.474,2.162,2.162,0,0,1-.29.438l0.67,0.672a3.378,3.378,0,0,0,.47-0.714,2.109,2.109,0,0,0,.16-0.87,2.329,2.329,0,0,0-.15-0.846,2.125,2.125,0,0,0-.45-0.678,2.094,2.094,0,0,0-.74-0.456,2.879,2.879,0,0,0-1.02-.168,2.785,2.785,0,0,0-1.01.168,2.094,2.094,0,0,0-.74.456,1.84,1.84,0,0,0-.45.678,2.329,2.329,0,0,0-.15.846,2.151,2.151,0,0,0,.16.876,2.731,2.731,0,0,0,.46.708Zm-27.21-220.306h1.4v-3.3l2.78,2.388c0.16,0.144.32,0.274,0.47,0.39a2.828,2.828,0,0,0,.45.288,2.256,2.256,0,0,0,.47.174,2.4,2.4,0,0,0,.56.06,2.678,2.678,0,0,0,1.04-.192,2.168,2.168,0,0,0,.78-0.534,2.475,2.475,0,0,0,.49-0.822,2.95,2.95,0,0,0,.18-1.044,3.1,3.1,0,0,0-.17-1.026,2.632,2.632,0,0,0-.49-0.828,2.289,2.289,0,0,0-.79-0.552,2.656,2.656,0,0,0-1.05-.2v1.56a1.311,1.311,0,0,1,.52.09,0.949,0.949,0,0,1,.34.24,1.048,1.048,0,0,1,.18.336,1.607,1.607,0,0,1,.05.378,1,1,0,0,1-.29.768,1.137,1.137,0,0,1-.78.264,1.237,1.237,0,0,1-.52-0.1,1.925,1.925,0,0,1-.51-0.342l-3.71-3.192h-1.4v5.2Zm6.07,6.948a2.683,2.683,0,0,0,1.09-.21,2.475,2.475,0,0,0,.8-0.564,2.632,2.632,0,0,0,.49-0.828,2.985,2.985,0,0,0,0-1.986,2.725,2.725,0,0,0-.49-0.828,2.431,2.431,0,0,0-.8-0.57,2.683,2.683,0,0,0-1.09-.21h-3.6a2.6,2.6,0,0,0-1.08.21,2.24,2.24,0,0,0-.8.57,2.374,2.374,0,0,0-.49.828,2.985,2.985,0,0,0,0,1.986,2.3,2.3,0,0,0,.49.828,2.277,2.277,0,0,0,.8.564,2.6,2.6,0,0,0,1.08.21h3.6Zm-3.59-1.56a1.164,1.164,0,0,1-.84-0.288,0.958,0.958,0,0,1-.31-0.744,0.977,0.977,0,0,1,.31-0.75,1.149,1.149,0,0,1,.84-0.294h3.57a1.19,1.19,0,0,1,.85.294,0.977,0.977,0,0,1,.31.75,0.958,0.958,0,0,1-.31.744,1.206,1.206,0,0,1-.85.288h-3.57Zm-2.48,8.844h1.4v-3.3l2.78,2.388c0.16,0.144.32,0.274,0.47,0.39a2.828,2.828,0,0,0,.45.288,2.256,2.256,0,0,0,.47.174,2.4,2.4,0,0,0,.56.06,2.678,2.678,0,0,0,1.04-.192,2.168,2.168,0,0,0,.78-0.534,2.475,2.475,0,0,0,.49-0.822,2.95,2.95,0,0,0,.18-1.044,3.1,3.1,0,0,0-.17-1.026,2.632,2.632,0,0,0-.49-0.828,2.289,2.289,0,0,0-.79-0.552,2.656,2.656,0,0,0-1.05-.2v1.56a1.311,1.311,0,0,1,.52.09,0.949,0.949,0,0,1,.34.24,1.048,1.048,0,0,1,.18.336,1.607,1.607,0,0,1,.05.378,1,1,0,0,1-.29.768,1.137,1.137,0,0,1-.78.264,1.237,1.237,0,0,1-.52-0.1,1.925,1.925,0,0,1-.51-0.342l-3.71-3.192h-1.4v5.2Zm6.07,6.468a2.683,2.683,0,0,0,1.09-.21,2.475,2.475,0,0,0,.8-0.564,2.632,2.632,0,0,0,.49-0.828,2.985,2.985,0,0,0,0-1.986,2.725,2.725,0,0,0-.49-0.828,2.431,2.431,0,0,0-.8-0.57,2.683,2.683,0,0,0-1.09-.21h-3.6a2.6,2.6,0,0,0-1.08.21,2.24,2.24,0,0,0-.8.57,2.374,2.374,0,0,0-.49.828,2.985,2.985,0,0,0,0,1.986,2.3,2.3,0,0,0,.49.828,2.277,2.277,0,0,0,.8.564,2.6,2.6,0,0,0,1.08.21h3.6Zm-3.59-1.56a1.164,1.164,0,0,1-.84-0.288,0.958,0.958,0,0,1-.31-0.744,0.977,0.977,0,0,1,.31-0.75,1.149,1.149,0,0,1,.84-0.294h3.57a1.19,1.19,0,0,1,.85.294,0.977,0.977,0,0,1,.31.75,0.958,0.958,0,0,1-.31.744,1.206,1.206,0,0,1-.85.288h-3.57Zm2.82,13.212a5.714,5.714,0,0,0,.9-0.09,3.283,3.283,0,0,0,.79-0.252,2.615,2.615,0,0,0,.69-0.5,3.5,3.5,0,0,0,.7-1.014,3.426,3.426,0,0,0,.24-1.29,3.076,3.076,0,0,0-.94-2.316,2.615,2.615,0,0,0-.69-0.5,3.1,3.1,0,0,0-.79-0.246,6.257,6.257,0,0,0-.9-0.084c-0.32-.008-0.66-0.012-1.03-0.012s-0.71,0-1.03.012a6.257,6.257,0,0,0-.9.084,3.1,3.1,0,0,0-.79.246,2.615,2.615,0,0,0-.69.5,3.263,3.263,0,0,0,0,4.62,2.615,2.615,0,0,0,.69.5,3.283,3.283,0,0,0,.79.252,5.714,5.714,0,0,0,.9.09c0.32,0.008.66,0.012,1.03,0.012S3822.92,783.811,3823.24,783.8Zm-2.04-1.674a5.215,5.215,0,0,1-.67-0.066,1.368,1.368,0,0,1-.42-0.132,1.417,1.417,0,0,1-.3-0.2,1.383,1.383,0,0,1-.33-0.45,1.508,1.508,0,0,1-.12-0.618,1.55,1.55,0,0,1,.12-0.624,1.367,1.367,0,0,1,.33-0.456,1.259,1.259,0,0,1,.3-0.2,1.507,1.507,0,0,1,.42-0.126,5.215,5.215,0,0,1,.67-0.066c0.26-.012.6-0.018,1.01-0.018s0.75,0.006,1.02.018a5.228,5.228,0,0,1,.66.066,1.711,1.711,0,0,1,.43.126,1.2,1.2,0,0,1,.29.2,1.242,1.242,0,0,1,.33.456,1.4,1.4,0,0,1,.13.624,1.362,1.362,0,0,1-.13.618,1.253,1.253,0,0,1-.33.45,1.352,1.352,0,0,1-.29.2,1.544,1.544,0,0,1-.43.132,5.228,5.228,0,0,1-.66.066q-0.405.018-1.02,0.018C3821.8,782.147,3821.46,782.141,3821.2,782.129Zm2.04,9.4a5.714,5.714,0,0,0,.9-0.09,3.283,3.283,0,0,0,.79-0.252,2.615,2.615,0,0,0,.69-0.5,3.5,3.5,0,0,0,.7-1.014,3.426,3.426,0,0,0,.24-1.29,3.076,3.076,0,0,0-.94-2.316,2.615,2.615,0,0,0-.69-0.5,3.1,3.1,0,0,0-.79-0.246,6.257,6.257,0,0,0-.9-0.084c-0.32-.008-0.66-0.012-1.03-0.012s-0.71,0-1.03.012a6.257,6.257,0,0,0-.9.084,3.1,3.1,0,0,0-.79.246,2.615,2.615,0,0,0-.69.5,3.263,3.263,0,0,0,0,4.62,2.615,2.615,0,0,0,.69.5,3.283,3.283,0,0,0,.79.252,5.714,5.714,0,0,0,.9.09c0.32,0.008.66,0.012,1.03,0.012S3822.92,791.539,3823.24,791.531Zm-2.04-1.674a5.215,5.215,0,0,1-.67-0.066,1.368,1.368,0,0,1-.42-0.132,1.417,1.417,0,0,1-.3-0.2,1.383,1.383,0,0,1-.33-0.45,1.508,1.508,0,0,1-.12-0.618,1.55,1.55,0,0,1,.12-0.624,1.367,1.367,0,0,1,.33-0.456,1.259,1.259,0,0,1,.3-0.2,1.507,1.507,0,0,1,.42-0.126,5.215,5.215,0,0,1,.67-0.066c0.26-.012.6-0.018,1.01-0.018s0.75,0.006,1.02.018a5.228,5.228,0,0,1,.66.066,1.711,1.711,0,0,1,.43.126,1.2,1.2,0,0,1,.29.2,1.242,1.242,0,0,1,.33.456,1.4,1.4,0,0,1,.13.624,1.362,1.362,0,0,1-.13.618,1.253,1.253,0,0,1-.33.45,1.352,1.352,0,0,1-.29.2,1.544,1.544,0,0,1-.43.132,5.228,5.228,0,0,1-.66.066q-0.405.018-1.02,0.018C3821.8,789.875,3821.46,789.869,3821.2,789.857Zm-3.26,10.3,5.15-3.036,3.39,2.832v-2.028l-3.72-3.012h3.72v-1.668h-8.54v1.668h2.57l1.32,1.1-3.89,2.2v1.944Zm0,2.736h8.54v-1.668h-8.54V802.9Zm0,8.532h8.54v-1.668h-5.23l5.23-3.384v-1.488h-8.54v1.668h5.24l-5.24,3.384v1.488Zm0,8.592,8.54-3.12v-1.308l-8.54-3.108v1.74l1.51,0.516v3.036l-1.51.5v1.74Zm2.92-2.688v-2.124l3.1,1.08Zm5.62,13.319v-1.74l-5.38-1.332,5.38-1.56V824.77l-5.38-1.56,5.38-1.32v-1.74l-8.54,2.28v1.392l5.18,1.572-5.18,1.572v1.392Zm-8.54,7.668,8.54-3.12V833.89l-8.54-3.108v1.74l1.51,0.516v3.036l-1.51.5v1.74Zm2.92-2.688v-2.124l3.1,1.08Zm-2.92,15.912,8.54-3.12v-1.308l-8.54-3.108v1.74l1.51,0.516V849.3l-1.51.5v1.74Zm2.92-2.688V846.73l3.1,1.08Zm-2.92,9.288h1.49v-3.876h7.05V852.6h-8.54v5.544Zm0,6.9h1.49v-3.876h7.05V859.5h-8.54v5.544Zm0,10.224,3.68-1.908a2.8,2.8,0,0,0,.31.594,2.176,2.176,0,0,0,.48.5,2.309,2.309,0,0,0,.64.342,2.461,2.461,0,0,0,.82.126,2.745,2.745,0,0,0,1.01-.186,2.362,2.362,0,0,0,.83-0.546,2.756,2.756,0,0,0,.56-0.876,3.064,3.064,0,0,0,.21-1.164V868.8h-8.54v1.668h3.41v1.2l-3.41,1.668v1.932Zm5.11-2.346a1.222,1.222,0,0,1-.31-0.882v-1.572H3825v1.572a1.227,1.227,0,0,1-.32.882A1.171,1.171,0,0,1,3823.05,872.92Zm-5.11,5.394h8.54v-1.668h-8.54v1.668Zm3.5,8.088h1.25v-3.24h-1.39v1.572h-0.32a1.664,1.664,0,0,1-1.14-.384,1.509,1.509,0,0,1-.48-1.188,1.3,1.3,0,0,1,.44-1.068,1.267,1.267,0,0,1,.31-0.21,1.343,1.343,0,0,1,.42-0.12,5.583,5.583,0,0,1,.65-0.06c0.26-.012.61-0.018,1.03-0.018s0.77,0.006,1.03.018a4.87,4.87,0,0,1,.66.066,1.466,1.466,0,0,1,.41.126,1.415,1.415,0,0,1,.3.2,1.357,1.357,0,0,1,.46,1.068,1.465,1.465,0,0,1-1.25,1.536v1.692a3.674,3.674,0,0,0,1.05-.325,3.125,3.125,0,0,0,.88-0.643,2.892,2.892,0,0,0,.59-0.962,3.66,3.66,0,0,0,.22-1.292,3.16,3.16,0,0,0-.94-2.309,2.476,2.476,0,0,0-1.28-.7,15.751,15.751,0,0,0-4.25,0,2.466,2.466,0,0,0-1.29.7,3.152,3.152,0,0,0-.93,2.309,3.7,3.7,0,0,0,.23,1.316,3.236,3.236,0,0,0,.74,1.1,2.689,2.689,0,0,0,1.07.631,5.265,5.265,0,0,0,1.53.187h0Zm-3.5,7.775h8.54v-1.668H3823v-2.892h3.48v-1.668h-8.54v1.668h3.58v2.892h-3.58v1.668Zm7.06,7.488h1.48v-6.132H3825v2.232h-7.06v1.668H3825v2.232Zm-3.51,6.72a1.868,1.868,0,0,0,.78-0.5,2.3,2.3,0,0,0,.42-0.66,4.652,4.652,0,0,0,.24-0.972l0.15-1.008a1.531,1.531,0,0,1,.12-0.462,1.264,1.264,0,0,1,.21-0.33,0.8,0.8,0,0,1,.29-0.192,0.866,0.866,0,0,1,.32-0.06,1.054,1.054,0,0,1,.77.324,1.38,1.38,0,0,1,.31,1,3.964,3.964,0,0,1-.1.882,1.91,1.91,0,0,1-.48.87l1.04,1.056a3.35,3.35,0,0,0,.77-1.212,4.8,4.8,0,0,0,.23-1.548,3.729,3.729,0,0,0-.2-1.248,2.736,2.736,0,0,0-.53-0.936,2.291,2.291,0,0,0-.82-0.588,2.588,2.588,0,0,0-1.05-.2,2.276,2.276,0,0,0-1.68.612,2.843,2.843,0,0,0-.7,1.656l-0.15,1.032a2.382,2.382,0,0,1-.11.462,1.14,1.14,0,0,1-.19.294,0.954,0.954,0,0,1-.72.264,0.9,0.9,0,0,1-.78-0.384,1.957,1.957,0,0,1-.27-1.128,4.111,4.111,0,0,1,.15-1.128,2.085,2.085,0,0,1,.57-0.936l-1.08-1.08a3.416,3.416,0,0,0-.89,1.386,5.768,5.768,0,0,0-.24,1.734,4.514,4.514,0,0,0,.17,1.248,2.963,2.963,0,0,0,.51,1,2.217,2.217,0,0,0,.81.672,2.33,2.33,0,0,0,1.1.246A3.166,3.166,0,0,0,3821.49,908.385Zm-3.55,10.98,3.68-1.908a2.8,2.8,0,0,0,.31.594,2.176,2.176,0,0,0,.48.5,2.309,2.309,0,0,0,.64.342,2.461,2.461,0,0,0,.82.126,2.745,2.745,0,0,0,1.01-.186,2.362,2.362,0,0,0,.83-0.546,2.756,2.756,0,0,0,.56-0.876,3.064,3.064,0,0,0,.21-1.164V912.9h-8.54v1.668h3.41v1.2l-3.41,1.668v1.932Zm5.11-2.346a1.222,1.222,0,0,1-.31-0.882v-1.572H3825v1.572a1.227,1.227,0,0,1-.32.882A1.171,1.171,0,0,1,3823.05,917.019Zm-5.11,9.354h1.49v-3.96h2.07v3.372h1.49v-3.372H3825v3.96h1.48v-5.628h-8.54v5.628Zm3.55,7.716a1.868,1.868,0,0,0,.78-0.5,2.3,2.3,0,0,0,.42-0.66,4.652,4.652,0,0,0,.24-0.972l0.15-1.008a1.531,1.531,0,0,1,.12-0.462,1.264,1.264,0,0,1,.21-0.33,0.8,0.8,0,0,1,.29-0.192,0.866,0.866,0,0,1,.32-0.06,1.054,1.054,0,0,1,.77.324,1.38,1.38,0,0,1,.31,1,3.964,3.964,0,0,1-.1.882,1.91,1.91,0,0,1-.48.87l1.04,1.056a3.35,3.35,0,0,0,.77-1.212,4.8,4.8,0,0,0,.23-1.548,3.729,3.729,0,0,0-.2-1.248,2.736,2.736,0,0,0-.53-0.936,2.291,2.291,0,0,0-.82-0.588,2.588,2.588,0,0,0-1.05-.2,2.276,2.276,0,0,0-1.68.612,2.843,2.843,0,0,0-.7,1.656l-0.15,1.032a2.382,2.382,0,0,1-.11.462,1.14,1.14,0,0,1-.19.294,0.954,0.954,0,0,1-.72.264,0.9,0.9,0,0,1-.78-0.384,1.957,1.957,0,0,1-.27-1.128,4.111,4.111,0,0,1,.15-1.128,2.085,2.085,0,0,1,.57-0.936l-1.08-1.08a3.416,3.416,0,0,0-.89,1.386,5.768,5.768,0,0,0-.24,1.734,4.514,4.514,0,0,0,.17,1.248,2.963,2.963,0,0,0,.51,1,2.217,2.217,0,0,0,.81.672,2.33,2.33,0,0,0,1.1.246A3.166,3.166,0,0,0,3821.49,934.089Zm-3.55,7.356h1.49v-3.96h2.07v3.372h1.49v-3.372H3825v3.96h1.48v-5.628h-8.54v5.628Zm0,8.1,3.68-1.908a2.8,2.8,0,0,0,.31.594,2.176,2.176,0,0,0,.48.5,2.309,2.309,0,0,0,.64.342,2.461,2.461,0,0,0,.82.126,2.745,2.745,0,0,0,1.01-.186,2.362,2.362,0,0,0,.83-0.546,2.756,2.756,0,0,0,.56-0.876,3.064,3.064,0,0,0,.21-1.164v-3.348h-8.54v1.668h3.41v1.2l-3.41,1.668v1.932Zm5.11-2.346a1.222,1.222,0,0,1-.31-0.882v-1.572H3825v1.572a1.227,1.227,0,0,1-.32.882A1.171,1.171,0,0,1,3823.05,947.2Zm3.43,10.626v-1.74l-5.56-1.716,5.56-1.716v-1.728l-8.54,2.82v1.248Zm-8.54,6.66h1.49v-3.96h2.07V963.9h1.49v-3.372H3825v3.96h1.48v-5.628h-8.54v5.628Zm5.25,7.836a5.294,5.294,0,0,0,.89-0.072,3.246,3.246,0,0,0,.83-0.252,2.533,2.533,0,0,0,.76-0.54,2.672,2.672,0,0,0,.62-1,3.927,3.927,0,0,0,.19-1.254v-3.084h-8.54V969.2a3.928,3.928,0,0,0,.2,1.254,2.442,2.442,0,0,0,.62,1,2.533,2.533,0,0,0,.76.54,3.467,3.467,0,0,0,.86.252,5.628,5.628,0,0,0,.91.072h1.9Zm-2.43-1.734a1.57,1.57,0,0,1-.8-0.294,1.375,1.375,0,0,1-.4-0.516,1.782,1.782,0,0,1-.13-0.732v-1.26H3825v1.26a1.776,1.776,0,0,1-.14.732,1.456,1.456,0,0,1-.39.516,1.325,1.325,0,0,1-.33.192,1.939,1.939,0,0,1-.44.108c-0.18.024-.38,0.04-0.62,0.048s-0.51.012-.83,0.012A12.781,12.781,0,0,1,3820.76,970.587Zm-2.82,6.246h1.78v-1.788h-1.78v1.788Z" transform="translate(-3817.88 -746.25)"/>
</svg>
