<svg xmlns="http://www.w3.org/2000/svg" width="252.13" height="50.46" viewBox="0 0 252.13 50.46">
  <defs>
    <style>
      .cls-1 {
        fill-rule: evenodd;
      }
    </style>
  </defs>
  <path id="ja-kuda.svg" class="cls-1" d="M2575.07,3593.08c1.17-2.07,4.76-8.96,4.76-11.09a5.191,5.191,0,0,0-4.82-4.03c-1.4,0-2.74.06-4.08,0.06h-7.06a0.914,0.914,0,0,1-1.01-.84,1.28,1.28,0,0,1,.17-0.51l0.84-1.68c1.01-2.01,1.06-2.13,1.79-2.35a1.02,1.02,0,0,0,.9-0.84c0-.56-0.9-0.9-1.35-1.06a33.553,33.553,0,0,0-4.36-1.52,1.2,1.2,0,0,0-.96,1.07c-2.57,6.77-8,15.56-13.27,20.55a3.867,3.867,0,0,0-1.23,1.51c0,0.9,2.91,3.14,3.75,3.14a3.248,3.248,0,0,0,1.79-1.24,68.061,68.061,0,0,0,7.51-9.57,2.174,2.174,0,0,1,2.29-1.18h10.14c1.51,0,2.18.06,2.18,0.73,0,0.84-2.01,4.76-2.52,5.71-5.93,11.03-14.11,18.87-25.81,23.58a1.658,1.658,0,0,0-1.4,1.34c0,0.9,1.85,4.03,3.08,4.03a9.523,9.523,0,0,0,2.63-1.01,56.906,56.906,0,0,0,20.94-17.13,1.168,1.168,0,0,1,.79-0.45,0.9,0.9,0,0,1,.78.62,42.364,42.364,0,0,0,11.65,14.11c0.89,0.73,4.98,3.86,5.82,3.86,0.95,0,3.75-2.8,3.75-3.92,0-.56-0.78-1.01-1.4-1.45-7.16-4.71-12.93-9.86-16.4-17.92a2.723,2.723,0,0,1-.28-1.12A3.007,3.007,0,0,1,2575.07,3593.08Zm51.41-3.81a1.454,1.454,0,0,1-1.51,1.57h-9.41a1.5,1.5,0,0,1-1.57-1.57v-9.69a1.6,1.6,0,0,1,1.57-1.56h9.41a1.477,1.477,0,0,1,1.51,1.56v9.69Zm0,18.42a1.48,1.48,0,0,1-1.51,1.57h-9.41a1.6,1.6,0,0,1-1.57-1.57v-10.08a1.6,1.6,0,0,1,1.57-1.56h9.41a1.477,1.477,0,0,1,1.51,1.56v10.08Zm5.82-10.08a1.6,1.6,0,0,1,1.57-1.56h9.57a1.48,1.48,0,0,1,1.52,1.56v10.08a1.482,1.482,0,0,1-1.52,1.57h-9.57a1.6,1.6,0,0,1-1.57-1.57v-10.08Zm1.57-6.77a1.5,1.5,0,0,1-1.57-1.57v-9.69a1.6,1.6,0,0,1,1.57-1.56h9.57a1.48,1.48,0,0,1,1.52,1.56v9.69a1.456,1.456,0,0,1-1.52,1.57h-9.57Zm10.97,25.53c0,1.57.62,1.63,3.08,1.63,2.41,0,3.03,0,3.03-1.63,0-2.35-.11-4.65-0.11-7v-28.72c0-1.79.11-3.53,0.11-5.32,0-2.3-1.01-2.91-3.19-2.91-1.74,0-3.53.11-5.32,0.11h-25.93c-1.79,0-3.58-.11-5.32-0.11-2.18,0-3.14.61-3.14,2.91,0,1.79.12,3.53,0.12,5.32v28.67c0,2.35-.17,4.64-0.17,7,0,1.56.61,1.56,3.02,1.56,2.8,0,3.14,0,3.14-1.9a1.11,1.11,0,0,1,1.29-1.29h28.11a1.125,1.125,0,0,1,1.28,1.29v0.39Zm67.88-14.11a28.059,28.059,0,0,1-3.98-6.27,1.144,1.144,0,0,1-.11-0.45,0.945,0.945,0,0,1,1.12-.89h7.67c0.9,0,1.4.11,1.4,0.89,0,1.29-3.25,5.6-4.14,6.72A1.2,1.2,0,0,1,2712.72,3602.26Zm5.93,3.53a56.152,56.152,0,0,0,6.78-10.47,12.609,12.609,0,0,0,1.17-3.19,2.59,2.59,0,0,0-.89-1.68,3.734,3.734,0,0,0-3.42-1.4c-1.34,0-2.74.05-4.14,0.05h-11.76a1.071,1.071,0,0,1-1.29-1.06v-0.39c0.23-1.01.39-2.08,0.56-3.14a1.525,1.525,0,0,1,1.74-1.46h17.58c2.24,0,4.42.12,6.61,0.12,1.4,0,1.29-.68,1.29-2.86,0-2.13.11-2.8-1.29-2.8-2.19,0-4.37.11-6.61,0.11h-16.97a1.2,1.2,0,0,1-1.4-1.45,18.446,18.446,0,0,1,.12-2.02c0.05-1.57.16-2.35,0.89-2.97a1.261,1.261,0,0,0,.62-0.89c0-.73-1.07-0.73-2.35-0.79-1.35-.11-2.69-0.22-4.04-0.22a1,1,0,0,0-1.23,1.12c0,0.67.06,1.29,0.06,1.96,0,1.29-.11,2.52-0.23,3.75a1.43,1.43,0,0,1-1.68,1.51H2692c-2.19,0-4.37-.11-6.55-0.11-1.4,0-1.35.62-1.35,2.8s-0.05,2.86,1.29,2.86c2.24,0,4.42-.12,6.61-0.12h6.1a1.156,1.156,0,0,1,1.35,1.12v0.34a49.323,49.323,0,0,1-4.2,13.78,45.392,45.392,0,0,1-9.86,13.32,2.537,2.537,0,0,0-1.12,1.63c0,1.17,2.52,3.52,3.7,3.52a2.908,2.908,0,0,0,1.45-.89,50.65,50.65,0,0,0,13.22-19.15,0.606,0.606,0,0,1,.5-0.39,0.6,0.6,0,0,1,.51.39,32.975,32.975,0,0,0,5.26,9.29,1.443,1.443,0,0,1,.34.96,1.288,1.288,0,0,1-.56,1.06,42.48,42.48,0,0,1-10.53,6.05c-1.07.44-1.96,0.67-1.96,1.45,0,0.95,1.57,3.75,3.08,3.75a8.879,8.879,0,0,0,2.8-.84,40.554,40.554,0,0,0,10.58-6.6,2.012,2.012,0,0,1,1.18-.51,2.057,2.057,0,0,1,1.12.45,58.578,58.578,0,0,0,13.38,7,7.731,7.731,0,0,0,1.96.56c1.68,0,2.69-3.86,2.69-4.54a1.272,1.272,0,0,0-1.18-1.12,41.4,41.4,0,0,1-12.93-5.82,1.187,1.187,0,0,1-.62-1.06A1.791,1.791,0,0,1,2718.65,3605.79Zm58.07,8.62c0-.78-2.52-3.64-3.13-4.36-2.91-3.36-3.53-3.81-4.09-3.81-0.67,0-3.58,2.18-3.58,3.02a2.609,2.609,0,0,0,.78,1.29,68.607,68.607,0,0,1,4.54,5.49c0.61,1.06,1.23,1.56,1.68,1.56C2773.81,3617.6,2776.72,3615.36,2776.72,3614.41Zm-10.13-23.8a35.546,35.546,0,0,1-3.86,8.96c-3.81,6.05-9.8,10.53-16.19,13.67a1.243,1.243,0,0,0-1.01,1.12c0,1.23,1.96,4.53,3.36,4.53,1.07,0,4.37-2.24,5.38-2.91,7.06-4.81,13.05-10.53,16.02-18.76a0.671,0.671,0,0,1,.56-0.45,0.616,0.616,0,0,1,.56.4,41.668,41.668,0,0,0,11.36,15.56c1.35,1.23,7.45,6.11,8.96,6.11,1.29,0,3.64-2.86,3.64-4.15a1.62,1.62,0,0,0-1.06-1.12,43,43,0,0,1-19.77-23.01c0-.11-0.06-0.28-0.06-0.45a0.978,0.978,0,0,1,1.18-.95h11.93c2.18,0,4.31.11,6.49,0.11,1.35,0,1.29-.73,1.29-2.86s0.11-2.85-1.29-2.85c-2.18,0-4.31.11-6.49,0.11H2775.1a1.315,1.315,0,0,1-1.51-1.57v-8.34c0-1.9.05-2.46,0.78-2.91a1.025,1.025,0,0,0,.73-0.79,0.875,0.875,0,0,0-.95-0.78c-0.79-.11-4.7-0.39-5.49-0.39a0.912,0.912,0,0,0-1.12.95c0,0.17.06,0.45,0.06,0.62a23.618,23.618,0,0,1,.17,3.92v7.72a1.375,1.375,0,0,1-1.63,1.57h-12.49c-2.12,0-4.31-.11-6.44-0.11-1.4,0-1.28.73-1.28,2.85,0,2.19-.12,2.86,1.28,2.86,2.13,0,4.32-.11,6.44-0.11h11.71a1.09,1.09,0,0,1,1.29,1.01C2766.65,3590.33,2766.59,3590.45,2766.59,3590.61Z" transform="translate(-2543.31 -3568.88)"/>
</svg>
