<svg xmlns="http://www.w3.org/2000/svg" width="259.21" height="50.34" viewBox="0 0 259.21 50.34">
  <defs>
    <style>
      .cls-1 {
        fill-rule: evenodd;
      }
    </style>
  </defs>
  <path id="ja-sinjyo.svg" class="cls-1" d="M1108.9,3358.68a15.538,15.538,0,0,0-.78-2.47c-0.73-1.84-.9-2.35-1.74-2.35-0.78,0-3.75.62-3.75,1.57a6.323,6.323,0,0,0,.22.78c0.34,0.96.56,1.57,0.73,2.13,0.56,1.74.62,1.85,1.57,1.85a9.715,9.715,0,0,0,2.52-.5C1108.23,3359.52,1108.9,3359.35,1108.9,3358.68Zm25.76,7.45a1.348,1.348,0,0,1,1.57,1.56v17.64c0,2.07-.17,4.2-0.17,6.27,0,1.68.67,1.74,2.97,1.74,2.35,0,2.97-.06,2.97-1.74,0-2.07-.17-4.2-0.17-6.27v-17.64a1.3,1.3,0,0,1,1.45-1.51c1.01,0,1.96.11,2.92,0.11,1.45,0,1.4-.72,1.4-2.74,0-1.96.05-2.74-1.4-2.74-1.52,0-3.36.11-5.16,0.11h-7.95a1.334,1.334,0,0,1-1.57-1.57v-4.09c0-2.8.12-3.08,2.13-3.3a64.7,64.7,0,0,0,10.7-2.35,2.5,2.5,0,0,1,1.62.05,4.174,4.174,0,0,0,.84.17,0.683,0.683,0,0,0,.79-0.67c0-.67-1.12-1.79-1.52-2.35-0.5-.73-1.73-2.52-2.52-2.52a1.039,1.039,0,0,0-.61.17c-2.63,1.4-10.19,2.91-13.27,3.24-3.03.34-3.75,0.62-3.75,2.97v15.18c0,8.12-1.24,16.12-6.44,22.67a2.731,2.731,0,0,0-.79,1.4c0,1.07,3.42,2.47,4.37,2.47a1.352,1.352,0,0,0,1.12-.67,29.023,29.023,0,0,0,3.3-5.6,46.507,46.507,0,0,0,4.03-18.48,1.355,1.355,0,0,1,1.57-1.51h1.57Zm-20.83-18.93c0-1.01,0-1.62.62-2.07a1.269,1.269,0,0,0,.67-0.79c0-.44-0.45-0.61-1.46-0.72-0.89-.12-4.09-0.4-4.81-0.4-0.51,0-.96.12-0.96,0.73v0.51a14.271,14.271,0,0,1,.23,2.68,1.342,1.342,0,0,1-1.57,1.52h-0.95c-1.63,0-3.19-.12-4.82-0.12-1.4,0-1.34.79-1.34,2.47s-0.06,2.46,1.34,2.46c1.63,0,3.19-.11,4.82-0.11h10.97c1.63,0,3.2.11,4.82,0.11,1.34,0,1.34-.73,1.34-2.46s0-2.47-1.34-2.47c-1.62,0-3.19.12-4.82,0.12h-1.17A1.321,1.321,0,0,1,1113.83,3347.2Zm-8.06,28.89a43.471,43.471,0,0,1-6.33,8.85,1.475,1.475,0,0,0-.67,1.06c0,1.12,2.8,3.31,3.69,3.31,1.07,0,4.43-5.71,5.1-6.83a0.335,0.335,0,0,1,.33-0.17,0.44,0.44,0,0,1,.4.45v2.74c0,2.07-.17,4.2-0.17,6.27,0,1.57.61,1.57,2.85,1.57s2.8,0,2.8-1.57c0-2.13-.11-4.2-0.11-6.27v-3.64a0.47,0.47,0,0,1,.39-0.56,0.812,0.812,0,0,1,.45.23c0.51,0.72,2.47,3.58,3.31,3.58,1,0,2.96-2.63,2.96-3.58a0.951,0.951,0,0,0-.5-0.79,36.028,36.028,0,0,1-4.42-4.81,0.75,0.75,0,0,1-.17-0.51,0.7,0.7,0,0,1,.84-0.67c1.51,0,3.08.11,4.65,0.11,1.4,0,1.34-.73,1.34-2.57s0.06-2.64-1.34-2.64c-1.8,0-3.59.17-5.44,0.17h-0.5a1.327,1.327,0,0,1-1.51-1.29,1.006,1.006,0,0,1,.5-0.89,0.952,0.952,0,0,0,.62-0.73c0-.62-0.9-0.67-1.35-0.67-1-.06-3.52-0.23-4.48-0.23-0.39,0-.95,0-0.95.68a1.3,1.3,0,0,0,.06.5,9.413,9.413,0,0,1,.11,1.18,1.318,1.318,0,0,1-1.51,1.45h-0.73c-1.85,0-3.64-.17-5.43-0.17-1.4,0-1.34.68-1.34,2.64,0,1.9-.06,2.57,1.34,2.57,1.17,0,3.13-.11,4.37-0.11a0.847,0.847,0,0,1,.95.78A2.139,2.139,0,0,1,1105.77,3376.09Zm-0.62-15.45c-1.96,0-3.92-.11-5.88-0.11-1.4,0-1.4.67-1.4,2.46,0,1.74-.05,2.46,1.4,2.46,1.96,0,3.92-.11,5.88-0.11h11.59c1.91,0,3.87.11,5.83,0.11,1.45,0,1.4-.61,1.4-2.46,0-1.74.05-2.46-1.35-2.46-0.33,0-3.36.11-3.75,0.11a0.882,0.882,0,0,1-1.01-.84,20.039,20.039,0,0,1,1.07-2.69,1.125,1.125,0,0,1,.78-0.73,0.9,0.9,0,0,0,.73-0.67c0-.78-4.26-1.9-5.04-1.9-0.51,0-.56.39-0.67,0.78a27.8,27.8,0,0,1-1.91,4.82,2.037,2.037,0,0,1-2.18,1.23h-5.49Zm102.98-9.97a18.791,18.791,0,0,0-1.68-3.41c-1.29-2.3-1.73-3.14-2.57-3.14-0.73,0-3.03,1.06-3.03,1.9a1.71,1.71,0,0,0,.39.84c0.56,0.79,1.74,2.92,2.19,3.81a4.855,4.855,0,0,0,.28.56c0.33,0.84.56,1.29,1.12,1.29C1205.33,3352.52,1208.13,3351.68,1208.13,3350.67Zm-16.52,8.29a1.4,1.4,0,0,1,1.63,1.45,90.478,90.478,0,0,0,2.29,18.2,4.032,4.032,0,0,1,.11.84,2.456,2.456,0,0,1-.61,1.63,33,33,0,0,1-8.34,7.16c-0.73.45-1.46,0.84-1.46,1.46,0,0.9,2.13,3.19,3.08,3.19,1.34,0,7.22-5.21,8.34-6.44a1.105,1.105,0,0,1,.73-0.33,0.892,0.892,0,0,1,.84.67c1.18,2.63,2.74,6.27,6.16,6.27,3.14,0,4.31-2.86,5.04-5.43a27.588,27.588,0,0,0,.95-5.54c0-1.74-2.52-2.3-3.25-2.3-0.95,0-.95.45-1,1.29-0.12.89-.34,5.15-1.52,5.15a1.332,1.332,0,0,1-1-.95,30.74,30.74,0,0,1-1.57-3.87,4.055,4.055,0,0,1-.23-1.06,2.808,2.808,0,0,1,.45-1.46,49.8,49.8,0,0,0,4.82-11.08c0.05-.12.05-0.28,0.11-0.4a2.1,2.1,0,0,1,1.01-1.51,1.016,1.016,0,0,0,.84-0.78c0-.79-4.71-2.47-5.21-2.47-0.62,0-.73.68-0.84,1.24a36.825,36.825,0,0,1-2.41,8.06,0.49,0.49,0,0,1-.45.28,0.422,0.422,0,0,1-.44-0.39c-0.51-3.81-.79-7.62-0.96-11.43a1.262,1.262,0,0,1,1.52-1.45h1.45c2.19,0,4.37.11,6.55,0.11,1.29,0,1.24-.62,1.24-2.69,0-2.12.05-2.68-1.29-2.68-1.96,0-4.26.11-6.5,0.11h-1.62a1.317,1.317,0,0,1-1.57-1.46c-0.06-1.85-.06-3.64-0.06-5.43,0-1.23.12-1.46,0.56-1.74a1.139,1.139,0,0,0,.79-0.84c0-.78-0.84-0.72-2.63-0.89-0.51-.06-2.8-0.28-3.2-0.28a0.91,0.91,0,0,0-1.12,1.01c0,0.33.06,2.07,0.06,3.47,0,1.57.11,3.13,0.06,4.65a1.32,1.32,0,0,1-1.52,1.51h-5.54c-1.79,0-3.53-.11-5.26-0.11-2.07,0-3.03.56-3.03,2.74,0,1.68.12,3.3,0.12,4.98v4.37c0,4.42-.17,9.24-1.52,13.5a23.334,23.334,0,0,1-5.37,9.51,1.391,1.391,0,0,0-.62.96c0,1.06,2.75,3.24,3.81,3.24,0.9,0,2.69-2.57,3.19-3.3,3.75-5.43,5.27-11.81,5.88-18.31a1.384,1.384,0,0,1,1.63-1.46h1c0.84,0,1.29-.05,1.29.79a52.066,52.066,0,0,1-.56,7.89,1.563,1.563,0,0,1-1.79,1.46c-0.22,0-.78-0.06-1.01-0.06a1.913,1.913,0,0,0-.5-0.05c-0.73,0-.73.73-0.73,1.29,0,3.69,1.23,4.2,2.8,4.2,3.3,0,4.76-1.07,5.43-4.32a92.981,92.981,0,0,0,1.01-13.77c0-1.63-.34-2.47-2.18-2.47-0.96,0-1.96.12-2.97,0.12h-1.74a1.334,1.334,0,0,1-1.57-1.57v-2.91a1.334,1.334,0,0,1,1.57-1.57h6.83Zm-27.55,19.15c-1.12.39-2.18,0.73-3.3,1.01-0.56.05-1.29,0.11-1.29,0.84a19.976,19.976,0,0,0,.95,3.13c0.51,1.46.79,2.52,1.4,2.52a0.893,0.893,0,0,0,.73-0.67c0.28-.67.39-0.78,1.46-1.23,3.47-1.34,7.11-2.8,10.41-4.42,0.9-.45,1.12-0.73,1.12-1.96v-0.51c0-1.01-.05-2.69-0.89-2.69a17.865,17.865,0,0,0-2.08.84,1.91,1.91,0,0,0-.39.17,1.5,1.5,0,0,1-.5.11,1.017,1.017,0,0,1-.95-1.12V3363.1a1.355,1.355,0,0,1,1.51-1.57c0.61,0.06,1.79.12,2.35,0.12,1.23,0,1.18-.68,1.18-2.69s0.05-2.69-1.18-2.69c-0.73,0-1.62.06-2.35,0.11a1.328,1.328,0,0,1-1.51-1.51v-6.38c0-2.13.05-2.41,0.67-2.8a1.166,1.166,0,0,0,.84-0.84c0-.62-0.73-0.67-1.23-0.73-0.79-.06-4.15-0.34-4.88-0.34a0.708,0.708,0,0,0-.89.73,1.768,1.768,0,0,0,.05.51,28.891,28.891,0,0,1,.17,3.92v5.93a1.288,1.288,0,0,1-1.51,1.51c-0.84,0-2.07-.11-2.85-0.11-1.18,0-1.18.73-1.18,2.69,0,1.9,0,2.69,1.18,2.69,0.61,0,2.18-.12,2.85-0.12a1.315,1.315,0,0,1,1.51,1.57v12.99A1.726,1.726,0,0,1,1164.06,3378.11Zm89.71-5.77a1.558,1.558,0,0,1-1.56-1.57v-5.37a1.527,1.527,0,0,1,1.56-1.57h25.59a1.56,1.56,0,0,1,1.57,1.57v5.37a1.592,1.592,0,0,1-1.57,1.57h-25.59Zm-1.56,6.5a1.345,1.345,0,0,1,1.56-1.57h25.71a1.584,1.584,0,0,1,1.4,1.29c0.22,0.67.89,0.67,2.63,0.67,2.29,0,3.08.06,3.08-1.23,0-2.02-.11-3.98-0.11-5.99v-6.39c0-1.51.05-2.91,0.05-4.25,0-2.08-.95-2.58-2.85-2.58-1.4,0-2.8.11-4.2,0.11h-25.71a1.328,1.328,0,0,1-1.56-1.57v-4.47a1.328,1.328,0,0,1,1.56-1.57h31.31c1.73,0,3.47.11,5.2,0.11,1.35,0,1.35-.5,1.35-2.63s0-2.69-1.35-2.69c-1.73,0-3.47.11-5.2,0.11h-31.31c-1.56,0-2.85-.11-3.92-0.11-2.35,0-3.41.39-3.41,2.69,0,1.51.11,3.02,0.11,4.48v32.59c0,2.01-.17,4.03-0.17,6.1,0,1.34.73,1.29,2.91,1.29,2.3,0,3.03.11,3.03-1.35v-0.33a0.869,0.869,0,0,1,1.01-1.01h31.3c2.18,0,4.37.11,6.55,0.11,1.29,0,1.29-.61,1.29-2.63,0-2.07.05-2.74-1.35-2.74-2.12,0-4.31.17-6.49,0.17h-30.86a1.328,1.328,0,0,1-1.56-1.57v-5.04Zm89.82-27.33a1.314,1.314,0,0,1-1.57-1.45c0.06-1.12.5-1.12,1.74-1.12h5.76c1.01,0,1.74-.12,1.74,1.06v0.56a0.891,0.891,0,0,1-1.12.95h-6.55Zm7.28,4.93a1.056,1.056,0,0,1-1.18,1.06h-6.77a1.139,1.139,0,0,1-1.35-1.17,0.865,0.865,0,0,1,.06-0.39,1.007,1.007,0,0,1,1.17-.96h6.61A1.245,1.245,0,0,1,1349.31,3356.44Zm-10.75,5.88a1.759,1.759,0,0,1,2.01-1.4h6.61a1.122,1.122,0,0,1,1.34,1.12,1.048,1.048,0,0,1-.05.39c-0.45,1.51-.56,1.57-3.03,1.57-0.89,0-1.9-.06-2.4-0.06-0.96,0-1.18.62-1.18,1.46,0,3.64,1.29,3.53,3.81,3.53,3.53,0,6.05-.12,7.33-3.25,1.4-3.53,2.13-14.45,2.13-18.54,0-1.96-.78-2.4-2.63-2.4-1.34,0-2.63.05-3.98,0.05h-6.32c-1.4,0-2.8-.05-4.2-0.05-1.63,0-2.63.33-2.63,2.46,0,6.5-.62,12.99-4.48,18.48a2.262,2.262,0,0,0-.62,1.12c0,1.17,3.02,2.35,3.98,2.35a1.534,1.534,0,0,0,1.28-.78A23.654,23.654,0,0,0,1338.56,3362.32Zm-3.25,14.33a1.124,1.124,0,0,1,1.34-1.28h10.42c2.13,0,4.2.11,6.27,0.11,1.23,0,1.23-.67,1.23-2.35s0-2.3-1.23-2.3c-2.07,0-4.14.11-6.27,0.11h-29.51c-2.07,0-4.2-.11-6.27-0.11-1.24,0-1.24.62-1.24,2.3s0,2.35,1.24,2.35c2.07,0,4.2-.11,6.27-0.11h10.3a1.149,1.149,0,0,1,1.35,1.28v0.84a1.153,1.153,0,0,1-1.35,1.35h-6.83c-2.02,0-4.03-.11-6.05-0.11-1.29,0-1.23.67-1.23,2.24s-0.11,2.35,1.23,2.35c2.02,0,4.03-.17,6.05-0.17h6.61a1.373,1.373,0,0,1,1.57,1.57v0.67a1.355,1.355,0,0,1-1.57,1.57h-12.27c-2.24,0-4.48-.12-6.71-0.12-1.18,0-1.18.62-1.18,2.3,0,1.79,0,2.35,1.23,2.35,2.24,0,4.42-.11,6.66-0.11h33.83c2.24,0,4.42.11,6.66,0.11,1.23,0,1.18-.61,1.18-2.35,0-1.68.05-2.3-1.18-2.3-2.24,0-4.42.12-6.66,0.12h-12.32a1.334,1.334,0,0,1-1.57-1.57v-0.67a1.351,1.351,0,0,1,1.57-1.57h6.83c2.01,0,4.03.17,6.05,0.17,1.34,0,1.28-.73,1.28-2.35s0.06-2.24-1.28-2.24c-2.02,0-4.04.11-6.05,0.11h-7.06a1.146,1.146,0,0,1-1.34-1.35v-0.84Zm-20.94-27.83c-1.85,0-3.64-.16-5.49-0.16-1.18,0-1.12.67-1.12,2.52,0,1.96-.06,2.57,1.12,2.57a8.4,8.4,0,0,0,1.12-.05,1.11,1.11,0,0,1,1.23,1.28v3.64c0,1.29-.11,2.58-0.11,3.81,0,1.74.67,3.64,2.52,4.09a32.8,32.8,0,0,0,6.1.28c0.67,0,2.13.05,3.7,0.05a19.812,19.812,0,0,0,4.87-.33,3.167,3.167,0,0,0,1.62-3.19c0-1.18-.39-1.8-1.62-1.8a5.055,5.055,0,0,0-.95.06c-1.12.11-3.14,0.17-4.26,0.17h-4.31c-2.35,0-2.35-.51-2.35-3.19v-3.36a1.351,1.351,0,0,1,1.57-1.57h8.12c1.79,0,3.64.11,5.43,0.11,1.17,0,1.12-.67,1.12-2.52,0-1.9.05-2.57-1.12-2.57-1.79,0-3.64.16-5.43,0.16h-1.29a1.35,1.35,0,0,1-1.57-1.51c0.06-1.29,0-1.9.67-2.35a1.284,1.284,0,0,0,.79-0.84c0-.62-0.84-0.67-1.52-0.73-0.89-.11-3.69-0.39-4.53-0.39-0.56,0-1.01.11-1.01,0.78v0.45a18.119,18.119,0,0,1,.17,3.03c-0.06,1.12-.45,1.56-1.51,1.56h-1.96Z" transform="translate(-1097.88 -3343)"/>
</svg>
