<svg xmlns="http://www.w3.org/2000/svg" width="248.62" height="50.28" viewBox="0 0 248.62 50.28">
  <defs>
    <style>
      .cls-1 {
        fill-rule: evenodd;
      }
    </style>
  </defs>
  <path id="ja-yamashita.svg" class="cls-1" d="M2553.79,3608.53a1.348,1.348,0,0,1-1.57-1.56v-21.51c0-1.79.06-3.08,0.62-3.52a1.447,1.447,0,0,0,.73-0.84,0.891,0.891,0,0,0-1.01-.73c-0.73-.11-4.76-0.51-5.32-0.51s-1.07.12-1.07,0.79c0,0.17.06,0.39,0.06,0.56,0.11,1.23.22,2.74,0.22,4.2v22.79c0,2.57-.16,5.2-0.16,7.78,0,1.74.61,1.85,3.08,1.85,2.85,0,3.02-.17,3.02-2.35a1.316,1.316,0,0,1,1.51-1.52h28.06a1.332,1.332,0,0,1,1.56,1.52v0.56c0,1.9.45,1.96,2.97,1.96,2.41,0,2.97-.06,2.97-1.91,0-2.63-.11-5.26-0.11-7.95v-22.79c0-1.68.05-2.86,0.61-3.3a1.067,1.067,0,0,0,.68-0.84,0.877,0.877,0,0,0-.96-0.73c-0.67-.11-4.76-0.5-5.26-0.5-0.56,0-1.01.11-1.01,0.78a1.783,1.783,0,0,0,.06.56,27.726,27.726,0,0,1,.17,3.92v21.73a1.348,1.348,0,0,1-1.57,1.56h-9.63a1.348,1.348,0,0,1-1.57-1.56v-31.75c0-1.63.06-2.75,0.62-3.2a1.122,1.122,0,0,0,.72-0.84,0.879,0.879,0,0,0-1-.72c-0.79-.12-4.76-0.51-5.38-0.51-0.56,0-1.06.11-1.06,0.79,0,0.16.05,0.39,0.05,0.56,0.11,1.23.23,2.74,0.23,4.2v31.47a1.348,1.348,0,0,1-1.57,1.56h-9.69Zm78.06-29.51a1.348,1.348,0,0,1,1.57-1.56h12.04c2.35,0,4.7.16,7.06,0.16,1.45,0,1.4-.67,1.4-2.96s0.05-2.97-1.4-2.97c-2.36,0-4.71.17-7.06,0.17h-31.97c-2.36,0-4.71-.17-7.06-0.17-1.45,0-1.4.73-1.4,2.97s-0.05,2.96,1.4,2.96c2.35,0,4.7-.16,7.06-0.16h10.69a1.348,1.348,0,0,1,1.57,1.56v30.07c0,2.75-.17,5.55-0.17,8.35,0,1.84.67,1.9,3.25,1.9,2.46,0,3.19-.06,3.19-1.9,0-2.8-.17-5.6-0.17-8.35v-16.12a0.852,0.852,0,0,1,.79-0.96,0.8,0.8,0,0,1,.5.17,120.684,120.684,0,0,1,11.37,8.23,3,3,0,0,0,1.4.84c1.23,0,3.36-3.02,3.36-4.03,0-.67-0.39-1.01-1.4-1.79a127.213,127.213,0,0,0-14.73-9.52,2.145,2.145,0,0,1-1.29-2.24v-4.65Zm55.05,22.4c-0.84,0-.73.9-0.78,1.46a65.364,65.364,0,0,1-2.19,11.48,8.86,8.86,0,0,0-.22,1.12c0,0.95,2.58,1.62,3.3,1.62a1.382,1.382,0,0,0,1.24-1.29c0.72-3.02,1.68-8.12,2.07-11.2a1.215,1.215,0,0,1,.73-1.28,0.813,0.813,0,0,0,.5-0.62,0.936,0.936,0,0,0-1.01-.73C2690.04,3601.93,2687.18,3601.42,2686.9,3601.42Zm33.1-10.19a160.189,160.189,0,0,1-5.38,19.21,1.873,1.873,0,0,1-1.9,1.51h-0.23c-0.45.05-.84,0.11-1.17,0.17-1.12.11-1.63,0.16-1.63,0.78a11.734,11.734,0,0,0,.68,2.63c0.44,1.4.83,2.86,1.51,2.86a0.862,0.862,0,0,0,.67-0.39,1,1,0,0,1,.78-0.73c4.48-.84,8.96-1.51,13.44-2.47,0.17,0,.34-0.05.51-0.05a1.4,1.4,0,0,1,1.4,1.12c0.16,0.56.33,1.06,0.44,1.45,0.34,1.24.51,1.74,1.35,1.74,1.01,0,4.2-.78,4.2-2.02,0-.78-1.4-4.42-2.13-6.43-0.17-.45-0.34-0.79-0.39-1.01a38.485,38.485,0,0,0-3.03-6.5,1.437,1.437,0,0,0-1.17-.67c-0.84,0-3.75.84-3.75,2.07a18.291,18.291,0,0,0,1.4,3.36,3.981,3.981,0,0,1,.33.67,1.916,1.916,0,0,1,.11.56,1.083,1.083,0,0,1-.95,1.07l-3.97.67h-0.28a0.771,0.771,0,0,1-.79-0.78c0-.12.06-0.28,0.06-0.4a152.417,152.417,0,0,0,5.15-15.79,1.261,1.261,0,0,1,.67-0.73,1.075,1.075,0,0,0,.9-0.78c0-.67-2.07-1.23-2.69-1.4a28.067,28.067,0,0,0-3.19-.95C2720.16,3590,2720.16,3590.67,2720,3591.23Zm-8.68-5.32a79.6,79.6,0,0,1-5.21,20.78,0.535,0.535,0,0,1-.5.33,0.544,0.544,0,0,1-.51-0.45c-1.01-3.58-1.45-6.04-2.85-6.04-0.73,0-3.14.56-3.14,1.51a6.516,6.516,0,0,0,.22.95c0.4,0.95,1.29,4.09,1.52,5.04,0.39,1.85.39,2.8,1.45,2.8a1.979,1.979,0,0,0,.62-0.06,0.5,0.5,0,0,1,.67.4,0.708,0.708,0,0,1-.11.28,9.727,9.727,0,0,0-1.57,2.74c0,1.23,3.25,2.8,4.09,2.8a1.088,1.088,0,0,0,.84-0.39,44.948,44.948,0,0,0,3.47-5.99c3.69-7.51,5.54-16.47,6.44-24.7a1.423,1.423,0,0,1,1.68-1.46h8.29c2.01,0,4.08.12,6.1,0.12,1.23,0,1.18-.68,1.18-2.75s0.05-2.8-1.18-2.8c-2.02,0-4.09.17-6.1,0.17h-7.9a1.275,1.275,0,0,1-1.51-1.51c0.05-1.74.11-3.47,0.11-5.21a1.407,1.407,0,0,1,.45-1.4,1.33,1.33,0,0,0,.67-0.89c0-.62-0.78-0.62-2.41-0.79-0.73-.05-2.69-0.33-3.3-0.33a0.908,0.908,0,0,0-.95,1.12c0,1.12.05,2.63,0.05,4.14v3.36a1.4,1.4,0,0,1-1.51,1.51c-1.4-.05-2.74-0.17-4.09-0.17-1.23,0-1.23.73-1.23,2.8s0,2.75,1.23,2.75,2.41-.06,3.64-0.12a1.218,1.218,0,0,1,1.35,1.24v0.22Zm-18.82,23.86c0,2.57-.11,5.09-0.11,7.61,0,1.85.5,1.9,2.8,1.9,2.18,0,2.74-.05,2.74-1.84,0-2.58-.11-5.1-0.11-7.67v-10.31a1.47,1.47,0,0,1,1.4-1.73c0.62-.12,1.18-0.17,1.79-0.28a0.947,0.947,0,0,1,1.18.84c0.22,0.67.28,1.51,1.18,1.51s3.36-.67,3.36-1.79c0-.9-1.68-5.6-2.02-6.72-1.29-3.92-1.68-4.37-2.52-4.37-0.78,0-3.19.67-3.19,1.62a11.79,11.79,0,0,0,.67,2.02c0.11,0.28.17,0.56,0.22,0.67a1.874,1.874,0,0,1,.12.56,1.1,1.1,0,0,1-1.07,1.06c-1.29.12-2.57,0.28-3.92,0.4a0.653,0.653,0,0,1-.73-0.62,0.776,0.776,0,0,1,.17-0.5c2.8-4.04,5.55-8.12,8.01-12.38a1.158,1.158,0,0,1,1.01-.61,0.6,0.6,0,0,0,.73-0.51c0-.45-0.51-0.73-1.18-1.12-0.11-.05-0.34-0.17-0.62-0.33a22.437,22.437,0,0,0-2.96-1.4c-0.45,0-.56.28-1.01,1.17-1.07,2.24-2.47,4.43-3.75,6.55a1.142,1.142,0,0,1-.9.62,1.418,1.418,0,0,1-.9-0.45l-0.67-.67a1.111,1.111,0,0,1-.22-1.57c1.45-2.85,2.8-5.77,3.97-8.73a0.937,0.937,0,0,1,.96-0.56,0.668,0.668,0,0,0,.67-0.56c0-.56-1.18-0.96-1.63-1.18-0.11-.06-0.33-0.11-0.56-0.22a21.474,21.474,0,0,0-2.8-1.07c-0.5,0-.56.39-0.72,0.79a52.5,52.5,0,0,1-3.25,8.12,0.913,0.913,0,0,1-.84.61,1.01,1.01,0,0,1-.67-0.28,2.075,2.075,0,0,0-.9-0.5c-1.01,0-2.41,3.08-2.41,3.92a1.23,1.23,0,0,0,.56.95c2.58,2.24,3.31,2.85,5.77,5.26a1.645,1.645,0,0,1,.62,1.23,1.683,1.683,0,0,1-.34,1.01c-0.5.79-1.06,1.57-1.57,2.41a2.689,2.689,0,0,1-2.24,1.29h-0.28c-0.33,0-.67.05-0.95,0.05-1.06,0-1.62.06-1.62,0.68a20.237,20.237,0,0,0,.5,2.35c0.11,0.39.22,0.78,0.28,1.12,0.34,1.4.56,2.18,1.12,2.18a0.94,0.94,0,0,0,.78-0.67,0.73,0.73,0,0,1,.68-0.56c1.34-.11,2.63-0.22,3.92-0.39a1.235,1.235,0,0,1,1.45,1.45v9.64Zm82.6-18.82a1.275,1.275,0,0,1-1.51-1.46v-5.88a1.348,1.348,0,0,1,1.57-1.56h9.35a1.348,1.348,0,0,1,1.57,1.56v5.77a1.334,1.334,0,0,1-1.57,1.57h-9.41Zm-7.45-1.57a1.328,1.328,0,0,1-1.56,1.57h-9.69a1.351,1.351,0,0,1-1.57-1.57v-5.77a1.367,1.367,0,0,1,1.57-1.56h9.74a1.326,1.326,0,0,1,1.51,1.56v5.77Zm-1.68,6.67a1.2,1.2,0,0,1,1.4,1.51,14.493,14.493,0,0,1-.89,4.03,1.011,1.011,0,0,1-.9.78,1.391,1.391,0,0,1-.78-0.33,41.423,41.423,0,0,1-3.98-4.2,1.591,1.591,0,0,0-1.23-.73c-1.06,0-3.92,2.07-3.92,2.74,0,1.07,4.98,5.66,5.94,6.56a1.34,1.34,0,0,1,.5.95,1.236,1.236,0,0,1-.5.95c-3.7,2.69-8.96,4.14-13.5,4.65-1.12.11-1.96,0.05-1.96,1.34,0,1.01.67,4.54,2.58,4.54a16.693,16.693,0,0,0,2.4-.4c5.1-1.06,11.09-3.36,15.12-6.72a2.333,2.333,0,0,1,1.29-.55,2.392,2.392,0,0,1,1.07.33,47.684,47.684,0,0,0,11.36,4.93c3.03,0.89,9.19,2.29,12.21,2.29,1.9,0,2.63-3.75,2.63-4.42,0-1.01-1.12-1.18-1.9-1.29-7.23-.95-14.51-2.46-20.94-5.93a1.444,1.444,0,0,1-.79-1.23,1.832,1.832,0,0,1,.17-0.79,25.168,25.168,0,0,0,1.96-7.56,1.374,1.374,0,0,1,1.62-1.45h10.03a2.819,2.819,0,0,1,1.23.95c0.45,0.39,1.01.39,2.74,0.39,2.24,0,2.97,0,2.97-1.29,0-.22-0.17-3.19-0.17-3.86v-9.63c0-1.12.11-2.3,0.11-3.42,0-2.24-1.9-2.41-3.64-2.41-1.68,0-3.36.12-5.09,0.12h-7.95a1.336,1.336,0,0,1-1.57-1.52v-1.62c0-1.79.05-2.3,0.78-2.8a1.008,1.008,0,0,0,.73-0.84,0.871,0.871,0,0,0-.95-0.67c-0.95-.11-4.54-0.34-5.49-0.34-0.67,0-1.17.11-1.17,0.9v0.61a20.716,20.716,0,0,1,.16,3.14v1.57a1.333,1.333,0,0,1-1.51,1.57h-8.4c-1.68,0-3.41-.12-5.09-0.12-1.8,0-3.59.17-3.59,2.41,0,1.12.06,2.3,0.06,3.42v9.63c0,1.17-.11,2.97-0.11,3.92,0,1.29.78,1.23,3.08,1.23,2.01,0,2.52,0,2.8-.62a1,1,0,0,1,.84-0.72h10.24Z" transform="translate(-2546.19 -3569.06)"/>
</svg>
