<svg xmlns="http://www.w3.org/2000/svg" viewBox="0 0 85.04 85.04"><defs><style>.cls-1{fill:#e60012;}.cls-2{fill:#094;}.cls-3{fill:#fff100;}.cls-4{fill:#1d2088;}.cls-5{fill:#e4007f;}.cls-6{fill:#00a0e9;}</style></defs><g id="レイヤー_2" data-name="レイヤー 2"><g id="デザイン"><path class="cls-1" d="M19.09,13.65A36.58,36.58,0,0,1,43,9.17,36.72,36.72,0,0,1,76.8,23.33a36.69,36.69,0,0,0-68-.82A36.59,36.59,0,0,1,19.09,13.65Z"/><path class="cls-2" d="M13.43,58.89A36.67,36.67,0,0,1,8.79,22.51,36.69,36.69,0,0,0,42.08,81.83,36.69,36.69,0,0,1,13.43,58.89Z"/><path class="cls-3" d="M13.43,58.89A36.67,36.67,0,0,1,43,9.17,36.61,36.61,0,0,0,8.79,22.51a36.67,36.67,0,0,0,4.64,36.38Z"/><path class="cls-4" d="M76.8,23.33a36.64,36.64,0,0,1-5.54,36.28A36.7,36.7,0,0,1,42.08,81.83,36.7,36.7,0,0,0,76.8,23.33Z"/><path class="cls-5" d="M66,13.79A36.45,36.45,0,0,0,43,9.17,36.66,36.66,0,0,1,71.26,59.61,36.64,36.64,0,0,0,76.8,23.33,36.54,36.54,0,0,0,66,13.79Z"/><path class="cls-6" d="M71.26,59.61a36.66,36.66,0,0,1-57.83-.72A36.69,36.69,0,0,0,42.08,81.83,36.7,36.7,0,0,0,71.26,59.61Z"/><path class="cls-4" d="M76.8,23.33a36.73,36.73,0,0,1,5.25,34.85,42.51,42.51,0,0,0-36.3-58A36.72,36.72,0,0,1,76.8,23.33Z"/><path class="cls-1" d="M8.79,22.51A36.69,36.69,0,0,1,41,0,42.53,42.53,0,0,0,4.23,61,36.71,36.71,0,0,1,8.79,22.51Z"/><path class="cls-2" d="M42.08,81.83A36.72,36.72,0,0,1,8,67.33a42.5,42.5,0,0,0,66.76,2.9A36.77,36.77,0,0,1,42.08,81.83Z"/></g></g></svg>