<svg xmlns="http://www.w3.org/2000/svg" width="232.346" height="56.937" viewBox="0 0 232.346 56.937">
  <defs>
    <style>
      .cls-1 {
        fill-rule: evenodd;
      }
    </style>
  </defs>
  <path id="つながる" class="cls-1" d="M927.357,795.564a37.949,37.949,0,0,0,3.84,6.694c0.66,0.965,1.14,1.351,1.74,1.351a2.8,2.8,0,0,0,1.62-.965,37.283,37.283,0,0,1,4.14-2.317c9.119-4.312,16.259-6.629,21.659-6.629,6.659,0,10.319,3.733,10.319,9.782,0,5.922-3.18,10.041-8.279,12.808-4.08,2.124-8.34,3.347-16.26,4.763a11.729,11.729,0,0,1,4.2,5.084c0.42,1.223.9,1.288,2.1,1.03,5.52-1.287,10.2-2.317,15.239-5.342,7.14-4.119,10.56-9.461,10.56-17.892,0-10.105-6.9-17.056-17.639-17.056-4.86,0-12.36,2-21.6,5.342C932.217,794.663,930,795.242,927.357,795.564Zm93.183,19.308a28.843,28.843,0,0,0-4.74-.386c-6.78,0-11.1,3.8-11.1,9.4,0,5.535,4.44,9.139,11.04,9.139,6.84,0,11.16-2.961,11.16-9.4a44.662,44.662,0,0,1,7.32,5.407,0.924,0.924,0,0,0,.6.386,0.686,0.686,0,0,0,.54-0.451,39.246,39.246,0,0,0,2.75-5.213,0.881,0.881,0,0,0-.36-1.351,45.671,45.671,0,0,0-10.79-5.986,90.082,90.082,0,0,1-.66-10.941,7.148,7.148,0,0,1,.24-2.639,8.546,8.546,0,0,0,.36-1.352,0.97,0.97,0,0,0-.84-1.03,30.45,30.45,0,0,0-6.54-1.222,24.17,24.17,0,0,1,.48,4.569C1020.06,806.827,1020.18,810.753,1020.54,814.872Zm0.12,6.115a7.943,7.943,0,0,1,.06,1.287c0,2.7-1.98,4.569-5.22,4.569-3.42,0-5.1-1.029-5.1-3.089,0-2.446,2.34-3.733,5.34-3.733A14.373,14.373,0,0,1,1020.66,820.987Zm-9.78-33.018c0.54-1.93,1.02-3.926,1.44-5.47a7.344,7.344,0,0,1,.96-2.382,1.633,1.633,0,0,0,.54-1.222,1.061,1.061,0,0,0-.96-0.966,52.124,52.124,0,0,0-7.02-1.351,26.683,26.683,0,0,1-.36,5.213c-0.42,2.317-.84,4.5-1.56,7.208a66.74,66.74,0,0,1-6.9.322c-1.74,0-3.12-.064-5.58-0.257a35.951,35.951,0,0,0,.6,5.47c0.12,0.837.24,1.03,0.84,1.03,1.5,0.064,1.98.064,3.3,0.064,1.86,0,3.72,0,6-.128A134.2,134.2,0,0,1,991.8,817.962a1.28,1.28,0,0,0-.3.772,0.91,0.91,0,0,0,.42.708,28.688,28.688,0,0,0,4.14,3.282,1.6,1.6,0,0,0,.72.322,0.889,0.889,0,0,0,.66-0.643c4.323-7.853,7.863-16.734,11.7-27.611,3.72-.58,6.66-1.03,9.9-1.738a0.66,0.66,0,0,0,.72-0.772,37.365,37.365,0,0,0-.54-5.214c-0.12-.708-0.36-0.708-0.9-0.514A60.5,60.5,0,0,1,1010.88,787.969Zm13.32,6.115a50.771,50.771,0,0,1,12.42,7.015,0.811,0.811,0,0,0,.54.258,0.676,0.676,0,0,0,.53-0.451,40.027,40.027,0,0,0,2.52-4.763,1.613,1.613,0,0,0,.24-0.772,0.949,0.949,0,0,0-.54-0.708,45.292,45.292,0,0,0-11.75-6.05,0.816,0.816,0,0,0-1.26.451C1026.12,790.222,1025.22,792.153,1024.2,794.084Zm66.24-11.263a31.38,31.38,0,0,1,6.06,7.465,0.607,0.607,0,0,0,1.02.194l2.51-2a0.674,0.674,0,0,0,.18-1.029,28.784,28.784,0,0,0-5.69-6.887c-0.36-.322-0.6-0.386-0.9-0.129Zm5.52-4.248a29.9,29.9,0,0,1,5.99,7.4,0.6,0.6,0,0,0,1.02.193l2.4-2a0.775,0.775,0,0,0,.18-1.158,26.264,26.264,0,0,0-5.7-6.629c-0.36-.322-0.53-0.387-0.89-0.129Zm-29.52,14.674c-2.34.386-4.56,0.708-7.08,0.965-2.64.258-5.28,0.451-7.92,0.451a61.991,61.991,0,0,0,1.86,6.629,1.289,1.289,0,0,0,1.92.837,16.74,16.74,0,0,1,3.3-1.03c1.62-.322,3.54-0.708,5.88-1.094a140.454,140.454,0,0,1-10.98,25.229,1.256,1.256,0,0,0-.24.708,1.356,1.356,0,0,0,.48.966,27.177,27.177,0,0,0,4.14,2.832,0.964,0.964,0,0,0,1.56-.58c4.68-9.01,8.1-17.892,12.06-30.249a37.03,37.03,0,0,1,5.04-.451c2.64,0,3.42,1.416,3.42,5.921a53,53,0,0,1-2.34,16.026c-0.96,2.639-1.86,3.411-3.84,3.411a15.055,15.055,0,0,1-6.9-1.673,19.559,19.559,0,0,1,1.14,5.986,1.724,1.724,0,0,0,1.08,1.8,14.935,14.935,0,0,0,6.24.965c3.48,0,6.36-1.931,8.1-6.05,2.04-4.634,3.24-13.194,3.24-20.145,0-8.238-3-12.421-8.58-12.421a42.783,42.783,0,0,0-4.8.257c0.78-2.7,1.38-5.084,2.16-7.723a8.369,8.369,0,0,1,1.2-2.446,1.386,1.386,0,0,0,.42-0.965,1.341,1.341,0,0,0-.96-1.288,41.652,41.652,0,0,0-7.2-2.123,46.907,46.907,0,0,1-.6,7.144C1067.82,787.326,1067.4,789.578,1066.44,793.247Zm20.7-.515c4.32,4.377,7.44,9.912,9.84,16.67a0.837,0.837,0,0,0,1.38.515,24.723,24.723,0,0,0,4.49-3.219,0.962,0.962,0,0,0,.24-1.287,43.285,43.285,0,0,0-9.95-15.639c-0.42-.451-0.72-0.58-1.14-0.322A50.521,50.521,0,0,0,1087.14,792.732Zm48.06,9.332c4.56-4.7,8.58-9.2,12.96-13.773a9.735,9.735,0,0,1,2.64-2.059,1.7,1.7,0,0,0,1.02-1.545,2.314,2.314,0,0,0-.66-1.545,23.55,23.55,0,0,0-4.02-4.119,2.055,2.055,0,0,0-1.38-.515,2.992,2.992,0,0,0-1.14.515,15.085,15.085,0,0,1-3.3.966c-4.68.965-9.96,1.8-13.62,2.188a26.913,26.913,0,0,1-5.58-.129,32.382,32.382,0,0,0,2.1,6.951,1.38,1.38,0,0,0,1.32,1.094,4.181,4.181,0,0,0,1.2-.321,17.406,17.406,0,0,1,2.52-.773c3.72-.836,7.98-1.738,11.58-2.445-2.76,3.668-5.58,6.886-9.3,11a149.015,149.015,0,0,1-14.22,14.224,1.073,1.073,0,0,0-.3,1.48,28.374,28.374,0,0,0,3.54,4.184,1.454,1.454,0,0,0,.9.579,1.685,1.685,0,0,0,1.02-.708c1.8-1.931,3.48-3.8,5.22-5.471,4.86-4.441,10.38-6.822,15.36-6.822,5.58,0,9.42,3.862,9.42,9.719,0,4.891-1.92,7.723-6.12,9.782-1.5-6.178-5.64-9.4-11.28-9.4-4.68,0-8.46,3.54-8.46,7.852,0,5.985,4.56,9.461,12.12,9.461,12.84,0,20.94-6.887,20.94-17.635,0-9.268-6.12-15.447-14.88-15.447a17.147,17.147,0,0,0-9.54,2.9Zm5.22,24.071a12.219,12.219,0,0,1-2.76.258c-3.6,0-5.22-1.352-5.22-3.347a2.6,2.6,0,0,1,2.88-2.446C1137.84,820.6,1139.64,822.6,1140.42,826.135Z" transform="translate(-927.344 -776.094)"/>
</svg>
