<svg xmlns="http://www.w3.org/2000/svg" width="195.845" height="46.625" viewBox="0 0 195.845 46.625">
  <defs>
    <style>
      .cls-1 {
        fill-rule: evenodd;
      }
    </style>
  </defs>
  <path id="ABOUT" class="cls-1" d="M961.557,415.225l-15.6-45.827h-6.54l-15.54,45.827h8.7l2.58-8.11h15.18l2.52,8.11h8.7Zm-13.44-15.641H937.5l5.4-16.67Zm50.909-1.551a11.685,11.685,0,0,0-1.41-2.925,8.82,8.82,0,0,0-1.89-2.024,15.074,15.074,0,0,0-2.01-1.318,7.811,7.811,0,0,0,1.71-1.225,11.11,11.11,0,0,0,1.74-2.03,10.936,10.936,0,0,0,1.32-2.74,11.075,11.075,0,0,0,.51-3.48q0-5.931-3.45-9.411T985.8,369.4h-17.16v45.827h17.88a15.44,15.44,0,0,0,5.28-.867,11.571,11.571,0,0,0,4.14-2.539,11.39,11.39,0,0,0,2.7-4.114,15.394,15.394,0,0,0,.96-5.656A12.683,12.683,0,0,0,999.026,398.033Zm-9.12,7.537a5.11,5.11,0,0,1-4.23,1.674h-8.7V395.98h8.7a5.164,5.164,0,0,1,4.23,1.641,6.033,6.033,0,0,1,1.35,3.959A6.157,6.157,0,0,1,989.906,405.57Zm-0.66-19.028a5.462,5.462,0,0,1-4.11,1.457h-8.16v-10.62h8.16a5.462,5.462,0,0,1,4.11,1.457A5.969,5.969,0,0,1,989.246,386.542Zm50.734,0.234a32.806,32.806,0,0,0-.45-4.827,18.892,18.892,0,0,0-1.26-4.216,13.4,13.4,0,0,0-2.49-3.7,16.327,16.327,0,0,0-5.07-3.733,15.281,15.281,0,0,0-6.45-1.287,15.454,15.454,0,0,0-6.48,1.287,15.991,15.991,0,0,0-5.1,3.733,13.185,13.185,0,0,0-2.49,3.7,16.966,16.966,0,0,0-1.23,4.216,34.37,34.37,0,0,0-.42,4.827q-0.06,2.575-.06,5.535t0.06,5.536a34.37,34.37,0,0,0,.42,4.827,16.966,16.966,0,0,0,1.23,4.216,13.171,13.171,0,0,0,2.49,3.7,15.961,15.961,0,0,0,5.1,3.733,15.439,15.439,0,0,0,6.48,1.287,15.266,15.266,0,0,0,6.45-1.287,16.3,16.3,0,0,0,5.07-3.733,13.387,13.387,0,0,0,2.49-3.7,18.892,18.892,0,0,0,1.26-4.216,32.806,32.806,0,0,0,.45-4.827c0.03-1.716.06-3.561,0.06-5.536S1040.01,388.493,1039.98,386.776Zm-8.37,10.974a31.437,31.437,0,0,1-.33,3.572,9.045,9.045,0,0,1-.66,2.285,7.841,7.841,0,0,1-1.02,1.577,6.735,6.735,0,0,1-5.34,2.446,6.965,6.965,0,0,1-3.12-.676,6.822,6.822,0,0,1-3.27-3.347,8.744,8.744,0,0,1-.63-2.285,29.284,29.284,0,0,1-.33-3.572q-0.09-2.156-.09-5.439t0.09-5.438a29.363,29.363,0,0,1,.33-3.573,8.758,8.758,0,0,1,.63-2.284,6.822,6.822,0,0,1,3.27-3.347,6.965,6.965,0,0,1,3.12-.676,6.735,6.735,0,0,1,5.34,2.446,7.813,7.813,0,0,1,1.02,1.577,9.061,9.061,0,0,1,.66,2.284,31.525,31.525,0,0,1,.33,3.573q0.09,2.157.09,5.438T1031.61,397.75Zm49.59,1.77V369.4h-8.34v29.8a8.923,8.923,0,0,1-2.01,6.211,6.973,6.973,0,0,1-5.43,2.221,6.866,6.866,0,0,1-5.4-2.221,9.01,9.01,0,0,1-1.98-6.211V369.4h-8.34V399.52a17.132,17.132,0,0,0,1.23,6.63,15.1,15.1,0,0,0,3.36,5.052,15.329,15.329,0,0,0,4.99,3.25,16.976,16.976,0,0,0,12.33,0,15.329,15.329,0,0,0,4.99-3.25,15.1,15.1,0,0,0,3.36-5.052,17.133,17.133,0,0,0,1.24-6.63h0Zm38.52-22.141V369.4h-30.66v7.981h11.16v37.846h8.34V377.379h11.16Z" transform="translate(-923.875 -369)"/>
</svg>
