<svg xmlns="http://www.w3.org/2000/svg" width="90.878" height="19.187" viewBox="0 0 90.878 19.187">
  <defs>
    <style>
      .cls-1 {
        fill-rule: evenodd;
      }
    </style>
  </defs>
  <path id="menu-share.svg" class="cls-1" d="M937.259,944.285a4.356,4.356,0,0,0-1.074-1.668,4.729,4.729,0,0,0-1.308-.861,8.49,8.49,0,0,0-1.975-.543l-2-.318a3.632,3.632,0,0,1-1.975-.874,2.121,2.121,0,0,1-.506-0.781,2.783,2.783,0,0,1-.16-0.967,2.864,2.864,0,0,1,.827-2.105,3.207,3.207,0,0,1,2.382-.834,6.746,6.746,0,0,1,2.061.3,4.264,4.264,0,0,1,1.766,1.152l1.7-1.8a7.1,7.1,0,0,0-2.419-1.641,8.3,8.3,0,0,0-3.037-.5,7.152,7.152,0,0,0-2.469.4,4.958,4.958,0,0,0-3,2.9,5.973,5.973,0,0,0-.408,2.238,4.9,4.9,0,0,0,1.284,3.6,5.73,5.73,0,0,0,3.333,1.51l2.074,0.317a6.137,6.137,0,0,1,1.185.292,2.239,2.239,0,0,1,.74.5,2.979,2.979,0,0,1-.259,4.092,4.214,4.214,0,0,1-2.679.754,7.3,7.3,0,0,1-2.444-.384,5.187,5.187,0,0,1-2.049-1.417l-1.777,1.881a7.128,7.128,0,0,0,2.74,1.933,9.888,9.888,0,0,0,3.481.556,8.324,8.324,0,0,0,2.543-.371,5.751,5.751,0,0,0,2-1.085,4.973,4.973,0,0,0,1.308-1.748,5.575,5.575,0,0,0,.469-2.331A6.362,6.362,0,0,0,937.259,944.285Zm20.133,7.574V933H954.7v8.051h-7.11V933H944.9v18.856h2.691v-8.236h7.11v8.236h2.691Zm21.207,0L972.155,933h-2.148l-6.443,18.856H966.4l1.21-3.787h6.937l1.21,3.787H978.6Zm-4.79-6.223H968.4l2.74-8.369Zm23.824,6.223-4.073-8.342a4.917,4.917,0,0,0,3.53-5.005,6.249,6.249,0,0,0-.383-2.212,4.947,4.947,0,0,0-1.1-1.748,5.11,5.11,0,0,0-1.72-1.138,5.915,5.915,0,0,0-2.263-.411H984.8v18.856h2.691v-7.945h3.322l3.69,7.945h3.135Zm-4.058-11.149a3.031,3.031,0,0,1-2.152.768h-3.937v-5.906h3.937a3,3,0,0,1,2.152.781,2.869,2.869,0,0,1,.824,2.185A2.824,2.824,0,0,1,993.575,940.71Zm22.355,11.149V949.29h-8.57v-5.667h7.31v-2.569h-7.31v-5.482h8.57V933h-11.26v18.856h11.26Z" transform="translate(-925.062 -932.844)"/>
</svg>
