<svg xmlns="http://www.w3.org/2000/svg" width="482.03" height="61.53" viewBox="0 0 482.03 61.53">
  <defs>
    <style>
      .cls-1 {
        fill: #90949e;
        fill-rule: evenodd;
      }
    </style>
  </defs>
  <path id="menu-copyright.svg" class="cls-1" d="M941.132,1183.93h-3.384a3.794,3.794,0,0,1-.96,1.89,2.91,2.91,0,0,1-4.056-.24,3.227,3.227,0,0,1-.432-0.66,3.164,3.164,0,0,1-.252-0.9,13.5,13.5,0,0,1-.12-1.42c-0.024-.57-0.036-1.31-0.036-2.2s0.012-1.63.036-2.2a13.5,13.5,0,0,1,.12-1.42,3.164,3.164,0,0,1,.252-0.9,2.917,2.917,0,0,1,.432-0.65,2.541,2.541,0,0,1,2.136-.96,2.578,2.578,0,0,1,1.92.71,3.794,3.794,0,0,1,.96,1.89h3.384a6.923,6.923,0,0,0-2.124-4.3,6.412,6.412,0,0,0-8.772.52,5.405,5.405,0,0,0-1.392,2.75,36.244,36.244,0,0,0,0,9.12,5.405,5.405,0,0,0,1.392,2.75,6.05,6.05,0,0,0,4.608,2.01,6.53,6.53,0,0,0,2.28-.39,5.56,5.56,0,0,0,1.872-1.12,6.067,6.067,0,0,0,1.368-1.81,8.2,8.2,0,0,0,.768-2.47h0Zm16.1-5.74a13.054,13.054,0,0,0-.18-1.93,7.011,7.011,0,0,0-.5-1.69,5.353,5.353,0,0,0-1-1.48,6.449,6.449,0,0,0-2.028-1.49,6,6,0,0,0-2.58-.52,6.078,6.078,0,0,0-2.592.52,6.405,6.405,0,0,0-2.04,1.49,5.353,5.353,0,0,0-1,1.48,6.658,6.658,0,0,0-.492,1.69,14.3,14.3,0,0,0-.168,1.93c-0.016.68-.024,1.42-0.024,2.21s0.008,1.53.024,2.21a14.6,14.6,0,0,0,.168,1.94,6.7,6.7,0,0,0,.492,1.68,5.21,5.21,0,0,0,1,1.48,6.6,6.6,0,0,0,2.04,1.5,6.232,6.232,0,0,0,2.592.51,6.149,6.149,0,0,0,2.58-.51,6.643,6.643,0,0,0,2.028-1.5,5.21,5.21,0,0,0,1-1.48,7.069,7.069,0,0,0,.5-1.68,13.325,13.325,0,0,0,.18-1.94c0.016-.68.024-1.42,0.024-2.21S957.252,1178.87,957.236,1178.19Zm-3.348,4.39a11.509,11.509,0,0,1-.132,1.42,3.469,3.469,0,0,1-.264.92,3.039,3.039,0,0,1-.408.63,2.755,2.755,0,0,1-.9.71,2.727,2.727,0,0,1-1.236.27,2.8,2.8,0,0,1-1.248-.27,2.745,2.745,0,0,1-1.308-1.34,3.85,3.85,0,0,1-.252-0.92,11.509,11.509,0,0,1-.132-1.42c-0.024-.58-0.036-1.3-0.036-2.18s0.012-1.6.036-2.18a11.509,11.509,0,0,1,.132-1.42,3.85,3.85,0,0,1,.252-0.92,2.745,2.745,0,0,1,1.308-1.34,2.8,2.8,0,0,1,1.248-.27,2.727,2.727,0,0,1,1.236.27,2.755,2.755,0,0,1,.9.71,3.039,3.039,0,0,1,.408.63,3.469,3.469,0,0,1,.264.92,11.509,11.509,0,0,1,.132,1.42c0.024,0.58.036,1.31,0.036,2.18S953.912,1182,953.888,1182.58Zm19.38-7.83a5.4,5.4,0,0,0-1.116-1.83,5.253,5.253,0,0,0-1.776-1.23,5.918,5.918,0,0,0-2.364-.45h-6.624v18.33h3.336v-6.9h3.288a5.918,5.918,0,0,0,2.364-.45,5.246,5.246,0,0,0,2.892-3.07A6.494,6.494,0,0,0,973.268,1174.75Zm-3.612,4.04a2.383,2.383,0,0,1-1.812.68h-3.12v-5.04h3.12a2.358,2.358,0,0,1,1.812.7A2.867,2.867,0,0,1,969.656,1178.79Zm20.172-7.55H986.2l-3.156,7.38-3.2-7.38H976.22l5.136,10.81v7.52h3.336v-7.52Zm17.132,18.33-3.81-7.91a4.793,4.793,0,0,0,1.19-.65,5.105,5.105,0,0,0,.99-1.03,5.246,5.246,0,0,0,.69-1.38,5.914,5.914,0,0,0,.25-1.75,6.521,6.521,0,0,0-.37-2.18,5.039,5.039,0,0,0-1.1-1.77,5.217,5.217,0,0,0-1.75-1.21,5.765,5.765,0,0,0-2.33-.45h-6.692v18.33h3.336v-7.32h2.4l3.336,7.32h3.86Zm-4.69-10.97a2.39,2.39,0,0,1-1.76.67h-3.146v-4.84h3.146a2.351,2.351,0,0,1,1.76.67A2.65,2.65,0,0,1,1002.27,1178.6Zm12.47,10.97v-18.33h-3.34v18.33h3.34Zm17.86-7.52v-2.68h-6.48v2.99h3.14v0.69a3.8,3.8,0,0,1-.77,2.45,2.987,2.987,0,0,1-2.37,1.03,2.559,2.559,0,0,1-2.14-.95,2.621,2.621,0,0,1-.42-0.66,3.41,3.41,0,0,1-.24-0.9,11.633,11.633,0,0,1-.12-1.41c-0.02-.56-0.04-1.3-0.04-2.21s0.02-1.65.04-2.21a11.373,11.373,0,0,1,.13-1.41,3.484,3.484,0,0,1,.25-0.88,3.669,3.669,0,0,1,.4-0.65,2.617,2.617,0,0,1,2.14-.98c1.63,0,2.65.9,3.07,2.68h3.38a8.206,8.206,0,0,0-.65-2.25,6.454,6.454,0,0,0-1.28-1.88,5.866,5.866,0,0,0-1.93-1.28,6.866,6.866,0,0,0-2.58-.46,6.069,6.069,0,0,0-4.62,2.01,5.356,5.356,0,0,0-1.39,2.75,36,36,0,0,0,0,9.12,5.356,5.356,0,0,0,1.39,2.75,6.069,6.069,0,0,0,4.62,2.01,6.773,6.773,0,0,0,2.63-.5,6.421,6.421,0,0,0,2.2-1.59,5.849,5.849,0,0,0,1.26-2.29,11.933,11.933,0,0,0,.38-3.29h0Zm17.23,7.52v-18.33h-3.34v7.46h-5.78v-7.46h-3.34v18.33h3.34v-7.68h5.78v7.68h3.34Zm16.65-15.14v-3.19h-12.26v3.19h4.46v15.14h3.34v-15.14h4.46Zm27.78,2.34a9.294,9.294,0,0,0-1.86-2.96,8.733,8.733,0,0,0-2.76-2,8.213,8.213,0,0,0-6.77,0,8.964,8.964,0,0,0-2.76,2,9.762,9.762,0,0,0,0,13.18,8.964,8.964,0,0,0,2.76,2,8.213,8.213,0,0,0,6.77,0,8.733,8.733,0,0,0,2.76-2,9.294,9.294,0,0,0,1.86-2.96A9.893,9.893,0,0,0,1094.26,1176.77Zm-1.91,6.5a6.859,6.859,0,0,1-1.39,2.29,6.362,6.362,0,0,1-2.1,1.52,6.444,6.444,0,0,1-5.21,0,6.575,6.575,0,0,1-2.1-1.52,7.048,7.048,0,0,1-1.4-2.29,8.18,8.18,0,0,1,0-5.74,7.155,7.155,0,0,1,1.4-2.29,6.575,6.575,0,0,1,2.1-1.52,6.444,6.444,0,0,1,5.21,0,6.362,6.362,0,0,1,2.1,1.52,6.96,6.96,0,0,1,1.39,2.29A8.33,8.33,0,0,1,1092.35,1183.27Zm-4.1-.6a3.852,3.852,0,0,1-.88.63,2.1,2.1,0,0,1-.94.19,1.906,1.906,0,0,1-1.71-.84,4.877,4.877,0,0,1,0-4.5,1.906,1.906,0,0,1,1.71-.84,2.249,2.249,0,0,1,.94.19,3.852,3.852,0,0,1,.88.63l1.34-1.44a6.047,6.047,0,0,0-1.42-1,3.916,3.916,0,0,0-1.74-.36,4.33,4.33,0,0,0-1.7.33,3.947,3.947,0,0,0-1.35.97,4.436,4.436,0,0,0-.91,1.58,6.456,6.456,0,0,0-.34,2.19,6.357,6.357,0,0,0,.34,2.18,4.617,4.617,0,0,0,.91,1.58,3.561,3.561,0,0,0,1.35.96,4.33,4.33,0,0,0,1.7.33,4.139,4.139,0,0,0,1.75-.35,5.173,5.173,0,0,0,1.41-.99Zm-153.622,49.8v-3.01h-6.6l4.776-5.94c0.288-.37.548-0.7,0.78-1.02a5.752,5.752,0,0,0,.576-0.97,4.9,4.9,0,0,0,.348-1.01,5.477,5.477,0,0,0,.12-1.2,6.152,6.152,0,0,0-.384-2.23,4.624,4.624,0,0,0-2.712-2.73,6.052,6.052,0,0,0-4.14-.01,4.655,4.655,0,0,0-1.656,1.06,4.8,4.8,0,0,0-1.1,1.68,6.018,6.018,0,0,0-.4,2.25h3.12a3.094,3.094,0,0,1,.18-1.12,1.9,1.9,0,0,1,.48-0.72,1.686,1.686,0,0,1,.672-0.38,2.448,2.448,0,0,1,.756-0.12,1.891,1.891,0,0,1,1.536.63,2.511,2.511,0,0,1,.528,1.66,2.973,2.973,0,0,1-.2,1.14,4.812,4.812,0,0,1-.684,1.08l-6.384,7.95v3.01h10.392Zm14.136-13.02a6.053,6.053,0,0,0-.42-2.33,5.02,5.02,0,0,0-1.128-1.71,4.655,4.655,0,0,0-1.656-1.06,5.658,5.658,0,0,0-3.972,0,4.8,4.8,0,0,0-1.656,1.06,4.932,4.932,0,0,0-1.14,1.71,6.053,6.053,0,0,0-.42,2.33v7.72a6.053,6.053,0,0,0,.42,2.33,4.932,4.932,0,0,0,1.14,1.71,4.8,4.8,0,0,0,1.656,1.06,5.658,5.658,0,0,0,3.972,0,4.655,4.655,0,0,0,1.656-1.06,5.02,5.02,0,0,0,1.128-1.71,6.053,6.053,0,0,0,.42-2.33v-7.72Zm-3.12,7.7a2.653,2.653,0,0,1-.576,1.81,1.884,1.884,0,0,1-1.488.66,1.92,1.92,0,0,1-1.5-.66,2.618,2.618,0,0,1-.588-1.81v-7.65a2.69,2.69,0,0,1,.588-1.83,1.928,1.928,0,0,1,1.5-.67,1.892,1.892,0,0,1,1.488.67,2.727,2.727,0,0,1,.576,1.83v7.65Zm17.448,5.32v-3.01h-6.6l4.776-5.94c0.288-.37.548-0.7,0.78-1.02a5.752,5.752,0,0,0,.576-0.97,4.9,4.9,0,0,0,.348-1.01,5.477,5.477,0,0,0,.12-1.2,6.152,6.152,0,0,0-.384-2.23,4.624,4.624,0,0,0-2.712-2.73,6.052,6.052,0,0,0-4.14-.01,4.655,4.655,0,0,0-1.656,1.06,4.8,4.8,0,0,0-1.1,1.68,6.018,6.018,0,0,0-.4,2.25h3.12a3.094,3.094,0,0,1,.18-1.12,1.9,1.9,0,0,1,.48-0.72,1.686,1.686,0,0,1,.672-0.38,2.448,2.448,0,0,1,.756-0.12,1.891,1.891,0,0,1,1.536.63,2.511,2.511,0,0,1,.528,1.66,2.973,2.973,0,0,1-.2,1.14,4.812,4.812,0,0,1-.684,1.08l-6.384,7.95v3.01h10.392Zm15.1-13.02a6.053,6.053,0,0,0-.42-2.33,5.02,5.02,0,0,0-1.128-1.71,4.655,4.655,0,0,0-1.656-1.06,5.658,5.658,0,0,0-3.972,0,4.8,4.8,0,0,0-1.656,1.06,4.932,4.932,0,0,0-1.14,1.71,6.053,6.053,0,0,0-.42,2.33v7.72a6.053,6.053,0,0,0,.42,2.33,4.932,4.932,0,0,0,1.14,1.71,4.8,4.8,0,0,0,1.656,1.06,5.658,5.658,0,0,0,3.972,0,4.655,4.655,0,0,0,1.656-1.06,5.02,5.02,0,0,0,1.128-1.71,6.053,6.053,0,0,0,.42-2.33v-7.72Zm-3.12,7.7a2.653,2.653,0,0,1-.576,1.81,1.884,1.884,0,0,1-1.488.66,1.92,1.92,0,0,1-1.5-.66,2.618,2.618,0,0,1-.588-1.81v-7.65a2.69,2.69,0,0,1,.588-1.83,1.928,1.928,0,0,1,1.5-.67,1.892,1.892,0,0,1,1.488.67,2.727,2.727,0,0,1,.576,1.83v7.65Zm27.862-6.05a11.841,11.841,0,0,0-.18-1.94,6.973,6.973,0,0,0-.5-1.68,5.226,5.226,0,0,0-1-1.48,6.659,6.659,0,0,0-2.026-1.5,6.149,6.149,0,0,0-2.58-.51,6.232,6.232,0,0,0-2.592.51,6.6,6.6,0,0,0-2.04,1.5,5.21,5.21,0,0,0-1,1.48,6.7,6.7,0,0,0-.492,1.68,14.6,14.6,0,0,0-.168,1.94c-0.016.68-.024,1.42-0.024,2.21s0.008,1.53.024,2.21a14.3,14.3,0,0,0,.168,1.93,6.658,6.658,0,0,0,.492,1.69,5.353,5.353,0,0,0,1,1.48,6.405,6.405,0,0,0,2.04,1.49,6.078,6.078,0,0,0,2.592.52,6,6,0,0,0,2.58-.52,6.464,6.464,0,0,0,2.026-1.49,5.37,5.37,0,0,0,1-1.48,6.919,6.919,0,0,0,.5-1.69,11.614,11.614,0,0,0,.18-1.93c0.02-.68.03-1.42,0.03-2.21S1002.95,1221.78,1002.93,1221.1Zm-3.346,4.38a11.5,11.5,0,0,1-.132,1.43,3.469,3.469,0,0,1-.264.92,3.039,3.039,0,0,1-.408.63,2.755,2.755,0,0,1-.9.71,2.727,2.727,0,0,1-1.236.27,2.8,2.8,0,0,1-1.248-.27,2.745,2.745,0,0,1-1.308-1.34,3.85,3.85,0,0,1-.252-0.92,11.5,11.5,0,0,1-.132-1.43c-0.024-.57-0.036-1.3-0.036-2.17s0.012-1.6.036-2.18a11.509,11.509,0,0,1,.132-1.42,3.85,3.85,0,0,1,.252-0.92,2.745,2.745,0,0,1,1.308-1.34,2.8,2.8,0,0,1,1.248-.27,2.727,2.727,0,0,1,1.236.27,2.755,2.755,0,0,1,.9.71,3.039,3.039,0,0,1,.408.63,3.469,3.469,0,0,1,.264.92,11.509,11.509,0,0,1,.132,1.42c0.024,0.58.036,1.3,0.036,2.18S999.608,1224.91,999.584,1225.48Zm19.526-4.38a14.541,14.541,0,0,0-.18-1.94,6.986,6.986,0,0,0-.51-1.68,5.187,5.187,0,0,0-.99-1.48,6.723,6.723,0,0,0-2.03-1.5,6.123,6.123,0,0,0-2.58-.51,6.2,6.2,0,0,0-2.59.51,6.642,6.642,0,0,0-2.04,1.5,5.226,5.226,0,0,0-1,1.48,6.961,6.961,0,0,0-.49,1.68,14.589,14.589,0,0,0-.17,1.94c-0.01.68-.02,1.42-0.02,2.21s0.01,1.53.02,2.21a14.288,14.288,0,0,0,.17,1.93,6.909,6.909,0,0,0,.49,1.69,5.37,5.37,0,0,0,1,1.48,6.45,6.45,0,0,0,2.04,1.49,6.05,6.05,0,0,0,2.59.52,5.973,5.973,0,0,0,2.58-.52,6.525,6.525,0,0,0,2.03-1.49,5.329,5.329,0,0,0,.99-1.48,6.929,6.929,0,0,0,.51-1.69,14.232,14.232,0,0,0,.18-1.93c0.01-.68.02-1.42,0.02-2.21S1019.12,1221.78,1019.11,1221.1Zm-3.35,4.38a11.555,11.555,0,0,1-.13,1.43,3.379,3.379,0,0,1-.27.92,2.928,2.928,0,0,1-.4.63,2.686,2.686,0,0,1-2.14.98,2.831,2.831,0,0,1-1.25-.27,2.694,2.694,0,0,1-.91-0.71,2.928,2.928,0,0,1-.4-0.63,4.4,4.4,0,0,1-.25-0.92,11.555,11.555,0,0,1-.13-1.43c-0.02-.57-0.04-1.3-0.04-2.17s0.02-1.6.04-2.18a11.56,11.56,0,0,1,.13-1.42,4.4,4.4,0,0,1,.25-0.92,2.928,2.928,0,0,1,.4-0.63,2.694,2.694,0,0,1,.91-0.71,2.831,2.831,0,0,1,1.25-.27,2.686,2.686,0,0,1,2.14.98,2.928,2.928,0,0,1,.4.63,3.379,3.379,0,0,1,.27.92,11.56,11.56,0,0,1,.13,1.42c0.02,0.58.04,1.3,0.04,2.18S1015.78,1224.91,1015.76,1225.48Zm21.32,6.99-6.07-11.04,5.67-7.29h-4.06l-6.02,7.99v-7.99h-3.34v18.33h3.34v-5.5l2.2-2.84,4.4,8.34h3.88Zm6.2,0v-18.33h-3.34v18.33h3.34Zm17.78,0v-18.33h-3.34v11.23l-6.76-11.23h-2.98v18.33h3.34v-11.25l6.76,11.25h2.98Zm17.9,0-6.24-18.33h-2.61l-6.22,18.33h3.48l1.03-3.24h6.08l1,3.24h3.48Zm-5.37-6.25h-4.25l2.16-6.67Zm27.36-12.08h-3.48l-2.67,11.56-3.12-11.56h-2.49l-3.12,11.56-2.64-11.56h-3.48l4.56,18.33h2.78l3.15-11.12,3.14,11.12h2.78Zm16.05,18.33-6.24-18.33h-2.61l-6.22,18.33h3.48l1.03-3.24h6.08l1,3.24H1117Zm-5.37-6.25h-4.25l2.16-6.67Zm33.98,6.25-6.24-18.33h-2.62l-6.21,18.33h3.48l1.03-3.24h6.07l1.01,3.24h3.48Zm-5.38-6.25h-4.24l2.16-6.67Zm19.3,6.25v-3.19h-7.75v-15.14h-3.34v18.33h11.09Zm14.52,0v-3.19h-7.75v-15.14h-3.34v18.33h11.09Zm21.17,0-3.82-7.9a4.377,4.377,0,0,0,1.19-.66,4.456,4.456,0,0,0,1-1.03,5.313,5.313,0,0,0,.68-1.37,5.6,5.6,0,0,0,.25-1.75,6.239,6.239,0,0,0-.37-2.18,5.15,5.15,0,0,0-1.09-1.78,5.636,5.636,0,0,0-1.75-1.21,5.8,5.8,0,0,0-2.33-.45h-6.7v18.33h3.34v-7.31h2.4l3.33,7.31h3.87Zm-4.69-10.96a2.4,2.4,0,0,1-1.77.67h-3.14v-4.84h3.14a2.286,2.286,0,0,1,2.43,2.42A2.392,2.392,0,0,1,1190.53,1221.51Zm11.5,10.96v-18.33h-3.33v18.33h3.33Zm16.9-7.51v-2.68h-6.48v2.99h3.14v0.69a3.794,3.794,0,0,1-.76,2.45,3.022,3.022,0,0,1-2.38,1.03,2.552,2.552,0,0,1-2.14-.96,3.006,3.006,0,0,1-.42-0.65,3.845,3.845,0,0,1-.24-0.9q-0.075-.555-0.12-1.41c-0.02-.56-0.03-1.3-0.03-2.21s0.01-1.65.03-2.21a11.127,11.127,0,0,1,.14-1.41,3.071,3.071,0,0,1,.64-1.53,2.617,2.617,0,0,1,2.14-.98c1.63,0,2.66.89,3.07,2.68h3.39a8.57,8.57,0,0,0-.65-2.25,6.171,6.171,0,0,0-1.29-1.88,5.927,5.927,0,0,0-1.92-1.28,6.726,6.726,0,0,0-2.59-.46,6.069,6.069,0,0,0-4.62,2.01,5.433,5.433,0,0,0-1.39,2.75,36,36,0,0,0,0,9.12,5.433,5.433,0,0,0,1.39,2.75,6.069,6.069,0,0,0,4.62,2.01,6.773,6.773,0,0,0,2.63-.5,6.459,6.459,0,0,0,2.2-1.59,5.814,5.814,0,0,0,1.27-2.29,12.028,12.028,0,0,0,.37-3.29h0Zm16.27,7.51v-18.33h-3.33v7.47h-5.79v-7.47h-3.33v18.33h3.33v-7.67h5.79v7.67h3.33Zm15.7-15.13v-3.2h-12.27v3.2h4.47v15.13h3.33v-15.13h4.47Zm14.16,7.51a4.124,4.124,0,0,0-1.01-1.67,4.574,4.574,0,0,0-1.32-.89,8.014,8.014,0,0,0-1.94-.53l-2.02-.3a3.7,3.7,0,0,1-.92-0.27,2.21,2.21,0,0,1-.66-0.46,1.671,1.671,0,0,1-.39-0.61,2.1,2.1,0,0,1-.12-0.7,2.29,2.29,0,0,1,.65-1.63,2.612,2.612,0,0,1,1.99-.69,8.079,8.079,0,0,1,1.77.22,3.745,3.745,0,0,1,1.74,1.05l2.11-2.24a6.454,6.454,0,0,0-2.43-1.65,8.79,8.79,0,0,0-3.09-.49,7.242,7.242,0,0,0-2.5.41,5.513,5.513,0,0,0-1.87,1.15,5.056,5.056,0,0,0-1.18,1.75,6.045,6.045,0,0,0-.4,2.25,5.035,5.035,0,0,0,1.22,3.6,5.576,5.576,0,0,0,3.31,1.52l2.07,0.31a3.926,3.926,0,0,1,.92.25,1.927,1.927,0,0,1,.59.4,2.116,2.116,0,0,1,.53,1.54,2,2,0,0,1-.77,1.69,3.764,3.764,0,0,1-2.26.58,7.164,7.164,0,0,1-2.25-.34,4.262,4.262,0,0,1-1.88-1.21l-2.16,2.32a6.772,6.772,0,0,0,2.78,1.89,10.565,10.565,0,0,0,3.46.53,8.344,8.344,0,0,0,2.5-.37,5.771,5.771,0,0,0,2-1.09,5.1,5.1,0,0,0,1.35-1.73,5.428,5.428,0,0,0,.49-2.37A7.263,7.263,0,0,0,1265.06,1224.85Zm23.4,7.62-3.82-7.9a4.685,4.685,0,0,0,2.18-1.69,5.034,5.034,0,0,0,.69-1.37,5.6,5.6,0,0,0,.25-1.75,6.239,6.239,0,0,0-.37-2.18,5.15,5.15,0,0,0-1.09-1.78,5.567,5.567,0,0,0-1.76-1.21,5.716,5.716,0,0,0-2.32-.45h-6.7v18.33h3.34v-7.31h2.4l3.33,7.31h3.87Zm-4.7-10.96a2.374,2.374,0,0,1-1.76.67h-3.14v-4.84H1282a2.336,2.336,0,0,1,1.76.67A2.65,2.65,0,0,1,1283.76,1221.51Zm19.43,10.96v-3.19h-7.92v-4.45h6.75v-3.19h-6.75v-4.3h7.92v-3.2h-11.25v18.33h11.25Zm16.15-7.62a4,4,0,0,0-1-1.67,4.574,4.574,0,0,0-1.32-.89,8.105,8.105,0,0,0-1.95-.53l-2.01-.3a3.784,3.784,0,0,1-.93-0.27,2.5,2.5,0,0,1-.66-0.46,1.783,1.783,0,0,1-.38-0.61,2.1,2.1,0,0,1-.12-0.7,2.248,2.248,0,0,1,.65-1.63,2.6,2.6,0,0,1,1.99-.69,7.92,7.92,0,0,1,1.76.22,3.65,3.65,0,0,1,1.74,1.05l2.11-2.24a6.346,6.346,0,0,0-2.42-1.65,8.809,8.809,0,0,0-3.1-.49,7.183,7.183,0,0,0-2.49.41,5.418,5.418,0,0,0-1.87,1.15,4.8,4.8,0,0,0-1.18,1.75,6.047,6.047,0,0,0-.41,2.25,5.039,5.039,0,0,0,1.23,3.6,5.547,5.547,0,0,0,3.31,1.52l2.06,0.31a4.03,4.03,0,0,1,.93.25,1.885,1.885,0,0,1,.58.4,2.074,2.074,0,0,1,.53,1.54,1.972,1.972,0,0,1-.77,1.69,3.731,3.731,0,0,1-2.25.58,7.272,7.272,0,0,1-2.26-.34,4.232,4.232,0,0,1-1.87-1.21l-2.16,2.32a6.742,6.742,0,0,0,2.77,1.89,10.627,10.627,0,0,0,3.47.53,8.344,8.344,0,0,0,2.5-.37,5.958,5.958,0,0,0,2-1.09,4.954,4.954,0,0,0,1.34-1.73,5.43,5.43,0,0,0,.5-2.37A7.253,7.253,0,0,0,1319.34,1224.85Zm15.44,7.62v-3.19h-7.92v-4.45h6.74v-3.19h-6.74v-4.3h7.92v-3.2h-11.26v18.33h11.26Zm16.92,0-3.82-7.9a4.685,4.685,0,0,0,2.18-1.69,5.034,5.034,0,0,0,.69-1.37,5.6,5.6,0,0,0,.25-1.75,6.239,6.239,0,0,0-.37-2.18,5.15,5.15,0,0,0-1.09-1.78,5.567,5.567,0,0,0-1.76-1.21,5.716,5.716,0,0,0-2.32-.45h-6.7v18.33h3.34v-7.31h2.4l3.33,7.31h3.87Zm-4.7-10.96a2.374,2.374,0,0,1-1.76.67h-3.14v-4.84h3.14a2.336,2.336,0,0,1,1.76.67A2.65,2.65,0,0,1,1347,1221.51Zm21.02-7.37h-3.48l-3.44,11.95-3.43-11.95h-3.45l5.64,18.33h2.49Zm14.52,18.33v-3.19h-7.92v-4.45h6.74v-3.19h-6.74v-4.3h7.92v-3.2h-11.26v18.33h11.26Zm16.39-11.26a12.042,12.042,0,0,0-.15-1.92,7.169,7.169,0,0,0-.5-1.77,5.633,5.633,0,0,0-1.08-1.63,5.073,5.073,0,0,0-2-1.32,7.392,7.392,0,0,0-2.51-.43h-6.17v18.33h6.17a7.388,7.388,0,0,0,2.51-.42,4.99,4.99,0,0,0,2-1.33,5.42,5.42,0,0,0,1.08-1.64,7.757,7.757,0,0,0,.5-1.83,12.681,12.681,0,0,0,.15-1.97v-4.07Zm-3.47,5.21a3.564,3.564,0,0,1-.59,1.73,2.785,2.785,0,0,1-1.03.85,3.4,3.4,0,0,1-1.46.28h-2.52v-11.94h2.52a3.4,3.4,0,0,1,1.46.28,2.785,2.785,0,0,1,1.03.85,2.925,2.925,0,0,1,.39.69,4.952,4.952,0,0,1,.21.96c0.05,0.37.08,0.82,0.1,1.32s0.02,1.11.02,1.79A28.422,28.422,0,0,1,1395.46,1226.42Zm10.81,6.05v-3.81h-3.57v3.81h3.57Z" transform="translate(-924.25 -1171.09)"/>
</svg>
