<svg xmlns="http://www.w3.org/2000/svg" width="228.655" height="46.625" viewBox="0 0 228.655 46.625">
  <defs>
    <style>
      .cls-1 {
        fill-rule: evenodd;
      }
    </style>
  </defs>
  <path id="OUTPUT" class="cls-1" d="M958.617,665.776a32.806,32.806,0,0,0-.45-4.827,17.993,17.993,0,0,0-1.26-4.216,13.4,13.4,0,0,0-2.49-3.7,16.224,16.224,0,0,0-5.07-3.733,15.252,15.252,0,0,0-6.45-1.287,15.454,15.454,0,0,0-6.48,1.287,16.09,16.09,0,0,0-5.1,3.733,13.38,13.38,0,0,0-2.49,3.7,16.966,16.966,0,0,0-1.23,4.216,35.775,35.775,0,0,0-.42,4.827q-0.06,2.576-.06,5.535t0.06,5.536a35.775,35.775,0,0,0,.42,4.827,16.966,16.966,0,0,0,1.23,4.216,13.365,13.365,0,0,0,2.49,3.7,16.059,16.059,0,0,0,5.1,3.733,15.439,15.439,0,0,0,6.48,1.287,15.237,15.237,0,0,0,6.45-1.287,16.193,16.193,0,0,0,5.07-3.733,13.387,13.387,0,0,0,2.49-3.7,17.993,17.993,0,0,0,1.26-4.216,32.806,32.806,0,0,0,.45-4.827q0.058-2.574.06-5.536T958.617,665.776Zm-8.37,10.974a29.486,29.486,0,0,1-.33,3.572,8.687,8.687,0,0,1-.66,2.285,7.469,7.469,0,0,1-1.02,1.577,6.735,6.735,0,0,1-5.34,2.446,6.992,6.992,0,0,1-3.12-.676,6.719,6.719,0,0,1-2.28-1.77,6.619,6.619,0,0,1-.99-1.577,9.509,9.509,0,0,1-.63-2.285,29.284,29.284,0,0,1-.33-3.572q-0.09-2.156-.09-5.439t0.09-5.438a29.363,29.363,0,0,1,.33-3.573,9.527,9.527,0,0,1,.63-2.284,6.6,6.6,0,0,1,.99-1.577,6.731,6.731,0,0,1,2.28-1.77,6.992,6.992,0,0,1,3.12-.676,6.735,6.735,0,0,1,5.34,2.446,7.444,7.444,0,0,1,1.02,1.577,8.7,8.7,0,0,1,.66,2.284,29.565,29.565,0,0,1,.33,3.573q0.09,2.157.09,5.438T950.247,676.75Zm49.59,1.77V648.4H991.5v29.8a8.923,8.923,0,0,1-2.01,6.211,6.96,6.96,0,0,1-5.43,2.221,6.866,6.866,0,0,1-5.4-2.221,9.01,9.01,0,0,1-1.98-6.211V648.4h-8.34V678.52a17.114,17.114,0,0,0,1.232,6.63,14.92,14.92,0,0,0,8.356,8.3,16.957,16.957,0,0,0,12.323,0,14.92,14.92,0,0,0,8.356-8.3,17.114,17.114,0,0,0,1.233-6.63h0Zm38.523-22.141V648.4H1007.7v7.981h11.16v37.846h8.34V656.379h11.16Zm38.28,0.8a13.433,13.433,0,0,0-2.79-4.57,13.071,13.071,0,0,0-4.44-3.09,14.8,14.8,0,0,0-5.91-1.126h-16.56v45.827h8.34v-17.25h8.22a14.778,14.778,0,0,0,5.91-1.126,13.041,13.041,0,0,0,4.44-3.089,13.433,13.433,0,0,0,2.79-4.57A16.252,16.252,0,0,0,1076.64,657.184Zm-9.03,10.1a5.994,5.994,0,0,1-4.53,1.713h-7.8V656.379h7.8a5.93,5.93,0,0,1,4.53,1.747,6.415,6.415,0,0,1,1.65,4.593A6.3,6.3,0,0,1,1067.61,667.281Zm49.65,11.239V648.4h-8.34v29.8a8.923,8.923,0,0,1-2.01,6.211,6.959,6.959,0,0,1-5.43,2.221,6.866,6.866,0,0,1-5.4-2.221,9.01,9.01,0,0,1-1.98-6.211V648.4h-8.34V678.52a17.132,17.132,0,0,0,1.23,6.63,15.1,15.1,0,0,0,3.36,5.052,15.329,15.329,0,0,0,4.99,3.25,16.976,16.976,0,0,0,12.33,0,15.329,15.329,0,0,0,4.99-3.25,15.1,15.1,0,0,0,3.36-5.052,17.133,17.133,0,0,0,1.24-6.63h0Zm38.52-22.141V648.4h-30.66v7.981h11.16v37.846h8.34V656.379h11.16Z" transform="translate(-927.125 -648)"/>
</svg>
