<svg xmlns="http://www.w3.org/2000/svg" width="350.035" height="46.625" viewBox="0 0 350.035 46.625">
  <defs>
    <style>
      .cls-1 {
        fill-rule: evenodd;
      }
    </style>
  </defs>
  <path id="CHARACTER" class="cls-1" d="M958.557,540.129H950.1a9.538,9.538,0,0,1-2.4,4.731,7.275,7.275,0,0,1-10.14-.612,7.551,7.551,0,0,1-1.08-1.641,7.983,7.983,0,0,1-.63-2.253,33.463,33.463,0,0,1-.3-3.54q-0.09-2.155-.09-5.5t0.09-5.5a33.56,33.56,0,0,1,.3-3.54,8,8,0,0,1,.63-2.252,7.557,7.557,0,0,1,1.08-1.642,7.276,7.276,0,0,1,10.14-.611,9.542,9.542,0,0,1,2.4,4.731h8.46q-1.08-7.016-5.31-10.749a16.024,16.024,0,0,0-21.93,1.287,13.479,13.479,0,0,0-3.48,6.887,90.491,90.491,0,0,0,0,22.785,13.479,13.479,0,0,0,3.48,6.887,15.13,15.13,0,0,0,11.52,5.02,16.466,16.466,0,0,0,5.7-.966,14.23,14.23,0,0,0,4.68-2.8,15.535,15.535,0,0,0,3.42-4.538,20.4,20.4,0,0,0,1.92-6.179h0Zm40.14,14.1V508.4h-8.34v18.665H975.9V508.4h-8.34v45.827h8.34V535.044h14.46v19.181h8.34Zm44.763,0-15.6-45.827h-6.54l-15.54,45.827h8.7l2.58-8.11h15.18l2.52,8.11h8.7Zm-13.44-15.641H1019.4l5.4-16.67Zm52.86,15.641-9.54-19.76a11.77,11.77,0,0,0,5.46-4.216,12.594,12.594,0,0,0,1.71-3.443,14.082,14.082,0,0,0,.63-4.377,15.7,15.7,0,0,0-.93-5.438,12.75,12.75,0,0,0-2.73-4.442,13.291,13.291,0,0,0-4.38-3.025,14.421,14.421,0,0,0-5.82-1.126h-16.74v45.827h8.34V535.946h6l8.34,18.279h9.66Zm-11.73-27.419a5.912,5.912,0,0,1-4.41,1.673h-7.86v-12.1h7.86A6.211,6.211,0,0,1,1071.15,526.806Zm53.43,27.419-15.6-45.827h-6.54l-15.54,45.827h8.7l2.58-8.11h15.18l2.52,8.11h8.7Zm-13.44-15.641h-10.62l5.4-16.67Zm50.51,1.545h-8.46a9.53,9.53,0,0,1-2.4,4.731,7.275,7.275,0,0,1-10.14-.612,7.625,7.625,0,0,1-1.08-1.641,7.983,7.983,0,0,1-.63-2.253,33.733,33.733,0,0,1-.3-3.54q-0.09-2.155-.09-5.5t0.09-5.5a33.831,33.831,0,0,1,.3-3.54,8,8,0,0,1,.63-2.252,7.631,7.631,0,0,1,1.08-1.642,7.276,7.276,0,0,1,10.14-.611,9.534,9.534,0,0,1,2.4,4.731h8.46q-1.08-7.016-5.31-10.749a16.024,16.024,0,0,0-21.93,1.287,13.479,13.479,0,0,0-3.48,6.887,90.491,90.491,0,0,0,0,22.785,13.479,13.479,0,0,0,3.48,6.887,15.13,15.13,0,0,0,11.52,5.02,16.462,16.462,0,0,0,5.7-.966,14.23,14.23,0,0,0,4.68-2.8,15.5,15.5,0,0,0,3.42-4.538,20.4,20.4,0,0,0,1.92-6.179h0Zm36.48-23.75V508.4h-30.66v7.981h11.16v37.846h8.34V516.379h11.16Zm36.72,37.846v-7.981h-19.8V535.109h16.86v-7.981h-16.86V516.379h19.8V508.4h-28.14v45.827h28.14Zm42.3,0-9.54-19.76a11.77,11.77,0,0,0,5.46-4.216,12.594,12.594,0,0,0,1.71-3.443,14.082,14.082,0,0,0,.63-4.377,15.7,15.7,0,0,0-.93-5.438,12.75,12.75,0,0,0-2.73-4.442,13.291,13.291,0,0,0-4.38-3.025,14.421,14.421,0,0,0-5.82-1.126h-16.74v45.827h8.34V535.946h6l8.34,18.279h9.66Zm-11.73-27.419a5.912,5.912,0,0,1-4.41,1.673h-7.86v-12.1h7.86A6.211,6.211,0,0,1,1265.42,526.806Z" transform="translate(-927.125 -508)"/>
</svg>
