<svg xmlns="http://www.w3.org/2000/svg" width="93" height="322.813" viewBox="0 0 93 322.813">
  <defs>
    <style>
      .cls-1 {
        fill-rule: evenodd;
      }
    </style>
  </defs>
  <path id="mv-copy-1.svg" class="cls-1" d="M2824.67,188.126c-1.12,0-1.43,1.024-1.94,2.253-3.69,8.6-10.45,21-16.19,28.269-0.41.513-1.63,1.947-1.63,2.561,0,1.229,4.71,4.712,5.83,5.633,0.62,0.513,2.56,2.254,3.38,2.254a1.407,1.407,0,0,0,1.33-1.537c0-.819-0.3-1.331-0.3-1.843a10.128,10.128,0,0,1,1.33-2.561c2.25-3.687,15.57-26.528,15.57-29.088C2832.05,191.813,2826.52,188.126,2824.67,188.126Zm-13.62-25.606c-1.64,0-5.84,5.326-5.84,6.76,0,1.024,1.23,1.639,2.05,2.253a126.426,126.426,0,0,1,12.09,8.911,3.151,3.151,0,0,0,1.84.922c2.05,0,6.04-5.223,6.04-6.555,0-1.536-4.5-4.609-5.83-5.633C2819.96,168.051,2812.28,162.52,2811.05,162.52Zm21.3-10.549c0-1.434-5.42-5.019-6.76-5.941-1.43-1.024-7.37-5.326-8.7-5.326-1.95,0-5.84,5.224-5.84,6.76,0,1.024,1.13,1.639,1.84,2.151a124.367,124.367,0,0,1,11.37,7.886,3.607,3.607,0,0,0,2.05,1.229C2827.95,158.73,2832.35,153.609,2832.35,151.971Zm39.64,35.95a2.937,2.937,0,0,1-2.87-2.868V170.612a2.869,2.869,0,0,1,2.87-2.868h7.89a2.869,2.869,0,0,1,2.87,2.868v14.441a2.937,2.937,0,0,1-2.87,2.868h-7.89Zm-13.11-2.868a2.923,2.923,0,0,1-2.87,2.868h-7.57c-1.85-.2-2.87-1.126-2.87-2.868V170.612a2.8,2.8,0,0,1,2.87-2.868h7.57a2.856,2.856,0,0,1,2.87,2.868v14.441Zm-2.87,12.189c2.05,0,2.87.819,2.87,2.868v11.778c0,5.224-.3,10.55-0.3,15.774,0,2.97,1.12,3.175,5.32,3.175,4.51,0,5.53-.1,5.53-3.175,0-5.224-.31-10.55-0.31-15.774V200.11c0-2.049.82-2.868,2.87-2.868h8.61c1.33,0,1.94.512,1.94,1.844,0.1,3.072.82,3.175,5.23,3.175,3.99,0,5.32,0,5.32-2.971,0-2.868-.2-5.735-0.2-8.5V170.612c0-2.663.1-5.224,0.1-7.887,0-3.79-1.84-4.814-5.33-4.814-2.86,0-5.73.1-8.6,0.1h-7.07c-2.05,0-2.87-.82-2.87-2.766V148.9c0-3.687.11-5.736,1.13-6.555,0.72-.615,1.23-0.82,1.23-1.537,0-1.331-1.64-1.331-2.56-1.434-2.15-.1-6.76-0.512-8.71-0.512-0.92,0-1.74.2-1.74,1.332,0,0.307.11,0.717,0.11,1.024a44.1,44.1,0,0,1,.3,7.375v6.657c0,1.946-.82,2.766-2.87,2.766h-6.76c-2.97,0-5.83-.1-8.7-0.1-3.48,0-5.33,1.024-5.33,4.814,0,2.663.21,5.224,0.21,7.887v20.177c0,2.766-.21,5.633-0.21,8.5,0,2.971,1.33,2.971,5.23,2.971,4.5,0,5.22-.1,5.32-3.175a1.6,1.6,0,0,1,1.85-1.844h8.39Zm-13.52,134.274c0-1.537-1.74-7.375-2.35-9.218-2.36-6.965-3.07-9.014-4.61-9.014-1.23,0-5.43,1.229-5.43,2.766a7.75,7.75,0,0,0,.41,1.434,102.565,102.565,0,0,1,4.3,14.544c0.31,1.434.51,2.458,2.36,2.458C2838.6,334.486,2842.49,333.359,2842.49,331.516Zm-33.08-18.027c-1.23,0-1.23,1.024-1.33,1.844a102.489,102.489,0,0,1-3.07,18.436c-0.21.922-1.23,4.712-1.23,5.326,0,1.844,5.12,2.766,5.84,2.766,1.33,0,1.74-.922,2.05-2.049,1.12-4.2,3.07-15.978,3.58-20.485,0.1-1.331.1-1.741,1.33-2.355a1.315,1.315,0,0,0,1.03-1.127c0-1.024-1.23-1.229-1.95-1.332C2814.64,314.309,2810.23,313.489,2809.41,313.489Zm51.21-.307a2.31,2.31,0,0,1,2.46,2.458v0.922a2.365,2.365,0,0,1-2.46,2.458h-4.91a2.365,2.365,0,0,1-2.46-2.458V315.64a2.31,2.31,0,0,1,2.46-2.458h4.91Zm11.78,2.458a2.315,2.315,0,0,1,2.46-2.458h5.22a2.234,2.234,0,0,1,2.36,2.458v0.922a2.286,2.286,0,0,1-2.36,2.458h-5.22a2.37,2.37,0,0,1-2.46-2.458V315.64Zm-9.32-10.959a2.284,2.284,0,0,1-2.46,2.355h-4.91a2.284,2.284,0,0,1-2.46-2.355v-0.82a2.365,2.365,0,0,1,2.46-2.458h4.91a2.365,2.365,0,0,1,2.46,2.458v0.82Zm11.78,2.355a2.289,2.289,0,0,1-2.46-2.355v-0.82a2.37,2.37,0,0,1,2.46-2.458h5.22a2.286,2.286,0,0,1,2.36,2.458v0.82a2.2,2.2,0,0,1-2.36,2.355h-5.22Zm-2.46-28.678a2.37,2.37,0,0,1,2.46-2.458h4a2.362,2.362,0,0,1,2.45,2.458v0.819a2.362,2.362,0,0,1-2.45,2.458h-4a2.37,2.37,0,0,1-2.46-2.458v-0.819Zm-11.78-2.458a2.365,2.365,0,0,1,2.46,2.458v0.819a2.365,2.365,0,0,1-2.46,2.458h-3.38a2.283,2.283,0,0,1-2.35-2.458v-0.819a2.283,2.283,0,0,1,2.35-2.458h3.38Zm14.24-5.839a2.37,2.37,0,0,1-2.46-2.458v-0.512a2.37,2.37,0,0,1,2.46-2.458h4a2.362,2.362,0,0,1,2.45,2.458V267.6a2.362,2.362,0,0,1-2.45,2.458h-4Zm-11.78-2.458a2.365,2.365,0,0,1-2.46,2.458h-3.38a2.283,2.283,0,0,1-2.35-2.458v-0.512a2.283,2.283,0,0,1,2.35-2.458h3.38a2.365,2.365,0,0,1,2.46,2.458V267.6Zm-2.46,20.69c1.74,0,2.46.717,2.46,2.356v1.126c0,1.639-.72,2.356-2.46,2.356h-12.8c-2.56,0-3.89.615-3.89,3.38,0,1.844.1,3.687,0.1,5.531V322.81c0,2.151-.1,4.2-0.1,6.35,0,2.253,1.13,2.151,4.61,2.151,4.4,0,4.71.1,4.81-2.561,0-2.253.82-2.56,4.3-2.56h2.56c1.95,0,2.87.819,2.87,2.765s-0.1,3.79-.1,5.633c0,6.965,3.07,9.936,10.04,9.936h11.16c3.48,0,7.99-.2,9.94-3.483a27.031,27.031,0,0,0,2.56-9.32c0-2.561-5.33-3.073-7.28-3.073-1.02,0-1.74.2-1.94,1.331-0.51,4-.62,5.941-5.33,5.941h-5.73c-3.69,0-4-.819-4-4.3v-2.56c0-1.946.82-2.868,2.87-2.868h3.89c3.38,0,5.94.1,7.89,0.1,3.58,0,5.02-.512,5.02-3.38,0-1.741-.1-3.585-0.1-5.326V303.042c0-1.844.1-3.687,0.1-5.531,0-2.97-1.54-3.482-5.33-3.482-1.94,0-4.4.1-7.58,0.1h-4.3c-1.74,0-2.46-.717-2.46-2.356v-1.126c0-1.639.72-2.356,2.46-2.356h5.74a1.9,1.9,0,0,1,1.23.512c1.02,0.717,2.56.615,3.79,0.615,2.97,0,4.81.2,4.81-2.664,0-1.843-.1-3.584-0.1-5.428V267.6c0-1.946.1-3.585,0.1-5.121,0-2.868-.51-4.609-3.48-4.609-2.36,0-4.82.2-7.17,0.2h-23.77c-2.56,0-4.6-.2-6.14-0.2-2.97,0-4.41.614-4.41,3.687,0,2.049.11,4,.11,6.043v13.725c0,1.844-.21,3.585-0.21,5.428,0,2.868,1.95,2.664,4.92,2.664,1.23,0,2.87.1,3.99-.615a2.641,2.641,0,0,1,1.23-.512h5.12Zm-50.7-16.593a4.481,4.481,0,0,0-1.84-.922c-1.84,0-4.4,5.429-4.4,6.965a2.427,2.427,0,0,0,1.23,1.946c2.97,2.254,7.57,6.043,10.34,8.706a3.348,3.348,0,0,1,1.23,2.254,3.551,3.551,0,0,1-.62,1.741c-0.92,1.639-1.84,3.277-2.86,4.814-1.13,1.741-1.74,2.048-3.9,2.355-0.41,0-.92.1-1.43,0.1-1.74,0-3.28-.1-3.28,1.127,0,0.512,1.33,7.067,1.54,8.091,0.2,0.819.72,2.356,1.54,2.356a1.577,1.577,0,0,0,1.43-1.024,1.444,1.444,0,0,1,1.43-.922c1.95-.205,3.79-0.41,5.74-0.717h0.51c1.64,0,2.25,1.126,2.25,2.56v17.822c0,4.609-.2,9.218-0.2,13.827,0,3.38.82,3.483,4.71,3.483,3.79,0,4.61-.1,4.61-3.483,0-4.609-.2-9.218-0.2-13.827V309.9c0-1.946.61-2.765,2.56-3.175l1.02-.2h0.61a2.321,2.321,0,0,1,2.36,1.844,1.758,1.758,0,0,0,2.05,1.434c0.41,0,5.84-.307,5.84-2.766,0-1.126-1.85-7.477-2.36-8.91-2.97-9.014-3.28-9.628-5.12-9.628-1.43,0-5.43.819-5.43,2.56a18.819,18.819,0,0,0,1.23,3.892,3.081,3.081,0,0,1,.21.922,2.042,2.042,0,0,1-1.95,2.049c-1.54.1-2.97,0.307-4.4,0.409-0.82,0-1.54-.307-1.54-1.126a1.4,1.4,0,0,1,.31-0.922c4.5-6.965,8.91-14.032,13-21.407a2.632,2.632,0,0,1,2.05-1.126c1.23-.205,1.64-0.512,1.64-1.332,0-1.024-1.64-1.741-3.07-2.458-1.13-.512-5.22-2.356-6.15-2.356-1.12,0-1.53,1.024-2.05,2.458-1.74,3.278-3.58,6.453-5.32,9.731a2.16,2.16,0,0,1-1.84,1.126,2.377,2.377,0,0,1-1.54-.717,6.058,6.058,0,0,1-.92-0.819,2.293,2.293,0,0,1-.82-1.536,2.155,2.155,0,0,1,.41-1.229c2.35-3.79,6.04-11.062,7.99-15.159a1.587,1.587,0,0,1,1.43-.922c0.72-.2,1.84-0.2,1.84-1.229,0-1.741-8.5-4.712-9.01-4.712-0.92,0-1.23.82-1.54,1.844-1.22,3.482-4.71,11.062-6.45,14.544a1.894,1.894,0,0,1-1.53,1.229A1.96,1.96,0,0,1,2809.92,271.7Zm36.36,103.036c-1.02,0-1.22,1.024-1.43,2.151-0.72,2.97-3.79,10.959-5.53,13.213-0.92,1.229-3.69,1.331-6.35,1.331H2830c-2.97,0-5.63-.2-7.38-0.2-2.56,0-2.97.615-2.97,4.712,0,5.224.41,5.736,2.67,5.736,3.17,0,5.53-.308,7.17-0.308,1.43,0,2.25.308,2.25,1.229,0,1.947-14.85,22.534-17.21,25.094-0.51.615-1.33,1.434-1.33,2.254,0,1.843,6.86,5.94,8.71,5.94a1.71,1.71,0,0,0,1.43-1.024c2.15-3.687,5.63-9.013,8.6-11.984,4-4.1,13.42-9.013,19.16-9.013a4.256,4.256,0,0,1,4.5,3.483,13.722,13.722,0,0,1,.52,2.867c0,1.229-.82,1.844-1.85,2.356-2.15,1.024-4.3,2.151-6.35,3.38-7.06,4.2-14.54,9.218-14.54,18.436,0,6.965,3.99,11.882,10.24,14.647,5.43,2.356,10.35,2.663,16.18,2.663,4.41,0,15.78-.41,19.67-1.331,2.25-.513,2.36-1.332,2.36-4.4,0-5.838-.72-6.965-2.05-6.965a12.588,12.588,0,0,0-2.05.2,74.9,74.9,0,0,1-19.05,2.561c-4.92,0-14.85-.615-14.85-7.477,0-6.35,10.55-10.857,11.06-10.857,1.02,0,1.33.819,1.33,1.741,0,2.151-.21,4.4-0.21,6.658,0,2.663,1.85,2.868,6.25,2.868,3.89,0,4.41-.41,4.41-4.1,0-3.175-.11-6.248-0.11-9.423V429.84c0-2.048.82-2.663,2.67-3.38,3.99-1.741,7.99-3.482,12.08-5.019,0.52-.2,1.03-0.307,1.44-0.512,1.94-.614,3.07-1.024,3.07-2.253,0-1.741-2.46-9.628-4.4-9.628a8.514,8.514,0,0,0-2.67,1.024c-1.64.922-10.75,5.839-11.98,5.839-1.03,0-1.33-.82-1.54-1.742-1.33-6.452-5.12-9.218-11.67-9.218a28.36,28.36,0,0,0-11.17,2.663,3.935,3.935,0,0,1-1.84.615,0.792,0.792,0,0,1-.82-0.717c0-.717,2.87-5.121,3.48-5.941a3.626,3.626,0,0,1,3.07-1.639c6.46-.717,12.91-1.843,19.36-3.175,2.15-.409,5.43-0.819,5.43-2.56a32.448,32.448,0,0,0-.82-5.531c-0.31-1.434-.82-3.073-2.56-3.073a7.768,7.768,0,0,0-2.56.615c-2.15.717-9.83,2.868-11.88,2.868a1,1,0,0,1-1.13-1.025,6.839,6.839,0,0,1,1.03-2.355c1.33-2.356,1.74-2.868,3.38-3.483a1.67,1.67,0,0,0,1.23-1.229C2857.76,379.448,2847.21,374.736,2846.28,374.736Z" transform="translate(-2803.69 -138.875)"/>
</svg>
