<svg xmlns="http://www.w3.org/2000/svg" width="90.87" height="543.032" viewBox="0 0 90.87 543.032">
  <defs>
    <style>
      .cls-1 {
        fill-rule: evenodd;
      }
    </style>
  </defs>
  <path id="mv-copy-2.svg" class="cls-1" d="M2707.47,186.591c3.89,0,7.78.2,11.78,0.2,1.84,0,1.84-.922,1.84-3.585,0-2.56,0-3.687-1.84-3.687-3.89,0-7.89.205-11.78,0.205h-57.36c-3.89,0-7.78-.205-11.78-0.205-1.94,0-1.84,1.229-1.84,3.585,0,2.458-.1,3.687,1.84,3.687,4,0,7.89-.2,11.78-0.2h57.36Zm-22.33,24.172c1.03,0.1,1.95.513,1.95,1.639a3.074,3.074,0,0,1-.21.922,45.331,45.331,0,0,1-2.15,4.609c-1.02,1.946-1.94,2.356-4.1,2.356h-6.04c-1.02,0-1.33-.717-1.74-1.639a52.731,52.731,0,0,0-2.46-5.428,1.555,1.555,0,0,1-.2-0.922c0-1.127.82-1.434,1.74-1.537h13.21Zm13.62-9.423a2.282,2.282,0,0,1-2.45,2.356h-35.44a2.284,2.284,0,0,1-2.46-2.356v-1.434a2.31,2.31,0,0,1,2.46-2.458h35.44a2.307,2.307,0,0,1,2.45,2.458v1.434Zm-2.45,13.52a1.853,1.853,0,0,1,1.53-1.024c0.72-.1,1.85-0.205,1.85-1.331,0-.717-0.72-0.922-1.34-1.229a0.289,0.289,0,0,1-.2-0.205,0.257,0.257,0,0,1,.31-0.2c1.33,0.1,2.66.1,3.99,0.1,2.87,0,6.04-.409,6.04-3.994,0-1.741-.1-3.38-0.1-5.121v-2.664c0-1.741.1-3.379,0.1-5.121,0-3.482-3.27-3.892-5.94-3.892s-5.32.1-7.99,0.1h-31.95c-2.56,0-5.23-.1-7.79-0.1-2.86,0-6.14.307-6.14,3.892,0,1.742.2,3.483,0.2,5.121v2.664c0,1.741-.2,3.38-0.2,5.121,0,3.482,3.07,3.994,5.94,3.994h2.87c1.02,0,1.53.922,1.94,1.741a49.58,49.58,0,0,1,2.67,5.122,1.451,1.451,0,0,1,.3.921c0,1.434-1.53,1.537-1.94,1.537h-12.91c-3.99,0-7.99-.2-11.98-0.2-2.15,0-2.05,1.229-2.05,4.2,0,3.073,0,4.1,2.05,4.1,3.99,0,7.99-.2,11.98-0.2h62.58c4,0,7.99.2,11.99,0.2,2.15,0,2.04-1.126,2.04-4.1s0.11-4.2-2.04-4.2c-4,0-7.99.2-11.99,0.2h-13.72c-0.92-.1-1.85-0.41-1.85-1.434a1.765,1.765,0,0,1,.31-1.024C2695.28,216.909,2695.79,215.885,2696.31,214.86Zm4.5-51.212a2.365,2.365,0,0,1,2.46,2.459v1.024a2.365,2.365,0,0,1-2.46,2.458h-5.32a2.365,2.365,0,0,1-2.46-2.458v-1.024a2.365,2.365,0,0,1,2.46-2.459h5.32Zm-17.21,3.483a2.362,2.362,0,0,1-2.45,2.458h-4.92a2.37,2.37,0,0,1-2.46-2.458v-1.024a2.371,2.371,0,0,1,2.46-2.459h4.92a2.363,2.363,0,0,1,2.45,2.459v1.024Zm-29.49-1.024a2.363,2.363,0,0,1,2.45-2.459h5.33a2.371,2.371,0,0,1,2.46,2.459v1.024a2.37,2.37,0,0,1-2.46,2.458h-5.33a2.362,2.362,0,0,1-2.45-2.458v-1.024Zm38.92-11.677a2.365,2.365,0,0,1,2.46-2.458h5.32a2.365,2.365,0,0,1,2.46,2.458v0.615a2.365,2.365,0,0,1-2.46,2.458h-5.32a2.365,2.365,0,0,1-2.46-2.458V154.43Zm-19.26,0a2.37,2.37,0,0,1,2.46-2.458h4.92a2.362,2.362,0,0,1,2.45,2.458v0.615a2.362,2.362,0,0,1-2.45,2.458h-4.92a2.37,2.37,0,0,1-2.46-2.458V154.43Zm-17.21,3.073a2.362,2.362,0,0,1-2.45-2.458V154.43a2.362,2.362,0,0,1,2.45-2.458h5.33a2.37,2.37,0,0,1,2.46,2.458v0.615a2.37,2.37,0,0,1-2.46,2.458h-5.33Zm17.52-14.032a2.122,2.122,0,0,1,.82-1.332c0.72-.512,1.33-0.819,1.33-1.536,0-1.024-1.43-1.229-2.25-1.331-1.64-.1-7.07-0.717-8.4-0.717-1.03,0-1.74.307-1.74,1.433,0,0.41.3,1.947,0.3,2.766,0,1.946-.82,2.663-2.66,2.663h-2.87c-2.97,0-5.94-.1-8.91-0.1-2.66,0-5.12.307-5.12,3.687,0,1.741.1,3.585,0.1,5.326v12.905c0,1.741-.1,3.585-0.1,5.326,0,3.38,2.56,3.688,5.23,3.688,2.97,0,5.94-.1,8.8-0.1h40.15c2.97,0,5.84.1,8.81,0.1,2.77,0,5.23-.308,5.23-3.585,0-1.741-.11-3.585-0.11-5.429v-12.9c0-1.946.11-3.585,0.11-5.326,0-3.38-2.56-3.687-5.23-3.687-2.97,0-5.94.1-8.81,0.1H2696c-1.13,0-2.66-.307-2.66-1.741a2.061,2.061,0,0,1,.81-1.434c0.72-.512,1.34-0.82,1.34-1.537,0-1.126-1.54-1.229-2.36-1.331-1.43-.1-7.07-0.717-8.3-0.717-1.02,0-1.74.2-1.74,1.434,0,0.307.31,2.048,0.31,2.663,0,1.946-.82,2.663-2.66,2.663h-4C2675.51,145.417,2673.98,145.007,2674.08,143.471Zm30.32,128.743c-1.85,0-7.79,3.585-7.79,5.428a2.645,2.645,0,0,0,.92,1.741c6.87,7.273,9.63,13.111,13.73,21.919,0.51,1.024,1.02,2.356,2.36,2.356,2.04,0,8.5-3.79,8.5-6.043C2722.12,295.054,2708.19,272.214,2704.4,272.214Zm-37.18-10.14c-1.13,0-1.13,1.229-1.13,2.048,0,1.229.1,2.356,0.1,3.483a95.117,95.117,0,0,1-1.02,13.212c-0.31,2.151-1.33,2.663-3.38,3.073-5.23,1.127-11.68,2.663-17,3.175-1.34.1-3.08,0.1-3.08,1.639,0,0.512,1.74,10.55,4.31,10.55a8.609,8.609,0,0,0,2.15-.615c1.74-.717,10.24-3.585,11.67-3.585a1.236,1.236,0,0,1,1.33,1.332c0,0.922-2.04,6.453-2.56,7.682a84.091,84.091,0,0,1-18.23,28.576,3.843,3.843,0,0,0-1.43,2.356c0,2.355,6.55,6.247,8.29,6.247a2.813,2.813,0,0,0,1.85-1.024c3.07-3.277,7.78-10.754,10.24-14.749a120.985,120.985,0,0,0,13.01-30.42c0.72-2.868,1.74-3.687,7.58-3.687,6.14,0,6.45,4.2,6.45,9.321,0,6.555-1.54,17.207-4.51,23.147-2.56,5.019-5.12,6.248-10.65,6.248-2.05,0-3.79-.307-4.81-0.307s-1.33.717-1.33,1.741a22.208,22.208,0,0,0,1.74,7.272c1.12,2.151,2.46,2.458,4.71,2.458,8.3,0,15.26-3.584,19.36-11.061,4.5-8.194,6.14-22.021,6.14-31.444,0-5.634-1.12-11.574-6.25-14.852-3.68-2.356-7.47-2.356-11.67-2.356-0.41,0-.82.1-1.23,0.1a2.065,2.065,0,0,1-2.25-2.151,4.453,4.453,0,0,1,.2-1.127c0.31-1.741.51-3.175,0.72-4.4,0.61-3.585.82-5.224,2.76-6.658a1.517,1.517,0,0,0,.82-1.229c0-1.126-1.74-1.434-2.56-1.638C2676.03,264.02,2668.24,262.074,2667.22,262.074Zm6.35,169.1c-1.95,0-5.53,7.272-5.53,8.706,0,1.639,6.86,10.242,23.45,10.242,4.1,0,21.41-1.536,24.28-3.072,1.33-.717,1.23-2.561,1.23-3.79,0-5.224-.21-7.682-1.85-7.682a7.293,7.293,0,0,0-2.15.41,83.8,83.8,0,0,1-22.53,3.277c-6.87,0-11.17-1.741-15.57-7.169A1.814,1.814,0,0,0,2673.57,431.172Zm2.35-44.35c-1.64,0-2.15,1.537-2.15,6.453,0,1.127-.1,3.278,1.03,4,2.15,1.433,14.75,2.048,17.92,2.048a119.528,119.528,0,0,0,17.21-1.434c1.94-.41,1.94-1.229,1.94-3.38a49,49,0,0,0-.41-5.531c-0.2-1.229-.61-2.458-2.04-2.458a9.89,9.89,0,0,0-1.85.307,66.982,66.982,0,0,1-15.57,2.049,65.659,65.659,0,0,1-13.41-1.537A13.588,13.588,0,0,0,2675.92,386.822Zm-24.58-7.989c-1.13,0-1.33,1.332-1.53,2.254a46.01,46.01,0,0,1-1.34,5.121c-3.17,11.471-5.22,21.918-5.22,33.9,0,10.755,1.43,21.714,6.25,31.444,1.33,2.766,2.56,5.019,4.3,5.019,2.15,0,7.99-2.458,7.99-5.019a8.421,8.421,0,0,0-.21-1.536c-0.1-.922-0.41-3.278-0.41-4.3,0-4.609,4.1-13.93,4.1-14.851,0-1.127-2.66-3.278-3.69-3.278-0.92,0-1.53,1.127-2.15,2.458-0.41,1.024-1.84,4-2.76,4-2.36,0-2.77-12.394-2.77-14.34a81.161,81.161,0,0,1,5.74-29.088c1.02-2.561,1.43-3.482,3.17-4.4,1.03-.615,1.44-0.717,1.44-1.332,0-1.024-1.23-1.434-2.05-1.741C2660.76,382.52,2652.16,378.833,2651.34,378.833ZM2673.46,529.5c4.2,0,5.13,5.838,5.13,9.013s-1.23,8.4-5.33,8.4-4.81-5.633-4.81-8.706S2669.47,529.5,2673.46,529.5Zm0.52-43.428a1.161,1.161,0,0,0-1.33,1.229,2.31,2.31,0,0,0,.1.82,87.915,87.915,0,0,1,1.02,12.7,3,3,0,0,1-2.25,3.175c-0.92.205-24.99,1.537-27.76,1.639-5.02.2-5.94,0-5.94,2.049a59.614,59.614,0,0,0,.82,7.374c0.31,1.332.41,2.766,2.05,2.766a8.08,8.08,0,0,0,1.54-.2c4.91-1.024,18.12-2.458,23.45-2.97,1.23-.1,5.94-0.615,6.76-0.615,1.13,0,1.84.512,1.84,4.3a1.313,1.313,0,0,1-1.22,1.229c-10.35.922-14.45,9.935-14.45,19.358,0,7.477,3.28,17.105,12.19,17.105a9.786,9.786,0,0,0,2.36-.512,2.22,2.22,0,0,1,.82-0.1,0.763,0.763,0,0,1,.71.717,3.82,3.82,0,0,1-.51,1.537c-2.56,4.506-3.48,6.247-7.37,9.935-0.62.614-2.36,2.048-2.36,2.868,0,1.843,8.3,4.4,9.53,4.4,4.5,0,15.46-18.334,15.46-34.824a31.59,31.59,0,0,0-3.17-14.34c-0.92-1.638-1.03-2.458-1.03-5.326v-3.585a3.306,3.306,0,0,1,1.95-3.38c1.13-.307,10.65-0.409,12.5-0.409,5.73,0,13.41.512,14.85,0.512,1.02,0,2.25.1,2.25-6.146,0-4.609-.72-5.223-2.36-5.223-4.4,0-15.36.614-20.38,0.819-1.12,0-5.12.307-5.94,0.307a2.7,2.7,0,0,1-2.97-2.97c0-2.151,0-4.4.1-6.555,0.11-2.97.93-3.79,1.64-4.3a1.556,1.556,0,0,0,.62-1.126c0-.922-3.08-1.23-5.53-1.434S2676.33,486.067,2673.98,486.067Zm4.61,183.54c0,1.639-.82,3.483-2.77,3.483-3.07,0-7.99-1.742-7.99-5.429a4.243,4.243,0,0,1,4.41-4.1A6.261,6.261,0,0,1,2678.59,669.607Zm9.52-66.371a13.951,13.951,0,0,0-3.89,1.127c-5.94,2.356-19.36,3.79-25.91,3.79h-2.46c-3.07,0-3.18.2-3.18,2.56,0,1.742.31,9.423,2.56,9.423,1.64,0,16.08-2.97,18.54-3.584a24.805,24.805,0,0,1,2.46-.41c0.82,0,1.74.307,1.74,1.229,0,1.024-1.84,2.868-2.66,3.687-9.42,10.345-21.31,23.046-31.86,32.161-0.92.717-2.45,1.844-2.45,3.073,0,1.639,5.22,7.375,7.37,7.375a1.4,1.4,0,0,0,1.13-.717c3.69-4.2,7.37-8.4,11.37-12.291,6.55-6.453,13.62-10.038,22.94-10.038,8.91,0,17.31,4.1,17.31,14.032,0,10.345-9.73,15.773-12.39,15.773a1.268,1.268,0,0,1-1.23-1.331,10.17,10.17,0,0,0-1.85-6.555,16.687,16.687,0,0,0-13.62-7.272c-6.86,0-13.11,5.326-13.11,12.393,0,10.447,12.09,13.93,20.59,13.93,16.49,0,32.57-9.423,32.57-27.552,0-8.911-4.2-15.774-12.19-19.871a30.055,30.055,0,0,0-12.6-3.072,19.483,19.483,0,0,0-4.2.409,5.948,5.948,0,0,1-1.33.205,1.543,1.543,0,0,1-1.74-1.331,3.049,3.049,0,0,1,1.02-1.741c4.82-5.019,9.12-9.731,14.86-13.725,1.12-.82,2.25-1.434,2.25-2.151C2698.15,611.021,2692.21,603.236,2688.11,603.236Z" transform="translate(-2633.41 -138.562)"/>
</svg>
