<svg xmlns="http://www.w3.org/2000/svg" width="48.66" height="700.094" viewBox="0 0 48.66 700.094">
  <defs>
    <style>
      .cls-1 {
        fill-rule: evenodd;
      }
    </style>
  </defs>
  <path id="top-text_pc.svg" class="cls-1" d="M2521.24,228.207v-9.476a9.732,9.732,0,0,1-4.94-2.688,7.506,7.506,0,0,1-1.85-5.376,7.357,7.357,0,0,1,2.49-5.98,8.05,8.05,0,0,1,1.71-1.21,7.958,7.958,0,0,1,2.36-.706,32.9,32.9,0,0,1,3.69-.336c1.5-.067,3.42-0.1,5.75-0.1s4.24,0.033,5.74.1a33.345,33.345,0,0,1,3.7.336,7.885,7.885,0,0,1,2.35.706,7.576,7.576,0,0,1,1.71,1.21,7.357,7.357,0,0,1,2.49,5.98,7.506,7.506,0,0,1-1.85,5.376,9.732,9.732,0,0,1-4.94,2.688v9.476q7.335-1.21,11.23-5.948a17.787,17.787,0,0,0,3.89-11.659,17.511,17.511,0,0,0-5.24-12.9,13.755,13.755,0,0,0-7.19-3.9,88.177,88.177,0,0,0-23.79,0,13.755,13.755,0,0,0-7.19,3.9,17.55,17.55,0,0,0-5.24,12.9,19.717,19.717,0,0,0,1.01,6.384,15.888,15.888,0,0,0,7.66,9.072,20.271,20.271,0,0,0,6.45,2.151h0Zm-14.72,55.036,20.63-10.685a13.633,13.633,0,0,0,1.72,3.327,12.574,12.574,0,0,0,2.69,2.789,12.849,12.849,0,0,0,3.59,1.915,13.833,13.833,0,0,0,4.57.7,15.407,15.407,0,0,0,5.68-1.041,13.276,13.276,0,0,0,4.64-3.058,14.877,14.877,0,0,0,3.15-4.9,17.05,17.05,0,0,0,1.18-6.519V247.022h-47.85v9.341h19.09v6.72l-19.09,9.341v10.819Zm28.63-13.137a6.922,6.922,0,0,1-1.75-4.94v-8.8h12.64v8.8a6.922,6.922,0,0,1-1.75,4.94A6.575,6.575,0,0,1,2535.15,270.106Zm-28.63,63.134h8.34V311.063h11.62v18.884h8.34V311.063h11.22V333.24h8.33V301.723h-47.85V333.24Zm0,56.851,47.85-17.473v-7.324l-47.85-17.4v9.744l8.47,2.889v17l-8.47,2.823v9.744Zm16.33-15.053v-11.9l17.41,6.048Zm23.19,62.5h8.33V403.194h-8.33v12.5h-39.52v9.341h39.52v12.5Zm-39.52,27.686h47.85v-9.341h-47.85v9.341Zm47.85,55.171v-9.744l-31.18-9.61,31.18-9.609V481.75l-47.85,15.792v6.989Zm-47.85,48.048h8.34V546.262h11.62v18.883h8.34V546.262h11.22v22.176h8.33V536.921h-47.85v31.517Zm14.72,86.553v-9.475a9.74,9.74,0,0,1-4.94-2.689,7.506,7.506,0,0,1-1.85-5.376,7.357,7.357,0,0,1,2.49-5.98,8.05,8.05,0,0,1,1.71-1.21,7.958,7.958,0,0,1,2.36-.706,32.9,32.9,0,0,1,3.69-.336c1.5-.067,3.42-0.1,5.75-0.1s4.24,0.033,5.74.1a33.345,33.345,0,0,1,3.7.336,7.885,7.885,0,0,1,2.35.706,7.576,7.576,0,0,1,1.71,1.21,7.357,7.357,0,0,1,2.49,5.98,7.506,7.506,0,0,1-1.85,5.376,9.74,9.74,0,0,1-4.94,2.689v9.475q7.335-1.211,11.23-5.947a17.791,17.791,0,0,0,3.89-11.66,17.511,17.511,0,0,0-5.24-12.9,13.755,13.755,0,0,0-7.19-3.9,88.177,88.177,0,0,0-23.79,0,13.755,13.755,0,0,0-7.19,3.9,17.55,17.55,0,0,0-5.24,12.9,19.717,19.717,0,0,0,1.01,6.384,15.888,15.888,0,0,0,7.66,9.072,20.271,20.271,0,0,0,6.45,2.151h0Zm-14.72,28.156h47.85v-9.341h-47.85v9.341Zm0,58.128,20.63-10.685a13.645,13.645,0,0,0,1.72,3.326,12.531,12.531,0,0,0,2.69,2.789,12.8,12.8,0,0,0,3.59,1.915,13.806,13.806,0,0,0,4.57.706,15.408,15.408,0,0,0,5.68-1.042,13.274,13.274,0,0,0,4.64-3.057,14.872,14.872,0,0,0,3.15-4.906,17.045,17.045,0,0,0,1.18-6.518V705.054h-47.85V714.4h19.09v6.72l-19.09,9.341v10.819Zm28.63-13.138a6.918,6.918,0,0,1-1.75-4.939v-8.8h12.64v8.8a6.918,6.918,0,0,1-1.75,4.939A6.575,6.575,0,0,1,2535.15,728.137Zm-13.91,65.217v-9.475a9.732,9.732,0,0,1-4.94-2.688,7.508,7.508,0,0,1-1.85-5.376,7.358,7.358,0,0,1,2.49-5.981,8.081,8.081,0,0,1,1.71-1.209,7.958,7.958,0,0,1,2.36-.706,32.666,32.666,0,0,1,3.69-.336c1.5-.067,3.42-0.1,5.75-0.1s4.24,0.034,5.74.1a33.1,33.1,0,0,1,3.7.336,7.885,7.885,0,0,1,2.35.706,7.6,7.6,0,0,1,1.71,1.209,7.358,7.358,0,0,1,2.49,5.981,7.508,7.508,0,0,1-1.85,5.376,9.732,9.732,0,0,1-4.94,2.688v9.475q7.335-1.209,11.23-5.947a17.787,17.787,0,0,0,3.89-11.659,17.511,17.511,0,0,0-5.24-12.9,13.748,13.748,0,0,0-7.19-3.9,88.177,88.177,0,0,0-23.79,0,13.748,13.748,0,0,0-7.19,3.9,17.55,17.55,0,0,0-5.24,12.9,19.717,19.717,0,0,0,1.01,6.384,15.888,15.888,0,0,0,7.66,9.072,20.246,20.246,0,0,0,6.45,2.15h0Zm-14.72,49.862h8.34V821.511h39.51V812.17h-47.85v31.046Zm0,49.863h8.34V870.9h11.62v18.883h8.34V870.9h11.22v22.176h8.33V861.562h-47.85v31.517Z" transform="translate(-2506.12 -193)"/>
</svg>
