<svg xmlns="http://www.w3.org/2000/svg" width="336.438" height="123.438" viewBox="0 0 336.438 123.438">
  <defs>
    <style>
      .cls-1 {
        fill-rule: evenodd;
      }
    </style>
  </defs>
  <path id="top-text.svg" class="cls-1" d="M933.713,808.963h-8.46a8.7,8.7,0,0,1-2.4,4.41,6.691,6.691,0,0,1-4.8,1.65,6.574,6.574,0,0,1-5.34-2.22,6.317,6.317,0,0,1-1.71-3.63,29.153,29.153,0,0,1-.3-3.3q-0.09-2.01-.09-5.13t0.09-5.13a29.2,29.2,0,0,1,.3-3.3,6.317,6.317,0,0,1,1.71-3.63,6.577,6.577,0,0,1,5.34-2.22,6.7,6.7,0,0,1,4.8,1.65,8.7,8.7,0,0,1,2.4,4.41h8.46q-1.08-6.538-5.31-10.02a15.853,15.853,0,0,0-10.41-3.48,15.657,15.657,0,0,0-11.52,4.68,12.278,12.278,0,0,0-3.48,6.42,78.683,78.683,0,0,0,0,21.24,12.27,12.27,0,0,0,3.48,6.42,15.657,15.657,0,0,0,11.52,4.68,17.558,17.558,0,0,0,5.7-.9,14.214,14.214,0,0,0,8.1-6.84,18.1,18.1,0,0,0,1.92-5.76h0Zm49.14,13.14-9.54-18.42a12,12,0,0,0,2.97-1.53,11.333,11.333,0,0,0,4.2-5.61,12.3,12.3,0,0,0,.63-4.08,13.779,13.779,0,0,0-.93-5.07,11.783,11.783,0,0,0-2.73-4.14,13.35,13.35,0,0,0-4.38-2.82,15.344,15.344,0,0,0-5.82-1.05h-16.74V822.1h8.34v-17.04h6l8.34,17.04h9.66Zm-11.73-25.56a6.155,6.155,0,0,1-4.41,1.56h-7.86v-11.28h7.86a6.159,6.159,0,0,1,4.41,1.56A5.869,5.869,0,0,1,971.123,796.543Zm56.367,25.56v-7.44h-19.8v-10.38h16.86v-7.44h-16.86v-10.02h19.8v-7.44H999.352V822.1h28.138Zm50.76,0-15.6-42.72h-6.54l-15.54,42.72h8.7l2.58-7.56h15.18l2.52,7.56h8.7Zm-13.44-14.58h-10.62l5.4-15.54Zm55.8-20.7v-7.44h-30.66v7.44h11.16V822.1h8.34v-35.28h11.16Zm24.72,35.28v-42.72h-8.34V822.1h8.34Zm49.26-42.72h-8.7l-8.58,27.84-8.58-27.84h-8.64l14.1,42.72h6.24Zm42.9,42.72v-7.44h-19.8v-10.38h16.86v-7.44h-16.86v-10.02h19.8v-7.44h-28.14V822.1h28.14Zm-304.977,66.86h-8.46a8.689,8.689,0,0,1-2.4,4.41,6.689,6.689,0,0,1-4.8,1.65,6.575,6.575,0,0,1-5.34-2.22,6.317,6.317,0,0,1-1.71-3.63,29.388,29.388,0,0,1-.3-3.3q-0.09-2.01-.09-5.13t0.09-5.13a29.434,29.434,0,0,1,.3-3.3,6.317,6.317,0,0,1,1.71-3.63,6.578,6.578,0,0,1,5.34-2.22,6.694,6.694,0,0,1,4.8,1.65,8.7,8.7,0,0,1,2.4,4.41h8.46q-1.08-6.538-5.31-10.02a15.851,15.851,0,0,0-10.41-3.48,15.657,15.657,0,0,0-11.52,4.68,12.278,12.278,0,0,0-3.48,6.42,78.683,78.683,0,0,0,0,21.24,12.27,12.27,0,0,0,3.48,6.42,15.657,15.657,0,0,0,11.52,4.68,17.553,17.553,0,0,0,5.7-.9,14.214,14.214,0,0,0,8.1-6.84,18.1,18.1,0,0,0,1.92-5.76h0Zm25.14,13.14v-42.72h-8.34V902.1h8.34Zm51.9,0-9.54-18.42a11.964,11.964,0,0,0,2.97-1.53,11.319,11.319,0,0,0,2.49-2.4,11.448,11.448,0,0,0,1.71-3.21,12.3,12.3,0,0,0,.63-4.08,13.758,13.758,0,0,0-.93-5.07,11.77,11.77,0,0,0-2.73-4.14,13.351,13.351,0,0,0-4.378-2.82,15.34,15.34,0,0,0-5.82-1.05H977.213V902.1h8.339v-17.04h6l8.341,17.04h9.657Zm-11.728-25.56a6.152,6.152,0,0,1-4.41,1.56h-7.86v-11.28h7.86a6.156,6.156,0,0,1,4.41,1.56A5.869,5.869,0,0,1,997.822,876.543Zm58.228,12.42h-8.46a8.689,8.689,0,0,1-2.4,4.41,6.689,6.689,0,0,1-4.8,1.65,6.575,6.575,0,0,1-5.34-2.22,6.317,6.317,0,0,1-1.71-3.63,29.388,29.388,0,0,1-.3-3.3q-0.09-2.01-.09-5.13t0.09-5.13a29.434,29.434,0,0,1,.3-3.3,6.317,6.317,0,0,1,1.71-3.63,6.578,6.578,0,0,1,5.34-2.22,6.694,6.694,0,0,1,4.8,1.65,8.7,8.7,0,0,1,2.4,4.41h8.46q-1.08-6.538-5.31-10.02a15.851,15.851,0,0,0-10.41-3.48,15.657,15.657,0,0,0-11.52,4.68,12.278,12.278,0,0,0-3.48,6.42,78.683,78.683,0,0,0,0,21.24,12.27,12.27,0,0,0,3.48,6.42,15.657,15.657,0,0,0,11.52,4.68,17.553,17.553,0,0,0,5.7-.9,14.214,14.214,0,0,0,8.1-6.84,18.1,18.1,0,0,0,1.92-5.76h0Zm44.52,13.14v-7.44h-19.38v-35.28h-8.34V902.1h27.72Zm44.52,0v-7.44h-19.8v-10.38h16.86v-7.44h-16.86v-10.02h19.8v-7.44h-28.14V902.1h28.14Z" transform="translate(-901.062 -779.031)"/>
</svg>
