<svg xmlns="http://www.w3.org/2000/svg" width="117.06" height="24.15" viewBox="0 0 117.06 24.15">
  <defs>
    <style>
      .cls-1 {
        fill-rule: evenodd;
      }
    </style>
  </defs>
  <path id="scroll.svg" class="cls-1" d="M1184.23,4845.76a5.157,5.157,0,0,0-1.4-2.17,6.262,6.262,0,0,0-1.83-1.15,10.92,10.92,0,0,0-2.7-.68l-2.81-.4a4.964,4.964,0,0,1-1.28-.35,3.736,3.736,0,0,1-.92-0.59,2.282,2.282,0,0,1-.53-0.8,2.522,2.522,0,0,1-.17-0.9,2.874,2.874,0,0,1,.9-2.12,3.823,3.823,0,0,1,2.77-.88,11.235,11.235,0,0,1,2.45.28,5.175,5.175,0,0,1,2.42,1.35l2.94-2.9a9.056,9.056,0,0,0-3.37-2.13,13.3,13.3,0,0,0-4.31-.64,10.383,10.383,0,0,0-3.46.54,7.635,7.635,0,0,0-2.61,1.48,6.368,6.368,0,0,0-1.63,2.27,7.278,7.278,0,0,0-.57,2.92,6.334,6.334,0,0,0,1.7,4.67,8,8,0,0,0,4.61,1.96l2.87,0.4a6.368,6.368,0,0,1,1.28.32,2.846,2.846,0,0,1,.82.52,2.629,2.629,0,0,1,.73,2,2.5,2.5,0,0,1-1.07,2.18,5.416,5.416,0,0,1-3.13.75,11.031,11.031,0,0,1-3.14-.43,6.054,6.054,0,0,1-2.6-1.57l-3,3a9.517,9.517,0,0,0,3.85,2.46,15.849,15.849,0,0,0,4.82.68,12.027,12.027,0,0,0,3.47-.48,8.55,8.55,0,0,0,2.78-1.4,6.689,6.689,0,0,0,1.87-2.26,6.541,6.541,0,0,0,.69-3.06A8.782,8.782,0,0,0,1184.23,4845.76Zm20.81,2.57h-4.7a4.828,4.828,0,0,1-1.33,2.45,3.744,3.744,0,0,1-2.67.91,3.665,3.665,0,0,1-2.97-1.23,4.38,4.38,0,0,1-.6-0.85,3.869,3.869,0,0,1-.35-1.17,17.447,17.447,0,0,1-.17-1.83c-0.03-.75-0.05-1.7-0.05-2.85s0.02-2.11.05-2.85a17.408,17.408,0,0,1,.17-1.84,3.869,3.869,0,0,1,.35-1.17,4.38,4.38,0,0,1,.6-0.85,3.665,3.665,0,0,1,2.97-1.23,3.748,3.748,0,0,1,2.67.92,4.828,4.828,0,0,1,1.33,2.45h4.7a8.718,8.718,0,0,0-2.95-5.57,9.373,9.373,0,0,0-12.19.66,6.842,6.842,0,0,0-1.93,3.57,43.786,43.786,0,0,0,0,11.81,6.767,6.767,0,0,0,1.93,3.57,8.734,8.734,0,0,0,6.41,2.6,9.826,9.826,0,0,0,3.16-.5,7.967,7.967,0,0,0,2.6-1.45,8.209,8.209,0,0,0,1.91-2.35,10.133,10.133,0,0,0,1.06-3.2h0Zm21.31,7.3-5.3-10.24a6.593,6.593,0,0,0,3.04-2.18,6.651,6.651,0,0,0,.95-1.79,6.893,6.893,0,0,0,.35-2.27,7.669,7.669,0,0,0-.52-2.81,6.5,6.5,0,0,0-1.52-2.31,7.468,7.468,0,0,0-2.43-1.56,8.541,8.541,0,0,0-3.24-.59h-9.3v23.75h4.63v-9.47h3.34l4.63,9.47h5.37Zm-6.52-14.21a3.4,3.4,0,0,1-2.45.87h-4.37v-6.27h4.37a3.4,3.4,0,0,1,2.45.87A3.248,3.248,0,0,1,1219.83,4841.42Zm26.4-.53a15.011,15.011,0,0,0-.25-2.5,8.764,8.764,0,0,0-.7-2.19,6.991,6.991,0,0,0-1.38-1.92,9.268,9.268,0,0,0-2.82-1.93,9.087,9.087,0,0,0-3.59-.67,9.243,9.243,0,0,0-3.6.67,9.074,9.074,0,0,0-2.83,1.93,7.034,7.034,0,0,0-1.39,1.92,8.341,8.341,0,0,0-.68,2.19,17.571,17.571,0,0,0-.23,2.5c-0.03.89-.04,1.84-0.04,2.87s0.01,1.98.04,2.86a17.716,17.716,0,0,0,.23,2.51,8.388,8.388,0,0,0,.68,2.18,6.887,6.887,0,0,0,1.39,1.92,8.908,8.908,0,0,0,2.83,1.93,9.064,9.064,0,0,0,3.6.67,8.913,8.913,0,0,0,3.59-.67,9.094,9.094,0,0,0,2.82-1.93,6.845,6.845,0,0,0,1.38-1.92,8.822,8.822,0,0,0,.7-2.18,15.135,15.135,0,0,0,.25-2.51c0.02-.88.04-1.84,0.04-2.86S1246.25,4841.78,1246.23,4840.89Zm-4.65,5.68a15.412,15.412,0,0,1-.18,1.86,4.446,4.446,0,0,1-.37,1.18,4.287,4.287,0,0,1-.57.82,3.64,3.64,0,0,1-1.25.91,3.917,3.917,0,0,1-1.72.35,4.023,4.023,0,0,1-1.73-.35,3.722,3.722,0,0,1-1.27-.91,3.8,3.8,0,0,1-.55-0.82,4.92,4.92,0,0,1-.35-1.18,13.607,13.607,0,0,1-.18-1.86c-0.04-.74-0.05-1.68-0.05-2.81s0.01-2.08.05-2.82a13.44,13.44,0,0,1,.18-1.85,5.016,5.016,0,0,1,.35-1.19,3.5,3.5,0,0,1,.55-0.81,3.745,3.745,0,0,1,1.27-.92,4.176,4.176,0,0,1,1.73-.35,4.063,4.063,0,0,1,1.72.35,3.664,3.664,0,0,1,1.25.92,3.927,3.927,0,0,1,.57.81,4.53,4.53,0,0,1,.37,1.19,15.22,15.22,0,0,1,.18,1.85c0.03,0.74.05,1.68,0.05,2.82S1241.61,4845.83,1241.58,4846.57Zm24.16,9.06v-4.14h-10.77v-19.61h-4.64v23.75h15.41Zm18.51,0v-4.14h-10.77v-19.61h-4.64v23.75h15.41Z" transform="translate(-1167.19 -4831.69)"/>
</svg>
