<svg xmlns="http://www.w3.org/2000/svg" width="908.13" height="54.15" viewBox="0 0 908.13 54.15">
  <defs>
    <style>
      .cls-1 {
        fill-rule: evenodd;
      }
    </style>
  </defs>
  <path id="クリエイティブ集団を目指しています_" data-name="クリエイティブ集団を目指しています。" class="cls-1" d="M2523.73,1402.04a0.95,0.95,0,0,1-.99-0.99,9.043,9.043,0,0,1,1.04-2.09c0.99-1.8,1.16-2.09,1.98-2.38a0.816,0.816,0,0,0,.52-0.64c0-.63-2.96-1.74-3.48-2.03a19.2,19.2,0,0,0-3.08-1.27c-0.52,0-.69.81-0.92,1.39-2.67,7.31-9.4,15.95-15.49,20.77a0.9,0.9,0,0,0-.52.81c0,1.22,4.23,3.42,4.93,3.42,1.56,0,8.23-7.95,9.34-9.51,0.75-1.05,1.1-1.63,2.43-1.63h11.02c0.82,0,1.74.06,1.74,0.82,0,1.45-3.48,7.07-4.46,8.52a51.47,51.47,0,0,1-22.39,18.57,1.422,1.422,0,0,0-1.16,1.04c0,1.1,3.65,3.94,4.93,3.94,1.22,0,6.67-3.42,7.94-4.23,10.68-6.9,16.36-15.37,22.05-26.39a35.473,35.473,0,0,1,1.79-3.14,3.6,3.6,0,0,0,.7-1.45c0-.75-2.55-3.94-3.71-3.94-0.23,0-.47.06-0.64,0.06a13.766,13.766,0,0,1-3.25.35h-10.32Zm65.48-2.67a4.843,4.843,0,0,1,.41-2.5,1.162,1.162,0,0,0,.52-0.81c0-.52-0.7-0.58-1.16-0.7a51.2,51.2,0,0,0-5.74-.58c-0.47,0-.7.12-0.7,0.58a5.576,5.576,0,0,0,.12.99,31.568,31.568,0,0,1,.17,4v12.59a72.7,72.7,0,0,1-.7,11.2c-0.98,6.55-4.64,9.86-10.32,12.82-0.47.23-1.57,0.69-1.57,1.21,0,1.05,4,3.95,4.87,3.95,1.05,0,5.4-3.25,6.38-4.06,4.36-3.6,6.33-7.95,7.08-13.46a88.26,88.26,0,0,0,.64-12.36v-12.87Zm-22.74,5.39c0-1.33-.06-2.38-0.06-3.25,0-1.79.12-2.66,0.64-3.36a1.253,1.253,0,0,0,.29-0.64c0-.52-0.81-0.52-2.03-0.75-0.81-.12-4.41-0.64-4.99-0.64-0.4,0-.52.17-0.52,0.58,0,0.35.06,0.7,0.06,1.04,0.06,1.51.17,3.02,0.17,4.59v12.23c0,2.73-.17,5.4-0.17,8.13,0,1.56.75,1.74,3.48,1.74s3.25-.24,3.25-2.03c0-2.61-.12-5.28-0.12-7.89v-9.75Zm51.62-3.13c-2.49,0-5.05-.12-7.54-0.12-1.16,0-1.51.35-1.51,2.56v1.39c0,1.74.18,2.38,1.8,2.38,2.38,0,4.76-.12,7.19-0.12h4.64a1.7,1.7,0,0,1,1.74,1.74v16.24a1.691,1.691,0,0,1-1.74,1.68h-9.05c-2.43,0-5.56-.11-7.3-0.11-1.45,0-1.51.52-1.51,3.3,0,1.98,0,3.08,1.62,3.08,1.74,0,4.7-.18,7.19-0.18h28.08c2.49,0,5.45.18,7.19,0.18,1.63,0,1.63-1.16,1.63-3.02,0-2.84-.06-3.36-1.51-3.36-1.74,0-4.93.11-7.31,0.11h-9.05a1.691,1.691,0,0,1-1.74-1.68v-16.24a1.7,1.7,0,0,1,1.74-1.74h4.64c2.44,0,4.82.12,7.19,0.12,1.63,0,1.8-.64,1.8-2.44v-1.39c0-2.15-.35-2.5-1.51-2.5-2.55,0-5.04.12-7.59,0.12h-19.09Zm67.11,8.47c0-1.34.46-1.74,1.33-2.61a112.9,112.9,0,0,0,7.95-8.7,3.1,3.1,0,0,1,2.26-1.39,0.688,0.688,0,0,0,.58-0.58c0-.7-1.62-1.69-2.26-2.09a21.7,21.7,0,0,0-3.94-2.38,1.509,1.509,0,0,0-.93.87,49.456,49.456,0,0,1-7.89,9.8c-5.86,5.69-15.2,12.18-22.8,15.37a1.194,1.194,0,0,0-.93.99c0,1.1,3.54,4.64,4.53,4.64,1.51,0,10.73-6.15,12.47-7.42a6.417,6.417,0,0,1,2.26-1.34c1.1,0,.93,1.28.93,1.63v15.77c0,2.5-.12,4.99-0.12,7.49,0,1.5.58,1.68,3.77,1.68,2.15,0,2.9-.18,2.9-1.74,0-2.5-.11-5.05-0.11-7.6V1410.1Zm33.4,1.51c-2.43,0-4.87-.18-7.36-0.18-1.28,0-1.45.64-1.45,3.31,0,2.09.06,2.96,1.56,2.96,2.44,0,4.88-.12,7.25-0.12h11.78a1.364,1.364,0,0,1,1.39,1.34,25.922,25.922,0,0,1-.52,2.84,17.145,17.145,0,0,1-7.31,10.55,26.953,26.953,0,0,1-7.25,3.02c-0.52.12-1.62,0.35-1.62,0.99,0,0.98,3.19,4.81,4.46,4.81,1.1,0,4.93-1.97,6.04-2.55,7.3-4,11.25-10.09,12.52-18.27,0.18-1.22.24-2.73,1.86-2.73h7.6c2.49,0,4.99.12,7.54,0.12,1.57,0,1.57-1.1,1.57-3.08,0-2.72.05-3.19-1.74-3.19-2.5,0-4.93.18-7.37,0.18H2718.6Zm7.89-15.2c-2.55,0-5.04-.12-7.54-0.12-1.51,0-1.56.64-1.56,3.08,0,2.2-.18,3.13,1.56,3.13,2.44,0,4.93-.12,7.43-0.12h12.64c2.5,0,4.99.12,7.43,0.12,1.62,0,1.56-.81,1.56-2.61,0-2.84.06-3.6-1.5-3.6-2.56,0-5.05.12-7.55,0.12h-12.47Zm63.69,21.52c0-1.74.29-2.03,1.51-3.19a71.347,71.347,0,0,0,5.22-5.8,2.808,2.808,0,0,1,1.68-1.28,0.768,0.768,0,0,0,.81-0.69c0-.76-1.04-1.4-1.62-1.74-0.64-.47-2.73-2.03-3.42-2.03a1.6,1.6,0,0,0-.99,1.04c-4.82,8-14.39,14.79-22.8,18.74-0.64.29-1.33,0.58-1.33,1.21,0,1.05,2.72,3.83,3.71,3.83,1.16,0,8.24-4.7,9.51-5.62a3.259,3.259,0,0,1,1.51-.82,0.771,0.771,0,0,1,.7.87v12.01c0,1.8-.12,3.66-0.12,5.45,0,1.57.18,1.86,3.42,1.86,1.11,0,2.32-.12,2.32-1.57,0-1.97-.11-3.88-0.11-5.85v-16.42Zm37.52-18.04c-2.49,0-4.99-.12-7.48-0.12-1.68,0-1.62.64-1.62,3.37,0,2.55,0,3.07,1.74,3.07,2.43,0,4.81-.11,7.25-0.11h20.65c1.04,0,2.03.11,2.03,1.21a13.329,13.329,0,0,1-.18,1.45,27.2,27.2,0,0,1-9.45,16.88,40.743,40.743,0,0,1-14.44,7.66,1.024,1.024,0,0,0-1.05.93c0,0.99,2.09,4.87,3.42,4.87a7.37,7.37,0,0,0,1.92-.52,52.745,52.745,0,0,0,11.13-5.98c9.17-6.38,13.46-14.03,15.38-24.94,0.4-2.26.87-2.84,0.87-3.36,0-.58-1.51-2.21-2.03-2.73-0.76-.75-1.57-1.8-2.79-1.8-0.81,0-3.48.12-5.1,0.12H2827.7Zm34.46-10.96c-0.64,0-2.79,1.74-2.79,2.43a1.164,1.164,0,0,0,.47.7,55.387,55.387,0,0,1,4.35,4.7,1.373,1.373,0,0,0,.75.52c0.7,0,2.73-1.86,2.73-2.67C2867.67,1393.86,2862.8,1388.93,2862.16,1388.93Zm-5.28,4.46c-0.64,0-2.78,1.8-2.78,2.44a1.5,1.5,0,0,0,.46.75,46.333,46.333,0,0,1,4.35,4.64,1.131,1.131,0,0,0,.75.53c0.76,0,2.79-1.86,2.79-2.67C2862.45,1398.38,2857.52,1393.39,2856.88,1393.39Zm30.22,21.58a1.292,1.292,0,0,1,1.33,1.39v0.12a1.292,1.292,0,0,1-1.33,1.39h-6.96a1.315,1.315,0,0,1-1.4-1.39v-0.12a1.315,1.315,0,0,1,1.4-1.39h6.96Zm0.23-6.67a1.01,1.01,0,0,1,1.1,1.1v0.64a1,1,0,0,1-1.1,1.1h-7.48a1.008,1.008,0,0,1-1.11-1.1v-0.64a1.013,1.013,0,0,1,1.11-1.1h7.48Zm-0.23-6.73a1.292,1.292,0,0,1,1.33,1.39v0.18a1.292,1.292,0,0,1-1.33,1.39h-6.96a1.315,1.315,0,0,1-1.4-1.39v-0.18a1.315,1.315,0,0,1,1.4-1.39h6.96Zm7.13,1.39a1.17,1.17,0,0,1,1.33-1.39h8.07c2.2,0,4.35.12,6.55,0.12,1.34,0,1.39-.41,1.39-2.03,0-1.68-.05-2.09-1.39-2.09-2.2,0-4.35.12-6.55,0.12h-6.96a0.83,0.83,0,0,1-.93-0.82,0.91,0.91,0,0,1,.11-0.52c0.29-.46.99-1.86,1.22-2.2a1.356,1.356,0,0,1,1.11-.53,0.636,0.636,0,0,0,.69-0.63c0-.58-0.98-0.87-1.45-0.99a36.815,36.815,0,0,0-4.87-1.39,0.757,0.757,0,0,0-.7.58,53.684,53.684,0,0,1-2.2,5.22,2.189,2.189,0,0,1-2.32,1.28h-5.74a0.818,0.818,0,0,1-.93-0.76,1.04,1.04,0,0,1,.17-0.58c0.41-.64.7-1.16,0.93-1.57,0.64-1.1.75-1.33,1.62-1.56a0.812,0.812,0,0,0,.76-0.7c0-.52-0.58-0.69-1.8-1.04a29.632,29.632,0,0,0-4.24-1.05,1,1,0,0,0-.81.76,51.021,51.021,0,0,1-10.55,14.44,2.372,2.372,0,0,0-.93,1.22c0,0.93,2.26,3.48,3.13,3.48,0.81,0,2.49-1.91,3.07-2.55a0.856,0.856,0,0,1,.53-0.23,0.568,0.568,0,0,1,.52.69v7.31c0,1.34-.06,2.67-0.06,4,0,2.09,1.22,2.32,3.02,2.32,1.5,0,3.01-.05,4.46-0.05h6.21c0.99,0,1.22.46,1.39,1.39,0,0.23.06,0.4,0.06,0.64a1.278,1.278,0,0,1-1.51,1.5h-12.7c-2.26,0-4.58-.11-6.9-0.11-1.34,0-1.34.52-1.34,2.43s0,2.44,1.34,2.44c2.32,0,4.64-.12,6.9-0.12h7.31a0.571,0.571,0,0,1,.58.47,0.513,0.513,0,0,1-.29.46,59.972,59.972,0,0,1-14.16,6.44,1.65,1.65,0,0,1-.46.12c-0.81.29-1.33,0.4-1.33,1.1,0,0.93,1.74,3.77,3.01,3.77a11.752,11.752,0,0,0,3.31-.93,56.772,56.772,0,0,0,15.14-8.64,0.953,0.953,0,0,1,.58-0.18,0.74,0.74,0,0,1,.64.82v2.78c0,1.68-.12,3.37-0.12,4.99,0,1.91.87,1.86,3.13,1.86,2.21,0,3.02,0,3.02-1.86,0-1.68-.18-3.31-0.18-4.99v-2.9a0.731,0.731,0,0,1,.64-0.81,0.829,0.829,0,0,1,.52.23,57.532,57.532,0,0,0,9.81,6.5c1.45,0.81,6.78,3.42,8.12,3.42,1.51,0,3.36-3.02,3.36-3.94a0.931,0.931,0,0,0-.87-0.82,59.566,59.566,0,0,1-15.08-6.96,0.474,0.474,0,0,1-.29-0.46,0.571,0.571,0,0,1,.58-0.47h7.66c2.32,0,4.64.12,6.9,0.12,1.39,0,1.39-.52,1.39-2.44,0-1.85,0-2.43-1.39-2.43-2.26,0-4.58.11-6.9,0.11h-13.17a0.909,0.909,0,0,1-1.1-.81,1.187,1.187,0,0,1,.58-0.98,1.233,1.233,0,0,0,.81-0.82c0-.46-0.41-0.69-1.51-0.75a0.12,0.12,0,0,1-.11-0.12c0-.05.05-0.05,0.11-0.05h12.3c2.26,0,4.47.05,6.67,0.05,1.28,0,1.33-.4,1.33-2.03,0-1.68-.05-2.08-1.39-2.08-2.2,0-4.41.11-6.61,0.11h-10.91a1.167,1.167,0,0,1-1.33-1.39v-0.12a1.17,1.17,0,0,1,1.33-1.39h5.57c2.15,0,4.24.12,6.38,0.12,1.4,0,1.4-.47,1.4-2.03,0-1.63-.06-2.03-1.4-2.03-2.14,0-4.23.11-6.38,0.11h-5.86a0.9,0.9,0,0,1-1.04-1.1v-0.64a0.919,0.919,0,0,1,1.1-1.1h5.86c2.09,0,4.18.12,6.32,0.12,1.34,0,1.4-.35,1.4-2.03,0-1.63-.06-1.98-1.4-1.98-2.14,0-4.23.12-6.32,0.12h-5.63a1.17,1.17,0,0,1-1.33-1.39v-0.18Zm67.28,29.06a1.622,1.622,0,0,1-1.62,1.63H2928.8a1.543,1.543,0,0,1-1.57-1.63v-31.43a1.436,1.436,0,0,1,1.57-1.57h31.09a1.572,1.572,0,0,1,1.62,1.57v31.43Zm-1.51,7.02a1.222,1.222,0,0,1,1.4,1.34c0,0.11-.06.29-0.06,0.4,0,1.69.69,1.63,3.19,1.63,2.43,0,3.19.06,3.19-1.63,0-2.43-.18-4.81-0.18-7.25v-31.67c0-1.8.12-3.59,0.12-5.39,0-2.5-1.28-2.96-3.48-2.96-1.86,0-3.77.11-5.63,0.11h-28.36c-1.86,0-3.77-.11-5.69-0.11-2.2,0-3.42.52-3.42,2.96,0,1.8.12,3.59,0.12,5.39v31.56c0,2.43-.18,4.87-0.18,7.31,0,1.62.7,1.62,3.19,1.62,2.44,0,3.14,0,3.14-1.62v-0.35a1.15,1.15,0,0,1,1.33-1.34H2960Zm-17.46-16.35c0-.7-2.49-4.76-3.01-5.57-0.47-.76-2.26-3.89-3.13-3.89-0.7,0-3.6,1.62-3.6,2.55a2.825,2.825,0,0,0,.52,1.11,53.829,53.829,0,0,1,4.18,7.07,1.542,1.542,0,0,0,1.27,1.16C2939.59,1425.12,2942.54,1423.73,2942.54,1422.69Zm10.39-8.94a1.336,1.336,0,0,1,1.51-1.56c0.87,0,3.13.11,3.77,0.11,1.39,0,1.33-.87,1.33-2.55,0-1.74.06-2.49-1.33-2.49-0.87,0-2.73.05-3.72,0.11-1.04-.06-1.56-0.46-1.56-1.45-0.06-1.85-.06-2.72.64-3.19a1.141,1.141,0,0,0,.69-0.81c0-.7-0.93-0.75-1.39-0.81-1.28-.12-3.37-0.35-4.58-0.35-0.53,0-.99.12-0.99,0.75,0,0.18.06,0.35,0.06,0.58a26.383,26.383,0,0,1,.17,3.66,1.355,1.355,0,0,1-1.56,1.62h-9.86c-1.8,0-3.6-.11-5.46-0.11-1.39,0-1.39.69-1.39,2.49,0,1.68-.06,2.55,1.33,2.55,1.86,0,3.72-.11,5.52-0.11h9.86a1.335,1.335,0,0,1,1.56,1.56v9.46c0,2.84.12,3.54-2.67,3.54a15.17,15.17,0,0,1-1.68-.06,5.377,5.377,0,0,0-.98-0.06,1,1,0,0,0-1.11,1.16,9.49,9.49,0,0,0,.58,3.07c0.53,1.05,1.57,1.05,2.73,1.05,3.6,0,8.64-.18,8.64-4.99,0-1.33-.11-2.61-0.11-3.94v-9.23Zm41.76-22.62c-0.58,0-.7.58-0.82,1.22a31.321,31.321,0,0,1-3.13,7.48c-0.52.7-2.09,0.76-3.59,0.76h-1.69c-1.68,0-3.19-.12-4.17-0.12-1.45,0-1.69.35-1.69,2.67,0,2.96.24,3.25,1.51,3.25,1.8,0,3.14-.18,4.06-0.18,0.82,0,1.28.18,1.28,0.7,0,1.1-8.41,12.76-9.75,14.21a2.417,2.417,0,0,0-.75,1.28c0,1.04,3.89,3.36,4.93,3.36a0.951,0.951,0,0,0,.81-0.58,38,38,0,0,1,4.88-6.79c2.26-2.32,7.59-5.1,10.84-5.1a2.4,2.4,0,0,1,2.55,1.97,7.755,7.755,0,0,1,.29,1.63,1.483,1.483,0,0,1-1.04,1.33c-1.22.58-2.44,1.22-3.6,1.91-4,2.38-8.23,5.22-8.23,10.44,0,3.95,2.26,6.73,5.8,8.3a21.538,21.538,0,0,0,9.16,1.51c2.5,0,8.94-.23,11.14-0.76,1.28-.29,1.33-0.75,1.33-2.49,0-3.31-.4-3.95-1.16-3.95a7,7,0,0,0-1.16.12,42.31,42.31,0,0,1-10.79,1.45c-2.78,0-8.41-.35-8.41-4.23,0-3.6,5.98-6.15,6.27-6.15a0.8,0.8,0,0,1,.75.98c0,1.22-.11,2.5-0.11,3.77,0,1.51,1.04,1.63,3.54,1.63,2.2,0,2.49-.23,2.49-2.32,0-1.8-.06-3.54-0.06-5.34v-0.75c0-1.16.47-1.51,1.51-1.92,2.26-.98,4.52-1.97,6.84-2.84,0.29-.11.58-0.17,0.82-0.29,1.1-.35,1.74-0.58,1.74-1.27,0-.99-1.4-5.46-2.5-5.46a4.971,4.971,0,0,0-1.51.58c-0.92.52-6.09,3.31-6.78,3.31a0.961,0.961,0,0,1-.87-0.99c-0.76-3.65-2.9-5.22-6.62-5.22a16.056,16.056,0,0,0-6.32,1.51,2.26,2.26,0,0,1-1.04.35,0.46,0.46,0,0,1-.47-0.41,18.718,18.718,0,0,1,1.98-3.36,2.044,2.044,0,0,1,1.74-.93c3.65-.41,7.3-1.04,10.96-1.8,1.22-.23,3.07-0.46,3.07-1.45a18.889,18.889,0,0,0-.46-3.13c-0.17-.81-0.46-1.74-1.45-1.74a4.27,4.27,0,0,0-1.45.35,42.669,42.669,0,0,1-6.73,1.62,0.562,0.562,0,0,1-.64-0.58,3.936,3.936,0,0,1,.58-1.33c0.76-1.34.99-1.63,1.92-1.98a0.917,0.917,0,0,0,.69-0.69C3001.18,1393.8,2995.21,1391.13,2994.69,1391.13Zm43.67,35.38a1.433,1.433,0,0,1,1.57-1.56h19.95a1.527,1.527,0,0,1,1.62,1.56v5.22a1.655,1.655,0,0,1-1.62,1.63h-19.95a1.543,1.543,0,0,1-1.57-1.63v-5.22Zm0-13.11a1.541,1.541,0,0,1,1.57-1.62h19.95a1.653,1.653,0,0,1,1.62,1.62v4.47a1.655,1.655,0,0,1-1.62,1.63h-19.95a1.543,1.543,0,0,1-1.57-1.63v-4.47Zm1.57-7.07a1.512,1.512,0,0,1-1.57-1.63v-4.17a1.543,1.543,0,0,1,1.57-1.63h19.95a1.655,1.655,0,0,1,1.62,1.63v4.17a1.615,1.615,0,0,1-1.62,1.63h-19.95Zm21.46,35.21c0,1.33.81,1.45,2.2,1.45h1.05c2.55,0,3.3.11,3.3-1.68,0-2.27-.11-4.59-0.11-6.85v-32.83c0-1.86.11-3.71,0.11-5.57,0-2.26-.93-2.96-3.13-2.96-1.68,0-3.36.12-5.05,0.12H3040.1c-1.74,0-3.42-.12-5.11-0.12-2.08,0-3.07.7-3.07,2.9,0,1.86.12,3.77,0.12,5.63v32.72c0,2.32-.18,4.64-0.18,6.9,0,1.74.87,1.68,3.31,1.68,2.55,0,3.31.06,3.31-1.68v-0.58a1.34,1.34,0,0,1,1.56-1.51h19.78a1.362,1.362,0,0,1,1.57,1.57v0.81Zm44.66-9.46a1.646,1.646,0,0,1,1.62-1.62h10.38a1.622,1.622,0,0,1,1.63,1.62v1.05a1.628,1.628,0,0,1-1.63,1.62h-10.38a1.646,1.646,0,0,1-1.62-1.62v-1.05Zm1.62-6.2a1.655,1.655,0,0,1-1.62-1.63v-0.69a1.655,1.655,0,0,1,1.62-1.63h10.38a1.63,1.63,0,0,1,1.63,1.63v0.69a1.63,1.63,0,0,1-1.63,1.63h-10.38Zm11.95,15.25a1.755,1.755,0,0,0-.06.58c0,1.34.7,1.34,2.96,1.34,2.2,0,2.9,0,2.9-1.4s-0.12-2.84-.12-4.29v-14.33c0-1.33.12-2.66,0.12-4,0-1.97-.87-2.32-2.84-2.32-0.93,0-2.09.12-3.48,0.12h-12.47c-1.4,0-2.56-.12-3.43-0.12-1.97,0-2.84.35-2.84,2.26,0,1.34.06,2.73,0.06,4.06v14.16c0,1.39-.12,2.96-0.12,4.35s0.76,1.33,2.85,1.33c2.03,0,3.01.12,3.01-1.27v-0.53a1.135,1.135,0,0,1,1.34-1.27h10.79A1.169,1.169,0,0,1,3119.62,1441.13Zm-14.33-45.07c0.06-.87.06-2.2,0.76-2.73a1.122,1.122,0,0,0,.69-0.87c0-.69-1.04-0.69-1.56-0.75-1.16-.06-3.66-0.29-4.7-0.29-0.58,0-.99.12-0.99,0.81v0.58a43.2,43.2,0,0,1,.23,4.82v6.55c0,1.22-.11,2.44-0.11,3.66,0,4.69,3.59,4.69,7.25,4.69h13.34c3.31,0,4.87-.05,6.56-3.24a17.42,17.42,0,0,0,1.68-5.57c0-1.63-3.43-2.03-4.12-2.03-1.1,0-1.16.69-1.34,1.62-0.75,4.12-2.14,4-4.11,4h-10.91c-1.97,0-2.67-.11-2.67-2.32v-1.16a1.583,1.583,0,0,1,1.51-1.85,85.138,85.138,0,0,0,15.6-4.12,2.074,2.074,0,0,1,.64-0.17,2.2,2.2,0,0,1,.81.29,2.069,2.069,0,0,0,.76.23,0.6,0.6,0,0,0,.64-0.58c0-.7-1.22-2.67-1.63-3.31-0.93-1.45-1.39-2.2-1.85-2.2a2.468,2.468,0,0,0-.87.4c-2.96,1.68-10.56,4.01-14.04,4.76a1.268,1.268,0,0,1-.47.06A1.152,1.152,0,0,1,3105.29,1396.06Zm-13.22,10.67c0.98,0,3.01.12,3.77,0.12,1.45,0,1.33-.87,1.33-2.78,0-1.98.12-2.79-1.33-2.79-1.05,0-2.61.18-3.77,0.12a1.368,1.368,0,0,1-1.57-1.63v-4.06c0-1.62.06-2.43,0.64-2.78a1.132,1.132,0,0,0,.75-0.93c0-.7-0.98-0.75-1.45-0.75-1.04-.06-3.88-0.29-4.81-0.29-0.58,0-1.16.05-1.16,0.81,0,0.17.06,0.4,0.06,0.52,0.11,1.28.17,2.55,0.17,3.83v3.65a1.365,1.365,0,0,1-1.57,1.63c-1.5.06-2.95-.12-4.35-0.12-1.45,0-1.39.7-1.39,2.79,0,2.03-.06,2.78,1.39,2.78,1.16,0,2.85-.17,4.35-0.12a1.365,1.365,0,0,1,1.57,1.63v7.95a1.8,1.8,0,0,1-1.39,2.03c-2.03.52-3.54,0.87-4.53,1.04-1.91.41-2.37,0.52-2.37,1.28,0,0.46,1.1,4.46,1.33,5.22a1.144,1.144,0,0,0,.93,1.16,0.934,0.934,0,0,0,.81-0.82,1.356,1.356,0,0,1,1.16-1.16c0.52-.17,1.33-0.46,2.61-0.87a1.445,1.445,0,0,1,.46-0.05,0.967,0.967,0,0,1,.99,1.16v7.65c0,3.02.06,3.6-2.38,3.6a17.45,17.45,0,0,1-1.8-.06,3.918,3.918,0,0,0-.81-0.06c-0.98,0-1.16.64-1.16,1.45a8.674,8.674,0,0,0,.76,3.66c0.58,0.98,2.03.98,3.07,0.98,4.29,0,8.18-.75,8.18-5.97,0-1.22-.06-2.44-0.06-3.66v-9.68a1.926,1.926,0,0,1,1.39-2.15c5.22-2.09,5.51-2.14,5.51-4.12,0-.81-0.05-3.13-1.21-3.13a37.432,37.432,0,0,0-4.24,1.68c-0.17,0-.29.06-0.46,0.06a1,1,0,0,1-.99-1.16v-6.03A1.389,1.389,0,0,1,3092.07,1406.73Zm51.79-11.42c-0.81,0-.87.58-0.87,1.45v0.64c0,2.37-.52,7.94-0.69,10.61q-0.525,6.87-.53,13.75c0,4.23.29,9.86,2.9,13.34,2.38,3.07,6.38,4.47,10.21,4.47,7.54,0,14.16-4.59,17.64-11.08,0.81-1.51,2.37-5.17,2.37-6.79,0-1.74-3.53-4.7-4.81-4.7-0.87,0-.99.99-1.16,1.92a18.317,18.317,0,0,1-3.54,8.58,14.693,14.693,0,0,1-10.9,5.63c-6.27,0-6.15-7.02-6.15-11.55,0-3.3.52-21.69,2.55-23.2a1.252,1.252,0,0,0,.7-0.87,1.213,1.213,0,0,0-1.16-.81A48.82,48.82,0,0,0,3143.86,1395.31Zm41.59,7.6c0,0.58.52,6.09,1.91,6.09a4.337,4.337,0,0,0,.87-0.12,114.588,114.588,0,0,1,12.82-2.38c0.64-.11,3.25-0.52,3.71-0.52a0.819,0.819,0,0,1,.87.7,3.869,3.869,0,0,1-1.04,1.39,25.731,25.731,0,0,0-6.38,16.65c0,11.31,8.47,14.44,18.33,14.44a1.806,1.806,0,0,0,1.68-.58,13.85,13.85,0,0,0,1.04-5.16c0-.93-0.46-0.99-1.33-0.99-0.58,0-1.86.06-2.9,0.06-5.86,0-10.21-1.63-10.21-8.35a21.723,21.723,0,0,1,2.78-10.21,17.617,17.617,0,0,1,9.92-8.65c3.25-1.16,6.21-1.16,9.63-1.21,1.34-.06,2.55.05,2.55-1.22a35.906,35.906,0,0,0-.46-4.24c-0.17-.69-0.29-1.45-1.16-1.45a2.8,2.8,0,0,0-.7.06c-4.35.7-8.81,1.28-13.16,1.8-8.47.99-16.94,1.86-25.41,2.38C3186.26,1401.57,3185.45,1401.4,3185.45,1402.91Zm82.77,2.32a0.966,0.966,0,0,0,.52.87c5.51,4.23,7.89,9.74,8.58,16.53,0.12,1.39.06,2.2,1.92,2.2a12.188,12.188,0,0,0,3.24-.52c0.99-.29,1.57-0.58,1.57-1.68,0-3.48-1.8-8.99-3.42-12.07-2.79-5.33-7.66-8.99-8.93-8.99C3270.54,1401.57,3268.22,1404.12,3268.22,1405.23Zm-26.17-3.77a0.721,0.721,0,0,0-.81.63c-0.11.53-.29,7.89-0.29,8.82,0,6.15.47,13.46,3.37,18.91,1.91,3.54,5.28,7.43,9.57,7.43,2.72,0,4.52-1.74,6.2-3.66,0.82-.93,3.43-3.94,3.43-5.05,0-1.04-2.96-3.42-4.18-3.42-0.75,0-1.22.87-1.57,1.45-0.69,1.28-2.37,3.83-4,3.83-2.03,0-3.94-3.42-4.64-5.05-1.51-3.65-1.85-8.23-1.85-12.12a43.226,43.226,0,0,1,.46-6.15c0.17-.98.23-2.14,1.04-2.78a1.013,1.013,0,0,0,.58-0.76c0-.58-0.81-0.69-1.27-0.81C3247.1,1402.56,3242.81,1401.46,3242.05,1401.46Zm67.75,28.36c1.33,0,2.73,0,2.73,1.1,0,3.13-2.27,3.89-4.93,3.89-1.51,0-4.12-.35-4.12-2.32C3303.48,1429.99,3308,1429.82,3309.8,1429.82Zm1.97-36.37c-0.52,0-.87.12-0.87,0.7a4.834,4.834,0,0,0,.12.92c0.17,0.99.52,4.88,0.52,5.81,0,1.56-1.45,1.45-6.55,1.45-2.85,0-7.72-.47-8.94-0.47-0.98,0-1.04.81-1.04,1.63,0,1.04.06,3.36,0.64,4.23,0.34,0.46,1.79.52,3.36,0.52h1.74c3.13,0,7.77-.29,9.8-0.29,1.51,0,1.57,2.38,1.57,4.06,0,1.28-.81,1.45-2.96,1.45h-2.61c-2.2,0-5.45-.29-6.15-0.29-0.81,0-.98.52-0.98,1.22a12.072,12.072,0,0,0,.75,4.06c0.47,1.05,1.57.99,3.95,0.99,2.49,0,5.74-.23,6.96-0.23,1.45,0,1.33,2.14,1.33,4,0,0.58,0,1.62-.99,1.62-0.34,0-1.68-.11-2.37-0.11-4.82,0-11.14,1.85-11.14,7.71,0,5.4,5.05,7.54,9.69,7.54,4.69,0,9.28-1.45,10.5-6.44a1.28,1.28,0,0,1,1.16-1.27c1.16,0,4.98,2.72,6.03,3.54a3.191,3.191,0,0,0,1.8.92c1.39,0,3.3-2.96,3.3-4.23,0-2.09-7.65-5.34-9.57-5.98-2.49-.81-2.72-0.34-2.72-6.38,0-1.62,1.16-1.62,3.36-1.85a51.612,51.612,0,0,0,5.97-.99c1.05-.23,1.11-0.81,1.11-2.73,0-2.2-.18-3.48-0.99-3.48a3.625,3.625,0,0,0-1.1.24,49.665,49.665,0,0,1-7.43,1.39,0.984,0.984,0,0,1-.92-0.93,18.326,18.326,0,0,1-.3-3.07c0-1.63,1.4-1.57,2.62-1.74,3.07-.35,6.67-0.87,9.68-1.51,1.1-.23,1.63-0.35,1.63-1.51,0-.99-0.18-4.76-1.45-4.76a14.267,14.267,0,0,0-2.21.47,58.6,58.6,0,0,1-6.32,1.33c-0.41.06-2.67,0.41-2.9,0.41-1.05,0-1.22-.87-1.22-1.68,0.12-4.7,1.1-3.72,1.1-4.82,0-.64-0.81-0.75-2.32-0.93C3315.37,1393.86,3312.64,1393.45,3311.77,1393.45Zm51.91,23.26c2.38,0,2.9,3.31,2.9,5.11s-0.69,4.75-3.01,4.75-2.73-3.19-2.73-4.93S3361.42,1416.71,3363.68,1416.71Zm0.29-24.59a0.654,0.654,0,0,0-.75.69,1.268,1.268,0,0,0,.06.47,50.524,50.524,0,0,1,.58,7.19,1.708,1.708,0,0,1-1.28,1.8c-0.52.11-14.15,0.87-15.72,0.93-2.84.11-3.36,0-3.36,1.16a34.751,34.751,0,0,0,.46,4.17c0.17,0.76.23,1.57,1.16,1.57a4.337,4.337,0,0,0,.87-0.12c2.78-.58,10.27-1.39,13.28-1.68,0.7-.06,3.37-0.35,3.83-0.35,0.64,0,1.05.29,1.05,2.44a0.741,0.741,0,0,1-.7.69c-5.86.53-8.18,5.63-8.18,10.97,0,4.23,1.86,9.68,6.9,9.68a5.363,5.363,0,0,0,1.34-.29,1.445,1.445,0,0,1,.46-0.05,0.439,0.439,0,0,1,.41.4,2.3,2.3,0,0,1-.29.87,18.573,18.573,0,0,1-4.18,5.63c-0.35.35-1.33,1.16-1.33,1.62,0,1.05,4.7,2.5,5.39,2.5,2.55,0,8.76-10.39,8.76-19.72a17.856,17.856,0,0,0-1.8-8.13,4.9,4.9,0,0,1-.58-3.01v-2.03a1.872,1.872,0,0,1,1.11-1.92c0.63-.17,6.03-0.23,7.07-0.23,3.25,0,7.6.29,8.41,0.29,0.58,0,1.28.06,1.28-3.48,0-2.61-.41-2.96-1.34-2.96-2.49,0-8.7.35-11.54,0.47-0.64,0-2.9.17-3.36,0.17a1.523,1.523,0,0,1-1.68-1.68c0-1.22,0-2.49.05-3.71,0.06-1.69.53-2.15,0.93-2.44a0.863,0.863,0,0,0,.35-0.64c0-.52-1.74-0.69-3.13-0.81S3365.31,1392.12,3363.97,1392.12Zm38.86,35.67a5.1,5.1,0,0,1,5.16,5.16A5.16,5.16,0,1,1,3402.83,1427.79Zm0-2.9a8.065,8.065,0,1,0,8.06,8.06A8.043,8.043,0,0,0,3402.83,1424.89Z" transform="translate(-2502.78 -1388.94)"/>
</svg>
