<svg xmlns="http://www.w3.org/2000/svg" width="498.719" height="38.53" viewBox="0 0 498.719 38.53">
  <defs>
    <style>
      .cls-1 {
        fill-rule: evenodd;
      }
    </style>
  </defs>
  <path id="をください_ぜひやりたい事" data-name="をください。 ぜひやりたい事" class="cls-1" d="M205.689,5256.65c-0.42,0-.5.42-0.588,0.88a22.954,22.954,0,0,1-2.268,5.42c-0.378.51-1.512,0.55-2.6,0.55h-1.218c-1.218,0-2.31-.09-3.024-0.09-1.05,0-1.218.26-1.218,1.94,0,2.14.168,2.35,1.092,2.35,1.3,0,2.268-.13,2.94-0.13,0.588,0,.924.13,0.924,0.51,0,0.79-6.09,9.23-7.056,10.28a1.79,1.79,0,0,0-.546.93c0,0.75,2.814,2.43,3.57,2.43a0.7,0.7,0,0,0,.588-0.42,27.645,27.645,0,0,1,3.528-4.91c1.638-1.68,5.5-3.7,7.854-3.7a1.752,1.752,0,0,1,1.848,1.43,5.8,5.8,0,0,1,.21,1.18,1.072,1.072,0,0,1-.756.96c-0.882.42-1.764,0.89-2.6,1.39-2.9,1.72-5.964,3.78-5.964,7.56a6.387,6.387,0,0,0,4.2,6.01,15.649,15.649,0,0,0,6.635,1.09,55.412,55.412,0,0,0,8.064-.55c0.924-.21.966-0.54,0.966-1.8,0-2.4-.294-2.86-0.84-2.86a5.42,5.42,0,0,0-.84.08,30.356,30.356,0,0,1-7.812,1.05c-2.015,0-6.089-.25-6.089-3.06,0-2.61,4.326-4.45,4.536-4.45a0.579,0.579,0,0,1,.546.71c0,0.88-.084,1.81-0.084,2.73,0,1.09.755,1.18,2.561,1.18,1.6,0,1.806-.17,1.806-1.68,0-1.31-.042-2.57-0.042-3.87v-0.54a1.29,1.29,0,0,1,1.092-1.39c1.638-.71,3.276-1.43,4.956-2.06a5.513,5.513,0,0,0,.588-0.21c0.8-.25,1.26-0.42,1.26-0.92,0-.72-1.008-3.95-1.806-3.95a3.37,3.37,0,0,0-1.092.42,37.085,37.085,0,0,1-4.914,2.39,0.69,0.69,0,0,1-.63-0.71c-0.546-2.64-2.1-3.78-4.787-3.78a11.618,11.618,0,0,0-4.578,1.09,1.585,1.585,0,0,1-.756.26,0.328,0.328,0,0,1-.336-0.3,13.454,13.454,0,0,1,1.428-2.43,1.488,1.488,0,0,1,1.26-.68c2.646-.29,5.291-0.75,7.937-1.3,0.882-.17,2.226-0.33,2.226-1.05a13.474,13.474,0,0,0-.336-2.27,1.243,1.243,0,0,0-1.05-1.26,3.113,3.113,0,0,0-1.05.26,30.778,30.778,0,0,1-4.871,1.17,0.405,0.405,0,0,1-.462-0.42,2.808,2.808,0,0,1,.42-0.96,2.293,2.293,0,0,1,1.386-1.43,0.688,0.688,0,0,0,.5-0.51C210.392,5258.58,206.067,5256.65,205.689,5256.65Zm46.955,3.87c-0.462-.47-1.68-1.89-2.226-1.89a1.032,1.032,0,0,0-.63.5,56.714,56.714,0,0,1-7.853,7.43,40.849,40.849,0,0,0-5.418,4.92,4.746,4.746,0,0,0-.924,2.89,6.413,6.413,0,0,0,2.016,4.46c2.058,2.43,4.368,4.7,6.636,6.97,1.722,1.76,3.486,3.53,5.081,5.42a2.55,2.55,0,0,0,1.3,1.09c1.008,0,3.57-2.4,3.57-3.4,0-.84-2.9-3.2-3.612-3.83-2.6-2.31-5.207-4.66-7.6-7.22-0.714-.76-2.1-2.27-2.1-3.32,0-.8.924-1.64,1.722-2.39,2.184-2.1,4.578-4.03,6.929-5.96q1.575-1.26,3.15-2.4a1.884,1.884,0,0,1,1.134-.5c0.294,0,.882.04,0.882-0.38C254.7,5262.45,253.022,5260.89,252.644,5260.52Zm27.721,23.81c-0.672,0-2.6,2.48-2.6,3.11,0,0.88,1.386,1.93,2.058,2.39,2.352,1.55,6.215,1.89,8.987,1.89,1.05,0,5.8-.21,6.552-0.55,0.5-.29.462-1.26,0.462-2.1,0-1.68,0-2.64-.714-2.64a1.558,1.558,0,0,0-.42.08,18.971,18.971,0,0,1-5.964.84c-2.562,0-5.753-.38-7.6-2.43A1.306,1.306,0,0,0,280.365,5284.33Zm3.15-9.62c0,0.71.21,0.92,1.049,0.92,0.546,0,1.05-.04,1.6-0.04a17.958,17.958,0,0,1,6.678,1.05,3.145,3.145,0,0,0,.882.21,0.727,0.727,0,0,0,.756-0.54,10.569,10.569,0,0,0,.8-2.94,0.781,0.781,0,0,0-.588-0.84,30.063,30.063,0,0,0-8.442-1.18C284.27,5271.35,283.515,5271.1,283.515,5274.71Zm11.843-17.3a3.524,3.524,0,0,0-2.058,1.72,0.956,0.956,0,0,0,.336.55,35.316,35.316,0,0,1,2.9,3.36,1.032,1.032,0,0,0,.63.5c0.5,0,2.058-1.26,2.058-1.89C299.222,5261.15,295.82,5257.41,295.358,5257.41Zm-17.345-.59c-0.42,0-.42.42-0.462,1.05-0.042,1.22-1.05,6.8-1.554,7.64-0.378.63-1.008,0.68-3.7,0.68-1.806,0-3.57-.17-3.948-0.17a0.6,0.6,0,0,0-.63.75,18.123,18.123,0,0,0,.336,3.07c0.252,0.8.924,0.76,1.764,0.76,1.3,0,3.15-.21,3.738-0.21a0.655,0.655,0,0,1,.756.62,6.706,6.706,0,0,1-.336,1.1c-1.638,4.45-4.788,11.76-7.434,15.54a3.084,3.084,0,0,0-.714,1.38c0,0.93,2.9,2.27,3.57,2.27,0.63,0,.966-0.59,1.512-1.6a130.434,130.434,0,0,0,7.812-18.52c0.378-1.17.5-1.38,1.722-1.63a63.655,63.655,0,0,0,6.887-1.64,1.284,1.284,0,0,0,.8-1.51c0-.63,0-3.2-0.84-3.2a2.368,2.368,0,0,0-.882.21,29.279,29.279,0,0,1-4.871,1.56,0.617,0.617,0,0,1-.63-0.63c0-.21.882-3.28,1.008-3.74a1.874,1.874,0,0,1,.966-1.47,0.623,0.623,0,0,0,.378-0.42c0-.46-1.176-0.76-1.554-0.88C281.163,5257.66,278.391,5256.82,278.013,5256.82Zm12.977,3.28c-0.378,0-2.058,1.13-2.058,1.68a1.062,1.062,0,0,0,.378.58,37.8,37.8,0,0,1,2.9,3.36,0.91,0.91,0,0,0,.588.47c0.5,0,2.058-1.22,2.058-1.85C294.854,5263.83,291.452,5260.1,290.99,5260.1Zm26.167-2.23c-0.588,0-4.074.88-4.074,1.72a1.382,1.382,0,0,0,.294.67c0.546,0.72,3.15,4.5,3.15,5.13a1,1,0,0,1-1.008.84,46.214,46.214,0,0,1-8.4.92c-0.546.04-1.008,0.09-1.008,0.76a8.126,8.126,0,0,0,.5,2.22c0.378,1.18.588,1.51,1.512,1.51a58.241,58.241,0,0,0,9.954-1.59,2.705,2.705,0,0,1,.546-0.13c0.924,0,1.218.8,1.6,1.47,0.839,1.51,1.511,2.65,2.435,4.08a1.607,1.607,0,0,1,.252.63,0.419,0.419,0,0,1-.462.37,1.547,1.547,0,0,1-.462-0.12,13.228,13.228,0,0,0-5.249-1.22c-4.7,0-8.862,3.02-8.862,8.02,0,4.96,3.948,7.48,8.316,8.57a31.93,31.93,0,0,0,7.223.97c0.882,0,1.218-.17,1.428-0.72a7.785,7.785,0,0,0,.42-2.56c0-.76-0.126-1.34-0.966-1.34-0.546,0-1.386.08-2.352,0.08-3.233,0-9.659-.88-9.659-5.21,0-2.43,2.31-3.74,4.494-3.74,3.612,0,7.895,2.1,9.953,3.53a4.016,4.016,0,0,0,1.6.88c0.882,0,2.982-1.84,2.982-2.77a1.958,1.958,0,0,0-.672-1.17,48.453,48.453,0,0,1-6.09-9.24,3.284,3.284,0,0,1-.714-1.6c0-.75.84-0.92,1.386-1.13a32.048,32.048,0,0,0,3.864-1.81c0.546-.29,1.26-0.63,1.26-1.09,0-.76-1.848-3.28-2.688-3.28a2.506,2.506,0,0,0-1.134.51c-0.8.5-3.78,2.27-4.578,2.27a1.232,1.232,0,0,1-1.133-.8c-0.882-1.64-1.68-3.28-2.6-4.87A1.078,1.078,0,0,0,317.157,5257.87Zm45.023,8.99a0.7,0.7,0,0,0,.378.63c3.99,3.06,5.712,7.05,6.216,11.97,0.084,1,.042,1.59,1.386,1.59a8.881,8.881,0,0,0,2.352-.38,1.17,1.17,0,0,0,1.134-1.21,22.952,22.952,0,0,0-2.478-8.74c-2.016-3.86-5.544-6.51-6.468-6.51C363.86,5264.21,362.18,5266.06,362.18,5266.86Zm-18.941-2.73a0.518,0.518,0,0,0-.588.46c-0.084.38-.21,5.71-0.21,6.38,0,4.45.336,9.75,2.436,13.69,1.386,2.57,3.822,5.38,6.93,5.38,1.974,0,3.276-1.26,4.494-2.65,0.588-.67,2.478-2.85,2.478-3.65,0-.76-2.142-2.48-3.024-2.48a1.661,1.661,0,0,0-1.134,1.05c-0.5.93-1.722,2.77-2.9,2.77-1.47,0-2.856-2.47-3.36-3.65a24,24,0,0,1-1.344-8.78,31.292,31.292,0,0,1,.336-4.45,3.05,3.05,0,0,1,.756-2.01,0.742,0.742,0,0,0,.42-0.55,0.955,0.955,0,0,0-.924-0.59C346.893,5264.93,343.785,5264.13,343.239,5264.13Zm39.984,19.06a3.7,3.7,0,0,1,3.738,3.74A3.738,3.738,0,1,1,383.223,5283.19Zm0-2.1a5.84,5.84,0,1,0,5.838,5.84A5.829,5.829,0,0,0,383.223,5281.09Zm48.3-18.98a0.571,0.571,0,0,0-.672.63c0,0.17.084,0.46,0.084,0.59a55.381,55.381,0,0,1,.294,6.51c0,1.01-.462,1.26-1.386,1.38-1.26.21-4.578,0.72-5.712,0.76-0.756.04-1.3,0.04-1.3,0.92,0,0.84.168,1.77,0.252,2.61,0.084,0.96.21,1.64,0.84,1.64a4,4,0,0,0,.63-0.09c0.756-.21,5.5-1.3,5.964-1.3,0.8,0,.882.76,0.882,1.39,0.084,2.6.042,6.13,0.756,8.56,1.386,4.96,6.761,5.25,11,5.25,1.134,0,7.392-.16,8.022-0.67,0.5-.42.5-2.69,0.5-3.36,0-.42-0.084-1.22-0.672-1.22-0.126,0-.294.09-0.378,0.09a41.407,41.407,0,0,1-8.148.84c-2.9,0-5.585-.17-6.341-2.86a49.6,49.6,0,0,1-.462-7.6c0-1.18.42-1.55,1.554-1.76,0.839-.17,6.257-1.14,6.761-1.14a0.7,0.7,0,0,1,.672.72v0.21c-0.294,2.26-.42,4.15-3.276,4.15-0.336,0-.714-0.04-1.05-0.04a0.736,0.736,0,0,0-.672.84,9.584,9.584,0,0,0,.546,2.94,1.18,1.18,0,0,0,1.218.59c6.174,0,7.014-3.49,7.518-8.74a1.338,1.338,0,0,1,1.512-1.51c1.932-.17,3.864-0.38,5.8-0.46,1.218-.04,1.344-0.04,1.344-1.93,0-2.31-.043-2.86-0.84-2.86-0.546,0-2.73.34-3.4,0.42-0.5.09-3.024,0.51-3.36,0.51-0.882,0-.882-0.8-0.882-1.47v-0.46c0-1.1-.042-2.19-0.042-3.28a3.915,3.915,0,0,1,.294-1.81,0.957,0.957,0,0,0,.084-0.33c0-.34-0.546-0.42-0.8-0.46a33.73,33.73,0,0,0-3.99-.63,0.568,0.568,0,0,0-.63.54,2.493,2.493,0,0,0,.084.55,30.973,30.973,0,0,1,.756,6.8c0,1.14-.462,1.35-1.512,1.51-0.8.13-6.425,1.05-6.719,1.05-0.84,0-.84-1-0.84-1.63v-1.14c0-1.22.042-2.77,0.588-3.36a1.32,1.32,0,0,0,.378-0.71,0.529,0.529,0,0,0-.5-0.46A47.5,47.5,0,0,0,431.523,5262.11Zm25.745-6.47c-0.378,0-2.142,1.01-2.142,1.56a1.308,1.308,0,0,0,.294.54c0.966,1.14,1.848,2.36,2.687,3.57a0.856,0.856,0,0,0,.588.55c0.5,0,2.142-1.09,2.142-1.72C460.837,5259.63,457.772,5255.64,457.268,5255.64Zm-4.452,2.52c-0.462,0-2.142,1.05-2.142,1.56a1.234,1.234,0,0,0,.378.63,41.456,41.456,0,0,1,2.6,3.53,0.789,0.789,0,0,0,.588.5c0.5,0,2.142-1.09,2.142-1.72a10.355,10.355,0,0,0-1.512-2.31C454.538,5259.93,453.236,5258.16,452.816,5258.16Zm23.731,1.85a1.49,1.49,0,0,0-1.05,1.01,5.974,5.974,0,0,1-3.15,2.94,22.98,22.98,0,0,1-6.552,1.3c-0.882.09-1.26,0.13-1.26,0.67a11.457,11.457,0,0,0,1.092,3.41,1.255,1.255,0,0,0,.882.88,10.158,10.158,0,0,0,1.932-.67,7.8,7.8,0,0,1,1.386-.51,0.284,0.284,0,0,1,.294.25,0.99,0.99,0,0,1-.168.38c-2.226,3.86-3.78,7.48-3.78,11.97,0,6.09,3.906,10.33,10.08,10.33a12.463,12.463,0,0,0,11.255-6.89,23.355,23.355,0,0,0,1.974-9.74c0-.63-0.084-1.26-0.084-1.93,0-.21,0-0.55.294-0.55,0.336,0,.924,1.35,1.05,1.68,0.294,0.59,1.05,2.27,1.764,2.27,0.546,0,3.4-1.34,3.4-2.27a2.455,2.455,0,0,0-.756-1.3,28.517,28.517,0,0,1-6.132-12.22c-0.126-.8-0.168-1.43-1.176-1.43-0.8,0-3.864.55-3.864,1.47a1.492,1.492,0,0,0,.126.59,26.865,26.865,0,0,1,1.848,10.62c0,3.78-.42,8.78-2.73,11.89a8.88,8.88,0,0,1-7.1,3.57c-3.99,0-5.712-2.73-5.712-6.47s1.26-6.8,3.066-9.99a29.442,29.442,0,0,1,5.417-6.85,3.224,3.224,0,0,0,1.218-1.43C480.116,5262.07,477.638,5260.01,476.547,5260.01Zm38.43-.21c-0.924,0-1.89,2.94-1.89,3.4a0.964,0.964,0,0,0,1.008.8,33.65,33.65,0,0,1,4.451,1.51,5.584,5.584,0,0,0,1.764.59c1.092,0,1.932-2.69,1.932-3.11,0-.67-1.638-1.26-2.478-1.59A34.73,34.73,0,0,0,514.977,5259.8Zm-10,21.13a2.566,2.566,0,0,0,.8-0.47c0.63-.58,3.864-3.27,4.494-3.27a1.239,1.239,0,0,1,1.008.8c2.1,4.15,4.368,8.14,6.509,12.26,0.42,0.84.714,1.55,1.3,1.55,0.8,0,3.7-1.47,3.7-2.26a5.714,5.714,0,0,0-.924-1.81c-1.05-1.64-7.391-11.97-7.391-13.1a1.32,1.32,0,0,1,.84-1.05c2.939-1.77,7.6-4.41,11-4.41,2.142,0,3.864,1.09,3.864,3.36,0,3.65-5.04,4.99-7.938,5.5-0.546.08-1.344,0.12-1.344,0.84,0,0.59,1.134,3.44,2.226,3.44a11.723,11.723,0,0,0,1.638-.29c4.83-1.22,9.912-3.91,9.912-9.58,0-4.83-3.486-7.35-8.064-7.35-4.7,0-8.988,2.27-12.935,4.62a2.085,2.085,0,0,1-1.008.38,1.1,1.1,0,0,1-1.008-.8,25.444,25.444,0,0,1-1.68-4.15,0.78,0.78,0,0,1,.084-0.34,1.85,1.85,0,0,0,.084-0.46,0.421,0.421,0,0,0-.5-0.42,6.24,6.24,0,0,0-1.386.42c-0.588.21-1.134,0.42-1.6,0.59-1.26.46-2.016,0.71-2.016,1.09a1.261,1.261,0,0,0,.42.8c0.672,0.88,3.15,4.74,3.15,5.66a1.763,1.763,0,0,1-1.05,1.31c-1.008.67-3.024,2.1-3.948,2.56a1.168,1.168,0,0,0-.882.88C502.335,5278.07,504.183,5280.93,504.981,5280.93Zm56.237-20.96a2.493,2.493,0,0,0,.084.55,40.716,40.716,0,0,1,1.47,11.71,24.841,24.841,0,0,1-1.932,10.59,15.958,15.958,0,0,1-5.712,6.55,0.977,0.977,0,0,0-.63.71c0,0.88,2.436,2.94,3.108,2.94,0.966,0,2.688-1.68,3.36-2.35,5.292-5.38,6.51-11.55,6.51-18.82a55.56,55.56,0,0,0-1.3-12.09c-0.168-.63-0.252-1.13-1.05-1.13C564.662,5258.63,561.218,5259.05,561.218,5259.97ZM549,5260.6c-0.294-.13-2.142-0.88-2.268-0.88-0.378,0-.5.75-0.546,1.05-0.168,1.05-.462,2.06-0.714,3.11a39.365,39.365,0,0,0-.966,8.6,34.892,34.892,0,0,0,1.386,9.79c0.252,0.8.546,1.55,1.47,1.55,0.8,0,3.024-.5,3.024-1.68,0-.29-0.084-0.75-0.084-1.34a16.563,16.563,0,0,1,1.386-5.21l0.378-1.01c0.378-1,1.008-2.47,1.008-2.6,0-.55-1.26-1.3-1.638-1.3-0.5,0-1.26,1.8-1.47,2.27a1.6,1.6,0,0,1-.756,1.09c-0.462,0-.42-1.81-0.42-2.14a22.211,22.211,0,0,1,.546-4.71,16.529,16.529,0,0,1,1.218-3.52,1.867,1.867,0,0,1,.8-0.84,0.754,0.754,0,0,0,.5-0.55C551.853,5261.82,549.921,5261.02,549,5260.6Zm42.545,23.73c-0.672,0-2.6,2.48-2.6,3.11,0,0.88,1.385,1.93,2.057,2.39,2.352,1.55,6.216,1.89,8.988,1.89,1.05,0,5.8-.21,6.552-0.55,0.5-.29.462-1.26,0.462-2.1,0-1.68,0-2.64-.714-2.64a1.558,1.558,0,0,0-.42.08,18.971,18.971,0,0,1-5.964.84c-2.562,0-5.754-.38-7.6-2.43A1.306,1.306,0,0,0,591.542,5284.33Zm3.15-9.62c0,0.71.21,0.92,1.05,0.92,0.546,0,1.05-.04,1.6-0.04a18.811,18.811,0,0,1,6.678,1.05,2.189,2.189,0,0,0,.882.21,0.727,0.727,0,0,0,.756-0.54,10.569,10.569,0,0,0,.8-2.94,0.781,0.781,0,0,0-.588-0.84,30.063,30.063,0,0,0-8.442-1.18C595.448,5271.35,594.692,5271.1,594.692,5274.71Zm-5.5-17.89c-0.42,0-.42.42-0.462,1.05-0.042,1.22-1.05,6.8-1.554,7.64-0.378.63-1.008,0.68-3.7,0.68-1.806,0-3.57-.17-3.948-0.17a0.6,0.6,0,0,0-.63.75,18.123,18.123,0,0,0,.336,3.07c0.252,0.8.924,0.76,1.764,0.76,1.3,0,3.15-.21,3.738-0.21a0.655,0.655,0,0,1,.756.62,6.706,6.706,0,0,1-.336,1.1c-1.638,4.45-4.788,11.76-7.434,15.54a3.084,3.084,0,0,0-.714,1.38c0,0.93,2.9,2.27,3.57,2.27,0.63,0,.966-0.59,1.512-1.6a130.434,130.434,0,0,0,7.812-18.52c0.378-1.17.5-1.38,1.721-1.63a63.673,63.673,0,0,0,6.888-1.64,1.284,1.284,0,0,0,.8-1.51c0-.63,0-3.2-0.84-3.2a2.368,2.368,0,0,0-.882.21,29.289,29.289,0,0,1-4.872,1.56,0.617,0.617,0,0,1-.63-0.63c0-.21.882-3.28,1.008-3.74a1.874,1.874,0,0,1,.966-1.47,0.623,0.623,0,0,0,.378-0.42c0-.46-1.176-0.76-1.554-0.88C592.34,5257.66,589.569,5256.82,589.191,5256.82Zm46.787,10.04a0.7,0.7,0,0,0,.378.63c3.99,3.06,5.712,7.05,6.216,11.97,0.084,1,.042,1.59,1.386,1.59a8.881,8.881,0,0,0,2.352-.38,1.17,1.17,0,0,0,1.134-1.21,22.952,22.952,0,0,0-2.478-8.74c-2.016-3.86-5.544-6.51-6.468-6.51C637.658,5264.21,635.978,5266.06,635.978,5266.86Zm-18.941-2.73a0.518,0.518,0,0,0-.588.46c-0.084.38-.21,5.71-0.21,6.38,0,4.45.336,9.75,2.436,13.69,1.386,2.57,3.822,5.38,6.93,5.38,1.974,0,3.275-1.26,4.493-2.65,0.588-.67,2.478-2.85,2.478-3.65,0-.76-2.142-2.48-3.024-2.48a1.658,1.658,0,0,0-1.133,1.05c-0.5.93-1.722,2.77-2.9,2.77-1.47,0-2.856-2.47-3.36-3.65a24,24,0,0,1-1.344-8.78,31.292,31.292,0,0,1,.336-4.45,3.05,3.05,0,0,1,.756-2.01,0.742,0.742,0,0,0,.42-0.55,0.955,0.955,0,0,0-.924-0.59C620.691,5264.93,617.583,5264.13,617.037,5264.13Zm57.5,5.08a0.971,0.971,0,0,1,1.008-1.01h4.242a0.971,0.971,0,0,1,1.008,1.01v0.25a0.971,0.971,0,0,1-1.008,1.01h-4.242a0.971,0.971,0,0,1-1.008-1.01v-0.25Zm-5.375-1.01a0.971,0.971,0,0,1,1.008,1.01v0.25a0.971,0.971,0,0,1-1.008,1.01h-4.242a0.971,0.971,0,0,1-1.008-1.01v-0.25a0.971,0.971,0,0,1,1.008-1.01h4.242Zm11.885,14.15a0.835,0.835,0,0,1,.8.8v0.21a0.748,0.748,0,0,1-.8.8h-5.712a0.748,0.748,0,0,1-.8-0.8v-0.21a0.835,0.835,0,0,1,.8-0.8h5.712Zm-6.51-3.65a0.828,0.828,0,0,1,.8-0.8h5.712a0.828,0.828,0,0,1,.8.8v0.17a0.753,0.753,0,0,1-.8.8h-5.712a0.753,0.753,0,0,1-.8-0.8v-0.17Zm11.676-.17c0-.59.084-1.22,0.084-1.85,0-1.3-.672-1.68-1.89-1.68-1.134,0-2.268.09-3.4,0.09h-5.67a0.68,0.68,0,0,1-.8-0.8v-0.21a0.68,0.68,0,0,1,.8-0.8h3.486c1.3,0,2.562.04,3.822,0.04,0.966,0,2.352-.08,2.352-1.34,0-.42-0.084-0.8-0.084-1.51v-2.27c0-.71.084-1.09,0.084-1.51,0-1.3-1.428-1.39-2.394-1.39-1.26,0-2.52.09-3.78,0.09h-3.486a0.68,0.68,0,0,1-.8-0.8v-0.25a0.68,0.68,0,0,1,.8-0.8h8.526c1.722,0,3.486.08,5.208,0.08,0.966,0,.923-0.5.923-1.63s0.043-1.6-.923-1.6c-1.722,0-3.444.08-5.208,0.08H675.71a0.981,0.981,0,0,1-1.134-1.17,1.311,1.311,0,0,1,.42-1.22,0.834,0.834,0,0,0,.5-0.59c0-.5-0.714-0.5-1.134-0.54-0.672-.09-3.108-0.34-3.654-0.34-0.42,0-.755.08-0.755,0.59,0,0.08.042,0.25,0.042,0.38,0.084,0.58.125,1.17,0.168,1.76a1.012,1.012,0,0,1-1.176,1.13H660.8c-1.722,0-3.486-.08-5.208-0.08-0.924,0-.924.42-0.924,1.6s0,1.63.924,1.63c1.764,0,3.486-.08,5.208-0.08h8.568a0.68,0.68,0,0,1,.8.8v0.25a0.694,0.694,0,0,1-.8.8h-3.486c-1.26,0-2.52-.09-3.78-0.09-0.966,0-2.394.09-2.394,1.39,0,0.42.084,0.8,0.084,1.51v2.27c0,0.71-.084,1.09-0.084,1.51,0,1.26,1.428,1.34,2.394,1.34,1.26,0,2.52-.04,3.78-0.04h3.486a0.694,0.694,0,0,1,.8.8v0.21a0.694,0.694,0,0,1-.8.8h-8.652c-1.05,0-2.142-.09-3.192-0.09-0.714,0-.714.38-0.714,1.47,0,1.14,0,1.52.756,1.52,1.05,0,2.1-.09,3.15-0.09h8.652a0.694,0.694,0,0,1,.8.8v0.21a0.668,0.668,0,0,1-.8.76h-9.45c-1.764,0-3.57-.05-5.334-0.05-0.882,0-.84.51-0.84,1.39s-0.042,1.43.8,1.43c1.806,0,3.612-.09,5.376-0.09h9.45a0.7,0.7,0,0,1,.8.8v0.25a0.668,0.668,0,0,1-.8.76h-6.552c-1.68,0-3.4-.04-5.124-0.04-0.966,0-1.008.29-1.008,1.47s0.042,1.51,1.008,1.51c1.722,0,3.444-.08,5.124-0.08h6.174a1,1,0,0,1,1.176,1.09c-0.084,1.64-.252,2.18-2.352,2.18-1.008,0-1.806-.17-2.352-0.17a0.772,0.772,0,0,0-.8.97c0,3.32,1.386,3.11,2.562,3.11,3.065,0,7.391-.09,7.391-4.16,0-.42,0-1.51-0.042-1.93a0.956,0.956,0,0,1,1.134-1.09h5.46a0.72,0.72,0,0,1,.672.5c0.21,0.5.8,0.5,2.058,0.5,1.764,0,2.436.05,2.436-.96,0-.8-0.126-1.89-0.126-2.98v-0.55a0.982,0.982,0,0,1,1.134-1.13c0.882,0,1.764.04,2.645,0.04,0.84,0,.84-0.46.84-1.43,0-.88.042-1.39-0.84-1.39s-1.763,0-2.687.05A1.034,1.034,0,0,1,686.21,5278.53Z" transform="translate(-192.125 -5255.66)"/>
</svg>
