<svg xmlns="http://www.w3.org/2000/svg" width="422.655" height="34.57" viewBox="0 0 422.655 34.57">
  <defs>
    <style>
      .cls-1 {
        fill-rule: evenodd;
      }
    </style>
  </defs>
  <path id="_OOKINAWA_おおきなわ_は_" data-name="「OOKINAWA（おおきなわ）」は、" class="cls-1" d="M998.562,1133.31c-0.576,0-1.153-.07-1.693-0.07-1.225,0-1.729.32-1.729,1.58,0,1.19.072,2.35,0.072,3.54v22.8c0,1.48-.072,2.96-0.072,4.43,0,1.37.108,1.44,1.729,1.44,1.585,0,1.729-.03,1.729-1.4,0-1.48-.072-2.99-0.072-4.47v-22.95c0-1.01.144-1.58,1.3-1.58h5.407c0.57,0,1.19.1,1.8,0.1,1.01,0,1.01-.46,1.01-1.8,0-1.19.03-1.73-.97-1.73-0.73,0-1.52.11-2.35,0.11h-6.158Zm28.958,16.21a16.242,16.242,0,0,0-.27-2.7,9.294,9.294,0,0,0-.75-2.36,7.561,7.561,0,0,0-1.5-2.07,9.181,9.181,0,0,0-6.91-2.81,9.273,9.273,0,0,0-6.96,2.81,7.518,7.518,0,0,0-1.49,2.07,8.9,8.9,0,0,0-.74,2.36,18.78,18.78,0,0,0-.25,2.7c-0.03.97-.04,2-0.04,3.1s0.01,2.14.04,3.1a18.78,18.78,0,0,0,.25,2.7,8.783,8.783,0,0,0,.74,2.36,7.233,7.233,0,0,0,1.49,2.07,9.7,9.7,0,0,0,3.06,2.09,9.9,9.9,0,0,0,3.9.72,9.75,9.75,0,0,0,3.87-.72,9.509,9.509,0,0,0,3.04-2.09,7.273,7.273,0,0,0,1.5-2.07,9.169,9.169,0,0,0,.75-2.36,16.242,16.242,0,0,0,.27-2.7c0.03-.96.04-1.99,0.04-3.1S1027.55,1150.49,1027.52,1149.52Zm-5.02,6.15a15.423,15.423,0,0,1-.2,2,4.839,4.839,0,0,1-.4,1.28,4.073,4.073,0,0,1-.61.88,4.01,4.01,0,0,1-1.35.99,4.368,4.368,0,0,1-1.85.38,4.508,4.508,0,0,1-1.88-.38,4,4,0,0,1-1.37-.99,3.666,3.666,0,0,1-.59-0.88,5.3,5.3,0,0,1-.38-1.28,15.423,15.423,0,0,1-.2-2c-0.03-.81-0.05-1.82-0.05-3.05s0.02-2.24.05-3.04a15.237,15.237,0,0,1,.2-2,5.035,5.035,0,0,1,.38-1.28,3.479,3.479,0,0,1,.59-0.88,4,4,0,0,1,1.37-.99,4.357,4.357,0,0,1,1.88-.38,4.221,4.221,0,0,1,1.85.38,4.01,4.01,0,0,1,1.35.99,3.843,3.843,0,0,1,.61.88,4.609,4.609,0,0,1,.4,1.28,15.237,15.237,0,0,1,.2,2c0.03,0.8.05,1.82,0.05,3.04S1022.53,1154.86,1022.5,1155.67Zm27.86-6.15a16.242,16.242,0,0,0-.27-2.7,9.294,9.294,0,0,0-.75-2.36,7.561,7.561,0,0,0-1.5-2.07,9.181,9.181,0,0,0-6.91-2.81,9.315,9.315,0,0,0-6.96,2.81,7.518,7.518,0,0,0-1.49,2.07,8.9,8.9,0,0,0-.74,2.36,18.78,18.78,0,0,0-.25,2.7c-0.03.97-.04,2-0.04,3.1s0.01,2.14.04,3.1a18.78,18.78,0,0,0,.25,2.7,8.783,8.783,0,0,0,.74,2.36,7.233,7.233,0,0,0,1.49,2.07,9.629,9.629,0,0,0,3.07,2.09,10.814,10.814,0,0,0,7.76,0,9.509,9.509,0,0,0,3.04-2.09,7.273,7.273,0,0,0,1.5-2.07,9.169,9.169,0,0,0,.75-2.36,16.242,16.242,0,0,0,.27-2.7c0.03-.96.04-1.99,0.04-3.1S1050.39,1150.49,1050.36,1149.52Zm-5.02,6.15a15.423,15.423,0,0,1-.2,2,4.839,4.839,0,0,1-.4,1.28,4.073,4.073,0,0,1-.61.88,4.01,4.01,0,0,1-1.35.99,4.368,4.368,0,0,1-1.85.38,4.508,4.508,0,0,1-1.88-.38,3.9,3.9,0,0,1-1.96-1.87,5.3,5.3,0,0,1-.38-1.28,15.423,15.423,0,0,1-.2-2c-0.03-.81-0.05-1.82-0.05-3.05s0.02-2.24.05-3.04a15.237,15.237,0,0,1,.2-2,5.035,5.035,0,0,1,.38-1.28,3.766,3.766,0,0,1,.59-0.88,4,4,0,0,1,1.37-.99,4.357,4.357,0,0,1,1.88-.38,4.221,4.221,0,0,1,1.85.38,4.01,4.01,0,0,1,1.35.99,3.843,3.843,0,0,1,.61.88,4.609,4.609,0,0,1,.4,1.28,15.237,15.237,0,0,1,.2,2c0.04,0.8.05,1.82,0.05,3.04S1045.38,1154.86,1045.34,1155.67Zm30.57,9.78-9.12-15.46,8.5-10.19h-6.08l-9.05,11.17V1139.8h-5v25.65h5v-7.71l3.32-3.96,6.59,11.67h5.84Zm11.45,0V1139.8h-5v25.65h5Zm28.86,0V1139.8h-5.01v15.7l-10.16-15.7h-4.46v25.65h5V1149.7l10.16,15.75h4.47Zm29.04,0-9.37-25.65h-3.93l-9.33,25.65h5.23l1.54-4.54h9.12l1.51,4.54h5.23Zm-8.07-8.76h-6.38l3.24-9.33Zm39.62-16.89h-5.22l-4,16.17-4.68-16.17h-3.75l-4.68,16.17-3.96-16.17h-5.23l6.85,25.65h4.18l4.71-15.57,4.72,15.57h4.18Zm21.22,25.65-9.36-25.65h-3.93l-9.33,25.65h5.22l1.55-4.54h9.12l1.51,4.54h5.22Zm-8.07-8.76h-6.37l3.24-9.33Zm22.17,8.9a1.462,1.462,0,0,0,.9.62,2.132,2.132,0,0,0,1.54-1.37,1.075,1.075,0,0,0-.4-0.65,16.133,16.133,0,0,1,0-23.14,1.015,1.015,0,0,0,.4-0.67,2.16,2.16,0,0,0-1.57-1.34,1.746,1.746,0,0,0-.92.67A18.361,18.361,0,0,0,1212.13,1165.59Zm25.97-18.47a8.437,8.437,0,0,0-2.09-1.45,3.418,3.418,0,0,0-1.68,1.81,0.965,0.965,0,0,0,.5.67,43.046,43.046,0,0,1,3.72,3.13,1.135,1.135,0,0,0,.61.34,3.045,3.045,0,0,0,1.76-1.9,8.873,8.873,0,0,0-2.15-2.07C1238.55,1147.48,1238.32,1147.29,1238.1,1147.12Zm-13.13,11.07c0,0.11.02,0.25,0.02,0.39,0,0.05.06,1.2,0.06,1.23a0.184,0.184,0,0,1-.2.22,0.507,0.507,0,0,1-.33-0.17,6.771,6.771,0,0,0-1.43-.86,0.625,0.625,0,0,0-.61.56,0.837,0.837,0,0,0,.33.53,5.622,5.622,0,0,1,1.71,2.18,1.312,1.312,0,0,0,1.03,1.06c0.76,0,2.46-.67,2.46-2.04,0-.28-0.19-2.8-0.25-3.38-0.03-.4-0.08-1.51-0.08-1.85a0.935,0.935,0,0,1,.44-0.86,10.836,10.836,0,0,1,4.92-1.35c1.57,0,3.36.87,3.36,2.63,0,2.04-2.38,2.57-4,2.57a22.105,22.105,0,0,1-2.29-.25c-0.42,0-.5.36-0.5,0.73a5.449,5.449,0,0,0,.44,2.01,1.459,1.459,0,0,0,1.18.31h0.33c1.68,0,4.19-.28,5.62-1.26a4.925,4.925,0,0,0,2.23-4.16c0-3.36-2.99-5.29-6.09-5.29a13.054,13.054,0,0,0-4.64.93,2.691,2.691,0,0,1-.7.25c-0.36,0-.41-0.62-0.41-1.09v-0.39c0-1.29.05-1.49,1.09-1.68,2.12-.36,2.59-0.36,2.59-1.09,0-.48-0.08-2.29-0.72-2.29a1.457,1.457,0,0,0-.48.14c-0.28.08-1.56,0.47-1.76,0.47a0.483,0.483,0,0,1-.47-0.47c0-.11.02-0.28,0.02-0.39,0.03-.26.06-0.48,0.09-0.65a1.808,1.808,0,0,1,.53-1.53,0.8,0.8,0,0,0,.28-0.45,0.571,0.571,0,0,0-.56-0.36c-0.56-.12-2.43-0.51-2.85-0.51a0.353,0.353,0,0,0-.36.42c0,0.11.05,0.76,0.05,1.32,0,0.78-.03,1.56-0.05,2.34a1.108,1.108,0,0,1-.23.84,1.493,1.493,0,0,1-1.03.34c-0.87.11-1.85,0.16-2.71,0.19-0.53.03-.59,0.14-0.59,0.9,0,2.04.45,2.06,0.81,2.06,0.42,0,2.32-.33,2.85-0.44,0.06,0,.11-0.03.17-0.03a0.607,0.607,0,0,1,.61.64v0.28c0,0.42-.02.84-0.02,1.26v0.95c0,0.87-.12.89-1.18,1.54-1.53.95-3.02,1.95-4.58,2.85a0.844,0.844,0,0,0-.64.58c0,0.56,1.11,2.66,1.67,2.66a0.9,0.9,0,0,0,.42-0.22,35.454,35.454,0,0,1,4.14-3.11C1224.94,1157.4,1224.94,1157.68,1224.97,1158.19Zm38.57-11.07a8.455,8.455,0,0,0-2.1-1.45,3.418,3.418,0,0,0-1.68,1.81,0.951,0.951,0,0,0,.51.67,41.449,41.449,0,0,1,3.71,3.13,1.162,1.162,0,0,0,.62.34,3.045,3.045,0,0,0,1.76-1.9,9.069,9.069,0,0,0-2.15-2.07C1263.98,1147.48,1263.76,1147.29,1263.54,1147.12Zm-13.14,11.07c0,0.11.03,0.25,0.03,0.39,0,0.05.06,1.2,0.06,1.23a0.184,0.184,0,0,1-.2.22,0.554,0.554,0,0,1-.34-0.17,6.723,6.723,0,0,0-1.42-.86,0.635,0.635,0,0,0-.62.56,0.851,0.851,0,0,0,.34.53,5.507,5.507,0,0,1,1.7,2.18,1.323,1.323,0,0,0,1.04,1.06c0.75,0,2.46-.67,2.46-2.04,0-.28-0.2-2.8-0.25-3.38-0.03-.4-0.09-1.51-0.09-1.85a0.923,0.923,0,0,1,.45-0.86,10.8,10.8,0,0,1,4.92-1.35c1.56,0,3.35.87,3.35,2.63,0,2.04-2.37,2.57-3.99,2.57a22.4,22.4,0,0,1-2.3-.25c-0.42,0-.5.36-0.5,0.73a5.458,5.458,0,0,0,.45,2.01,1.435,1.435,0,0,0,1.17.31H1257c1.67,0,4.19-.28,5.61-1.26a4.911,4.911,0,0,0,2.24-4.16c0-3.36-2.99-5.29-6.09-5.29a13.054,13.054,0,0,0-4.64.93,2.826,2.826,0,0,1-.7.25c-0.36,0-.42-0.62-0.42-1.09v-0.39c0-1.29.06-1.49,1.09-1.68,2.12-.36,2.6-0.36,2.6-1.09,0-.48-0.08-2.29-0.73-2.29a1.4,1.4,0,0,0-.47.14c-0.28.08-1.57,0.47-1.76,0.47a0.492,0.492,0,0,1-.48-0.47c0-.11.03-0.28,0.03-0.39,0.03-.26.06-0.48,0.08-0.65a1.838,1.838,0,0,1,.54-1.53,0.787,0.787,0,0,0,.27-0.45,0.567,0.567,0,0,0-.55-0.36c-0.56-.12-2.44-0.51-2.85-0.51a0.36,0.36,0,0,0-.37.42c0,0.11.06,0.76,0.06,1.32,0,0.78-.03,1.56-0.06,2.34a1.145,1.145,0,0,1-.22.84,1.5,1.5,0,0,1-1.04.34c-0.86.11-1.84,0.16-2.71,0.19-0.53.03-.58,0.14-0.58,0.9,0,2.04.44,2.06,0.81,2.06,0.42,0,2.32-.33,2.85-0.44,0.05,0,.11-0.03.17-0.03a0.607,0.607,0,0,1,.61.64v0.28c0,0.42-.03.84-0.03,1.26v0.95c0,0.87-.11.89-1.17,1.54-1.54.95-3.02,1.95-4.58,2.85a0.861,0.861,0,0,0-.65.58c0,0.56,1.12,2.66,1.68,2.66a0.9,0.9,0,0,0,.42-0.22,35.4,35.4,0,0,1,4.13-3.11C1250.37,1157.4,1250.37,1157.68,1250.4,1158.19Zm28.2-17.36c-0.47,0-2.43.39-2.43,0.98a2.276,2.276,0,0,0,.34.73,7.57,7.57,0,0,1,.78,1.7,0.679,0.679,0,0,1-.73.64,16.169,16.169,0,0,1-2.15.28c-0.39.03-1.12,0-1.12,0.59a6.79,6.79,0,0,0,.48,1.79,0.592,0.592,0,0,0,.61.47,26.022,26.022,0,0,0,3.19-.5c0.2-.03.73-0.17,0.87-0.17,0.56,0,1.06,1.57,1.06,1.62a0.687,0.687,0,0,1-.62.53,27.96,27.96,0,0,1-5.95.95c-0.73.06-1.23,0-1.23,0.54a7.122,7.122,0,0,0,.34,1.7,0.732,0.732,0,0,0,.72.7,43.825,43.825,0,0,0,7.44-1.4,0.97,0.97,0,0,1,.39-0.08,0.87,0.87,0,0,1,.75.67,20.341,20.341,0,0,1,1.06,2.04,0.248,0.248,0,0,1-.25.25,1.007,1.007,0,0,1-.28-0.06,8.648,8.648,0,0,0-2.76-.47c-2.83,0-5.31,1.51-5.31,4.55a4.779,4.779,0,0,0,3.35,4.5,14.686,14.686,0,0,0,5.39.73c1.32,0,1.6-.06,1.6-1.79,0-.81-0.11-1.28-0.67-1.28a6.907,6.907,0,0,0-.81.05,10.956,10.956,0,0,1-1.71.14c-1.51,0-4.36-.45-4.36-2.46,0-1.45,1.59-1.9,2.77-1.9a7.439,7.439,0,0,1,5.14,1.99,0.578,0.578,0,0,0,.45.22c0.61,0,2.26-1.17,2.26-1.82a2.946,2.946,0,0,0-.67-1.2c-0.5-.64-2.82-4.25-2.82-4.86a0.923,0.923,0,0,1,.78-0.76c0.76-.3,1.51-0.64,2.24-1,0.56-.31,1.17-0.56,1.17-0.98s-0.95-2.15-1.43-2.15a1.569,1.569,0,0,0-.67.31,13.921,13.921,0,0,1-3.32,1.62c-0.34,0-.53-0.37-0.84-1.15a1,1,0,0,1-.14-0.42,0.716,0.716,0,0,1,.64-0.56,20.266,20.266,0,0,0,2.02-.92,0.927,0.927,0,0,0,.58-0.67c0-.48-0.72-2.18-1.23-2.18a2.694,2.694,0,0,0-.7.28,9.761,9.761,0,0,1-2.15.95c-0.56,0-.72-0.59-0.95-1.23C1279.33,1141.28,1279.27,1140.83,1278.6,1140.83Zm27.62,18.36c1.4,0,1.42.31,1.42,0.87a1.3,1.3,0,0,1-1.45,1.51c-0.73,0-1.84-.45-1.84-1.32C1304.35,1159.36,1305.55,1159.19,1306.22,1159.19Zm1.37-9.86a0.56,0.56,0,0,0-.67.61c0,0.14.03,0.25,0.03,0.39,0.08,1.09.5,5.14,0.5,6.04a0.491,0.491,0,0,1-.59.47h-0.72c-2.21,0-4.64.9-4.64,3.47,0,2.6,2.65,3.8,4.91,3.8,1.91,0,3.55-.7,3.89-2.74a0.616,0.616,0,0,1,.45-0.64,8.2,8.2,0,0,1,2.23,1.28,1.463,1.463,0,0,0,.73.4c0.7,0,1.73-1.6,1.73-2.04,0-.68-3.3-2.21-3.94-2.46-0.08-.03-0.19-0.09-0.28-0.12a1.066,1.066,0,0,1-.86-0.69c-0.14-.59-0.28-4.62-0.28-5.43,0-.58.05-1.42,0.05-1.48a0.62,0.62,0,0,0-.56-0.58A10.858,10.858,0,0,0,1307.59,1149.33Zm4.27-4.31a3.624,3.624,0,0,0-1.87,1.93,0.726,0.726,0,0,0,.37.45,16.108,16.108,0,0,1,3.49,3.6,0.912,0.912,0,0,0,.61.51c0.51,0,2.1-1.26,2.1-1.93C1316.56,1148.85,1312.56,1145.02,1311.86,1145.02Zm-9.39-4.55c-0.25,0-.25.28-0.25,0.47a17.033,17.033,0,0,1-.89,4.7,0.946,0.946,0,0,1-.84.44,23.144,23.144,0,0,1-2.88.14h-1.28a0.414,0.414,0,0,0-.51.45c0,0.28.14,1.29,0.2,1.62,0.11,0.65.22,0.9,0.7,0.9,0.64,0,2.79-.28,3.02-0.28a0.372,0.372,0,0,1,.39.36,11.266,11.266,0,0,1-.65,1.71,51.7,51.7,0,0,1-3.32,6.45,3.075,3.075,0,0,0-.5,1.01c0,0.58,1.87,1.39,2.48,1.39a0.558,0.558,0,0,0,.56-0.39,71.05,71.05,0,0,0,4.56-9.95c0.33-.92.3-1.11,1.31-1.28,2.57-.48,2.91-0.53,2.91-1.15a14.808,14.808,0,0,0-.14-1.48c-0.06-.33-0.09-0.84-0.42-0.84a0.875,0.875,0,0,0-.28.06,14.528,14.528,0,0,1-1.59.42,0.325,0.325,0,0,1-.31-0.36,8.205,8.205,0,0,1,.31-1.26,4.536,4.536,0,0,1,.5-1.48,0.833,0.833,0,0,0,.45-0.51,0.566,0.566,0,0,0-.45-0.33C1305.1,1141.14,1302.78,1140.47,1302.47,1140.47Zm23.79,0.42a0.34,0.34,0,0,0-.42.39c0,0.19.03,0.5,0.03,0.89,0,0.95-.06,1.9-0.06,2.85a2.573,2.573,0,0,1-.14,1.15,1.04,1.04,0,0,1-.86.47,15.829,15.829,0,0,1-3.08.28h-0.39c-0.36,0-.64.06-0.64,0.48a11.457,11.457,0,0,0,.45,2.12,0.765,0.765,0,0,0,.64.67,29.033,29.033,0,0,0,2.96-.67,2.29,2.29,0,0,1,.48-0.08,0.5,0.5,0,0,1,.44.59v0.36a2.409,2.409,0,0,1-.16,1.09,27.06,27.06,0,0,1-4.73,6.23,2.054,2.054,0,0,0-.7.95,4.272,4.272,0,0,0,2.1,2.15,0.569,0.569,0,0,0,.42-0.39c0.42-.64,1.57-2.09,2.1-2.74a1.067,1.067,0,0,1,.55-0.44,0.361,0.361,0,0,1,.28.44c0,0.9,0,1.82-.02,2.71,0,0.14-.06,1.34-0.09,2.21,0,0.14-.03.67-0.03,0.9,0,0.55.37,0.58,1.18,0.58,1.84,0,2.09-.17,2.09-0.47s-0.16-2.96-.19-3.75c-0.09-1.62-.11-3.27-0.11-4.92a1.575,1.575,0,0,1,.33-1.11c1.48-1.82,4.73-3.97,7.1-3.97a3.851,3.851,0,0,1,3.66,4.11c0,3.66-3.74,5.28-6.79,5.98a0.668,0.668,0,0,0-.73.64c0,0.59.76,2.32,1.54,2.32a8.366,8.366,0,0,0,2.29-.67c3.64-1.48,6.79-4.17,6.79-8.39a6.637,6.637,0,0,0-6.51-6.87c-2.85,0-5.03,1.54-7.1,3.32a0.742,0.742,0,0,1-.36.26c-0.14,0-.17-0.17-0.17-0.45a6.381,6.381,0,0,1,1.37-2.15,1.18,1.18,0,0,0,.39-0.59,3.735,3.735,0,0,0-1.09-1.51c-0.3-.05-0.42-0.11-0.42-0.42,0-.33.14-1.62,0.2-2.01,0.11-1.17.17-1.15,0.5-1.48a0.53,0.53,0,0,0,.2-0.36,0.425,0.425,0,0,0-.34-0.34C1328.89,1141.17,1326.65,1140.89,1326.26,1140.89Zm19.93-1.23a1.449,1.449,0,0,0-.89-0.62,2.115,2.115,0,0,0-1.54,1.37,1.011,1.011,0,0,0,.39.64,16.133,16.133,0,0,1,0,23.14,1.091,1.091,0,0,0-.39.67,2.154,2.154,0,0,0,1.56,1.35,1.764,1.764,0,0,0,.93-0.67A18.348,18.348,0,0,0,1346.19,1139.66Zm19.05,26.68c0.54,0,1.12.07,1.7,0.07,1.19,0,1.69-.32,1.69-1.58,0-1.19-.07-2.34-0.07-3.53v-22.81c0-1.48.07-2.95,0.07-4.43,0-1.37-.07-1.44-1.73-1.44-1.55,0-1.73.03-1.73,1.33,0,1.51.07,3.03,0.07,4.54v22.95c0,1.01-.14,1.59-1.29,1.59h-5.37c-0.62,0-1.23-.11-1.84-0.11-1.01,0-.97.5-0.97,1.87,0,1.16,0,1.66.93,1.66,0.72,0,1.52-.11,2.38-0.11h6.16Zm29.98-5.68c0,1.47-.9,1.98-2.27,1.98-0.9,0-2.63-.4-2.63-1.55,0-1.12,1.76-1.41,2.59-1.41C1393.6,1159.68,1395.22,1159.72,1395.22,1160.66Zm-0.72-21.84a0.447,0.447,0,0,0-.51.51c0,0.1.04,0.25,0.04,0.36,0.14,0.9.43,4.39,0.43,5.15,0,0.79-.83.86-1.69,0.86h-0.58c-1.87,0-5.08-.36-5.51-0.36-0.54,0-.58.44-0.58,0.9s0.04,2.53.36,2.74a8.083,8.083,0,0,0,2.74.29h0.47c1.44,0,4-.14,4.29-0.14,0.9,0,.83,1.01.86,1.37,0.04,1.04.22,4.46,0.22,5.36a0.661,0.661,0,0,1-.72.76h-0.26a9.329,9.329,0,0,0-1.4-.11c-2.81,0-5.66,1.3-5.66,4.54,0,3.32,3.14,4.69,6.02,4.69,2.16,0,4.58-.72,5.22-3.03a0.6,0.6,0,0,1,.54-0.58c0.47,0,2.27,1.59,2.67,1.98a1.621,1.621,0,0,0,1.01.55c0.83,0,2.09-1.66,2.09-2.49a1.948,1.948,0,0,0-.94-1.37,19.794,19.794,0,0,0-3.89-2.52c-0.79-.4-1.15-0.47-1.22-1.41-0.04-.93-0.29-6.45-0.29-7.17,0-.9.43-1.04,1.22-1.15,4.25-.58,4.51-0.83,4.51-1.51,0-.54-0.26-3.03-0.98-3.03a2.727,2.727,0,0,0-.54.11,23.4,23.4,0,0,1-3.6.9,0.8,0.8,0,0,1-.76-0.94v-1.01a4.928,4.928,0,0,1,.4-2.55,1.484,1.484,0,0,0,.4-0.73,0.36,0.36,0,0,0-.36-0.32A34.216,34.216,0,0,0,1394.5,1138.82Zm-11.46,1.19a13.8,13.8,0,0,0-2.31-.94,0.585,0.585,0,0,0-.46.62c-0.4,1.58-.91,3.13-1.3,4.72a41.242,41.242,0,0,0-1.26,10.08,25.973,25.973,0,0,0,2.12,11.1,1.612,1.612,0,0,0,1.16,1.19c0.18,0,2.73-.43,2.73-1.84,0-.57-0.07-1.15-0.07-1.73,0-2.09,1.77-6.05,1.77-6.55a2.241,2.241,0,0,0-1.55-1.16c-0.43,0-.79,1.19-0.97,1.59-0.36.83-.54,1.3-0.8,1.3-0.68,0-.79-3.43-0.79-4a33.444,33.444,0,0,1,1.98-10.96,2.54,2.54,0,0,1,1.48-1.83,0.391,0.391,0,0,0,.32-0.36,1.292,1.292,0,0,0-.93-0.72C1383.94,1140.44,1383.51,1140.23,1383.04,1140.01Zm25.25,21.04a1.037,1.037,0,0,0,.65.69,22.065,22.065,0,0,1,5.48,4.9,1.2,1.2,0,0,0,.72.54c0.83,0,2.63-1.98,2.63-2.78,0-.9-6.2-5.87-7.03-5.87A4.935,4.935,0,0,0,1408.29,1161.05Z" transform="translate(-995.125 -1132.62)"/>
</svg>
