<svg xmlns="http://www.w3.org/2000/svg" width="506.091" height="32.65" viewBox="0 0 506.091 32.65">
  <defs>
    <style>
      .cls-1 {
        fill-rule: evenodd;
      }
    </style>
  </defs>
  <path id="次代と豊かな沖縄を創るでしょう_" data-name="次代と豊かな沖縄を創るでしょう。" class="cls-1" d="M982.673,1152.26a0.651,0.651,0,0,0-.54.54,43.665,43.665,0,0,1-6.2,10.95,0.9,0.9,0,0,0-.216.4,2.927,2.927,0,0,0,1.189,1.3,2.78,2.78,0,0,1,.324.25,6.1,6.1,0,0,0,1.585,1.12,0.514,0.514,0,0,0,.433-0.58c0-.18-0.037-0.36-0.037-0.5a1.685,1.685,0,0,1,.361-1.08,78.226,78.226,0,0,0,5.224-9.41,7,7,0,0,0,.4-1.01C985.2,1153.45,983.178,1152.26,982.673,1152.26Zm1.586-10.02c0-.61-1.982-2.16-2.486-2.59-0.577-.47-2.6-2.23-3.279-2.23s-1.982,1.73-1.982,2.34a1.218,1.218,0,0,0,.649.76,50.36,50.36,0,0,1,4,3.27,2.091,2.091,0,0,0,1.045.72C982.889,1144.51,984.259,1142.71,984.259,1142.24Zm7.566,3.82a0.87,0.87,0,0,1,1.009,1.01,22.909,22.909,0,0,1-.433,4.69c-1.153,6.37-3.531,9.47-9.223,12.53-0.072.04-.144,0.08-0.252,0.15a1.5,1.5,0,0,0-.937.86c0,0.47,1.3,2.63,2.125,2.63a10.519,10.519,0,0,0,2.631-1.4,19.663,19.663,0,0,0,7.89-9.3,0.436,0.436,0,0,1,.36-0.29,0.391,0.391,0,0,1,.361.26,23.1,23.1,0,0,0,6.554,8.21c0.58,0.47,3.14,2.42,3.71,2.42,0.69,0,2.45-1.63,2.45-2.56a1.582,1.582,0,0,0-.97-0.9,20.549,20.549,0,0,1-10.7-13.01,2.819,2.819,0,0,1-.145-0.94c0-.14.036-0.25,0.036-0.39,0.073-1.05.073-1.91,0.109-2.96a0.857,0.857,0,0,1,1.008-1.01h4.141c0.29,0,.76,0,0.76.4,0,0.83-2.02,3.39-2.631,4.11a1.2,1.2,0,0,0-.36.57c0,0.65,1.621,1.73,2.491,1.73a1.013,1.013,0,0,0,.68-0.32,31.624,31.624,0,0,0,1.91-2.78c0.65-1,2.45-3.92,2.45-5.04a3.029,3.029,0,0,0-2.49-2.23c-0.68,0-1.73.07-2.84,0.07h-8.975a0.645,0.645,0,0,1-.72-0.61,0.858,0.858,0,0,1,.072-0.29c0.5-1.33.793-2.2,0.973-2.78,0.324-.97.4-1.15,0.9-1.37a0.648,0.648,0,0,0,.469-0.5c0-.54-0.649-0.65-2.45-1.04-0.252-.04-1.153-0.29-1.369-0.29-0.433,0-.433.32-0.5,0.72a40.08,40.08,0,0,1-5.3,12.39,4.1,4.1,0,0,0-.577,1.08c0,0.62,1.874,1.62,2.523,1.62a1.145,1.145,0,0,0,.9-0.72c0.721-1.19,1.55-2.63,2.162-3.85a1.294,1.294,0,0,1,1.405-.87h0.793Zm46.225-3.96c0-.5-1.55-2.45-1.95-2.95-0.61-.72-1.19-1.45-1.87-2.13a0.9,0.9,0,0,0-.72-0.4c-0.58,0-2.42.98-2.42,1.63a1.473,1.473,0,0,0,.44.72,33.388,33.388,0,0,1,3.27,4.21,1.02,1.02,0,0,0,.8.58C1036.1,1143.76,1038.05,1142.82,1038.05,1142.1Zm-8.22,8.29c0-.07-0.03-0.22-0.03-0.29a0.8,0.8,0,0,1,.83-0.83l6.26-.47c0.87-.07,1.48-0.11,1.99-0.11,1.62-.07,1.69-0.21,1.69-1.29,0-1.98-.36-2.42-0.79-2.42-0.4,0-2.38.26-3.1,0.33l-6.42.5a0.816,0.816,0,0,1-1-.86c-0.18-2.16-.33-4.33-0.33-6.49a0.8,0.8,0,0,1,.4-0.94,0.709,0.709,0,0,0,.57-0.61c0-.57-0.79-0.57-2.59-0.72-0.25-.03-1.19-0.14-1.4-0.14a0.642,0.642,0,0,0-.76.72c0,0.25.07,1.15,0.07,1.44,0.07,3.17.14,4.61,0.36,6.99a0.833,0.833,0,0,1-.83,1.01l-2.23.18c-0.83.07-1.62,0.07-2.13,0.11-1.4.07-1.65,0.1-1.65,0.82,0,2.35.18,2.89,0.86,2.89,0.25,0,2.63-.29,3.1-0.33l2.45-.18a0.926,0.926,0,0,1,1.12.9c0.75,4.51,2.01,10.02,4.57,13.84,1.12,1.69,2.7,3.6,4.9,3.6,1.91,0,3.03-1.22,3.86-2.84a12.845,12.845,0,0,0,1.26-3.86c0-1.15-2.02-1.77-2.56-1.77a0.609,0.609,0,0,0-.58.62c-0.18,1.08-.68,3.85-2.05,3.85a1.834,1.834,0,0,1-1.33-.79C1031.63,1159.86,1030.45,1154.6,1029.83,1150.39Zm-16.57,11.78c0,1.58-.11,3.21-0.11,4.79,0,1.15.4,1.15,1.95,1.15,1.58,0,1.94,0,1.94-1.15,0-1.58-.07-3.21-0.07-4.79v-12.72c0-1.12.04-1.66,0.4-1.94a0.679,0.679,0,0,0,.43-0.51c0-.36-0.4-0.4-0.69-0.43a0.321,0.321,0,0,1-.25-0.25,1.087,1.087,0,0,1,.15-0.33,44.921,44.921,0,0,0,3.27-6.95,1.14,1.14,0,0,1,.87-1.01,0.661,0.661,0,0,0,.54-0.47c0-.47-0.68-0.65-1.84-1.04a20.233,20.233,0,0,0-2.02-.65,1.11,1.11,0,0,0-.72.93,39.887,39.887,0,0,1-8.17,13.98,1.873,1.873,0,0,0-.65,1.05c0,0.65,1.51,2.45,2.19,2.45,0.58,0,1.77-1.55,2.17-2.02a0.531,0.531,0,0,1,.28-0.14,0.335,0.335,0,0,1,.33.39v9.66Zm36.93-23.31a2.229,2.229,0,0,0,.1.43,23.613,23.613,0,0,1,.69,2.38c0.36,1.48,1.37,5.29,1.8,6.59a1.225,1.225,0,0,1,.14.65,1.134,1.134,0,0,1-.61.94c-2.99,1.94-6.23,4.5-6.23,8.43a6.361,6.361,0,0,0,3.31,5.55c2.38,1.4,4.72,1.55,7.39,1.55a86.362,86.362,0,0,0,9.91-.58c0.72-.18.75-0.58,0.75-1.51v-0.44c0-.75-0.03-2.23-0.54-2.23a0.908,0.908,0,0,0-.32.04,54.452,54.452,0,0,1-9.4.93,14.465,14.465,0,0,1-4.8-.65c-1.11-.39-2.37-1.29-2.37-2.59a4.511,4.511,0,0,1,1.76-3.24,36.325,36.325,0,0,1,6.49-4.25,65.777,65.777,0,0,1,8.9-4.15,0.775,0.775,0,0,0,.68-0.57,7.35,7.35,0,0,0-1.04-2.2c-0.22-.36-0.83-1.44-1.3-1.44a2.216,2.216,0,0,0-.94.36c-0.94.61-6.7,4-7.35,4a1.04,1.04,0,0,1-.83-1.08,49.139,49.139,0,0,1-1.11-6.45c-0.08-.83,0-1.37-1.01-1.37a13.682,13.682,0,0,0-1.73.18C1051.37,1138.32,1050.19,1138.32,1050.19,1138.86Zm50.04,13.83c1.37,0,2.74.08,4.14,0.08,0.65,0,.65-0.33.65-1.27,0-.9,0-1.29-0.65-1.29-1.37,0-2.77.07-4.14,0.07h-20.18c-1.37,0-2.74-.07-4.14-0.07-0.69,0-.65.43-0.65,1.26,0,0.86-.04,1.3.65,1.3,1.4,0,2.77-.08,4.14-0.08h20.18Zm-7.86,8.51a0.621,0.621,0,0,1,.69.57,1.3,1.3,0,0,1-.07.33,16.851,16.851,0,0,1-.76,1.62,1.322,1.322,0,0,1-1.44.83h-2.13a0.686,0.686,0,0,1-.61-0.58,16.444,16.444,0,0,0-.87-1.91,0.582,0.582,0,0,1,.55-0.86h4.64Zm4.79-3.32a0.8,0.8,0,0,1-.86.83h-12.47a0.8,0.8,0,0,1-.86-0.83v-0.5a0.816,0.816,0,0,1,.86-0.87h12.47a0.816,0.816,0,0,1,.86.87v0.5Zm-0.86,4.76a0.627,0.627,0,0,1,.54-0.36,0.469,0.469,0,1,0,.18-0.9,0.11,0.11,0,0,1-.07-0.08,0.091,0.091,0,0,1,.11-0.07c0.47,0.04.93,0.04,1.4,0.04,1.01,0,2.13-.15,2.13-1.41,0-.61-0.04-1.19-0.04-1.8v-0.94c0-.61.04-1.18,0.04-1.8,0-1.22-1.16-1.37-2.09-1.37s-1.88.04-2.81,0.04h-11.24c-0.9,0-1.84-.04-2.74-0.04-1.01,0-2.16.11-2.16,1.37,0,0.62.07,1.23,0.07,1.8v0.94c0,0.61-.07,1.19-0.07,1.8,0,1.23,1.08,1.41,2.09,1.41h1.01a0.834,0.834,0,0,1,.68.61,18.115,18.115,0,0,1,.94,1.8,0.518,0.518,0,0,1,.1.33,0.6,0.6,0,0,1-.68.54h-4.54c-1.4,0-2.81-.08-4.22-0.08-0.75,0-.72.44-0.72,1.48,0,1.08,0,1.44.72,1.44,1.41,0,2.82-.07,4.22-0.07h22.01c1.41,0,2.81.07,4.22,0.07,0.76,0,.72-0.39.72-1.44s0.04-1.48-.72-1.48c-1.41,0-2.81.08-4.22,0.08h-4.82a0.584,0.584,0,0,1-.65-0.51,0.57,0.57,0,0,1,.11-0.36C1095.94,1163.36,1096.12,1163,1096.3,1162.64Zm1.59-18.02a0.832,0.832,0,0,1,.86.87v0.36a0.83,0.83,0,0,1-.86.86h-1.88a0.83,0.83,0,0,1-.86-0.86v-0.36a0.832,0.832,0,0,1,.86-0.87h1.88Zm-6.06,1.23a0.83,0.83,0,0,1-.86.86h-1.73a0.832,0.832,0,0,1-.87-0.86v-0.36a0.835,0.835,0,0,1,.87-0.87h1.73a0.832,0.832,0,0,1,.86.87v0.36Zm-10.37-.36a0.832,0.832,0,0,1,.86-0.87h1.87a0.835,0.835,0,0,1,.87.87v0.36a0.832,0.832,0,0,1-.87.86h-1.87a0.83,0.83,0,0,1-.86-0.86v-0.36Zm13.69-4.11a0.83,0.83,0,0,1,.86-0.86h1.88a0.83,0.83,0,0,1,.86.86v0.22a0.83,0.83,0,0,1-.86.86h-1.88a0.83,0.83,0,0,1-.86-0.86v-0.22Zm-6.78,0a0.832,0.832,0,0,1,.87-0.86h1.73a0.83,0.83,0,0,1,.86.86v0.22a0.83,0.83,0,0,1-.86.86h-1.73a0.832,0.832,0,0,1-.87-0.86v-0.22Zm-6.05,1.08a0.83,0.83,0,0,1-.86-0.86v-0.22a0.83,0.83,0,0,1,.86-0.86h1.87a0.832,0.832,0,0,1,.87.86v0.22a0.832,0.832,0,0,1-.87.86h-1.87Zm6.16-4.94a0.724,0.724,0,0,1,.29-0.46,0.764,0.764,0,0,0,.47-0.54c0-.36-0.51-0.44-0.79-0.47-0.58-.04-2.49-0.25-2.96-0.25a0.486,0.486,0,0,0-.61.5c0,0.14.11,0.68,0.11,0.97a0.8,0.8,0,0,1-.94.94h-1.01c-1.04,0-2.09-.04-3.13-0.04-0.94,0-1.8.11-1.8,1.3,0,0.61.03,1.26,0.03,1.87v4.54c0,0.62-.03,1.26-0.03,1.88,0,1.19.9,1.29,1.83,1.29,1.05,0,2.09-.03,3.1-0.03h14.12c1.05,0,2.06.03,3.1,0.03,0.98,0,1.84-.1,1.84-1.26,0-.61-0.04-1.26-0.04-1.91v-4.54c0-.68.04-1.26,0.04-1.87,0-1.19-.9-1.3-1.84-1.3-1.04,0-2.09.04-3.1,0.04h-0.97a0.77,0.77,0,0,1-.93-0.61,0.751,0.751,0,0,1,.28-0.51,0.742,0.742,0,0,0,.47-0.54c0-.39-0.54-0.43-0.83-0.47-0.5-.03-2.48-0.25-2.92-0.25-0.36,0-.61.07-0.61,0.51,0,0.1.11,0.72,0.11,0.93a0.8,0.8,0,0,1-.94.94h-1.4A0.767,0.767,0,0,1,1088.48,1137.52Zm43.45,3.86c-0.65,0-2.74,1.26-2.74,1.91a0.9,0.9,0,0,0,.33.61,25.063,25.063,0,0,1,4.82,7.71,1.085,1.085,0,0,0,.83.83c0.72,0,2.99-1.33,2.99-2.12C1138.16,1149.41,1133.26,1141.38,1131.93,1141.38Zm-13.08-3.57c-0.4,0-.4.44-0.4,0.72,0,0.44.04,0.83,0.04,1.23a32.639,32.639,0,0,1-.36,4.65,1.168,1.168,0,0,1-1.19,1.08,58.218,58.218,0,0,1-5.98,1.11c-0.47.04-1.08,0.04-1.08,0.58,0,0.18.61,3.71,1.51,3.71a3.083,3.083,0,0,0,.76-0.21,28.2,28.2,0,0,1,4.11-1.27,0.436,0.436,0,0,1,.47.47,20.075,20.075,0,0,1-.91,2.71,29.435,29.435,0,0,1-6.41,10.05,1.34,1.34,0,0,0-.5.83c0,0.82,2.3,2.19,2.92,2.19a0.975,0.975,0,0,0,.64-0.36,43.826,43.826,0,0,0,8.18-15.89c0.26-1,.62-1.29,2.67-1.29,2.16,0,2.27,1.47,2.27,3.28a21.614,21.614,0,0,1-1.59,8.14c-0.9,1.76-1.8,2.2-3.74,2.2-0.72,0-1.34-.11-1.7-0.11a0.485,0.485,0,0,0-.47.61,7.748,7.748,0,0,0,.62,2.56,1.5,1.5,0,0,0,1.65.86,7.36,7.36,0,0,0,6.81-3.89c1.59-2.88,2.17-7.74,2.17-11.06,0-1.98-.4-4.07-2.2-5.22a7.06,7.06,0,0,0-4.11-.83c-0.14,0-.29.03-0.43,0.03a0.724,0.724,0,0,1-.79-0.75,1.4,1.4,0,0,1,.07-0.4c0.11-.61.18-1.12,0.25-1.55,0.22-1.26.29-1.83,0.97-2.34a0.531,0.531,0,0,0,.29-0.43,0.959,0.959,0,0,0-.9-0.58C1121.95,1138.5,1119.21,1137.81,1118.85,1137.81Zm37.43,22.85c1.8,0,1.84.39,1.84,1.11a1.687,1.687,0,0,1-1.87,1.95c-0.94,0-2.38-.58-2.38-1.7C1153.87,1160.87,1155.42,1160.66,1156.28,1160.66Zm1.77-12.72a0.729,0.729,0,0,0-.87.79c0,0.18.04,0.32,0.04,0.5,0.11,1.41.65,6.63,0.65,7.79a0.636,0.636,0,0,1-.76.61h-0.94c-2.84,0-5.98,1.15-5.98,4.47,0,3.35,3.43,4.9,6.34,4.9,2.45,0,4.58-.9,5.01-3.53a0.8,0.8,0,0,1,.58-0.83c0.58,0,2.34,1.26,2.88,1.65a1.849,1.849,0,0,0,.94.51c0.9,0,2.23-2.05,2.23-2.63,0-.87-4.25-2.85-5.08-3.17-0.11-.04-0.25-0.11-0.36-0.15a1.4,1.4,0,0,1-1.12-.9c-0.18-.75-0.36-5.94-0.36-6.99,0-.75.08-1.83,0.08-1.91a0.81,0.81,0,0,0-.72-0.75A14.616,14.616,0,0,0,1158.05,1147.94Zm5.51-5.55c-0.76,0-2.41,1.98-2.41,2.48a0.938,0.938,0,0,0,.46.58,20.508,20.508,0,0,1,4.51,4.65,1.192,1.192,0,0,0,.79.65c0.65,0,2.7-1.62,2.7-2.49C1169.61,1147.32,1164.46,1142.39,1163.56,1142.39Zm-12.11-5.87c-0.32,0-.32.36-0.32,0.61,0,1.15-.61,5.15-1.15,6.05a1.238,1.238,0,0,1-1.08.58,33.028,33.028,0,0,1-3.71.18h-1.66a0.523,0.523,0,0,0-.65.57c0,0.36.18,1.66,0.25,2.09,0.15,0.83.29,1.16,0.9,1.16,0.83,0,3.61-.36,3.89-0.36a0.485,0.485,0,0,1,.51.47,14.121,14.121,0,0,1-.83,2.19,66.892,66.892,0,0,1-4.29,8.33,3.923,3.923,0,0,0-.65,1.29c0,0.76,2.42,1.8,3.21,1.8a0.716,0.716,0,0,0,.72-0.5,91.238,91.238,0,0,0,5.87-12.83c0.44-1.19.4-1.44,1.7-1.65,3.31-.62,3.74-0.69,3.74-1.48a15.239,15.239,0,0,0-.18-1.91c-0.07-.43-0.1-1.08-0.54-1.08a1.206,1.206,0,0,0-.36.07,16.916,16.916,0,0,1-2.05.54,0.426,0.426,0,0,1-.4-0.47,11.514,11.514,0,0,1,.4-1.62,6.332,6.332,0,0,1,.65-1.91,1.026,1.026,0,0,0,.57-0.65,0.721,0.721,0,0,0-.57-0.43C1154.84,1137.38,1151.85,1136.52,1151.45,1136.52Zm27.85,16.71a0.9,0.9,0,0,0-.68.8,51.441,51.441,0,0,1-5.7,9.94,2.838,2.838,0,0,0-.57.9c0,0.43,1.66,1.66,2.05,1.98a3.671,3.671,0,0,0,1.19.8,0.5,0.5,0,0,0,.47-0.54c0-.29-0.11-0.47-0.11-0.65a3.538,3.538,0,0,1,.47-0.9c0.79-1.3,5.48-9.34,5.48-10.24C1181.9,1154.53,1179.95,1153.23,1179.3,1153.23Zm-4.79-9c-0.58,0-2.05,1.87-2.05,2.37a1.3,1.3,0,0,0,.72.8,43.784,43.784,0,0,1,4.25,3.13,1.074,1.074,0,0,0,.65.33c0.72,0,2.12-1.84,2.12-2.31,0-.54-1.58-1.62-2.05-1.98A21.291,21.291,0,0,0,1174.51,1144.23Zm7.49-3.71c0-.51-1.91-1.77-2.37-2.09a15.119,15.119,0,0,0-3.07-1.88c-0.68,0-2.05,1.84-2.05,2.38a1.143,1.143,0,0,0,.65.76,42.472,42.472,0,0,1,4,2.77,1.266,1.266,0,0,0,.72.43C1180.45,1142.89,1182,1141.09,1182,1140.52Zm13.95,12.64a1.027,1.027,0,0,1-1.01-1.01v-5.08a1.014,1.014,0,0,1,1.01-1.01h2.77a1.014,1.014,0,0,1,1.01,1.01v5.08a1.027,1.027,0,0,1-1.01,1.01h-2.77Zm-4.61-1.01a1.034,1.034,0,0,1-1.01,1.01h-2.67a0.96,0.96,0,0,1-1.01-1.01v-5.08a0.989,0.989,0,0,1,1.01-1.01h2.67a1.02,1.02,0,0,1,1.01,1.01v5.08Zm-1.01,4.29a0.859,0.859,0,0,1,1.01,1.01v4.14c0,1.84-.11,3.71-0.11,5.55,0,1.05.39,1.12,1.87,1.12,1.59,0,1.95-.04,1.95-1.12,0-1.84-.11-3.71-0.11-5.55v-4.14a0.859,0.859,0,0,1,1.01-1.01h3.02a0.575,0.575,0,0,1,.69.65c0.03,1.08.29,1.12,1.84,1.12,1.4,0,1.87,0,1.87-1.05,0-1.01-.07-2.02-0.07-2.99v-7.1c0-.93.03-1.83,0.03-2.77,0-1.33-.64-1.69-1.87-1.69-1.01,0-2.02.03-3.03,0.03h-2.48a0.846,0.846,0,0,1-1.01-.97v-2.24c0-1.29.03-2.01,0.4-2.3a0.768,0.768,0,0,0,.43-0.54c0-.47-0.58-0.47-0.9-0.51-0.76-.03-2.38-0.18-3.07-0.18a0.486,0.486,0,0,0-.61.47c0,0.11.04,0.25,0.04,0.36a15.632,15.632,0,0,1,.11,2.6v2.34a0.846,0.846,0,0,1-1.01.97h-2.38c-1.05,0-2.05-.03-3.06-0.03-1.23,0-1.88.36-1.88,1.69,0,0.94.08,1.84,0.08,2.77v7.1c0,0.97-.08,1.98-0.08,2.99,0,1.05.47,1.05,1.84,1.05,1.59,0,1.84-.04,1.87-1.12a0.562,0.562,0,0,1,.65-0.65h2.96Zm31.63,6.52a21.177,21.177,0,0,0-.83-3.24c-0.83-2.45-1.08-3.17-1.62-3.17-0.44,0-1.91.43-1.91,0.97a3.228,3.228,0,0,0,.14.51,37.944,37.944,0,0,1,1.52,5.11c0.1,0.51.18,0.87,0.82,0.87C1220.59,1164.01,1221.96,1163.61,1221.96,1162.96Zm-11.64-6.34c-0.43,0-.43.36-0.47,0.65a35.5,35.5,0,0,1-1.08,6.48c-0.07.33-.43,1.66-0.43,1.88,0,0.65,1.8.97,2.05,0.97a0.744,0.744,0,0,0,.72-0.72c0.4-1.48,1.08-5.62,1.26-7.21a0.73,0.73,0,0,1,.47-0.82,0.471,0.471,0,0,0,.36-0.4,0.638,0.638,0,0,0-.68-0.47C1212.16,1156.91,1210.61,1156.62,1210.32,1156.62Zm18.01-.11a0.819,0.819,0,0,1,.87.87v0.32a0.835,0.835,0,0,1-.87.87h-1.72a0.835,0.835,0,0,1-.87-0.87v-0.32a0.819,0.819,0,0,1,.87-0.87h1.72Zm4.15,0.87a0.816,0.816,0,0,1,.86-0.87h1.84a0.793,0.793,0,0,1,.83.87v0.32a0.809,0.809,0,0,1-.83.87h-1.84a0.832,0.832,0,0,1-.86-0.87v-0.32Zm-3.28-3.86a0.8,0.8,0,0,1-.87.83h-1.72a0.8,0.8,0,0,1-.87-0.83v-0.29a0.832,0.832,0,0,1,.87-0.86h1.72a0.832,0.832,0,0,1,.87.86v0.29Zm4.14,0.83a0.8,0.8,0,0,1-.86-0.83v-0.29a0.83,0.83,0,0,1,.86-0.86h1.84a0.806,0.806,0,0,1,.83.86v0.29a0.777,0.777,0,0,1-.83.83h-1.84Zm-0.86-10.09a0.83,0.83,0,0,1,.86-0.86h1.41a0.83,0.83,0,0,1,.86.86v0.29a0.832,0.832,0,0,1-.86.87h-1.41a0.832,0.832,0,0,1-.86-0.87v-0.29Zm-4.15-.86a0.832,0.832,0,0,1,.87.86v0.29a0.835,0.835,0,0,1-.87.87h-1.18a0.8,0.8,0,0,1-.83-0.87v-0.29a0.8,0.8,0,0,1,.83-0.86h1.18Zm5.01-2.06a0.83,0.83,0,0,1-.86-0.86v-0.18a0.832,0.832,0,0,1,.86-0.87h1.41a0.832,0.832,0,0,1,.86.87v0.18a0.83,0.83,0,0,1-.86.86h-1.41Zm-4.14-.86a0.832,0.832,0,0,1-.87.86h-1.18a0.8,0.8,0,0,1-.83-0.86v-0.18a0.8,0.8,0,0,1,.83-0.87h1.18a0.835,0.835,0,0,1,.87.87v0.18Zm-0.87,7.28a0.727,0.727,0,0,1,.87.83v0.39a0.727,0.727,0,0,1-.87.83h-4.5c-0.9,0-1.37.22-1.37,1.19,0,0.65.04,1.3,0.04,1.95v6.95c0,0.76-.04,1.48-0.04,2.23,0,0.8.4,0.76,1.62,0.76,1.55,0,1.66.04,1.7-.9,0-.79.28-0.9,1.51-0.9h0.9a0.86,0.86,0,0,1,1.01.97c0,0.69-.04,1.33-0.04,1.98,0,2.45,1.08,3.5,3.53,3.5h3.93c1.23,0,2.81-.07,3.5-1.23a9.592,9.592,0,0,0,.9-3.28c0-.9-1.88-1.08-2.56-1.08a0.567,0.567,0,0,0-.69.47c-0.18,1.41-.21,2.09-1.87,2.09h-2.02c-1.29,0-1.4-.29-1.4-1.51v-0.9a0.869,0.869,0,0,1,1.01-1.01h1.37c1.18,0,2.09.03,2.77,0.03,1.26,0,1.77-.18,1.77-1.18,0-.62-0.04-1.27-0.04-1.88v-5.11c0-.65.04-1.3,0.04-1.95,0-1.04-.54-1.23-1.88-1.23-0.68,0-1.55.04-2.66,0.04h-1.52a0.724,0.724,0,0,1-.86-0.83v-0.39a0.724,0.724,0,0,1,.86-0.83h2.02a0.641,0.641,0,0,1,.43.18,2.412,2.412,0,0,0,1.34.21c1.04,0,1.69.08,1.69-.93,0-.65-0.04-1.26-0.04-1.91v-4.83c0-.69.04-1.26,0.04-1.8,0-1.01-.18-1.62-1.23-1.62-0.82,0-1.69.07-2.52,0.07h-8.36c-0.9,0-1.62-.07-2.16-0.07-1.04,0-1.55.21-1.55,1.29,0,0.72.04,1.41,0.04,2.13v4.83c0,0.65-.07,1.26-0.07,1.91,0,1.01.68,0.93,1.73,0.93a2.7,2.7,0,0,0,1.4-.21,0.92,0.92,0,0,1,.43-0.18h1.8Zm-17.83-5.84a1.525,1.525,0,0,0-.65-0.32c-0.65,0-1.55,1.91-1.55,2.45a0.863,0.863,0,0,0,.43.68,47.543,47.543,0,0,1,3.64,3.06,1.177,1.177,0,0,1,.44.8,1.254,1.254,0,0,1-.22.61c-0.32.57-.65,1.15-1.01,1.69a1.507,1.507,0,0,1-1.37.83c-0.14,0-.32.04-0.5,0.04-0.62,0-1.16-.04-1.16.39,0,0.18.47,2.49,0.54,2.85a1.041,1.041,0,0,0,.55.83,0.561,0.561,0,0,0,.5-0.36,0.521,0.521,0,0,1,.5-0.33c0.69-.07,1.34-0.14,2.02-0.25h0.18a0.768,0.768,0,0,1,.79.9v6.27c0,1.62-.07,3.24-0.07,4.86,0,1.19.29,1.23,1.66,1.23,1.33,0,1.62-.04,1.62-1.23,0-1.62-.07-3.24-0.07-4.86v-6.7a0.955,0.955,0,0,1,.9-1.12l0.36-.07h0.22a0.809,0.809,0,0,1,.82.65,0.621,0.621,0,0,0,.73.5c0.14,0,2.05-.1,2.05-0.97a23.562,23.562,0,0,0-.83-3.13c-1.04-3.17-1.15-3.39-1.8-3.39-0.51,0-1.91.29-1.91,0.9a6.566,6.566,0,0,0,.43,1.37,0.974,0.974,0,0,1,.07.32,0.71,0.71,0,0,1-.68.72c-0.54.04-1.05,0.11-1.55,0.15a0.446,0.446,0,0,1-.54-0.4,0.517,0.517,0,0,1,.11-0.32c1.58-2.45,3.13-4.94,4.57-7.53a0.917,0.917,0,0,1,.72-0.4c0.44-.07.58-0.18,0.58-0.47a1.628,1.628,0,0,0-1.08-.86,12.811,12.811,0,0,0-2.16-.83,0.93,0.93,0,0,0-.72.86c-0.62,1.16-1.26,2.27-1.88,3.43a0.754,0.754,0,0,1-.64.39,0.823,0.823,0,0,1-.55-0.25,2.707,2.707,0,0,1-.32-0.29,0.807,0.807,0,0,1-.29-0.54,0.717,0.717,0,0,1,.15-0.43c0.83-1.33,2.12-3.89,2.81-5.33a0.557,0.557,0,0,1,.5-0.33c0.25-.07.65-0.07,0.65-0.43,0-.61-2.99-1.66-3.17-1.66a0.664,0.664,0,0,0-.54.65c-0.43,1.23-1.66,3.89-2.27,5.12a0.678,0.678,0,0,1-.54.43A0.666,0.666,0,0,1,1210.5,1141.92Zm45.57-5.91c-0.36,0-.43.36-0.5,0.76a19.605,19.605,0,0,1-1.95,4.65c-0.32.43-1.29,0.46-2.23,0.46h-1.04c-1.05,0-1.99-.07-2.6-0.07-0.9,0-1.04.22-1.04,1.66,0,1.84.14,2.02,0.93,2.02,1.12,0,1.95-.11,2.52-0.11,0.51,0,.8.11,0.8,0.43,0,0.69-5.23,7.93-6.06,8.83a1.5,1.5,0,0,0-.46.79c0,0.65,2.41,2.09,3.06,2.09a0.585,0.585,0,0,0,.5-0.36,23.23,23.23,0,0,1,3.03-4.21c1.4-1.45,4.72-3.18,6.74-3.18a1.5,1.5,0,0,1,1.58,1.23,5.1,5.1,0,0,1,.18,1.01,0.928,0.928,0,0,1-.65.83,25.158,25.158,0,0,0-2.23,1.19c-2.49,1.47-5.12,3.24-5.12,6.48a5.47,5.47,0,0,0,3.61,5.15,13.329,13.329,0,0,0,5.69.94,47.016,47.016,0,0,0,6.92-.47c0.79-.18.83-0.47,0.83-1.55,0-2.05-.26-2.45-0.72-2.45a4.078,4.078,0,0,0-.73.08,26.574,26.574,0,0,1-6.7.9c-1.73,0-5.22-.22-5.22-2.63,0-2.24,3.71-3.82,3.89-3.82a0.5,0.5,0,0,1,.47.61c0,0.76-.07,1.55-0.07,2.34,0,0.94.65,1.01,2.19,1.01,1.37,0,1.55-.14,1.55-1.44,0-1.12-.03-2.2-0.03-3.32v-0.46a1.1,1.1,0,0,1,.93-1.19c1.41-.62,2.81-1.23,4.26-1.77,0.18-.07.36-0.11,0.5-0.18,0.68-.22,1.08-0.36,1.08-0.79,0-.61-0.86-3.39-1.55-3.39a2.855,2.855,0,0,0-.93.36,31.835,31.835,0,0,1-4.22,2.06,0.6,0.6,0,0,1-.54-0.62c-0.47-2.27-1.8-3.24-4.11-3.24a10.027,10.027,0,0,0-3.93.94,1.349,1.349,0,0,1-.64.21,0.271,0.271,0,0,1-.29-0.25,12.118,12.118,0,0,1,1.22-2.09,1.3,1.3,0,0,1,1.08-.58c2.27-.25,4.54-0.64,6.81-1.11,0.76-.15,1.91-0.29,1.91-0.9a11.317,11.317,0,0,0-.29-1.95,1.05,1.05,0,0,0-.9-1.08,2.756,2.756,0,0,0-.9.22,26.162,26.162,0,0,1-4.18,1.01,0.349,0.349,0,0,1-.39-0.36,2.357,2.357,0,0,1,.36-0.83,1.99,1.99,0,0,1,1.19-1.23,0.572,0.572,0,0,0,.43-0.43C1260.11,1137.67,1256.4,1136.01,1256.07,1136.01Zm45.15,25.83c0,2.06,0,2.6-1.59,2.6-0.9,0-1.66-.15-1.98-0.15-0.72,0-.76.62-0.76,1.19,0,2.85.97,2.78,2.31,2.78,2.95,0,5.69-.51,5.69-4.07,0-.87-0.07-1.73-0.07-2.6v-22.23c0-1.44.03-1.76,0.43-2.02a0.7,0.7,0,0,0,.51-0.54c0-.5-0.65-0.54-1.66-0.61a5.625,5.625,0,0,1-.69-0.03,12.462,12.462,0,0,0-1.73-.11c-0.32,0-.61.03-0.61,0.43a0.855,0.855,0,0,0,.04.32,14.364,14.364,0,0,1,.11,2.27v22.77Zm-6.09-5.83c0,1.37-.08,2.7-0.08,4.07,0,0.94.36,0.97,1.7,0.97s1.66-.03,1.66-1.01c0-1.37-.08-2.7-0.08-4.03v-12.86c0-1.23.04-1.48,0.4-1.7a0.8,0.8,0,0,0,.54-0.54,0.528,0.528,0,0,0-.58-0.43c-0.5-.07-2.66-0.25-3.13-0.25a0.463,0.463,0,0,0-.58.43c0,0.07.04,0.18,0.04,0.29a18.373,18.373,0,0,1,.11,2.02v13.04Zm-11.21,8.36a1.041,1.041,0,0,1-1.01-1.01v-0.83a0.955,0.955,0,0,1,1.01-.97h4a0.955,0.955,0,0,1,1.01.97v0.83a1.041,1.041,0,0,1-1.01,1.01h-4Zm-2.38-13.26a0.682,0.682,0,0,1-.72-0.72v-0.22a0.69,0.69,0,0,1,.72-0.68h6.78a0.635,0.635,0,0,1,.68.68v0.22a0.652,0.652,0,0,1-.68.72h-6.78Zm0.26,3.82a0.836,0.836,0,0,1-.98-0.87,0.889,0.889,0,0,1,1.01-.83h6.52a0.575,0.575,0,0,1,.65.69v0.32a0.585,0.585,0,0,1-.68.69h-6.52Zm7.06,12.43c-0.04.79,0.32,0.75,1.69,0.75s1.87,0.04,1.87-.61c0-.14-0.07-1.19-0.07-1.84v-3.67c0-.51.04-0.97,0.04-1.37,0-.94-0.25-1.51-2.02-1.51-0.79,0-1.55.03-2.31,0.03h-4.1c-0.76,0-1.52-.03-2.27-0.03h-0.58a0.634,0.634,0,0,1-.68-0.76v-0.14a0.861,0.861,0,0,1,.97-0.8h6.34c0.94,0,1.84.08,2.77,0.08s2.02-.04,2.02-1.27c0-.64-0.07-1.26-0.07-1.87v-3.89c0-.69.07-1.37,0.07-2.05,0-1.3-.97-1.41-2.05-1.41-0.9,0-1.84.07-2.74,0.07h-5.69c-1.01,0-1.98-.11-2.99-0.11-1.12,0-1.77.22-1.77,1.48,0,0.65.04,1.33,0.04,2.02v2.27c0,3.93-.69,8.18-2.85,11.53a2.622,2.622,0,0,0-.47.86c0,0.65,1.84,2.02,2.67,2.02a1.2,1.2,0,0,0,.97-0.83,25.416,25.416,0,0,0,1.52-3.1,0.236,0.236,0,0,1,.25-0.18c0.25,0,.25.33,0.25,0.51v2.12c0,0.54-.07,1.73-0.07,1.84,0,0.65.57,0.61,1.73,0.61,1.37,0,1.69,0,1.65-.75a0.509,0.509,0,0,1,.54-0.54h4.8A0.49,0.49,0,0,1,1288.86,1167.36Zm-3.43-26.63c0.62,0.61,1.19,1.15,1.84,1.73a0.561,0.561,0,0,1,.15.33,0.372,0.372,0,0,1-.4.32h-3.6a4.813,4.813,0,0,1-.76,0,0.375,0.375,0,0,1-.4-0.32,0.537,0.537,0,0,1,.15-0.37c0.61-.54,1.19-1.11,1.76-1.69a0.872,0.872,0,0,1,.65-0.32A0.86,0.86,0,0,1,1285.43,1140.73Zm-5.33,4.11a0.647,0.647,0,0,0,.76.76c0.86,0,1.73-.08,2.56-0.08h2.7c0.83,0,1.69.08,2.56,0.08,0.65,0,.72-0.26.75-0.83a0.36,0.36,0,0,1,.26-0.33,0.326,0.326,0,0,1,.18.07,8.183,8.183,0,0,0,2.34,1.3c0.86,0,2.16-1.84,2.16-2.59a0.98,0.98,0,0,0-.65-0.69,25.812,25.812,0,0,1-6.41-4.46,0.142,0.142,0,0,1-.04-0.15,0.162,0.162,0,0,1,.15-0.18,0.5,0.5,0,0,0,.5-0.43c0-.43-0.4-0.51-1.33-0.83a14.6,14.6,0,0,0-2.24-.68,1.018,1.018,0,0,0-.75.57,29.681,29.681,0,0,1-8.47,7.35,1.24,1.24,0,0,0-.83.79c0,0.73,1.23,2.38,1.98,2.38,0.62,0,2.89-1.76,3.46-2.23a1.02,1.02,0,0,0,.15-0.04A0.227,0.227,0,0,1,1280.1,1144.84Zm43.05,17.08a1.073,1.073,0,0,1-.97,1.22c-1.08,0-2.81-.61-2.81-1.91a1.5,1.5,0,0,1,1.55-1.44A2.2,2.2,0,0,1,1323.15,1161.92Zm3.35-23.35a4.68,4.68,0,0,0-1.36.4,33.737,33.737,0,0,1-9.12,1.33h-0.86c-1.09,0-1.12.07-1.12,0.9,0,0.61.11,3.31,0.9,3.31,0.58,0,5.66-1.04,6.52-1.26,0.22-.03.69-0.14,0.87-0.14a0.518,0.518,0,0,1,.61.43,3.151,3.151,0,0,1-.94,1.3,142.328,142.328,0,0,1-11.2,11.31,1.8,1.8,0,0,0-.87,1.08c0,0.58,1.84,2.6,2.6,2.6a0.478,0.478,0,0,0,.39-0.26c1.3-1.47,2.6-2.95,4-4.32a10.94,10.94,0,0,1,8.07-3.53c3.14,0,6.09,1.44,6.09,4.94a5.854,5.854,0,0,1-4.36,5.55,0.443,0.443,0,0,1-.43-0.47,3.6,3.6,0,0,0-.65-2.31,5.88,5.88,0,0,0-4.79-2.56,4.523,4.523,0,0,0-4.61,4.36c0,3.68,4.25,4.9,7.24,4.9,5.8,0,11.46-3.31,11.46-9.69a7.453,7.453,0,0,0-4.29-6.99,10.552,10.552,0,0,0-4.43-1.08,7.418,7.418,0,0,0-1.48.14,1.851,1.851,0,0,1-.47.08,0.543,0.543,0,0,1-.61-0.47,1.016,1.016,0,0,1,.36-0.61,34.575,34.575,0,0,1,5.22-4.83,1.62,1.62,0,0,0,.8-0.76C1330.04,1141.31,1327.95,1138.57,1326.5,1138.57Zm15.21,4.76a16.543,16.543,0,0,0,.39,2.59c0.11,0.4.29,1.19,0.79,1.19a3.449,3.449,0,0,0,.55-0.07,78.774,78.774,0,0,1,7.96-1.48c0.36-.04,2.02-0.32,2.27-0.32a0.461,0.461,0,0,1,.54.43,1.976,1.976,0,0,1-.61.86,16.013,16.013,0,0,0-3.97,10.34c0,7.03,5.26,8.97,11.39,8.97a1,1,0,0,0,1.15-.61,10.121,10.121,0,0,0,.54-2.95c0-.58-0.29-0.62-0.83-0.62-0.39,0-1.19.04-1.8,0.04-3.67,0-6.34-1.01-6.34-5.19a13.42,13.42,0,0,1,1.73-6.34,10.959,10.959,0,0,1,6.12-5.37,17.775,17.775,0,0,1,5.99-.75c0.86-.04,1.62.03,1.62-0.76a15.763,15.763,0,0,0-.33-2.63c-0.07-.43-0.14-0.9-0.68-0.9a2.423,2.423,0,0,0-.47.03c-2.7.44-5.44,0.8-8.18,1.12-5.22.61-10.48,1.15-15.74,1.48C1342.21,1142.5,1341.71,1142.39,1341.71,1143.33Zm27.23,2.09a2.991,2.991,0,0,0-1.83,1.36,0.836,0.836,0,0,0,.25.47,32.663,32.663,0,0,1,2.34,2.99,0.859,0.859,0,0,0,.54.47,2.988,2.988,0,0,0,1.84-1.51A14.691,14.691,0,0,0,1368.94,1145.42Zm-4.36,1.98c-0.39,0-1.83.9-1.83,1.33a0.891,0.891,0,0,0,.32.5c0.79,0.98,1.59,1.99,2.31,3.03a0.734,0.734,0,0,0,.5.43c0.4,0,1.84-.97,1.84-1.51C1367.72,1150.75,1364.98,1147.4,1364.58,1147.4Zm16.94-8.79c-0.51,0-.55.36-0.55,0.9v0.39c0,1.48-.32,4.94-0.43,6.6q-0.315,4.26-.32,8.54c0,2.63.18,6.12,1.8,8.28a7.964,7.964,0,0,0,6.34,2.78,12.61,12.61,0,0,0,10.95-6.89,13.168,13.168,0,0,0,1.48-4.21c0-1.08-2.2-2.92-2.99-2.92-0.54,0-.61.61-0.72,1.19a11.442,11.442,0,0,1-2.2,5.33,9.127,9.127,0,0,1-6.77,3.5c-3.89,0-3.82-4.36-3.82-7.17,0-2.06.32-13.48,1.58-14.41a0.783,0.783,0,0,0,.44-0.55,0.756,0.756,0,0,0-.72-0.5A29.977,29.977,0,0,0,1381.52,1138.61Zm37.39,22.01c0.97,0,1.41,0,1.41,1.04,0,1.55-1.09,1.88-2.42,1.88-0.83,0-2.52-.18-2.52-1.3C1415.38,1160.87,1417.94,1160.62,1418.91,1160.62Zm1.12-17.11a0.543,0.543,0,0,0-.65.54c0,0.14.07,0.46,0.07,0.61,0.25,2.16.33,6.02,0.4,8.36,0,0.65.14,3.67,0.14,3.96a0.752,0.752,0,0,1-.86.76,11.837,11.837,0,0,0-1.99.11c-2.41.32-4.82,1.72-4.82,4.46,0,3.07,3.17,4.18,5.73,4.18,2.45,0,5-.86,5.29-3.64,0.07-.5.07-1.15,0.76-1.15,0.83,0,3.89,1.73,4.68,2.27a1.468,1.468,0,0,0,.65.29c0.69,0,1.73-1.77,1.73-2.38,0-1.12-5.91-3.06-6.99-3.35a1.111,1.111,0,0,1-1.01-1.01c-0.03-.5-0.14-3.42-0.14-3.93,0-.93.75-0.97,1.33-1.08a25.181,25.181,0,0,0,4.58-1.01,0.877,0.877,0,0,0,.83-0.72c0-.28-0.58-2.59-1.37-2.59a1.89,1.89,0,0,0-.65.18,25.693,25.693,0,0,1-4,1.04,0.806,0.806,0,0,1-.79-1c0-2.96.18-3.07,0.5-3.39a0.668,0.668,0,0,0,.22-0.47,0.632,0.632,0,0,0-.58-0.58C1422.62,1143.87,1420.42,1143.51,1420.03,1143.51Zm27.95-3.1c0,0.57.8,0.75,2.31,1.15a75.987,75.987,0,0,0,8.29,1.62c0.57,0,.79-0.36.97-1.08a15.279,15.279,0,0,0,.36-2.2c0-.54-0.4-0.54-0.9-0.57-2.49-.26-6.74-0.83-9.01-1.81a1.364,1.364,0,0,0-.58-0.21,0.849,0.849,0,0,0-.72.68A8.511,8.511,0,0,0,1447.98,1140.41Zm6.85,4.5a20.631,20.631,0,0,0-9.62,2.92,1.547,1.547,0,0,0-1.08,1.12c0,0.82,1.15,3.42,2.02,3.42a1.634,1.634,0,0,0,.75-0.36c2.24-1.87,4.69-3.39,7.71-3.39a4.647,4.647,0,0,1,5.01,4.97c0,5.01-5.33,8.94-9.66,10.31a0.818,0.818,0,0,0-.72.61c0,0.58,1.48,3.03,2.56,3.03a10.562,10.562,0,0,0,3.1-1.34c4.58-2.77,8.76-7.24,8.76-12.89C1463.66,1148.01,1459.94,1144.91,1454.83,1144.91Zm21.97,13.87a3.176,3.176,0,0,1,3.21,3.21A3.205,3.205,0,1,1,1476.8,1158.78Zm0-1.8a5.01,5.01,0,1,0,5.01,5.01A5,5,0,0,0,1476.8,1156.98Z" transform="translate(-975.719 -1135.69)"/>
</svg>
