<svg xmlns="http://www.w3.org/2000/svg" width="474.9" height="42" viewBox="0 0 474.9 42">
  <defs>
    <style>
      .cls-1 {
        fill-rule: evenodd;
      }
    </style>
  </defs>
  <path id="text-connect-2_pc" class="cls-1" d="M2571.2,5718.58a34.846,34.846,0,0,1-4.55,13.85,37.031,37.031,0,0,1-12.93,12.92,1.1,1.1,0,0,0-.78.78c0,1.06,1.29,3.68,2.48,3.68a5.061,5.061,0,0,0,2.21-1.1,42.351,42.351,0,0,0,15.41-18.77,0.558,0.558,0,0,1,.41-0.37,0.552,0.552,0,0,1,.46.37,41.93,41.93,0,0,0,11.87,16.7c0.78,0.64,4.51,3.63,5.29,3.63,1.24,0,2.99-2.57,2.99-3.72a0.989,0.989,0,0,0-.64-0.88c-10.67-6.21-17.07-16.79-17.07-29.21v-3.08c0-1.75-.41-2.71-2.3-2.71-0.73,0-1.47.04-2.25,0.04h-5.02c-1.1,0-2.25-.09-3.31-0.09-1.19,0-1.15.55-1.15,2.3,0,1.8-.04,2.39,1.15,2.39,1.11,0,2.21-.09,3.31-0.09h3.18c1.29,0,1.29.42,1.29,2.03A11.827,11.827,0,0,1,2571.2,5718.58Zm43.33,19.09a1,1,0,0,1,.92-0.64,0.655,0.655,0,0,0,.69-0.56,0.673,0.673,0,0,0-.55-0.55c-0.14-.09-0.23-0.09-0.23-0.18s0.05-.09.18-0.09H2627c1.93,0,3.82.09,5.75,0.09,1.06,0,1.01-.83,1.01-2.26,0-1.47.05-2.3-1.01-2.3-1.93,0-3.82.1-5.75,0.1h-21.71c-1.89,0-3.82-.1-5.71-0.1-1.06,0-1.01.79-1.01,2.3,0,1.43-.05,2.26,1.01,2.26,1.89,0,3.82-.09,5.71-0.09h3.63a0.75,0.75,0,0,1,.87.69,1.031,1.031,0,0,1-.09.41c-1.1,2.35-2.16,4.6-3.45,6.85a1.77,1.77,0,0,1-1.79,1.11l-2.12.14c-1.98.13-2.3,0-2.3,0.64a25.508,25.508,0,0,0,.74,3.17c0.32,1.06.46,1.71,0.96,1.71a0.7,0.7,0,0,0,.51-0.37,1.036,1.036,0,0,1,.87-0.65c4.42-.32,7.59-0.59,11.46-0.92,3.77-.32,7.5-0.69,11.27-1.05,0.09,0,.18-0.05.32-0.05a1.6,1.6,0,0,1,1.47.97,9.613,9.613,0,0,1,.55.87c0.69,1.1.92,1.47,1.48,1.47,0.73,0,3.68-1.15,3.68-2.02,0-.65-3.18-5.11-3.78-5.94-1.05-1.51-2.48-3.4-3.68-4.83a1.317,1.317,0,0,0-1.05-.64c-0.79,0-3.5,1.29-3.5,2.07a17.158,17.158,0,0,0,2.02,2.76,1.023,1.023,0,0,1,.42.78,0.614,0.614,0,0,1-.65.65c-3.63.36-7.26,0.64-10.85,0.82a0.6,0.6,0,0,1-.74-0.59,0.664,0.664,0,0,1,.14-0.42C2612.6,5741.63,2613.7,5739.42,2614.53,5737.67Zm2.53-22.36a66.9,66.9,0,0,0,6.9,7.09,0.58,0.58,0,0,1,.19.37,0.51,0.51,0,0,1-.51.46c-1.1.04-2.16,0.04-3.22,0.04H2612c-1.01,0-2.02-.04-3.03-0.04a0.465,0.465,0,0,1-.46-0.46,0.409,0.409,0,0,1,.18-0.37,58.359,58.359,0,0,0,6.85-7.04,1.02,1.02,0,0,1,.74-0.41A0.969,0.969,0,0,1,2617.06,5715.31Zm-10.3,10.17c0,1.29,0,2.12.92,2.12,1.29,0,2.9-.1,4.32-0.1h8.42c1.38,0,3.13.1,4.28,0.1,0.87,0,.96-0.6.96-1.75v-0.97a0.572,0.572,0,0,1,.51-0.6,0.416,0.416,0,0,1,.32.14c1.34,0.97,7.13,4.97,8.47,4.97,1.01,0,2.25-2.67,2.25-3.54,0-.55-0.46-0.69-1.52-1.2a45.23,45.23,0,0,1-16.33-13.11,0.231,0.231,0,0,1-.04-0.18,0.3,0.3,0,0,1,.23-0.28,0.9,0.9,0,0,0,.87-0.69,0.777,0.777,0,0,0-.69-0.64c-0.74-.19-4.23-1.06-4.74-1.06a1.16,1.16,0,0,0-.87.74c-3.64,6.39-10.81,12.14-17.25,15.54-0.55.28-1.2,0.51-1.2,1.06,0,0.97,1.47,3.27,2.49,3.27,1.33,0,6.44-3.68,7.68-4.65a0.656,0.656,0,0,1,.41-0.14,0.572,0.572,0,0,1,.51.6v0.37Zm66.38,11.87a0.462,0.462,0,0,0-.28-0.42,25.629,25.629,0,0,0-2.99-1.33,4.947,4.947,0,0,0-1.29-.51,0.734,0.734,0,0,0-.46.6,37.535,37.535,0,0,1-3.31,5.98,1.885,1.885,0,0,0-.37.83c0,0.83,2.81,1.84,3.31,1.84a1.2,1.2,0,0,0,.88-0.69,43.693,43.693,0,0,0,2.76-4.69,1.9,1.9,0,0,1,.92-1.15C2672.58,5737.76,2673.14,5737.72,2673.14,5737.35Zm-19.32,5.01a16.9,16.9,0,0,0-1.71-3.59,31.111,31.111,0,0,0-1.79-2.89,1.1,1.1,0,0,0-.83-0.6c-0.6,0-3.13,1.24-3.13,1.93a1.936,1.936,0,0,0,.37.83,39.223,39.223,0,0,1,3.04,5.2,1.147,1.147,0,0,0,1.01.96C2651.29,5744.2,2653.82,5743.24,2653.82,5742.36Zm5.93-27.32a59.981,59.981,0,0,0,7.08,6.62,0.466,0.466,0,0,1,.19.37,0.479,0.479,0,0,1-.46.41c-1.2.05-2.39,0.05-3.59,0.05h-7.64c-1.15,0-2.3,0-3.4-.05a0.5,0.5,0,0,1-.55-0.46,0.46,0.46,0,0,1,.23-0.36,65.376,65.376,0,0,0,6.58-6.63,0.977,0.977,0,0,1,.78-0.37A1.023,1.023,0,0,1,2659.75,5715.04Zm1.79,12.79a1.1,1.1,0,0,1,1.29-1.29h0.14c1.52,0,3.04.09,4.55,0.09,1.2,0,1.11-.64,1.11-2.44a0.567,0.567,0,0,1,.55-0.6,0.607,0.607,0,0,1,.32.1c1.15,0.82,6.99,4.78,8.01,4.78,1.1,0,2.2-2.58,2.2-3.54,0-.6-0.27-0.69-1.51-1.29a54.238,54.238,0,0,1-16.06-12.24,1.006,1.006,0,0,1-.04-0.18,0.251,0.251,0,0,1,.23-0.28,0.793,0.793,0,0,0,.69-0.59,0.76,0.76,0,0,0-.79-0.69c-0.73-.19-4-1.02-4.55-1.02a0.931,0.931,0,0,0-.78.65c-3.87,6.16-10.58,11.5-16.98,14.81-0.78.41-1.42,0.64-1.42,1.2,0,1.01,1.52,3.31,2.71,3.31,1.11,0,6.44-3.87,7.59-4.69a0.436,0.436,0,0,1,.37-0.14,0.51,0.51,0,0,1,.51.6c0,1.61-.05,2.25,1.15,2.25,1.47,0,2.99-.09,4.5-0.09h0.14a1.077,1.077,0,0,1,1.24,1.29v1.61a1.071,1.071,0,0,1-1.24,1.28h-4.69c-1.79,0-3.59-.09-5.38-0.09-1.11,0-1.11.46-1.11,2.16,0,1.61,0,2.12,1.11,2.12,1.79,0,3.59-.09,5.38-0.09h4.69a1.077,1.077,0,0,1,1.24,1.29v7.31a1.077,1.077,0,0,1-1.24,1.29h-9.2c-1.88,0-3.82-.09-5.7-0.09-1.11,0-1.11.46-1.11,2.25,0,1.7-.04,2.3,1.06,2.3,1.93,0,3.82-.14,5.75-0.14h25.39c1.94,0,3.82.14,5.71,0.14,1.1,0,1.1-.6,1.1-2.3s0-2.25-1.1-2.25c-1.89,0-3.77.09-5.71,0.09h-8.83a1.1,1.1,0,0,1-1.29-1.29v-7.31a1.1,1.1,0,0,1,1.29-1.29h4.74c1.84,0,3.63.09,5.43,0.09,1.1,0,1.1-.51,1.1-2.16,0-1.61,0-2.12-1.15-2.12-1.79,0-3.59.09-5.38,0.09h-4.74a1.09,1.09,0,0,1-1.29-1.28v-1.61Zm46.33,12.42c0,1.88-1.15,2.53-2.9,2.53-1.15,0-3.36-.51-3.36-1.98,0-1.43,2.25-1.8,3.31-1.8C2705.8,5739,2707.87,5739.05,2707.87,5740.25Zm-0.92-27.88a0.566,0.566,0,0,0-.65.64c0,0.14.05,0.33,0.05,0.46,0.18,1.15.55,5.62,0.55,6.58,0,1.01-1.06,1.11-2.16,1.11H2704c-2.39,0-6.48-.46-7.04-0.46-0.69,0-.73.55-0.73,1.15s0.04,3.22.46,3.49c0.41,0.32,2.34.37,3.49,0.37h0.6c1.84,0,5.11-.18,5.48-0.18,1.15,0,1.05,1.28,1.1,1.74,0.05,1.34.28,5.71,0.28,6.86a0.836,0.836,0,0,1-.92.96h-0.33a11.882,11.882,0,0,0-1.79-.13c-3.59,0-7.22,1.65-7.22,5.79,0,4.23,4,5.98,7.68,5.98,2.76,0,5.84-.92,6.67-3.86a0.75,0.75,0,0,1,.69-0.74c0.6,0,2.9,2.03,3.4,2.53a2.141,2.141,0,0,0,1.29.69c1.06,0,2.67-2.11,2.67-3.17a2.455,2.455,0,0,0-1.2-1.75,25.273,25.273,0,0,0-4.96-3.22c-1.02-.51-1.48-0.6-1.57-1.79-0.04-1.2-.37-8.24-0.37-9.16,0-1.15.56-1.33,1.57-1.47,5.43-.74,5.75-1.06,5.75-1.93,0-.69-0.32-3.87-1.24-3.87a4.019,4.019,0,0,0-.69.14,28.917,28.917,0,0,1-4.6,1.15,1.012,1.012,0,0,1-.97-1.19v-1.29c0-2.03.23-2.81,0.51-3.27a1.8,1.8,0,0,0,.5-0.92,0.45,0.45,0,0,0-.46-0.41A43.524,43.524,0,0,0,2706.95,5712.37Zm-14.63,1.52a17.591,17.591,0,0,0-2.95-1.2,0.744,0.744,0,0,0-.59.78c-0.51,2.03-1.15,4.01-1.66,6.03a52.729,52.729,0,0,0-1.61,12.88,33.129,33.129,0,0,0,2.71,14.17c0.33,0.64.69,1.52,1.48,1.52,0.23,0,3.49-.56,3.49-2.35,0-.74-0.09-1.47-0.09-2.21,0-2.67,2.25-7.73,2.25-8.37,0-.55-1.47-1.47-1.97-1.47-0.56,0-1.02,1.52-1.25,2.02-0.46,1.06-.69,1.66-1.01,1.66-0.87,0-1.01-4.37-1.01-5.11a42.559,42.559,0,0,1,2.53-13.98c0.55-1.43.83-1.84,1.89-2.35a0.48,0.48,0,0,0,.41-0.46c0-.46-0.83-0.78-1.2-0.92C2693.47,5714.44,2692.92,5714.16,2692.32,5713.89Zm63.85,2.3c-0.83,0-3.5,1.61-3.5,2.44a1.218,1.218,0,0,0,.41.78c3.09,3.26,4.33,5.89,6.17,9.84a1.385,1.385,0,0,0,1.06,1.06c0.92,0,3.81-1.7,3.81-2.71C2764.12,5726.45,2757.87,5716.19,2756.17,5716.19Zm-16.7-4.56c-0.51,0-.51.56-0.51,0.92,0,0.56.05,1.06,0.05,1.57a43.359,43.359,0,0,1-.46,5.93,1.474,1.474,0,0,1-1.52,1.38,70.858,70.858,0,0,1-7.64,1.43c-0.59.04-1.38,0.04-1.38,0.73,0,0.23.79,4.74,1.94,4.74a3.841,3.841,0,0,0,.96-0.27,36.256,36.256,0,0,1,5.25-1.61,0.551,0.551,0,0,1,.59.59,24.886,24.886,0,0,1-1.15,3.45,37.67,37.67,0,0,1-8.18,12.84,1.684,1.684,0,0,0-.65,1.06c0,1.05,2.95,2.8,3.73,2.8a1.271,1.271,0,0,0,.83-0.46,53.644,53.644,0,0,0,4.6-6.62,55.02,55.02,0,0,0,5.84-13.66c0.32-1.29.78-1.66,3.4-1.66,2.76,0,2.9,1.89,2.9,4.19,0,2.94-.69,7.72-2.02,10.39-1.15,2.26-2.3,2.81-4.79,2.81-0.92,0-1.7-.14-2.16-0.14s-0.6.32-.6,0.78a10.159,10.159,0,0,0,.78,3.27,1.96,1.96,0,0,0,2.12,1.1,9.388,9.388,0,0,0,8.69-4.97c2.03-3.68,2.76-9.89,2.76-14.12,0-2.53-.5-5.2-2.8-6.67-1.66-1.06-3.36-1.06-5.25-1.06-0.18,0-.36.05-0.55,0.05a0.928,0.928,0,0,1-1.01-.97,2.294,2.294,0,0,1,.09-0.5c0.14-.78.23-1.43,0.32-1.98,0.28-1.61.37-2.35,1.25-2.99a0.691,0.691,0,0,0,.36-0.55c0-.51-0.78-0.65-1.15-0.74C2743.42,5712.51,2739.93,5711.63,2739.47,5711.63Zm59.48,4.56c-0.83,0-3.5,1.61-3.5,2.44a1.218,1.218,0,0,0,.41.78c3.09,3.26,4.33,5.89,6.17,9.84a1.385,1.385,0,0,0,1.06,1.06c0.92,0,3.81-1.7,3.81-2.71C2806.9,5726.45,2800.65,5716.19,2798.95,5716.19Zm-16.7-4.56c-0.51,0-.51.56-0.51,0.92,0,0.56.05,1.06,0.05,1.57a43.359,43.359,0,0,1-.46,5.93,1.474,1.474,0,0,1-1.52,1.38,70.858,70.858,0,0,1-7.64,1.43c-0.59.04-1.38,0.04-1.38,0.73,0,0.23.79,4.74,1.94,4.74a3.841,3.841,0,0,0,.96-0.27,36.256,36.256,0,0,1,5.25-1.61,0.551,0.551,0,0,1,.59.59,24.886,24.886,0,0,1-1.15,3.45,37.67,37.67,0,0,1-8.18,12.84,1.684,1.684,0,0,0-.65,1.06c0,1.05,2.95,2.8,3.73,2.8a1.271,1.271,0,0,0,.83-0.46,53.644,53.644,0,0,0,4.6-6.62,55.02,55.02,0,0,0,5.84-13.66c0.32-1.29.78-1.66,3.4-1.66,2.76,0,2.9,1.89,2.9,4.19,0,2.94-.69,7.72-2.02,10.39-1.15,2.26-2.3,2.81-4.79,2.81-0.92,0-1.7-.14-2.16-0.14s-0.6.32-.6,0.78a10.159,10.159,0,0,0,.78,3.27,1.96,1.96,0,0,0,2.12,1.1,9.388,9.388,0,0,0,8.69-4.97c2.03-3.68,2.76-9.89,2.76-14.12,0-2.53-.5-5.2-2.8-6.67-1.66-1.06-3.36-1.06-5.25-1.06-0.18,0-.36.05-0.55,0.05a0.928,0.928,0,0,1-1.01-.97,2.294,2.294,0,0,1,.09-0.5c0.14-.78.23-1.43,0.32-1.98,0.28-1.61.37-2.35,1.25-2.99a0.691,0.691,0,0,0,.36-0.55c0-.51-0.78-0.65-1.15-0.74C2786.2,5712.51,2782.71,5711.63,2782.25,5711.63Zm50.83,1.34a2.566,2.566,0,0,0,.09.6,44.679,44.679,0,0,1,1.61,12.83,27.035,27.035,0,0,1-2.12,11.59,17.437,17.437,0,0,1-6.25,7.18,1.066,1.066,0,0,0-.69.78c0,0.97,2.67,3.22,3.4,3.22,1.06,0,2.95-1.84,3.68-2.58,5.8-5.88,7.13-12.65,7.13-20.6a61.24,61.24,0,0,0-1.42-13.25c-0.19-.69-0.28-1.24-1.15-1.24C2836.85,5711.5,2833.08,5711.96,2833.08,5712.97Zm-13.39.69c-0.32-.14-2.34-0.97-2.48-0.97-0.42,0-.55.83-0.6,1.15-0.18,1.15-.51,2.26-0.78,3.41a43.2,43.2,0,0,0-1.06,9.43,38.235,38.235,0,0,0,1.52,10.71c0.27,0.88.6,1.71,1.61,1.71,0.87,0,3.31-.56,3.31-1.84,0-.33-0.09-0.83-0.09-1.48a17.933,17.933,0,0,1,1.52-5.7l0.41-1.1c0.41-1.11,1.1-2.72,1.1-2.86,0-.59-1.38-1.42-1.79-1.42-0.55,0-1.38,1.98-1.61,2.48-0.18.46-.46,1.2-0.83,1.2-0.5,0-.46-1.98-0.46-2.35a24.149,24.149,0,0,1,.6-5.15,18.522,18.522,0,0,1,1.33-3.86,2.116,2.116,0,0,1,.88-0.92,0.829,0.829,0,0,0,.55-0.6C2822.82,5714.99,2820.7,5714.12,2819.69,5713.66Zm45.45,26.36c1.06,0,2.16,0,2.16.87,0,2.48-1.79,3.08-3.91,3.08-1.19,0-3.26-.27-3.26-1.84C2860.13,5740.15,2863.71,5740.02,2865.14,5740.02Zm1.56-28.85c-0.41,0-.69.1-0.69,0.56a3.662,3.662,0,0,0,.1.73c0.13,0.78.41,3.87,0.41,4.6,0,1.24-1.15,1.15-5.2,1.15-2.25,0-6.12-.37-7.08-0.37-0.78,0-.83.65-0.83,1.29a8.179,8.179,0,0,0,.51,3.36c0.27,0.37,1.42.41,2.66,0.41h1.38c2.49,0,6.17-.23,7.78-0.23,1.19,0,1.24,1.89,1.24,3.22,0,1.02-.64,1.15-2.35,1.15h-2.07c-1.74,0-4.32-.23-4.87-0.23-0.65,0-.78.42-0.78,0.97a9.715,9.715,0,0,0,.59,3.22c0.37,0.83,1.25.78,3.13,0.78,1.98,0,4.56-.18,5.52-0.18,1.15,0,1.06,1.7,1.06,3.17,0,0.46,0,1.29-.78,1.29-0.28,0-1.34-.09-1.89-0.09-3.82,0-8.83,1.47-8.83,6.12,0,4.27,4,5.98,7.68,5.98,3.73,0,7.36-1.15,8.33-5.11a1.016,1.016,0,0,1,.92-1.01c0.92,0,3.95,2.16,4.78,2.8a2.484,2.484,0,0,0,1.43.74c1.1,0,2.62-2.35,2.62-3.36,0-1.65-6.07-4.23-7.59-4.74-1.98-.64-2.16-0.27-2.16-5.06,0-1.28.92-1.28,2.67-1.47a41.642,41.642,0,0,0,4.73-.78c0.83-.18.88-0.64,0.88-2.16,0-1.75-.14-2.76-0.78-2.76a3.066,3.066,0,0,0-.88.18,39.05,39.05,0,0,1-5.89,1.11,0.781,0.781,0,0,1-.73-0.74,14.885,14.885,0,0,1-.23-2.44c0-1.29,1.1-1.24,2.07-1.38,2.44-.27,5.29-0.69,7.68-1.19,0.87-.19,1.29-0.28,1.29-1.2,0-.78-0.14-3.77-1.15-3.77a10.693,10.693,0,0,0-1.75.37,47.406,47.406,0,0,1-5.01,1.05c-0.33.05-2.12,0.33-2.3,0.33-0.83,0-.97-0.69-0.97-1.34,0.09-3.72.87-2.94,0.87-3.82,0-.5-0.64-0.59-1.84-0.73C2869.56,5711.5,2867.39,5711.17,2866.7,5711.17Zm34.55,4.14a0.63,0.63,0,0,0-.74.69,2.926,2.926,0,0,0,.1.65c0.23,1.65.32,5.38,0.32,7.08,0,1.38-.83,1.43-1.93,1.61-1.38.19-4.6,0.74-5.85,0.78-0.78,0-1.42,0-1.42,1.02,0,0.5.14,1.51,0.18,2.02,0.05,0.28.05,0.55,0.09,0.78,0.1,1.11.23,1.84,0.92,1.84a2.884,2.884,0,0,0,.69-0.09c0.83-.23,6.03-1.43,6.54-1.43,0.87,0,1.01.83,1.01,1.52,0.09,2.85.04,6.72,0.78,9.39,1.52,5.42,7.45,5.75,12.1,5.75,1.19,0,8.05-.23,8.74-0.74,0.55-.46.55-2.94,0.55-3.68,0-.51-0.09-1.33-0.74-1.33a1.463,1.463,0,0,0-.41.04,48.212,48.212,0,0,1-8.88.92c-3.22,0-6.12-.14-6.94-3.08a53.64,53.64,0,0,1-.56-8.37c0-1.29.51-1.66,1.71-1.89,0.92-.18,6.85-1.24,7.4-1.24a0.768,0.768,0,0,1,.78.78,16.143,16.143,0,0,1-.5,2.81c-0.51,1.56-1.57,1.98-3.13,1.98-0.37,0-.78-0.05-1.15-0.05a0.806,0.806,0,0,0-.74.92,8.089,8.089,0,0,0,.79,3.5,1.55,1.55,0,0,0,1.19.36c6.67,0,7.78-3.81,8.24-9.56,0.13-1.84,1.01-1.61,3.58-1.84,1.52-.14,2.63-0.23,3.45-0.28,2.21-.09,2.4,0,2.4-2.16,0-2.44,0-3.13-.88-3.13-0.6,0-2.94.37-3.68,0.46-0.6.09-3.31,0.51-3.68,0.51a1.035,1.035,0,0,1-.92-1.29c0-1.2-.04-2.35-0.04-3.54a4.8,4.8,0,0,1,.32-2.3,1.467,1.467,0,0,0,.41-0.74c0-.41-0.6-0.46-0.92-0.55a46.237,46.237,0,0,0-4.74-.78,0.565,0.565,0,0,0-.64.59,3,3,0,0,0,.09.6,36.3,36.3,0,0,1,.78,7.45c0,1.61-.78,1.52-3.31,1.89-0.83.09-5.33,0.87-5.75,0.87-0.92,0-.92-1.05-0.92-1.74v-1.25c0-1.33.05-3.03,0.65-3.72a1.3,1.3,0,0,0,.46-0.74,0.693,0.693,0,0,0-.6-0.55A51.636,51.636,0,0,0,2901.25,5715.31Zm35.24,27.19c-0.05.09-.83,1.98-0.83,2.02,0,0.79,3.68,2.12,4.41,2.12,0.79,0,.88-0.83,1.02-1.43a31.861,31.861,0,0,1,4.23-9.66,13.734,13.734,0,0,1,4.69-4.18,8.48,8.48,0,0,1,3.96-1.29c1.33,0,1.74.92,1.74,2.12a20.644,20.644,0,0,1-.5,3.72,29.806,29.806,0,0,0-.6,5.34c0,2.9,1.33,5.7,4.6,5.7,3.59,0,6.72-2.53,9.25-4.83,1.1-1.01,2.16-2.07,3.22-3.13a1.737,1.737,0,0,0,.5-1.01c0-.64-1.56-4.28-2.39-4.28a1.424,1.424,0,0,0-.92.65c-1.43,2.02-5.8,7.59-8.37,7.59-0.92,0-1.2-.97-1.2-1.75a25.849,25.849,0,0,1,.74-4.51,24.665,24.665,0,0,0,.6-4.46,7.676,7.676,0,0,0-.51-2.9c-0.78-1.75-3.04-2.71-4.88-2.71a10.325,10.325,0,0,0-4.87,1.56,1.8,1.8,0,0,1-.83.32,0.5,0.5,0,0,1-.46-0.46c0-.64,4-6.48,4.65-7.36a45.379,45.379,0,0,1,2.89-3.77,2.03,2.03,0,0,1,1.2-.6,0.776,0.776,0,0,0,.83-0.73c0-.51-1.66-1.66-2.12-1.98a11.615,11.615,0,0,0-2.57-1.75,1.1,1.1,0,0,0-.69.69c-0.6,1.11-1.2,2.07-1.89,3.18a141.408,141.408,0,0,0-9.61,16.23C2939.89,5734.77,2938.19,5738.64,2936.49,5742.5Zm54.69-30.5a0.574,0.574,0,0,0-.55.69c0,0.09.09,1.06,0.09,1.8a41.867,41.867,0,0,1-.51,5.93,1.471,1.471,0,0,1-1.47,1.43c-2.53.46-5.1,1.1-7.68,1.38-0.55.04-1.33,0.04-1.33,0.73,0,0.28.78,4.79,1.88,4.79a3.274,3.274,0,0,0,.97-0.33,38.42,38.42,0,0,1,5.29-1.61,0.587,0.587,0,0,1,.6.6,17.39,17.39,0,0,1-1.15,3.5,36.615,36.615,0,0,1-8.24,12.79,1.718,1.718,0,0,0-.64,1.05c0,1.06,2.94,2.81,3.77,2.81a1.066,1.066,0,0,0,.78-0.46,41.8,41.8,0,0,0,4.56-6.53,51.992,51.992,0,0,0,5.88-13.76c0.33-1.28.83-1.65,3.41-1.65,2.8,0,2.94,1.93,2.94,4.18,0,2.99-.73,7.78-2.07,10.4-1.15,2.3-2.3,2.85-4.83,2.85-0.92,0-1.61-.18-2.07-0.18a0.646,0.646,0,0,0-.64.78,9.123,9.123,0,0,0,.83,3.31c0.46,0.97,1.1,1.06,2.11,1.06a9.4,9.4,0,0,0,8.7-4.97c2.02-3.68,2.76-9.89,2.76-14.07,0-2.58-.56-5.2-2.86-6.72-1.61-1.01-3.35-1.01-5.19-1.01h-0.56a0.9,0.9,0,0,1-1.01-.92,2.527,2.527,0,0,1,.09-0.55c0.14-.74.23-1.38,0.33-1.89,0.23-1.66.32-2.39,1.19-3.04a0.772,0.772,0,0,0,.42-0.59c0-.51-0.83-0.65-1.2-0.74C2995.09,5712.88,2991.64,5712,2991.18,5712Zm18.72,0c-0.55,0-2.21,1.38-2.21,1.93a1.13,1.13,0,0,0,.42.65,39.061,39.061,0,0,1,3.26,3.54,1.393,1.393,0,0,0,.65.51c0.6,0,2.21-1.38,2.21-2.12C3014.23,5715.96,3010.36,5712,3009.9,5712Zm4.33-3.26c-0.46,0-2.21,1.38-2.21,1.93a1.039,1.039,0,0,0,.46.64c1.15,1.15,2.21,2.3,3.26,3.54a0.941,0.941,0,0,0,.65.51c0.55,0,2.21-1.38,2.21-2.12C3018.6,5712.74,3014.73,5708.74,3014.23,5708.74Zm-7.5,8.28c-0.74,0-3.27,1.51-3.27,2.34a1.4,1.4,0,0,0,.42.78c2.89,3.09,4.41,6.08,6.16,9.85a1.32,1.32,0,0,0,1.06,1.06c0.92,0,3.82-1.71,3.82-2.76C3014.92,5727.14,3008.48,5717.02,3006.73,5717.02Zm9.01,23.73a1.321,1.321,0,0,0,.83.88,27.964,27.964,0,0,1,6.99,6.25,1.514,1.514,0,0,0,.92.69c1.06,0,3.36-2.53,3.36-3.54,0-1.15-7.91-7.5-8.97-7.5C3018.09,5737.53,3015.74,5739.97,3015.74,5740.75Z" transform="translate(-2552.94 -5708.66)"/>
</svg>
