<svg xmlns="http://www.w3.org/2000/svg" width="330.936" height="32.75" viewBox="0 0 330.936 32.75">
  <defs>
    <style>
      .cls-1 {
        fill-rule: evenodd;
      }
    </style>
  </defs>
  <path id="知識や経験をシェアし" class="cls-1" d="M998.346,1160.51a0.96,0.96,0,0,1-1.009-1.01v-14.63a0.958,0.958,0,0,1,1.009-1h3.824a0.947,0.947,0,0,1,.97,1v14.63a0.95,0.95,0,0,1-.97,1.01h-3.824Zm3.784,3.46a0.855,0.855,0,0,1,.97.97c0,0.29-.03.58-0.03,0.87,0,0.97.43,0.93,1.83,0.93s1.88,0.04,1.88-.93c0-1.44-.07-2.85-0.07-4.25v-16.14c0-1.12.03-2.2,0.03-3.32,0-1.51-.79-1.84-2.12-1.84-0.83,0-1.66.04-2.49,0.04h-3.892c-0.829,0-1.657-.04-2.486-0.04-1.369,0-2.126.36-2.126,1.84,0,1.12.072,2.23,0.072,3.32v16.5c0,1.44-.108,2.84-0.108,4.28,0,0.94.5,0.91,1.946,0.91s1.873,0.03,1.873-.94c0-.43,0-0.83-0.036-1.23a0.86,0.86,0,0,1,.973-0.97h3.784Zm-15.746-14.2c0.036-1.22.036-2.45,0.036-3.67a0.9,0.9,0,0,1,1.045-.97c1.153-.04,2.378.07,3.387,0.07,0.865,0,.829-0.36.829-1.73,0-1.41.036-1.8-.829-1.8-1.045,0-2.234.07-3.387,0.07h-3.891a0.618,0.618,0,0,1-.721-0.61c0-.07.036-0.18,0.036-0.29,0.361-.97.577-1.62,0.721-2.09,0.324-.9.36-1.05,0.9-1.23a0.816,0.816,0,0,0,.576-0.57c0-.36-0.36-0.43-1.225-0.65l-0.792-.22c-0.325-.07-1.586-0.39-1.838-0.39a0.476,0.476,0,0,0-.432.5,32.424,32.424,0,0,1-4.864,10.85,3.27,3.27,0,0,0-.577,1.04c0,0.65,2.09,1.69,2.414,1.69,0.793,0,2.486-3.17,2.847-3.92a1.182,1.182,0,0,1,1.261-.72,0.834,0.834,0,0,1,1.008,1.01v3.63a0.862,0.862,0,0,1-1.008.94h-1.874c-1.189,0-2.45-.11-3.5-0.11-0.792,0-.756.51-0.756,1.81,0,1.26-.036,1.76.756,1.76,0.973,0,2.27-.11,3.5-0.11h1.621a0.8,0.8,0,0,1,.9.94,13.876,13.876,0,0,1-6.269,9.44,2.147,2.147,0,0,0-1.153,1.12c0,0.61,1.477,2.48,2.126,2.48a2.863,2.863,0,0,0,1.189-.57,18.289,18.289,0,0,0,6.449-7.68,0.5,0.5,0,0,1,.432-0.32,0.381,0.381,0,0,1,.361.25,24.344,24.344,0,0,0,3.206,4.65,4.123,4.123,0,0,0,1.658,1.33,3.975,3.975,0,0,0,2.306-2.27,1.26,1.26,0,0,0-.5-0.79,29.641,29.641,0,0,1-5.728-7.42,1.347,1.347,0,0,1-.181-0.62c0-.43.4-0.5,0.757-0.54h1.189c1.261,0,2.558.11,3.5,0.11,0.793,0,.756-0.43.756-1.76,0-1.37.037-1.81-.756-1.81-1.009,0-2.306.11-3.5,0.11h-1.009A0.866,0.866,0,0,1,986.384,1149.77Zm57.426-6.08a14.285,14.285,0,0,0-.97-2.71c-1.05-2.41-1.3-2.84-1.73-2.84-0.4,0-2.05.54-2.05,1.08a2.065,2.065,0,0,0,.21.65,28.177,28.177,0,0,1,1.37,3.06c0.11,0.29.18,0.5,0.25,0.72,0.33,0.86.4,1.12,0.83,1.12C1041.97,1144.77,1043.81,1144.41,1043.81,1143.69Zm-15.96,2.37a10.9,10.9,0,0,0-.5-1.87c-0.36-1.22-.51-1.55-1.01-1.55-0.33,0-2.2.22-2.2,0.94a3.577,3.577,0,0,0,.14.54,12.547,12.547,0,0,1,.58,1.73c0.18,0.68.18,1.11,0.79,1.11C1025.9,1146.96,1027.85,1146.82,1027.85,1146.06Zm-8.18-1.29c0.94,0,2.02.07,2.7,0.07,0.9,0,.83-0.43.83-1.51s0.07-1.52-.83-1.52c-0.75,0-1.76.07-2.7,0.07h-4.21c-0.98,0-1.95-.07-2.74-0.07-0.83,0-.83.4-0.83,1.52s0,1.51.86,1.51c0.72,0,1.7-.07,2.71-0.07h4.21Zm-0.72,9.72c0.94,0,1.69.08,2.42,0.08,0.86,0,.82-0.4.82-1.52,0-1.08.04-1.51-.86-1.51-0.58,0-1.44.07-2.38,0.07h-2.34c-0.94,0-1.84-.07-2.41-0.07-0.87,0-.83.4-0.83,1.51,0,1.16-.04,1.52.83,1.52,0.61,0,1.44-.08,2.41-0.08h2.34Zm0.15-4.86c0.9,0,1.69.07,2.23,0.07,0.9,0,.86-0.39.86-1.51,0-1.01.04-1.44-.82-1.44-0.51,0-1.41.07-2.27,0.07h-2.6c-0.86,0-1.76-.07-2.27-0.07-0.83,0-.79.43-0.79,1.48,0,1.08-.04,1.47.83,1.47,0.5,0,1.37-.07,2.23-0.07h2.6Zm-0.11-9.66c0.97,0,1.76.08,2.38,0.08,0.86,0,.82-0.47.82-1.55,0-1.12.08-1.59-.82-1.59-0.55,0-1.48.07-2.38,0.07h-2.38c-0.9,0-1.87-.07-2.38-0.07-0.9,0-.83.47-0.83,1.59,0,1.08-.07,1.55.83,1.55,0.51,0,1.44-.08,2.38-0.08h2.38Zm0.32,22.31a0.9,0.9,0,0,1-.97,1.01h-0.83a0.988,0.988,0,0,1-1.01-1.01v-2.13a0.988,0.988,0,0,1,1.01-1.01h0.83a0.955,0.955,0,0,1,.97,1.01v2.13Zm-0.86,3.78a0.717,0.717,0,0,1,.83.83v0.29c0,0.79.36,0.83,1.62,0.83s1.58-.04,1.58-0.83c0-.9-0.07-1.8-0.07-2.71v-4.25c0-.72.07-1.47,0.07-2.19a1.473,1.473,0,0,0-1.73-1.73c-0.54,0-1.11.03-1.69,0.03h-2.63c-0.58,0-1.15-.03-1.73-0.03-1.23,0-1.66.57-1.66,1.76,0,0.72.04,1.44,0.04,2.16v4.25c0,0.91-.07,1.77-0.07,2.67,0,0.87.36,0.87,1.8,0.87,1.62,0,1.76-.04,1.73-1.12a0.725,0.725,0,0,1,.83-0.83h1.08Zm11.09-6.59a0.781,0.781,0,0,1,.83.86v0.33a0.8,0.8,0,0,1-.83.86h-1.55a0.83,0.83,0,0,1-.86-0.86v-0.33a0.808,0.808,0,0,1,.86-0.86h1.55Zm0.83-3.32a0.8,0.8,0,0,1-.83.87h-1.55a0.832,0.832,0,0,1-.86-0.87v-0.29a0.808,0.808,0,0,1,.86-0.86h1.55a0.781,0.781,0,0,1,.83.86v0.29Zm4.9-4.97a63.2,63.2,0,0,0,.76,8.72c0,0.14.04,0.32,0.04,0.47a1.621,1.621,0,0,1-.47,1.11,19.725,19.725,0,0,1-1.44,1.45,0.55,0.55,0,0,1-.33.14,0.4,0.4,0,0,1-.39-0.43c0-.47-0.04-0.9-0.04-1.34v-5.87c0-.61.04-1.26,0.04-1.87a1.2,1.2,0,0,0-1.41-1.41c-0.65,0-1.26.04-1.91,0.04h-2.77c-0.65,0-1.26-.04-1.91-0.04a1.219,1.219,0,0,0-1.41,1.48c0,0.61.04,1.19,0.04,1.8v8.22c0,0.79-.04,1.58-0.04,2.37,0,0.76.4,0.72,1.51,0.72h0.44c1.22,0,1.15-.07,1.15-1.33a0.807,0.807,0,0,1,.97-0.97h3.21a0.316,0.316,0,0,1,.32.32,0.282,0.282,0,0,1-.14.26c-0.14.1-.25,0.18-0.36,0.25a1.128,1.128,0,0,0-.69.75,2.526,2.526,0,0,0,1.84,1.99c0.79,0,3.43-2.49,4.07-3.14a0.889,0.889,0,0,1,.51-0.21,0.609,0.609,0,0,1,.5.43c0.58,1.47,1.44,2.92,3.21,2.92,1.69,0,2.49-1.19,3.1-2.63a13.887,13.887,0,0,0,.97-3.93c0-.9-1.15-1.26-1.87-1.26-0.62,0-.62.25-0.69,0.79-0.07.58-.32,2.92-1.04,2.92-0.58,0-1.01-1.77-1.16-2.24a2.865,2.865,0,0,1-.07-0.5,2.238,2.238,0,0,1,.36-1.04,47.358,47.358,0,0,0,3.14-5.55,1.151,1.151,0,0,1,.79-0.87,0.608,0.608,0,0,0,.54-0.47c0-.32-0.43-0.54-1.22-1.01a1.37,1.37,0,0,1-.26-0.14,5.836,5.836,0,0,0-1.55-.76,0.382,0.382,0,0,0-.32.33,39.468,39.468,0,0,1-1.8,4.14,0.364,0.364,0,0,1-.29.22,0.32,0.32,0,0,1-.29-0.29c-0.18-1.51-.25-3.03-0.29-4.54a0.816,0.816,0,0,1,.98-0.94c1.22-.03,2.45.08,3.67,0.08,0.83,0,.79-0.47.79-1.59,0-1.15.04-1.55-.82-1.55-1.23,0-2.45.11-3.68,0.07a0.859,0.859,0,0,1-1.01-1.01v-7.85c0-.87,0-1.01.4-1.19a0.865,0.865,0,0,0,.54-0.58c0-.46-0.87-0.57-2.16-0.64-0.33-.04-0.69-0.04-1.05-0.08h-0.47a0.548,0.548,0,0,0-.65.65c0,0.29.04,1.41,0.04,2.27v7.5a0.831,0.831,0,0,1-1.01.93h-1.3a0.639,0.639,0,0,1-.72-0.61,0.887,0.887,0,0,1,.08-0.32c0.21-.54.43-1.05,0.61-1.59a0.575,0.575,0,0,1,.5-0.4,0.384,0.384,0,0,0,.4-0.32c0-.61-2.99-1.37-3.14-1.37a0.574,0.574,0,0,0-.39.58,17.4,17.4,0,0,1-.94,3.17,1.167,1.167,0,0,1-1.33.86h-0.83c-1.23,0-2.45-.07-3.68-0.07-0.86,0-.82.43-0.82,1.55,0,1.08-.08,1.59.79,1.59,1.22,0,2.48-.08,3.71-0.08h7.1A0.873,0.873,0,0,1,1035.27,1151.18Zm-4.79-12.83a1.116,1.116,0,0,1,.4-1.26,0.8,0.8,0,0,0,.54-0.54c0-.43-0.58-0.47-0.94-0.5-0.65-.07-2.27-0.25-2.88-0.25-0.36,0-.65.07-0.65,0.5v0.32a13.861,13.861,0,0,1,.11,1.7,0.826,0.826,0,0,1-.9.97c-0.44,0-1.84-.07-2.13-0.07-0.65,0-.65.47-0.65,1.62,0,1.22,0,1.58.69,1.58,0.86,0,1.76-.07,2.66-0.07h3.93c0.9,0,1.8.07,2.67,0.07,0.68,0,.68-0.39.68-1.58,0-1.15.04-1.62-.65-1.62-0.14,0-1.62.07-1.94,0.07A0.828,0.828,0,0,1,1030.48,1138.35Zm27.27,0.36c-0.79,0-1.62,2.53-1.62,2.92a0.836,0.836,0,0,0,.87.69,28.357,28.357,0,0,1,3.81,1.29,4.936,4.936,0,0,0,1.52.51c0.93,0,1.65-2.31,1.65-2.67,0-.57-1.4-1.08-2.12-1.37A30.92,30.92,0,0,0,1057.75,1138.71Zm-8.57,18.13a2.2,2.2,0,0,0,.68-0.4c0.54-.5,3.32-2.81,3.86-2.81a1.063,1.063,0,0,1,.86.68c1.8,3.57,3.75,6.99,5.59,10.53,0.36,0.72.61,1.33,1.11,1.33,0.69,0,3.17-1.26,3.17-1.95a4.847,4.847,0,0,0-.79-1.55c-0.9-1.4-6.34-10.26-6.34-11.24a1.15,1.15,0,0,1,.72-0.9c2.52-1.51,6.52-3.78,9.44-3.78,1.84,0,3.31.94,3.31,2.88,0,3.14-4.32,4.29-6.81,4.72-0.46.07-1.15,0.11-1.15,0.72,0,0.51.97,2.96,1.91,2.96a8.724,8.724,0,0,0,1.41-.26c4.14-1.04,8.5-3.35,8.5-8.21,0-4.14-2.99-6.31-6.92-6.31-4.03,0-7.71,1.95-11.1,3.97a1.832,1.832,0,0,1-.86.32,0.945,0.945,0,0,1-.86-0.68,21.781,21.781,0,0,1-1.45-3.57,0.62,0.62,0,0,1,.08-0.29,1.889,1.889,0,0,0,.07-0.39,0.365,0.365,0,0,0-.43-0.37,5.4,5.4,0,0,0-1.19.37c-0.51.18-.98,0.36-1.37,0.5-1.08.4-1.73,0.61-1.73,0.94a1.064,1.064,0,0,0,.36.68c0.58,0.76,2.7,4.07,2.7,4.86a1.471,1.471,0,0,1-.9,1.12c-0.86.58-2.59,1.8-3.39,2.2a1.008,1.008,0,0,0-.75.76C1046.91,1154.39,1048.49,1156.84,1049.18,1156.84Zm42.8,5.65a30.414,30.414,0,0,0-1.19-3.71c-0.72-1.87-1.12-2.99-1.73-2.99-0.36,0-2.06.36-2.06,1.05a1.74,1.74,0,0,0,.26.72,35.216,35.216,0,0,1,1.83,5.04,1.1,1.1,0,0,0,.87,1.05C1090.25,1163.65,1091.98,1163.25,1091.98,1162.49Zm-9.3-5.11a0.914,0.914,0,0,0-.86-0.58,19.958,19.958,0,0,0-2.27-.5c-0.4,0-.44.39-0.47,0.68a33.041,33.041,0,0,1-1.77,7.21,6.177,6.177,0,0,0-.29,1.08c0,0.65,1.84.97,2.27,0.97a0.929,0.929,0,0,0,.76-0.9c0.4-1.37,1.48-5.44,1.69-6.77a0.783,0.783,0,0,1,.58-0.8A0.456,0.456,0,0,0,1082.68,1157.38Zm18.09-13.84a0.805,0.805,0,0,1-1.3,0,15.166,15.166,0,0,1-1.55-2.41,1.266,1.266,0,0,1-.11-0.36,0.54,0.54,0,0,1,.65-0.51h3.75c0.5,0,.83.04,0.83,0.36C1103.04,1141.13,1101.2,1143.11,1100.77,1143.54Zm-1.55,5.59a1.414,1.414,0,0,1,.75-0.26,1.265,1.265,0,0,1,.8.29,26.4,26.4,0,0,0,6.63,3.43,4.4,4.4,0,0,0,1.15.28c0.9,0,1.84-1.83,1.84-2.66a0.745,0.745,0,0,0-.72-0.65,25.668,25.668,0,0,1-6.16-2.6,0.619,0.619,0,0,1-.36-0.57,0.711,0.711,0,0,1,.28-0.58,24.674,24.674,0,0,0,3.86-4.83,1.749,1.749,0,0,1,.14-0.25,4.247,4.247,0,0,0,.65-1.62,2.976,2.976,0,0,0-.79-1.48,1.945,1.945,0,0,0-1.62-.61c-0.72,0-1.44.04-2.2,0.04h-7.57c-1.15,0-2.27-.08-3.42-0.08-0.68,0-.65.44-0.65,1.7,0,1.22-.03,1.66.65,1.66,0.43,0,.87-0.04,1.3-0.08a0.562,0.562,0,0,1,.39.36,24.9,24.9,0,0,0,2.85,4.87,1.124,1.124,0,0,1,.22.61,0.838,0.838,0,0,1-.4.65,28.029,28.029,0,0,1-4.9,2.45,1.111,1.111,0,0,0-1.01.76c0,0.79,1.12,2.41,1.95,2.41C1093.99,1152.37,1098.14,1149.85,1099.22,1149.13Zm-17.12.07c-0.32.5-.61,0.97-0.97,1.48a1.505,1.505,0,0,1-1.4.82,7.162,7.162,0,0,1-.9.04h-0.47c-0.72,0-1.08.04-1.08,0.4a14.241,14.241,0,0,0,.36,1.69c0.1,0.4.14,0.72,0.21,1.01,0.18,0.9.22,1.12,0.62,1.12a0.733,0.733,0,0,0,.54-0.44,0.525,0.525,0,0,1,.46-0.39c0.9-.07,1.77-0.18,2.63-0.29h0.15a0.8,0.8,0,0,1,.83.9v6.63c0,1.55-.11,3.1-0.11,4.65,0,1.11.43,1.15,1.8,1.15,1.44,0,1.8-.04,1.8-1.15,0-1.55-.07-3.1-0.07-4.65v-7.1a0.981,0.981,0,0,1,.9-1.15,6.032,6.032,0,0,0,.83-0.15h0.25a0.9,0.9,0,0,1,.83.62l0.11,0.36c0.18,0.61.36,1.04,0.83,1.04,0.21,0,2.16-.5,2.16-1.19a7.152,7.152,0,0,0-.51-1.51c-0.68-1.48-1.44-3.13-2.23-4.83a0.819,0.819,0,0,0-.76-0.54c-0.39,0-1.98.51-1.98,1.05a5.546,5.546,0,0,0,.47,1.19,0.758,0.758,0,0,1,.11.32,0.648,0.648,0,0,1-.65.65c-0.54.07-1.04,0.11-1.59,0.18a0.433,0.433,0,0,1-.5-0.43,0.863,0.863,0,0,1,.11-0.29c1.76-2.42,3.31-4.97,4.86-7.5a0.885,0.885,0,0,1,.61-0.36c0.37-.07.69-0.07,0.69-0.43a1.173,1.173,0,0,0-.65-0.72c-0.11-.04-0.29-0.14-0.58-0.29a14.448,14.448,0,0,0-2.12-1.08c-0.29,0-.33.22-0.51,0.58-0.75,1.47-1.58,2.88-2.41,4.28a0.716,0.716,0,0,1-.61.4,0.947,0.947,0,0,1-.58-0.25,4.53,4.53,0,0,0-.5-0.47,0.749,0.749,0,0,1-.29-0.58,0.724,0.724,0,0,1,.11-0.39c0.97-1.91,1.73-3.5,2.59-5.48a0.855,0.855,0,0,1,.51-0.4c0.28-.03.61-0.07,0.61-0.43a0.876,0.876,0,0,0-.61-0.57,1.6,1.6,0,0,0-.29-0.11,20.047,20.047,0,0,0-2.38-.9,0.534,0.534,0,0,0-.43.5,40.959,40.959,0,0,1-2.16,5.37,0.629,0.629,0,0,1-.55.4,0.775,0.775,0,0,1-.46-0.18,1.492,1.492,0,0,0-.65-0.36c-0.61,0-1.62,2.01-1.62,2.45a0.7,0.7,0,0,0,.43.57,41.323,41.323,0,0,1,4,3.28,1.111,1.111,0,0,1,.43.79A1.409,1.409,0,0,1,1082.1,1149.2Zm15.17,9.87a0.859,0.859,0,0,1,1.01,1.01v2.7a0.859,0.859,0,0,1-1.01,1.01h-2.34c-1.22,0-2.45-.07-3.67-0.07-0.94,0-.91.5-0.91,1.73,0,1.29-.03,1.8.94,1.8,1.23,0,2.42-.11,3.64-0.11h10.27c1.22,0,2.45.11,3.67,0.11,0.94,0,.9-0.51.9-1.77,0-1.22.08-1.76-.9-1.76-1.22,0-2.45.07-3.67,0.07h-2.34a0.859,0.859,0,0,1-1.01-1.01v-2.7a0.859,0.859,0,0,1,1.01-1.01h1.01c1.26,0,2.55.07,3.85,0.07,0.97,0,.94-0.47.94-1.73,0-1.19.03-1.73-.9-1.73-1.3,0-2.6.11-3.89,0.11h-1.01a0.844,0.844,0,0,1-1.01-.93c-0.04-1.41-.04-1.95.39-2.27a0.69,0.69,0,0,0,.44-0.55c0-.39-0.54-0.43-0.83-0.46-0.58-.08-2.6-0.29-3.1-0.29a0.491,0.491,0,0,0-.61.5,1.461,1.461,0,0,0,.03.36,15.482,15.482,0,0,1,.11,2.63,0.869,0.869,0,0,1-1.01,1.01h-0.54c-1.29,0-2.59-.11-3.89-0.11-0.94,0-.9.51-0.9,1.73,0,1.3-.04,1.73.94,1.73,1.29,0,2.56-.07,3.85-0.07h0.54Zm26.98,1.12a21.781,21.781,0,0,0-.54-2.24c-0.5-1.76-.68-1.98-1.08-1.98a1.207,1.207,0,0,0-1.15.72,1.622,1.622,0,0,0,.11.47,19.31,19.31,0,0,1,.65,2.23c0.29,1.37.29,1.77,0.79,1.77A1.25,1.25,0,0,0,1124.25,1160.19Zm-2.52,1.65a24.583,24.583,0,0,0-.47-2.59c-0.46-2.16-.64-2.56-1.11-2.56a1.065,1.065,0,0,0-1.12.76,1.528,1.528,0,0,0,.07.36c0.36,1.58.51,2.7,0.65,3.49,0.18,1.23.25,1.59,0.72,1.59A1.154,1.154,0,0,0,1121.73,1161.84Zm-2.7,1.7c0-.61-0.22-2.74-0.32-3.42-0.29-2.17-.36-2.71-1.01-2.71a0.984,0.984,0,0,0-1.08.69,3.261,3.261,0,0,0,.03.54,44.2,44.2,0,0,1,.51,4.9c0.03,0.47.03,0.93,0.68,0.93A1.028,1.028,0,0,0,1119.03,1163.54Zm-2.49-5.44c0-.43-1.87-0.65-2.12-0.65a0.416,0.416,0,0,0-.43.5v0.8a29.365,29.365,0,0,1-.58,5.58,1.568,1.568,0,0,0-.04.43c0,0.51.87,0.65,1.27,0.65,0.72,0,.75-0.65.82-1.37,0.18-1.44.29-2.92,0.36-4.36,0.04-.75-0.03-0.93.26-1.08A0.574,0.574,0,0,0,1116.54,1158.1Zm17.33-13.41a0.426,0.426,0,0,1-.43-0.39,0.4,0.4,0,0,1,.15-0.33,36.81,36.81,0,0,0,2.63-3.06,0.708,0.708,0,0,1,.54-0.32,0.66,0.66,0,0,1,.57.32,32.134,32.134,0,0,0,2.74,3.1,0.463,0.463,0,0,1,.15.32,0.418,0.418,0,0,1-.4.36h-5.95Zm-13.69,4.98a0.952,0.952,0,0,1,.98,1.01v0.43a0.963,0.963,0,0,1-.98,1.01h-0.79a1.013,1.013,0,0,1-1.01-1.01v-0.43a1,1,0,0,1,1.01-1.01h0.79Zm0.15-4.8a0.814,0.814,0,0,1,.83.87v0.5a0.809,0.809,0,0,1-.83.87h-1.08a0.835,0.835,0,0,1-.87-0.87v-0.5a0.84,0.84,0,0,1,.87-0.87h1.08Zm0.83-3.45a0.786,0.786,0,0,1-.83.86h-1.08a0.811,0.811,0,0,1-.87-0.86v-0.47a0.835,0.835,0,0,1,.87-0.87h1.08a0.809,0.809,0,0,1,.83.87v0.47Zm13.26,10.88a0.847,0.847,0,0,1,.97.97,7.312,7.312,0,0,1-.07,1.22,0.931,0.931,0,0,1-1.12.91h-0.58a0.863,0.863,0,0,1-1.01-.98v-1.11a0.884,0.884,0,0,1,1.01-1.01h0.8Zm4.32,2.16c0.03-.4.03-0.83,0.07-1.23a0.876,0.876,0,0,1,1.01-.93h0.86a0.86,0.86,0,0,1,.98,1.01v1.11a0.839,0.839,0,0,1-.98.98h-1.04A0.787,0.787,0,0,1,1138.74,1154.46Zm-7.35-7.75a0.651,0.651,0,0,0,.79.76c0.79,0,1.59-.04,2.38-0.04a0.757,0.757,0,0,1,.86.8v0.43a0.726,0.726,0,0,1-.86.79h-0.9c-0.72,0-1.44-.04-2.2-0.04-1.19,0-2.12.18-2.12,1.63,0,0.57.03,1.18,0.03,1.8v2.63c0,0.72-.03,1.44-0.03,2.16,0,1.12.72,1.08,1.65,1.08a2.786,2.786,0,0,0,1.34-.18,6.027,6.027,0,0,1,.64-0.29h0.58a0.631,0.631,0,0,1,.69.58,0.789,0.789,0,0,1-.08.29,14.754,14.754,0,0,1-6.52,6.05,0.963,0.963,0,0,0-.68.76c0,0.68,1.4,2.48,2.16,2.48,0.86,0,5.22-3.06,7.49-6.63a0.55,0.55,0,0,1,.51-0.29,0.624,0.624,0,0,1,.47.29,18.9,18.9,0,0,0,4.43,5.05,6.575,6.575,0,0,0,2.27,1.4,3.675,3.675,0,0,0,2.3-2.3,1.84,1.84,0,0,0-1.01-.94,19.115,19.115,0,0,1-5.87-5.87,1.266,1.266,0,0,1-.11-0.36,0.59,0.59,0,0,1,.65-0.51h1.08a6.168,6.168,0,0,1,.65.29,2.746,2.746,0,0,0,1.33.18c0.91,0,1.66.07,1.66-1.08,0-.72-0.03-1.44-0.03-2.16v-2.63c0-.62.03-1.23,0.03-1.84,0-1.37-.93-1.59-2.12-1.59-0.72,0-1.44.04-2.2,0.04h-0.97a0.727,0.727,0,0,1-.87-0.83v-0.36a0.745,0.745,0,0,1,.87-0.83c0.57,0,1.51.04,2.09,0.04a0.656,0.656,0,0,0,.79-0.72,0.271,0.271,0,0,1,.25-0.29,0.449,0.449,0,0,1,.18.07,4.451,4.451,0,0,0,1.8,1.08c0.83,0,2.13-1.58,2.13-2.34a1.172,1.172,0,0,0-.61-0.76,32.127,32.127,0,0,1-7.28-6.59,0.15,0.15,0,0,1-.04-0.14,0.232,0.232,0,0,1,.18-0.22,0.37,0.37,0,0,0,.25-0.32c0-.47-0.61-0.62-1.37-0.87a11.888,11.888,0,0,0-2.19-.72,0.87,0.87,0,0,0-.69.65,23.883,23.883,0,0,1-6.63,7.35,0.5,0.5,0,0,1-.29.11,0.426,0.426,0,0,1-.39-0.43c-0.04-.69.03-1.12-0.69-1.12-0.65,0-1.51.11-2.23,0.07a0.74,0.74,0,0,1-.87-0.86v-0.47a0.747,0.747,0,0,1,.87-0.87h0.86c0.76,0,1.48.08,2.24,0.08s0.75-.4.75-1.63c0-1.19,0-1.55-.79-1.55-0.65,0-1.4.04-2.2,0.04h-6.01c-0.87,0-1.73-.04-2.6-0.04-1.37,0-2.09.36-2.09,1.81,0,0.93.04,1.83,0.04,2.73v10.16c0,1.12-.04,2.27-0.04,3.43,0,0.75.36,0.72,1.66,0.72h0.51a1.39,1.39,0,0,0,1.08-.25,0.99,0.99,0,0,1,.68-0.54h4.18c1.01,0,1.66-.11,1.66.97a34.475,34.475,0,0,1-.8,6.38c-0.43,1.9-.82,2.27-2.45,2.27-0.64,0-1.36-.08-1.54-0.08-0.51,0-.65.47-0.65,1.3,0,1.98.83,2.27,1.87,2.27,2.67,0,4.25-.43,5.3-3.1,1.01-2.52,1.55-8.25,1.55-11.02,0-1.19-.04-1.99-1.77-1.99-0.47,0-.9.04-1.37,0.04a0.823,0.823,0,0,1-.94-0.97v-0.43a0.869,0.869,0,0,1,1.01-1.01c0.72,0,1.73.07,2.13,0.07,0.65,0,.65-0.43.65-1.33,0-1.01,0-1.37-.69-1.37-0.5,0-1.37.1-2.23,0.07a0.743,0.743,0,0,1-.87-0.87v-0.5a0.761,0.761,0,0,1,.87-0.87c0.54,0,1.08.04,1.62,0.04a0.207,0.207,0,0,1,.15.25c-0.04.8,1.4,2.53,2.16,2.53a5.911,5.911,0,0,0,2.01-1.27,0.477,0.477,0,0,1,.22-0.07A0.361,0.361,0,0,1,1131.39,1146.71Zm29.94-10.7c-0.36,0-.44.36-0.51,0.76a20,20,0,0,1-1.94,4.65c-0.33.43-1.3,0.46-2.24,0.46h-1.04c-1.05,0-1.98-.07-2.6-0.07-0.9,0-1.04.22-1.04,1.66,0,1.84.14,2.02,0.94,2.02,1.11,0,1.94-.11,2.52-0.11,0.5,0,.79.11,0.79,0.43,0,0.69-5.22,7.93-6.05,8.83a1.513,1.513,0,0,0-.47.79c0,0.65,2.41,2.09,3.06,2.09a0.613,0.613,0,0,0,.51-0.36,23.182,23.182,0,0,1,3.02-4.21c1.41-1.45,4.72-3.18,6.74-3.18a1.5,1.5,0,0,1,1.58,1.23,4.469,4.469,0,0,1,.18,1.01,0.918,0.918,0,0,1-.64.83,24,24,0,0,0-2.24,1.19c-2.48,1.47-5.11,3.24-5.11,6.48a5.461,5.461,0,0,0,3.6,5.15,13.329,13.329,0,0,0,5.69.94,47.016,47.016,0,0,0,6.92-.47c0.79-.18.83-0.47,0.83-1.55,0-2.05-.25-2.45-0.72-2.45a3.963,3.963,0,0,0-.72.08,26.635,26.635,0,0,1-6.7.9c-1.73,0-5.23-.22-5.23-2.63,0-2.24,3.71-3.82,3.89-3.82a0.5,0.5,0,0,1,.47.61c0,0.76-.07,1.55-0.07,2.34,0,0.94.65,1.01,2.2,1.01,1.37,0,1.55-.14,1.55-1.44,0-1.12-.04-2.2-0.04-3.32v-0.46a1.1,1.1,0,0,1,.94-1.19c1.4-.62,2.81-1.23,4.25-1.77,0.18-.07.36-0.11,0.5-0.18,0.69-.22,1.08-0.36,1.08-0.79,0-.61-0.86-3.39-1.55-3.39a2.944,2.944,0,0,0-.93.36,31.835,31.835,0,0,1-4.22,2.06,0.6,0.6,0,0,1-.54-0.62c-0.47-2.27-1.8-3.24-4.11-3.24a9.938,9.938,0,0,0-3.92.94,1.387,1.387,0,0,1-.65.21,0.271,0.271,0,0,1-.29-0.25,11.586,11.586,0,0,1,1.23-2.09,1.292,1.292,0,0,1,1.08-.58c2.27-.25,4.54-0.64,6.81-1.11,0.75-.15,1.91-0.29,1.91-0.9a12.381,12.381,0,0,0-.29-1.95,1.067,1.067,0,0,0-.9-1.08,2.64,2.64,0,0,0-.9.22,26.423,26.423,0,0,1-4.18,1.01,0.352,0.352,0,0,1-.4-0.36,2.357,2.357,0,0,1,.36-0.83,1.99,1.99,0,0,1,1.19-1.23,0.572,0.572,0,0,0,.43-0.43C1165.36,1137.67,1161.65,1136.01,1161.33,1136.01Zm24.46,26.27a0.756,0.756,0,0,0,.07.32c0.4,0.87.79,1.73,1.19,2.6,0.21,0.43.5,1.22,0.9,1.22a0.48,0.48,0,0,0,.36-0.22,1.983,1.983,0,0,1,1.37-1.04,34.776,34.776,0,0,0,12.32-7.28,32.117,32.117,0,0,0,6.67-10.19c0.03-.15.14-0.33,0.21-0.58a7.87,7.87,0,0,0,.47-1.41c0-.72-2.16-2.7-2.7-2.7a1.019,1.019,0,0,0-.76.87,30.247,30.247,0,0,1-6.16,10.88,24.331,24.331,0,0,1-8.97,5.65,40.8,40.8,0,0,1-4.29,1.44A0.805,0.805,0,0,0,1185.79,1162.28Zm-2.56-13.12a0.855,0.855,0,0,0,.61.61,65.066,65.066,0,0,1,5.73,3.64,1.936,1.936,0,0,0,.83.4c0.72,0,2.16-2.13,2.16-2.77,0-.58-1.84-1.59-2.81-2.17a31.878,31.878,0,0,0-4.47-2.48C1184.6,1146.39,1183.23,1148.59,1183.23,1149.16Zm9.62-8.72a14.605,14.605,0,0,0-3.14-1.83c-0.64,0-2.19,1.98-2.19,2.48a0.979,0.979,0,0,0,.61.69,53.369,53.369,0,0,1,5.29,3.82,1.839,1.839,0,0,0,.91.46c0.64,0,2.16-2.01,2.16-2.66a0.836,0.836,0,0,0-.4-0.61c-0.65-.55-1.94-1.45-2.7-1.99C1193.28,1140.73,1193.1,1140.59,1192.85,1140.44Zm30.91,6.67c-1.33,0-2.45-.07-3.42-0.07s-0.98.54-.98,1.91c0,0.97.04,1.44,0.98,1.44,1.15,0,2.3-.04,3.42-0.04h1.94a1.076,1.076,0,0,1,1.08,1.05v6.91a1.051,1.051,0,0,1-1.08,1.05h-3.85c-1.19,0-2.45-.07-3.64-0.07-0.9,0-.86.68-0.86,1.8,0,0.9,0,1.58.93,1.58,1.19,0,2.38-.07,3.57-0.07h13.11c1.19,0,2.38.07,3.57,0.07,0.9,0,.94-0.65.94-1.58,0-1.12.03-1.8-.87-1.8-1.22,0-2.45.07-3.64,0.07h-3.85a1.057,1.057,0,0,1-1.08-1.05v-6.91a1.076,1.076,0,0,1,1.08-1.05h1.94c1.12,0,2.27.04,3.43,0.04,0.93,0,.97-0.43.97-1.44,0-1.34,0-1.91-.97-1.91-0.9,0-2.2.07-3.43,0.07h-9.29Zm35.3-.22c-0.36,0-.36.18-0.36,0.47a19.52,19.52,0,0,1-.57,5.37,17.027,17.027,0,0,1-7.53,10.48,1.344,1.344,0,0,0-.87.8c0,0.65,2.34,2.52,2.96,2.52a2.588,2.588,0,0,0,1.19-.65c5.36-4.14,7.6-8.72,8.64-15.31a6.214,6.214,0,0,1,.72-2.6,0.517,0.517,0,0,0,.22-0.36c0-.39-0.5-0.39-0.76-0.43C1262.16,1147.11,1259.53,1146.89,1259.06,1146.89Zm-6.3-5.47c-1.66,0-3.32-.08-4.97-0.08-0.83,0-.9.44-0.9,1.37v0.72c0,1.44.03,1.84,0.97,1.84,1.62,0,3.24-.11,4.9-0.11h15.46c0.32,0,1.11-.07,1.11.44s-4,4.03-4.65,4.61a2.34,2.34,0,0,0-.9,1.08c0,0.61,2.02,2.2,2.63,2.2a1.427,1.427,0,0,0,.87-0.51c1.33-1.19,3.21-3.02,4.47-4.32,0.43-.47,3.13-3.28,3.35-3.46a1.631,1.631,0,0,0,.79-0.97,4.536,4.536,0,0,0-1.33-2.09,2.089,2.089,0,0,0-1.34-.94,1.643,1.643,0,0,0-.46.04,25.958,25.958,0,0,1-3.75.18h-16.25Zm34.01-2.81c-0.51,0-.54.36-0.54,0.9v0.39c0,1.48-.33,4.94-0.44,6.6q-0.315,4.26-.32,8.54c0,2.63.18,6.12,1.8,8.28a7.964,7.964,0,0,0,6.34,2.78,12.625,12.625,0,0,0,10.96-6.89,13.389,13.389,0,0,0,1.47-4.21c0-1.08-2.19-2.92-2.99-2.92-0.54,0-.61.61-0.72,1.19a11.442,11.442,0,0,1-2.2,5.33,9.127,9.127,0,0,1-6.77,3.5c-3.89,0-3.82-4.36-3.82-7.17,0-2.06.33-13.48,1.59-14.41a0.793,0.793,0,0,0,.43-0.55,0.756,0.756,0,0,0-.72-0.5A29.977,29.977,0,0,0,1286.77,1138.61Z" transform="translate(-975.094 -1135.66)"/>
</svg>
