<svg xmlns="http://www.w3.org/2000/svg" width="460.752" height="33.63" viewBox="0 0 460.752 33.63">
  <defs>
    <style>
      .cls-1 {
        fill-rule: evenodd;
      }
    </style>
  </defs>
  <path id="これまでの価値観にとらわれず" class="cls-1" d="M979.935,1156.66a8.41,8.41,0,0,0,1.405,3.49c2.342,3.28,6.377,3.75,10.125,3.75,2.161,0,8.895-.43,10.8-1.01a1.171,1.171,0,0,0,.87-1.33c0-2.35-.25-2.96-0.79-2.96a2.465,2.465,0,0,0-.54.11,45.181,45.181,0,0,1-10.742,1.26c-3.387,0-6.449-.54-7.206-4.36a0.65,0.65,0,0,0-.648-0.68C983.178,1154.93,979.935,1155.76,979.935,1156.66Zm3.6-12.43a0.743,0.743,0,0,0,.5.75c1.766,0.72,6.234.9,8.215,0.9a48.867,48.867,0,0,0,6.522-.43c0.828-.14,1.008-0.21,1.008-1.08,0-1.48-.036-3.1-0.936-3.1a2.135,2.135,0,0,0-.469.07,30.542,30.542,0,0,1-6.521.72,23.212,23.212,0,0,1-6.125-.75,5.562,5.562,0,0,0-1.045-.22c-0.685,0-.757.65-0.865,1.26A12.544,12.544,0,0,0,983.538,1144.23Zm34.942-7.43a0.454,0.454,0,0,0-.57.51c0,0.25.03,0.68,0.03,1.12,0,1.58-.14,3.74-0.14,4.72a2.415,2.415,0,0,1-.18,1.08c-0.43.86-5.01,1.65-6.09,1.8-0.43.07-1.19,0.07-1.19,0.65a10.622,10.622,0,0,0,.76,2.45,1.277,1.277,0,0,0,1.04,1.01,24.943,24.943,0,0,0,4.36-1.48,2.259,2.259,0,0,1,.65-0.18,0.477,0.477,0,0,1,.47.54c0,0.29-.07.61-0.07,0.94a3.467,3.467,0,0,1-.44,1.69c-1.65,2.99-3.35,5.94-5.29,8.79a3.788,3.788,0,0,0-.72,1.3c0,0.61,2.09,2.37,2.7,2.37a0.613,0.613,0,0,0,.47-0.43c0.36-.68,1.48-2.63,1.87-3.28a2.346,2.346,0,0,1,.87-1.08,0.408,0.408,0,0,1,.32.47c0,1.62-.22,5.62-0.22,5.95,0,0.72.65,0.72,1.52,0.72,2.66,0,2.63-.36,2.63-0.62,0-.39-0.11-2.34-0.18-3.82-0.04-.61-0.11-1.69-0.11-1.9,0-.83-0.14-5.23,0-5.7a12.347,12.347,0,0,1,2.02-2.3,36.268,36.268,0,0,1,3.92-3.5,5.5,5.5,0,0,1,2.81-1.44c1.09,0,1.09,1.26,1.09,2.05,0,3.25-.47,6.53-0.47,9.77,0,2.27.29,5.76,3.31,5.76a9.285,9.285,0,0,0,5.08-2.09c0.4-.28,1.73-1.22,1.73-1.73,0-.57-1.04-3.27-1.66-3.27a1.033,1.033,0,0,0-.68.39c-0.65.72-2.2,2.27-3.17,2.27-0.83,0-.79-1.26-0.79-2.12,0-1.52.1-3.14,0.18-4.69,0.1-1.84.18-3.71,0.18-5.58a6.613,6.613,0,0,0-.65-3.43,3.888,3.888,0,0,0-3.1-1.58c-1.98,0-3.78,1.3-5.22,2.56-0.87.72-2.31,2.02-3.07,2.81a0.5,0.5,0,0,1-.29.18,0.3,0.3,0,0,1-.28-0.36,2.632,2.632,0,0,1,.07-0.58c0.11-.25.79-1.51,0.97-1.76a0.931,0.931,0,0,0,.22-0.4,2.6,2.6,0,0,0-1.23-1.66,0.619,0.619,0,0,1-.57-0.61c0-.5.25-2.27,0.32-2.88,0.22-1.48.18-1.59,0.65-1.98a0.853,0.853,0,0,0,.29-0.55,0.5,0.5,0,0,0-.4-0.39C1021.87,1137.2,1018.88,1136.8,1018.48,1136.8Zm36.32,23.24c0.83,0,1.69,0,1.69.69,0,1.94-1.4,2.41-3.06,2.41-0.94,0-2.56-.21-2.56-1.44C1050.87,1160.15,1053.68,1160.04,1054.8,1160.04Zm1.22-22.59c-0.32,0-.54.07-0.54,0.44a3.7,3.7,0,0,0,.07.57c0.11,0.61.33,3.03,0.33,3.6,0,0.98-.9.91-4.07,0.91-1.77,0-4.79-.29-5.55-0.29-0.61,0-.65.5-0.65,1.01a6.428,6.428,0,0,0,.4,2.63,3.626,3.626,0,0,0,2.09.32h1.08c1.94,0,4.82-.18,6.09-0.18,0.93,0,.97,1.48.97,2.52,0,0.79-.51.9-1.84,0.9h-1.62c-1.37,0-3.39-.18-3.82-0.18a0.6,0.6,0,0,0-.61.76,7.408,7.408,0,0,0,.47,2.52c0.28,0.65.97,0.61,2.45,0.61,1.55,0,3.56-.14,4.32-0.14,0.9,0,.83,1.33.83,2.49,0,0.36,0,1-.61,1-0.22,0-1.05-.07-1.48-0.07-2.99,0-6.92,1.16-6.92,4.79,0,3.36,3.14,4.69,6.02,4.69,2.92,0,5.76-.9,6.52-4a0.794,0.794,0,0,1,.72-0.79c0.72,0,3.1,1.69,3.75,2.19a1.94,1.94,0,0,0,1.11.58c0.87,0,2.06-1.84,2.06-2.63,0-1.3-4.76-3.31-5.95-3.71-1.55-.5-1.69-0.22-1.69-3.96,0-1.01.72-1.01,2.09-1.16a30.527,30.527,0,0,0,3.71-.61c0.65-.14.69-0.5,0.69-1.69,0-1.37-.11-2.16-0.62-2.16a2.356,2.356,0,0,0-.68.14,30.785,30.785,0,0,1-4.61.86,0.611,0.611,0,0,1-.58-0.57,11.615,11.615,0,0,1-.18-1.91c0-1.01.86-.97,1.62-1.08,1.91-.22,4.14-0.54,6.02-0.94,0.68-.14,1.01-0.22,1.01-0.94,0-.61-0.11-2.95-0.9-2.95a9.278,9.278,0,0,0-1.37.29,37.588,37.588,0,0,1-3.93.83c-0.25.03-1.66,0.25-1.8,0.25a0.833,0.833,0,0,1-.76-1.05c0.07-2.91.69-2.3,0.69-2.99,0-.39-0.51-0.46-1.44-0.57C1058.26,1137.7,1056.56,1137.45,1056.02,1137.45Zm19.82,5.88a16.543,16.543,0,0,0,.39,2.59c0.11,0.4.29,1.19,0.79,1.19a3.327,3.327,0,0,0,.54-0.07,79.493,79.493,0,0,1,7.97-1.48c0.36-.04,2.02-0.32,2.27-0.32a0.461,0.461,0,0,1,.54.43,1.976,1.976,0,0,1-.61.86,16.013,16.013,0,0,0-3.97,10.34c0,7.03,5.26,8.97,11.39,8.97a1,1,0,0,0,1.15-.61,10.121,10.121,0,0,0,.54-2.95c0-.58-0.29-0.62-0.83-0.62-0.39,0-1.19.04-1.8,0.04-3.67,0-6.34-1.01-6.34-5.19a13.42,13.42,0,0,1,1.73-6.34,10.959,10.959,0,0,1,6.12-5.37,17.717,17.717,0,0,1,5.98-.75c0.87-.04,1.63.03,1.63-0.76a15.763,15.763,0,0,0-.33-2.63c-0.07-.43-0.14-0.9-0.68-0.9a2.423,2.423,0,0,0-.47.03c-2.7.44-5.44,0.8-8.18,1.12-5.22.61-10.48,1.15-15.74,1.48C1076.34,1142.5,1075.84,1142.39,1075.84,1143.33Zm27.23,2.09a2.991,2.991,0,0,0-1.83,1.36,0.836,0.836,0,0,0,.25.47,32.663,32.663,0,0,1,2.34,2.99,0.859,0.859,0,0,0,.54.47,2.988,2.988,0,0,0,1.84-1.51A14.691,14.691,0,0,0,1103.07,1145.42Zm-4.36,1.98c-0.39,0-1.83.9-1.83,1.33a0.891,0.891,0,0,0,.32.5c0.79,0.98,1.59,1.99,2.31,3.03a0.734,0.734,0,0,0,.5.43c0.4,0,1.84-.97,1.84-1.51C1101.85,1150.75,1099.11,1147.4,1098.71,1147.4Zm21.73-3.21a0.569,0.569,0,0,1,.57.65,36.326,36.326,0,0,1-1.15,7.02c-1.01,3.68-3.03,7.79-4.83,7.79-1.84,0-2.3-3.35-2.3-4.69a11.13,11.13,0,0,1,6.48-10.37A3.933,3.933,0,0,1,1120.44,1144.19Zm3.46-4.22a14.852,14.852,0,0,0-14.96,15.14,11.294,11.294,0,0,0,1.12,5.11,5.8,5.8,0,0,0,4.9,3.43c1.98,0,3.57-1.34,4.76-2.78,3.45-4.14,4.72-10.55,5.11-15.81,0.04-.62.04-1.41,0.87-1.41a6.953,6.953,0,0,1,1.37.32,8.755,8.755,0,0,1,5.76,8.62c0,5.15-3.71,8.25-8.43,9.36-0.36.07-.9,0.15-0.9,0.51,0,0.79,1.48,3.02,2.41,3.02a14.059,14.059,0,0,0,3.93-1.44,12.937,12.937,0,0,0,7.03-11.63,12.217,12.217,0,0,0-3.64-8.87A12.825,12.825,0,0,0,1123.9,1139.97Zm42.98,21.05a1.032,1.032,0,0,1-1.01,1h-0.51a0.947,0.947,0,0,1-.97-1v-10.31a0.955,0.955,0,0,1,.97-1.01h0.51a1.041,1.041,0,0,1,1.01,1.01v10.31Zm-12.54,1a1.018,1.018,0,0,1-1.01-1v-10.31a1.027,1.027,0,0,1,1.01-1.01h0.43a1.034,1.034,0,0,1,1.01,1.01v10.31a1.025,1.025,0,0,1-1.01,1h-0.43Zm5.83-12.32a1.007,1.007,0,0,1,1.01,1.01v10.31a1,1,0,0,1-1.01,1h-0.43a0.957,0.957,0,0,1-1.01-1v-10.31a0.965,0.965,0,0,1,1.01-1.01h0.43Zm1.01-4.36a0.983,0.983,0,0,1-1.01,1.01h-0.43a0.945,0.945,0,0,1-1.01-1.01v-3.38a0.96,0.96,0,0,1,1.01-1.01h0.43a1,1,0,0,1,1.01,1.01v3.38Zm-14.77.04a47.489,47.489,0,0,0,2.49-6.59,1.907,1.907,0,0,1,.32-0.83,0.174,0.174,0,0,1,.14-0.07c0.08,0,.22.07,0.22,0.36a8.532,8.532,0,0,0-.03.9c0,1.4-.08,1.91.86,1.91,1.33,0,2.63-.15,3.96-0.11a0.869,0.869,0,0,1,1.01,1.01v3.38a0.842,0.842,0,0,1-.97,1.01c-0.87.04-1.73-.03-2.6-0.03-1.22,0-1.94.28-1.94,1.62,0,0.9.07,1.83,0.07,2.74v12.79c0,1.19-.07,2.37-0.07,3.53,0,0.83.47,0.83,1.76,0.83,1.37,0,1.77,0,1.77-.87v-0.61a0.829,0.829,0,0,1,.97-0.97h11.46a0.826,0.826,0,0,1,.97.97V1167c0,0.86.4,0.86,1.77,0.86,1.4,0,1.8,0,1.8-.86,0-1.16-.07-2.31-0.07-3.46v-12.86c0-.91.03-1.84,0.03-2.74,0-1.37-.72-1.62-1.94-1.62-0.87,0-1.73.07-2.6,0.03a0.831,0.831,0,0,1-.93-1.01v-3.38a0.846,0.846,0,0,1,.97-1.01h0.47c1.44,0,2.85.11,4.29,0.11,0.9,0,.86-0.44.86-1.81s0.04-1.76-.86-1.76c-1.44,0-2.85.07-4.29,0.07h-11.6c-1.44,0-2.89-.07-4.33-0.07a0.425,0.425,0,0,1-.25-0.29,0.727,0.727,0,0,0-.61-0.54,25.287,25.287,0,0,0-3.17-.9,0.68,0.68,0,0,0-.61.72,35.618,35.618,0,0,1-6.13,12.97,1.861,1.861,0,0,0-.61,1.05c0,0.57,1.3,2.91,2.02,2.91,0.54,0,.93-0.61,1.62-1.51a0.258,0.258,0,0,1,.25-0.14,0.3,0.3,0,0,1,.29.36v10.12c0,1.66-.07,3.28-0.07,4.94,0,1.04.46,1.04,1.87,1.04,1.51,0,1.87-.03,1.87-1.11,0-1.63-.07-3.25-0.07-4.87v-13.47c0-1.01.04-1.66,0.4-1.91a0.754,0.754,0,0,0,.43-0.51c0-.43-0.58-0.43-0.87-0.47a0.345,0.345,0,0,1-.36-0.32A0.3,0.3,0,0,1,1146.41,1145.38Zm47.23,12a0.835,0.835,0,0,1,.87-0.87h4.79a0.832,0.832,0,0,1,.86.87v0.29a0.83,0.83,0,0,1-.86.86h-4.79a0.832,0.832,0,0,1-.87-0.86v-0.29Zm0-4.4a0.832,0.832,0,0,1,.87-0.86h4.79a0.83,0.83,0,0,1,.86.86v0.25a0.8,0.8,0,0,1-.86.83h-4.79a0.8,0.8,0,0,1-.87-0.83v-0.25Zm6.52-4.14a0.83,0.83,0,0,1-.86.86h-4.79a0.832,0.832,0,0,1-.87-0.86v-0.15a0.832,0.832,0,0,1,.87-0.86h4.79a0.83,0.83,0,0,1,.86.86v0.15Zm-7.02-6.38a0.846,0.846,0,0,1,1.01.97v0.65a0.856,0.856,0,0,1-.98.98c-0.39,0-.83-0.04-1.22-0.04-1.19,0-1.55.47-1.55,1.62,0,0.83.03,1.66,0.03,2.45v8.22c0,0.82-.03,1.65-0.03,2.48a1.346,1.346,0,0,0,1.62,1.62c0.72,0,1.41-.07,2.13-0.07h5.54c0.73,0,1.48.07,2.2,0.07,1.3,0,1.55-.54,1.55-1.73,0-.79-0.03-1.58-0.03-2.37v-8.22c0-.79.03-1.62,0.03-2.45,0-1.19-.36-1.62-1.58-1.62-0.72,0-1.44.04-2.17,0.04h-1.04a0.849,0.849,0,0,1-1.01-.98v-0.65a0.846,0.846,0,0,1,1.01-.97h2.81c1.3,0,2.59.07,3.89,0.07,0.83,0,.83-0.39.83-1.55s0-1.51-.83-1.51c-1.3,0-2.59.07-3.89,0.07h-2.81a0.872,0.872,0,0,1-1.01-1.01,1.526,1.526,0,0,1,.4-1.29,0.742,0.742,0,0,0,.47-0.54c0-.44-0.51-0.44-0.91-0.47-0.64-.07-2.41-0.22-2.95-0.22-0.36,0-.65.07-0.65,0.51v0.32a15.657,15.657,0,0,1,.15,1.77,0.859,0.859,0,0,1-1.01.93h-3.97c-1.29,0-2.59-.07-3.89-0.07-0.86,0-.83.47-0.83,1.51,0,1.12-.03,1.55.83,1.55,1.3,0,2.6-.07,3.89-0.07h3.97Zm-14.99,20.47c0,1.47-.07,2.91-0.07,4.36,0,1.04.32,1.11,1.83,1.11s1.84-.07,1.84-1.11c0-1.45-.07-2.89-0.07-4.36v-13.98c0-1.01.04-1.59,0.4-1.88a0.669,0.669,0,0,0,.43-0.5c0-.4-0.58-0.43-0.87-0.43a0.324,0.324,0,0,1-.32-0.33,0.4,0.4,0,0,1,.04-0.21,46.177,46.177,0,0,0,2.73-6.78,1.163,1.163,0,0,1,.69-1.01,0.647,0.647,0,0,0,.54-0.54,1.023,1.023,0,0,0-.87-0.61,19.016,19.016,0,0,0-2.99-.76,0.668,0.668,0,0,0-.54.65,34.726,34.726,0,0,1-6.52,13.19,1.97,1.97,0,0,0-.57,1.08c0,0.79,1.33,2.67,2.16,2.67,0.57,0,1.29-1.16,1.62-1.63a0.355,0.355,0,0,1,.25-0.14,0.323,0.323,0,0,1,.29.36v10.85Zm9.65,4.14a0.59,0.59,0,0,1,.69-0.65h13.44c1.37,0,2.74.07,4.11,0.07,0.75,0,.75-0.36.75-1.58,0-1.19,0-1.55-.75-1.55-1.37,0-2.74.07-4.11,0.07h-13.22a0.849,0.849,0,0,1-.98-1.01v-12.57c0-.98.04-1.52,0.4-1.77a0.669,0.669,0,0,0,.4-0.5c0-.4-0.55-0.44-0.87-0.47-0.58-.04-2.31-0.15-2.85-0.15a0.486,0.486,0,0,0-.61.47c0,0.11.04,0.22,0.04,0.33,0.07,0.75.11,1.58,0.11,2.41v12.79c0,1.37-.08,2.74-0.08,4.11,0,1.08.4,1.08,1.77,1.08C1187.48,1168.15,1187.77,1168.15,1187.8,1167.07Zm28.97-17.08a0.539,0.539,0,0,1-.61-0.54,0.876,0.876,0,0,1,.07-0.32c0.25-.47.47-0.98,0.72-1.48a1.045,1.045,0,0,1,1.15-.72h0.4a0.6,0.6,0,0,1,.68.58,0.722,0.722,0,0,1-.07.28c-0.18.47-.4,0.94-0.61,1.37a1.27,1.27,0,0,1-1.37.83h-0.36Zm0.25,11.42a0.754,0.754,0,0,1,.87.87v0.47a0.739,0.739,0,0,1-.87.82h-0.83a0.721,0.721,0,0,1-.86-0.82v-0.47a0.737,0.737,0,0,1,.86-0.87h0.83Zm0-4.43a0.835,0.835,0,0,1,.87.87v0.32a0.811,0.811,0,0,1-.87.86h-0.83a0.808,0.808,0,0,1-.86-0.86v-0.32a0.832,0.832,0,0,1,.86-0.87h0.83Zm0-4.36a0.835,0.835,0,0,1,.87.87v0.25a0.832,0.832,0,0,1-.87.86h-0.83a0.83,0.83,0,0,1-.86-0.86v-0.25a0.832,0.832,0,0,1,.86-0.87h0.83Zm4.04,0.87a0.708,0.708,0,0,1,.75-0.87c0.98-.03,1.98.07,2.96,0.07,0.68,0,.68-0.32.68-1.37,0-1.11,0-1.4-.68-1.4-0.83,0-1.7.04-2.52,0.07a0.551,0.551,0,0,1-.58-0.58,0.61,0.61,0,0,1,.07-0.28,2.945,2.945,0,0,1,.29-0.62,0.483,0.483,0,0,1,.47-0.28,0.519,0.519,0,0,0,.54-0.44c0-.32-0.79-0.5-1.23-0.61-0.11-.04-0.11-0.07-0.11-0.14,0-.04,0-0.11.15-0.11,1.01,0,2.05.07,3.1,0.07,0.9,0,.86-0.43.86-1.55,0-1.08.04-1.51-.86-1.51-1.23,0-2.45.07-3.68,0.07h-1.91a0.628,0.628,0,0,1-.75-0.61,0.833,0.833,0,0,1,.03-0.29c0.07-.22.11-0.4,0.18-0.61a1.125,1.125,0,0,1,1.26-.87c1.3-.03,2.6.07,3.89,0.07,0.76,0,.76-0.32.76-1.51,0-1.15,0-1.48-.79-1.48-1.3,0-2.6.08-3.89,0.08h-3.64a0.585,0.585,0,0,1-.58-0.47,0.569,0.569,0,0,1,.07-0.25,0.843,0.843,0,0,1,.54-0.65,0.808,0.808,0,0,0,.69-0.44c0-.36-0.65-0.5-1.59-0.79a10.911,10.911,0,0,0-1.73-.47c-0.32,0-.39.18-0.61,0.72a20.955,20.955,0,0,1-3.28,5.12,1.484,1.484,0,0,0-.36.58c0,0.54,1.77,1.58,2.31,1.58,0.47,0,1.22-1.11,1.48-1.48a1.386,1.386,0,0,1,1.29-.61h0.15a0.675,0.675,0,0,1,.75.65,0.715,0.715,0,0,1-.03.25l-0.22.62a1.113,1.113,0,0,1-1.3.86c-1.18.04-2.37-.07-3.56-0.07-0.9,0-.87.43-0.87,1.55,0,1.08-.03,1.51.87,1.51,0.79,0,1.55-.07,2.34-0.07a0.521,0.521,0,0,1,.61.5,0.472,0.472,0,0,1-.11.33,28.2,28.2,0,0,1-4,5.91,0.842,0.842,0,0,0-.32.57,3.866,3.866,0,0,0,2.16,2.02,0.638,0.638,0,0,0,.36-0.14,0.494,0.494,0,0,1,.25-0.08,0.292,0.292,0,0,1,.33.33v6.81c0,1.29-.11,2.63-0.11,3.93,0,1.11.4,1.11,1.73,1.11,1.44,0,1.77-.03,1.73-1.15a0.737,0.737,0,0,1,.86-0.79h4c0.87,0,1.73,0,2.6.03a1.027,1.027,0,0,1,.86.61,3.757,3.757,0,0,0,1.95,1.41c0.75,0,2.12-1.26,2.66-1.8,2.13-2.13,2.74-4.25,3.28-7.14a0.509,0.509,0,0,1,.44-0.43,0.563,0.563,0,0,0,.5-0.43c0-.22-0.14-0.32-1.04-0.68a23.856,23.856,0,0,0-2.53-.83,0.3,0.3,0,0,0-.29.32,20.374,20.374,0,0,1-.5,3.03,9.065,9.065,0,0,1-2.95,4.47,0.354,0.354,0,0,1-.26.1,0.3,0.3,0,0,1-.28-0.36c-0.04-.68,0-1.04-0.69-1.04-0.72,0-1.4.03-2.12,0.03a0.71,0.71,0,0,1-.83-0.82v-0.47a0.712,0.712,0,0,1,.79-0.83c0.54,0,1.12.03,1.69,0.03,0.61,0,.69-0.25.69-1.26,0-.97-0.04-1.26-0.69-1.26-0.43,0-1.22.04-1.65,0.07a0.734,0.734,0,0,1-.83-0.86v-0.32a0.745,0.745,0,0,1,.79-0.87c0.54,0.04,1.08.07,1.66,0.07,0.64,0,.72-0.29.72-1.26,0-1.01-.08-1.26-0.72-1.26-0.54,0-1.08.04-1.62,0.04a0.732,0.732,0,0,1-.83-0.83v-0.25Zm10.41,0.03a0.96,0.96,0,0,1-1.01-1.01v-0.65a1,1,0,0,1,1.01-1h3.85a1.018,1.018,0,0,1,1.01,1v0.65a1.02,1.02,0,0,1-1.01,1.01h-3.85Zm0-5.51a0.965,0.965,0,0,1-1.01-1.01v-0.54a0.934,0.934,0,0,1,1.01-.97h3.85a0.95,0.95,0,0,1,1.01.97V1147a1.027,1.027,0,0,1-1.01,1.01h-3.85Zm0-5.48a0.945,0.945,0,0,1-1.01-1.01v-0.39a1.007,1.007,0,0,1,1.01-1.01h3.85a1.027,1.027,0,0,1,1.01,1.01v0.39a1,1,0,0,1-1.01,1.01h-3.85Zm6.12,14.16a4.9,4.9,0,0,0,.76.04c1.12,0,1.55-.43,1.55-1.62,0-.87-0.07-1.73-0.07-2.6v-11.42c0-.83.07-1.69,0.07-2.56,0-1.15-.4-1.62-1.55-1.62-0.72,0-1.4.04-2.09,0.04h-5.73c-0.72,0-1.44-.04-2.12-0.04-1.23,0-1.52.51-1.52,1.66,0,0.83.04,1.69,0.04,2.52v11.42c0,0.87-.04,1.7-0.04,2.56,0,1.15.33,1.66,1.52,1.66,0.72,0,1.4-.07,2.12-0.07h1.73a0.869,0.869,0,0,1,1.01,1.01v7.42c0,2.23,1.26,2.59,3.21,2.59h1.62c1.37,0,2.59-.21,3.1-1.58a18.136,18.136,0,0,0,.9-4.51,0.792,0.792,0,0,0-.54-0.83,4.411,4.411,0,0,0-1.66-.36c-0.58,0-.58.29-0.65,0.94-0.25,2.99-.68,2.81-1.22,2.81h-0.58c-0.61,0-.83-0.04-0.83-0.79v-5.69A0.85,0.85,0,0,1,1237.59,1156.69Zm21.11,0.62c-0.68,0-1.94,2.55-1.94,3.06,0,0.57,2.41,3.6,8.25,3.6,1.44,0,7.53-.54,8.54-1.08a1.39,1.39,0,0,0,.43-1.33c0-1.84-.07-2.71-0.65-2.71a2.63,2.63,0,0,0-.75.15,29.58,29.58,0,0,1-7.93,1.15,6.172,6.172,0,0,1-5.48-2.52A0.64,0.64,0,0,0,1258.7,1157.31Zm0.83-15.61c-0.57,0-.75.54-0.75,2.27a1.741,1.741,0,0,0,.36,1.41c0.75,0.5,5.18.72,6.3,0.72a43.182,43.182,0,0,0,6.05-.5c0.69-.15.69-0.44,0.69-1.19a16,16,0,0,0-.15-1.95,0.8,0.8,0,0,0-.72-0.86,4.084,4.084,0,0,0-.64.1,23.217,23.217,0,0,1-5.48.72,22.773,22.773,0,0,1-4.72-.54A4.99,4.99,0,0,0,1259.53,1141.7Zm-8.64-2.81a0.779,0.779,0,0,0-.55.8,14.857,14.857,0,0,1-.46,1.8,42.96,42.96,0,0,0-1.84,11.92,24.694,24.694,0,0,0,2.2,11.06c0.47,0.98.9,1.77,1.51,1.77,0.76,0,2.81-.86,2.81-1.77a4.006,4.006,0,0,0-.07-0.54c-0.04-.32-0.15-1.15-0.15-1.51,0-1.62,1.45-4.9,1.45-5.22a1.981,1.981,0,0,0-1.3-1.16,1.175,1.175,0,0,0-.76.87,2.787,2.787,0,0,1-.97,1.4c-0.83,0-.97-4.36-0.97-5.04a28.572,28.572,0,0,1,2.01-10.23,2.316,2.316,0,0,1,1.12-1.55c0.36-.22.5-0.25,0.5-0.47a0.854,0.854,0,0,0-.72-0.61C1254.2,1140.19,1251.17,1138.89,1250.89,1138.89Zm35.26-.03a2.264,2.264,0,0,0,.11.43,23.613,23.613,0,0,1,.69,2.38c0.36,1.48,1.37,5.29,1.8,6.59a1.225,1.225,0,0,1,.14.65,1.134,1.134,0,0,1-.61.94c-2.99,1.94-6.23,4.5-6.23,8.43a6.341,6.341,0,0,0,3.31,5.55c2.38,1.4,4.72,1.55,7.39,1.55a86.362,86.362,0,0,0,9.91-.58c0.72-.18.75-0.58,0.75-1.51v-0.44c0-.75-0.03-2.23-0.54-2.23a0.881,0.881,0,0,0-.32.04,54.469,54.469,0,0,1-9.41.93,14.442,14.442,0,0,1-4.79-.65c-1.11-.39-2.38-1.29-2.38-2.59a4.523,4.523,0,0,1,1.77-3.24,36.325,36.325,0,0,1,6.49-4.25,66.23,66.23,0,0,1,8.89-4.15,0.776,0.776,0,0,0,.69-0.57,7.148,7.148,0,0,0-1.05-2.2c-0.21-.36-0.82-1.44-1.29-1.44a2.216,2.216,0,0,0-.94.36c-0.94.61-6.7,4-7.35,4a1.04,1.04,0,0,1-.83-1.08,50.89,50.89,0,0,1-1.12-6.45c-0.07-.83,0-1.37-1-1.37a13.682,13.682,0,0,0-1.73.18C1287.34,1138.32,1286.15,1138.32,1286.15,1138.86Zm32.36,4.75c-0.58,0-.62.54-0.62,1.59,0,0.25-.03.5-0.03,0.79a57.793,57.793,0,0,1-.87,7.86,35.463,35.463,0,0,1-.83,3.53,5.97,5.97,0,0,0-.36,1.26c0,1.04,2.42,1.4,2.74,1.4a1.447,1.447,0,0,0,1.08-.75c2.27-2.85,6.09-6.02,9.87-6.02,2.31,0,4.33,1.33,4.33,3.82,0,3.06-2.67,4.18-5.23,4.83a24.319,24.319,0,0,1-4.79.72c-0.47.03-.9,0.07-0.9,0.65a7.558,7.558,0,0,0,.61,2.34,1.291,1.291,0,0,0,1.34,1.01,23.8,23.8,0,0,0,4.68-.98c4.36-1.29,8.18-3.45,8.18-8.57,0-4.54-3.42-7.5-7.85-7.5-3.43,0-5.59,1.45-8.26,3.32a0.766,0.766,0,0,1-.46.22,0.38,0.38,0,0,1-.36-0.44,6.423,6.423,0,0,1,.1-0.75c0.36-1.66.58-3.35,0.87-5.01a1.634,1.634,0,0,1,.76-1.41,0.467,0.467,0,0,0,.32-0.39,0.82,0.82,0,0,0-.65-0.51A26.282,26.282,0,0,0,1318.51,1143.61Zm2.3-4.14a1.2,1.2,0,0,0,.83.79,29.42,29.42,0,0,1,4.54,3.07,2.7,2.7,0,0,0,1.15.72c0.76,0,2.24-2.2,2.24-2.85,0-.61-2.09-1.77-2.63-2.09-0.65-.4-3.57-2.27-4.11-2.27C1321.96,1136.84,1320.81,1139,1320.81,1139.47Zm31.7-2.41a0.436,0.436,0,0,0-.54.5c0,0.25.04,0.65,0.04,1.15,0,1.23-.07,2.45-0.07,3.68a3.455,3.455,0,0,1-.18,1.48,1.365,1.365,0,0,1-1.12.61,20.987,20.987,0,0,1-3.96.36h-0.51c-0.47,0-.83.07-0.83,0.61a14.708,14.708,0,0,0,.58,2.74,1,1,0,0,0,.83.86,38.129,38.129,0,0,0,3.82-.86,2.872,2.872,0,0,1,.61-0.11,0.649,0.649,0,0,1,.58.76v0.47a2.9,2.9,0,0,1-.22,1.4,34.727,34.727,0,0,1-6.09,8.04,2.569,2.569,0,0,0-.9,1.22c0,0.69,2.06,2.78,2.7,2.78a0.731,0.731,0,0,0,.54-0.51c0.54-.83,2.02-2.7,2.71-3.53a1.4,1.4,0,0,1,.72-0.58,0.48,0.48,0,0,1,.36.58c0,1.15,0,2.34-.04,3.5,0,0.18-.07,1.72-0.11,2.84,0,0.18-.03.87-0.03,1.15,0,0.72.47,0.76,1.51,0.76,2.38,0,2.7-.22,2.7-0.61s-0.21-3.82-.25-4.83c-0.11-2.09-.14-4.21-0.14-6.34a2.071,2.071,0,0,1,.43-1.44c1.91-2.34,6.09-5.12,9.15-5.12,2.92,0,4.72,2.6,4.72,5.3,0,4.72-4.83,6.81-8.75,7.71-0.51.11-.94,0.21-0.94,0.83,0,0.75.97,2.99,1.98,2.99a10.539,10.539,0,0,0,2.95-.87c4.69-1.91,8.76-5.37,8.76-10.81a8.561,8.561,0,0,0-8.4-8.86c-3.67,0-6.48,1.98-9.15,4.29a0.927,0.927,0,0,1-.47.32c-0.18,0-.21-0.21-0.21-0.57,0-.62,1.33-2.31,1.76-2.78a1.49,1.49,0,0,0,.51-0.75,4.738,4.738,0,0,0-1.41-1.95c-0.39-.07-0.54-0.14-0.54-0.54,0-.43.18-2.09,0.26-2.59,0.14-1.52.21-1.48,0.64-1.91a0.684,0.684,0,0,0,.26-0.47,0.553,0.553,0,0,0-.44-0.44C1355.9,1137.42,1353.02,1137.06,1352.51,1137.06Zm33.08-.26c-0.4,0-.58.11-0.58,0.51,0,0.25.04,0.68,0.04,1.12,0,1.58-.15,3.74-0.15,4.72a2.283,2.283,0,0,1-.18,1.08c-0.43.86-5.01,1.65-6.09,1.8-0.43.07-1.19,0.07-1.19,0.65a10.622,10.622,0,0,0,.76,2.45,1.277,1.277,0,0,0,1.04,1.01,24.943,24.943,0,0,0,4.36-1.48,2.259,2.259,0,0,1,.65-0.18,0.471,0.471,0,0,1,.47.54c0,0.29-.07.61-0.07,0.94a3.45,3.45,0,0,1-.43,1.69c-1.66,2.99-3.35,5.94-5.3,8.79a3.788,3.788,0,0,0-.72,1.3c0,0.61,2.09,2.37,2.7,2.37a0.613,0.613,0,0,0,.47-0.43c0.36-.68,1.48-2.63,1.87-3.28a2.41,2.41,0,0,1,.87-1.08,0.408,0.408,0,0,1,.32.47c0,1.62-.21,5.62-0.21,5.95,0,0.72.65,0.72,1.51,0.72,2.67,0,2.63-.36,2.63-0.62,0-.39-0.11-2.34-0.18-3.82-0.04-.61-0.11-1.69-0.11-1.9,0-.83-0.14-5.23,0-5.7a12.347,12.347,0,0,1,2.02-2.3,36.373,36.373,0,0,1,3.93-3.5,5.427,5.427,0,0,1,2.81-1.44c1.08,0,1.08,1.26,1.08,2.05,0,3.25-.47,6.53-0.47,9.77,0,2.27.29,5.76,3.31,5.76a9.255,9.255,0,0,0,5.08-2.09c0.4-.28,1.73-1.22,1.73-1.73,0-.57-1.04-3.27-1.65-3.27a1.033,1.033,0,0,0-.69.39c-0.65.72-2.2,2.27-3.17,2.27-0.83,0-.79-1.26-0.79-2.12,0-1.52.11-3.14,0.18-4.69,0.11-1.84.18-3.71,0.18-5.58a6.613,6.613,0,0,0-.65-3.43,3.888,3.888,0,0,0-3.1-1.58c-1.98,0-3.78,1.3-5.22,2.56-0.87.72-2.31,2.02-3.06,2.81a0.53,0.53,0,0,1-.29.18,0.3,0.3,0,0,1-.29-0.36,2.632,2.632,0,0,1,.07-0.58c0.11-.25.79-1.51,0.97-1.76a0.837,0.837,0,0,0,.22-0.4,2.6,2.6,0,0,0-1.23-1.66,0.619,0.619,0,0,1-.57-0.61c0-.5.25-2.27,0.32-2.88,0.22-1.48.18-1.59,0.65-1.98a0.81,0.81,0,0,0,.29-0.55,0.5,0.5,0,0,0-.4-0.39C1388.97,1137.2,1385.98,1136.8,1385.59,1136.8Zm37,15.1c1.47,0,1.8,2.05,1.8,3.17s-0.44,2.96-1.88,2.96-1.69-1.99-1.69-3.07S1421.18,1151.9,1422.59,1151.9Zm0.18-15.28a0.414,0.414,0,0,0-.47.44v0.28a27.086,27.086,0,0,1,.39,4.47,1.058,1.058,0,0,1-.79,1.12c-0.32.07-8.79,0.54-9.76,0.58-1.77.07-2.13,0-2.13,0.72a20.731,20.731,0,0,0,.29,2.59c0.11,0.47.18,0.97,0.76,0.97a2.858,2.858,0,0,0,.54-0.07c2.48-.5,7.02-0.9,9.65-1.15a8.507,8.507,0,0,1,.94-0.11c0.4,0,.68.14,0.68,1.55a0.436,0.436,0,0,1-.43.4c-3.64.32-5.08,3.49-5.08,6.81,0,2.63,1.15,6.01,4.29,6.01a3.638,3.638,0,0,0,.83-0.18,0.715,0.715,0,0,1,.25-0.03,0.275,0.275,0,0,1,.29.25,1.437,1.437,0,0,1-.18.54,11.679,11.679,0,0,1-2.63,3.49,2.6,2.6,0,0,0-.8,1.01c0,0.65,2.89,1.59,3.36,1.59,1.54,0,5.4-6.49,5.4-12.29a11.167,11.167,0,0,0-1.08-5.04,3.035,3.035,0,0,1-.36-1.88v-1.26a1.106,1.106,0,0,1,.68-1.15,42.53,42.53,0,0,1,4.4-.18c2.02,0,4.72.22,5.22,0.22,0.36,0,.8,0,0.8-2.2,0-1.66-.29-1.84-0.87-1.84-1.51,0-5.4.22-7.13,0.29-0.44,0-1.8.11-2.09,0.11a0.953,0.953,0,0,1-1.05-1.05c0-.75,0-1.51.04-2.3a1.728,1.728,0,0,1,.54-1.52,0.538,0.538,0,0,0,.22-0.39c0-.33-1.09-0.4-1.95-0.51-0.18-.03-0.4-0.03-0.54-0.07C1424.57,1136.8,1423.05,1136.62,1422.77,1136.62Zm14.52-1.83a3.189,3.189,0,0,0-1.77,1.44,0.847,0.847,0,0,0,.36.5c0.68,0.72,1.37,1.48,2.02,2.24a3.187,3.187,0,0,0,1.01,1,2.824,2.824,0,0,0,1.76-1.62A13.984,13.984,0,0,0,1437.29,1134.79Zm-4.94,1.22a3.042,3.042,0,0,0-1.77,1.48,0.868,0.868,0,0,0,.33.47c1.04,1.08,1.62,1.73,2.59,2.88a0.788,0.788,0,0,0,.47.36,2.857,2.857,0,0,0,1.73-1.62C1435.7,1139.11,1432.71,1136.01,1432.35,1136.01Z" transform="translate(-979.938 -1134.78)"/>
</svg>
