<svg xmlns="http://www.w3.org/2000/svg" width="55.63" height="17.09" viewBox="0 0 55.63 17.09">
  <defs>
    <style>
      .cls-1 {
        fill-rule: evenodd;
      }
    </style>
  </defs>
  <path id="text-next.svg" class="cls-1" d="M4966.72,2320.62v-17.08h-3.34V2314l-6.77-10.46h-2.97v17.08h3.33v-10.48l6.77,10.48h2.98Zm14.76,0v-2.97h-7.92v-4.15h6.74v-2.98h-6.74v-4.01h7.92v-2.97h-11.26v17.08h11.26Zm15.14,0-5.33-8.76,4.97-8.32h-3.77l-3,5.52-2.97-5.52h-3.8l4.97,8.32-5.3,8.76h3.81l3.29-5.95,3.31,5.95h3.82Zm12.62-14.11v-2.97h-12.26v2.97h4.46v14.11h3.34v-14.11h4.46Z" transform="translate(-4953.62 -2303.53)"/>
</svg>
