<svg xmlns="http://www.w3.org/2000/svg" width="519.06" height="32.59" viewBox="0 0 519.06 32.59">
  <defs>
    <style>
      .cls-1 {
        fill-rule: evenodd;
      }
    </style>
  </defs>
  <path id="やがて大きな力と_うねりとなって" data-name="やがて大きな力と、うねりとなって" class="cls-1" d="M988.582,1138.71c-0.792,0-1.621,2.53-1.621,2.92a0.833,0.833,0,0,0,.865.69,28.491,28.491,0,0,1,3.819,1.29,4.885,4.885,0,0,0,1.513.51c0.937,0,1.657-2.31,1.657-2.67,0-.57-1.405-1.08-2.125-1.37A30.8,30.8,0,0,0,988.582,1138.71Zm-8.575,18.13a2.22,2.22,0,0,0,.685-0.4c0.54-.5,3.314-2.81,3.855-2.81a1.069,1.069,0,0,1,.865.68c1.8,3.57,3.747,6.99,5.584,10.53,0.36,0.72.613,1.33,1.117,1.33,0.685,0,3.171-1.26,3.171-1.95a4.94,4.94,0,0,0-.793-1.55c-0.9-1.4-6.341-10.26-6.341-11.24a1.15,1.15,0,0,1,.72-0.9c2.522-1.51,6.522-3.78,9.44-3.78,1.84,0,3.31.94,3.31,2.88,0,3.14-4.319,4.29-6.8,4.72-0.468.07-1.153,0.11-1.153,0.72,0,0.51.973,2.96,1.91,2.96a8.665,8.665,0,0,0,1.4-.26c4.143-1.04,8.5-3.35,8.5-8.21,0-4.14-2.99-6.31-6.918-6.31-4.035,0-7.71,1.95-11.1,3.97a1.839,1.839,0,0,1-.864.32,0.958,0.958,0,0,1-.865-0.68,21.877,21.877,0,0,1-1.441-3.57,0.672,0.672,0,0,1,.072-0.29,1.566,1.566,0,0,0,.072-0.39,0.366,0.366,0,0,0-.433-0.37,5.5,5.5,0,0,0-1.189.37c-0.5.18-.972,0.36-1.369,0.5-1.081.4-1.729,0.61-1.729,0.94a1.064,1.064,0,0,0,.36.68c0.577,0.76,2.7,4.07,2.7,4.86a1.479,1.479,0,0,1-.9,1.12c-0.865.58-2.594,1.8-3.387,2.2a1.008,1.008,0,0,0-.757.76C977.737,1154.39,979.323,1156.84,980.007,1156.84Zm40.2-18.74a0.449,0.449,0,0,0-.43.54c0,0.07.07,0.83,0.07,1.41a34.167,34.167,0,0,1-.39,4.64,1.16,1.16,0,0,1-1.16,1.12c-1.98.36-4,.87-6.01,1.08-0.44.04-1.05,0.04-1.05,0.58,0,0.22.61,3.75,1.48,3.75a2.534,2.534,0,0,0,.76-0.26,29.732,29.732,0,0,1,4.14-1.26,0.461,0.461,0,0,1,.47.47,13.653,13.653,0,0,1-.9,2.74,28.844,28.844,0,0,1-6.45,10.02,1.315,1.315,0,0,0-.51.82c0,0.83,2.31,2.2,2.96,2.2a0.832,0.832,0,0,0,.61-0.36,33.291,33.291,0,0,0,3.57-5.11,40.929,40.929,0,0,0,4.61-10.78c0.25-1.01.65-1.29,2.66-1.29,2.2,0,2.31,1.51,2.31,3.27a21.579,21.579,0,0,1-1.62,8.15c-0.9,1.8-1.8,2.23-3.78,2.23-0.72,0-1.27-.14-1.63-0.14a0.506,0.506,0,0,0-.5.61,7.114,7.114,0,0,0,.65,2.59,1.474,1.474,0,0,0,1.66.83,7.38,7.38,0,0,0,6.81-3.89c1.58-2.88,2.16-7.75,2.16-11.02,0-2.02-.44-4.08-2.24-5.26a7.15,7.15,0,0,0-4.07-.8h-0.43a0.7,0.7,0,0,1-.79-0.72,1.61,1.61,0,0,1,.07-0.43c0.11-.58.18-1.08,0.25-1.48,0.18-1.29.25-1.87,0.94-2.38a0.591,0.591,0,0,0,.32-0.46,1.014,1.014,0,0,0-.93-0.58C1023.28,1138.79,1020.57,1138.1,1020.21,1138.1Zm14.67,0a2.98,2.98,0,0,0-1.73,1.51,0.92,0.92,0,0,0,.32.51,30.537,30.537,0,0,1,2.56,2.77,0.983,0.983,0,0,0,.5.4,2.714,2.714,0,0,0,1.73-1.66A14.387,14.387,0,0,0,1034.88,1138.1Zm3.38-2.56a3.218,3.218,0,0,0-1.73,1.52,0.847,0.847,0,0,0,.36.5c0.91,0.9,1.73,1.8,2.56,2.78a0.747,0.747,0,0,0,.51.39,2.808,2.808,0,0,0,1.73-1.66A14.559,14.559,0,0,0,1038.26,1135.54Zm-5.87,6.49c-0.58,0-2.56,1.19-2.56,1.84a1.122,1.122,0,0,0,.33.61,26.121,26.121,0,0,1,4.82,7.71,1.058,1.058,0,0,0,.83.83c0.72,0,2.99-1.34,2.99-2.16C1038.8,1149.96,1033.76,1142.03,1032.39,1142.03Zm10.73,1.3c0,0.36.33,3.78,1.19,3.78a3.327,3.327,0,0,0,.54-0.07,69.584,69.584,0,0,1,7.97-1.48c0.39-.07,2.01-0.32,2.3-0.32a0.5,0.5,0,0,1,.54.43,2.418,2.418,0,0,1-.65.86,16,16,0,0,0-3.96,10.34c0,7.03,5.26,8.97,11.39,8.97a1.118,1.118,0,0,0,1.04-.36,8.5,8.5,0,0,0,.65-3.2c0-.58-0.29-0.62-0.83-0.62-0.36,0-1.15.04-1.8,0.04-3.64,0-6.34-1.01-6.34-5.19a13.42,13.42,0,0,1,1.73-6.34,10.91,10.91,0,0,1,6.16-5.37,17.469,17.469,0,0,1,5.98-.75c0.83-.04,1.58.03,1.58-0.76a23.468,23.468,0,0,0-.28-2.63c-0.11-.43-0.18-0.9-0.72-0.9a2.172,2.172,0,0,0-.44.03c-2.7.44-5.47,0.8-8.18,1.12-5.26.61-10.52,1.15-15.78,1.48C1043.63,1142.5,1043.12,1142.39,1043.12,1143.33Zm44.14,7.09c-1.73,6.67-6.27,10.96-12.36,13.77a2.158,2.158,0,0,1-.25.1,1.1,1.1,0,0,0-.8.83c0,0.58.94,2.99,1.84,2.99a3,3,0,0,0,1.26-.43,0.339,0.339,0,0,0,.18-0.07,25.994,25.994,0,0,0,12.58-13.01,0.521,0.521,0,0,1,.39-0.29,0.388,0.388,0,0,1,.36.26,29.209,29.209,0,0,0,9.52,11.49c0.57,0.43,2.91,2.05,3.53,2.05,0.82,0,2.12-1.98,2.12-2.73a0.949,0.949,0,0,0-.68-0.83,26.574,26.574,0,0,1-12.4-14.16c0-.11-0.03-0.18-0.03-0.33a0.624,0.624,0,0,1,.72-0.57h7.74c1.41,0,2.81.07,4.22,0.07,0.94,0,.86-0.43.86-1.87,0-1.41.08-1.91-.82-1.91-1.45,0-2.85.1-4.26,0.1h-8.1a0.85,0.85,0,0,1-.98-0.93c0.11-2.24.04-4.43,0.11-6.63a1.09,1.09,0,0,1,.54-1.12,0.53,0.53,0,0,0,.29-0.4,0.621,0.621,0,0,0-.68-0.46c-0.65-.08-2.78-0.26-3.39-0.26-0.4,0-.79.08-0.79,0.58a0.715,0.715,0,0,0,.03.25,26.926,26.926,0,0,1,.11,3.1v1.51c0,1.12-.03,2.27-0.11,3.39a0.892,0.892,0,0,1-1.04.97h-8.04c-1.4,0-2.81-.1-4.21-0.1-0.9,0-.87.46-0.87,1.91,0,1.4-.03,1.87.87,1.87,1.4,0,2.81-.07,4.21-0.07h7.53a0.677,0.677,0,0,1,.8.68v0.25Zm33.43-13.44c-0.61,0-3.14.51-3.14,1.27a2.622,2.622,0,0,0,.44.93,10.263,10.263,0,0,1,1.01,2.2,0.886,0.886,0,0,1-.94.83,22.2,22.2,0,0,1-2.78.36c-0.5.04-1.44,0-1.44,0.76a8.629,8.629,0,0,0,.62,2.3,0.765,0.765,0,0,0,.79.61,33.918,33.918,0,0,0,4.11-.64c0.25-.04.93-0.22,1.11-0.22,0.72,0,1.37,2.02,1.37,2.09a0.868,0.868,0,0,1-.79.68,37.044,37.044,0,0,1-7.68,1.23c-0.93.07-1.58,0-1.58,0.68a9.121,9.121,0,0,0,.43,2.2,0.949,0.949,0,0,0,.94.9,56.208,56.208,0,0,0,9.58-1.8,1.194,1.194,0,0,1,.51-0.11,1.146,1.146,0,0,1,.97.87,26.089,26.089,0,0,1,1.37,2.63,0.324,0.324,0,0,1-.33.32,1.206,1.206,0,0,1-.36-0.07,10.785,10.785,0,0,0-3.56-.61c-3.64,0-6.85,1.94-6.85,5.87a6.169,6.169,0,0,0,4.33,5.8,18.958,18.958,0,0,0,6.95.94c1.69,0,2.05-.08,2.05-2.31,0-1.04-.14-1.66-0.86-1.66a8.614,8.614,0,0,0-1.05.08,16.168,16.168,0,0,1-2.19.18c-1.95,0-5.63-.58-5.63-3.17,0-1.88,2.06-2.45,3.57-2.45a9.629,9.629,0,0,1,6.63,2.55,0.765,0.765,0,0,0,.58.29c0.79,0,2.92-1.51,2.92-2.34a3.717,3.717,0,0,0-.87-1.55c-0.65-.83-3.64-5.48-3.64-6.27a1.189,1.189,0,0,1,1.01-.97c0.97-.4,1.95-0.83,2.88-1.3,0.72-.39,1.52-0.72,1.52-1.26s-1.23-2.77-1.84-2.77a2.189,2.189,0,0,0-.87.39c-0.75.47-3.53,2.09-4.28,2.09-0.44,0-.69-0.47-1.08-1.47a1.324,1.324,0,0,1-.18-0.55,0.93,0.93,0,0,1,.82-0.72,25.277,25.277,0,0,0,2.6-1.18,1.243,1.243,0,0,0,.76-0.87c0-.61-0.94-2.81-1.59-2.81a3.083,3.083,0,0,0-.9.36,12.335,12.335,0,0,1-2.77,1.23c-0.73,0-.94-0.76-1.23-1.59C1121.63,1137.56,1121.55,1136.98,1120.69,1136.98Zm35.59,23.68c1.8,0,1.84.39,1.84,1.11a1.687,1.687,0,0,1-1.87,1.95c-0.94,0-2.38-.58-2.38-1.7C1153.87,1160.87,1155.42,1160.66,1156.28,1160.66Zm1.77-12.72a0.729,0.729,0,0,0-.87.79c0,0.18.04,0.32,0.04,0.5,0.11,1.41.65,6.63,0.65,7.79a0.636,0.636,0,0,1-.76.61h-0.94c-2.84,0-5.98,1.15-5.98,4.47,0,3.35,3.43,4.9,6.34,4.9,2.45,0,4.58-.9,5.01-3.53a0.8,0.8,0,0,1,.58-0.83c0.58,0,2.34,1.26,2.88,1.65a1.849,1.849,0,0,0,.94.51c0.9,0,2.23-2.05,2.23-2.63,0-.87-4.25-2.85-5.08-3.17-0.11-.04-0.25-0.11-0.36-0.15a1.4,1.4,0,0,1-1.12-.9c-0.18-.75-0.36-5.94-0.36-6.99,0-.75.08-1.83,0.08-1.91a0.81,0.81,0,0,0-.72-0.75A14.616,14.616,0,0,0,1158.05,1147.94Zm5.51-5.55c-0.76,0-2.41,1.98-2.41,2.48a0.938,0.938,0,0,0,.46.58,20.508,20.508,0,0,1,4.51,4.65,1.192,1.192,0,0,0,.79.65c0.65,0,2.7-1.62,2.7-2.49C1169.61,1147.32,1164.46,1142.39,1163.56,1142.39Zm-12.11-5.87c-0.32,0-.32.36-0.32,0.61,0,1.15-.61,5.15-1.15,6.05a1.238,1.238,0,0,1-1.08.58,33.028,33.028,0,0,1-3.71.18h-1.66a0.523,0.523,0,0,0-.65.57c0,0.36.18,1.66,0.25,2.09,0.15,0.83.29,1.16,0.9,1.16,0.83,0,3.61-.36,3.89-0.36a0.485,0.485,0,0,1,.51.47,14.121,14.121,0,0,1-.83,2.19,66.892,66.892,0,0,1-4.29,8.33,3.923,3.923,0,0,0-.65,1.29c0,0.76,2.42,1.8,3.21,1.8a0.716,0.716,0,0,0,.72-0.5,91.238,91.238,0,0,0,5.87-12.83c0.44-1.19.4-1.44,1.7-1.65,3.31-.62,3.74-0.69,3.74-1.48a15.239,15.239,0,0,0-.18-1.91c-0.07-.43-0.1-1.08-0.54-1.08a1.206,1.206,0,0,0-.36.07,16.916,16.916,0,0,1-2.05.54,0.426,0.426,0,0,1-.4-0.47,11.514,11.514,0,0,1,.4-1.62,6.332,6.332,0,0,1,.65-1.91,1.026,1.026,0,0,0,.57-0.65,0.721,0.721,0,0,0-.57-0.43C1154.84,1137.38,1151.85,1136.52,1151.45,1136.52Zm37.51,3.09c0-1.08.03-1.54,0.43-1.8a0.835,0.835,0,0,0,.61-0.61,0.543,0.543,0,0,0-.54-0.5c-0.47-.08-3.2-0.26-3.67-0.26-0.36,0-.83,0-0.83.62,0,0.14.03,0.25,0.03,0.39a32.174,32.174,0,0,1,.11,3.79v1.11a0.869,0.869,0,0,1-1.01,1.01h-4.57c-1.41,0-2.81-.11-4.22-0.11-0.9,0-.86.47-0.86,1.84s-0.04,1.87.86,1.87c1.41,0,2.81-.1,4.22-0.1h4.47a0.8,0.8,0,0,1,.93.97,18.968,18.968,0,0,1-1.22,5.98,19.788,19.788,0,0,1-9.12,10.09c-0.39.21-1.22,0.54-1.22,1.04,0,0.94,1.55,2.67,2.41,2.67,0.65,0,3.64-2.23,4.32-2.77,6.02-4.76,7.86-9.52,8.65-17.01a0.936,0.936,0,0,1,1.12-.97h6.41c1.98,0,2.38-.04,2.38,1.26,0,2.95-.32,10.88-1.01,13.51-0.5,1.91-1.48,2.12-3.24,2.12-1.08,0-2.09-.18-2.92-0.18-0.79,0-.83.54-0.83,1.3,0,2.85.51,2.78,3.46,2.78,2.81,0,5.55-.26,6.67-3.28,1.4-3.79,1.54-14.52,1.54-18.95,0-1.7-.68-2.17-2.34-2.17-1.33,0-2.66.11-4,.11h-6.01a0.869,0.869,0,0,1-1.01-1.01v-2.74Zm25.14-.75a2.264,2.264,0,0,0,.11.43,23.613,23.613,0,0,1,.69,2.38c0.36,1.48,1.36,5.29,1.8,6.59a1.225,1.225,0,0,1,.14.65,1.134,1.134,0,0,1-.61.94c-2.99,1.94-6.23,4.5-6.23,8.43a6.341,6.341,0,0,0,3.31,5.55c2.38,1.4,4.72,1.55,7.39,1.55a86.049,86.049,0,0,0,9.9-.58c0.73-.18.76-0.58,0.76-1.51v-0.44c0-.75-0.03-2.23-0.54-2.23a0.855,0.855,0,0,0-.32.04,54.469,54.469,0,0,1-9.41.93,14.406,14.406,0,0,1-4.79-.65c-1.12-.39-2.38-1.29-2.38-2.59a4.523,4.523,0,0,1,1.77-3.24,36.242,36.242,0,0,1,6.48-4.25,66.348,66.348,0,0,1,8.9-4.15,0.776,0.776,0,0,0,.69-0.57,7.148,7.148,0,0,0-1.05-2.2c-0.21-.36-0.83-1.44-1.29-1.44a2.216,2.216,0,0,0-.94.36c-0.94.61-6.7,4-7.35,4a1.04,1.04,0,0,1-.83-1.08,50.89,50.89,0,0,1-1.12-6.45c-0.07-.83,0-1.37-1.01-1.37a13.717,13.717,0,0,0-1.72.18C1215.29,1138.32,1214.1,1138.32,1214.1,1138.86Zm24.93,21.76a1.023,1.023,0,0,0,.65.68,22.264,22.264,0,0,1,5.48,4.9,1.16,1.16,0,0,0,.72.54c0.83,0,2.63-1.98,2.63-2.77,0-.9-6.2-5.87-7.03-5.87A4.935,4.935,0,0,0,1239.03,1160.62Zm41.43-20.21c0,0.57.8,0.75,2.31,1.15a75.987,75.987,0,0,0,8.29,1.62c0.57,0,.79-0.36.97-1.08a15.279,15.279,0,0,0,.36-2.2c0-.54-0.4-0.54-0.9-0.57-2.49-.26-6.74-0.83-9.01-1.81a1.364,1.364,0,0,0-.58-0.21,0.849,0.849,0,0,0-.72.68A8.511,8.511,0,0,0,1280.46,1140.41Zm6.85,4.5a20.631,20.631,0,0,0-9.62,2.92,1.547,1.547,0,0,0-1.08,1.12c0,0.82,1.15,3.42,2.02,3.42a1.634,1.634,0,0,0,.75-0.36c2.24-1.87,4.69-3.39,7.71-3.39a4.647,4.647,0,0,1,5.01,4.97c0,5.01-5.33,8.94-9.66,10.31a0.818,0.818,0,0,0-.72.61c0,0.58,1.48,3.03,2.56,3.03a10.562,10.562,0,0,0,3.1-1.34c4.58-2.77,8.76-7.24,8.76-12.89C1296.14,1148.01,1292.42,1144.91,1287.31,1144.91Zm37.79,13.87c0.54,0,2.77.18,2.77,0.94a3.427,3.427,0,0,1-3.38,2.05c-0.9,0-2.74-.32-2.74-1.51C1321.75,1159.03,1324.2,1158.78,1325.1,1158.78Zm-12.65-21.58a0.462,0.462,0,0,0-.54.54v0.72c0,1.44-.07,2.92-0.1,4.36a2.01,2.01,0,0,1-.19,1.05c-0.39.75-4.25,1.33-5.18,1.4-0.65.07-1.44,0.04-1.44,0.65a12.8,12.8,0,0,0,.86,2.63,1.047,1.047,0,0,0,.76.83,16.526,16.526,0,0,0,2.48-.69,21.281,21.281,0,0,1,2.13-.61c0.32,0,.32.33,0.32,0.54a3.643,3.643,0,0,1-.18,1.15,47.791,47.791,0,0,1-5.51,9.41,3.019,3.019,0,0,0-.61,1.08c0,0.68,1.98,2.38,2.56,2.38a0.754,0.754,0,0,0,.64-0.54c0.26-.51,1.99-3.75,2.42-3.75,0.18,0,.21.22,0.21,0.36,0,0.72-.18,4.68-0.25,5.33a3.758,3.758,0,0,0-.03.58c0,0.83,1.01.76,1.58,0.76,2.27,0,2.6-.04,2.6-0.91,0-.03-0.22-3.96-0.22-6.34v-1.94c0-2.2.07-2.34,0.79-3.03,2.49-2.45,6.63-6.7,10.31-6.7,3.1,0,3.31,5.15,3.31,7.39,0,1.15-.03,2.16-0.83,2.16h-0.18a17.819,17.819,0,0,0-3.06-.4c-2.63,0-6.7,1.55-6.7,4.69,0,3.09,3.46,4.61,6.12,4.61a7.08,7.08,0,0,0,6.13-3.1,0.9,0.9,0,0,1,.76-0.54,2.048,2.048,0,0,1,.97.47,4.726,4.726,0,0,0,1.69.93c0.87,0,1.87-1.8,1.87-2.52,0-.83-1.54-1.62-2.7-2.27a1.137,1.137,0,0,1-.79-1.04c0-.15.04-0.26,0.04-0.4,0.1-1.04.21-2.23,0.21-3.28,0-2.16-.32-5.4-1.44-7.28a5.937,5.937,0,0,0-5.26-2.95c-2.56,0-4.5,1.12-6.45,2.63a38.006,38.006,0,0,0-3.93,3.57,0.785,0.785,0,0,1-.46.28c-0.15,0-.15-0.14-0.15-0.25a2.119,2.119,0,0,1,.29-0.9,14.579,14.579,0,0,1,1.59-2.7,1.736,1.736,0,0,0,.5-0.94,1.829,1.829,0,0,0-1.12-1.37,1.06,1.06,0,0,1-.86-0.93c0-.11.14-1.44,0.14-1.66,0.15-1.3.15-1.44,0.58-1.8a0.606,0.606,0,0,0,.29-0.43,0.574,0.574,0,0,0-.51-0.47A20.1,20.1,0,0,0,1312.45,1137.2Zm44.35,1.66a2.673,2.673,0,0,0,.07.47,34.7,34.7,0,0,1,1.27,10.05,21.351,21.351,0,0,1-1.66,9.08,13.732,13.732,0,0,1-4.9,5.62,0.832,0.832,0,0,0-.54.61c0,0.76,2.09,2.52,2.66,2.52,0.83,0,2.31-1.44,2.89-2.01,4.54-4.62,5.58-9.91,5.58-16.15a47.4,47.4,0,0,0-1.12-10.37c-0.14-.54-0.21-0.98-0.9-0.98C1359.76,1137.7,1356.8,1138.07,1356.8,1138.86Zm-10.48.54c-0.25-.11-1.84-0.76-1.95-0.76a1.009,1.009,0,0,0-.47.9c-0.14.9-.39,1.77-0.61,2.67a33.87,33.87,0,0,0-.83,7.38,30.02,30.02,0,0,0,1.19,8.4c0.22,0.68.47,1.33,1.26,1.33,0.69,0,2.6-.43,2.6-1.44,0-.25-0.08-0.65-0.08-1.15a14.324,14.324,0,0,1,1.19-4.47l0.33-.86c0.32-.87.86-2.13,0.86-2.24a1.982,1.982,0,0,0-1.4-1.11c-0.43,0-1.08,1.54-1.26,1.94a1.4,1.4,0,0,1-.65.94c-0.4,0-.36-1.55-0.36-1.84a18.8,18.8,0,0,1,.47-4.03,13.892,13.892,0,0,1,1.04-3.03,1.656,1.656,0,0,1,.69-0.72,0.622,0.622,0,0,0,.43-0.47C1348.77,1140.44,1347.11,1139.76,1346.32,1139.4Zm31.7-.54a1.7,1.7,0,0,0,.11.43,21.254,21.254,0,0,1,.68,2.38c0.36,1.48,1.37,5.29,1.8,6.59a1.227,1.227,0,0,1,.15.65,1.134,1.134,0,0,1-.61.94c-2.99,1.94-6.24,4.5-6.24,8.43a6.35,6.35,0,0,0,3.32,5.55c2.38,1.4,4.72,1.55,7.38,1.55a86.362,86.362,0,0,0,9.91-.58c0.72-.18.76-0.58,0.76-1.51v-0.44c0-.75-0.04-2.23-0.54-2.23a0.935,0.935,0,0,0-.33.04,54.257,54.257,0,0,1-9.4.93,14.371,14.371,0,0,1-4.79-.65c-1.12-.39-2.38-1.29-2.38-2.59a4.523,4.523,0,0,1,1.77-3.24,36.242,36.242,0,0,1,6.48-4.25,66.348,66.348,0,0,1,8.9-4.15,0.776,0.776,0,0,0,.69-0.57,7.148,7.148,0,0,0-1.05-2.2c-0.22-.36-0.83-1.44-1.3-1.44a2.177,2.177,0,0,0-.93.36c-0.94.61-6.71,4-7.35,4a1.031,1.031,0,0,1-.83-1.08,49.17,49.17,0,0,1-1.12-6.45c-0.07-.83,0-1.37-1.01-1.37a13.878,13.878,0,0,0-1.73.18C1379.21,1138.32,1378.02,1138.32,1378.02,1138.86Zm40.53,21.8c1.8,0,1.84.39,1.84,1.11a1.69,1.69,0,0,1-1.88,1.95c-0.93,0-2.37-.58-2.37-1.7C1416.14,1160.87,1417.69,1160.66,1418.55,1160.66Zm1.77-12.72a0.729,0.729,0,0,0-.87.79c0,0.18.04,0.32,0.04,0.5,0.11,1.41.65,6.63,0.65,7.79a0.636,0.636,0,0,1-.76.61h-0.94c-2.84,0-5.98,1.15-5.98,4.47,0,3.35,3.42,4.9,6.34,4.9,2.45,0,4.58-.9,5.01-3.53a0.8,0.8,0,0,1,.58-0.83c0.57,0,2.34,1.26,2.88,1.65a1.849,1.849,0,0,0,.94.51c0.9,0,2.23-2.05,2.23-2.63,0-.87-4.25-2.85-5.08-3.17-0.11-.04-0.25-0.11-0.36-0.15a1.4,1.4,0,0,1-1.12-.9c-0.18-.75-0.36-5.94-0.36-6.99,0-.75.07-1.83,0.07-1.91a0.8,0.8,0,0,0-.72-0.75A14.373,14.373,0,0,0,1420.32,1147.94Zm5.51-5.55c-0.76,0-2.42,1.98-2.42,2.48a0.952,0.952,0,0,0,.47.58,20.722,20.722,0,0,1,4.51,4.65,1.192,1.192,0,0,0,.79.65c0.65,0,2.7-1.62,2.7-2.49C1431.88,1147.32,1426.73,1142.39,1425.83,1142.39Zm-12.11-5.87c-0.32,0-.32.36-0.32,0.61,0,1.15-.61,5.15-1.15,6.05a1.243,1.243,0,0,1-1.09.58,32.8,32.8,0,0,1-3.71.18h-1.65a0.523,0.523,0,0,0-.65.57c0,0.36.18,1.66,0.25,2.09,0.14,0.83.29,1.16,0.9,1.16,0.83,0,3.6-.36,3.89-0.36a0.485,0.485,0,0,1,.51.47,14.121,14.121,0,0,1-.83,2.19,66.892,66.892,0,0,1-4.29,8.33,3.923,3.923,0,0,0-.65,1.29c0,0.76,2.42,1.8,3.21,1.8a0.724,0.724,0,0,0,.72-0.5,91.238,91.238,0,0,0,5.87-12.83c0.43-1.19.4-1.44,1.69-1.65,3.32-.62,3.75-0.69,3.75-1.48a17.383,17.383,0,0,0-.18-1.91c-0.07-.43-0.11-1.08-0.54-1.08a1.149,1.149,0,0,0-.36.07,16.916,16.916,0,0,1-2.05.54,0.42,0.42,0,0,1-.4-0.47,11.514,11.514,0,0,1,.4-1.62,6.332,6.332,0,0,1,.65-1.91,1.026,1.026,0,0,0,.57-0.65,0.721,0.721,0,0,0-.57-0.43C1417.11,1137.38,1414.12,1136.52,1413.72,1136.52Zm25.29,14.91c0,0.76,1.3,2.92,2.24,2.92a1.86,1.86,0,0,0,1-.36c3.07-1.66,7.75-3.64,11.25-3.64,2.19,0,4.03,1.3,4.03,3.64,0,2.31-1.62,4.07-3.53,5.15a16.03,16.03,0,0,1-6.16,1.8c-0.47.04-1.15,0.11-1.15,0.72,0,0.29.5,2.74,1.69,2.74a20.542,20.542,0,0,0,5.55-1.51c3.78-1.62,7.06-4.36,7.06-8.83,0-4.36-3.28-7.06-7.49-7.06-3.39,0-7.17,1.44-10.38,2.59a26.289,26.289,0,0,1-3.32,1.09A0.837,0.837,0,0,0,1439.01,1151.43Zm30.3-8.1c0,0.36.32,3.78,1.19,3.78a3.327,3.327,0,0,0,.54-0.07,69.413,69.413,0,0,1,7.96-1.48c0.4-.07,2.02-0.32,2.31-0.32a0.511,0.511,0,0,1,.54.43,2.418,2.418,0,0,1-.65.86,16,16,0,0,0-3.96,10.34c0,7.03,5.26,8.97,11.38,8.97a1.136,1.136,0,0,0,1.05-.36,8.694,8.694,0,0,0,.64-3.2c0-.58-0.28-0.62-0.82-0.62-0.36,0-1.16.04-1.81,0.04-3.63,0-6.34-1.01-6.34-5.19a13.536,13.536,0,0,1,1.73-6.34,10.941,10.941,0,0,1,6.16-5.37,17.5,17.5,0,0,1,5.98-.75c0.83-.04,1.59.03,1.59-0.76a21.364,21.364,0,0,0-.29-2.63c-0.11-.43-0.18-0.9-0.72-0.9a2.075,2.075,0,0,0-.43.03c-2.7.44-5.48,0.8-8.18,1.12-5.26.61-10.52,1.15-15.78,1.48C1469.81,1142.5,1469.31,1142.39,1469.31,1143.33Z" transform="translate(-977.75 -1135.53)"/>
</svg>
