<svg xmlns="http://www.w3.org/2000/svg" width="331.936" height="32.37" viewBox="0 0 331.936 32.37">
  <defs>
    <style>
      .cls-1 {
        fill-rule: evenodd;
      }
    </style>
  </defs>
  <path id="リトライし続けること_" data-name="リトライし続けること。" class="cls-1" d="M1000.62,1141.13a2.956,2.956,0,0,1,.25-1.55,0.724,0.724,0,0,0,.32-0.51c0-.32-0.43-0.36-0.72-0.43a32.4,32.4,0,0,0-3.565-.36c-0.288,0-.432.07-0.432,0.36a3.524,3.524,0,0,0,.072.61,19.21,19.21,0,0,1,.108,2.49v7.82a44.928,44.928,0,0,1-.433,6.95c-0.612,4.07-2.882,6.13-6.413,7.96a1.682,1.682,0,0,0-.973.76c0,0.65,2.486,2.45,3.027,2.45,0.648,0,3.351-2.02,3.963-2.52a12.227,12.227,0,0,0,4.4-8.36,54.84,54.84,0,0,0,.4-7.67v-8Zm-14.128,3.35c0-.83-0.036-1.48-0.036-2.02a3.3,3.3,0,0,1,.4-2.09,0.8,0.8,0,0,0,.18-0.4c0-.32-0.5-0.32-1.261-0.46-0.5-.08-2.738-0.4-3.1-0.4a0.287,0.287,0,0,0-.324.36c0,0.22.036,0.43,0.036,0.65,0.036,0.94.108,1.87,0.108,2.85v7.6c0,1.69-.108,3.35-0.108,5.04,0,0.97.468,1.08,2.162,1.08s2.018-.14,2.018-1.26c0-1.62-.073-3.28-0.073-4.9v-6.05Zm38.408,3.67a0.4,0.4,0,0,1-.33.15,0.3,0.3,0,0,1-.29-0.36v-5.41c0-.9-0.03-1.58-0.03-2.12a2.908,2.908,0,0,1,.39-1.91,1,1,0,0,0,.18-0.47c0-.51-1.47-0.65-3.09-0.87-0.26-.03-1.01-0.14-1.23-0.14a0.431,0.431,0,0,0-.47.54c0,0.14.04,0.47,0.04,0.65,0.03,0.9.11,1.87,0.11,2.81v20.54c0,1.62-.11,3.24-0.11,4.86,0,1.19.61,1.23,2.05,1.23,2.2,0,2.24-.22,2.24-1.88,0-1.44-.08-2.84-0.08-4.29v-9.83a0.485,0.485,0,0,1,.44-0.58,0.61,0.61,0,0,1,.36.15,52.792,52.792,0,0,1,5.22,4.21,1.32,1.32,0,0,0,.79.47c0.72,0,2.42-1.87,2.42-2.49s-2.02-2.16-2.52-2.59c-0.73-.61-4.33-3.46-5.05-3.46A1.9,1.9,0,0,0,1024.9,1148.15Zm25.29-1.47c-1.55,0-3.1-.08-4.62-0.08-1,0-1.04.26-1.04,2.09,0,1.41,0,1.77,1.01,1.77,1.55,0,3.06-.07,4.57-0.07h13.41c0.57,0,1.55-.07,1.55.79a8.983,8.983,0,0,1-.98,2.34,25.775,25.775,0,0,1-11.06,10.23c-0.36.18-1.26,0.51-1.26,0.94,0,0.61,1.66,2.67,2.49,2.67,1.11,0,5.01-2.78,6.01-3.61a29.891,29.891,0,0,0,7.46-8.5,24.406,24.406,0,0,0,2.09-4.86,9.365,9.365,0,0,0,.47-1.48,4.283,4.283,0,0,0-2.56-2.38,4.782,4.782,0,0,0-.65.07c-0.75.08-2.41,0.08-3.24,0.08h-13.65Zm2.41-7.79c-1.41,0-3.24-.1-4.25-0.1-0.9,0-.97.43-0.97,2.12,0,1.33,0,1.77,1,1.77,1.41,0,2.81-.07,4.22-0.07h8.83c1.4,0,2.81.07,4.25,0.07,0.97,0,.97-0.47.97-1.7,0-1.8-.07-2.19-0.97-2.19-0.94,0-2.78.1-4.25,0.1h-8.83Zm40.42,8.9a1.917,1.917,0,0,1,.83-1.62,70.256,70.256,0,0,0,4.94-5.4,1.96,1.96,0,0,1,1.4-.87,0.414,0.414,0,0,0,.36-0.36c0-.43-1.01-1.04-1.4-1.29a12.865,12.865,0,0,0-2.45-1.48,0.939,0.939,0,0,0-.58.54,30.741,30.741,0,0,1-4.9,6.09,52.056,52.056,0,0,1-14.16,9.55,0.723,0.723,0,0,0-.58.61c0,0.68,2.2,2.88,2.81,2.88,0.94,0,6.67-3.82,7.75-4.61a4,4,0,0,1,1.41-.83c0.68,0,.57.79,0.57,1.01v9.8c0,1.55-.07,3.1-0.07,4.65,0,0.93.36,1.04,2.34,1.04,1.34,0,1.8-.11,1.8-1.08,0-1.55-.07-3.13-0.07-4.72v-13.91Zm22.62-9.18c-0.5,0-.54.36-0.54,0.9v0.39c0,1.48-.32,4.94-0.43,6.6q-0.315,4.26-.32,8.54c0,2.63.18,6.12,1.8,8.28a7.964,7.964,0,0,0,6.34,2.78,12.61,12.61,0,0,0,10.95-6.89,13.168,13.168,0,0,0,1.48-4.21c0-1.08-2.2-2.92-2.99-2.92-0.54,0-.61.61-0.72,1.19a11.442,11.442,0,0,1-2.2,5.33,9.127,9.127,0,0,1-6.77,3.5c-3.89,0-3.82-4.36-3.82-7.17,0-2.06.32-13.48,1.58-14.41a0.783,0.783,0,0,0,.44-0.55,0.756,0.756,0,0,0-.72-0.5A29.791,29.791,0,0,0,1115.64,1138.61Zm44.82,17.15a0.843,0.843,0,0,0,.51-0.54c0-.33-0.94-0.55-2.53-0.69a11.18,11.18,0,0,0-1.15-.11c-0.47,0-.54.25-0.54,0.69,0,0.21.04,0.39,0.04,0.61a10.673,10.673,0,0,1-1.23,5.26,10.24,10.24,0,0,1-4.25,3.71,0.992,0.992,0,0,0-.79.69c0,0.75,1.33,2.45,2.2,2.45a6.824,6.824,0,0,0,2.45-1.34c3.53-2.7,4.64-5.69,4.93-10.01A0.8,0.8,0,0,1,1160.46,1155.76Zm6.24,8.1c-0.83,0-1.05-.25-1.05-1.22v-5.08c0-1.3.11-1.7,0.54-1.98a0.817,0.817,0,0,0,.36-0.47c0-.4-0.58-0.4-0.94-0.44-0.54-.07-2.52-0.25-2.99-0.25a0.408,0.408,0,0,0-.5.4v0.29a16.954,16.954,0,0,1,.11,2.38v6.16c0,0.5-.04.97-0.04,1.44,0,1.94,1.19,2.3,2.88,2.3h2.45c1.01,0,2.45,0,3.07-.97a12.583,12.583,0,0,0,1.22-4.72,0.9,0.9,0,0,0-.65-0.94,4.166,4.166,0,0,0-1.83-.46c-0.69,0-.76.39-0.87,1.22-0.22,1.51-.22,2.34-1.3,2.34h-0.46Zm-13.8-2.09a21.529,21.529,0,0,0-.76-2.99c-0.69-2.34-.87-2.66-1.48-2.66-0.47,0-1.91.25-1.91,0.86a2.191,2.191,0,0,0,.18.69,36.833,36.833,0,0,1,1.12,3.85c0.22,0.97.32,1.37,0.86,1.37C1151.24,1162.89,1152.9,1162.64,1152.9,1161.77Zm-8.65-4.39a1.016,1.016,0,0,0-.97-0.62,15.965,15.965,0,0,0-1.91-.43c-0.4,0-.44.36-0.47,0.94a3.947,3.947,0,0,1-.04.65,31.737,31.737,0,0,1-1.51,7.1,1.83,1.83,0,0,0-.15.5c0,0.65,1.55.94,2.06,0.94a0.713,0.713,0,0,0,.79-0.65,61.822,61.822,0,0,0,1.41-7.32,0.658,0.658,0,0,1,.32-0.64A0.573,0.573,0,0,0,1144.25,1157.38Zm-2.42-15.6a1.016,1.016,0,0,0-.61-0.36c-0.57,0-1.66,2.12-1.66,2.48a1.088,1.088,0,0,0,.55.79,35.723,35.723,0,0,1,3.2,2.96,1.189,1.189,0,0,1,.4.79,1.063,1.063,0,0,1-.22.65c-0.32.54-.65,1.12-0.97,1.66a1.494,1.494,0,0,1-1.51.86h-0.76c-0.4,0-.72.04-0.72,0.4,0,0.32.32,1.73,0.43,2.27,0.22,1.04.33,1.55,0.69,1.55a0.625,0.625,0,0,0,.5-0.43,0.539,0.539,0,0,1,.4-0.36c0.72-.08,1.44-0.18,2.16-0.29a0.787,0.787,0,0,1,.94.9v6.34c0,1.62-.11,3.24-0.11,4.9,0,1.15.32,1.22,1.73,1.22,1.37,0,1.69-.07,1.69-1.19,0-1.65-.11-3.27-0.11-4.93v-6.77a1.018,1.018,0,0,1,.97-1.16,2.542,2.542,0,0,1,.44-0.03,0.839,0.839,0,0,1,.83.68,0.569,0.569,0,0,0,.61.54,4.483,4.483,0,0,0,1.4-.29,0.839,0.839,0,0,1,.26-0.07,0.362,0.362,0,0,1,.39.33c0.18,0.5.47,0.57,1.73,0.57,0.83,0,1.69.04,1.69-.72,0-.29-0.07-0.9-0.07-1.15a0.833,0.833,0,0,1,1.01-.83h9.51a0.85,0.85,0,0,1,.98.97c0,0.33-.04.76-0.04,1.05,0,0.79.68,0.75,1.73,0.75,1.08,0,1.8.04,1.8-.75,0-.15-0.04-0.8-0.04-1.26v-1.05c0-.68.04-1.01,0.04-1.4,0-1.16-1.01-1.37-2.56-1.37-0.72,0-1.58.07-2.52,0.07h-8.18c-0.93,0-1.8-.07-2.52-0.07-1.55,0-2.56.21-2.56,1.37a6.263,6.263,0,0,0,.04.86c0,0.18.07,0.58-.15,0.58a0.28,0.28,0,0,1-.21-0.29c-0.43-1.37-.87-2.7-1.34-4.04-0.21-.54-0.32-0.97-0.82-0.97-0.33,0-2.2.43-2.2,1.08a8.926,8.926,0,0,0,.5,1.37,1.052,1.052,0,0,1,.04.33,0.7,0.7,0,0,1-.69.72c-0.46.03-.9,0.1-1.37,0.14a0.433,0.433,0,0,1-.5-0.43,1.022,1.022,0,0,1,.07-0.29c1.66-2.49,3.24-5.01,4.69-7.64a0.733,0.733,0,0,1,.68-0.4,0.4,0.4,0,0,0,.47-0.39c0-.36-1.62-1.15-1.98-1.33a6.433,6.433,0,0,0-1.26-.58,0.674,0.674,0,0,0-.54.61c-0.62,1.33-1.37,2.6-2.06,3.86a0.726,0.726,0,0,1-.61.39,0.847,0.847,0,0,1-.54-0.25,1.383,1.383,0,0,1-.54-0.83,0.849,0.849,0,0,1,.18-0.5,48.832,48.832,0,0,0,2.85-4.94,0.636,0.636,0,0,1,.54-0.25,0.54,0.54,0,0,0,.68-0.43,1.024,1.024,0,0,0-.61-0.72,21.2,21.2,0,0,0-2.63-1.19,0.538,0.538,0,0,0-.43.5c-0.47,1.3-1.73,4-2.38,5.3a0.554,0.554,0,0,1-.43.29A0.545,0.545,0,0,1,1141.83,1141.78Zm21.8-3.28a1.606,1.606,0,0,1,.4-1.44,0.843,0.843,0,0,0,.47-0.54c0-.44-0.65-0.47-0.98-0.51-0.57-.03-2.59-0.25-3.09-0.25a0.492,0.492,0,0,0-.62.5,1.078,1.078,0,0,0,.04.36,17.072,17.072,0,0,1,.11,1.88,0.844,0.844,0,0,1-1.01.93h-1.91c-1.3,0-2.59-.07-3.89-0.07-0.79,0-.79.33-0.79,1.62,0,1.26.03,1.55,0.79,1.55,1.3,0,2.59-.07,3.89-0.07h1.91a0.859,0.859,0,0,1,1.01,1.01v0.47a0.859,0.859,0,0,1-1.01,1.01h-1.19c-1.12,0-2.23-.08-3.21-0.08-0.75,0-.72.37-0.72,1.63,0,1.22,0,1.58.72,1.58,1.08,0,2.13-.07,3.21-0.07h8.32c1.05,0,2.13.07,3.17,0.07,0.76,0,.76-0.36.76-1.58s0-1.63-.76-1.63c-0.93,0-2.09.08-3.17,0.08h-1.47a0.849,0.849,0,0,1-.98-1.01v-0.47a0.849,0.849,0,0,1,.98-1.01h2.16c1.29,0,2.59.07,3.89,0.07,0.79,0,.79-0.32.79-1.55,0-1.29,0-1.62-.83-1.62-1.29,0-2.59.07-3.85,0.07h-2.16A0.823,0.823,0,0,1,1163.63,1138.5Zm28.68,0.72a1.936,1.936,0,0,0,.03.43,43.232,43.232,0,0,1,.91,5.91,0.966,0.966,0,0,1-.76.97c-0.83.18-4.5,0.47-5.51,0.54-1.59.07-1.73,0.07-1.73,1.48,0,2.27.57,2.34,1.04,2.34a7.713,7.713,0,0,0,1.26-.14c0.65-.11,4.87-0.76,5.16-0.76,0.82,0,.9.72,0.9,1.84v0.76c0,5.11-1.19,8.39-5.16,11.7a0.608,0.608,0,0,0-.28.55c0,0.64,1.98,2.37,2.63,2.37,0.75,0,2.12-1.62,2.55-2.19a17.7,17.7,0,0,0,3.97-11.79c0-.93-0.04-1.91-0.04-2.88,0-1.26,1.05-1.22,2.34-1.37,1.88-.25,2.27-0.29,2.27-1.19,0-.61-0.03-2.81-0.83-2.81a2.518,2.518,0,0,0-.54.08c-0.39.1-2.37,0.54-2.66,0.54a0.9,0.9,0,0,1-.83-1.05c-0.04-1.12-.18-2.23-0.18-3.35,0-1.37.54-1.3,0.54-1.77a0.523,0.523,0,0,0-.51-0.36c-1.08-.18-2.19-0.14-3.31-0.25-0.18,0-.43-0.07-0.61-0.07A0.532,0.532,0,0,0,1192.31,1139.22Zm-10.67,1.22c-0.39-.14-3.02-1.08-3.2-1.08-0.44,0-.47.54-0.54,0.87a9.929,9.929,0,0,1-.26,1.01,42.722,42.722,0,0,0-1.83,11.81,23.469,23.469,0,0,0,2.56,11.39c0.46,0.79.68,1.12,1.26,1.12,0.32,0,2.73-.51,2.73-1.91,0-.58-0.03-1.16-0.03-1.7,0-2.38,1.33-5.83,1.33-6.3a2.244,2.244,0,0,0-1.51-1.08c-0.4,0-.65.79-1.01,1.69-0.14.32-.5,1.59-0.79,1.59-0.69,0-.94-4.18-0.94-4.87a29.349,29.349,0,0,1,1.95-10.12,2.02,2.02,0,0,1,1.15-1.3,0.5,0.5,0,0,0,.36-0.4C1182.87,1140.77,1182.36,1140.66,1181.64,1140.44Zm39.56,21.48a1.079,1.079,0,0,1-.97,1.22c-1.08,0-2.81-.61-2.81-1.91a1.491,1.491,0,0,1,1.55-1.44A2.2,2.2,0,0,1,1221.2,1161.92Zm3.35-23.35a4.832,4.832,0,0,0-1.37.4,33.722,33.722,0,0,1-9.11,1.33h-0.87c-1.08,0-1.11.07-1.11,0.9,0,0.61.1,3.31,0.9,3.31,0.57,0,5.65-1.04,6.52-1.26,0.21-.03.68-0.14,0.86-0.14a0.513,0.513,0,0,1,.61.43,3.123,3.123,0,0,1-.93,1.3,144.172,144.172,0,0,1-11.21,11.31,1.819,1.819,0,0,0-.86,1.08c0,0.58,1.84,2.6,2.59,2.6a0.493,0.493,0,0,0,.4-0.26c1.3-1.47,2.59-2.95,4-4.32a10.923,10.923,0,0,1,8.07-3.53c3.13,0,6.09,1.44,6.09,4.94a5.864,5.864,0,0,1-4.36,5.55,0.443,0.443,0,0,1-.43-0.47,3.6,3.6,0,0,0-.65-2.31,5.88,5.88,0,0,0-4.79-2.56,4.532,4.532,0,0,0-4.62,4.36c0,3.68,4.25,4.9,7.25,4.9,5.8,0,11.45-3.31,11.45-9.69a7.444,7.444,0,0,0-4.28-6.99,10.6,10.6,0,0,0-4.44-1.08,7.32,7.32,0,0,0-1.47.14,2.013,2.013,0,0,1-.47.08,0.537,0.537,0,0,1-.61-0.47,1.016,1.016,0,0,1,.36-0.61,34.1,34.1,0,0,1,5.22-4.83,1.588,1.588,0,0,0,.79-0.76C1228.08,1141.31,1225.99,1138.57,1224.55,1138.57Zm17.65,18.09a8.419,8.419,0,0,0,1.41,3.49c2.34,3.28,6.38,3.75,10.12,3.75,2.16,0,8.9-.43,10.81-1.01a1.171,1.171,0,0,0,.87-1.33c0-2.35-.26-2.96-0.8-2.96a2.727,2.727,0,0,0-.54.11,45.1,45.1,0,0,1-10.73,1.26c-3.39,0-6.45-.54-7.21-4.36a0.649,0.649,0,0,0-.65-0.68C1245.45,1154.93,1242.2,1155.76,1242.2,1156.66Zm3.61-12.43a0.744,0.744,0,0,0,.5.75c1.77,0.72,6.23.9,8.21,0.9a49.052,49.052,0,0,0,6.53-.43c0.82-.14,1.01-0.21,1.01-1.08,0-1.48-.04-3.1-0.94-3.1a2.117,2.117,0,0,0-.47.07,30.5,30.5,0,0,1-6.52.72,23.3,23.3,0,0,1-6.13-.75,5.352,5.352,0,0,0-1.04-.22c-0.69,0-.76.65-0.87,1.26A13.594,13.594,0,0,0,1245.81,1144.23Zm33.86-5.37a1.7,1.7,0,0,0,.11.43,21.254,21.254,0,0,1,.68,2.38c0.36,1.48,1.37,5.29,1.8,6.59a1.227,1.227,0,0,1,.15.65,1.134,1.134,0,0,1-.61.94c-2.99,1.94-6.24,4.5-6.24,8.43a6.35,6.35,0,0,0,3.32,5.55c2.38,1.4,4.72,1.55,7.38,1.55a86.362,86.362,0,0,0,9.91-.58c0.72-.18.76-0.58,0.76-1.51v-0.44c0-.75-0.04-2.23-0.54-2.23a0.935,0.935,0,0,0-.33.04,54.257,54.257,0,0,1-9.4.93,14.371,14.371,0,0,1-4.79-.65c-1.12-.39-2.38-1.29-2.38-2.59a4.523,4.523,0,0,1,1.77-3.24,36.242,36.242,0,0,1,6.48-4.25,66.348,66.348,0,0,1,8.9-4.15,0.764,0.764,0,0,0,.68-0.57,7.115,7.115,0,0,0-1.04-2.2c-0.22-.36-0.83-1.44-1.3-1.44a2.177,2.177,0,0,0-.93.36c-0.94.61-6.71,4-7.35,4a1.031,1.031,0,0,1-.83-1.08,49.17,49.17,0,0,1-1.12-6.45c-0.07-.83,0-1.37-1.01-1.37a13.682,13.682,0,0,0-1.73.18C1280.86,1138.32,1279.67,1138.32,1279.67,1138.86Zm29.61,19.92a3.176,3.176,0,0,1,3.21,3.21A3.205,3.205,0,1,1,1309.28,1158.78Zm0-1.8a5.01,5.01,0,1,0,5.01,5.01A5,5,0,0,0,1309.28,1156.98Z" transform="translate(-982.344 -1135.75)"/>
</svg>
