<svg xmlns="http://www.w3.org/2000/svg" width="567.62" height="40.4" viewBox="0 0 567.62 40.4">
  <defs>
    <style>
      .cls-1 {
        fill-rule: evenodd;
      }
    </style>
  </defs>
  <path id="text-connect-4_pc.svg" class="cls-1" d="M2031.58,6150.74a7.787,7.787,0,0,0-2.09-3.02,9.175,9.175,0,0,0-2.54-1.56,17.588,17.588,0,0,0-3.84-.99l-3.89-.57a7.384,7.384,0,0,1-3.84-1.59,3.829,3.829,0,0,1-.98-1.41,4.751,4.751,0,0,1-.31-1.76,5.014,5.014,0,0,1,1.6-3.81,6.53,6.53,0,0,1,4.64-1.51,13.814,13.814,0,0,1,4,.55,8.327,8.327,0,0,1,3.44,2.09l3.31-3.27a13.763,13.763,0,0,0-4.71-2.97,17.122,17.122,0,0,0-5.9-.92,14.854,14.854,0,0,0-4.8.72,9.948,9.948,0,0,0-3.58,2.07,9.248,9.248,0,0,0-2.25,3.19,10.14,10.14,0,0,0-.79,4.06,8.522,8.522,0,0,0,2.49,6.52,11.515,11.515,0,0,0,6.48,2.74l4.03,0.58a12.727,12.727,0,0,1,2.31.52,4.97,4.97,0,0,1,.93,8.33,8.6,8.6,0,0,1-5.2,1.37,15.025,15.025,0,0,1-4.76-.7,10.243,10.243,0,0,1-3.98-2.56l-3.46,3.4a13.892,13.892,0,0,0,5.33,3.51,20.574,20.574,0,0,0,6.77,1.01,17.149,17.149,0,0,0,4.94-.68,11.307,11.307,0,0,0,3.89-1.96,9.127,9.127,0,0,0,2.55-3.17,9.656,9.656,0,0,0,.91-4.23A10.69,10.69,0,0,0,2031.58,6150.74Zm34.39,13.73v-34.18h-5.23v24l-15.79-24h-4.75v34.18h5.23v-24.05l15.79,24.05h4.75Zm30.51-13.73a7.9,7.9,0,0,0-2.09-3.02,9.38,9.38,0,0,0-2.55-1.56,17.588,17.588,0,0,0-3.84-.99l-3.88-.57a7.311,7.311,0,0,1-3.84-1.59,3.858,3.858,0,0,1-.99-1.41,4.751,4.751,0,0,1-.31-1.76,5.022,5.022,0,0,1,1.61-3.81,6.487,6.487,0,0,1,4.63-1.51,13.884,13.884,0,0,1,4.01.55,8.358,8.358,0,0,1,3.43,2.09l3.31-3.27a13.82,13.82,0,0,0-4.7-2.97,17.181,17.181,0,0,0-5.91-.92,14.854,14.854,0,0,0-4.8.72,9.9,9.9,0,0,0-3.57,2.07,9.143,9.143,0,0,0-2.26,3.19,10.14,10.14,0,0,0-.79,4.06,8.492,8.492,0,0,0,2.5,6.52,11.454,11.454,0,0,0,6.48,2.74l4.03,0.58a12.787,12.787,0,0,1,2.3.52,4.965,4.965,0,0,1,.94,8.33,8.635,8.635,0,0,1-5.21,1.37,14.961,14.961,0,0,1-4.75-.7,10.2,10.2,0,0,1-3.99-2.56l-3.45,3.4a13.818,13.818,0,0,0,5.33,3.51,20.512,20.512,0,0,0,6.76,1.01,17.22,17.22,0,0,0,4.95-.68,11.4,11.4,0,0,0,3.89-1.96,9.214,9.214,0,0,0,2.54-3.17,9.518,9.518,0,0,0,.91-4.23A10.9,10.9,0,0,0,2096.48,6150.74Zm8.98-14.68a21.143,21.143,0,0,0,.5,3.32c0.14,0.5.37,1.51,1.02,1.51a3.264,3.264,0,0,0,.69-0.09c2.94-.78,7.08-1.42,10.16-1.88,0.46-.05,2.58-0.42,2.9-0.42a0.6,0.6,0,0,1,.69.55,2.525,2.525,0,0,1-.78,1.11,20.419,20.419,0,0,0-5.06,13.2c0,8.97,6.71,11.45,14.53,11.45a1.284,1.284,0,0,0,1.48-.78,13.291,13.291,0,0,0,.69-3.77c0-.74-0.37-0.78-1.06-0.78-0.51,0-1.52.04-2.3,0.04-4.69,0-8.1-1.28-8.1-6.62a17.28,17.28,0,0,1,2.21-8.1,13.981,13.981,0,0,1,7.82-6.85,22.9,22.9,0,0,1,7.64-.97c1.1-.04,2.07.05,2.07-0.96a20.307,20.307,0,0,0-.42-3.36c-0.09-.55-0.18-1.15-0.87-1.15a2.4,2.4,0,0,0-.6.05c-3.45.55-6.95,1.01-10.44,1.42-6.67.78-13.39,1.47-20.1,1.89C2106.1,6135.01,2105.46,6134.87,2105.46,6136.06Zm34.77,2.67c-0.55,0-2.34,1.2-2.34,1.75a1.108,1.108,0,0,0,.32.6,38.606,38.606,0,0,1,2.99,3.82,1.082,1.082,0,0,0,.69.59c0.55,0,2.35-1.28,2.35-1.93C2144.24,6143.01,2140.69,6138.73,2140.23,6138.73Zm-5.56,2.53c-0.51,0-2.35,1.15-2.35,1.7a1.231,1.231,0,0,0,.42.65c1.01,1.24,2.02,2.53,2.94,3.86a0.942,0.942,0,0,0,.64.55c0.51,0,2.35-1.24,2.35-1.93C2138.67,6145.54,2135.17,6141.26,2134.67,6141.26Zm23.87-6.25c-1.33,0-2.67,0-4-.05-0.64,0-1.29-.09-1.98-0.09-0.83,0-1.01.37-1.01,2.21,0,2.3.09,2.94,1.1,2.94,1.15,0,3.96-.14,5.94-0.14h15.87a1.358,1.358,0,0,1,1.38,1.38v13.02a1.383,1.383,0,0,1-1.38,1.38h-15.87c-2.21,0-4.88-.14-5.98-0.14s-1.01.6-1.01,2.44c0,2.02-.05,2.67,1.1,2.67,1.2,0,3.91-.09,5.93-0.09h14.95c1.38,0,1.98,0,2.21,1.05,0.19,0.88.23,0.97,2.35,0.97,2.48,0,2.76,0,2.76-1.43,0-1.38-.05-2.8-0.05-4.18v-15.5c0-1.38.05-2.76,0.05-4.14,0-2.17-1.2-2.35-3.04-2.35-1.19,0-2.34.05-3.54,0.05h-15.78Zm67.21,3.26a1.126,1.126,0,0,0-.78.51c-6.54,8.32-18.04,17.02-28.2,20.01-0.6.18-1.43,0.27-1.43,0.78a13.177,13.177,0,0,0,1.38,2.76c0.32,0.55,1.29,2.39,1.8,2.39a0.47,0.47,0,0,0,.46-0.27c0.36-.79.41-0.83,1.93-1.57a80.138,80.138,0,0,0,24.98-17.34c0.59-.6,2.44-2.39,2.44-3.17C2228.33,6141.68,2226.67,6138.27,2225.75,6138.27Zm-27.19-7.36c-1.06,0-2.9,2.95-2.9,3.64a1.162,1.162,0,0,0,.74.87,56.925,56.925,0,0,1,6.12,4.28,4.933,4.933,0,0,0,1.84,1.24c0.87,0,3.03-2.48,3.03-3.54,0-.69-2.2-2.21-2.8-2.62C2203.71,6134.13,2199.3,6130.91,2198.56,6130.91Zm54.56,4a0.767,0.767,0,0,1-.83-0.69,2.4,2.4,0,0,1,.37-0.96c0.32-.51.55-0.92,0.73-1.24,0.65-1.11.69-1.25,1.38-1.52a0.583,0.583,0,0,0,.46-0.51c0-.37-2.3-1.38-2.71-1.56a10.338,10.338,0,0,0-2.58-1.11c-0.5,0-.69.79-0.82,1.15-1.89,5.48-7.41,12.98-12.01,16.52a1.281,1.281,0,0,0-.69.87c0,0.78,2.99,2.72,3.82,2.72a2.463,2.463,0,0,0,1.47-.88,68.456,68.456,0,0,0,5.98-7.08,2.081,2.081,0,0,1,2.02-1.2h8.79c0.69,0,1.89-.04,1.89.92a14.522,14.522,0,0,1-1.2,3.04,5.217,5.217,0,0,0-.28.64c-1.24,2.44-1.65,3.31-2.53,3.31a1.927,1.927,0,0,1-.87-0.27c-0.92-.55-5.15-2.99-5.93-2.99-1.02,0-2.81,2.8-2.81,3.45,0,0.5.92,0.83,1.38,1.01,1.15,0.55,3.54,1.79,4.6,2.48a1.131,1.131,0,0,1,.55.97,1.8,1.8,0,0,1-.69,1.15,32.21,32.21,0,0,1-13.15,8.28c-1.2.37-1.98,0.51-1.98,1.06,0,0.64,2.11,3.59,3.31,3.59,0.97,0,4.55-1.8,5.57-2.35a36.646,36.646,0,0,0,10.02-7.77,2.517,2.517,0,0,1,1.57-1.11,1.609,1.609,0,0,1,1.01.46c0.64,0.55,1.24,1.01,1.89,1.57a1.019,1.019,0,0,0,.69.36c0.87,0,2.94-2.71,2.94-3.49,0-.6-2.02-1.98-2.58-2.39a1.527,1.527,0,0,1-.82-1.2,1.552,1.552,0,0,1,.32-0.92,82.973,82.973,0,0,0,4.37-8.56,10.614,10.614,0,0,1,1.15-2.25,1.259,1.259,0,0,0,.27-0.69c0-.74-1.61-3.13-2.39-3.13a1.873,1.873,0,0,0-.46.09,13.124,13.124,0,0,1-2.8.23h-8.42Zm42.92,0.46a0.748,0.748,0,0,1-.79-0.78,6.9,6.9,0,0,1,.83-1.65c0.78-1.43.92-1.66,1.57-1.89a0.669,0.669,0,0,0,.41-0.51c0-.5-2.35-1.38-2.76-1.61a15.424,15.424,0,0,0-2.44-1.01c-0.41,0-.55.65-0.73,1.11-2.12,5.79-7.46,12.65-12.29,16.46a0.732,0.732,0,0,0-.41.65c0,0.96,3.36,2.71,3.91,2.71,1.24,0,6.53-6.3,7.41-7.54,0.59-.83.87-1.29,1.93-1.29h8.74c0.64,0,1.38.05,1.38,0.64,0,1.15-2.76,5.62-3.54,6.77a40.879,40.879,0,0,1-17.76,14.72,1.119,1.119,0,0,0-.92.82c0,0.88,2.9,3.13,3.91,3.13,0.97,0,5.29-2.71,6.3-3.36,8.47-5.47,12.97-12.19,17.48-20.93a26.46,26.46,0,0,1,1.43-2.48,2.887,2.887,0,0,0,.55-1.15c0-.6-2.02-3.13-2.94-3.13-0.19,0-.37.05-0.51,0.05a10.932,10.932,0,0,1-2.58.27h-8.18Zm40.15,6.86a0.478,0.478,0,0,1-.41.18,0.39,0.39,0,0,1-.37-0.46v-6.9c0-1.15-.04-2.02-0.04-2.71a3.745,3.745,0,0,1,.5-2.44,1.369,1.369,0,0,0,.23-0.6c0-.64-1.88-0.83-3.95-1.1-0.33-.05-1.29-0.19-1.57-0.19a0.551,0.551,0,0,0-.6.69c0,0.19.05,0.6,0.05,0.83,0.05,1.15.14,2.39,0.14,3.59v26.22c0,2.07-.14,4.14-0.14,6.21,0,1.52.78,1.56,2.62,1.56,2.81,0,2.85-.27,2.85-2.39,0-1.84-.09-3.63-0.09-5.47v-12.56a0.618,0.618,0,0,1,.55-0.74,0.8,0.8,0,0,1,.46.19,66.473,66.473,0,0,1,6.67,5.38,1.678,1.678,0,0,0,1.02.6c0.92,0,3.08-2.39,3.08-3.18s-2.58-2.76-3.22-3.31c-0.92-.78-5.52-4.41-6.44-4.41A2.4,2.4,0,0,0,2336.19,6142.23Zm38.51-15.5c-0.46,0-.56.46-0.65,0.96a25.311,25.311,0,0,1-2.48,5.94c-0.42.55-1.66,0.59-2.85,0.59h-1.34c-1.33,0-2.53-.09-3.31-0.09-1.15,0-1.33.28-1.33,2.12,0,2.34.18,2.57,1.19,2.57,1.43,0,2.49-.13,3.22-0.13,0.65,0,1.01.13,1.01,0.55,0,0.87-6.67,10.12-7.72,11.27a1.9,1.9,0,0,0-.6,1.01c0,0.83,3.08,2.67,3.91,2.67a0.764,0.764,0,0,0,.64-0.46,29.784,29.784,0,0,1,3.87-5.38c1.79-1.84,6.02-4.05,8.6-4.05a1.907,1.907,0,0,1,2.02,1.56,6.476,6.476,0,0,1,.23,1.29,1.185,1.185,0,0,1-.83,1.06c-0.96.46-1.93,0.96-2.85,1.52-3.17,1.88-6.53,4.14-6.53,8.28,0,3.12,1.79,5.33,4.6,6.57a17.034,17.034,0,0,0,7.27,1.2,60.138,60.138,0,0,0,8.83-.6c1.01-.23,1.06-0.6,1.06-1.98,0-2.62-.32-3.12-0.92-3.12a5.217,5.217,0,0,0-.92.09,33.946,33.946,0,0,1-8.56,1.15c-2.21,0-6.67-.28-6.67-3.36,0-2.85,4.74-4.88,4.97-4.88a0.644,0.644,0,0,1,.6.79c0,0.96-.09,1.97-0.09,2.99,0,1.19.82,1.28,2.8,1.28,1.75,0,1.98-.18,1.98-1.84,0-1.42-.05-2.8-0.05-4.23v-0.6a1.4,1.4,0,0,1,1.2-1.51c1.79-.79,3.59-1.57,5.43-2.26,0.23-.09.46-0.14,0.64-0.23,0.88-.27,1.38-0.46,1.38-1.01,0-.78-1.1-4.32-1.98-4.32a3.769,3.769,0,0,0-1.19.46c-0.74.41-4.83,2.62-5.38,2.62a0.761,0.761,0,0,1-.69-0.78c-0.6-2.9-2.3-4.14-5.25-4.14a12.693,12.693,0,0,0-5.01,1.19,1.749,1.749,0,0,1-.83.28,0.362,0.362,0,0,1-.37-0.32,14.48,14.48,0,0,1,1.57-2.67,1.621,1.621,0,0,1,1.38-.74c2.89-.32,5.79-0.83,8.69-1.42,0.97-.19,2.44-0.37,2.44-1.15a14.511,14.511,0,0,0-.37-2.49c-0.14-.64-0.37-1.38-1.15-1.38a3.457,3.457,0,0,0-1.15.28,33.657,33.657,0,0,1-5.34,1.29,0.446,0.446,0,0,1-.5-0.46,3.028,3.028,0,0,1,.46-1.06c0.6-1.06.78-1.29,1.52-1.57a0.734,0.734,0,0,0,.55-0.55C2379.85,6128.84,2375.11,6126.73,2374.7,6126.73Zm51.42,4.23c-0.5-.51-1.84-2.07-2.43-2.07a1.114,1.114,0,0,0-.69.55,62.666,62.666,0,0,1-8.61,8.14,45.347,45.347,0,0,0-5.93,5.38,5.239,5.239,0,0,0-1.01,3.18c0,2.07.92,3.4,2.21,4.87,2.25,2.67,4.78,5.16,7.26,7.64,1.89,1.93,3.82,3.86,5.57,5.93a2.773,2.773,0,0,0,1.43,1.2c1.1,0,3.91-2.62,3.91-3.73,0-.92-3.18-3.49-3.96-4.18-2.85-2.53-5.7-5.11-8.33-7.91-0.78-.83-2.3-2.49-2.3-3.64,0-.87,1.02-1.79,1.89-2.62,2.39-2.3,5.01-4.42,7.59-6.53,1.15-.92,2.3-1.8,3.45-2.62a2.057,2.057,0,0,1,1.24-.56c0.32,0,.97.05,0.97-0.41C2428.38,6133.07,2426.54,6131.37,2426.12,6130.96Zm30.36,26.08c-0.73,0-2.85,2.71-2.85,3.4,0,0.97,1.52,2.12,2.26,2.63,2.57,1.7,6.8,2.07,9.84,2.07,1.15,0,6.35-.23,7.18-0.6,0.55-.32.5-1.38,0.5-2.3,0-1.84,0-2.9-.78-2.9a1.873,1.873,0,0,0-.46.09,20.758,20.758,0,0,1-6.53.92c-2.81,0-6.3-.41-8.33-2.67A1.389,1.389,0,0,0,2456.48,6157.04Zm3.45-10.53c0,0.78.23,1.01,1.15,1.01,0.6,0,1.15-.05,1.75-0.05a19.68,19.68,0,0,1,7.32,1.15,3.727,3.727,0,0,0,.96.23,0.788,0.788,0,0,0,.83-0.6,11.6,11.6,0,0,0,.88-3.22,0.871,0.871,0,0,0-.65-0.92,33.159,33.159,0,0,0-9.25-1.28C2460.76,6142.83,2459.93,6142.55,2459.93,6146.51Zm12.98-18.96c-0.55,0-2.26,1.34-2.26,1.89a1.027,1.027,0,0,0,.37.6,39.152,39.152,0,0,1,3.18,3.68,1.114,1.114,0,0,0,.69.55c0.55,0,2.25-1.38,2.25-2.07C2477.14,6131.65,2473.41,6127.55,2472.91,6127.55Zm-19-.64c-0.46,0-.46.46-0.51,1.15-0.04,1.33-1.15,7.45-1.7,8.37-0.41.69-1.1,0.74-4.05,0.74-1.98,0-3.91-.19-4.32-0.19a0.662,0.662,0,0,0-.69.83,19.2,19.2,0,0,0,.37,3.36c0.27,0.87,1.01.83,1.93,0.83,1.42,0,3.45-.23,4.09-0.23a0.72,0.72,0,0,1,.83.69,6.993,6.993,0,0,1-.37,1.19c-1.79,4.88-5.24,12.88-8.14,17.02a3.406,3.406,0,0,0-.78,1.52c0,1.01,3.17,2.49,3.91,2.49,0.69,0,1.06-.65,1.65-1.75a142.745,142.745,0,0,0,8.56-20.29c0.41-1.29.55-1.52,1.89-1.79a68.361,68.361,0,0,0,7.54-1.8c0.78-.23.87-0.87,0.87-1.65,0-.69,0-3.5-0.92-3.5a2.41,2.41,0,0,0-.96.23,32.223,32.223,0,0,1-5.34,1.7,0.673,0.673,0,0,1-.69-0.69c0-.23.97-3.58,1.11-4.09,0.32-1.01.36-1.2,1.05-1.61a0.691,0.691,0,0,0,.42-0.46c0-.51-1.29-0.83-1.7-0.97C2457.36,6127.83,2454.32,6126.91,2453.91,6126.91Zm14.21,3.59c-0.41,0-2.25,1.24-2.25,1.84a1.188,1.188,0,0,0,.41.64,41.557,41.557,0,0,1,3.18,3.68,0.964,0.964,0,0,0,.64.51c0.55,0,2.26-1.34,2.26-2.03C2472.36,6134.59,2468.63,6130.5,2468.12,6130.5Zm28.66-2.44c-0.64,0-4.46.97-4.46,1.89a1.494,1.494,0,0,0,.32.73c0.6,0.78,3.45,4.92,3.45,5.61a1.087,1.087,0,0,1-1.1.92,51.521,51.521,0,0,1-9.2,1.02c-0.6.04-1.11,0.09-1.11,0.82a8.823,8.823,0,0,0,.55,2.44c0.42,1.29.65,1.66,1.66,1.66a64.4,64.4,0,0,0,10.9-1.75,2.607,2.607,0,0,1,.6-0.14c1.01,0,1.33.88,1.75,1.61,0.92,1.66,1.65,2.9,2.67,4.46a1.878,1.878,0,0,1,.27.69,0.46,0.46,0,0,1-.5.42,1.525,1.525,0,0,1-.51-0.14,14.654,14.654,0,0,0-5.75-1.33c-5.15,0-9.71,3.31-9.71,8.78,0,5.43,4.33,8.19,9.11,9.39a35.679,35.679,0,0,0,7.91,1.05c0.97,0,1.34-.18,1.57-0.78a8.557,8.557,0,0,0,.46-2.8c0-.83-0.14-1.48-1.06-1.48-0.6,0-1.52.1-2.58,0.1-3.54,0-10.58-.97-10.58-5.71,0-2.67,2.53-4.09,4.93-4.09,3.95,0,8.64,2.3,10.9,3.86a4.416,4.416,0,0,0,1.75.97c0.96,0,3.26-2.03,3.26-3.04a2.2,2.2,0,0,0-.73-1.29c-2.67-2.89-4.7-6.57-6.67-10.12a3.464,3.464,0,0,1-.79-1.74c0-.83.92-1.02,1.52-1.25a36.117,36.117,0,0,0,4.23-1.97c0.6-.33,1.39-0.69,1.39-1.2,0-.83-2.03-3.59-2.95-3.59a2.7,2.7,0,0,0-1.24.55c-0.88.56-4.14,2.49-5.02,2.49a1.352,1.352,0,0,1-1.24-.88c-0.96-1.79-1.84-3.58-2.85-5.33A1.191,1.191,0,0,0,2496.78,6128.06Zm49.31,9.84a0.745,0.745,0,0,0,.42.69c4.37,3.36,6.25,7.73,6.81,13.11,0.09,1.11.04,1.75,1.51,1.75a9.724,9.724,0,0,0,2.58-.41,1.286,1.286,0,0,0,1.24-1.34,24.975,24.975,0,0,0-2.71-9.56c-2.21-4.24-6.07-7.13-7.09-7.13C2547.93,6135.01,2546.09,6137.03,2546.09,6137.9Zm-20.74-2.99a0.577,0.577,0,0,0-.65.51c-0.09.41-.23,6.26-0.23,6.99,0,4.88.37,10.67,2.67,15,1.52,2.8,4.19,5.89,7.59,5.89,2.16,0,3.59-1.38,4.92-2.9,0.65-.74,2.72-3.13,2.72-4,0-.83-2.35-2.72-3.32-2.72a1.84,1.84,0,0,0-1.24,1.15c-0.55,1.01-1.88,3.04-3.17,3.04-1.61,0-3.13-2.72-3.68-4a26.244,26.244,0,0,1-1.47-9.62,34.258,34.258,0,0,1,.36-4.87,3.363,3.363,0,0,1,.83-2.21,0.79,0.79,0,0,0,.46-0.6c0-.46-0.64-0.55-1.01-0.64C2529.35,6135.79,2525.94,6134.91,2525.35,6134.91Zm43.79,20.89a4.038,4.038,0,0,1,4.09,4.09A4.1,4.1,0,1,1,2569.14,6155.8Zm0-2.3a6.4,6.4,0,1,0,6.39,6.39A6.385,6.385,0,0,0,2569.14,6153.5Z" transform="translate(-2007.91 -6126.72)"/>
</svg>
