<svg xmlns="http://www.w3.org/2000/svg" width="741.79" height="54.12" viewBox="0 0 741.79 54.12">
  <defs>
    <style>
      .cls-1 {
        fill-rule: evenodd;
      }
    </style>
  </defs>
  <path id="これまでの価値観にとらわれず" class="cls-1" d="M2503.13,1424.37c0,1.56,1.4,4.35,2.27,5.62,3.77,5.28,10.26,6.04,16.3,6.04,3.48,0,14.32-.7,17.4-1.63a1.88,1.88,0,0,0,1.39-2.14c0-3.77-.41-4.76-1.28-4.76a5.562,5.562,0,0,0-.87.17,71.756,71.756,0,0,1-17.28,2.03c-5.45,0-10.38-.87-11.6-7.01a1.063,1.063,0,0,0-1.05-1.11C2508.35,1421.58,2503.13,1422.92,2503.13,1424.37Zm5.8-20.01a1.2,1.2,0,0,0,.82,1.21c2.84,1.16,10.03,1.45,13.22,1.45a79.812,79.812,0,0,0,10.5-.69c1.34-.23,1.63-0.35,1.63-1.74,0-2.38-.06-4.99-1.51-4.99a2.951,2.951,0,0,0-.76.12,49.6,49.6,0,0,1-10.5,1.16,37.373,37.373,0,0,1-9.86-1.22,8.235,8.235,0,0,0-1.68-.35c-1.1,0-1.22,1.04-1.39,2.03A19.356,19.356,0,0,0,2508.93,1404.36Zm56.27-11.95c-0.64,0-.93.17-0.93,0.81,0,0.4.06,1.1,0.06,1.8,0,2.55-.24,6.03-0.24,7.6a3.685,3.685,0,0,1-.29,1.74c-0.69,1.39-8.06,2.66-9.8,2.9-0.7.11-1.91,0.11-1.91,1.04a17.478,17.478,0,0,0,1.21,3.94,2.039,2.039,0,0,0,1.69,1.63c1.1,0,5.8-1.86,7.01-2.38a3.44,3.44,0,0,1,1.05-.29,0.764,0.764,0,0,1,.75.87c0,0.46-.11.99-0.11,1.51a5.521,5.521,0,0,1-.7,2.73c-2.67,4.81-5.39,9.57-8.53,14.15a6.074,6.074,0,0,0-1.16,2.09c0,0.98,3.37,3.83,4.35,3.83a1.019,1.019,0,0,0,.76-0.7c0.58-1.1,2.38-4.24,3.01-5.28,0.58-.87.99-1.74,1.4-1.74a0.655,0.655,0,0,1,.52.75c0,2.61-.35,9.05-0.35,9.58,0,1.16,1.05,1.16,2.44,1.16,4.29,0,4.23-.58,4.23-0.99,0-.64-0.17-3.77-0.29-6.15-0.06-.99-0.17-2.73-0.17-3.07,0-1.34-.23-8.41,0-9.17,0.35-.93,2.49-2.96,3.25-3.71a58.515,58.515,0,0,1,6.32-5.63c1.22-.93,2.9-2.32,4.52-2.32,1.74,0,1.74,2.03,1.74,3.31,0,5.22-.75,10.5-0.75,15.72,0,3.65.46,9.28,5.34,9.28,2.9,0,5.85-1.68,8.17-3.37,0.64-.46,2.79-1.97,2.79-2.78,0-.93-1.68-5.28-2.67-5.28a1.669,1.669,0,0,0-1.1.64c-1.05,1.16-3.54,3.65-5.11,3.65-1.33,0-1.27-2.03-1.27-3.42,0-2.43.17-5.04,0.29-7.54,0.17-2.96.29-5.97,0.29-8.99,0-1.74-.06-4-1.05-5.51a6.238,6.238,0,0,0-4.98-2.55c-3.19,0-6.1,2.09-8.42,4.12-1.39,1.16-3.71,3.24-4.93,4.52a0.763,0.763,0,0,1-.46.29,0.487,0.487,0,0,1-.46-0.58,4.392,4.392,0,0,1,.11-0.93c0.18-.4,1.28-2.43,1.57-2.84a1.439,1.439,0,0,0,.35-0.64,4.168,4.168,0,0,0-1.98-2.67,0.991,0.991,0,0,1-.92-0.98c0-.81.4-3.66,0.52-4.64,0.35-2.38.29-2.56,1.04-3.19a1.351,1.351,0,0,0,.47-0.87,0.8,0.8,0,0,0-.64-0.64C2570.65,1393.04,2565.83,1392.41,2565.2,1392.41Zm58.46,37.41c1.33,0,2.73,0,2.73,1.1,0,3.13-2.27,3.89-4.93,3.89-1.51,0-4.12-.35-4.12-2.32C2617.34,1429.99,2621.86,1429.82,2623.66,1429.82Zm1.97-36.37c-0.52,0-.87.12-0.87,0.7a4.834,4.834,0,0,0,.12.92c0.17,0.99.52,4.88,0.52,5.81,0,1.56-1.45,1.45-6.55,1.45-2.85,0-7.72-.47-8.94-0.47-0.98,0-1.04.81-1.04,1.63,0,1.04.06,3.36,0.64,4.23,0.34,0.46,1.79.52,3.36,0.52h1.74c3.13,0,7.77-.29,9.8-0.29,1.51,0,1.57,2.38,1.57,4.06,0,1.28-.81,1.45-2.96,1.45h-2.61c-2.2,0-5.45-.29-6.15-0.29-0.81,0-.98.52-0.98,1.22a12.072,12.072,0,0,0,.75,4.06c0.46,1.05,1.57.99,3.95,0.99,2.49,0,5.74-.23,6.96-0.23,1.45,0,1.33,2.14,1.33,4,0,0.58,0,1.62-.99,1.62-0.34,0-1.68-.11-2.37-0.11-4.82,0-11.14,1.85-11.14,7.71,0,5.4,5.05,7.54,9.69,7.54,4.69,0,9.28-1.45,10.49-6.44a1.3,1.3,0,0,1,1.16-1.27c1.16,0,4.99,2.72,6.04,3.54a3.191,3.191,0,0,0,1.8.92c1.39,0,3.3-2.96,3.3-4.23,0-2.09-7.65-5.34-9.57-5.98-2.49-.81-2.73-0.34-2.73-6.38,0-1.62,1.16-1.62,3.37-1.85a51.612,51.612,0,0,0,5.97-.99c1.05-.23,1.11-0.81,1.11-2.73,0-2.2-.18-3.48-0.99-3.48a3.625,3.625,0,0,0-1.1.24,49.9,49.9,0,0,1-7.43,1.39,1,1,0,0,1-.93-0.93,19.4,19.4,0,0,1-.29-3.07c0-1.63,1.4-1.57,2.61-1.74,3.08-.35,6.68-0.87,9.69-1.51,1.1-.23,1.63-0.35,1.63-1.51,0-.99-0.18-4.76-1.45-4.76a14.267,14.267,0,0,0-2.21.47,58.6,58.6,0,0,1-6.32,1.33c-0.41.06-2.67,0.41-2.9,0.41-1.05,0-1.22-.87-1.22-1.68,0.12-4.7,1.1-3.72,1.1-4.82,0-.64-0.81-0.75-2.32-0.93C2629.23,1393.86,2626.5,1393.45,2625.63,1393.45Zm31.9,9.46a26.139,26.139,0,0,0,.64,4.17c0.17,0.64.46,1.92,1.27,1.92a4.337,4.337,0,0,0,.87-0.12c3.72-.99,8.94-1.8,12.82-2.38,0.58-.06,3.25-0.52,3.66-0.52a0.751,0.751,0,0,1,.87.7,3.16,3.16,0,0,1-.99,1.39,25.784,25.784,0,0,0-6.38,16.65c0,11.31,8.47,14.44,18.33,14.44a1.616,1.616,0,0,0,1.86-.99,16.484,16.484,0,0,0,.87-4.75c0-.93-0.47-0.99-1.34-0.99-0.63,0-1.91.06-2.9,0.06-5.91,0-10.21-1.63-10.21-8.35a21.733,21.733,0,0,1,2.79-10.21,17.628,17.628,0,0,1,9.86-8.65c3.31-1.16,6.26-1.16,9.63-1.21,1.39-.06,2.61.05,2.61-1.22a26.687,26.687,0,0,0-.52-4.24c-0.12-.69-0.24-1.45-1.11-1.45a3.166,3.166,0,0,0-.75.06c-4.35.7-8.76,1.28-13.17,1.8-8.41.99-16.88,1.86-25.35,2.38C2658.34,1401.57,2657.53,1401.4,2657.53,1402.91Zm43.85,3.36c-0.69,0-2.96,1.51-2.96,2.2a1.428,1.428,0,0,0,.41.76,48.859,48.859,0,0,1,3.77,4.81,1.382,1.382,0,0,0,.87.76c0.7,0,2.96-1.63,2.96-2.44C2706.43,1411.66,2701.96,1406.27,2701.38,1406.27Zm-7.02,3.19c-0.63,0-2.95,1.45-2.95,2.15a1.5,1.5,0,0,0,.52.81c1.27,1.56,2.55,3.19,3.71,4.87a1.216,1.216,0,0,0,.81.7c0.64,0,2.96-1.57,2.96-2.44C2699.41,1414.85,2695,1409.46,2694.36,1409.46Zm34.98-5.16a0.911,0.911,0,0,1,.92,1.04,59.156,59.156,0,0,1-1.85,11.31c-1.63,5.92-4.87,12.53-7.78,12.53-2.95,0-3.71-5.39-3.71-7.54a17.938,17.938,0,0,1,10.44-16.7A6.359,6.359,0,0,1,2729.34,1404.3Zm5.56-6.79c-13.68,0-24.07,10.79-24.07,24.36a18.141,18.141,0,0,0,1.8,8.24c1.57,2.96,4.35,5.51,7.89,5.51,3.19,0,5.74-2.15,7.66-4.47,5.56-6.67,7.59-16.99,8.23-25.46,0.06-.99.06-2.26,1.39-2.26a10.272,10.272,0,0,1,2.21.52c6.03,2.09,9.28,7.66,9.28,13.86,0,8.3-5.97,13.29-13.57,15.08-0.58.12-1.45,0.24-1.45,0.82,0,1.27,2.37,4.87,3.88,4.87,1.39,0,4.99-1.62,6.33-2.32a20.851,20.851,0,0,0,11.31-18.74,19.655,19.655,0,0,0-5.86-14.27C2745.81,1399.19,2740.59,1397.51,2734.9,1397.51Zm69.2,33.88a1.667,1.667,0,0,1-1.62,1.62h-0.82a1.538,1.538,0,0,1-1.56-1.62V1414.8a1.541,1.541,0,0,1,1.56-1.63h0.82a1.668,1.668,0,0,1,1.62,1.63v16.59Zm-20.19,1.62a1.667,1.667,0,0,1-1.62-1.62V1414.8a1.668,1.668,0,0,1,1.62-1.63h0.7a1.655,1.655,0,0,1,1.62,1.63v16.59a1.653,1.653,0,0,1-1.62,1.62h-0.7Zm9.4-19.84a1.63,1.63,0,0,1,1.63,1.63v16.59a1.628,1.628,0,0,1-1.63,1.62h-0.69a1.555,1.555,0,0,1-1.63-1.62V1414.8a1.558,1.558,0,0,1,1.63-1.63h0.69Zm1.63-7.02a1.593,1.593,0,0,1-1.63,1.63h-0.69a1.527,1.527,0,0,1-1.63-1.63v-5.45a1.55,1.55,0,0,1,1.63-1.62h0.69a1.622,1.622,0,0,1,1.63,1.62v5.45Zm-23.79.06a75.642,75.642,0,0,0,4.01-10.61,3.114,3.114,0,0,1,.52-1.34,0.275,0.275,0,0,1,.23-0.11c0.12,0,.35.11,0.35,0.58a11.169,11.169,0,0,0-.06,1.45c0,2.26-.12,3.07,1.39,3.07,2.15,0,4.24-.23,6.38-0.17a1.4,1.4,0,0,1,1.63,1.62v5.45a1.364,1.364,0,0,1-1.57,1.63c-1.39.06-2.78-.06-4.18-0.06-1.97,0-3.13.46-3.13,2.61,0,1.45.12,2.96,0.12,4.41v20.59c0,1.92-.12,3.83-0.12,5.69,0,1.33.76,1.33,2.84,1.33,2.21,0,2.85,0,2.85-1.39v-0.99a1.335,1.335,0,0,1,1.56-1.56h18.45a1.335,1.335,0,0,1,1.56,1.56v1.05c0,1.39.64,1.39,2.85,1.39,2.26,0,2.9,0,2.9-1.39,0-1.86-.12-3.72-0.12-5.57v-20.71c0-1.45.06-2.96,0.06-4.41,0-2.2-1.16-2.61-3.13-2.61-1.4,0-2.79.12-4.18,0.06-1.1,0-1.51-.52-1.51-1.63v-5.45a1.361,1.361,0,0,1,1.57-1.62h0.75c2.32,0,4.58.17,6.9,0.17,1.46,0,1.4-.69,1.4-2.9s0.06-2.84-1.4-2.84c-2.32,0-4.58.11-6.9,0.11h-18.68c-2.32,0-4.64-.11-6.96-0.11a0.651,0.651,0,0,1-.4-0.47,1.189,1.189,0,0,0-.99-0.87,40.784,40.784,0,0,0-5.1-1.45,1.1,1.1,0,0,0-.99,1.16,57.231,57.231,0,0,1-9.86,20.89,2.933,2.933,0,0,0-.99,1.68c0,0.93,2.09,4.7,3.25,4.7,0.87,0,1.51-.99,2.61-2.44a0.447,0.447,0,0,1,.41-0.23,0.487,0.487,0,0,1,.46.58v16.3c0,2.67-.11,5.28-0.11,7.95,0,1.68.75,1.68,3.01,1.68,2.44,0,3.02-.06,3.02-1.8,0-2.61-.12-5.22-0.12-7.83v-21.7c0-1.62.06-2.66,0.64-3.07a1.187,1.187,0,0,0,.7-0.81c0-.7-0.93-0.7-1.4-0.76a0.563,0.563,0,0,1-.58-0.52A0.524,0.524,0,0,1,2771.15,1406.21Zm76.04,19.32a1.342,1.342,0,0,1,1.4-1.39h7.71a1.339,1.339,0,0,1,1.39,1.39v0.46a1.339,1.339,0,0,1-1.39,1.39h-7.71a1.342,1.342,0,0,1-1.4-1.39v-0.46Zm0-7.08a1.342,1.342,0,0,1,1.4-1.39h7.71a1.339,1.339,0,0,1,1.39,1.39v0.41a1.292,1.292,0,0,1-1.39,1.33h-7.71a1.3,1.3,0,0,1-1.4-1.33v-0.41Zm10.5-6.67a1.339,1.339,0,0,1-1.39,1.39h-7.71a1.342,1.342,0,0,1-1.4-1.39v-0.23a1.342,1.342,0,0,1,1.4-1.39h7.71a1.339,1.339,0,0,1,1.39,1.39v0.23Zm-11.31-10.27a1.361,1.361,0,0,1,1.62,1.57v1.04a1.358,1.358,0,0,1-1.56,1.57c-0.64,0-1.34-.06-1.97-0.06-1.92,0-2.5.76-2.5,2.61,0,1.34.06,2.67,0.06,3.95v13.22c0,1.34-.06,2.67-0.06,4,0,2.03.76,2.61,2.61,2.61,1.16,0,2.26-.11,3.42-0.11h8.94c1.16,0,2.38.11,3.54,0.11,2.08,0,2.49-.87,2.49-2.78,0-1.28-.06-2.55-0.06-3.83v-13.22c0-1.28.06-2.61,0.06-3.95,0-1.91-.58-2.61-2.55-2.61-1.16,0-2.32.06-3.48,0.06h-1.68a1.365,1.365,0,0,1-1.63-1.57v-1.04a1.368,1.368,0,0,1,1.63-1.57h4.52c2.09,0,4.18.12,6.26,0.12,1.34,0,1.34-.64,1.34-2.49s0-2.44-1.34-2.44c-2.08,0-4.17.12-6.26,0.12h-4.52c-1.16,0-1.57-.47-1.63-1.63,0.06-.93,0-1.57.64-2.09a1.18,1.18,0,0,0,.75-0.87c0-.69-0.81-0.69-1.45-0.75-1.04-.12-3.88-0.35-4.75-0.35-0.58,0-1.05.12-1.05,0.81v0.52a21.86,21.86,0,0,1,.23,2.85,1.382,1.382,0,0,1-1.62,1.51H2840c-2.09,0-4.18-.12-6.26-0.12-1.4,0-1.34.75-1.34,2.44,0,1.79-.06,2.49,1.34,2.49,2.08,0,4.17-.12,6.26-0.12h6.38Zm-24.13,32.95c0,2.38-.12,4.7-0.12,7.02,0,1.68.53,1.8,2.96,1.8s2.96-.12,2.96-1.8c0-2.32-.12-4.64-0.12-7.02v-22.51c0-1.62.06-2.55,0.64-3.01a1.082,1.082,0,0,0,.7-0.81c0-.64-0.93-0.7-1.39-0.7a0.525,0.525,0,0,1-.53-0.52,0.722,0.722,0,0,1,.06-0.35,73.657,73.657,0,0,0,4.41-10.91c0.29-.92.35-1.33,1.1-1.62a1.039,1.039,0,0,0,.87-0.87c0-.64-0.92-0.81-1.39-0.99a30.8,30.8,0,0,0-4.81-1.21,1.057,1.057,0,0,0-.87,1.04,56.159,56.159,0,0,1-10.5,21.23,3.178,3.178,0,0,0-.93,1.74c0,1.28,2.15,4.29,3.48,4.29,0.93,0,2.09-1.85,2.61-2.61a0.611,0.611,0,0,1,.41-0.23,0.523,0.523,0,0,1,.46.58v17.46Zm15.55,6.67a0.937,0.937,0,0,1,1.1-1.04h21.63c2.21,0,4.41.11,6.62,0.11,1.22,0,1.22-.58,1.22-2.55,0-1.91,0-2.49-1.22-2.49-2.21,0-4.41.11-6.62,0.11h-21.28a1.358,1.358,0,0,1-1.57-1.62V1413.4c0-1.56.06-2.43,0.64-2.84a1.076,1.076,0,0,0,.64-0.81c0-.64-0.87-0.7-1.4-0.75-0.92-.06-3.71-0.24-4.58-0.24a0.776,0.776,0,0,0-.98.76c0,0.17.05,0.35,0.05,0.52,0.12,1.22.18,2.55,0.18,3.89v20.59c0,2.2-.12,4.41-0.12,6.61,0,1.74.64,1.74,2.84,1.74C2837.27,1442.87,2837.74,1442.87,2837.8,1441.13Zm46.63-27.49a0.89,0.89,0,0,1-.99-0.87,1.692,1.692,0,0,1,.12-0.53c0.4-.75.75-1.56,1.16-2.37a1.693,1.693,0,0,1,1.85-1.16h0.64a0.971,0.971,0,0,1,1.1.92,1.34,1.34,0,0,1-.11.47c-0.29.75-.64,1.51-0.99,2.2a2.029,2.029,0,0,1-2.2,1.34h-0.58Zm0.4,18.38a1.217,1.217,0,0,1,1.4,1.4v0.75a1.2,1.2,0,0,1-1.4,1.34h-1.33a1.17,1.17,0,0,1-1.39-1.34v-0.75a1.189,1.189,0,0,1,1.39-1.4h1.33Zm0-7.13a1.347,1.347,0,0,1,1.4,1.39v0.52a1.322,1.322,0,0,1-1.4,1.4h-1.33a1.315,1.315,0,0,1-1.39-1.4v-0.52a1.339,1.339,0,0,1,1.39-1.39h1.33Zm0-7.02a1.347,1.347,0,0,1,1.4,1.39v0.41a1.347,1.347,0,0,1-1.4,1.39h-1.33a1.339,1.339,0,0,1-1.39-1.39v-0.41a1.339,1.339,0,0,1,1.39-1.39h1.33Zm6.5,1.39a1.134,1.134,0,0,1,1.22-1.39c1.56-.06,3.19.12,4.75,0.12,1.11,0,1.11-.52,1.11-2.21,0-1.8,0-2.26-1.11-2.26-1.33,0-2.72.06-4.06,0.12a0.879,0.879,0,0,1-.92-0.93,1.086,1.086,0,0,1,.11-0.47,5.213,5.213,0,0,1,.47-0.98,0.769,0.769,0,0,1,.75-0.47,0.811,0.811,0,0,0,.87-0.69c0-.52-1.28-0.81-1.97-0.99a0.19,0.19,0,0,1-.18-0.23c0-.06,0-0.17.24-0.17,1.62,0,3.3.11,4.98,0.11,1.45,0,1.4-.69,1.4-2.49,0-1.74.05-2.44-1.4-2.44-1.97,0-3.94.12-5.91,0.12h-3.08a1.015,1.015,0,0,1-1.21-.99,1.271,1.271,0,0,1,.05-0.46c0.12-.35.18-0.64,0.29-0.99a1.814,1.814,0,0,1,2.03-1.39c2.09-.06,4.18.12,6.27,0.12,1.22,0,1.22-.53,1.22-2.44,0-1.86,0-2.38-1.28-2.38-2.09,0-4.18.12-6.26,0.12h-5.86a0.924,0.924,0,0,1-.93-0.76,0.9,0.9,0,0,1,.11-0.4c0.29-.58.41-0.99,0.87-1.05,0.35-.11,1.11-0.23,1.11-0.69,0-.58-1.05-0.82-2.56-1.28a18.625,18.625,0,0,0-2.78-.75c-0.52,0-.64.29-0.99,1.16a34.2,34.2,0,0,1-5.27,8.23,2.265,2.265,0,0,0-.58.93c0,0.87,2.84,2.55,3.71,2.55,0.75,0,1.97-1.79,2.38-2.37a2.212,2.212,0,0,1,2.08-.99h0.24a1.084,1.084,0,0,1,1.21,1.04,1.155,1.155,0,0,1-.05.41l-0.35.99a1.8,1.8,0,0,1-2.09,1.39c-1.91.06-3.83-.12-5.74-0.12-1.45,0-1.39.7-1.39,2.5,0,1.74-.06,2.43,1.39,2.43,1.27,0,2.49-.11,3.77-0.11a0.838,0.838,0,0,1,.98.81,0.776,0.776,0,0,1-.17.52,45.488,45.488,0,0,1-6.44,9.51,1.409,1.409,0,0,0-.52.93c0,0.87,2.55,3.25,3.48,3.25a1.066,1.066,0,0,0,.58-0.23,0.827,0.827,0,0,1,.41-0.12,0.465,0.465,0,0,1,.52.52v10.97c0,2.09-.18,4.23-0.18,6.32,0,1.8.64,1.8,2.79,1.8,2.32,0,2.84-.06,2.78-1.86a1.193,1.193,0,0,1,1.39-1.27h6.44c1.4,0,2.79,0,4.18.05a1.667,1.667,0,0,1,1.39.99c0.58,0.75,2.15,2.26,3.13,2.26,1.22,0,3.43-2.03,4.3-2.9,3.42-3.42,4.41-6.84,5.28-11.48a0.8,0.8,0,0,1,.69-0.7,0.926,0.926,0,0,0,.81-0.7c0-.34-0.23-0.52-1.68-1.1a41.318,41.318,0,0,0-4.06-1.33c-0.35,0-.41.23-0.46,0.52a34.38,34.38,0,0,1-.82,4.87,14.456,14.456,0,0,1-4.75,7.2,0.55,0.55,0,0,1-.41.17,0.487,0.487,0,0,1-.46-0.58c-0.06-1.1,0-1.68-1.1-1.68-1.16,0-2.27.06-3.43,0.06a1.154,1.154,0,0,1-1.33-1.34v-0.75a1.156,1.156,0,0,1,1.28-1.34c0.87,0,1.79.06,2.72,0.06,0.99,0,1.1-.41,1.1-2.03,0-1.57-.05-2.03-1.1-2.03-0.69,0-1.97.06-2.67,0.12a1.2,1.2,0,0,1-1.33-1.4v-0.52a1.2,1.2,0,0,1,1.28-1.39c0.87,0.06,1.74.12,2.66,0.12,1.05,0,1.16-.47,1.16-2.03,0-1.63-.11-2.03-1.16-2.03-0.87,0-1.74.05-2.61,0.05a1.165,1.165,0,0,1-1.33-1.33v-0.41Zm16.76,0.06a1.547,1.547,0,0,1-1.62-1.62v-1.05a1.626,1.626,0,0,1,1.62-1.62h6.21a1.653,1.653,0,0,1,1.62,1.62v1.05a1.646,1.646,0,0,1-1.62,1.62h-6.21Zm0-8.87a1.555,1.555,0,0,1-1.62-1.63v-0.87a1.506,1.506,0,0,1,1.62-1.56h6.21a1.527,1.527,0,0,1,1.62,1.56v0.87a1.655,1.655,0,0,1-1.62,1.63h-6.21Zm0-8.82a1.522,1.522,0,0,1-1.62-1.62v-0.64a1.628,1.628,0,0,1,1.62-1.63h6.21a1.655,1.655,0,0,1,1.62,1.63v0.64a1.613,1.613,0,0,1-1.62,1.62h-6.21Zm9.86,22.8a10.039,10.039,0,0,0,1.22.05c1.8,0,2.5-.69,2.5-2.61,0-1.39-.12-2.78-0.12-4.17v-18.39c0-1.33.12-2.73,0.12-4.12,0-1.86-.64-2.61-2.5-2.61-1.16,0-2.26.06-3.36,0.06h-9.22c-1.16,0-2.33-.06-3.43-0.06-1.97,0-2.43.81-2.43,2.67,0,1.33.05,2.73,0.05,4.06v18.39c0,1.39-.05,2.72-0.05,4.12,0,1.85.52,2.66,2.43,2.66,1.16,0,2.27-.11,3.43-0.11h2.78a1.394,1.394,0,0,1,1.62,1.62v11.95c0,3.6,2.03,4.18,5.17,4.18h2.61c2.2,0,4.17-.35,4.99-2.55a29.138,29.138,0,0,0,1.45-7.26,1.268,1.268,0,0,0-.87-1.33,6.918,6.918,0,0,0-2.67-.58c-0.93,0-.93.46-1.05,1.51-0.4,4.81-1.1,4.52-1.97,4.52h-0.93c-0.98,0-1.33-.05-1.33-1.27v-9.17A1.352,1.352,0,0,1,2917.95,1424.43Zm33.99,0.98c-1.1,0-3.13,4.12-3.13,4.93,0,0.93,3.88,5.8,13.28,5.8,2.32,0,12.12-.87,13.75-1.74,0.75-.4.69-1.45,0.69-2.14,0-2.96-.11-4.35-1.04-4.35a4,4,0,0,0-1.22.23,47.428,47.428,0,0,1-12.76,1.85c-3.89,0-6.32-.98-8.82-4.06A1.007,1.007,0,0,0,2951.94,1425.41Zm1.33-25.11c-0.92,0-1.21.87-1.21,3.65,0,0.64-.06,1.86.58,2.26,1.21,0.81,8.35,1.16,10.15,1.16a68.19,68.19,0,0,0,9.74-.81c1.1-.23,1.1-0.7,1.1-1.91a27.631,27.631,0,0,0-.23-3.14,1.3,1.3,0,0,0-1.16-1.39,5.361,5.361,0,0,0-1.04.18,38.254,38.254,0,0,1-8.82,1.16,37.362,37.362,0,0,1-7.6-.87A7.28,7.28,0,0,0,2953.27,1400.3Zm-13.92-4.53c-0.64,0-.75.76-0.87,1.28a26.329,26.329,0,0,1-.75,2.9,69.285,69.285,0,0,0-2.96,19.2c0,6.09.81,12.29,3.54,17.81,0.75,1.56,1.45,2.84,2.43,2.84,1.22,0,4.53-1.39,4.53-2.84a4.885,4.885,0,0,0-.12-0.87c-0.05-.53-0.23-1.86-0.23-2.44,0-2.61,2.32-7.89,2.32-8.41,0-.64-1.51-1.86-2.09-1.86-0.52,0-.87.64-1.21,1.39-0.24.58-1.05,2.27-1.57,2.27-1.34,0-1.57-7.02-1.57-8.12a46.013,46.013,0,0,1,3.25-16.48c0.58-1.45.81-1.97,1.8-2.49,0.58-.35.81-0.41,0.81-0.76a1.36,1.36,0,0,0-1.16-.98C2944.69,1397.86,2939.82,1395.77,2939.35,1395.77Zm56.79-.06a2.977,2.977,0,0,0,.17.7,38.136,38.136,0,0,1,1.1,3.83c0.58,2.38,2.21,8.52,2.9,10.61a1.943,1.943,0,0,1,.23,1.05,1.781,1.781,0,0,1-.98,1.5c-4.82,3.14-10.04,7.26-10.04,13.58a10.208,10.208,0,0,0,5.34,8.93c3.83,2.26,7.6,2.5,11.89,2.5,2.78,0,13.75-.35,15.95-0.93,1.16-.29,1.22-0.93,1.22-2.44v-0.69c0-1.22-.06-3.6-0.87-3.6a1.543,1.543,0,0,0-.52.06,87.591,87.591,0,0,1-15.14,1.5,23.231,23.231,0,0,1-7.72-1.04c-1.79-.64-3.82-2.09-3.82-4.18,0-2.2,1.33-3.77,2.84-5.22,2.43-2.32,7.36-5.16,10.44-6.84a105.523,105.523,0,0,1,14.33-6.67,1.259,1.259,0,0,0,1.1-.93c0-.81-1.22-2.78-1.68-3.54-0.35-.58-1.34-2.32-2.09-2.32a3.736,3.736,0,0,0-1.51.58c-1.51.99-10.79,6.44-11.83,6.44-0.99,0-1.16-.99-1.34-1.74a79.905,79.905,0,0,1-1.8-10.38c-0.11-1.34,0-2.21-1.62-2.21a22.539,22.539,0,0,0-2.78.29C2998.05,1394.84,2996.14,1394.84,2996.14,1395.71Zm52.08,7.66c-0.93,0-.99.87-0.99,2.55,0,0.41-.05.81-0.05,1.28a92.566,92.566,0,0,1-1.4,12.64c-0.35,1.92-.81,3.83-1.33,5.69a8.614,8.614,0,0,0-.58,2.03c0,1.68,3.89,2.26,4.41,2.26a2.371,2.371,0,0,0,1.74-1.22c3.65-4.58,9.8-9.68,15.89-9.68,3.71,0,6.96,2.14,6.96,6.14,0,4.93-4.29,6.73-8.41,7.78a39.691,39.691,0,0,1-7.71,1.16c-0.76.05-1.45,0.11-1.45,1.04a12.2,12.2,0,0,0,.98,3.77c0.52,1.1.87,1.63,2.15,1.63a38.93,38.93,0,0,0,7.54-1.57c7.02-2.09,13.17-5.57,13.17-13.81,0-7.3-5.51-12.06-12.65-12.06-5.51,0-8.99,2.32-13.28,5.34a1.319,1.319,0,0,1-.76.34,0.609,0.609,0,0,1-.58-0.69,8.551,8.551,0,0,1,.18-1.22c0.58-2.67.93-5.4,1.39-8.06,0.23-1.16.29-1.69,1.22-2.27a0.747,0.747,0,0,0,.52-0.63c0-.47-0.64-0.64-1.04-0.82A42.412,42.412,0,0,0,3048.22,1403.37Zm3.71-6.67c0,0.64.76,0.93,1.34,1.28a46.977,46.977,0,0,1,7.3,4.93c0.47,0.34,1.22,1.16,1.86,1.16,1.22,0,3.6-3.54,3.6-4.59,0-.98-3.37-2.84-4.24-3.36-1.04-.64-5.74-3.66-6.61-3.66C3053.79,1392.46,3051.93,1395.94,3051.93,1396.7Zm51.04-3.89a0.711,0.711,0,0,0-.87.81c0,0.41.06,1.05,0.06,1.86,0,1.97-.12,3.95-0.12,5.92a5.377,5.377,0,0,1-.29,2.38,2.178,2.178,0,0,1-1.79.98,33.245,33.245,0,0,1-6.39.58h-0.81c-0.75,0-1.33.12-1.33,0.99a24.086,24.086,0,0,0,.93,4.41,1.6,1.6,0,0,0,1.33,1.39,60.466,60.466,0,0,0,6.15-1.39,4.844,4.844,0,0,1,.99-0.18,1.033,1.033,0,0,1,.92,1.22v0.75a4.92,4.92,0,0,1-.34,2.27c-2.09,4.35-6.39,9.45-9.81,12.93-0.46.47-1.45,1.34-1.45,1.97,0,1.11,3.31,4.47,4.35,4.47a1.2,1.2,0,0,0,.87-0.81c0.87-1.34,3.25-4.35,4.35-5.69a2.256,2.256,0,0,1,1.16-.92,0.758,0.758,0,0,1,.58.92c0,1.86,0,3.77-.05,5.63,0,0.29-.12,2.79-0.18,4.58,0,0.29-.06,1.4-0.06,1.86,0,1.16.76,1.22,2.44,1.22,3.83,0,4.35-.35,4.35-0.99s-0.35-6.15-.41-7.77c-0.17-3.37-.23-6.79-0.23-10.21a3.352,3.352,0,0,1,.7-2.32c3.07-3.77,9.8-8.24,14.73-8.24,4.7,0,7.6,4.18,7.6,8.53,0,7.6-7.77,10.96-14.1,12.41-0.81.18-1.5,0.35-1.5,1.34,0,1.22,1.56,4.81,3.19,4.81a17.271,17.271,0,0,0,4.75-1.39c7.54-3.08,14.1-8.64,14.1-17.4,0-7.66-5.63-14.27-13.52-14.27-5.91,0-10.44,3.19-14.73,6.9a1.627,1.627,0,0,1-.75.52c-0.29,0-.35-0.35-0.35-0.93,0-.98,2.14-3.71,2.84-4.46a2.417,2.417,0,0,0,.81-1.22c0-.75-1.91-3.02-2.26-3.13-0.64-.12-0.87-0.23-0.87-0.87,0-.7.29-3.37,0.41-4.18,0.23-2.44.34-2.38,1.04-3.07a1.138,1.138,0,0,0,.41-0.76,0.849,0.849,0,0,0-.7-0.69C3108.42,1393.39,3103.78,1392.81,3102.97,1392.81Zm53.25-.4c-0.64,0-.93.17-0.93,0.81,0,0.4.06,1.1,0.06,1.8,0,2.55-.24,6.03-0.24,7.6a3.685,3.685,0,0,1-.29,1.74c-0.69,1.39-8.06,2.66-9.8,2.9-0.7.11-1.91,0.11-1.91,1.04a17.478,17.478,0,0,0,1.21,3.94,2.039,2.039,0,0,0,1.69,1.63c1.1,0,5.8-1.86,7.02-2.38a3.382,3.382,0,0,1,1.04-.29,0.764,0.764,0,0,1,.75.87c0,0.46-.11.99-0.11,1.51a5.521,5.521,0,0,1-.7,2.73c-2.67,4.81-5.39,9.57-8.53,14.15a6.074,6.074,0,0,0-1.16,2.09c0,0.98,3.37,3.83,4.35,3.83a1.019,1.019,0,0,0,.76-0.7c0.58-1.1,2.38-4.24,3.02-5.28,0.58-.87.98-1.74,1.39-1.74a0.655,0.655,0,0,1,.52.75c0,2.61-.35,9.05-0.35,9.58,0,1.16,1.05,1.16,2.44,1.16,4.29,0,4.23-.58,4.23-0.99,0-.64-0.17-3.77-0.29-6.15-0.06-.99-0.17-2.73-0.17-3.07,0-1.34-.23-8.41,0-9.17,0.35-.93,2.49-2.96,3.25-3.71a58.515,58.515,0,0,1,6.32-5.63c1.22-.93,2.9-2.32,4.52-2.32,1.74,0,1.74,2.03,1.74,3.31,0,5.22-.75,10.5-0.75,15.72,0,3.65.46,9.28,5.34,9.28,2.9,0,5.85-1.68,8.17-3.37,0.64-.46,2.79-1.97,2.79-2.78,0-.93-1.68-5.28-2.67-5.28a1.669,1.669,0,0,0-1.1.64c-1.05,1.16-3.54,3.65-5.11,3.65-1.33,0-1.27-2.03-1.27-3.42,0-2.43.17-5.04,0.29-7.54,0.17-2.96.29-5.97,0.29-8.99,0-1.74-.06-4-1.05-5.51a6.238,6.238,0,0,0-4.98-2.55c-3.19,0-6.1,2.09-8.42,4.12-1.39,1.16-3.71,3.24-4.93,4.52a0.763,0.763,0,0,1-.46.29,0.487,0.487,0,0,1-.46-0.58,4.392,4.392,0,0,1,.11-0.93c0.18-.4,1.28-2.43,1.57-2.84a1.439,1.439,0,0,0,.35-0.64,4.168,4.168,0,0,0-1.98-2.67,0.991,0.991,0,0,1-.92-0.98c0-.81.4-3.66,0.52-4.64,0.35-2.38.29-2.56,1.04-3.19a1.351,1.351,0,0,0,.47-0.87,0.8,0.8,0,0,0-.64-0.64C3161.67,1393.04,3156.85,1392.41,3156.22,1392.41Zm59.56,24.3c2.38,0,2.9,3.31,2.9,5.11s-0.69,4.75-3.01,4.75-2.73-3.19-2.73-4.93S3213.52,1416.71,3215.78,1416.71Zm0.29-24.59a0.654,0.654,0,0,0-.75.69v0.47a43.571,43.571,0,0,1,.64,7.19,1.708,1.708,0,0,1-1.28,1.8c-0.52.11-14.15,0.87-15.72,0.93-2.84.11-3.42,0-3.42,1.16a34.751,34.751,0,0,0,.46,4.17c0.18,0.76.29,1.57,1.22,1.57a5.011,5.011,0,0,0,.87-0.12c4-.81,11.31-1.45,15.55-1.85a14.506,14.506,0,0,1,1.5-.18c0.64,0,1.11.23,1.11,2.5a0.692,0.692,0,0,1-.7.63c-5.86.53-8.18,5.63-8.18,10.97,0,4.23,1.86,9.68,6.9,9.68a5.363,5.363,0,0,0,1.34-.29,1.1,1.1,0,0,1,.4-0.05,0.45,0.45,0,0,1,.47.4,2.3,2.3,0,0,1-.29.87,18.774,18.774,0,0,1-4.24,5.63,4.265,4.265,0,0,0-1.27,1.62c0,1.05,4.64,2.56,5.39,2.56,2.5,0,8.7-10.45,8.7-19.78a17.971,17.971,0,0,0-1.74-8.13,4.9,4.9,0,0,1-.58-3.01v-2.03a1.786,1.786,0,0,1,1.11-1.86,67.013,67.013,0,0,1,7.07-.29c3.25,0,7.6.35,8.41,0.35,0.58,0,1.28,0,1.28-3.54,0-2.67-.47-2.96-1.39-2.96-2.44,0-8.7.35-11.49,0.47-0.69,0-2.9.17-3.36,0.17a1.53,1.53,0,0,1-1.69-1.68c0-1.22,0-2.44.06-3.71,0.06-1.69.53-2.15,0.87-2.44a0.863,0.863,0,0,0,.35-0.64c0-.52-1.74-0.64-3.13-0.81-0.29-.06-0.64-0.06-0.87-0.12C3218.97,1392.41,3216.54,1392.12,3216.07,1392.12Zm23.38-2.96c-0.64,0-2.84,1.68-2.84,2.32a1.3,1.3,0,0,0,.58.81c1.1,1.16,2.2,2.38,3.24,3.6,0.35,0.4,1.22,1.62,1.63,1.62,0.75,0,2.84-1.74,2.84-2.61C3244.9,1394.2,3240.09,1389.16,3239.45,1389.16Zm-7.95,1.97c-0.69,0-2.84,1.68-2.84,2.38a1.373,1.373,0,0,0,.52.75c1.68,1.74,2.61,2.79,4.18,4.64a1.186,1.186,0,0,0,.75.58c0.76,0,2.79-1.79,2.79-2.61C3236.9,1396.12,3232.08,1391.13,3231.5,1391.13Z" transform="translate(-2503.12 -1389.16)"/>
</svg>
