<svg xmlns="http://www.w3.org/2000/svg" width="1070.85" height="52.65" viewBox="0 0 1070.85 52.65">
  <defs>
    <style>
      .cls-1 {
        fill-rule: evenodd;
      }
    </style>
  </defs>
  <path id="これから_OOKINAWAの挑戦がはじまります_" data-name="これから、OOKINAWAの挑戦がはじまります。" class="cls-1" d="M2503.08,1423.92c0,1.57,1.39,4.35,2.26,5.63,3.77,5.28,10.27,6.03,16.3,6.03,3.48,0,14.33-.69,17.4-1.62a1.889,1.889,0,0,0,1.4-2.15c0-3.77-.41-4.75-1.28-4.75a4.459,4.459,0,0,0-.87.17,72.4,72.4,0,0,1-17.29,2.03c-5.45,0-10.38-.87-11.6-7.02a1.046,1.046,0,0,0-1.04-1.1C2508.3,1421.14,2503.08,1422.47,2503.08,1423.92Zm5.8-20.01a1.206,1.206,0,0,0,.81,1.22c2.84,1.16,10.04,1.45,13.23,1.45a78.137,78.137,0,0,0,10.5-.7c1.33-.23,1.62-0.34,1.62-1.74,0-2.38-.06-4.99-1.51-4.99a2.8,2.8,0,0,0-.75.12,49.6,49.6,0,0,1-10.5,1.16,37.321,37.321,0,0,1-9.86-1.22,9.309,9.309,0,0,0-1.68-.35c-1.11,0-1.22,1.05-1.4,2.03A20.947,20.947,0,0,0,2508.88,1403.91Zm56.26-11.95c-0.64,0-.93.18-0.93,0.81,0,0.41.06,1.11,0.06,1.8,0,2.55-.23,6.03-0.23,7.6a3.763,3.763,0,0,1-.29,1.74c-0.7,1.39-8.06,2.67-9.8,2.9-0.7.12-1.92,0.12-1.92,1.05a17.018,17.018,0,0,0,1.22,3.94,2.029,2.029,0,0,0,1.68,1.62c1.1,0,5.8-1.85,7.02-2.37a3.382,3.382,0,0,1,1.04-.29,0.761,0.761,0,0,1,.76.87c0,0.46-.12.98-0.12,1.5a5.454,5.454,0,0,1-.69,2.73c-2.67,4.81-5.4,9.57-8.53,14.15a6.261,6.261,0,0,0-1.16,2.09c0,0.99,3.36,3.83,4.35,3.83a0.993,0.993,0,0,0,.75-0.7c0.58-1.1,2.38-4.23,3.02-5.27,0.58-.87.99-1.74,1.39-1.74a0.647,0.647,0,0,1,.52.75c0,2.61-.34,9.05-0.34,9.57,0,1.16,1.04,1.16,2.43,1.16,4.29,0,4.24-.58,4.24-0.99,0-.63-0.18-3.77-0.29-6.14-0.06-.99-0.18-2.73-0.18-3.08,0-1.33-.23-8.41,0-9.16,0.35-.93,2.5-2.96,3.25-3.72a59.271,59.271,0,0,1,6.32-5.62c1.22-.93,2.9-2.32,4.53-2.32,1.74,0,1.74,2.03,1.74,3.3,0,5.22-.76,10.5-0.76,15.72,0,3.66.47,9.28,5.34,9.28,2.9,0,5.86-1.68,8.18-3.36,0.64-.46,2.78-1.97,2.78-2.78,0-.93-1.68-5.28-2.66-5.28a1.668,1.668,0,0,0-1.11.64c-1.04,1.16-3.53,3.65-5.1,3.65-1.34,0-1.28-2.03-1.28-3.42,0-2.44.18-5.05,0.29-7.54,0.18-2.96.29-5.98,0.29-8.99,0-1.74-.06-4.01-1.04-5.51a6.266,6.266,0,0,0-4.99-2.56c-3.19,0-6.09,2.09-8.41,4.12-1.39,1.16-3.71,3.25-4.93,4.53a0.836,0.836,0,0,1-.47.29,0.493,0.493,0,0,1-.46-0.58,4.368,4.368,0,0,1,.12-0.93,31.835,31.835,0,0,1,1.56-2.84,1.4,1.4,0,0,0,.35-0.64,4.16,4.16,0,0,0-1.97-2.67,1.009,1.009,0,0,1-.93-0.99c0-.81.41-3.65,0.52-4.64,0.35-2.38.29-2.55,1.05-3.19a1.293,1.293,0,0,0,.46-0.87,0.811,0.811,0,0,0-.64-0.64C2570.59,1392.6,2565.78,1391.96,2565.14,1391.96Zm77.08,7.37c-1.04,0-4.4,2.03-4.4,3.07a1.5,1.5,0,0,0,.52.99c3.88,4.12,5.45,7.42,7.77,12.41,0.29,0.58.58,1.34,1.34,1.34,1.16,0,4.81-2.15,4.81-3.43C2652.26,1412.26,2644.37,1399.33,2642.22,1399.33Zm-21.05-5.74c-0.64,0-.64.69-0.64,1.16,0,0.69.06,1.33,0.06,1.97a53.128,53.128,0,0,1-.58,7.48c-0.18,1.22-.76,1.51-1.92,1.74a89.989,89.989,0,0,1-9.62,1.8c-0.76.06-1.74,0.06-1.74,0.93,0,0.29.98,5.97,2.43,5.97a4.675,4.675,0,0,0,1.22-.35,48.379,48.379,0,0,1,6.61-2.03,0.7,0.7,0,0,1,.76.76,32.1,32.1,0,0,1-1.45,4.35,47.594,47.594,0,0,1-10.33,16.18,2.155,2.155,0,0,0-.81,1.34c0,1.33,3.71,3.53,4.7,3.53a1.6,1.6,0,0,0,1.04-.58,66.177,66.177,0,0,0,5.8-8.35,68.43,68.43,0,0,0,7.37-17.23c0.4-1.62.99-2.08,4.29-2.08,3.48,0,3.66,2.37,3.66,5.27,0,3.72-.87,9.75-2.56,13.11-1.45,2.85-2.9,3.54-6.03,3.54-1.16,0-2.15-.17-2.73-0.17s-0.75.4-.75,0.98a12.371,12.371,0,0,0,.99,4.12c0.63,1.22,1.39,1.39,2.66,1.39a11.866,11.866,0,0,0,10.97-6.26c2.55-4.64,3.48-12.47,3.48-17.81,0-3.19-.64-6.55-3.54-8.41-2.09-1.33-4.23-1.33-6.61-1.33-0.23,0-.47.06-0.7,0.06a1.172,1.172,0,0,1-1.27-1.22,2.322,2.322,0,0,1,.11-0.64c0.18-.99.29-1.8,0.41-2.5,0.35-2.03.46-2.95,1.56-3.77a0.831,0.831,0,0,0,.47-0.69c0-.64-0.99-0.81-1.45-0.93C2626.16,1394.69,2621.75,1393.59,2621.17,1393.59Zm41.29,9.34c-0.92,0-.98.87-0.98,2.55,0,0.4-.06.81-0.06,1.27a92.694,92.694,0,0,1-1.39,12.65c-0.35,1.91-.81,3.83-1.34,5.68a9.118,9.118,0,0,0-.58,2.03c0,1.69,3.89,2.27,4.41,2.27a2.354,2.354,0,0,0,1.74-1.22c3.66-4.58,9.81-9.69,15.9-9.69,3.71,0,6.96,2.15,6.96,6.15,0,4.93-4.3,6.73-8.41,7.77a38.211,38.211,0,0,1-7.72,1.16c-0.75.06-1.45,0.12-1.45,1.05a12.01,12.01,0,0,0,.99,3.77c0.52,1.1.87,1.62,2.14,1.62a38.051,38.051,0,0,0,7.54-1.57c7.02-2.08,13.17-5.56,13.17-13.8,0-7.31-5.51-12.07-12.64-12.07-5.51,0-8.99,2.32-13.29,5.34a1.306,1.306,0,0,1-.75.35,0.612,0.612,0,0,1-.58-0.7,8.522,8.522,0,0,1,.17-1.22c0.58-2.66.93-5.39,1.39-8.06,0.24-1.16.29-1.68,1.22-2.26a0.761,0.761,0,0,0,.52-0.64,1.288,1.288,0,0,0-1.04-.81A41.078,41.078,0,0,0,2662.46,1402.93Zm3.72-6.68c0,0.64.75,0.93,1.33,1.28a47.064,47.064,0,0,1,7.31,4.93,4.157,4.157,0,0,0,1.86,1.16c1.21,0,3.59-3.54,3.59-4.58,0-.99-3.36-2.84-4.23-3.37-1.05-.63-5.75-3.65-6.62-3.65C2668.03,1392.02,2666.18,1395.5,2666.18,1396.25Zm35.95,34.05a1.657,1.657,0,0,0,1.05,1.11,35.807,35.807,0,0,1,8.82,7.88,1.894,1.894,0,0,0,1.16.88c1.33,0,4.23-3.2,4.23-4.47,0-1.45-9.98-9.46-11.31-9.46C2705.09,1426.24,2702.13,1429.32,2702.13,1430.3Zm58.53-18.56a28.087,28.087,0,0,0-.44-4.35,15.283,15.283,0,0,0-1.22-3.79,12.036,12.036,0,0,0-2.4-3.34,16.454,16.454,0,0,0-17.4-3.36,15.441,15.441,0,0,0-4.93,3.36,11.876,11.876,0,0,0-2.41,3.34,14.447,14.447,0,0,0-1.19,3.79,30.9,30.9,0,0,0-.41,4.35c-0.03,1.55-.05,3.21-0.05,4.99s0.02,3.44.05,4.99a30.614,30.614,0,0,0,.41,4.35,14.518,14.518,0,0,0,1.19,3.8,11.836,11.836,0,0,0,2.41,3.33,15.473,15.473,0,0,0,4.93,3.37,17.417,17.417,0,0,0,12.5,0,15.689,15.689,0,0,0,4.9-3.37,12,12,0,0,0,2.4-3.33,15.358,15.358,0,0,0,1.22-3.8,27.835,27.835,0,0,0,.44-4.35c0.03-1.55.05-3.21,0.05-4.99S2760.69,1413.29,2760.66,1411.74Zm-8.09,9.89a25.791,25.791,0,0,1-.32,3.22,7.607,7.607,0,0,1-.64,2.06,6.447,6.447,0,0,1-.99,1.42,6.557,6.557,0,0,1-2.17,1.6,7.1,7.1,0,0,1-2.99.61,7.3,7.3,0,0,1-3.02-.61,6.482,6.482,0,0,1-2.2-1.6,5.726,5.726,0,0,1-.96-1.42,8.494,8.494,0,0,1-.61-2.06,24.225,24.225,0,0,1-.31-3.22c-0.06-1.29-.09-2.93-0.09-4.9s0.03-3.6.09-4.9a24.4,24.4,0,0,1,.31-3.22,8.635,8.635,0,0,1,.61-2.06,5.917,5.917,0,0,1,.96-1.42,6.459,6.459,0,0,1,2.2-1.59,7.147,7.147,0,0,1,3.02-.61,6.946,6.946,0,0,1,2.99.61,6.533,6.533,0,0,1,2.17,1.59,6.691,6.691,0,0,1,.99,1.42,7.724,7.724,0,0,1,.64,2.06,26,26,0,0,1,.32,3.22c0.05,1.3.08,2.93,0.08,4.9S2752.62,1420.34,2752.57,1421.63Zm46.02-9.89a28.087,28.087,0,0,0-.44-4.35,15.267,15.267,0,0,0-1.21-3.79,12.288,12.288,0,0,0-2.41-3.34,14.832,14.832,0,0,0-11.14-4.52,15.744,15.744,0,0,0-6.26,1.16,15.441,15.441,0,0,0-4.93,3.36,11.876,11.876,0,0,0-2.41,3.34,14.447,14.447,0,0,0-1.19,3.79,29.515,29.515,0,0,0-.4,4.35c-0.04,1.55-.06,3.21-0.06,4.99s0.02,3.44.06,4.99a29.261,29.261,0,0,0,.4,4.35,14.518,14.518,0,0,0,1.19,3.8,11.836,11.836,0,0,0,2.41,3.33,15.473,15.473,0,0,0,4.93,3.37,15.921,15.921,0,0,0,6.26,1.16,15.75,15.75,0,0,0,6.24-1.16,15.575,15.575,0,0,0,4.9-3.37,12.246,12.246,0,0,0,2.41-3.33,15.342,15.342,0,0,0,1.21-3.8,27.835,27.835,0,0,0,.44-4.35c0.04-1.55.06-3.21,0.06-4.99S2798.63,1413.29,2798.59,1411.74Zm-8.09,9.89a25.791,25.791,0,0,1-.32,3.22,7.607,7.607,0,0,1-.64,2.06,6.447,6.447,0,0,1-.99,1.42,6.557,6.557,0,0,1-2.17,1.6,7.1,7.1,0,0,1-2.99.61,7.256,7.256,0,0,1-3.01-.61,6.524,6.524,0,0,1-2.21-1.6,5.976,5.976,0,0,1-.95-1.42,7.686,7.686,0,0,1-.61-2.06,24.014,24.014,0,0,1-.32-3.22c-0.06-1.29-.09-2.93-0.09-4.9s0.03-3.6.09-4.9a24.191,24.191,0,0,1,.32-3.22,7.8,7.8,0,0,1,.61-2.06,6.184,6.184,0,0,1,.95-1.42,6.5,6.5,0,0,1,2.21-1.59,7.1,7.1,0,0,1,3.01-.61,6.946,6.946,0,0,1,2.99.61,6.533,6.533,0,0,1,2.17,1.59,6.691,6.691,0,0,1,.99,1.42,7.724,7.724,0,0,1,.64,2.06,26,26,0,0,1,.32,3.22c0.06,1.3.08,2.93,0.08,4.9S2790.56,1420.34,2790.5,1421.63Zm50.37,15.75-14.67-24.88,13.68-16.42h-9.8l-14.56,17.98v-17.98h-8.06v41.3h8.06v-12.41l5.34-6.38,10.61,18.79h9.4Zm13.8,0v-41.3h-8.06v41.3h8.06Zm41.82,0v-41.3h-8.06v25.29l-16.36-25.29h-7.19v41.3h8.06v-25.35l16.36,25.35h7.19Zm42.11,0-15.08-41.3h-6.32l-15.02,41.3h8.41l2.49-7.31h14.67l2.44,7.31h8.41Zm-12.99-14.09h-10.27l5.22-15.03Zm64.96-27.21h-8.41l-6.44,26.05-7.54-26.05h-6.03l-7.54,26.05-6.38-26.05h-8.41l11.02,41.3h6.72l7.6-25.06,7.6,25.06h6.73Zm37.64,41.3-15.08-41.3h-6.32l-15.03,41.3h8.41l2.5-7.31h14.67l2.44,7.31h8.41Zm-12.99-14.09h-10.27l5.22-15.03Zm38.97-19.44a0.921,0.921,0,0,1,.93,1.05,59.412,59.412,0,0,1-1.85,11.31c-1.63,5.92-4.88,12.53-7.78,12.53-2.96,0-3.71-5.4-3.71-7.54a17.952,17.952,0,0,1,10.44-16.71A6.667,6.667,0,0,1,3054.19,1403.85Zm5.57-6.78c-13.69,0-24.07,10.79-24.07,24.36a18.141,18.141,0,0,0,1.8,8.24c1.56,2.95,4.35,5.51,7.89,5.51,3.19,0,5.74-2.15,7.65-4.47,5.57-6.67,7.6-17,8.24-25.46,0.06-.99.06-2.27,1.39-2.27a10,10,0,0,1,2.21.53c6.03,2.08,9.28,7.65,9.28,13.86,0,8.29-5.98,13.28-13.58,15.08-0.58.12-1.45,0.23-1.45,0.81,0,1.28,2.38,4.87,3.89,4.87,1.39,0,4.99-1.62,6.32-2.32a20.829,20.829,0,0,0,11.31-18.73,19.645,19.645,0,0,0-5.85-14.27C3070.67,1398.75,3065.45,1397.07,3059.76,1397.07Zm48.14,3.48c-0.69,0-3.36,1.04-3.36,1.91a3.709,3.709,0,0,0,.4,1.1,53.368,53.368,0,0,1,3.19,7.89,0.828,0.828,0,0,0,.82.81,6.052,6.052,0,0,0,1.97-.63c1.1-.47,1.68-0.7,1.68-1.57a15.162,15.162,0,0,0-1.39-3.89c-0.7-1.62-1.45-3.19-2.21-4.7A1.16,1.16,0,0,0,3107.9,1400.55Zm5.22,14.5a2.23,2.23,0,0,1-1.33,2.2c-1.97,1.28-4.18,2.32-6.27,3.48a12.058,12.058,0,0,1-1.39.7,1.19,1.19,0,0,0-1.16.99,22.127,22.127,0,0,0,1.57,4c0.23,0.46.69,1.68,1.27,1.68a1.074,1.074,0,0,0,.76-0.87,1.719,1.719,0,0,1,.58-0.99c0.52-.4,3.3-2.2,4-2.66a0.746,0.746,0,0,1,.46-0.18,0.623,0.623,0,0,1,.58.81c-1.16,5.8-4.46,9.81-8.7,13.81a1.68,1.68,0,0,0-.63.93c0,1.27,3.01,3.59,4.17,3.59,0.99,0,4.12-3.88,4.82-4.75a28.12,28.12,0,0,0,5.97-13.87,99.679,99.679,0,0,0,.81-13.16v-15.49c0-1.86.06-2.44,0.76-2.84a0.925,0.925,0,0,0,.69-0.76,0.835,0.835,0,0,0-.93-0.69c-0.81-.12-4.29-0.35-5.1-0.35-0.64,0-1.1.11-1.1,0.87,0,0.17.06,0.35,0.06,0.52,0.17,2.03.17,4,.17,6.03v12.71C3113.18,1412.21,3113.24,1413.6,3113.12,1415.05Zm14.97-19.14c0-1.8.06-2.85,0.64-3.25a1.2,1.2,0,0,0,.75-0.87c0-.7-0.93-0.76-1.45-0.76-1.04-.11-3.77-0.29-4.7-0.29-0.52,0-.98.12-0.98,0.7,0,0.23.05,0.41,0.05,0.64,0.12,1.22.18,2.61,0.18,4.06V1431c0,1.62-.06,3.25-0.06,4.87,0,4.35,2.67,5.51,6.5,5.51h3.3c2.15,0,3.54-.17,4.87-2.09a18.644,18.644,0,0,0,2.21-7.65c0-1.74-3.13-2.09-4.47-2.09-0.81,0-1.04.41-1.1,1.39-0.29,3.71-.58,4.58-2.44,4.58h-1.56c-1.63,0-1.74-.34-1.74-3.3v-12.76a0.516,0.516,0,0,1,.46-0.64,0.554,0.554,0,0,1,.47.23,50.124,50.124,0,0,1,5.27,7.19,0.959,0.959,0,0,0,.87.58c0.7,0,3.66-1.56,3.66-2.49,0-.7-2.38-3.83-3.19-4.93-1.05-1.39-2.15-2.67-3.31-4a1.35,1.35,0,0,0-.93-0.58,4.612,4.612,0,0,0-2.08.92,1.848,1.848,0,0,1-.53.18,0.7,0.7,0,0,1-.69-0.81v-3.54a0.718,0.718,0,0,1,.69-0.87,1.6,1.6,0,0,1,.53.11,6.541,6.541,0,0,0,2.43.93c1.16,0,4.18-5.04,4.82-6.09,0.17-.35.29-0.58,0.46-0.87,0.75-1.22.87-1.45,1.51-1.51a0.877,0.877,0,0,0,.87-0.58c0-.58-0.87-0.93-2.5-1.74a13.192,13.192,0,0,0-2.72-1.04,0.725,0.725,0,0,0-.58.58,54.512,54.512,0,0,1-4.58,7.37,0.554,0.554,0,0,1-.47.23,0.516,0.516,0,0,1-.46-0.58v-11.6Zm-27.73,10.26c0.52,0.06,2.38.12,2.67,0.12,1.33,0,1.22-.87,1.22-2.73,0-1.97.11-2.84-1.22-2.84-0.47,0-2.03.12-2.61,0.12a1.368,1.368,0,0,1-1.57-1.63v-3.65c0-1.86.06-2.79,0.64-3.13a1.323,1.323,0,0,0,.75-0.93c0-.7-0.92-0.76-1.45-0.76-0.81-.05-3.82-0.29-4.52-0.29-0.64,0-1.16.06-1.16,0.87,0,0.35.17,1.51,0.23,2.09,0.06,1.74,0,3.42,0,5.11v0.69c0,1.1-.4,1.63-1.51,1.63-0.87,0-2.03-.12-2.78-0.12-1.33,0-1.22.81-1.22,2.84,0,1.92-.11,2.73,1.22,2.73,0.12,0,2.44-.06,2.78-0.12a1.367,1.367,0,0,1,1.51,1.63v8.12a1.8,1.8,0,0,1-1.39,2.09c-1.39.52-2.44,0.75-3.25,0.98-1.68.47-1.97,0.58-1.97,1.22,0,0.41.99,3.19,1.16,3.71,0.06,0.18.12,0.35,0.17,0.47,0.29,0.93.58,1.62,1.11,1.62a0.7,0.7,0,0,0,.69-0.69c0.23-.7.29-0.82,2.03-1.45a1.7,1.7,0,0,1,.52-0.12,1.007,1.007,0,0,1,.93,1.22v7.94c0,2.44.18,3.66-1.97,3.66-0.58,0-2.09-.18-2.32-0.18-1.04,0-1.1.99-1.1,1.8,0,4.01,1.16,4.18,2.84,4.18,4.23,0,8.18-.7,8.18-5.86,0-1.28-.12-2.55-0.12-3.83v-9.97a2.082,2.082,0,0,1,1.34-2.21c4.35-1.97,4.46-2.03,4.46-3.77,0-.75,0-3.36-1.1-3.36a13.844,13.844,0,0,0-2.55,1.1c-0.29.17-.58,0.29-0.7,0.35a1.934,1.934,0,0,1-.52.11,0.986,0.986,0,0,1-.93-1.16v-5.97A1.372,1.372,0,0,1,3100.36,1406.17Zm65.89-7.19a30.461,30.461,0,0,0-1.39-4.52c-1.45-3.72-1.69-4.3-2.67-4.3-0.64,0-3.54.87-3.54,1.92a2.07,2.07,0,0,0,.12.58c1.04,2.49,1.74,4.23,2.55,6.78,0.23,0.7.4,1.34,1.22,1.34C3163.29,1400.78,3166.25,1400.02,3166.25,1398.98Zm-8.82.7c0-.76-1.91-4.64-2.38-5.57-1.39-2.73-1.68-3.13-2.49-3.13-0.75,0-3.65.98-3.65,2.2a3.528,3.528,0,0,0,.34.99,42.905,42.905,0,0,1,3.14,6.38c0.29,0.63.46,1.27,1.27,1.27C3154.59,1401.82,3157.43,1400.89,3157.43,1399.68Zm40.55,0.34c0-.63-2.15-3.59-2.67-4.29-0.58-.75-2.67-3.65-3.6-3.65-0.87,0-3.53,1.51-3.53,2.49a1.8,1.8,0,0,0,.52.93,59.425,59.425,0,0,1,4.41,6.03,1.521,1.521,0,0,0,1.16.99C3195.08,1402.52,3197.98,1401.07,3197.98,1400.02Zm-11.25,11.55a1.419,1.419,0,0,1,1.45-1.63l6.26-.4c0.99-.06,1.8-0.12,2.44-0.12,2.37-.11,2.43-0.11,2.43-2.2v-0.18c0-1.85-.06-3.19-1.22-3.19-0.17,0-3.13.29-3.94,0.35l-6.03.41a1.287,1.287,0,0,1-1.51-1.45c-0.06-2.9-.06-5.8-0.06-8.7,0-1.16.12-1.45,0.64-1.74a1.192,1.192,0,0,0,.87-0.93c0-.7-0.46-0.76-1.16-0.81-0.81-.12-4.18-0.47-4.81-0.47a0.926,0.926,0,0,0-1.11,1.05c0,0.4.06,1.62,0.06,2.61v2.14c0,2.44.12,4.87,0.12,7.25a1.347,1.347,0,0,1-1.51,1.57c-3.95.23-4,0-4,1.8,0,0.98,0,3.88,1.39,3.88,0.23,0,2.2-.23,2.72-0.29a1.317,1.317,0,0,1,1.57,1.4,101.611,101.611,0,0,0,1.57,15.14,2.045,2.045,0,0,1,.06.63,2.33,2.33,0,0,1-.76,1.8,61.539,61.539,0,0,1-9.45,8.35,2.058,2.058,0,0,0-1.05,1.28c0,0.87,2.21,3.48,3.31,3.48,1.56,0,7.54-5.86,8.82-7.13a0.9,0.9,0,0,1,.75-0.35,1.153,1.153,0,0,1,.93.64c1.51,3.24,3.88,6.61,7.89,6.61,2.72,0,4.17-2.38,5.1-4.64a22.35,22.35,0,0,0,1.39-6.44c0-1.74-1.97-2.38-3.3-2.38s-1.34.52-1.45,1.51c-0.18,1.1-.58,5.1-2.09,5.1-1.34,0-3.02-3.53-3.54-4.69a2.662,2.662,0,0,1-.23-0.99,2.45,2.45,0,0,1,.58-1.51,64.658,64.658,0,0,0,6.44-10.67,1.922,1.922,0,0,1,1.27-1.45,1.1,1.1,0,0,0,.87-0.7c0-.75-1.39-1.22-2.55-1.74a13.965,13.965,0,0,0-2.78-1.1c-0.64,0-.87.81-1.11,1.45a46.851,46.851,0,0,1-3.65,7.25,0.661,0.661,0,0,1-.52.35,0.612,0.612,0,0,1-.52-0.58C3187.02,1417.95,3186.84,1414.76,3186.73,1411.57Zm-27.04-1.63a1.53,1.53,0,0,1-1.62,1.57h-1.33a1.543,1.543,0,0,1-1.63-1.57v-0.98a1.543,1.543,0,0,1,1.63-1.57h1.33a1.6,1.6,0,0,1,1.62,1.57v0.98Zm0,8.12a1.53,1.53,0,0,1-1.62,1.57h-1.33a1.543,1.543,0,0,1-1.63-1.57v-0.92a1.67,1.67,0,0,1,1.63-1.63h1.33a1.655,1.655,0,0,1,1.62,1.63v0.92Zm5.34-.92a1.63,1.63,0,0,1,1.63-1.63h1.45a1.541,1.541,0,0,1,1.56,1.63v0.92a1.433,1.433,0,0,1-1.56,1.57h-1.45a1.512,1.512,0,0,1-1.63-1.57v-0.92Zm1.63-5.63a1.512,1.512,0,0,1-1.63-1.57v-0.98a1.512,1.512,0,0,1,1.63-1.57h1.45a1.493,1.493,0,0,1,1.56,1.57v0.98a1.433,1.433,0,0,1-1.56,1.57h-1.45Zm5.39,12.7c1.39,0,2.67.06,2.67-1.74,0-1.16-.06-2.32-0.06-3.48v-10.38c0-1.22.06-2.49,0.06-3.77a1.755,1.755,0,0,0-1.57-2.03,0.684,0.684,0,0,1-.64-0.58,0.637,0.637,0,0,1,.12-0.35c1.86-3.07,2.84-4.99,3.48-6.15,0.87-1.68.99-1.97,1.8-2.09a0.657,0.657,0,0,0,.75-0.58,1.1,1.1,0,0,0-1.04-.92c-0.64-.29-4.35-1.8-4.7-1.8a0.891,0.891,0,0,0-.7.87,47.74,47.74,0,0,1-4.93,10.32,2.243,2.243,0,0,1-2.43,1.28h-8.99c-1.22,0-2.44-.06-3.6-0.06-1.57,0-2.15.64-2.15,2.21,0,1.21.06,2.43,0.06,3.65v10.38c0,1.16-.11,2.32-0.11,3.48,0,1.74,1.21,1.74,2.66,1.74h5.34a1.381,1.381,0,0,1,1.62,1.63v0.46a1.381,1.381,0,0,1-1.62,1.63h-2.32c-1.97,0-4-.12-5.97-0.12-1.4,0-1.34.7-1.34,2.32,0,1.57-.06,2.26,1.34,2.26,1.97,0,4-.11,5.97-0.11h2.32a1.374,1.374,0,0,1,1.62,1.62c0.06,2.2-.11,4.41-0.11,6.61,0,1.8.52,1.86,2.78,1.86s2.79-.06,2.79-1.86c0-2.2-.12-4.41-0.12-6.61a1.381,1.381,0,0,1,1.63-1.62h2.61c2.03,0,4,.11,6.03.11,1.33,0,1.33-.69,1.33-2.26,0-1.74,0-2.32-1.39-2.32-2.03,0-4,.12-5.97.12h-2.61a1.387,1.387,0,0,1-1.63-1.63v-0.46a1.387,1.387,0,0,1,1.63-1.63h5.39Zm50.23-30.16a0.729,0.729,0,0,0-.7.87c0,0.12.12,1.33,0.12,2.26a53.3,53.3,0,0,1-.64,7.49,1.856,1.856,0,0,1-1.86,1.79c-3.19.58-6.44,1.4-9.68,1.74-0.7.06-1.69,0.06-1.69,0.93,0,0.35.99,6.03,2.38,6.03a4.482,4.482,0,0,0,1.22-.4,47.3,47.3,0,0,1,6.67-2.03,0.73,0.73,0,0,1,.76.75,21.438,21.438,0,0,1-1.46,4.41,46.177,46.177,0,0,1-10.38,16.13,2.132,2.132,0,0,0-.81,1.33c0,1.33,3.71,3.54,4.76,3.54a1.349,1.349,0,0,0,.98-0.58,51.494,51.494,0,0,0,5.74-8.24,65.337,65.337,0,0,0,7.43-17.34c0.41-1.63,1.04-2.09,4.29-2.09,3.54,0,3.71,2.44,3.71,5.28,0,3.77-.92,9.8-2.61,13.11-1.45,2.9-2.9,3.59-6.09,3.59-1.16,0-2.03-.23-2.61-0.23a0.821,0.821,0,0,0-.81.99,11.448,11.448,0,0,0,1.05,4.17c0.58,1.22,1.39,1.34,2.66,1.34a11.857,11.857,0,0,0,10.97-6.27c2.55-4.64,3.48-12.47,3.48-17.75,0-3.24-.7-6.55-3.6-8.46-2.03-1.28-4.23-1.28-6.55-1.28h-0.7a1.13,1.13,0,0,1-1.28-1.16,2.936,2.936,0,0,1,.12-0.7c0.17-.92.29-1.74,0.41-2.38,0.29-2.08.4-3.01,1.5-3.82a1,1,0,0,0,.53-0.76c0-.64-1.05-0.81-1.51-0.93C3227.21,1395.15,3222.86,1394.05,3222.28,1394.05Zm23.61,0c-0.7,0-2.79,1.74-2.79,2.44a1.4,1.4,0,0,0,.52.81,49.683,49.683,0,0,1,4.12,4.46,1.609,1.609,0,0,0,.81.64c0.76,0,2.79-1.74,2.79-2.67C3251.34,1399.04,3246.47,1394.05,3245.89,1394.05Zm5.45-4.12c-0.58,0-2.79,1.74-2.79,2.44a1.335,1.335,0,0,0,.58.81c1.45,1.45,2.79,2.9,4.12,4.47a1.213,1.213,0,0,0,.81.63c0.7,0,2.79-1.74,2.79-2.66C3256.85,1394.98,3251.98,1389.93,3251.34,1389.93Zm-9.46,10.44c-0.92,0-4.11,1.92-4.11,2.96a1.842,1.842,0,0,0,.52.99c3.65,3.88,5.57,7.65,7.77,12.41a1.662,1.662,0,0,0,1.33,1.33c1.16,0,4.82-2.14,4.82-3.48C3252.21,1413.13,3244.09,1400.37,3241.88,1400.37Zm45.42,29.3c0,2.37-1.45,3.19-3.66,3.19-1.45,0-4.23-.64-4.23-2.5,0-1.8,2.84-2.26,4.17-2.26C3284.69,1428.1,3287.3,1428.16,3287.3,1429.67Zm-1.16-35.16a0.718,0.718,0,0,0-.82.82c0,0.17.06,0.4,0.06,0.58,0.23,1.45.7,7.07,0.7,8.29,0,1.28-1.34,1.39-2.73,1.39h-0.93c-3.01,0-8.17-.58-8.87-0.58-0.87,0-.93.7-0.93,1.45s0.06,4.06.58,4.41c0.52,0.41,2.96.47,4.41,0.47h0.75c2.32,0,6.44-.24,6.91-0.24,1.45,0,1.33,1.63,1.39,2.21,0.06,1.68.35,7.19,0.35,8.64a1.059,1.059,0,0,1-1.16,1.22h-0.41a14.331,14.331,0,0,0-2.26-.17c-4.53,0-9.11,2.08-9.11,7.3,0,5.34,5.05,7.54,9.69,7.54,3.48,0,7.37-1.16,8.41-4.87a0.953,0.953,0,0,1,.87-0.93c0.75,0,3.65,2.56,4.29,3.19a2.658,2.658,0,0,0,1.63.87c1.33,0,3.36-2.66,3.36-4a3.1,3.1,0,0,0-1.51-2.2,31.843,31.843,0,0,0-6.26-4.06c-1.28-.64-1.86-0.76-1.97-2.26-0.06-1.51-.47-10.39-0.47-11.55,0-1.45.7-1.68,1.97-1.85,6.85-.93,7.25-1.34,7.25-2.44,0-.87-0.4-4.87-1.56-4.87a4.459,4.459,0,0,0-.87.17,36.982,36.982,0,0,1-5.8,1.45,1.276,1.276,0,0,1-1.22-1.51v-1.62c0-2.55.29-3.54,0.64-4.12a2.338,2.338,0,0,0,.64-1.16,0.571,0.571,0,0,0-.58-0.52A55.179,55.179,0,0,0,3286.14,1394.51Zm-18.45,1.92a21.949,21.949,0,0,0-3.71-1.51,0.96,0.96,0,0,0-.76.99c-0.63,2.55-1.45,5.04-2.08,7.6a66.3,66.3,0,0,0-2.03,16.24c0,6.15.81,12.29,3.42,17.86,0.4,0.81.87,1.92,1.85,1.92,0.29,0,4.41-.7,4.41-2.96,0-.93-0.11-1.86-0.11-2.79,0-3.36,2.84-9.74,2.84-10.55,0-.7-1.86-1.86-2.49-1.86-0.7,0-1.28,1.92-1.57,2.55-0.58,1.34-.87,2.09-1.28,2.09-1.1,0-1.27-5.51-1.27-6.44a53.312,53.312,0,0,1,3.19-17.63c0.69-1.8,1.04-2.32,2.38-2.96a0.617,0.617,0,0,0,.52-0.58c0-.58-1.05-0.99-1.51-1.16C3269.14,1397.12,3268.45,1396.78,3267.69,1396.43Zm75.75-1.22c-0.58,0-2.78,1.62-2.78,2.38a1.4,1.4,0,0,0,.52.81,60.562,60.562,0,0,1,4.12,4.53,1.1,1.1,0,0,0,.81.63c0.7,0,2.78-1.74,2.78-2.61C3348.89,1400.31,3344.14,1395.21,3343.44,1395.21Zm-6.38,4.35c-0.58,0-2.84,1.62-2.84,2.38a1.524,1.524,0,0,0,.52.81,50.5,50.5,0,0,1,4.06,4.58,1.289,1.289,0,0,0,.81.64c0.76,0,2.85-1.74,2.85-2.61C3342.46,1404.67,3337.7,1399.56,3337.06,1399.56Zm-18.56-4.7c-0.81,0-.87.58-0.87,1.45v0.64c0,2.38-.52,7.95-0.7,10.62q-0.525,6.87-.52,13.74c0,4.24.29,9.86,2.9,13.34,2.38,3.08,6.38,4.47,10.21,4.47,7.54,0,14.15-4.58,17.63-11.08,0.82-1.51,2.38-5.16,2.38-6.78,0-1.75-3.54-4.7-4.81-4.7-0.87,0-.93.98-1.1,1.91a18.288,18.288,0,0,1-3.6,8.59,14.686,14.686,0,0,1-10.91,5.62c-6.26,0-6.14-7.02-6.14-11.54a122.335,122.335,0,0,1,1.62-21.12c0.29-1.39.46-1.74,1.33-2.37a0.686,0.686,0,0,0,.29-0.53c0-.69-1.16-0.87-1.97-1.04A44.394,44.394,0,0,0,3318.5,1394.86Zm58.06,34.52c1.33,0,2.72,0,2.72,1.1,0,3.13-2.26,3.88-4.93,3.88-1.5,0-4.11-.34-4.11-2.32C3370.24,1429.55,3374.76,1429.38,3376.56,1429.38Zm1.97-36.37c-0.52,0-.87.11-0.87,0.69a4.936,4.936,0,0,0,.12.93c0.17,0.99.52,4.87,0.52,5.8,0,1.57-1.45,1.45-6.56,1.45-2.84,0-7.71-.46-8.93-0.46-0.99,0-1.04.81-1.04,1.62,0,1.05.05,3.37,0.63,4.24,0.35,0.46,1.8.52,3.37,0.52h1.74c3.13,0,7.77-.29,9.8-0.29,1.51,0,1.57,2.38,1.57,4.06,0,1.27-.81,1.45-2.96,1.45h-2.61c-2.2,0-5.45-.29-6.15-0.29a0.969,0.969,0,0,0-.99,1.22,11.884,11.884,0,0,0,.76,4.06c0.46,1.04,1.57.98,3.94,0.98,2.5,0,5.75-.23,6.96-0.23,1.45,0,1.34,2.15,1.34,4,0,0.58,0,1.63-.99,1.63-0.35,0-1.68-.12-2.38-0.12-4.81,0-11.13,1.86-11.13,7.72,0,5.39,5.04,7.54,9.68,7.54,4.7,0,9.28-1.45,10.5-6.44a1.291,1.291,0,0,1,1.16-1.28c1.16,0,4.99,2.73,6.04,3.54a3.15,3.15,0,0,0,1.79.93c1.4,0,3.31-2.96,3.31-4.24,0-2.08-7.66-5.33-9.57-5.97-2.5-.81-2.73-0.35-2.73-6.38,0-1.63,1.16-1.63,3.37-1.86a51.592,51.592,0,0,0,5.97-.98c1.05-.24,1.1-0.82,1.1-2.73,0-2.2-.17-3.48-0.98-3.48a3.857,3.857,0,0,0-1.1.23,48.654,48.654,0,0,1-7.43,1.39,0.993,0.993,0,0,1-.93-0.92,19.521,19.521,0,0,1-.29-3.08c0-1.62,1.39-1.56,2.61-1.74,3.08-.35,6.67-0.87,9.69-1.51,1.1-.23,1.62-0.34,1.62-1.5,0-.99-0.17-4.76-1.45-4.76a15.658,15.658,0,0,0-2.2.46,59.154,59.154,0,0,1-6.32,1.34c-0.41.05-2.67,0.4-2.9,0.4-1.05,0-1.22-.87-1.22-1.68,0.11-4.7,1.1-3.71,1.1-4.81,0-.64-0.81-0.76-2.32-0.93C3382.13,1393.41,3379.4,1393.01,3378.53,1393.01Zm59.68,2.26a3.257,3.257,0,0,0,.12.75,56.238,56.238,0,0,1,2.03,16.19c0,4.93-.52,10.03-2.67,14.61a22,22,0,0,1-7.89,9.05,1.359,1.359,0,0,0-.87.99c0,1.22,3.37,4.06,4.29,4.06,1.34,0,3.72-2.32,4.65-3.25,7.3-7.42,8.99-15.95,8.99-25.99a76.615,76.615,0,0,0-1.8-16.7c-0.23-.87-0.35-1.57-1.45-1.57C3442.97,1393.41,3438.21,1393.99,3438.21,1395.27Zm-16.88.87c-0.4-.18-2.96-1.22-3.13-1.22-0.52,0-.7,1.04-0.75,1.45-0.24,1.45-.64,2.84-0.99,4.29a54.649,54.649,0,0,0-1.33,11.89,48.012,48.012,0,0,0,1.91,13.52c0.35,1.1.75,2.15,2.03,2.15,1.1,0,4.18-.7,4.18-2.32,0-.41-0.12-1.05-0.12-1.86,0-2.32,1.1-4.99,1.92-7.19l0.52-1.4c0.52-1.39,1.39-3.42,1.39-3.59,0-.76-1.74-1.8-2.26-1.8-0.7,0-1.74,2.49-2.03,3.13-0.23.58-.58,1.51-1.05,1.51-0.63,0-.58-2.49-0.58-2.96a30.129,30.129,0,0,1,.76-6.49,23.057,23.057,0,0,1,1.68-4.88,2.681,2.681,0,0,1,1.1-1.16,1,1,0,0,0,.7-0.75C3425.28,1397.82,3422.61,1396.72,3421.33,1396.14Zm56.15,33.24c1.33,0,2.72,0,2.72,1.1,0,3.13-2.26,3.88-4.93,3.88-1.5,0-4.11-.34-4.11-2.32C3471.16,1429.55,3475.68,1429.38,3477.48,1429.38Zm1.97-36.37c-0.52,0-.87.11-0.87,0.69a4.936,4.936,0,0,0,.12.93c0.17,0.99.52,4.87,0.52,5.8,0,1.57-1.45,1.45-6.56,1.45-2.84,0-7.71-.46-8.93-0.46-0.99,0-1.04.81-1.04,1.62,0,1.05.05,3.37,0.63,4.24,0.35,0.46,1.8.52,3.37,0.52h1.74c3.13,0,7.77-.29,9.8-0.29,1.51,0,1.57,2.38,1.57,4.06,0,1.27-.81,1.45-2.96,1.45h-2.61c-2.2,0-5.45-.29-6.15-0.29a0.969,0.969,0,0,0-.99,1.22,11.884,11.884,0,0,0,.76,4.06c0.46,1.04,1.57.98,3.94,0.98,2.5,0,5.75-.23,6.96-0.23,1.45,0,1.34,2.15,1.34,4,0,0.58,0,1.63-.99,1.63-0.35,0-1.68-.12-2.38-0.12-4.81,0-11.13,1.86-11.13,7.72,0,5.39,5.04,7.54,9.68,7.54,4.7,0,9.28-1.45,10.5-6.44a1.291,1.291,0,0,1,1.16-1.28c1.16,0,4.99,2.73,6.04,3.54a3.15,3.15,0,0,0,1.79.93c1.4,0,3.31-2.96,3.31-4.24,0-2.08-7.66-5.33-9.57-5.97-2.5-.81-2.73-0.35-2.73-6.38,0-1.63,1.16-1.63,3.37-1.86a51.592,51.592,0,0,0,5.97-.98c1.05-.24,1.1-0.82,1.1-2.73,0-2.2-.17-3.48-0.98-3.48a3.857,3.857,0,0,0-1.1.23,48.654,48.654,0,0,1-7.43,1.39,0.993,0.993,0,0,1-.93-0.92,19.521,19.521,0,0,1-.29-3.08c0-1.62,1.39-1.56,2.61-1.74,3.08-.35,6.67-0.87,9.69-1.51,1.1-.23,1.62-0.34,1.62-1.5,0-.99-0.17-4.76-1.45-4.76a15.658,15.658,0,0,0-2.2.46,59.154,59.154,0,0,1-6.32,1.34c-0.41.05-2.67,0.4-2.9,0.4-1.05,0-1.22-.87-1.22-1.68,0.11-4.7,1.1-3.71,1.1-4.81,0-.64-0.81-0.76-2.32-0.93C3483.05,1393.41,3480.32,1393.01,3479.45,1393.01Zm49.59,23.26c2.38,0,2.9,3.3,2.9,5.1s-0.7,4.76-3.02,4.76-2.72-3.19-2.72-4.93S3526.78,1416.27,3529.04,1416.27Zm0.29-24.6a0.657,0.657,0,0,0-.75.7,1.445,1.445,0,0,0,.05.46,49.215,49.215,0,0,1,.58,7.19,1.7,1.7,0,0,1-1.27,1.8c-0.52.12-14.16,0.87-15.72,0.93-2.84.12-3.37,0-3.37,1.16a33,33,0,0,0,.47,4.18c0.17,0.75.23,1.56,1.16,1.56a4.317,4.317,0,0,0,.87-0.11c2.78-.58,10.27-1.39,13.28-1.68,0.7-.06,3.37-0.35,3.83-0.35,0.64,0,1.04.29,1.04,2.43a0.742,0.742,0,0,1-.69.7c-5.86.52-8.18,5.63-8.18,10.96,0,4.24,1.86,9.69,6.9,9.69a5.363,5.363,0,0,0,1.34-.29,1.217,1.217,0,0,1,.46-0.06,0.44,0.44,0,0,1,.41.41,2.3,2.3,0,0,1-.29.87,18.7,18.7,0,0,1-4.18,5.62c-0.35.35-1.33,1.16-1.33,1.63,0,1.04,4.69,2.49,5.39,2.49,2.55,0,8.76-10.38,8.76-19.72a17.815,17.815,0,0,0-1.8-8.12,4.929,4.929,0,0,1-.58-3.02v-2.03a1.864,1.864,0,0,1,1.1-1.91c0.64-.17,6.04-0.23,7.08-0.23,3.25,0,7.6.29,8.41,0.29,0.58,0,1.28.06,1.28-3.48,0-2.61-.41-2.96-1.34-2.96-2.49,0-8.7.35-11.54,0.46-0.64,0-2.9.18-3.37,0.18a1.53,1.53,0,0,1-1.68-1.69c0-1.21,0-2.49.06-3.71,0.06-1.68.52-2.14,0.93-2.43a0.916,0.916,0,0,0,.35-0.64c0-.52-1.74-0.7-3.14-0.81S3530.66,1391.67,3529.33,1391.67Zm36.54,35.68a5.1,5.1,0,0,1,5.16,5.16A5.16,5.16,0,1,1,3565.87,1427.35Zm0-2.9a8.06,8.06,0,1,0,8.06,8.06A8.036,8.036,0,0,0,3565.87,1424.45Z" transform="translate(-2503.09 -1389.94)"/>
</svg>
