<svg xmlns="http://www.w3.org/2000/svg" width="1131.22" height="52.84" viewBox="0 0 1131.22 52.84">
  <defs>
    <style>
      .cls-1 {
        fill-rule: evenodd;
      }
    </style>
  </defs>
  <path id="そして_新しい価値を創造する集団になること_" data-name="そして、新しい価値を創造する集団になること。" class="cls-1" d="M2529.76,1393.57a4.131,4.131,0,0,0-1.34.52c-2.72,1.27-12.64,2.67-15.95,2.96-1.04.11-1.62,0.17-1.62,1.27s0.75,5.34,2.2,5.34a5.363,5.363,0,0,0,1.34-.29c0.87-.23,6.9-1.86,7.36-1.86a0.485,0.485,0,0,1,.53.47,1.074,1.074,0,0,1-.41.69c-4.58,4.24-10.56,9.92-15.43,13.69a7.221,7.221,0,0,1-3.71,1.74c-1.92.47-2.67,0.53-2.67,1.4,0,1.1,1.04,5.1,2.38,5.1a4.931,4.931,0,0,0,1.56-.46c2.32-.93,7.89-2.79,10.27-3.48,0.64-.18,3.66-1.05,4.06-1.05a0.557,0.557,0,0,1,.58.52,0.686,0.686,0,0,1-.29.53c-2.78,2.49-5.04,5.04-5.04,9.04,0,4.99,3.77,8.13,8.06,9.75a28.63,28.63,0,0,0,7.77,1.8,1.651,1.651,0,0,0,1.74-1.16,22.643,22.643,0,0,0,1.05-4.24c0-.75-0.58-0.75-1.16-0.81-3.72-.23-11.26-0.93-11.26-5.97,0-4.24,4.53-7.83,7.83-9.81a32.043,32.043,0,0,1,11.95-3.94c1.74-.23,2.32-0.23,2.32-1.34,0-.52-0.46-3.94-0.58-4.46a1.045,1.045,0,0,0-.81-0.87,3.506,3.506,0,0,0-.7.11c-2.03.64-21.34,5.8-22.04,5.8a0.464,0.464,0,0,1-.52-0.4,1.7,1.7,0,0,1,.64-0.93c2.72-2.2,11.77-10.38,13.92-11.6,1.22-.7,2.38-1.22,2.38-2.03C2534.17,1398.27,2531.5,1393.57,2529.76,1393.57Zm33.52,1.74c-0.81,0-.87.58-0.87,1.45v0.64c0,2.37-.52,7.94-0.7,10.61q-0.51,6.87-.52,13.75c0,4.23.29,9.86,2.9,13.34,2.38,3.07,6.38,4.47,10.21,4.47,7.54,0,14.16-4.59,17.64-11.08,0.81-1.51,2.37-5.17,2.37-6.79,0-1.74-3.53-4.7-4.81-4.7-0.87,0-.99.99-1.16,1.92a18.317,18.317,0,0,1-3.54,8.58,14.693,14.693,0,0,1-10.9,5.63c-6.27,0-6.15-7.02-6.15-11.55,0-3.3.52-21.69,2.55-23.2a1.252,1.252,0,0,0,.7-0.87,1.213,1.213,0,0,0-1.16-.81A48.82,48.82,0,0,0,2563.28,1395.31Zm41.59,7.6c0,0.58.52,6.09,1.91,6.09a4.337,4.337,0,0,0,.87-0.12,114.588,114.588,0,0,1,12.82-2.38c0.64-.11,3.25-0.52,3.71-0.52a0.819,0.819,0,0,1,.87.7,3.869,3.869,0,0,1-1.04,1.39,25.731,25.731,0,0,0-6.38,16.65c0,11.31,8.47,14.44,18.33,14.44a1.806,1.806,0,0,0,1.68-.58,13.85,13.85,0,0,0,1.04-5.16c0-.93-0.46-0.99-1.33-0.99-0.58,0-1.86.06-2.9,0.06-5.86,0-10.21-1.63-10.21-8.35a21.723,21.723,0,0,1,2.78-10.21,17.617,17.617,0,0,1,9.92-8.65c3.25-1.16,6.21-1.16,9.63-1.21,1.34-.06,2.55.05,2.55-1.22a35.906,35.906,0,0,0-.46-4.24c-0.17-.69-0.29-1.45-1.16-1.45a2.8,2.8,0,0,0-.7.06c-4.35.7-8.81,1.28-13.16,1.8-8.47.99-16.94,1.86-25.41,2.38C2605.68,1401.57,2604.87,1401.4,2604.87,1402.91Zm51.5,27.84a1.65,1.65,0,0,0,1.04,1.1,35.689,35.689,0,0,1,8.82,7.89,1.9,1.9,0,0,0,1.16.87c1.34,0,4.24-3.19,4.24-4.47,0-1.45-9.98-9.45-11.32-9.45C2659.33,1426.69,2656.37,1429.76,2656.37,1430.75Zm62.41-23.61a16.26,16.26,0,0,0-.81-2.55c-0.76-1.92-.93-2.44-1.8-2.44-0.81,0-3.89.64-3.89,1.63a7.429,7.429,0,0,0,.23.81c0.35,0.98.58,1.62,0.76,2.2,0.58,1.8.64,1.92,1.62,1.92a9.537,9.537,0,0,0,2.61-.53C2718.08,1408.01,2718.78,1407.84,2718.78,1407.14Zm26.68,7.71a1.408,1.408,0,0,1,1.63,1.63v18.27c0,2.15-.18,4.35-0.18,6.5,0,1.74.7,1.8,3.08,1.8,2.43,0,3.07-.06,3.07-1.8,0-2.15-.17-4.35-0.17-6.5v-18.27a1.343,1.343,0,0,1,1.5-1.57c1.05,0,2.03.12,3.02,0.12,1.51,0,1.45-.76,1.45-2.84,0-2.03.06-2.85-1.45-2.85-1.57,0-3.48.12-5.34,0.12h-8.23a1.381,1.381,0,0,1-1.63-1.62v-4.24c0-2.9.12-3.19,2.21-3.42a66.266,66.266,0,0,0,11.08-2.44,3.3,3.3,0,0,1,.69-0.11,2.856,2.856,0,0,1,.99.17,4.488,4.488,0,0,0,.87.18,0.706,0.706,0,0,0,.81-0.7c0-.7-1.16-1.86-1.57-2.44-0.52-.75-1.79-2.61-2.61-2.61a1.109,1.109,0,0,0-.63.18c-2.73,1.45-10.56,3.01-13.75,3.36-3.13.35-3.89,0.64-3.89,3.08v15.71c0,8.42-1.27,16.71-6.67,23.5a2.8,2.8,0,0,0-.81,1.45c0,1.1,3.54,2.55,4.52,2.55a1.377,1.377,0,0,0,1.16-.7,30.331,30.331,0,0,0,3.43-5.8,48.342,48.342,0,0,0,4.17-19.14,1.412,1.412,0,0,1,1.63-1.57h1.62Zm-21.58-19.6c0-1.05,0-1.68.64-2.15a1.3,1.3,0,0,0,.7-0.81c0-.46-0.47-0.64-1.51-0.75-0.93-.12-4.24-0.41-4.99-0.41-0.52,0-.99.12-0.99,0.75v0.53a14.506,14.506,0,0,1,.24,2.78,1.388,1.388,0,0,1-1.63,1.57h-0.98c-1.69,0-3.31-.12-4.99-0.12-1.45,0-1.39.81-1.39,2.55s-0.06,2.56,1.39,2.56c1.68,0,3.3-.12,4.99-0.12h11.37c1.68,0,3.3.12,4.98,0.12,1.4,0,1.4-.76,1.4-2.56s0-2.55-1.4-2.55c-1.68,0-3.3.12-4.98,0.12h-1.22A1.371,1.371,0,0,1,2723.88,1395.25Zm-8.35,29.93a45.132,45.132,0,0,1-6.55,9.17,1.519,1.519,0,0,0-.7,1.1c0,1.16,2.9,3.42,3.83,3.42,1.1,0,4.58-5.92,5.28-7.08a0.342,0.342,0,0,1,.34-0.17,0.45,0.45,0,0,1,.41.46v2.85c0,2.14-.17,4.35-0.17,6.49,0,1.63.63,1.63,2.96,1.63s2.9,0,2.9-1.63c0-2.2-.12-4.35-0.12-6.49v-3.78a0.49,0.49,0,0,1,.41-0.58,0.858,0.858,0,0,1,.46.24c0.52,0.75,2.55,3.71,3.42,3.71,1.05,0,3.08-2.73,3.08-3.71a1.009,1.009,0,0,0-.53-0.82,37.315,37.315,0,0,1-4.58-4.98,0.861,0.861,0,0,1-.17-0.53,0.718,0.718,0,0,1,.87-0.69c1.56,0,3.19.11,4.81,0.11,1.45,0,1.39-.75,1.39-2.66s0.06-2.73-1.39-2.73c-1.85,0-3.71.17-5.62,0.17h-0.53a1.367,1.367,0,0,1-1.56-1.33,1.036,1.036,0,0,1,.52-0.93,0.967,0.967,0,0,0,.64-0.75c0-.64-0.93-0.7-1.39-0.7-1.05-.06-3.66-0.23-4.65-0.23-0.4,0-.98,0-0.98.7a1.4,1.4,0,0,0,.06.52,10.053,10.053,0,0,1,.11,1.22,1.36,1.36,0,0,1-1.56,1.5h-0.76c-1.91,0-3.77-.17-5.62-0.17-1.45,0-1.4.7-1.4,2.73,0,1.97-.05,2.66,1.4,2.66,1.21,0,3.24-.11,4.52-0.11a0.882,0.882,0,0,1,.99.81A2,2,0,0,1,2715.53,1425.18Zm-0.64-16.01c-2.03,0-4.06-.12-6.09-0.12-1.45,0-1.45.7-1.45,2.56,0,1.79-.06,2.55,1.45,2.55,2.03,0,4.06-.12,6.09-0.12h12.01c1.97,0,4,.12,6.03.12,1.51,0,1.45-.64,1.45-2.55,0-1.8.06-2.56-1.39-2.56-0.35,0-3.48.12-3.89,0.12a0.9,0.9,0,0,1-1.04-.87,21.341,21.341,0,0,1,1.1-2.78,1.211,1.211,0,0,1,.81-0.76,0.934,0.934,0,0,0,.76-0.69c0-.82-4.41-1.98-5.22-1.98-0.52,0-.58.41-0.7,0.82a28.84,28.84,0,0,1-1.97,4.98,2.1,2.1,0,0,1-2.26,1.28h-5.69Zm59.51-13.86c-0.81,0-.87.58-0.87,1.45v0.64c0,2.37-.52,7.94-0.7,10.61q-0.51,6.87-.52,13.75c0,4.23.29,9.86,2.9,13.34,2.38,3.07,6.38,4.47,10.21,4.47,7.54,0,14.16-4.59,17.64-11.08,0.81-1.51,2.37-5.17,2.37-6.79,0-1.74-3.53-4.7-4.81-4.7-0.87,0-.99.99-1.16,1.92a18.317,18.317,0,0,1-3.54,8.58,14.693,14.693,0,0,1-10.9,5.63c-6.27,0-6.15-7.02-6.15-11.55,0-3.3.52-21.69,2.55-23.2a1.252,1.252,0,0,0,.7-0.87,1.213,1.213,0,0,0-1.16-.81A48.82,48.82,0,0,0,2774.4,1395.31Zm71.58,9.92a0.966,0.966,0,0,0,.52.87c5.51,4.23,7.89,9.74,8.58,16.53,0.12,1.39.06,2.2,1.92,2.2a12.188,12.188,0,0,0,3.24-.52c0.99-.29,1.57-0.58,1.57-1.68,0-3.48-1.8-8.99-3.42-12.07-2.79-5.33-7.66-8.99-8.93-8.99C2848.3,1401.57,2845.98,1404.12,2845.98,1405.23Zm-26.17-3.77a0.721,0.721,0,0,0-.81.63c-0.11.53-.29,7.89-0.29,8.82,0,6.15.47,13.46,3.37,18.91,1.91,3.54,5.28,7.43,9.57,7.43,2.72,0,4.52-1.74,6.2-3.66,0.82-.93,3.43-3.94,3.43-5.05,0-1.04-2.96-3.42-4.18-3.42-0.75,0-1.22.87-1.57,1.45-0.69,1.28-2.37,3.83-4,3.83-2.03,0-3.94-3.42-4.64-5.05-1.51-3.65-1.86-8.23-1.86-12.12a43.227,43.227,0,0,1,.47-6.15c0.17-.98.23-2.14,1.04-2.78a1.013,1.013,0,0,0,.58-0.76c0-.58-0.81-0.69-1.27-0.81C2824.86,1402.56,2820.57,1401.46,2819.81,1401.46Zm89.85,29.93a1.667,1.667,0,0,1-1.62,1.62h-0.82a1.538,1.538,0,0,1-1.56-1.62V1414.8a1.541,1.541,0,0,1,1.56-1.63h0.82a1.668,1.668,0,0,1,1.62,1.63v16.59Zm-20.19,1.62a1.667,1.667,0,0,1-1.62-1.62V1414.8a1.668,1.668,0,0,1,1.62-1.63h0.7a1.655,1.655,0,0,1,1.62,1.63v16.59a1.653,1.653,0,0,1-1.62,1.62h-0.7Zm9.4-19.84a1.63,1.63,0,0,1,1.63,1.63v16.59a1.628,1.628,0,0,1-1.63,1.62h-0.69a1.555,1.555,0,0,1-1.63-1.62V1414.8a1.558,1.558,0,0,1,1.63-1.63h0.69Zm1.63-7.02a1.593,1.593,0,0,1-1.63,1.63h-0.69a1.527,1.527,0,0,1-1.63-1.63v-5.45a1.55,1.55,0,0,1,1.63-1.62h0.69a1.622,1.622,0,0,1,1.63,1.62v5.45Zm-23.79.06a75.642,75.642,0,0,0,4.01-10.61,3.114,3.114,0,0,1,.52-1.34,0.275,0.275,0,0,1,.23-0.11c0.12,0,.35.11,0.35,0.58a11.169,11.169,0,0,0-.06,1.45c0,2.26-.12,3.07,1.39,3.07,2.15,0,4.24-.23,6.38-0.17a1.4,1.4,0,0,1,1.63,1.62v5.45a1.364,1.364,0,0,1-1.57,1.63c-1.39.06-2.78-.06-4.18-0.06-1.97,0-3.13.46-3.13,2.61,0,1.45.12,2.96,0.12,4.41v20.59c0,1.92-.12,3.83-0.12,5.69,0,1.33.76,1.33,2.84,1.33,2.21,0,2.85,0,2.85-1.39v-0.99a1.335,1.335,0,0,1,1.56-1.56h18.45a1.335,1.335,0,0,1,1.56,1.56v1.05c0,1.39.64,1.39,2.85,1.39,2.26,0,2.9,0,2.9-1.39,0-1.86-.12-3.72-0.12-5.57v-20.71c0-1.45.06-2.96,0.06-4.41,0-2.2-1.16-2.61-3.13-2.61-1.4,0-2.79.12-4.18,0.06-1.1,0-1.51-.52-1.51-1.63v-5.45a1.361,1.361,0,0,1,1.57-1.62h0.75c2.32,0,4.58.17,6.9,0.17,1.46,0,1.4-.69,1.4-2.9s0.06-2.84-1.4-2.84c-2.32,0-4.58.11-6.9,0.11h-18.68c-2.32,0-4.64-.11-6.96-0.11a0.651,0.651,0,0,1-.4-0.47,1.189,1.189,0,0,0-.99-0.87,40.784,40.784,0,0,0-5.1-1.45,1.1,1.1,0,0,0-.99,1.16,57.231,57.231,0,0,1-9.86,20.89,2.933,2.933,0,0,0-.99,1.68c0,0.93,2.09,4.7,3.25,4.7,0.87,0,1.51-.99,2.61-2.44a0.447,0.447,0,0,1,.41-0.23,0.487,0.487,0,0,1,.46.58v16.3c0,2.67-.11,5.28-0.11,7.95,0,1.68.75,1.68,3.01,1.68,2.44,0,3.02-.06,3.02-1.8,0-2.61-.12-5.22-0.12-7.83v-21.7c0-1.62.06-2.66,0.64-3.07a1.187,1.187,0,0,0,.7-0.81c0-.7-0.93-0.7-1.4-0.76a0.563,0.563,0,0,1-.58-0.52A0.524,0.524,0,0,1,2876.71,1406.21Zm76.04,19.32a1.342,1.342,0,0,1,1.4-1.39h7.71a1.339,1.339,0,0,1,1.39,1.39v0.46a1.339,1.339,0,0,1-1.39,1.39h-7.71a1.342,1.342,0,0,1-1.4-1.39v-0.46Zm0-7.08a1.342,1.342,0,0,1,1.4-1.39h7.71a1.339,1.339,0,0,1,1.39,1.39v0.41a1.292,1.292,0,0,1-1.39,1.33h-7.71a1.3,1.3,0,0,1-1.4-1.33v-0.41Zm10.5-6.67a1.339,1.339,0,0,1-1.39,1.39h-7.71a1.342,1.342,0,0,1-1.4-1.39v-0.23a1.342,1.342,0,0,1,1.4-1.39h7.71a1.339,1.339,0,0,1,1.39,1.39v0.23Zm-11.31-10.27a1.361,1.361,0,0,1,1.62,1.57v1.04a1.358,1.358,0,0,1-1.56,1.57c-0.64,0-1.34-.06-1.97-0.06-1.92,0-2.5.76-2.5,2.61,0,1.34.06,2.67,0.06,3.95v13.22c0,1.34-.06,2.67-0.06,4,0,2.03.76,2.61,2.61,2.61,1.16,0,2.26-.11,3.42-0.11h8.94c1.16,0,2.38.11,3.54,0.11,2.08,0,2.49-.87,2.49-2.78,0-1.28-.06-2.55-0.06-3.83v-13.22c0-1.28.06-2.61,0.06-3.95,0-1.91-.58-2.61-2.55-2.61-1.16,0-2.32.06-3.48,0.06h-1.68a1.365,1.365,0,0,1-1.63-1.57v-1.04a1.368,1.368,0,0,1,1.63-1.57h4.52c2.09,0,4.18.12,6.26,0.12,1.34,0,1.34-.64,1.34-2.49s0-2.44-1.34-2.44c-2.08,0-4.17.12-6.26,0.12h-4.52c-1.16,0-1.57-.47-1.63-1.63,0.06-.93,0-1.57.64-2.09a1.18,1.18,0,0,0,.75-0.87c0-.69-0.81-0.69-1.45-0.75-1.04-.12-3.88-0.35-4.75-0.35-0.58,0-1.05.12-1.05,0.81v0.52a21.86,21.86,0,0,1,.23,2.85,1.382,1.382,0,0,1-1.62,1.51h-6.38c-2.09,0-4.18-.12-6.26-0.12-1.4,0-1.34.75-1.34,2.44,0,1.79-.06,2.49,1.34,2.49,2.08,0,4.17-.12,6.26-0.12h6.38Zm-24.13,32.95c0,2.38-.12,4.7-0.12,7.02,0,1.68.53,1.8,2.96,1.8s2.96-.12,2.96-1.8c0-2.32-.12-4.64-0.12-7.02v-22.51c0-1.62.06-2.55,0.64-3.01a1.082,1.082,0,0,0,.7-0.81c0-.64-0.93-0.7-1.39-0.7a0.525,0.525,0,0,1-.53-0.52,0.722,0.722,0,0,1,.06-0.35,73.657,73.657,0,0,0,4.41-10.91c0.29-.92.35-1.33,1.1-1.62a1.039,1.039,0,0,0,.87-0.87c0-.64-0.92-0.81-1.39-0.99a30.8,30.8,0,0,0-4.81-1.21,1.057,1.057,0,0,0-.87,1.04,56.159,56.159,0,0,1-10.5,21.23,3.178,3.178,0,0,0-.93,1.74c0,1.28,2.15,4.29,3.48,4.29,0.93,0,2.09-1.85,2.61-2.61a0.611,0.611,0,0,1,.41-0.23,0.523,0.523,0,0,1,.46.58v17.46Zm15.55,6.67a0.937,0.937,0,0,1,1.1-1.04h21.63c2.21,0,4.41.11,6.62,0.11,1.22,0,1.22-.58,1.22-2.55,0-1.91,0-2.49-1.22-2.49-2.21,0-4.41.11-6.62,0.11h-21.28a1.358,1.358,0,0,1-1.57-1.62V1413.4c0-1.56.06-2.43,0.64-2.84a1.076,1.076,0,0,0,.64-0.81c0-.64-0.87-0.7-1.4-0.75-0.92-.06-3.71-0.24-4.58-0.24a0.776,0.776,0,0,0-.98.76c0,0.17.05,0.35,0.05,0.52,0.12,1.22.18,2.55,0.18,3.89v20.59c0,2.2-.12,4.41-0.12,6.61,0,1.74.64,1.74,2.84,1.74C2942.83,1442.87,2943.3,1442.87,2943.36,1441.13Zm54.81-50c-0.58,0-.7.58-0.82,1.22a31.321,31.321,0,0,1-3.13,7.48c-0.52.7-2.09,0.76-3.59,0.76h-1.69c-1.68,0-3.19-.12-4.17-0.12-1.45,0-1.69.35-1.69,2.67,0,2.96.24,3.25,1.51,3.25,1.8,0,3.14-.18,4.06-0.18,0.82,0,1.28.18,1.28,0.7,0,1.1-8.41,12.76-9.75,14.21a2.417,2.417,0,0,0-.75,1.28c0,1.04,3.89,3.36,4.93,3.36a0.951,0.951,0,0,0,.81-0.58,38,38,0,0,1,4.88-6.79c2.26-2.32,7.59-5.1,10.84-5.1a2.4,2.4,0,0,1,2.55,1.97,7.755,7.755,0,0,1,.29,1.63,1.483,1.483,0,0,1-1.04,1.33c-1.22.58-2.44,1.22-3.6,1.91-4,2.38-8.23,5.22-8.23,10.44,0,3.95,2.26,6.73,5.8,8.3a21.538,21.538,0,0,0,9.16,1.51c2.5,0,8.94-.23,11.14-0.76,1.28-.29,1.33-0.75,1.33-2.49,0-3.31-.4-3.95-1.16-3.95a7,7,0,0,0-1.16.12,42.31,42.31,0,0,1-10.79,1.45c-2.78,0-8.41-.35-8.41-4.23,0-3.6,5.98-6.15,6.27-6.15a0.8,0.8,0,0,1,.75.98c0,1.22-.11,2.5-0.11,3.77,0,1.51,1.04,1.63,3.54,1.63,2.2,0,2.49-.23,2.49-2.32,0-1.8-.06-3.54-0.06-5.34v-0.75c0-1.16.47-1.51,1.51-1.92,2.26-.98,4.52-1.97,6.84-2.84,0.29-.11.58-0.17,0.82-0.29,1.1-.35,1.74-0.58,1.74-1.27,0-.99-1.4-5.46-2.5-5.46a4.971,4.971,0,0,0-1.51.58c-0.92.52-6.09,3.31-6.78,3.31a0.961,0.961,0,0,1-.87-0.99c-0.76-3.65-2.9-5.22-6.62-5.22a16.056,16.056,0,0,0-6.32,1.51,2.26,2.26,0,0,1-1.04.35,0.46,0.46,0,0,1-.47-0.41,18.718,18.718,0,0,1,1.98-3.36,2.044,2.044,0,0,1,1.74-.93c3.65-.41,7.3-1.04,10.96-1.8,1.22-.23,3.07-0.46,3.07-1.45a18.889,18.889,0,0,0-.46-3.13c-0.17-.81-0.46-1.74-1.45-1.74a4.27,4.27,0,0,0-1.45.35,42.669,42.669,0,0,1-6.73,1.62,0.562,0.562,0,0,1-.64-0.58,3.936,3.936,0,0,1,.58-1.33c0.76-1.34.99-1.63,1.92-1.98a0.917,0.917,0,0,0,.69-0.69C3004.66,1393.8,2998.69,1391.13,2998.17,1391.13Zm72.67,41.59c0,3.31,0,4.18-2.55,4.18-1.45,0-2.67-.23-3.19-0.23-1.16,0-1.22.98-1.22,1.91,0,4.58,1.57,4.47,3.71,4.47,4.76,0,9.17-.82,9.17-6.56,0-1.39-.12-2.78-0.12-4.18v-35.78c0-2.33.06-2.85,0.7-3.25a1.126,1.126,0,0,0,.81-0.87c0-.82-1.04-0.87-2.67-0.99a7.139,7.139,0,0,1-1.1-.06,23.7,23.7,0,0,0-2.78-.17c-0.53,0-.99.06-0.99,0.69a1.6,1.6,0,0,0,.06.53,23.832,23.832,0,0,1,.17,3.65v36.66Zm-9.8-9.4c0,2.21-.12,4.35-0.12,6.56,0,1.51.58,1.56,2.73,1.56s2.67-.05,2.67-1.62c0-2.2-.12-4.35-0.12-6.5v-20.7c0-1.98.06-2.38,0.64-2.73a1.284,1.284,0,0,0,.87-0.87,0.85,0.85,0,0,0-.93-0.7c-0.81-.11-4.29-0.4-5.04-0.4a0.739,0.739,0,0,0-.93.69c0,0.12.06,0.29,0.06,0.47a30.265,30.265,0,0,1,.17,3.25v20.99ZM3043,1436.78a1.646,1.646,0,0,1-1.62-1.62v-1.34a1.527,1.527,0,0,1,1.62-1.56h6.44a1.533,1.533,0,0,1,1.62,1.56v1.34a1.653,1.653,0,0,1-1.62,1.62H3043Zm-3.83-21.34a1.1,1.1,0,0,1-1.16-1.17v-0.34a1.119,1.119,0,0,1,1.16-1.11h10.91a1.042,1.042,0,0,1,1.1,1.11v0.34a1.059,1.059,0,0,1-1.1,1.17h-10.91Zm0.41,6.14a1.331,1.331,0,0,1-1.57-1.39,1.422,1.422,0,0,1,1.63-1.33h10.49a0.922,0.922,0,0,1,1.05,1.1v0.52a0.935,0.935,0,0,1-1.1,1.1h-10.5Zm11.37,20.02c-0.06,1.27.52,1.21,2.72,1.21s3.02,0.06,3.02-.98c0-.23-0.12-1.92-0.12-2.96v-5.92c0-.81.06-1.56,0.06-2.2,0-1.51-.41-2.44-3.25-2.44-1.27,0-2.49.06-3.71,0.06h-6.61c-1.22,0-2.44-.06-3.66-0.06h-0.93a1.018,1.018,0,0,1-1.1-1.22v-0.23a1.386,1.386,0,0,1,1.57-1.27h10.21c1.51,0,2.96.11,4.46,0.11s3.25-.06,3.25-2.03c0-1.04-.11-2.03-0.11-3.01v-6.27c0-1.1.11-2.2,0.11-3.31,0-2.08-1.56-2.26-3.3-2.26-1.45,0-2.96.12-4.41,0.12h-9.17c-1.62,0-3.19-.18-4.81-0.18-1.8,0-2.84.35-2.84,2.38,0,1.05.05,2.15,0.05,3.25v3.66c0,6.32-1.1,13.16-4.58,18.56a4.135,4.135,0,0,0-.75,1.39c0,1.04,2.96,3.25,4.29,3.25a1.955,1.955,0,0,0,1.57-1.34,39.516,39.516,0,0,0,2.43-4.98,0.388,0.388,0,0,1,.41-0.29c0.4,0,.4.52,0.4,0.81v3.42c0,0.87-.11,2.78-0.11,2.96,0,1.04.93,0.98,2.78,0.98,2.21,0,2.73,0,2.67-1.21a0.819,0.819,0,0,1,.87-0.87h7.72A0.79,0.79,0,0,1,3050.95,1441.6Zm-5.51-42.87c0.98,0.99,1.91,1.86,2.95,2.78a0.867,0.867,0,0,1,.24.53,0.6,0.6,0,0,1-.64.52h-5.8a8.269,8.269,0,0,1-1.22,0,0.589,0.589,0,0,1-.64-0.52,0.83,0.83,0,0,1,.23-0.58c0.99-.87,1.92-1.8,2.85-2.73a1.406,1.406,0,0,1,1.04-.52A1.392,1.392,0,0,1,3045.44,1398.73Zm-8.59,6.61a1.037,1.037,0,0,0,1.22,1.22c1.39,0,2.78-.12,4.12-0.12h4.35c1.33,0,2.72.12,4.12,0.12,1.04,0,1.16-.41,1.21-1.33a0.581,0.581,0,0,1,.41-0.53,0.431,0.431,0,0,1,.29.12c0.75,0.52,3.02,2.09,3.77,2.09,1.39,0,3.48-2.96,3.48-4.18a1.538,1.538,0,0,0-1.04-1.1,41.722,41.722,0,0,1-10.33-7.19,0.226,0.226,0,0,1-.06-0.24,0.271,0.271,0,0,1,.24-0.29,0.815,0.815,0,0,0,.81-0.69c0-.7-0.64-0.81-2.15-1.34a23.25,23.25,0,0,0-3.59-1.1,1.657,1.657,0,0,0-1.22.93,47.54,47.54,0,0,1-13.63,11.83c-0.47.24-1.34,0.64-1.34,1.28,0,1.16,1.97,3.83,3.19,3.83,0.99,0,4.64-2.84,5.57-3.6a1.2,1.2,0,0,0,.23-0.06A0.385,0.385,0,0,1,3036.85,1405.34Zm61.54-3.42c0-.93-3.48-4.47-4.29-5.28s-4.7-4.87-5.57-4.87c-0.99,0-3.6,2.2-3.6,3.13a1.7,1.7,0,0,0,.81,1.16,63.731,63.731,0,0,1,7.78,8.06,1.848,1.848,0,0,0,1.21.87C3095.84,1404.99,3098.39,1402.91,3098.39,1401.92Zm-8.64,15.72a1.379,1.379,0,0,1,1.62,1.57v9.74a2.478,2.478,0,0,1-1.22,2.44c-1.8,1.1-4.17,2.84-5.39,3.25-0.99.34-1.45,0.63-1.45,1.21a11.487,11.487,0,0,0,1.22,3.08c1.16,2.32,1.45,3.01,2.08,3.01a0.82,0.82,0,0,0,.82-0.69,1.484,1.484,0,0,1,.81-1.39c1.68-1.22,3.19-2.5,4.81-3.77a1.283,1.283,0,0,1,.93-0.35,1.342,1.342,0,0,1,1.04.69,8.232,8.232,0,0,0,4.47,3.66c3.19,1.22,8.41,1.51,17.23,1.51h15.25c2.44,0,3.49-.35,3.49-4.01,0-.98-0.12-1.62-1.16-1.62-0.41,0-3.54.12-4.3,0.17-3.71.12-7.48,0.18-11.19,0.18-9.63,0-14.68-.41-16.94-1.1-3.83-1.22-4.7-3.49-4.7-7.26v-8.35c0-1.56.12-3.19,0.12-4.76,0-2.26-1.22-2.78-3.25-2.78-1.16,0-2.32.12-3.48,0.12h-1.97c-0.99,0-1.98-.12-2.9-0.12-1.34,0-1.34.7-1.34,2.84,0,2.03,0,2.85,1.34,2.85,0.98,0,1.91-.12,2.9-0.12h1.16Zm21.05-20.24a1.089,1.089,0,0,1-1.22-1.05,1.072,1.072,0,0,1,.06-0.46c0.29-1.11.35-1.45,1.22-1.8a0.556,0.556,0,0,0,.46-0.52c0-.7-0.98-0.87-2.72-1.28a18.288,18.288,0,0,0-2.67-.64,0.788,0.788,0,0,0-.81.81,45.785,45.785,0,0,1-4.06,11.32,2.117,2.117,0,0,0-.35,1.04c0,1.16,3.6,2.03,4.18,2.03,0.87,0,1.27-1.39,2.08-3.19a2.055,2.055,0,0,1,2.21-1.39h3.42a1.394,1.394,0,0,1,1.62,1.62v2.26a1.4,1.4,0,0,1-1.62,1.63h-5.57c-2.09,0-4.17-.12-6.2-0.12-1.4,0-1.4.64-1.4,2.5,0,1.91-.05,2.55,1.34,2.55,2.09,0,4.17-.12,6.26-0.12h20.94c2.03,0,4.12.12,6.21,0.12,1.45,0,1.39-.7,1.39-2.55,0-1.8.06-2.5-1.39-2.5-2.09,0-4.18.12-6.21,0.12h-6.44a1.362,1.362,0,0,1-1.56-1.63v-2.26a1.355,1.355,0,0,1,1.56-1.62h1.74c2.21,0,4.35.11,6.56,0.11,1.27,0,1.27-.58,1.27-2.55s0-2.55-1.27-2.55c-2.21,0-4.35.12-6.56,0.12h-1.74a1.341,1.341,0,0,1-1.56-1.57c0-1.57-.06-2.5.64-3.08a1.141,1.141,0,0,0,.69-0.81c0-.69-0.87-0.75-1.33-0.81-0.99-.12-4.18-0.41-5.05-0.41a0.784,0.784,0,0,0-.99.76c0,0.17.06,0.46,0.06,0.64a24.766,24.766,0,0,1,.23,3.65,1.4,1.4,0,0,1-1.62,1.63h-1.8Zm0.35,29.29a1.655,1.655,0,0,1-1.62-1.63v-2.61a1.527,1.527,0,0,1,1.62-1.56h11.66a1.527,1.527,0,0,1,1.62,1.56v2.61a1.655,1.655,0,0,1-1.62,1.63h-11.66Zm13.17,5.22c0.11,1.04.46,1.1,3.01,1.1,2.27,0,3.02,0,3.02-1.28,0-1.16-.17-2.78-0.17-4.17v-5.74c0-1.11.11-2.21,0.11-3.31,0-2.09-1.39-2.44-3.19-2.44-1.45,0-2.9.12-4.35,0.12h-11.54c-1.45,0-2.9-.12-4.35-0.12-1.86,0-3.13.41-3.13,2.5,0,1.1.05,2.14,0.05,3.25v5.74c0,1.39-.11,2.78-0.11,4.17,0,1.28.64,1.28,2.96,1.28,2.26,0,2.84,0,3.01-.87a0.922,0.922,0,0,1,.93-0.93h13.05A0.672,0.672,0,0,1,3124.32,1431.91Zm35.2-15.2c2.38,0,2.9,3.31,2.9,5.11s-0.69,4.75-3.01,4.75-2.73-3.19-2.73-4.93S3157.26,1416.71,3159.52,1416.71Zm0.29-24.59a0.654,0.654,0,0,0-.75.69,1.268,1.268,0,0,0,.06.47,50.524,50.524,0,0,1,.58,7.19,1.708,1.708,0,0,1-1.28,1.8c-0.52.11-14.15,0.87-15.72,0.93-2.84.11-3.36,0-3.36,1.16a34.751,34.751,0,0,0,.46,4.17c0.17,0.76.23,1.57,1.16,1.57a4.337,4.337,0,0,0,.87-0.12c2.78-.58,10.27-1.39,13.28-1.68,0.7-.06,3.37-0.35,3.83-0.35,0.64,0,1.05.29,1.05,2.44a0.741,0.741,0,0,1-.7.69c-5.86.53-8.18,5.63-8.18,10.97,0,4.23,1.86,9.68,6.9,9.68a5.363,5.363,0,0,0,1.34-.29,1.445,1.445,0,0,1,.46-0.05,0.439,0.439,0,0,1,.41.4,2.3,2.3,0,0,1-.29.87,18.573,18.573,0,0,1-4.18,5.63c-0.35.35-1.33,1.16-1.33,1.62,0,1.05,4.7,2.5,5.39,2.5,2.55,0,8.76-10.39,8.76-19.72a17.856,17.856,0,0,0-1.8-8.13,4.9,4.9,0,0,1-.58-3.01v-2.03a1.872,1.872,0,0,1,1.11-1.92c0.63-.17,6.03-0.23,7.07-0.23,3.25,0,7.6.29,8.41,0.29,0.58,0,1.28.06,1.28-3.48,0-2.61-.41-2.96-1.34-2.96-2.49,0-8.7.35-11.54,0.47-0.64,0-2.9.17-3.36,0.17a1.53,1.53,0,0,1-1.69-1.68c0-1.22,0-2.49.06-3.71,0.06-1.69.52-2.15,0.93-2.44a0.863,0.863,0,0,0,.35-0.64c0-.52-1.74-0.69-3.13-0.81S3161.15,1392.12,3159.81,1392.12Zm55.39,40.72a1.737,1.737,0,0,1-1.56,1.97c-1.74,0-4.53-.99-4.53-3.08a2.406,2.406,0,0,1,2.5-2.32A3.544,3.544,0,0,1,3215.2,1432.84Zm5.4-37.59a7.694,7.694,0,0,0-2.21.64c-3.36,1.33-10.96,2.14-14.67,2.14h-1.39c-1.75,0-1.8.12-1.8,1.45,0,0.99.17,5.34,1.45,5.34,0.93,0,9.1-1.68,10.5-2.03a12.962,12.962,0,0,1,1.39-.23,0.822,0.822,0,0,1,.98.69c0,0.58-1.04,1.63-1.5,2.09a235.008,235.008,0,0,1-18.04,18.22c-0.53.4-1.4,1.04-1.4,1.74,0,0.92,2.96,4.17,4.18,4.17a0.8,0.8,0,0,0,.64-0.4c2.09-2.38,4.18-4.76,6.44-6.96,3.71-3.66,7.71-5.69,12.99-5.69,5.05,0,9.8,2.32,9.8,7.95,0,5.86-5.51,8.93-7.01,8.93a0.72,0.72,0,0,1-.7-0.75,5.743,5.743,0,0,0-1.05-3.72,9.445,9.445,0,0,0-7.71-4.11,7.271,7.271,0,0,0-7.42,7.01c0,5.92,6.84,7.89,11.65,7.89,9.34,0,18.45-5.33,18.45-15.6a11.985,11.985,0,0,0-6.9-11.25,16.954,16.954,0,0,0-7.14-1.74,10.727,10.727,0,0,0-2.38.23,3.237,3.237,0,0,1-.75.11,0.879,0.879,0,0,1-.99-0.75,1.775,1.775,0,0,1,.58-0.99,56.324,56.324,0,0,1,8.42-7.77c0.63-.46,1.27-0.81,1.27-1.22C3226.28,1399.66,3222.92,1395.25,3220.6,1395.25Zm42.92,19.72a1.292,1.292,0,0,1,1.33,1.39v0.12a1.292,1.292,0,0,1-1.33,1.39h-6.96a1.315,1.315,0,0,1-1.4-1.39v-0.12a1.315,1.315,0,0,1,1.4-1.39h6.96Zm0.23-6.67a1.01,1.01,0,0,1,1.1,1.1v0.64a1,1,0,0,1-1.1,1.1h-7.48a1.008,1.008,0,0,1-1.11-1.1v-0.64a1.013,1.013,0,0,1,1.11-1.1h7.48Zm-0.23-6.73a1.292,1.292,0,0,1,1.33,1.39v0.18a1.292,1.292,0,0,1-1.33,1.39h-6.96a1.315,1.315,0,0,1-1.4-1.39v-0.18a1.315,1.315,0,0,1,1.4-1.39h6.96Zm7.13,1.39a1.17,1.17,0,0,1,1.33-1.39h8.07c2.2,0,4.35.12,6.55,0.12,1.34,0,1.39-.41,1.39-2.03,0-1.68-.05-2.09-1.39-2.09-2.2,0-4.35.12-6.55,0.12h-6.96a0.835,0.835,0,0,1-.93-0.82,0.847,0.847,0,0,1,.12-0.52c0.29-.46.98-1.86,1.21-2.2a1.356,1.356,0,0,1,1.11-.53,0.636,0.636,0,0,0,.69-0.63c0-.58-0.98-0.87-1.45-0.99a36.815,36.815,0,0,0-4.87-1.39,0.757,0.757,0,0,0-.7.58,53.684,53.684,0,0,1-2.2,5.22,2.189,2.189,0,0,1-2.32,1.28h-5.74a0.818,0.818,0,0,1-.93-0.76,1.04,1.04,0,0,1,.17-0.58c0.41-.64.7-1.16,0.93-1.57,0.64-1.1.75-1.33,1.62-1.56a0.812,0.812,0,0,0,.76-0.7c0-.52-0.58-0.69-1.8-1.04a29.855,29.855,0,0,0-4.23-1.05,1,1,0,0,0-.82.76,51.021,51.021,0,0,1-10.55,14.44,2.372,2.372,0,0,0-.93,1.22c0,0.93,2.26,3.48,3.13,3.48,0.81,0,2.49-1.91,3.07-2.55a0.856,0.856,0,0,1,.53-0.23,0.568,0.568,0,0,1,.52.69v7.31c0,1.34-.06,2.67-0.06,4,0,2.09,1.22,2.32,3.02,2.32,1.51,0,3.01-.05,4.46-0.05h6.21c0.99,0,1.22.46,1.39,1.39,0,0.23.06,0.4,0.06,0.64a1.278,1.278,0,0,1-1.51,1.5h-12.7c-2.26,0-4.58-.11-6.9-0.11-1.34,0-1.34.52-1.34,2.43s0,2.44,1.34,2.44c2.32,0,4.64-.12,6.9-0.12h7.31a0.571,0.571,0,0,1,.58.47,0.513,0.513,0,0,1-.29.46,59.972,59.972,0,0,1-14.16,6.44,1.65,1.65,0,0,1-.46.12c-0.81.29-1.33,0.4-1.33,1.1,0,0.93,1.74,3.77,3.01,3.77a11.752,11.752,0,0,0,3.31-.93,56.772,56.772,0,0,0,15.14-8.64,0.953,0.953,0,0,1,.58-0.18,0.74,0.74,0,0,1,.64.82v2.78c0,1.68-.12,3.37-0.12,4.99,0,1.91.87,1.86,3.13,1.86,2.21,0,3.02,0,3.02-1.86,0-1.68-.18-3.31-0.18-4.99v-2.9a0.731,0.731,0,0,1,.64-0.81,0.829,0.829,0,0,1,.52.23,57.532,57.532,0,0,0,9.81,6.5c1.45,0.81,6.78,3.42,8.12,3.42,1.51,0,3.36-3.02,3.36-3.94a0.931,0.931,0,0,0-.87-0.82,59.566,59.566,0,0,1-15.08-6.96,0.474,0.474,0,0,1-.29-0.46,0.571,0.571,0,0,1,.58-0.47h7.66c2.32,0,4.64.12,6.9,0.12,1.39,0,1.39-.52,1.39-2.44,0-1.85,0-2.43-1.39-2.43-2.26,0-4.58.11-6.9,0.11h-13.17a0.909,0.909,0,0,1-1.1-.81,1.187,1.187,0,0,1,.58-0.98,1.233,1.233,0,0,0,.81-0.82c0-.46-0.41-0.69-1.51-0.75a0.12,0.12,0,0,1-.11-0.12c0-.05.05-0.05,0.11-0.05h12.3c2.26,0,4.47.05,6.67,0.05,1.28,0,1.33-.4,1.33-2.03,0-1.68-.05-2.08-1.39-2.08-2.2,0-4.41.11-6.61,0.11h-10.91a1.167,1.167,0,0,1-1.33-1.39v-0.12a1.17,1.17,0,0,1,1.33-1.39h5.57c2.15,0,4.24.12,6.38,0.12,1.4,0,1.4-.47,1.4-2.03,0-1.63-.06-2.03-1.4-2.03-2.14,0-4.23.11-6.38,0.11h-5.86a0.9,0.9,0,0,1-1.04-1.1v-0.64a0.919,0.919,0,0,1,1.1-1.1h5.86c2.09,0,4.18.12,6.32,0.12,1.34,0,1.4-.35,1.4-2.03,0-1.63-.06-1.98-1.4-1.98-2.14,0-4.23.12-6.32,0.12h-5.63a1.17,1.17,0,0,1-1.33-1.39v-0.18Zm69.6,29.06a1.622,1.622,0,0,1-1.62,1.63h-31.09a1.543,1.543,0,0,1-1.57-1.63v-31.43a1.436,1.436,0,0,1,1.57-1.57h31.09a1.572,1.572,0,0,1,1.62,1.57v31.43Zm-1.51,7.02a1.222,1.222,0,0,1,1.4,1.34c0,0.11-.06.29-0.06,0.4,0,1.69.69,1.63,3.19,1.63,2.43,0,3.19.06,3.19-1.63,0-2.43-.17-4.81-0.17-7.25v-31.67c0-1.8.11-3.59,0.11-5.39,0-2.5-1.28-2.96-3.48-2.96-1.86,0-3.77.11-5.63,0.11h-28.36c-1.86,0-3.77-.11-5.69-0.11-2.2,0-3.42.52-3.42,2.96,0,1.8.12,3.59,0.12,5.39v31.56c0,2.43-.18,4.87-0.18,7.31,0,1.62.7,1.62,3.19,1.62,2.44,0,3.14,0,3.14-1.62v-0.35a1.15,1.15,0,0,1,1.33-1.34h31.32Zm-17.46-16.35c0-.7-2.49-4.76-3.01-5.57-0.47-.76-2.26-3.89-3.13-3.89-0.7,0-3.6,1.62-3.6,2.55a2.825,2.825,0,0,0,.52,1.11,53.829,53.829,0,0,1,4.18,7.07,1.542,1.542,0,0,0,1.27,1.16C3318.33,1425.12,3321.28,1423.73,3321.28,1422.69Zm10.39-8.94a1.336,1.336,0,0,1,1.51-1.56c0.87,0,3.13.11,3.77,0.11,1.39,0,1.33-.87,1.33-2.55,0-1.74.06-2.49-1.33-2.49-0.87,0-2.73.05-3.72,0.11-1.04-.06-1.56-0.46-1.56-1.45-0.06-1.85-.06-2.72.64-3.19a1.141,1.141,0,0,0,.69-0.81c0-.7-0.93-0.75-1.39-0.81-1.28-.12-3.36-0.35-4.58-0.35-0.53,0-.99.12-0.99,0.75,0,0.18.06,0.35,0.06,0.58a26.383,26.383,0,0,1,.17,3.66,1.355,1.355,0,0,1-1.56,1.62h-9.86c-1.8,0-3.6-.11-5.46-0.11-1.39,0-1.39.69-1.39,2.49,0,1.68-.06,2.55,1.34,2.55,1.85,0,3.71-.11,5.51-0.11h9.86a1.335,1.335,0,0,1,1.56,1.56v9.46c0,2.84.12,3.54-2.67,3.54a15.17,15.17,0,0,1-1.68-.06,5.377,5.377,0,0,0-.98-0.06,1,1,0,0,0-1.11,1.16,9.49,9.49,0,0,0,.58,3.07c0.53,1.05,1.57,1.05,2.73,1.05,3.6,0,8.64-.18,8.64-4.99,0-1.33-.11-2.61-0.11-3.94v-9.23Zm41.35,11.66c-1.1,0-3.13,4.12-3.13,4.93,0,0.93,3.88,5.8,13.28,5.8,2.32,0,12.12-.87,13.75-1.74,0.75-.4.69-1.45,0.69-2.14,0-2.96-.11-4.35-1.04-4.35a4,4,0,0,0-1.22.23,47.428,47.428,0,0,1-12.76,1.85c-3.89,0-6.32-.98-8.82-4.06A1.007,1.007,0,0,0,3373.02,1425.41Zm1.33-25.11c-0.92,0-1.21.87-1.21,3.65,0,0.64-.06,1.86.58,2.26,1.21,0.81,8.35,1.16,10.15,1.16a68.19,68.19,0,0,0,9.74-.81c1.1-.23,1.1-0.7,1.1-1.91a27.631,27.631,0,0,0-.23-3.14,1.3,1.3,0,0,0-1.16-1.39,5.361,5.361,0,0,0-1.04.18,38.254,38.254,0,0,1-8.82,1.16,37.443,37.443,0,0,1-7.6-.87A7.28,7.28,0,0,0,3374.35,1400.3Zm-13.92-4.53c-0.64,0-.75.76-0.87,1.28a26.329,26.329,0,0,1-.75,2.9,69.285,69.285,0,0,0-2.96,19.2c0,6.09.81,12.29,3.54,17.81,0.75,1.56,1.45,2.84,2.44,2.84,1.21,0,4.52-1.39,4.52-2.84a4.885,4.885,0,0,0-.12-0.87c-0.05-.53-0.23-1.86-0.23-2.44,0-2.61,2.32-7.89,2.32-8.41,0-.64-1.51-1.86-2.09-1.86-0.52,0-.87.64-1.21,1.39-0.24.58-1.05,2.27-1.57,2.27-1.33,0-1.57-7.02-1.57-8.12a46.013,46.013,0,0,1,3.25-16.48c0.58-1.45.81-1.97,1.8-2.49,0.58-.35.81-0.41,0.81-0.76a1.36,1.36,0,0,0-1.16-.98C3365.77,1397.86,3360.9,1395.77,3360.43,1395.77Zm69.26,35.04c2.9,0,2.96.63,2.96,1.79,0,2.04-.93,3.14-3.02,3.14-1.51,0-3.83-.93-3.83-2.73C3425.8,1431.15,3428.29,1430.81,3429.69,1430.81Zm2.84-20.48a1.173,1.173,0,0,0-1.39,1.28c0,0.29.05,0.52,0.05,0.81,0.18,2.26,1.05,10.67,1.05,12.53a1.018,1.018,0,0,1-1.22.98h-1.51c-4.58,0-9.63,1.86-9.63,7.2,0,5.39,5.51,7.89,10.21,7.89,3.95,0,7.37-1.45,8.07-5.69,0.05-.52.29-1.33,0.92-1.33,0.93,0,3.77,2.03,4.64,2.67a2.977,2.977,0,0,0,1.51.81c1.45,0,3.6-3.31,3.6-4.24,0-1.39-6.85-4.58-8.18-5.1-0.17-.06-0.41-0.18-0.58-0.23-0.87-.35-1.62-0.58-1.8-1.45-0.29-1.22-.58-9.57-0.58-11.26,0-1.22.12-2.96,0.12-3.07a1.294,1.294,0,0,0-1.16-1.22A24.627,24.627,0,0,0,3432.53,1410.33Zm8.87-8.93c-1.21,0-3.88,3.19-3.88,4a1.531,1.531,0,0,0,.75.93,32.778,32.778,0,0,1,7.25,7.48,1.9,1.9,0,0,0,1.28,1.04c1.04,0,4.35-2.61,4.35-4C3451.15,1409.34,3442.85,1401.4,3441.4,1401.4Zm-19.49-9.46c-0.52,0-.52.58-0.52,0.99,0,1.85-.98,8.29-1.85,9.74a1.971,1.971,0,0,1-1.74.93,52.162,52.162,0,0,1-5.98.29h-2.67a0.843,0.843,0,0,0-1.04.93c0,0.58.29,2.67,0.4,3.36,0.24,1.34.47,1.86,1.45,1.86,1.34,0,5.81-.58,6.27-0.58a0.782,0.782,0,0,1,.81.75,22.5,22.5,0,0,1-1.33,3.54,107.406,107.406,0,0,1-6.91,13.4,6.492,6.492,0,0,0-1.04,2.09c0,1.22,3.89,2.9,5.16,2.9a1.15,1.15,0,0,0,1.16-.81,147.056,147.056,0,0,0,9.46-20.65c0.69-1.92.64-2.32,2.72-2.67,5.34-.99,6.04-1.1,6.04-2.38a28.964,28.964,0,0,0-.29-3.07c-0.12-.7-0.18-1.74-0.87-1.74a2.288,2.288,0,0,0-.58.11,27.185,27.185,0,0,1-3.31.87,0.669,0.669,0,0,1-.64-0.75,19.276,19.276,0,0,1,.64-2.61c0.17-.64.58-2.67,1.04-3.08a1.64,1.64,0,0,0,.93-1.04,1.187,1.187,0,0,0-.93-0.7C3427.37,1393.33,3422.55,1391.94,3421.91,1391.94Zm59.51,40.9a1.737,1.737,0,0,1-1.56,1.97c-1.74,0-4.53-.99-4.53-3.08a2.406,2.406,0,0,1,2.5-2.32A3.544,3.544,0,0,1,3481.42,1432.84Zm5.4-37.59a7.694,7.694,0,0,0-2.21.64c-3.36,1.33-10.96,2.14-14.67,2.14h-1.39c-1.74,0-1.8.12-1.8,1.45,0,0.99.17,5.34,1.45,5.34,0.93,0,9.1-1.68,10.5-2.03a12.962,12.962,0,0,1,1.39-.23,0.822,0.822,0,0,1,.98.69c0,0.58-1.04,1.63-1.5,2.09a235.008,235.008,0,0,1-18.04,18.22c-0.53.4-1.4,1.04-1.4,1.74,0,0.92,2.96,4.17,4.18,4.17a0.8,0.8,0,0,0,.64-0.4c2.09-2.38,4.18-4.76,6.44-6.96,3.71-3.66,7.71-5.69,12.99-5.69,5.05,0,9.8,2.32,9.8,7.95,0,5.86-5.51,8.93-7.01,8.93a0.72,0.72,0,0,1-.7-0.75,5.793,5.793,0,0,0-1.04-3.72,9.477,9.477,0,0,0-7.72-4.11,7.271,7.271,0,0,0-7.42,7.01c0,5.92,6.84,7.89,11.65,7.89,9.34,0,18.45-5.33,18.45-15.6a11.985,11.985,0,0,0-6.9-11.25,16.954,16.954,0,0,0-7.14-1.74,10.727,10.727,0,0,0-2.38.23,3.237,3.237,0,0,1-.75.11,0.879,0.879,0,0,1-.99-0.75,1.775,1.775,0,0,1,.58-0.99,56.324,56.324,0,0,1,8.42-7.77c0.63-.46,1.27-0.81,1.27-1.22C3492.5,1399.66,3489.14,1395.25,3486.82,1395.25Zm28.41,29.12c0,1.56,1.4,4.35,2.27,5.62,3.77,5.28,10.26,6.04,16.3,6.04,3.48,0,14.32-.7,17.4-1.63a1.88,1.88,0,0,0,1.39-2.14c0-3.77-.41-4.76-1.28-4.76a5.562,5.562,0,0,0-.87.17,71.756,71.756,0,0,1-17.28,2.03c-5.45,0-10.38-.87-11.6-7.01a1.063,1.063,0,0,0-1.05-1.11C3520.46,1421.58,3515.23,1422.92,3515.23,1424.37Zm5.81-20.01a1.2,1.2,0,0,0,.81,1.21c2.84,1.16,10.03,1.45,13.22,1.45a79.812,79.812,0,0,0,10.5-.69c1.34-.23,1.63-0.35,1.63-1.74,0-2.38-.06-4.99-1.51-4.99a2.951,2.951,0,0,0-.76.12,49.6,49.6,0,0,1-10.5,1.16,37.373,37.373,0,0,1-9.86-1.22,8.235,8.235,0,0,0-1.68-.35c-1.1,0-1.22,1.04-1.39,2.03A20.539,20.539,0,0,0,3521.04,1404.36Zm54.52-8.65a2.977,2.977,0,0,0,.17.7,38.136,38.136,0,0,1,1.1,3.83c0.58,2.38,2.21,8.52,2.9,10.61a1.943,1.943,0,0,1,.23,1.05,1.781,1.781,0,0,1-.98,1.5c-4.82,3.14-10.04,7.26-10.04,13.58a10.208,10.208,0,0,0,5.34,8.93c3.83,2.26,7.6,2.5,11.89,2.5,2.78,0,13.75-.35,15.95-0.93,1.16-.29,1.22-0.93,1.22-2.44v-0.69c0-1.22-.06-3.6-0.87-3.6a1.543,1.543,0,0,0-.52.06,87.591,87.591,0,0,1-15.14,1.5,23.231,23.231,0,0,1-7.72-1.04c-1.79-.64-3.82-2.09-3.82-4.18,0-2.2,1.33-3.77,2.84-5.22,2.43-2.32,7.36-5.16,10.44-6.84a105.523,105.523,0,0,1,14.33-6.67,1.259,1.259,0,0,0,1.1-.93c0-.81-1.22-2.78-1.68-3.54-0.35-.58-1.34-2.32-2.09-2.32a3.736,3.736,0,0,0-1.51.58c-1.51.99-10.79,6.44-11.83,6.44-0.99,0-1.16-.99-1.34-1.74a79.905,79.905,0,0,1-1.8-10.38c-0.11-1.34,0-2.21-1.62-2.21a22.539,22.539,0,0,0-2.78.29C3577.47,1394.84,3575.56,1394.84,3575.56,1395.71Zm47.67,32.08a5.1,5.1,0,0,1,5.16,5.16A5.16,5.16,0,1,1,3623.23,1427.79Zm0-2.9a8.065,8.065,0,1,0,8.06,8.06A8.043,8.043,0,0,0,3623.23,1424.89Z" transform="translate(-2500.06 -1390.44)"/>
</svg>
