<svg xmlns="http://www.w3.org/2000/svg" width="380.068" height="38.03" viewBox="0 0 380.068 38.03">
  <defs>
    <style>
      .cls-1 {
        fill-rule: evenodd;
      }
    </style>
  </defs>
  <path id="text-connect-6.svg" class="cls-1" d="M952.836,5212.35a2.674,2.674,0,0,1,1.008-.26,3.438,3.438,0,0,1,.882.17,76.092,76.092,0,0,1,8.316,3.66,3.974,3.974,0,0,0,1.3.5c0.756,0,2.142-2.1,2.142-2.81a1.048,1.048,0,0,0-.756-0.8,52.281,52.281,0,0,0-6.048-2.69,0.673,0.673,0,0,1-.378-0.5,1.377,1.377,0,0,1,.84-0.76c1.008-.55,3.108-1.72,3.276-1.72a0.858,0.858,0,0,1,.294.04h0.294a0.451,0.451,0,0,0,.546-0.38,3.134,3.134,0,0,0-1.008-1.26,8.041,8.041,0,0,0-2.184-1.76,1.035,1.035,0,0,0-.546.25,51.41,51.41,0,0,1-6.258,3.53,2.158,2.158,0,0,1-1.05.29,2.791,2.791,0,0,1-.84-0.17c-1.932-.54-3.9-1.05-5.879-1.55-0.546-.13-4.7-0.92-5-0.92-0.966,0-1.806,2.43-1.806,2.77a0.743,0.743,0,0,0,.42.63c0.294,0.12,5.838,1.17,6.678,1.34a0.483,0.483,0,0,1,.294.34,0.384,0.384,0,0,1-.294.33c-2.688.93-5.46,1.68-8.232,2.4-0.5.12-1.638,0.17-1.638,0.84,0,0.33.756,2.85,1.974,2.85a9.133,9.133,0,0,0,1.68-.37A95.492,95.492,0,0,0,952.836,5212.35Zm3.948,12.51c0-.8,0-1.05.462-1.34a0.885,0.885,0,0,0,.546-0.63,0.676,0.676,0,0,0-.714-0.47c-0.5-.08-3.4-0.33-3.906-0.33a0.619,0.619,0,0,0-.714.63c0,0.08.042,0.25,0.042,0.38,0.042,0.42.084,1.3,0.126,1.76a0.989,0.989,0,0,1-1.176,1.05h-3.905a0.484,0.484,0,0,1-.588-0.46,0.526,0.526,0,0,1,.168-0.38c0.672-.84,1.3-1.72,1.974-2.52a1.83,1.83,0,0,1,1.8-.84h14.49c1.68,0,3.36.08,5.081,0.08,0.966,0,.966-0.42.966-1.84,0-1.51,0-1.93-.966-1.93-1.721,0-3.4.08-5.081,0.08H953.34a0.568,0.568,0,0,1-.672-0.55,0.838,0.838,0,0,1,.126-0.42c0.714-1.21.8-1.42,1.344-1.59a0.646,0.646,0,0,0,.672-0.51c0-.42-0.8-0.58-1.092-0.67a30.6,30.6,0,0,0-3.192-.88,0.772,0.772,0,0,0-.587.59,27.028,27.028,0,0,1-1.806,3.19,1.673,1.673,0,0,1-1.722.84h-6.132c-1.68,0-3.36-.08-5.082-0.08-0.966,0-.966.42-0.966,1.88s0,1.89.966,1.89c1.722,0,3.4-.08,5.082-0.08h3.486a0.532,0.532,0,0,1,.588.5,0.66,0.66,0,0,1-.126.38,52.986,52.986,0,0,1-9.2,8.44,2.467,2.467,0,0,0-1.218,1.22c0,0.63,1.848,2.52,2.52,2.52a2.2,2.2,0,0,0,1.05-.59,47.851,47.851,0,0,0,4.578-3.78,0.774,0.774,0,0,1,.378-0.16,0.463,0.463,0,0,1,.462.54v4.24c0,1.14-.084,2.27-0.084,3.41,0,0.96.63,0.92,2.184,0.92,1.512,0,2.1.08,2.1-.92,0-1.14-.126-2.27-0.126-3.41v-4.28a1.031,1.031,0,0,1,1.176-1.18h3.4a1.031,1.031,0,0,1,1.176,1.18v4.54c0,1.72-.126,3.44-0.126,5.16,0,1.14.5,1.22,2.226,1.22,1.554,0,2.142-.04,2.142-1.18,0-1.72-.126-3.48-0.126-5.2v-4.54a1.031,1.031,0,0,1,1.176-1.18h3.7a1.031,1.031,0,0,1,1.176,1.18v3.53c0,1.01.042,1.34-1.47,1.34-0.756,0-1.47-.08-1.806-0.08-0.546,0-.63.42-0.63,0.88,0,2.98.8,2.94,2.1,2.94a11.514,11.514,0,0,0,4.368-.59,2.674,2.674,0,0,0,1.554-2.85c0-.72-0.042-1.43-0.042-2.1v-4.29c0-.96.042-1.76,0.042-2.31,0-1.26-.966-1.34-1.974-1.34s-1.974.04-2.982,0.04h-4.032A0.944,0.944,0,0,1,956.784,5224.86Zm42.294-14.49a0.985,0.985,0,0,1-1.176-1.09c0.042-.84.378-0.84,1.3-0.84h4.326c0.76,0,1.3-.08,1.3.8v0.42a0.669,0.669,0,0,1-.84.71h-4.912Zm5.462,3.7a0.794,0.794,0,0,1-.88.8h-5.086a0.861,0.861,0,0,1-1.008-.89,0.7,0.7,0,0,1,.042-0.29,0.756,0.756,0,0,1,.882-0.71h4.96A0.928,0.928,0,0,1,1004.54,5214.07Zm-8.066,4.41a1.324,1.324,0,0,1,1.512-1.05h4.954a0.845,0.845,0,0,1,1.01.84,0.728,0.728,0,0,1-.04.29c-0.34,1.13-.42,1.18-2.27,1.18-0.67,0-1.43-.05-1.806-0.05a0.875,0.875,0,0,0-.882,1.1c0,2.73.966,2.64,2.858,2.64,2.64,0,4.53-.08,5.5-2.43,1.05-2.65,1.6-10.84,1.6-13.9,0-1.47-.59-1.81-1.98-1.81-1.01,0-1.97.04-2.98,0.04H999.2c-1.05,0-2.1-.04-3.15-0.04-1.218,0-1.974.25-1.974,1.85,0,4.87-.462,9.74-3.36,13.86a1.65,1.65,0,0,0-.462.84c0,0.88,2.268,1.76,2.982,1.76a1.144,1.144,0,0,0,.966-0.59A17.64,17.64,0,0,0,996.474,5218.48Zm-2.436,10.75a0.85,0.85,0,0,1,1.008-.97h7.814c1.59,0,3.15.09,4.7,0.09,0.93,0,.93-0.51.93-1.77s0-1.72-.93-1.72c-1.55,0-3.11.08-4.7,0.08H980.725c-1.554,0-3.15-.08-4.7-0.08-0.924,0-.924.46-0.924,1.72s0,1.77.924,1.77c1.554,0,3.15-.09,4.7-0.09h7.728a0.865,0.865,0,0,1,1.007.97v0.63a0.862,0.862,0,0,1-1.007,1.01h-5.124c-1.512,0-3.024-.09-4.536-0.09-0.966,0-.924.51-0.924,1.68s-0.084,1.77.924,1.77c1.512,0,3.024-.13,4.536-0.13h4.956a1.03,1.03,0,0,1,1.175,1.18v0.5a1.015,1.015,0,0,1-1.175,1.18h-9.2c-1.68,0-3.36-.09-5.04-0.09-0.882,0-.882.46-0.882,1.72,0,1.35,0,1.77.924,1.77,1.68,0,3.318-.09,5-0.09h25.363c1.68,0,3.32.09,5,.09,0.93,0,.88-0.46.88-1.77,0-1.26.05-1.72-.88-1.72-1.68,0-3.32.09-5,.09h-9.236a1,1,0,0,1-1.176-1.18v-0.5a1.015,1.015,0,0,1,1.176-1.18h5.126c1.51,0,3.02.13,4.53,0.13,1.01,0,.97-0.55.97-1.77s0.04-1.68-.97-1.68c-1.51,0-3.02.09-4.53,0.09h-5.294a0.863,0.863,0,0,1-1.008-1.01v-0.63Zm-15.707-20.87c-1.386,0-2.73-.13-4.116-0.13-0.882,0-.84.5-0.84,1.89,0,1.47-.042,1.93.84,1.93a5.907,5.907,0,0,0,.84-0.04,0.833,0.833,0,0,1,.924.97v2.73c0,0.96-.084,1.93-0.084,2.85,0,1.3.5,2.73,1.89,3.07a24.626,24.626,0,0,0,4.578.21c0.5,0,1.6.04,2.772,0.04a14.829,14.829,0,0,0,3.654-.25,2.391,2.391,0,0,0,1.217-2.4,1.1,1.1,0,0,0-1.217-1.34,4.276,4.276,0,0,0-.714.04c-0.84.09-2.352,0.13-3.192,0.13h-3.234c-1.764,0-1.764-.38-1.764-2.4v-2.52a1.009,1.009,0,0,1,1.176-1.17h6.09c1.344,0,2.729.08,4.073,0.08,0.882,0,.84-0.5.84-1.89,0-1.43.042-1.93-.84-1.93-1.344,0-2.729.13-4.073,0.13h-0.966a1.019,1.019,0,0,1-1.176-1.14c0.042-.96,0-1.43.5-1.76a0.956,0.956,0,0,0,.588-0.63c0-.46-0.63-0.51-1.134-0.55-0.672-.08-2.772-0.29-3.4-0.29-0.42,0-.756.08-0.756,0.59v0.33a13.719,13.719,0,0,1,.126,2.27,1,1,0,0,1-1.134,1.18h-1.47Zm47.419,26.33a1.2,1.2,0,0,1,1.17-1.18h11.26a1.116,1.116,0,0,1,1.13,1.18v0.54a1.11,1.11,0,0,1-1.13,1.18h-11.26a1.193,1.193,0,0,1-1.17-1.18v-0.54Zm1.17-4.45a1.207,1.207,0,0,1-1.17-1.18v-0.42a1.174,1.174,0,0,1,1.17-1.18h11.26a1.094,1.094,0,0,1,1.13,1.18v0.42a1.121,1.121,0,0,1-1.13,1.18h-11.26Zm13.91-14.58a45.03,45.03,0,0,0,4.57-5.62,1.382,1.382,0,0,1,1.35-.84,0.536,0.536,0,0,0,.59-0.47c0-.37-0.72-0.79-1.81-1.42a3.546,3.546,0,0,0-.38-0.21,8.245,8.245,0,0,0-1.97-.97,0.713,0.713,0,0,0-.59.55,37.325,37.325,0,0,1-7.31,9.11,2.114,2.114,0,0,1-1.93.67h-1.09a0.985,0.985,0,0,1-1.18-1.13v-1.77a1,1,0,0,1,1.18-1.17c1.55-.04,3.11.08,4.7,0.08,1.01,0,.97-0.5.97-2.01,0-1.6.04-2.02-1.01-2.02-1.55,0-3.11.13-4.66,0.08a0.976,0.976,0,0,1-1.18-1.05c-0.04-1.17,0-1.63.51-1.97a0.861,0.861,0,0,0,.54-0.63c0-.5-0.63-0.55-1.01-0.59-0.75-.08-3.31-0.33-3.99-0.33a0.61,0.61,0,0,0-.75.63,1.533,1.533,0,0,0,.04.42,23.76,23.76,0,0,1,.13,2.39,1,1,0,0,1-1.18,1.13h-2.44c-1.68,0-3.31-.08-4.95-0.08-1.05,0-1.01.46-1.01,2.02s-0.04,2.01,1.01,2.01c1.64,0,3.27-.08,4.95-0.08h2.44a1,1,0,0,1,1.18,1.17v1.77a0.985,0.985,0,0,1-1.18,1.13h-7.05c-1.64,0-3.28-.08-4.92-0.08-1.01,0-1.01.46-1.01,2.06,0,1.51,0,1.97,1.01,1.97,1.64,0,3.28-.09,4.92-0.09h9.57a0.449,0.449,0,0,1,.46.47,0.564,0.564,0,0,1-.29.5c-1.89,1.09-2.31,1.43-4.45,2.52a62.2,62.2,0,0,1-10.42,4.2,1.189,1.189,0,0,0-1.05.8c0,0.38.93,3.19,1.89,3.19,0.72,0,5.46-2.06,6.38-2.48a1.361,1.361,0,0,1,.38-0.08,0.737,0.737,0,0,1,.67.8v7.18c0,1.09-.08,2.14-0.08,3.23,0,1.01.42,1.09,1.47,1.09h0.76c1.84,0,2.18.09,2.22-1.17a0.685,0.685,0,0,1,.76-0.76h11.88a0.7,0.7,0,0,1,.8.76c0.04,1.26.42,1.17,2.19,1.17,1.72,0,2.26.09,2.26-1.13,0-1.09-.08-2.14-0.08-3.19v-8.19c0-1.14.04-2.1,0.04-2.86,0-1.51-.21-2.31-1.68-2.31-1.09,0-2.18.09-3.27,0.09h-6.51a0.516,0.516,0,0,1-.63-0.47,0.814,0.814,0,0,1,.42-0.5c1.05-.71,2.05-1.43,3.06-2.23a2.546,2.546,0,0,1,1.93-.63h6.56c1.63,0,3.27.09,4.91,0.09,1.01,0,.97-0.46.97-2.02,0-1.51.04-2.01-.97-2.01-1.64,0-3.28.08-4.91,0.08h-2.36a0.473,0.473,0,0,1-.54-0.42A0.6,0.6,0,0,1,1040.83,5215.66Zm36.28,16.72c0,1.72-1.05,2.31-2.64,2.31-1.05,0-3.07-.46-3.07-1.81,0-1.3,2.06-1.64,3.03-1.64C1075.22,5231.24,1077.11,5231.29,1077.11,5232.38Zm-0.84-25.45a0.509,0.509,0,0,0-.58.59c0,0.12.04,0.29,0.04,0.42,0.17,1.05.5,5.12,0.5,6,0,0.93-.96,1.01-1.97,1.01h-0.67c-2.19,0-5.93-.42-6.43-0.42-0.63,0-.67.5-0.67,1.05s0.04,2.94.42,3.19a9.157,9.157,0,0,0,3.19.34h0.55c1.68,0,4.66-.17,4.99-0.17,1.05,0,.97,1.17,1.01,1.59,0.04,1.22.25,5.21,0.25,6.26a0.763,0.763,0,0,1-.84.88h-0.29a11.312,11.312,0,0,0-1.64-.12c-3.27,0-6.59,1.51-6.59,5.29,0,3.86,3.65,5.46,7.01,5.46,2.52,0,5.34-.84,6.09-3.53a0.692,0.692,0,0,1,.63-0.67c0.55,0,2.65,1.85,3.11,2.31a1.94,1.94,0,0,0,1.18.63c0.96,0,2.43-1.93,2.43-2.9a2.257,2.257,0,0,0-1.09-1.59,23.227,23.227,0,0,0-4.54-2.94c-0.92-.47-1.34-0.55-1.42-1.64-0.05-1.09-.34-7.52-0.34-8.36,0-1.05.5-1.22,1.43-1.34,4.95-.67,5.25-0.97,5.25-1.77,0-.63-0.3-3.52-1.14-3.52a3.669,3.669,0,0,0-.63.12,26.593,26.593,0,0,1-4.2,1.05,0.921,0.921,0,0,1-.88-1.09v-1.18a5.891,5.891,0,0,1,.46-2.98,1.709,1.709,0,0,0,.47-0.84,0.424,0.424,0,0,0-.42-0.38A39.612,39.612,0,0,0,1076.27,5206.93Zm-13.35,1.38a16.272,16.272,0,0,0-2.69-1.09,0.7,0.7,0,0,0-.55.72c-0.46,1.84-1.04,3.65-1.51,5.5a48.513,48.513,0,0,0-1.47,11.76,30.218,30.218,0,0,0,2.48,12.93c0.29,0.59.63,1.39,1.34,1.39,0.21,0,3.2-.51,3.2-2.14,0-.68-0.09-1.35-0.09-2.02,0-2.44,2.06-7.06,2.06-7.64,0-.51-1.34-1.35-1.81-1.35-0.5,0-.92,1.39-1.13,1.85-0.42.97-.63,1.51-0.92,1.51-0.8,0-.93-3.99-0.93-4.66a38.755,38.755,0,0,1,2.31-12.77c0.51-1.3.76-1.68,1.72-2.14a0.447,0.447,0,0,0,.38-0.42,1.522,1.522,0,0,0-1.09-.84C1063.97,5208.82,1063.46,5208.57,1062.92,5208.31Zm56.07,10.82a21.219,21.219,0,0,0-.3-3.17,9.446,9.446,0,0,0-.84-2.65,8.495,8.495,0,0,0-1.68-2.31,10.7,10.7,0,0,0-3.54-2.37,12.028,12.028,0,0,0-8.73,0,10.783,10.783,0,0,0-3.51,2.37,8.495,8.495,0,0,0-1.68,2.31,10.57,10.57,0,0,0-.87,2.65,19.914,19.914,0,0,0-.31,3.17c-0.03,1.16-.04,2.45-0.04,3.88s0.01,2.73.04,3.89a19.914,19.914,0,0,0,.31,3.17,10.629,10.629,0,0,0,.87,2.64,8.2,8.2,0,0,0,1.68,2.31,10.973,10.973,0,0,0,3.51,2.38,12.028,12.028,0,0,0,8.73,0,10.881,10.881,0,0,0,3.54-2.38,8.2,8.2,0,0,0,1.68-2.31,9.484,9.484,0,0,0,.84-2.64,21.219,21.219,0,0,0,.3-3.17c0.03-1.16.04-2.46,0.04-3.89S1119.02,5220.29,1118.99,5219.13Zm-4.6,7.64a17.519,17.519,0,0,1-.25,2.52,6.584,6.584,0,0,1-.54,1.72,5.617,5.617,0,0,1-2.85,2.63,6.45,6.45,0,0,1-4.98,0,5.537,5.537,0,0,1-3.39-4.35,17.519,17.519,0,0,1-.25-2.52c-0.05-.99-0.07-2.25-0.07-3.76s0.02-2.76.07-3.76a17.827,17.827,0,0,1,.25-2.52,6.008,6.008,0,0,1,.54-1.72,5.922,5.922,0,0,1,.9-1.28,5.792,5.792,0,0,1,1.95-1.34,6.334,6.334,0,0,1,4.98,0,5.792,5.792,0,0,1,1.95,1.34,5.922,5.922,0,0,1,.9,1.28,6.709,6.709,0,0,1,.54,1.72,17.827,17.827,0,0,1,.25,2.52c0.04,1,.06,2.25.06,3.76S1114.43,5225.78,1114.39,5226.77Zm32.57-7.64a22.71,22.71,0,0,0-.29-3.17,9.8,9.8,0,0,0-.85-2.65,8.495,8.495,0,0,0-1.68-2.31,10.656,10.656,0,0,0-3.53-2.37,11.28,11.28,0,0,0-4.38-.82,11.144,11.144,0,0,0-4.36.82,10.783,10.783,0,0,0-3.51,2.37,8.495,8.495,0,0,0-1.68,2.31,10.57,10.57,0,0,0-.87,2.65,19.914,19.914,0,0,0-.31,3.17c-0.03,1.16-.04,2.45-0.04,3.88s0.01,2.73.04,3.89a19.914,19.914,0,0,0,.31,3.17,10.629,10.629,0,0,0,.87,2.64,8.2,8.2,0,0,0,1.68,2.31,10.973,10.973,0,0,0,3.51,2.38,11.327,11.327,0,0,0,4.36.82,11.466,11.466,0,0,0,4.38-.82,10.84,10.84,0,0,0,3.53-2.38,8.2,8.2,0,0,0,1.68-2.31,9.839,9.839,0,0,0,.85-2.64,22.71,22.71,0,0,0,.29-3.17c0.03-1.16.04-2.46,0.04-3.89S1146.99,5220.29,1146.96,5219.13Zm-4.6,7.64a17.519,17.519,0,0,1-.25,2.52,6.227,6.227,0,0,1-.54,1.72,5.617,5.617,0,0,1-2.85,2.63,6.45,6.45,0,0,1-4.98,0,5.617,5.617,0,0,1-2.85-2.63,6.227,6.227,0,0,1-.54-1.72,17.519,17.519,0,0,1-.25-2.52c-0.04-.99-0.06-2.25-0.06-3.76s0.02-2.76.06-3.76a17.827,17.827,0,0,1,.25-2.52,6.339,6.339,0,0,1,.54-1.72,5.922,5.922,0,0,1,.9-1.28,5.792,5.792,0,0,1,1.95-1.34,6.334,6.334,0,0,1,4.98,0,5.792,5.792,0,0,1,1.95,1.34,5.922,5.922,0,0,1,.9,1.28,6.339,6.339,0,0,1,.54,1.72,17.827,17.827,0,0,1,.25,2.52c0.04,1,.07,2.25.07,3.76S1142.4,5225.78,1142.36,5226.77Zm35.51,11.19-10.71-18.18,9.71-11.72h-5.55l-12.22,15.04v-15.04h-4.58v29.9h4.58v-8.69l5.04-6.05,8.4,14.74h5.33Zm9.7,0v-29.9H1183v29.9h4.57Zm31.17,0v-29.9h-4.58v21l-13.82-21h-4.16v29.9h4.58v-21.04l13.82,21.04h4.16Zm30.62,0-10.97-29.9h-3.65l-10.96,29.9h4.83l2.06-6h11.8l2.06,6h4.83Zm-8.15-9.87h-9.2l4.66-13.27Zm45.44-20.03h-4.79l-5.2,21.38-6.01-21.38H1267l-6.01,21.38-5.21-21.38h-4.79l7.82,29.9h3.94l6.05-20.95,6.09,20.95h3.95Zm27.22,29.9-10.96-29.9h-3.66l-10.96,29.9h4.83l2.06-6h11.8l2.06,6h4.83Zm-8.15-9.87h-9.2l4.66-13.27Z" transform="translate(-933.812 -5203.78)"/>
</svg>
