<svg xmlns="http://www.w3.org/2000/svg" width="835.66" height="52.43" viewBox="0 0 835.66 52.43">
  <defs>
    <style>
      .cls-1 {
        fill-rule: evenodd;
      }
    </style>
  </defs>
  <path id="やがて大きな力と_うねりとなって" data-name="やがて大きな力と、うねりとなって" class="cls-1" d="M2517.06,1395.48c-1.28,0-2.61,4.06-2.61,4.7,0,0.81.75,0.93,1.39,1.1a45.243,45.243,0,0,1,6.15,2.09,7.862,7.862,0,0,0,2.43.81c1.51,0,2.67-3.71,2.67-4.29,0-.93-2.26-1.74-3.42-2.2C2522.62,1397.28,2517.93,1395.48,2517.06,1395.48Zm-13.81,29.18a3.692,3.692,0,0,0,1.1-.64c0.87-.81,5.34-4.52,6.21-4.52a1.706,1.706,0,0,1,1.39,1.1c2.9,5.74,6.03,11.25,8.99,16.94,0.58,1.16.99,2.14,1.8,2.14,1.1,0,5.1-2.03,5.1-3.13a7.887,7.887,0,0,0-1.27-2.5c-1.45-2.26-10.21-16.53-10.21-18.09a1.821,1.821,0,0,1,1.16-1.45c4.06-2.44,10.5-6.09,15.2-6.09,2.96,0,5.33,1.5,5.33,4.64,0,5.04-6.96,6.9-10.96,7.6-0.75.11-1.86,0.17-1.86,1.16,0,0.81,1.57,4.75,3.08,4.75a16.23,16.23,0,0,0,2.26-.4c6.67-1.69,13.69-5.4,13.69-13.23,0-6.67-4.81-10.15-11.14-10.15-6.49,0-12.41,3.13-17.86,6.38a2.938,2.938,0,0,1-1.39.52,1.537,1.537,0,0,1-1.4-1.1c-0.46-.93-2.32-4.99-2.32-5.74a1.084,1.084,0,0,1,.12-0.47,2.337,2.337,0,0,0,.12-0.63,0.589,0.589,0,0,0-.7-0.58,8.668,8.668,0,0,0-1.92.58c-0.81.29-1.56,0.58-2.2,0.81-1.74.64-2.78,0.98-2.78,1.51a1.731,1.731,0,0,0,.58,1.1c0.92,1.22,4.35,6.55,4.35,7.83a2.431,2.431,0,0,1-1.45,1.8c-1.4.93-4.18,2.9-5.46,3.54-0.63.34-1.21,0.58-1.21,1.21C2499.6,1420.71,2502.15,1424.66,2503.25,1424.66Zm64.73-30.17a0.729,0.729,0,0,0-.7.87c0,0.12.12,1.34,0.12,2.27a53.159,53.159,0,0,1-.64,7.48,1.849,1.849,0,0,1-1.85,1.8c-3.2.58-6.44,1.39-9.69,1.74-0.7.06-1.68,0.06-1.68,0.93,0,0.34.98,6.03,2.37,6.03a4.18,4.18,0,0,0,1.22-.41,49.077,49.077,0,0,1,6.67-2.03,0.732,0.732,0,0,1,.76.76,22.2,22.2,0,0,1-1.45,4.41,46.112,46.112,0,0,1-10.39,16.12,2.2,2.2,0,0,0-.81,1.34c0,1.33,3.71,3.53,4.76,3.53a1.349,1.349,0,0,0,.98-0.58,52.57,52.57,0,0,0,5.75-8.23,65.56,65.56,0,0,0,7.42-17.35c0.41-1.62,1.05-2.09,4.29-2.09,3.54,0,3.72,2.44,3.72,5.28,0,3.77-.93,9.81-2.61,13.11-1.45,2.9-2.9,3.6-6.09,3.6-1.16,0-2.03-.23-2.61-0.23a0.815,0.815,0,0,0-.82.98,11.7,11.7,0,0,0,1.05,4.18c0.58,1.22,1.39,1.33,2.67,1.33a11.861,11.861,0,0,0,10.96-6.26c2.55-4.64,3.48-12.47,3.48-17.75,0-3.25-.7-6.56-3.6-8.47-2.03-1.28-4.23-1.28-6.55-1.28h-0.7a1.122,1.122,0,0,1-1.27-1.16,2.757,2.757,0,0,1,.11-0.69c0.18-.93.29-1.74,0.41-2.38,0.29-2.09.4-3.02,1.51-3.83a0.96,0.96,0,0,0,.52-0.75c0-.64-1.05-0.82-1.51-0.93C2572.91,1395.6,2568.56,1394.49,2567.98,1394.49Zm23.61,0c-0.7,0-2.79,1.75-2.79,2.44a1.375,1.375,0,0,0,.53.81,49.694,49.694,0,0,1,4.11,4.47,1.732,1.732,0,0,0,.82.64c0.75,0,2.78-1.74,2.78-2.67C2597.04,1399.48,2592.17,1394.49,2591.59,1394.49Zm5.45-4.11c-0.58,0-2.78,1.74-2.78,2.43a1.3,1.3,0,0,0,.58.81c1.45,1.45,2.78,2.91,4.11,4.47a1.2,1.2,0,0,0,.82.64c0.69,0,2.78-1.74,2.78-2.67C2602.55,1395.42,2597.68,1390.38,2597.04,1390.38Zm-9.45,10.44c-0.93,0-4.12,1.91-4.12,2.96a1.85,1.85,0,0,0,.52.98c3.65,3.89,5.57,7.66,7.77,12.42a1.661,1.661,0,0,0,1.34,1.33c1.16,0,4.81-2.15,4.81-3.48C2597.91,1413.58,2589.79,1400.82,2587.59,1400.82Zm17.28,2.09c0,0.58.52,6.09,1.91,6.09a4.337,4.337,0,0,0,.87-0.12,114.588,114.588,0,0,1,12.82-2.38c0.64-.11,3.25-0.52,3.71-0.52a0.819,0.819,0,0,1,.87.7,3.869,3.869,0,0,1-1.04,1.39,25.731,25.731,0,0,0-6.38,16.65c0,11.31,8.47,14.44,18.33,14.44a1.806,1.806,0,0,0,1.68-.58,13.85,13.85,0,0,0,1.04-5.16c0-.93-0.46-0.99-1.33-0.99-0.58,0-1.86.06-2.9,0.06-5.86,0-10.21-1.63-10.21-8.35a21.723,21.723,0,0,1,2.78-10.21,17.617,17.617,0,0,1,9.92-8.65c3.25-1.16,6.21-1.16,9.63-1.21,1.34-.06,2.55.05,2.55-1.22a35.906,35.906,0,0,0-.46-4.24c-0.17-.69-0.29-1.45-1.16-1.45a2.8,2.8,0,0,0-.7.06c-4.35.7-8.81,1.28-13.16,1.8-8.47.99-16.94,1.86-25.41,2.38C2605.68,1401.57,2604.87,1401.4,2604.87,1402.91Zm71.05,11.42c-2.79,10.73-10.1,17.64-19.9,22.16a2.587,2.587,0,0,1-.4.18,1.746,1.746,0,0,0-1.28,1.33c0,0.93,1.51,4.81,2.96,4.81a4.952,4.952,0,0,0,2.03-.69,0.642,0.642,0,0,0,.29-0.12c8.82-4.46,16.47-11.66,20.24-20.94a0.871,0.871,0,0,1,.64-0.46,0.632,0.632,0,0,1,.58.4c3.83,7.72,8.3,13.46,15.31,18.51,0.93,0.69,4.7,3.3,5.69,3.3,1.33,0,3.42-3.19,3.42-4.4a1.546,1.546,0,0,0-1.1-1.34,42.756,42.756,0,0,1-19.96-22.8c0-.17-0.05-0.29-0.05-0.52a1.022,1.022,0,0,1,1.16-.93h12.47c2.26,0,4.52.12,6.78,0.12,1.51,0,1.4-.7,1.4-3.02,0-2.26.11-3.07-1.34-3.07-2.32,0-4.58.17-6.84,0.17h-13.05a1.364,1.364,0,0,1-1.57-1.5c0.17-3.6.06-7.14,0.17-10.68a1.773,1.773,0,0,1,.87-1.8,0.828,0.828,0,0,0,.47-0.63,1.032,1.032,0,0,0-1.1-.76c-1.05-.11-4.47-0.4-5.46-0.4-0.63,0-1.27.11-1.27,0.92a0.975,0.975,0,0,0,.06.41,45.064,45.064,0,0,1,.17,4.99v2.44c0,1.79-.06,3.65-0.17,5.45a1.443,1.443,0,0,1-1.69,1.56h-12.93c-2.26,0-4.53-.17-6.79-0.17-1.45,0-1.39.75-1.39,3.07,0,2.27-.06,3.02,1.39,3.02,2.26,0,4.53-.12,6.79-0.12h12.12a1.09,1.09,0,0,1,1.28,1.11v0.4Zm53.82-21.63c-0.98,0-5.04.81-5.04,2.03a4.509,4.509,0,0,0,.69,1.51,15.906,15.906,0,0,1,1.63,3.53,1.438,1.438,0,0,1-1.51,1.34,36.826,36.826,0,0,1-4.47.58c-0.81.06-2.32,0-2.32,1.22a14.065,14.065,0,0,0,.99,3.71,1.237,1.237,0,0,0,1.27.98,53.75,53.75,0,0,0,6.62-1.04c0.4-.06,1.5-0.35,1.79-0.35,1.16,0,2.21,3.25,2.21,3.37a1.45,1.45,0,0,1-1.28,1.1,59.647,59.647,0,0,1-12.35,1.97c-1.51.12-2.56,0-2.56,1.1a14.713,14.713,0,0,0,.7,3.54c0.29,0.87.52,1.45,1.51,1.45,2.96,0,12.41-1.97,15.43-2.9a1.924,1.924,0,0,1,.81-0.17c0.87,0,1.22.69,1.57,1.39a44.991,44.991,0,0,1,2.2,4.23,0.525,0.525,0,0,1-.52.53,1.935,1.935,0,0,1-.58-0.12,17.537,17.537,0,0,0-5.74-.99c-5.86,0-11.03,3.14-11.03,9.46,0,4.52,2.91,7.77,6.97,9.34,3.53,1.39,7.42,1.51,11.19,1.51,2.73,0,3.31-.12,3.31-3.72,0-1.68-.23-2.66-1.39-2.66a15,15,0,0,0-1.69.11,23.474,23.474,0,0,1-3.54.29c-3.13,0-9.04-.93-9.04-5.1,0-3.02,3.3-3.95,5.74-3.95a15.457,15.457,0,0,1,10.67,4.12,1.2,1.2,0,0,0,.93.46c1.28,0,4.7-2.43,4.7-3.77,0-.75-0.93-1.85-1.39-2.49-1.05-1.33-5.86-8.82-5.86-10.09,0-.99.93-1.28,1.62-1.57,1.57-.64,3.13-1.33,4.64-2.09,1.16-.64,2.44-1.16,2.44-2.03s-1.97-4.46-2.96-4.46a3.357,3.357,0,0,0-1.39.63c-1.22.76-5.69,3.37-6.91,3.37-0.69,0-1.1-.76-1.74-2.38a2.3,2.3,0,0,1-.29-0.87c0-.75.76-0.93,1.34-1.16a40.169,40.169,0,0,0,4.18-1.91,1.949,1.949,0,0,0,1.21-1.4c0-.98-1.5-4.52-2.55-4.52a5.175,5.175,0,0,0-1.45.58c-0.87.46-3.65,1.97-4.47,1.97-1.16,0-1.5-1.22-1.97-2.55C2731.25,1393.62,2731.13,1392.7,2729.74,1392.7Zm57.31,38.11c2.9,0,2.95.63,2.95,1.79,0,2.04-.92,3.14-3.01,3.14-1.51,0-3.83-.93-3.83-2.73C2783.16,1431.15,2785.65,1430.81,2787.05,1430.81Zm2.84-20.48a1.173,1.173,0,0,0-1.39,1.28c0,0.29.05,0.52,0.05,0.81,0.18,2.26,1.05,10.67,1.05,12.53a1.018,1.018,0,0,1-1.22.98h-1.51c-4.58,0-9.63,1.86-9.63,7.2,0,5.39,5.51,7.89,10.21,7.89,3.95,0,7.37-1.45,8.07-5.69,0.05-.52.29-1.33,0.92-1.33,0.93,0,3.77,2.03,4.64,2.67a2.977,2.977,0,0,0,1.51.81c1.45,0,3.6-3.31,3.6-4.24,0-1.39-6.85-4.58-8.18-5.1-0.17-.06-0.41-0.18-0.58-0.23-0.87-.35-1.62-0.58-1.8-1.45-0.29-1.22-.58-9.57-0.58-11.26,0-1.22.12-2.96,0.12-3.07a1.294,1.294,0,0,0-1.16-1.22A24.627,24.627,0,0,0,2789.89,1410.33Zm8.87-8.93c-1.21,0-3.88,3.19-3.88,4a1.531,1.531,0,0,0,.75.93,32.778,32.778,0,0,1,7.25,7.48,1.9,1.9,0,0,0,1.28,1.04c1.04,0,4.35-2.61,4.35-4C2808.51,1409.34,2800.21,1401.4,2798.76,1401.4Zm-19.49-9.46c-0.52,0-.52.58-0.52,0.99,0,1.85-.98,8.29-1.85,9.74a1.971,1.971,0,0,1-1.74.93,52.162,52.162,0,0,1-5.98.29h-2.67a0.843,0.843,0,0,0-1.04.93c0,0.58.29,2.67,0.4,3.36,0.24,1.34.47,1.86,1.45,1.86,1.34,0,5.8-.58,6.27-0.58a0.782,0.782,0,0,1,.81.75,22.5,22.5,0,0,1-1.33,3.54,107.406,107.406,0,0,1-6.91,13.4,6.492,6.492,0,0,0-1.04,2.09c0,1.22,3.89,2.9,5.16,2.9a1.158,1.158,0,0,0,1.16-.81,147.056,147.056,0,0,0,9.46-20.65c0.69-1.92.64-2.32,2.72-2.67,5.34-.99,6.04-1.1,6.04-2.38a28.964,28.964,0,0,0-.29-3.07c-0.12-.7-0.18-1.74-0.87-1.74a2.288,2.288,0,0,0-.58.11,27.185,27.185,0,0,1-3.31.87,0.669,0.669,0,0,1-.64-0.75,19.276,19.276,0,0,1,.64-2.61c0.17-.64.58-2.67,1.04-3.08a1.64,1.64,0,0,0,.93-1.04,1.187,1.187,0,0,0-.93-0.7C2784.73,1393.33,2779.91,1391.94,2779.27,1391.94Zm60.38,4.99c0-1.74.06-2.49,0.7-2.9,0.58-.35.98-0.52,0.98-0.99a0.88,0.88,0,0,0-.87-0.81c-0.75-.11-5.16-0.4-5.91-0.4-0.58,0-1.34,0-1.34.98,0,0.23.06,0.41,0.06,0.64a54.279,54.279,0,0,1,.18,6.09v1.8a1.4,1.4,0,0,1-1.63,1.62h-7.37c-2.26,0-4.52-.17-6.78-0.17-1.45,0-1.39.75-1.39,2.96s-0.06,3.01,1.39,3.01c2.26,0,4.52-.17,6.78-0.17h7.2a1.309,1.309,0,0,1,1.51,1.57,30.8,30.8,0,0,1-1.98,9.63c-2.66,7.07-8.18,12.64-14.67,16.24-0.64.35-1.97,0.87-1.97,1.68,0,1.51,2.49,4.29,3.88,4.29,1.05,0,5.86-3.59,6.96-4.46,9.69-7.66,12.65-15.32,13.92-27.38a1.513,1.513,0,0,1,1.8-1.57h10.33c3.19,0,3.83-.06,3.83,2.03,0,4.76-.53,17.52-1.63,21.75-0.81,3.08-2.38,3.43-5.22,3.43-1.74,0-3.36-.29-4.7-0.29-1.27,0-1.33.87-1.33,2.08,0,4.59.81,4.47,5.57,4.47,4.52,0,8.93-.41,10.73-5.28,2.26-6.09,2.49-23.38,2.49-30.51,0-2.73-1.1-3.48-3.77-3.48-2.14,0-4.29.17-6.44,0.17h-9.68a1.4,1.4,0,0,1-1.63-1.62v-4.41Zm40.49-1.22a2.977,2.977,0,0,0,.17.7,38.136,38.136,0,0,1,1.1,3.83c0.58,2.38,2.21,8.52,2.9,10.61a1.943,1.943,0,0,1,.23,1.05,1.781,1.781,0,0,1-.98,1.5c-4.82,3.14-10.04,7.26-10.04,13.58a10.208,10.208,0,0,0,5.34,8.93c3.83,2.26,7.6,2.5,11.89,2.5,2.78,0,13.75-.35,15.95-0.93,1.16-.29,1.22-0.93,1.22-2.44v-0.69c0-1.22-.06-3.6-0.87-3.6a1.543,1.543,0,0,0-.52.06,87.591,87.591,0,0,1-15.14,1.5,23.231,23.231,0,0,1-7.72-1.04c-1.79-.64-3.82-2.09-3.82-4.18,0-2.2,1.33-3.77,2.84-5.22,2.43-2.32,7.36-5.16,10.44-6.84a105.523,105.523,0,0,1,14.33-6.67,1.259,1.259,0,0,0,1.1-.93c0-.81-1.22-2.78-1.68-3.54-0.35-.58-1.34-2.32-2.09-2.32a3.736,3.736,0,0,0-1.51.58c-1.51.99-10.79,6.44-11.83,6.44-0.99,0-1.16-.99-1.34-1.74a79.905,79.905,0,0,1-1.8-10.38c-0.11-1.34,0-2.21-1.62-2.21a22.539,22.539,0,0,0-2.78.29C2882.05,1394.84,2880.14,1394.84,2880.14,1395.71Zm40.13,35.04a1.65,1.65,0,0,0,1.04,1.1,35.689,35.689,0,0,1,8.82,7.89,1.9,1.9,0,0,0,1.16.87c1.34,0,4.24-3.19,4.24-4.47,0-1.45-9.98-9.45-11.32-9.45C2923.23,1426.69,2920.27,1429.76,2920.27,1430.75Zm66.7-32.54c0,0.93,1.28,1.22,3.71,1.85,2.21,0.58,11.49,2.61,13.35,2.61,0.92,0,1.27-.58,1.56-1.74a24.049,24.049,0,0,0,.58-3.53c0-.87-0.64-0.87-1.45-0.93-4-.41-10.85-1.34-14.5-2.9a1.981,1.981,0,0,0-.93-0.35,1.358,1.358,0,0,0-1.16,1.1A13.789,13.789,0,0,0,2986.97,1398.21Zm11.02,7.25c-5.39,0-10.84,2.14-15.49,4.7-0.69.34-1.74,0.87-1.74,1.79,0,1.34,1.86,5.52,3.25,5.52a2.647,2.647,0,0,0,1.22-.58c3.6-3.02,7.54-5.46,12.41-5.46,4.93,0,8.07,3.08,8.07,8.01,0,8.06-8.59,14.38-15.55,16.59a1.3,1.3,0,0,0-1.16.98c0,0.93,2.38,4.88,4.12,4.88,1.1,0,4-1.57,4.99-2.15,7.37-4.47,14.09-11.66,14.09-20.77C3012.2,1410.45,3006.23,1405.46,2997.99,1405.46Zm60.85,22.33c0.87,0,4.46.29,4.46,1.51,0,0.52-1.68,3.3-5.45,3.3-1.45,0-4.41-.52-4.41-2.43C3053.44,1428.2,3057.39,1427.79,3058.84,1427.79Zm-20.36-34.75a0.75,0.75,0,0,0-.87.87v1.16c0,2.33-.12,4.7-0.18,7.02a3.386,3.386,0,0,1-.29,1.69c-0.64,1.21-6.84,2.14-8.35,2.26-1.05.11-2.32,0.06-2.32,1.04a21.185,21.185,0,0,0,1.39,4.24c0.23,0.52.52,1.33,1.22,1.33a27.893,27.893,0,0,0,4-1.1,30.272,30.272,0,0,1,3.42-.99c0.53,0,.53.52,0.53,0.87a6.7,6.7,0,0,1-.29,1.86,77.787,77.787,0,0,1-8.88,15.14,4.789,4.789,0,0,0-.99,1.74c0,1.1,3.19,3.83,4.12,3.83a1.261,1.261,0,0,0,1.05-.87c0.4-.82,3.19-6.04,3.88-6.04a0.485,0.485,0,0,1,.35.58c0,1.16-.29,7.55-0.41,8.59a5.8,5.8,0,0,0-.05.93c0,1.33,1.62,1.22,2.55,1.22,3.65,0,4.18-.06,4.18-1.45,0-.06-0.35-6.39-0.35-10.21v-3.14c0-3.53.11-3.77,1.27-4.87,4.01-3.94,10.68-10.79,16.59-10.79,4.99,0,5.34,8.3,5.34,11.89,0,1.86-.06,3.48-1.33,3.48h-0.29a28.8,28.8,0,0,0-4.93-.63c-4.24,0-10.79,2.49-10.79,7.54,0,4.99,5.56,7.42,9.86,7.42a11.373,11.373,0,0,0,9.86-4.99,1.48,1.48,0,0,1,1.22-.87,3.263,3.263,0,0,1,1.56.76,7.585,7.585,0,0,0,2.73,1.5c1.39,0,3.02-2.9,3.02-4.06,0-1.33-2.5-2.61-4.36-3.65a1.851,1.851,0,0,1-1.27-1.68c0-.23.06-0.41,0.06-0.64,0.17-1.68.34-3.6,0.34-5.28,0-3.48-.52-8.7-2.32-11.72a9.554,9.554,0,0,0-8.46-4.75c-4.12,0-7.26,1.8-10.39,4.23a59.388,59.388,0,0,0-6.32,5.74,1.248,1.248,0,0,1-.75.47c-0.24,0-.24-0.23-0.24-0.41a3.35,3.35,0,0,1,.47-1.45,23.765,23.765,0,0,1,2.55-4.35,2.714,2.714,0,0,0,.81-1.51,2.934,2.934,0,0,0-1.8-2.2,1.728,1.728,0,0,1-1.39-1.51c0-.17.23-2.32,0.23-2.67,0.24-2.08.24-2.32,0.93-2.9a0.949,0.949,0,0,0,.47-0.69,0.935,0.935,0,0,0-.82-0.76A32.88,32.88,0,0,0,3038.48,1393.04Zm71.4,2.67a3.321,3.321,0,0,0,.11.76,56.127,56.127,0,0,1,2.03,16.18c0,4.93-.52,10.04-2.67,14.62a22,22,0,0,1-7.89,9.05,1.365,1.365,0,0,0-.87.98c0,1.22,3.37,4.06,4.3,4.06,1.33,0,3.71-2.32,4.64-3.24,7.31-7.43,8.99-15.96,8.99-25.99a76.639,76.639,0,0,0-1.8-16.71c-0.23-.87-0.35-1.56-1.45-1.56C3114.63,1393.86,3109.88,1394.44,3109.88,1395.71Zm-16.88.87c-0.41-.17-2.96-1.22-3.14-1.22-0.52,0-.69,1.05-0.75,1.46-0.23,1.45-.64,2.84-0.99,4.29a54.511,54.511,0,0,0-1.33,11.89,48.358,48.358,0,0,0,1.91,13.51c0.35,1.11.76,2.15,2.03,2.15,1.11,0,4.18-.7,4.18-2.32,0-.41-0.12-1.04-0.12-1.86,0-2.32,1.11-4.98,1.92-7.19l0.52-1.39c0.52-1.39,1.39-3.42,1.39-3.6,0-.75-1.74-1.8-2.26-1.8-0.7,0-1.74,2.5-2.03,3.14-0.23.58-.58,1.51-1.04,1.51-0.64,0-.58-2.5-0.58-2.96a30.853,30.853,0,0,1,.75-6.5,23.343,23.343,0,0,1,1.68-4.87,2.628,2.628,0,0,1,1.1-1.16,1.033,1.033,0,0,0,.7-0.76C3096.94,1398.27,3094.27,1397.16,3093,1396.58Zm51.04-.87a2.977,2.977,0,0,0,.17.7,38.136,38.136,0,0,1,1.1,3.83c0.58,2.38,2.21,8.52,2.9,10.61a1.943,1.943,0,0,1,.23,1.05,1.781,1.781,0,0,1-.98,1.5c-4.82,3.14-10.04,7.26-10.04,13.58a10.208,10.208,0,0,0,5.34,8.93c3.83,2.26,7.6,2.5,11.89,2.5,2.78,0,13.75-.35,15.95-0.93,1.16-.29,1.22-0.93,1.22-2.44v-0.69c0-1.22-.06-3.6-0.87-3.6a1.543,1.543,0,0,0-.52.06,87.591,87.591,0,0,1-15.14,1.5,23.231,23.231,0,0,1-7.72-1.04c-1.79-.64-3.82-2.09-3.82-4.18,0-2.2,1.33-3.77,2.84-5.22,2.43-2.32,7.36-5.16,10.44-6.84a105.523,105.523,0,0,1,14.33-6.67,1.259,1.259,0,0,0,1.1-.93c0-.81-1.22-2.78-1.68-3.54-0.35-.58-1.34-2.32-2.09-2.32a3.736,3.736,0,0,0-1.51.58c-1.51.99-10.79,6.44-11.83,6.44-0.99,0-1.16-.99-1.34-1.74a79.905,79.905,0,0,1-1.8-10.38c-0.11-1.34,0-2.21-1.62-2.21a22.539,22.539,0,0,0-2.78.29C3145.95,1394.84,3144.04,1394.84,3144.04,1395.71Zm65.25,35.1c2.9,0,2.95.63,2.95,1.79,0,2.04-.92,3.14-3.01,3.14-1.51,0-3.83-.93-3.83-2.73C3205.4,1431.15,3207.89,1430.81,3209.29,1430.81Zm2.84-20.48a1.173,1.173,0,0,0-1.39,1.28c0,0.29.05,0.52,0.05,0.81,0.18,2.26,1.05,10.67,1.05,12.53a1.018,1.018,0,0,1-1.22.98h-1.51c-4.58,0-9.63,1.86-9.63,7.2,0,5.39,5.51,7.89,10.21,7.89,3.95,0,7.37-1.45,8.07-5.69,0.05-.52.29-1.33,0.92-1.33,0.93,0,3.77,2.03,4.64,2.67a2.977,2.977,0,0,0,1.51.81c1.45,0,3.6-3.31,3.6-4.24,0-1.39-6.85-4.58-8.18-5.1-0.17-.06-0.41-0.18-0.58-0.23-0.87-.35-1.62-0.58-1.8-1.45-0.29-1.22-.58-9.57-0.58-11.26,0-1.22.12-2.96,0.12-3.07a1.294,1.294,0,0,0-1.16-1.22A24.627,24.627,0,0,0,3212.13,1410.33Zm8.87-8.93c-1.21,0-3.88,3.19-3.88,4a1.531,1.531,0,0,0,.75.93,32.778,32.778,0,0,1,7.25,7.48,1.9,1.9,0,0,0,1.28,1.04c1.04,0,4.35-2.61,4.35-4C3230.75,1409.34,3222.45,1401.4,3221,1401.4Zm-19.49-9.46c-0.52,0-.52.58-0.52,0.99,0,1.85-.98,8.29-1.85,9.74a1.971,1.971,0,0,1-1.74.93,52.162,52.162,0,0,1-5.98.29h-2.67a0.843,0.843,0,0,0-1.04.93c0,0.58.29,2.67,0.4,3.36,0.24,1.34.47,1.86,1.45,1.86,1.34,0,5.81-.58,6.27-0.58a0.782,0.782,0,0,1,.81.75,22.5,22.5,0,0,1-1.33,3.54,107.406,107.406,0,0,1-6.91,13.4,6.492,6.492,0,0,0-1.04,2.09c0,1.22,3.89,2.9,5.16,2.9a1.158,1.158,0,0,0,1.16-.81,147.056,147.056,0,0,0,9.46-20.65c0.69-1.92.64-2.32,2.72-2.67,5.34-.99,6.04-1.1,6.04-2.38a28.964,28.964,0,0,0-.29-3.07c-0.12-.7-0.18-1.74-0.87-1.74a2.288,2.288,0,0,0-.58.11,27.185,27.185,0,0,1-3.31.87,0.669,0.669,0,0,1-.64-0.75,19.276,19.276,0,0,1,.64-2.61c0.17-.64.58-2.67,1.04-3.08a1.64,1.64,0,0,0,.93-1.04,1.187,1.187,0,0,0-.93-0.7C3206.97,1393.33,3202.15,1391.94,3201.51,1391.94Zm40.72,24.02c0,1.22,2.09,4.7,3.59,4.7a3.051,3.051,0,0,0,1.63-.58c4.93-2.67,12.47-5.86,18.1-5.86,3.54,0,6.49,2.09,6.49,5.86,0,3.71-2.61,6.55-5.68,8.29a26.209,26.209,0,0,1-9.92,2.9c-0.75.06-1.86,0.17-1.86,1.16,0,0.46.82,4.41,2.73,4.41,2.15,0,6.9-1.57,8.93-2.44,6.09-2.61,11.37-7.02,11.37-14.21,0-7.02-5.28-11.37-12.06-11.37-5.46,0-11.55,2.32-16.71,4.18a45.587,45.587,0,0,1-5.34,1.74A1.361,1.361,0,0,0,3242.23,1415.96Zm48.78-13.05c0,0.58.52,6.09,1.91,6.09a4.337,4.337,0,0,0,.87-0.12,114.588,114.588,0,0,1,12.82-2.38c0.64-.11,3.25-0.52,3.71-0.52a0.819,0.819,0,0,1,.87.7,3.869,3.869,0,0,1-1.04,1.39,25.731,25.731,0,0,0-6.38,16.65c0,11.31,8.47,14.44,18.33,14.44a1.806,1.806,0,0,0,1.68-.58,13.85,13.85,0,0,0,1.04-5.16c0-.93-0.46-0.99-1.33-0.99-0.58,0-1.86.06-2.9,0.06-5.86,0-10.21-1.63-10.21-8.35a21.723,21.723,0,0,1,2.78-10.21,17.617,17.617,0,0,1,9.92-8.65c3.25-1.16,6.21-1.16,9.63-1.21,1.34-.06,2.55.05,2.55-1.22a35.906,35.906,0,0,0-.46-4.24c-0.17-.69-0.29-1.45-1.16-1.45a2.8,2.8,0,0,0-.7.06c-4.35.7-8.81,1.28-13.16,1.8-8.47.99-16.94,1.86-25.41,2.38C3291.82,1401.57,3291.01,1401.4,3291.01,1402.91Z" transform="translate(-2499.59 -1390.38)"/>
</svg>
