<svg xmlns="http://www.w3.org/2000/svg" width="20.281" height="149.87" viewBox="0 0 20.281 149.87">
  <defs>
    <style>
      .cls-1 {
        fill-rule: evenodd;
      }
    </style>
  </defs>
  <path id="text-contact.svg" class="cls-1" d="M685.083,2750.48v-3.05a4.852,4.852,0,0,1-2.464-1.37,3.771,3.771,0,0,1-.952-2.69,4.133,4.133,0,0,1,.322-1.65,3.7,3.7,0,0,1,.882-1.29,3.626,3.626,0,0,1,.854-0.6,4.3,4.3,0,0,1,1.148-.37,15.359,15.359,0,0,1,1.694-.18q1.008-.06,2.52-0.06t2.52,0.06a15.386,15.386,0,0,1,1.694.18,4.314,4.314,0,0,1,1.148.37,3.646,3.646,0,0,1,.854.6,3.728,3.728,0,0,1,.882,1.29,4.151,4.151,0,0,1,.322,1.65,3.693,3.693,0,0,1-.952,2.67,4.916,4.916,0,0,1-2.464,1.36v3.08a7.3,7.3,0,0,0,4.564-2.44,7.1,7.1,0,0,0,1.568-4.67,7.209,7.209,0,0,0-2.128-5.25,5.827,5.827,0,0,0-1.54-1.13,7.576,7.576,0,0,0-1.764-.58,13.278,13.278,0,0,0-2.114-.21q-1.163-.03-2.59-0.03t-2.59.03a13.254,13.254,0,0,0-2.114.21,7.545,7.545,0,0,0-1.764.58,5.8,5.8,0,0,0-1.54,1.13,7.209,7.209,0,0,0-2.128,5.25,8.017,8.017,0,0,0,.392,2.53,6.392,6.392,0,0,0,1.176,2.13,6.577,6.577,0,0,0,1.932,1.57,8.37,8.37,0,0,0,2.632.88h0Zm6.594,24.05a14.7,14.7,0,0,0,2.114-.19,6.728,6.728,0,0,0,1.764-.57,5.569,5.569,0,0,0,1.54-1.12,7.28,7.28,0,0,0,1.582-2.35,7.593,7.593,0,0,0,.546-2.92,7.471,7.471,0,0,0-.546-2.91,7.24,7.24,0,0,0-1.582-2.34,5.781,5.781,0,0,0-1.54-1.12,7.576,7.576,0,0,0-1.764-.58,13.278,13.278,0,0,0-2.114-.21c-0.775-.01-1.638-0.02-2.59-0.02s-1.816.01-2.59,0.02a13.254,13.254,0,0,0-2.114.21,7.545,7.545,0,0,0-1.764.58,5.75,5.75,0,0,0-1.54,1.12,7.224,7.224,0,0,0-1.582,2.34,7.471,7.471,0,0,0-.546,2.91,7.593,7.593,0,0,0,.546,2.92,7.264,7.264,0,0,0,1.582,2.35,5.54,5.54,0,0,0,1.54,1.12,6.7,6.7,0,0,0,1.764.57,14.672,14.672,0,0,0,2.114.19q1.161,0.03,2.59.03T691.677,2774.53Zm-5.1-3.06a13.391,13.391,0,0,1-1.68-.17,4.715,4.715,0,0,1-1.148-.36,3.944,3.944,0,0,1-.854-0.6,4.021,4.021,0,0,1-.9-1.3,4.269,4.269,0,0,1,0-3.32,3.717,3.717,0,0,1,1.75-1.9,3.981,3.981,0,0,1,1.148-.36,11.739,11.739,0,0,1,1.68-.17c0.662-.03,1.5-0.04,2.506-0.04s1.843,0.01,2.506.04a11.771,11.771,0,0,1,1.68.17,3.655,3.655,0,0,1,2,.96,3.93,3.93,0,0,1,.9,1.3,4.146,4.146,0,0,1-.9,4.62,3.968,3.968,0,0,1-.854.6,4.729,4.729,0,0,1-1.148.36,13.432,13.432,0,0,1-1.68.17c-0.663.02-1.5,0.04-2.506,0.04S687.243,2771.49,686.581,2771.47Zm-7.462,27.34h19.936v-3.05h-14l14-9.22v-2.77H679.119v3.05h14.028l-14.028,9.22v2.77Zm17.22,23.32h2.716V2808.1h-2.716v5.49h-17.22v3.05h17.22v5.49Zm-17.22,22.29,19.936-7.31v-2.43l-19.936-7.31v3.22l4,1.37v7.87l-4,1.37v3.22Zm6.58-5.43v-6.13l8.848,3.1Zm-0.616,27.16v-3.05a4.865,4.865,0,0,1-2.464-1.38,3.73,3.73,0,0,1-.952-2.68,4.217,4.217,0,0,1,.322-1.66,3.754,3.754,0,0,1,.882-1.28,3.67,3.67,0,0,1,.854-0.61,3.981,3.981,0,0,1,1.148-.36,13.255,13.255,0,0,1,1.694-.18q1.008-.06,2.52-0.06t2.52,0.06a13.276,13.276,0,0,1,1.694.18,3.992,3.992,0,0,1,1.148.36,3.691,3.691,0,0,1,.854.61,3.782,3.782,0,0,1,.882,1.28,4.235,4.235,0,0,1,.322,1.66,3.693,3.693,0,0,1-.952,2.67,4.992,4.992,0,0,1-2.464,1.36v3.08a7.348,7.348,0,0,0,4.564-2.44,7.115,7.115,0,0,0,1.568-4.67,7.476,7.476,0,0,0-.546-2.89,7.322,7.322,0,0,0-1.582-2.36,5.613,5.613,0,0,0-1.54-1.13,7.135,7.135,0,0,0-1.764-.58,13.278,13.278,0,0,0-2.114-.21q-1.163-.03-2.59-0.03t-2.59.03a13.254,13.254,0,0,0-2.114.21,7.107,7.107,0,0,0-1.764.58,5.584,5.584,0,0,0-1.54,1.13,7.305,7.305,0,0,0-1.582,2.36,7.476,7.476,0,0,0-.546,2.89,8.017,8.017,0,0,0,.392,2.53,6.491,6.491,0,0,0,1.176,2.13,6.739,6.739,0,0,0,1.932,1.57,8.37,8.37,0,0,0,2.632.88h0Zm11.256,19.91h2.716v-14.03h-2.716v5.49h-17.22v3.05h17.22v5.49Z" transform="translate(-678.938 -2736.19)"/>
</svg>
