<svg xmlns="http://www.w3.org/2000/svg" width="302.629" height="32.72" viewBox="0 0 302.629 32.72">
  <defs>
    <style>
      .cls-1 {
        fill-rule: evenodd;
      }
    </style>
  </defs>
  <path id="挑戦がはじまります_" data-name="挑戦がはじまります。" class="cls-1" d="M988.438,1142.14c-0.432,0-2.09.65-2.09,1.19a2.145,2.145,0,0,0,.253.68,33.929,33.929,0,0,1,1.981,4.9,0.51,0.51,0,0,0,.5.5,3.852,3.852,0,0,0,1.225-.39c0.684-.29,1.044-0.43,1.044-0.97a9.313,9.313,0,0,0-.864-2.42c-0.433-1.01-.9-1.98-1.369-2.92A0.727,0.727,0,0,0,988.438,1142.14Zm3.243,9a1.384,1.384,0,0,1-.829,1.37c-1.225.8-2.594,1.44-3.891,2.16a8.811,8.811,0,0,1-.865.44,0.737,0.737,0,0,0-.72.61,13.562,13.562,0,0,0,.972,2.49,1.729,1.729,0,0,0,.793,1.04,0.659,0.659,0,0,0,.468-0.54,1.043,1.043,0,0,1,.361-0.61c0.324-.25,2.053-1.37,2.486-1.66a0.5,0.5,0,0,1,.288-0.11,0.391,0.391,0,0,1,.36.51c-0.72,3.6-2.774,6.09-5.4,8.57a1.069,1.069,0,0,0-.4.58c0,0.79,1.874,2.23,2.6,2.23,0.612,0,2.558-2.41,2.99-2.95a17.419,17.419,0,0,0,3.711-8.61,62.059,62.059,0,0,0,.5-8.18v-9.62c0-1.16.036-1.52,0.468-1.77a0.555,0.555,0,0,0,.432-0.47,0.529,0.529,0,0,0-.576-0.43c-0.5-.07-2.666-0.21-3.171-0.21-0.4,0-.684.07-0.684,0.54,0,0.1.036,0.21,0.036,0.32,0.108,1.26.108,2.49,0.108,3.75v7.89C991.717,1149.38,991.753,1150.24,991.681,1151.14Zm9.3-11.89c0-1.11.03-1.76,0.39-2.01a0.742,0.742,0,0,0,.47-0.54c0-.44-0.58-0.47-0.9-0.47-0.65-.07-2.342-0.18-2.918-0.18-0.324,0-.613.07-0.613,0.43,0,0.14.036,0.25,0.036,0.4,0.072,0.75.109,1.62,0.109,2.52v21.65c0,1.01-.037,2.02-0.037,3.03,0,2.7,1.658,3.42,4.033,3.42h2.06c1.33,0,2.19-.11,3.02-1.3a11.561,11.561,0,0,0,1.37-4.75c0-1.08-1.94-1.3-2.77-1.3-0.51,0-.65.25-0.69,0.87-0.18,2.3-.36,2.84-1.51,2.84h-0.97c-1.01,0-1.08-.21-1.08-2.05v-7.93a0.316,0.316,0,0,1,.57-0.25,30.754,30.754,0,0,1,3.28,4.47,0.6,0.6,0,0,0,.54.36c0.43,0,2.27-.97,2.27-1.55a15.494,15.494,0,0,0-1.98-3.06c-0.65-.87-1.33-1.66-2.05-2.49a0.853,0.853,0,0,0-.58-0.36,2.84,2.84,0,0,0-1.3.58,1.313,1.313,0,0,1-.32.1,0.428,0.428,0,0,1-.43-0.5v-2.2a0.444,0.444,0,0,1,.43-0.54,1,1,0,0,1,.32.07,4.054,4.054,0,0,0,1.52.58c0.72,0,2.59-3.13,2.99-3.78,0.1-.22.18-0.36,0.28-0.54,0.47-.76.55-0.9,0.94-0.94a0.562,0.562,0,0,0,.54-0.36c0-.36-0.54-0.58-1.55-1.08a7.828,7.828,0,0,0-1.69-.65,0.451,0.451,0,0,0-.36.36,33.328,33.328,0,0,1-2.85,4.58,0.342,0.342,0,0,1-.29.14,0.322,0.322,0,0,1-.28-0.36v-7.21Zm-17.226,6.38c0.324,0.04,1.477.07,1.658,0.07,0.828,0,.756-0.54.756-1.69,0-1.22.072-1.77-.756-1.77-0.289,0-1.261.08-1.622,0.08a0.848,0.848,0,0,1-.973-1.01v-2.27c0-1.15.036-1.73,0.4-1.95a0.828,0.828,0,0,0,.468-0.57c0-.44-0.576-0.47-0.9-0.47-0.5-.04-2.378-0.18-2.81-0.18-0.4,0-.72.03-0.72,0.54,0,0.21.108,0.93,0.144,1.29,0.036,1.09,0,2.13,0,3.18v0.43a0.837,0.837,0,0,1-.937,1.01c-0.541,0-1.261-.08-1.73-0.08-0.828,0-.756.51-0.756,1.77,0,1.19-.072,1.69.756,1.69,0.072,0,1.514-.03,1.73-0.07a0.851,0.851,0,0,1,.937,1.01v5.04a1.113,1.113,0,0,1-.865,1.3,18.7,18.7,0,0,1-2.018.61c-1.045.29-1.225,0.36-1.225,0.76,0,0.25.613,1.98,0.721,2.31a2.769,2.769,0,0,0,.108.28,1.142,1.142,0,0,0,.684,1.01,0.438,0.438,0,0,0,.433-0.43c0.144-.43.18-0.5,1.261-0.9a0.944,0.944,0,0,1,.324-0.07,0.627,0.627,0,0,1,.577.76v4.93c0,1.51.108,2.27-1.225,2.27-0.361,0-1.3-.11-1.442-0.11-0.648,0-.684.62-0.684,1.12,0,2.49.72,2.59,1.765,2.59,2.63,0,5.08-.43,5.08-3.64,0-.79-0.072-1.58-0.072-2.37v-6.2a1.293,1.293,0,0,1,.829-1.37c2.7-1.22,2.774-1.26,2.774-2.34,0-.47,0-2.09-0.684-2.09a9.4,9.4,0,0,0-1.585.68c-0.181.11-.361,0.18-0.433,0.22a0.944,0.944,0,0,1-.324.07,0.611,0.611,0,0,1-.577-0.72v-3.71A0.847,0.847,0,0,1,983.754,1145.63Zm40.926-4.47a19.364,19.364,0,0,0-.86-2.81c-0.91-2.3-1.05-2.66-1.66-2.66-0.4,0-2.2.54-2.2,1.19a1.631,1.631,0,0,0,.07.36c0.65,1.55,1.08,2.63,1.59,4.21a0.854,0.854,0,0,0,.75.83C1022.84,1142.28,1024.68,1141.81,1024.68,1141.16Zm-5.48.44a21.556,21.556,0,0,0-1.47-3.46c-0.87-1.7-1.05-1.95-1.55-1.95-0.47,0-2.27.61-2.27,1.37a2.107,2.107,0,0,0,.21.61,26.559,26.559,0,0,1,1.95,3.97,0.922,0.922,0,0,0,.79.79C1017.44,1142.93,1019.2,1142.35,1019.2,1141.6Zm25.19,0.21a13.109,13.109,0,0,0-1.66-2.66c-0.36-.47-1.66-2.27-2.23-2.27-0.54,0-2.2.93-2.2,1.55a1.2,1.2,0,0,0,.32.57,35.333,35.333,0,0,1,2.74,3.75,0.941,0.941,0,0,0,.72.61C1042.59,1143.36,1044.39,1142.46,1044.39,1141.81Zm-6.99,7.17a0.881,0.881,0,0,1,.9-1.01l3.89-.25c0.61-.03,1.12-0.07,1.51-0.07,1.48-.07,1.52-0.07,1.52-1.37v-0.11c0-1.15-.04-1.98-0.76-1.98-0.11,0-1.95.18-2.45,0.22l-3.75.25a0.794,0.794,0,0,1-.93-0.9c-0.04-1.8-.04-3.6-0.04-5.41,0-.72.07-0.9,0.4-1.08a0.73,0.73,0,0,0,.54-0.57c0-.44-0.29-0.47-0.72-0.51-0.51-.07-2.6-0.29-2.99-0.29a0.575,0.575,0,0,0-.69.65c0,0.25.04,1.01,0.04,1.62v1.34c0,1.51.07,3.02,0.07,4.5a0.834,0.834,0,0,1-.94.97c-2.45.15-2.48,0-2.48,1.12,0,0.61,0,2.41.86,2.41,0.15,0,1.37-.14,1.69-0.18a0.826,0.826,0,0,1,.98.87,63.2,63.2,0,0,0,.97,9.4,1.233,1.233,0,0,1,.04.4,1.474,1.474,0,0,1-.47,1.12,39.086,39.086,0,0,1-5.87,5.18,1.249,1.249,0,0,0-.65.8c0,0.54,1.37,2.16,2.05,2.16,0.97,0,4.68-3.64,5.48-4.43a0.561,0.561,0,0,1,.47-0.22,0.7,0.7,0,0,1,.57.4c0.94,2.01,2.42,4.1,4.9,4.1,1.7,0,2.6-1.47,3.17-2.88a13.771,13.771,0,0,0,.87-4c0-1.08-1.23-1.47-2.06-1.47s-0.83.32-.9,0.93c-0.11.69-.36,3.17-1.29,3.17-0.83,0-1.88-2.2-2.2-2.92a1.71,1.71,0,0,1-.15-0.61,1.569,1.569,0,0,1,.36-0.94,39.116,39.116,0,0,0,4-6.62,1.229,1.229,0,0,1,.8-0.91,0.675,0.675,0,0,0,.54-0.43c0-.47-0.87-0.75-1.59-1.08a8.621,8.621,0,0,0-1.73-.68,1.035,1.035,0,0,0-.68.9,30.584,30.584,0,0,1-2.27,4.5,0.411,0.411,0,0,1-.33.22,0.376,0.376,0,0,1-.32-0.36C1037.58,1152.95,1037.47,1150.96,1037.4,1148.98Zm-16.79-1.01a0.958,0.958,0,0,1-1.01.98h-0.83a0.958,0.958,0,0,1-1.01-.98v-0.61a0.955,0.955,0,0,1,1.01-.97h0.83a1,1,0,0,1,1.01.97v0.61Zm0,5.05a0.955,0.955,0,0,1-1.01.97h-0.83a0.955,0.955,0,0,1-1.01-.97v-0.58a1.034,1.034,0,0,1,1.01-1.01h0.83a1.034,1.034,0,0,1,1.01,1.01v0.58Zm3.31-.58a1.014,1.014,0,0,1,1.01-1.01h0.9a0.958,0.958,0,0,1,.98,1.01v0.58a0.892,0.892,0,0,1-.98.97h-0.9a0.94,0.94,0,0,1-1.01-.97v-0.58Zm1.01-3.49a0.942,0.942,0,0,1-1.01-.98v-0.61a0.94,0.94,0,0,1,1.01-.97h0.9a0.926,0.926,0,0,1,.98.97v0.61a0.9,0.9,0,0,1-.98.98h-0.9Zm3.35,7.89c0.87,0,1.66.03,1.66-1.08,0-.72-0.04-1.45-0.04-2.17v-6.45c0-.75.04-1.54,0.04-2.34a1.09,1.09,0,0,0-.97-1.26,0.418,0.418,0,0,1-.4-0.36,0.4,0.4,0,0,1,.07-0.21c1.16-1.91,1.77-3.1,2.16-3.82,0.55-1.05.62-1.23,1.12-1.3a0.414,0.414,0,0,0,.47-0.36,0.694,0.694,0,0,0-.65-0.58,30.1,30.1,0,0,0-2.92-1.11,0.536,0.536,0,0,0-.43.54,29.717,29.717,0,0,1-3.06,6.41,1.4,1.4,0,0,1-1.51.79h-5.59c-0.76,0-1.51-.03-2.23-0.03a1.14,1.14,0,0,0-1.34,1.36c0,0.76.04,1.52,0.04,2.27v6.45c0,0.72-.07,1.45-0.07,2.17,0,1.08.75,1.08,1.65,1.08h3.32a0.856,0.856,0,0,1,1.01,1.01v0.28a0.859,0.859,0,0,1-1.01,1.01h-1.44c-1.23,0-2.49-.07-3.71-0.07-0.87,0-.83.43-0.83,1.44,0,0.97-.04,1.41.83,1.41,1.22,0,2.48-.08,3.71-0.08h1.44a0.859,0.859,0,0,1,1.01,1.01c0.03,1.37-.07,2.74-0.07,4.11,0,1.12.32,1.15,1.73,1.15s1.73-.03,1.73-1.15c0-1.37-.08-2.74-0.08-4.11a0.859,0.859,0,0,1,1.01-1.01h1.62c1.26,0,2.49.08,3.75,0.08,0.83,0,.83-0.44.83-1.41,0-1.08,0-1.44-.87-1.44-1.26,0-2.48.07-3.71,0.07h-1.62a0.859,0.859,0,0,1-1.01-1.01v-0.28a0.856,0.856,0,0,1,1.01-1.01h3.35Zm31.2-18.74a0.449,0.449,0,0,0-.43.54c0,0.07.07,0.83,0.07,1.41a32.643,32.643,0,0,1-.4,4.64,1.144,1.144,0,0,1-1.15,1.12c-1.98.36-4,.87-6.02,1.08-0.43.04-1.04,0.04-1.04,0.58,0,0.22.61,3.75,1.48,3.75a2.385,2.385,0,0,0,.75-0.26,30.262,30.262,0,0,1,4.15-1.26,0.461,0.461,0,0,1,.47.47,13.111,13.111,0,0,1-.91,2.74,28.818,28.818,0,0,1-6.44,10.02,1.315,1.315,0,0,0-.51.82c0,0.83,2.31,2.2,2.96,2.2a0.851,0.851,0,0,0,.61-0.36,32.556,32.556,0,0,0,3.56-5.11,40.628,40.628,0,0,0,4.62-10.78c0.25-1.01.64-1.29,2.66-1.29,2.2,0,2.31,1.51,2.31,3.27a21.579,21.579,0,0,1-1.62,8.15c-0.9,1.8-1.8,2.23-3.79,2.23-0.72,0-1.26-.14-1.62-0.14a0.506,0.506,0,0,0-.5.61,7.114,7.114,0,0,0,.65,2.59,1.467,1.467,0,0,0,1.65.83,7.36,7.36,0,0,0,6.81-3.89c1.59-2.88,2.17-7.75,2.17-11.02,0-2.02-.44-4.08-2.24-5.26a7.15,7.15,0,0,0-4.07-.8h-0.43a0.7,0.7,0,0,1-.79-0.72,1.61,1.61,0,0,1,.07-0.43c0.11-.58.18-1.08,0.25-1.48,0.18-1.29.25-1.87,0.94-2.38a0.591,0.591,0,0,0,.32-0.46,1.018,1.018,0,0,0-.94-0.58C1062.54,1138.79,1059.84,1138.1,1059.48,1138.1Zm14.66,0a2.991,2.991,0,0,0-1.72,1.51,0.92,0.92,0,0,0,.32.51,30.537,30.537,0,0,1,2.56,2.77,0.983,0.983,0,0,0,.5.4,2.714,2.714,0,0,0,1.73-1.66A14.244,14.244,0,0,0,1074.14,1138.1Zm3.39-2.56a3.218,3.218,0,0,0-1.73,1.52,0.847,0.847,0,0,0,.36.5c0.9,0.9,1.73,1.8,2.56,2.78a0.753,0.753,0,0,0,.5.39,2.784,2.784,0,0,0,1.73-1.66A14.519,14.519,0,0,0,1077.53,1135.54Zm-5.87,6.49c-0.58,0-2.56,1.19-2.56,1.84a1.171,1.171,0,0,0,.32.61,26.358,26.358,0,0,1,4.83,7.71,1.045,1.045,0,0,0,.83.83c0.72,0,2.99-1.34,2.99-2.16C1078.07,1149.96,1073.03,1142.03,1071.66,1142.03Zm28.21,18.19c0,1.48-.9,1.99-2.27,1.99-0.9,0-2.63-.4-2.63-1.55,0-1.12,1.76-1.41,2.59-1.41C1098.25,1159.25,1099.87,1159.29,1099.87,1160.22Zm-0.72-21.83a0.444,0.444,0,0,0-.51.5c0,0.11.04,0.26,0.04,0.36,0.14,0.91.43,4.4,0.43,5.16,0,0.79-.83.86-1.69,0.86h-0.58c-1.87,0-5.08-.36-5.51-0.36-0.54,0-.58.43-0.58,0.9s0.04,2.52.36,2.74a8.083,8.083,0,0,0,2.74.29h0.47c1.44,0,4-.15,4.29-0.15,0.9,0,.82,1.01.86,1.37,0.04,1.05.22,4.47,0.22,5.37a0.661,0.661,0,0,1-.72.76h-0.26a9.329,9.329,0,0,0-1.4-.11c-2.81,0-5.66,1.3-5.66,4.54,0,3.31,3.14,4.68,6.02,4.68,2.16,0,4.57-.72,5.22-3.02a0.6,0.6,0,0,1,.54-0.58c0.47,0,2.27,1.59,2.67,1.98a1.656,1.656,0,0,0,1.01.54c0.83,0,2.09-1.65,2.09-2.48a1.928,1.928,0,0,0-.94-1.37,19.794,19.794,0,0,0-3.89-2.52c-0.79-.4-1.15-0.47-1.22-1.41-0.04-.94-0.29-6.45-0.29-7.17,0-.9.43-1.04,1.22-1.15,4.25-.58,4.51-0.83,4.51-1.52,0-.54-0.26-3.02-0.98-3.02a2.727,2.727,0,0,0-.54.11,23.685,23.685,0,0,1-3.6.9,0.8,0.8,0,0,1-.76-0.94v-1.01a4.977,4.977,0,0,1,.4-2.56,1.418,1.418,0,0,0,.4-0.72,0.352,0.352,0,0,0-.36-0.32A34.558,34.558,0,0,0,1099.15,1138.39Zm-11.46,1.19a14.158,14.158,0,0,0-2.31-.94,0.6,0.6,0,0,0-.47.61c-0.39,1.59-.9,3.14-1.29,4.72a41.383,41.383,0,0,0-1.26,10.09,25.973,25.973,0,0,0,2.12,11.1,1.616,1.616,0,0,0,1.15,1.19c0.19,0,2.74-.43,2.74-1.84,0-.58-0.07-1.15-0.07-1.73,0-2.09,1.77-6.05,1.77-6.56a2.257,2.257,0,0,0-1.55-1.15c-0.44,0-.8,1.19-0.98,1.59-0.36.83-.54,1.29-0.79,1.29-0.68,0-.79-3.42-0.79-4a33.432,33.432,0,0,1,1.98-10.95,2.558,2.558,0,0,1,1.48-1.84,0.374,0.374,0,0,0,.32-0.36,1.316,1.316,0,0,0-.93-0.72C1088.59,1140.01,1088.16,1139.79,1087.69,1139.58Zm47.05-.76a3.033,3.033,0,0,0-1.73,1.48,0.866,0.866,0,0,0,.32.5,37.327,37.327,0,0,1,2.56,2.81,0.707,0.707,0,0,0,.51.4,2.85,2.85,0,0,0,1.73-1.62C1138.13,1141.99,1135.17,1138.82,1134.74,1138.82Zm-3.96,2.7a3.111,3.111,0,0,0-1.77,1.48,0.968,0.968,0,0,0,.33.51,32.538,32.538,0,0,1,2.52,2.84,0.794,0.794,0,0,0,.5.4,2.816,2.816,0,0,0,1.77-1.62A13.925,13.925,0,0,0,1130.78,1141.52Zm-11.53-2.91c-0.51,0-.54.36-0.54,0.9v0.39c0,1.48-.33,4.94-0.44,6.6q-0.315,4.26-.32,8.54c0,2.63.18,6.12,1.8,8.28a7.964,7.964,0,0,0,6.34,2.78,12.625,12.625,0,0,0,10.96-6.89,13.389,13.389,0,0,0,1.47-4.21c0-1.08-2.19-2.92-2.99-2.92-0.54,0-.57.61-0.68,1.19a11.264,11.264,0,0,1-2.24,5.33,9.127,9.127,0,0,1-6.77,3.5c-3.89,0-3.82-4.36-3.82-7.17a75.776,75.776,0,0,1,1.01-13.12,1.83,1.83,0,0,1,.83-1.47,0.428,0.428,0,0,0,.18-0.33c0-.43-0.72-0.54-1.23-0.65A27.3,27.3,0,0,0,1119.25,1138.61Zm36.06,21.43c0.83,0,1.69,0,1.69.69,0,1.94-1.4,2.41-3.06,2.41-0.94,0-2.56-.21-2.56-1.44C1151.38,1160.15,1154.19,1160.04,1155.31,1160.04Zm1.22-22.59c-0.32,0-.54.07-0.54,0.44a2.8,2.8,0,0,0,.08.57c0.1,0.61.32,3.03,0.32,3.6,0,0.98-.9.91-4.07,0.91-1.77,0-4.79-.29-5.55-0.29-0.61,0-.65.5-0.65,1.01a6.428,6.428,0,0,0,.4,2.63,3.646,3.646,0,0,0,2.09.32h1.08c1.94,0,4.83-.18,6.09-0.18,0.93,0,.97,1.48.97,2.52,0,0.79-.5.9-1.84,0.9h-1.62c-1.37,0-3.38-.18-3.82-0.18a0.6,0.6,0,0,0-.61.76,7.408,7.408,0,0,0,.47,2.52c0.29,0.65.97,0.61,2.45,0.61,1.55,0,3.57-.14,4.32-0.14,0.9,0,.83,1.33.83,2.49,0,0.36,0,1-.61,1-0.22,0-1.05-.07-1.48-0.07-2.99,0-6.92,1.16-6.92,4.79,0,3.36,3.14,4.69,6.02,4.69,2.92,0,5.77-.9,6.52-4a0.8,0.8,0,0,1,.72-0.79c0.72,0,3.1,1.69,3.75,2.19a1.936,1.936,0,0,0,1.12.58c0.86,0,2.05-1.84,2.05-2.63,0-1.3-4.76-3.31-5.94-3.71-1.55-.5-1.7-0.22-1.7-3.96,0-1.01.72-1.01,2.09-1.16a30.527,30.527,0,0,0,3.71-.61c0.65-.14.69-0.5,0.69-1.69,0-1.37-.11-2.16-0.62-2.16a2.425,2.425,0,0,0-.68.14,30.785,30.785,0,0,1-4.61.86,0.619,0.619,0,0,1-.58-0.57,11.615,11.615,0,0,1-.18-1.91c0-1.01.87-.97,1.62-1.08,1.91-.22,4.15-0.54,6.02-0.94,0.68-.14,1.01-0.22,1.01-0.94,0-.61-0.11-2.95-0.9-2.95a9.278,9.278,0,0,0-1.37.29,37.588,37.588,0,0,1-3.93.83c-0.25.03-1.66,0.25-1.8,0.25a0.833,0.833,0,0,1-.76-1.05c0.08-2.91.69-2.3,0.69-2.99,0-.39-0.51-0.46-1.44-0.57C1158.77,1137.7,1157.08,1137.45,1156.53,1137.45Zm37.08,1.41a1.982,1.982,0,0,0,.07.47,35.038,35.038,0,0,1,1.26,10.05,21.351,21.351,0,0,1-1.66,9.08,13.66,13.66,0,0,1-4.9,5.62,0.852,0.852,0,0,0-.54.61c0,0.76,2.09,2.52,2.67,2.52,0.83,0,2.3-1.44,2.88-2.01,4.54-4.62,5.58-9.91,5.58-16.15a48.008,48.008,0,0,0-1.11-10.37c-0.15-.54-0.22-0.98-0.9-0.98C1196.56,1137.7,1193.61,1138.07,1193.61,1138.86Zm-10.49.54c-0.25-.11-1.84-0.76-1.94-0.76a0.969,0.969,0,0,0-.47.9c-0.15.9-.4,1.77-0.62,2.67a33.86,33.86,0,0,0-.82,7.38,30.012,30.012,0,0,0,1.18,8.4c0.22,0.68.47,1.33,1.27,1.33,0.68,0,2.59-.43,2.59-1.44,0-.25-0.07-0.65-0.07-1.15a14.056,14.056,0,0,1,1.19-4.47l0.32-.86c0.33-.87.87-2.13,0.87-2.24a1.979,1.979,0,0,0-1.41-1.11c-0.43,0-1.08,1.54-1.26,1.94a1.365,1.365,0,0,1-.65.94c-0.4,0-.36-1.55-0.36-1.84a18.8,18.8,0,0,1,.47-4.03,14.441,14.441,0,0,1,1.04-3.03,1.656,1.656,0,0,1,.69-0.72,0.622,0.622,0,0,0,.43-0.47C1185.57,1140.44,1183.91,1139.76,1183.12,1139.4Zm34.87,20.64c0.83,0,1.7,0,1.7.69,0,1.94-1.41,2.41-3.06,2.41-0.94,0-2.56-.21-2.56-1.44C1214.07,1160.15,1216.88,1160.04,1217.99,1160.04Zm1.23-22.59c-0.32,0-.54.07-0.54,0.44a3.7,3.7,0,0,0,.07.57c0.11,0.61.33,3.03,0.33,3.6,0,0.98-.91.91-4.08,0.91-1.76,0-4.79-.29-5.54-0.29-0.62,0-.65.5-0.65,1.01a6.424,6.424,0,0,0,.39,2.63,3.666,3.666,0,0,0,2.09.32h1.08c1.95,0,4.83-.18,6.09-0.18,0.94,0,.98,1.48.98,2.52,0,0.79-.51.9-1.84,0.9h-1.62c-1.37,0-3.39-.18-3.82-0.18-0.51,0-.61.33-0.61,0.76a7.648,7.648,0,0,0,.46,2.52c0.29,0.65.98,0.61,2.45,0.61,1.55,0,3.57-.14,4.33-0.14,0.9,0,.83,1.33.83,2.49,0,0.36,0,1-.62,1-0.21,0-1.04-.07-1.47-0.07-2.99,0-6.92,1.16-6.92,4.79,0,3.36,3.13,4.69,6.02,4.69,2.91,0,5.76-.9,6.52-4a0.794,0.794,0,0,1,.72-0.79c0.72,0,3.1,1.69,3.74,2.19a1.936,1.936,0,0,0,1.12.58c0.87,0,2.05-1.84,2.05-2.63,0-1.3-4.75-3.31-5.94-3.71-1.55-.5-1.69-0.22-1.69-3.96,0-1.01.72-1.01,2.09-1.16a30.851,30.851,0,0,0,3.71-.61c0.65-.14.68-0.5,0.68-1.69,0-1.37-.11-2.16-0.61-2.16a2.421,2.421,0,0,0-.69.14,30.552,30.552,0,0,1-4.61.86,0.609,0.609,0,0,1-.57-0.57,11.615,11.615,0,0,1-.18-1.91c0-1.01.86-.97,1.62-1.08,1.91-.22,4.14-0.54,6.01-0.94,0.69-.14,1.01-0.22,1.01-0.94,0-.61-0.1-2.95-0.9-2.95a9.853,9.853,0,0,0-1.37.29,36.873,36.873,0,0,1-3.92.83c-0.26.03-1.66,0.25-1.8,0.25a0.833,0.833,0,0,1-.76-1.05c0.07-2.91.68-2.3,0.68-2.99,0-.39-0.5-0.46-1.44-0.57C1221.45,1137.7,1219.76,1137.45,1219.22,1137.45Zm30.8,14.45c1.48,0,1.8,2.05,1.8,3.17s-0.43,2.96-1.87,2.96-1.69-1.99-1.69-3.07S1248.62,1151.9,1250.02,1151.9Zm0.18-15.28a0.414,0.414,0,0,0-.47.44,0.681,0.681,0,0,0,.04.28,30.388,30.388,0,0,1,.36,4.47,1.058,1.058,0,0,1-.79,1.12c-0.33.07-8.79,0.54-9.77,0.58-1.76.07-2.09,0-2.09,0.72a20.731,20.731,0,0,0,.29,2.59c0.11,0.47.15,0.97,0.72,0.97a2.5,2.5,0,0,0,.54-0.07c1.73-.36,6.38-0.86,8.25-1.04,0.44-.04,2.09-0.22,2.38-0.22,0.4,0,.65.18,0.65,1.51a0.471,0.471,0,0,1-.43.44c-3.64.32-5.08,3.49-5.08,6.81,0,2.63,1.15,6.01,4.28,6.01a3.422,3.422,0,0,0,.83-0.18,0.955,0.955,0,0,1,.29-0.03,0.261,0.261,0,0,1,.25.25,1.281,1.281,0,0,1-.18.54,11.545,11.545,0,0,1-2.59,3.49,2.691,2.691,0,0,0-.83,1.01c0,0.65,2.92,1.55,3.35,1.55,1.59,0,5.44-6.45,5.44-12.25a11.081,11.081,0,0,0-1.11-5.04,3.028,3.028,0,0,1-.37-1.88v-1.26a1.175,1.175,0,0,1,.69-1.19c0.4-.1,3.75-0.14,4.4-0.14,2.01,0,4.71.18,5.22,0.18,0.36,0,.79.04,0.79-2.16,0-1.62-.25-1.84-0.83-1.84-1.55,0-5.4.22-7.17,0.29-0.39,0-1.8.11-2.09,0.11a0.95,0.95,0,0,1-1.04-1.05c0-.75,0-1.55.03-2.3a1.659,1.659,0,0,1,.58-1.52,0.538,0.538,0,0,0,.22-0.39c0-.33-1.08-0.44-1.95-0.51S1251.03,1136.62,1250.2,1136.62Zm22.7,22.16a3.167,3.167,0,0,1,3.2,3.21A3.205,3.205,0,1,1,1272.9,1158.78Zm0-1.8a4.993,4.993,0,0,0-5.01,5.01A5.01,5.01,0,1,0,1272.9,1156.98Z" transform="translate(-975.281 -1135.53)"/>
</svg>
