<svg xmlns="http://www.w3.org/2000/svg" width="58.38" height="17.37" viewBox="0 0 58.38 17.37">
  <defs>
    <style>
      .cls-1 {
        fill-rule: evenodd;
      }
    </style>
  </defs>
  <path id="text-back.svg" class="cls-1" d="M4851.79,2314.21a4.462,4.462,0,0,0-.56-1.09,3.593,3.593,0,0,0-.76-0.75,6.656,6.656,0,0,0-.8-0.49,3.259,3.259,0,0,0,.68-0.46,4.3,4.3,0,0,0,.7-0.76,4.085,4.085,0,0,0,.53-1.02,3.988,3.988,0,0,0,.2-1.3,4.564,4.564,0,0,0-1.38-3.5,5.454,5.454,0,0,0-3.9-1.3h-6.86v17.08h7.15a6.443,6.443,0,0,0,2.11-.32,4.621,4.621,0,0,0,1.66-.95,4.245,4.245,0,0,0,1.08-1.53,5.517,5.517,0,0,0,.38-2.11A4.546,4.546,0,0,0,4851.79,2314.21Zm-3.65,2.81a2.1,2.1,0,0,1-1.69.63h-3.48v-4.2h3.48a2.129,2.129,0,0,1,1.69.61A2.3,2.3,0,0,1,4848.14,2317.02Zm-0.26-7.09a2.284,2.284,0,0,1-1.64.54h-3.27v-3.96h3.27a2.244,2.244,0,0,1,1.64.55A2.119,2.119,0,0,1,4847.88,2309.93Zm20.27,10.69-6.24-17.08h-2.62l-6.21,17.08h3.48l1.03-3.02h6.07l1.01,3.02h3.48Zm-5.38-5.83h-4.25l2.16-6.21Zm19.01,0.58h-3.38a3.505,3.505,0,0,1-.96,1.76,2.7,2.7,0,0,1-1.92.66,2.618,2.618,0,0,1-2.14-.89,2.506,2.506,0,0,1-.43-0.61,2.62,2.62,0,0,1-.25-0.84,9.994,9.994,0,0,1-.12-1.32c-0.03-.53-0.04-1.22-0.04-2.05s0.01-1.51.04-2.05a9.994,9.994,0,0,1,.12-1.32,2.789,2.789,0,0,1,.25-0.84,2.506,2.506,0,0,1,.43-0.61,2.649,2.649,0,0,1,2.14-.89,2.7,2.7,0,0,1,1.92.66,3.548,3.548,0,0,1,.96,1.76h3.38a6.445,6.445,0,0,0-10.9-3.53,4.978,4.978,0,0,0-1.39,2.57,31.287,31.287,0,0,0,0,8.5,4.94,4.94,0,0,0,1.39,2.57,6.306,6.306,0,0,0,4.61,1.87,6.987,6.987,0,0,0,2.28-.36,5.65,5.65,0,0,0,3.24-2.74,7.088,7.088,0,0,0,.77-2.3h0Zm16.22,5.25-6.07-10.29,5.67-6.79h-4.06l-6.02,7.44v-7.44h-3.34v17.08h3.34v-5.13l2.2-2.64,4.4,7.77H4898Z" transform="translate(-4839.62 -2303.41)"/>
</svg>
