<svg xmlns="http://www.w3.org/2000/svg" width="622.53" height="52.16" viewBox="0 0 622.53 52.16">
  <defs>
    <style>
      .cls-1 {
        fill-rule: evenodd;
      }
    </style>
  </defs>
  <path id="増えていくような場になり" class="cls-1" d="M2523.96,1434.11a1.307,1.307,0,0,1,1.39-1.39h11.2a1.307,1.307,0,0,1,1.39,1.39v0.29a1.342,1.342,0,0,1-1.39,1.4h-11.2a1.342,1.342,0,0,1-1.39-1.4v-0.29Zm1.39-5.39a1.307,1.307,0,0,1-1.39-1.39v-0.18a1.339,1.339,0,0,1,1.39-1.39h11.2a1.339,1.339,0,0,1,1.39,1.39v0.18a1.307,1.307,0,0,1-1.39,1.39h-11.2Zm12.53,12.53c0,0.23-.06.46-0.06,0.69,0,1.16,1.16,1.11,2.96,1.11,2.26,0,2.9,0,2.9-1.28s-0.06-2.49-.06-3.71V1426.8c0-1.16.06-2.32,0.06-3.48,0-1.62-.93-2.08-2.38-2.08-1.27,0-2.61.05-3.94,0.05h-12.82c-1.34,0-2.61-.05-3.95-0.05-1.45,0-2.37.46-2.37,2.08,0,1.16.05,2.32,0.05,3.48V1438c0,1.22-.05,2.49-0.05,3.71,0,1.28.75,1.22,2.9,1.22,2.2,0,2.95.06,2.95-1.22a1.271,1.271,0,0,0-.05-0.46,0.959,0.959,0,0,1,1.1-1.05h11.72A0.924,0.924,0,0,1,2537.88,1441.25Zm-9.46-28.6a1.307,1.307,0,0,1-1.39,1.39h-4.12a1.339,1.339,0,0,1-1.39-1.39v-0.46a1.342,1.342,0,0,1,1.39-1.4h4.12a1.31,1.31,0,0,1,1.39,1.4v0.46Zm6.79,1.39a1.339,1.339,0,0,1-1.39-1.39v-0.46a1.342,1.342,0,0,1,1.39-1.4h4.12a1.342,1.342,0,0,1,1.39,1.4v0.46a1.339,1.339,0,0,1-1.39,1.39h-4.12Zm-1.39-9.16a1.339,1.339,0,0,1,1.39-1.39h4.12a1.339,1.339,0,0,1,1.39,1.39v0.46a1.339,1.339,0,0,1-1.39,1.39h-4.12a1.339,1.339,0,0,1-1.39-1.39v-0.46Zm-6.79-1.39a1.307,1.307,0,0,1,1.39,1.39v0.46a1.307,1.307,0,0,1-1.39,1.39h-4.12a1.339,1.339,0,0,1-1.39-1.39v-0.46a1.339,1.339,0,0,1,1.39-1.39h4.12Zm-1.04-4.3c-0.23,0-.23-0.11-0.23-0.17s0-.12.17-0.17c0.52-.24,1.68-0.64,1.68-1.34a10.361,10.361,0,0,0-1.51-3.13c-1.62-2.84-2.14-3.31-2.78-3.31-1.16,0-4.47,1.1-4.47,1.97a1.909,1.909,0,0,0,.47.99,33.036,33.036,0,0,1,2.43,3.83,1.308,1.308,0,0,1,.12.46,0.8,0.8,0,0,1-.93.82h-2.2c-1.68,0-3.02.34-3.02,2.32,0,1.16.06,2.26,0.06,3.42v7.83c0,1.1-.06,2.26-0.06,3.36,0,2.03,1.34,2.38,3.08,2.38,1.62,0,3.24-.11,4.87-0.11h14.91c1.62,0,3.24.11,4.93,0.11s3.01-.4,3.01-2.38c0-1.1-.11-2.26-0.11-3.36v-7.83c0-1.22.11-2.26,0.11-3.37,0-2.03-1.33-2.37-3.07-2.37h-2.09a0.752,0.752,0,0,1-.87-0.7,0.972,0.972,0,0,1,.17-0.52c0.64-.99,1.28-1.92,1.86-2.96a1.069,1.069,0,0,1,.99-0.58c0.58-.12,1.04-0.18,1.04-0.64,0-.58-0.64-0.81-2.67-1.62a29.781,29.781,0,0,0-3.3-1.11c-0.41,0-.53.18-0.82,0.93a51.306,51.306,0,0,1-3.48,6.09,2.323,2.323,0,0,1-2.37,1.16h-5.92Zm-23.26,27.09a1.765,1.765,0,0,1-1.34,2.03c-1.21.35-2.14,0.58-2.84,0.76-2.38.63-2.55,0.63-2.55,1.27a6.5,6.5,0,0,0,.46,1.74c0.29,0.76.53,1.45,0.76,1.97,0.52,1.57.75,2.33,1.51,2.33a0.779,0.779,0,0,0,.75-0.53c0.35-.63.29-0.75,1.62-1.16,2.44-.81,10.79-3.83,12.77-4.81,1.04-.52,1.27-1.28,1.27-2.84,0-.87-0.17-2.9-1.33-2.9a40.774,40.774,0,0,0-3.89,1.39,1.011,1.011,0,0,1-1.45-1.1v-12.07c0-1.1.41-1.51,1.57-1.62,0.17,0,3.07.11,3.07,0.11,1.28,0.06,1.22-.87,1.22-2.84,0-2.09.06-2.9-1.22-2.9-0.93,0-2.14.12-3.13,0.12a1.35,1.35,0,0,1-1.51-1.57v-6.96c0-2.15.06-2.61,0.64-3.02,0.52-.35.87-0.46,0.87-0.93,0-.58-0.76-0.63-1.16-0.69-0.99-.06-4.47-0.35-5.28-0.35-0.58,0-.99.12-0.99,0.75,0,0.18.06,0.47,0.06,0.64,0.06,0.76.12,2.32,0.12,3.72v6.84a1.35,1.35,0,0,1-1.51,1.57c-0.99,0-2.15-.12-3.13-0.12-1.28,0-1.22.75-1.22,2.9,0,2.03-.06,2.84,1.22,2.84,0.58,0,2.32-.11,3.13-0.11a1.36,1.36,0,0,1,1.51,1.62v13.92Zm81.32-1.85c0-4.82-3.48-5.8-5.05-5.8-0.41,0-.75.05-1.16,0.05a0.58,0.58,0,0,1-.58-0.58,2.152,2.152,0,0,1,.75-1.16,74.446,74.446,0,0,1,8.07-7.83,2.232,2.232,0,0,0,1.27-1.45c0-.87-2.66-4.93-4.06-4.93a4.955,4.955,0,0,0-1.62.41,122.638,122.638,0,0,1-20.94,4.17c-0.64.06-1.22,0.18-1.22,0.93a8.811,8.811,0,0,0,1.33,3.25,3.869,3.869,0,0,1,.41.7c0.52,0.87.75,1.33,1.57,1.33,0.98,0,7.77-1.8,9.1-2.15,0.64-.17,3.08-0.92,3.54-0.92a0.469,0.469,0,0,1,.52.46c0,0.58-1.56,2.15-2.08,2.73-6.21,6.9-12.19,14.03-18.8,20.59-0.46.46-1.39,1.28-1.39,1.97,0,1.34,3.42,4.24,4.64,4.24,0.58,0,1.28-1.11,1.62-1.51,2.56-3.31,8.13-10.68,11.03-13.17,1.33-1.1,3.36-2.44,5.16-2.44,1.39,0,1.91.76,1.91,2.09a25.181,25.181,0,0,1-.35,3.66,30,30,0,0,0-.52,4.58c0,4.06,3.19,6.67,7.14,6.67a28.825,28.825,0,0,0,10.73-2.96c1.04-.58.98-2.43,0.98-3.48,0-.64.06-3.65-0.75-3.65a4.584,4.584,0,0,0-1.62.75c-2.32,1.45-5.8,3.48-8.59,3.48a1.667,1.667,0,0,1-1.91-1.91c0-.87.29-2.85,0.4-3.77A26.907,26.907,0,0,0,2584.05,1424.43Zm-16.01-31.85c-0.64,0-.87.23-1.45,1.8a15.387,15.387,0,0,0-.87,2.96c0,0.93,1.27,1.16,3.3,1.8,0.41,0.11,1.4.46,2.5,0.87,2.49,0.87,5.74,2.03,6.15,2.03,1.33,0,2.14-4.64,2.14-4.93a1.192,1.192,0,0,0-1.1-1.11C2577.43,1395.6,2568.5,1392.58,2568.04,1392.58Zm36.83,10.33c0,0.58.52,6.09,1.91,6.09a4.337,4.337,0,0,0,.87-0.12,114.588,114.588,0,0,1,12.82-2.38c0.64-.11,3.25-0.52,3.71-0.52a0.819,0.819,0,0,1,.87.7,3.869,3.869,0,0,1-1.04,1.39,25.731,25.731,0,0,0-6.38,16.65c0,11.31,8.47,14.44,18.33,14.44a1.806,1.806,0,0,0,1.68-.58,13.85,13.85,0,0,0,1.04-5.16c0-.93-0.46-0.99-1.33-0.99-0.58,0-1.86.06-2.9,0.06-5.86,0-10.21-1.63-10.21-8.35a21.723,21.723,0,0,1,2.78-10.21,17.617,17.617,0,0,1,9.92-8.65c3.25-1.16,6.21-1.16,9.63-1.21,1.34-.06,2.55.05,2.55-1.22a35.906,35.906,0,0,0-.46-4.24c-0.17-.69-0.29-1.45-1.16-1.45a2.8,2.8,0,0,0-.7.06c-4.35.7-8.81,1.28-13.16,1.8-8.47.99-16.94,1.86-25.41,2.38C2605.68,1401.57,2604.87,1401.4,2604.87,1402.91Zm82.77,2.32a0.966,0.966,0,0,0,.52.87c5.51,4.23,7.89,9.74,8.58,16.53,0.12,1.39.06,2.2,1.92,2.2a12.188,12.188,0,0,0,3.24-.52c0.99-.29,1.57-0.58,1.57-1.68,0-3.48-1.8-8.99-3.42-12.07-2.79-5.33-7.66-8.99-8.93-8.99C2689.96,1401.57,2687.64,1404.12,2687.64,1405.23Zm-26.17-3.77a0.721,0.721,0,0,0-.81.63c-0.11.53-.29,7.89-0.29,8.82,0,6.15.47,13.46,3.37,18.91,1.91,3.54,5.28,7.43,9.57,7.43,2.72,0,4.52-1.74,6.2-3.66,0.82-.93,3.43-3.94,3.43-5.05,0-1.04-2.96-3.42-4.18-3.42-0.75,0-1.22.87-1.57,1.45-0.69,1.28-2.37,3.83-4,3.83-2.03,0-3.94-3.42-4.64-5.05-1.51-3.65-1.86-8.23-1.86-12.12a43.227,43.227,0,0,1,.47-6.15c0.17-.98.23-2.14,1.04-2.78a1.013,1.013,0,0,0,.58-0.76c0-.58-0.81-0.69-1.27-0.81C2666.52,1402.56,2662.23,1401.46,2661.47,1401.46Zm80.22-4.99c-0.64-.64-2.32-2.61-3.07-2.61a1.414,1.414,0,0,0-.87.69c-2.73,3.48-7.43,7.43-10.85,10.27-2.03,1.62-6.03,4.87-7.48,6.79a6.584,6.584,0,0,0-1.28,4c0,2.61,1.16,4.29,2.79,6.15,2.84,3.36,6.03,6.49,9.16,9.63,2.38,2.43,4.81,4.87,7.02,7.48,0.35,0.46,1.16,1.51,1.8,1.51,1.39,0,4.93-3.31,4.93-4.7,0-1.16-4-4.41-4.99-5.28-3.6-3.19-7.19-6.44-10.5-9.98-0.99-1.04-2.9-3.13-2.9-4.58,0-1.1,1.28-2.26,2.38-3.31,3.01-2.9,6.32-5.56,9.57-8.23q2.175-1.74,4.35-3.31a2.569,2.569,0,0,1,1.57-.69c0.4,0,1.21.05,1.21-.53C2744.53,1399.14,2742.21,1396.99,2741.69,1396.47Zm38.8,31.09c2.5,0,3.19.06,3.19,2.32,0,3.54-2.09,4.47-5.28,4.47-1.85,0-5.68-.53-5.68-2.96C2772.72,1428.08,2778.11,1427.56,2780.49,1427.56Zm2.26-35.21c-0.52,0-1.04.11-1.04,0.69a3.256,3.256,0,0,0,.12.76c0.69,3.6.69,9.11,0.75,12.88,0.06,3.59.23,7.19,0.35,10.84,0.06,0.76.17,2.67,0.17,3.25,0,1.45-1.1,1.39-2.09,1.39h-1.16c-5.74,0-12.93,2.44-12.93,9.34,0,6.09,6.5,8.36,11.6,8.36,2.96,0,6.26-.64,8.58-2.56,1.8-1.5,2.32-3.71,2.44-5.97,0.06-.47-0.06-1.8,1.1-1.8,1.74,0,8.36,3.48,9.98,4.58a5.9,5.9,0,0,0,1.97,1.05c1.05,0,3.25-3.43,3.25-4.64a1.838,1.838,0,0,0-.99-1.22,54.768,54.768,0,0,0-13.05-5.4c-1.45-.4-2.43-0.4-2.67-1.91-0.17-.93-0.46-7.95-0.46-9.22,0-1.74.81-1.98,2.32-2.15a72.043,72.043,0,0,0,8.59-1.68c2.84-.81,3.24-1.05,3.24-1.8a11.519,11.519,0,0,0-.98-3.25c-0.41-.87-0.76-1.74-1.57-1.74a4.183,4.183,0,0,0-1.39.35c-2.03.75-6.73,2.2-8.82,2.2-1.1,0-1.45-.69-1.45-1.68,0-1.91.06-3.83,0.18-5.8a2.573,2.573,0,0,1,.81-2.2,1.423,1.423,0,0,0,.52-0.87,1.179,1.179,0,0,0-1.1-.87A60.953,60.953,0,0,0,2782.75,1392.35Zm45.88,5.86c0,0.93,1.28,1.22,3.71,1.85,2.21,0.58,11.49,2.61,13.35,2.61,0.92,0,1.27-.58,1.56-1.74a24.049,24.049,0,0,0,.58-3.53c0-.87-0.64-0.87-1.45-0.93-4-.41-10.85-1.34-14.5-2.9a1.981,1.981,0,0,0-.93-0.35,1.358,1.358,0,0,0-1.16,1.1A13.789,13.789,0,0,0,2828.63,1398.21Zm11.02,7.25c-5.39,0-10.84,2.14-15.49,4.7-0.69.34-1.74,0.87-1.74,1.79,0,1.34,1.86,5.52,3.25,5.52a2.647,2.647,0,0,0,1.22-.58c3.6-3.02,7.54-5.46,12.41-5.46,4.93,0,8.07,3.08,8.07,8.01,0,8.06-8.59,14.38-15.55,16.59a1.3,1.3,0,0,0-1.16.98c0,0.93,2.38,4.88,4.12,4.88,1.1,0,4-1.57,4.99-2.15,7.37-4.47,14.09-11.66,14.09-20.77C2853.86,1410.45,2847.89,1405.46,2839.65,1405.46Zm52.96,25.35c2.9,0,2.95.63,2.95,1.79,0,2.04-.92,3.14-3.01,3.14-1.51,0-3.83-.93-3.83-2.73C2888.72,1431.15,2891.21,1430.81,2892.61,1430.81Zm2.84-20.48a1.173,1.173,0,0,0-1.39,1.28c0,0.29.05,0.52,0.05,0.81,0.18,2.26,1.05,10.67,1.05,12.53a1.018,1.018,0,0,1-1.22.98h-1.51c-4.58,0-9.63,1.86-9.63,7.2,0,5.39,5.51,7.89,10.21,7.89,3.95,0,7.37-1.45,8.07-5.69,0.05-.52.29-1.33,0.92-1.33,0.93,0,3.77,2.03,4.64,2.67a2.977,2.977,0,0,0,1.51.81c1.45,0,3.6-3.31,3.6-4.24,0-1.39-6.85-4.58-8.18-5.1-0.17-.06-0.41-0.18-0.58-0.23-0.87-.35-1.62-0.58-1.8-1.45-0.29-1.22-.58-9.57-0.58-11.26,0-1.22.12-2.96,0.12-3.07a1.294,1.294,0,0,0-1.16-1.22A24.627,24.627,0,0,0,2895.45,1410.33Zm8.87-8.93c-1.21,0-3.88,3.19-3.88,4a1.531,1.531,0,0,0,.75.93,32.778,32.778,0,0,1,7.25,7.48,1.9,1.9,0,0,0,1.28,1.04c1.04,0,4.35-2.61,4.35-4C2914.07,1409.34,2905.77,1401.4,2904.32,1401.4Zm-19.49-9.46c-0.52,0-.52.58-0.52,0.99,0,1.85-.98,8.29-1.85,9.74a1.971,1.971,0,0,1-1.74.93,52.162,52.162,0,0,1-5.98.29h-2.67a0.843,0.843,0,0,0-1.04.93c0,0.58.29,2.67,0.4,3.36,0.24,1.34.47,1.86,1.45,1.86,1.34,0,5.8-.58,6.27-0.58a0.782,0.782,0,0,1,.81.75,22.5,22.5,0,0,1-1.33,3.54,107.406,107.406,0,0,1-6.91,13.4,6.492,6.492,0,0,0-1.04,2.09c0,1.22,3.89,2.9,5.16,2.9a1.158,1.158,0,0,0,1.16-.81,147.056,147.056,0,0,0,9.46-20.65c0.69-1.92.64-2.32,2.72-2.67,5.34-.99,6.04-1.1,6.04-2.38a28.964,28.964,0,0,0-.29-3.07c-0.12-.7-0.18-1.74-0.87-1.74a2.288,2.288,0,0,0-.58.11,27.185,27.185,0,0,1-3.31.87,0.669,0.669,0,0,1-.64-0.75,19.276,19.276,0,0,1,.64-2.61c0.17-.64.58-2.67,1.04-3.08a1.64,1.64,0,0,0,.93-1.04,1.187,1.187,0,0,0-.93-0.7C2890.29,1393.33,2885.47,1391.94,2884.83,1391.94Zm73.32,11.72a1.339,1.339,0,0,1,1.39,1.39v0.58a1.339,1.339,0,0,1-1.39,1.39H2948a1.342,1.342,0,0,1-1.4-1.39v-0.58a1.342,1.342,0,0,1,1.4-1.39h10.15Zm-10.15-3.54a1.342,1.342,0,0,1-1.4-1.39v-0.52a1.342,1.342,0,0,1,1.4-1.39h10.15a1.339,1.339,0,0,1,1.39,1.39v0.52a1.339,1.339,0,0,1-1.39,1.39H2948Zm17.05-1.74c0-1.04.12-2.14,0.12-3.19,0-2.09-1.11-2.61-2.96-2.61-1.45,0-2.9.12-4.35,0.12h-9.52c-1.5,0-2.95-.12-4.4-0.12-1.92,0-2.96.58-2.96,2.61,0,1.05.11,2.09,0.11,3.19v7.08c0,1.04-.11,2.09-0.11,3.19,0,2.03,1.1,2.61,3.01,2.61,1.45,0,2.9-.12,4.35-0.12h9.52c1.45,0,2.9.12,4.41,0.12,1.85,0,2.9-.64,2.9-2.61,0-1.05-.12-2.15-0.12-3.19v-7.08Zm-4.87,28.13c0.87,0.06,1.51,0,1.51,1.11a38.069,38.069,0,0,1-.93,7.71c-0.52,1.63-.99,1.92-2.67,1.92a7.517,7.517,0,0,1-1.16-.06c-0.58-.06-1.51-0.18-2.03-0.18-0.93,0-.99.76-0.99,1.45,0,4.53.99,4.47,3.72,4.47,3.71,0,6.84-.35,8.23-4.29,1.16-3.31,1.68-10.56,1.68-14.21,0-1.98-.4-3.08-2.61-3.08-1.45,0-2.95.12-4.46,0.12h-11.55a0.872,0.872,0,0,1-.98-0.81,2,2,0,0,1,.11-0.53c0.12-.17.18-0.34,0.29-0.52a1.5,1.5,0,0,1,1.57-.93h12.41c2.15,0,4.35.12,6.56,0.12,1.28,0,1.22-.93,1.22-2.55s0.06-2.56-1.22-2.56c-2.21,0-4.41.18-6.56,0.18h-18.73c-2.21,0-4.35-.18-6.56-0.18-1.27,0-1.21.93-1.21,2.56s-0.06,2.55,1.21,2.55c1.22,0,3.54-.06,4.88-0.12a0.848,0.848,0,0,1,.87.82,0.933,0.933,0,0,1-.18.52,31.714,31.714,0,0,1-9.8,9.8c-0.75.52-1.33,0.87-1.33,1.39,0,0.93,1.85,2.9,2.78,2.9a3.508,3.508,0,0,0,1.74-.87,35.728,35.728,0,0,0,6.79-5.86,2.451,2.451,0,0,1,2.14-.87h0.23a0.791,0.791,0,0,1,.87.7,0.829,0.829,0,0,1-.23.52,33.116,33.116,0,0,1-8.87,7.95c-0.41.29-1.34,0.75-1.34,1.28,0,0.87,1.86,2.55,2.73,2.55a1.347,1.347,0,0,0,.81-0.23,30.025,30.025,0,0,0,5.92-4.59,37.551,37.551,0,0,0,5.74-7.13,2.045,2.045,0,0,1,2.03-1.05h0.47a0.887,0.887,0,0,1,.98.87,2,2,0,0,1-.11.53c-2.27,3.94-6.39,8.87-10.16,11.37a2.582,2.582,0,0,0-1.21,1.39c0,0.93,1.91,2.49,2.78,2.49a3.721,3.721,0,0,0,1.68-.93,38.418,38.418,0,0,0,11.6-14.79A1.382,1.382,0,0,1,2960.18,1426.51Zm-36.31-1.79a28.986,28.986,0,0,1-4.12,1.33c-0.64.17-1.45,0.29-1.45,1.1a25.225,25.225,0,0,0,1.33,4.06c0.47,1.22.64,1.86,1.28,1.86,0.46,0,.64-0.47.87-1.1,0.11-.35.29-0.53,1.27-0.93,4.35-1.74,9.58-4,13.69-6.15a1.671,1.671,0,0,0,.99-1.74c0-.64-0.17-3.77-1.04-3.77a19.72,19.72,0,0,0-2.9,1.28,14.7,14.7,0,0,1-1.34.63,1.647,1.647,0,0,1-.58.18,0.975,0.975,0,0,1-.87-1.16v-9.98a1.424,1.424,0,0,1,1.57-1.62c1.33,0.05,3.07.17,3.94,0.17,1.22,0,1.16-.75,1.16-2.84,0-2.21,0-2.84-1.16-2.84-1.33,0-2.61.17-3.94,0.11a1.361,1.361,0,0,1-1.57-1.62v-5.45c0-1.92.06-2.56,0.64-2.91a1.315,1.315,0,0,0,.87-0.92,1.032,1.032,0,0,0-1.1-.76c-1.05-.06-4.53-0.35-5.4-0.35-0.58,0-.98.12-0.98,0.76a2.942,2.942,0,0,0,.05.69,38.13,38.13,0,0,1,.18,4.59v4.35c0,1.16-.47,1.56-1.63,1.62-0.69-.06-3.01-0.11-3.53-0.11-1.22,0-1.16.69-1.16,2.84,0,2.03-.06,2.84,1.16,2.84,1.1,0,2.37-.17,3.59-0.17,1.16,0.11,1.57.52,1.57,1.62v12.24A1.891,1.891,0,0,1,2923.87,1424.72Zm70.41,0.69c-1.1,0-3.13,4.12-3.13,4.93,0,0.93,3.88,5.8,13.28,5.8,2.32,0,12.12-.87,13.75-1.74,0.75-.4.69-1.45,0.69-2.14,0-2.96-.11-4.35-1.04-4.35a4,4,0,0,0-1.22.23,47.428,47.428,0,0,1-12.76,1.85c-3.89,0-6.32-.98-8.82-4.06A1.007,1.007,0,0,0,2994.28,1425.41Zm1.33-25.11c-0.92,0-1.21.87-1.21,3.65,0,0.64-.06,1.86.58,2.26,1.21,0.81,8.35,1.16,10.15,1.16a68.19,68.19,0,0,0,9.74-.81c1.1-.23,1.1-0.7,1.1-1.91a27.631,27.631,0,0,0-.23-3.14,1.3,1.3,0,0,0-1.16-1.39,5.361,5.361,0,0,0-1.04.18,38.254,38.254,0,0,1-8.82,1.16,37.362,37.362,0,0,1-7.6-.87A7.28,7.28,0,0,0,2995.61,1400.3Zm-13.92-4.53c-0.64,0-.75.76-0.87,1.28a26.329,26.329,0,0,1-.75,2.9,69.285,69.285,0,0,0-2.96,19.2c0,6.09.81,12.29,3.54,17.81,0.75,1.56,1.45,2.84,2.43,2.84,1.22,0,4.53-1.39,4.53-2.84a4.885,4.885,0,0,0-.12-0.87c-0.05-.53-0.23-1.86-0.23-2.44,0-2.61,2.32-7.89,2.32-8.41,0-.64-1.51-1.86-2.09-1.86-0.52,0-.87.64-1.21,1.39-0.24.58-1.05,2.27-1.57,2.27-1.34,0-1.57-7.02-1.57-8.12a46.013,46.013,0,0,1,3.25-16.48c0.58-1.45.81-1.97,1.8-2.49,0.58-.35.81-0.41,0.81-0.76a1.36,1.36,0,0,0-1.16-.98C2987.03,1397.86,2982.16,1395.77,2981.69,1395.77Zm69.26,35.04c2.9,0,2.95.63,2.95,1.79,0,2.04-.92,3.14-3.01,3.14-1.51,0-3.83-.93-3.83-2.73C3047.06,1431.15,3049.55,1430.81,3050.95,1430.81Zm2.84-20.48a1.173,1.173,0,0,0-1.39,1.28c0,0.29.05,0.52,0.05,0.81,0.18,2.26,1.05,10.67,1.05,12.53a1.018,1.018,0,0,1-1.22.98h-1.51c-4.58,0-9.63,1.86-9.63,7.2,0,5.39,5.51,7.89,10.21,7.89,3.95,0,7.37-1.45,8.07-5.69,0.05-.52.29-1.33,0.92-1.33,0.93,0,3.77,2.03,4.64,2.67a2.977,2.977,0,0,0,1.51.81c1.45,0,3.6-3.31,3.6-4.24,0-1.39-6.85-4.58-8.18-5.1-0.17-.06-0.41-0.18-0.58-0.23-0.87-.35-1.62-0.58-1.8-1.45-0.29-1.22-.58-9.57-0.58-11.26,0-1.22.12-2.96,0.12-3.07a1.294,1.294,0,0,0-1.16-1.22A24.627,24.627,0,0,0,3053.79,1410.33Zm8.87-8.93c-1.21,0-3.88,3.19-3.88,4a1.531,1.531,0,0,0,.75.93,32.778,32.778,0,0,1,7.25,7.48,1.9,1.9,0,0,0,1.28,1.04c1.04,0,4.35-2.61,4.35-4C3072.41,1409.34,3064.11,1401.4,3062.66,1401.4Zm-19.49-9.46c-0.52,0-.52.58-0.52,0.99,0,1.85-.98,8.29-1.85,9.74a1.971,1.971,0,0,1-1.74.93,52.162,52.162,0,0,1-5.98.29h-2.67a0.843,0.843,0,0,0-1.04.93c0,0.58.29,2.67,0.4,3.36,0.24,1.34.47,1.86,1.45,1.86,1.34,0,5.81-.58,6.27-0.58a0.782,0.782,0,0,1,.81.75,22.5,22.5,0,0,1-1.33,3.54,107.406,107.406,0,0,1-6.91,13.4,6.492,6.492,0,0,0-1.04,2.09c0,1.22,3.89,2.9,5.16,2.9a1.158,1.158,0,0,0,1.16-.81,147.056,147.056,0,0,0,9.46-20.65c0.69-1.92.64-2.32,2.72-2.67,5.34-.99,6.04-1.1,6.04-2.38a28.964,28.964,0,0,0-.29-3.07c-0.12-.7-0.18-1.74-0.87-1.74a2.288,2.288,0,0,0-.58.11,27.185,27.185,0,0,1-3.31.87,0.669,0.669,0,0,1-.64-0.75,19.276,19.276,0,0,1,.64-2.61c0.17-.64.58-2.67,1.04-3.08a1.64,1.64,0,0,0,.93-1.04,1.187,1.187,0,0,0-.93-0.7C3048.63,1393.33,3043.81,1391.94,3043.17,1391.94Zm66.71,3.77a3.321,3.321,0,0,0,.11.76,56.127,56.127,0,0,1,2.03,16.18c0,4.93-.52,10.04-2.67,14.62a22,22,0,0,1-7.89,9.05,1.365,1.365,0,0,0-.87.98c0,1.22,3.37,4.06,4.3,4.06,1.33,0,3.71-2.32,4.64-3.24,7.31-7.43,8.99-15.96,8.99-25.99a76.639,76.639,0,0,0-1.8-16.71c-0.23-.87-0.35-1.56-1.45-1.56C3114.63,1393.86,3109.88,1394.44,3109.88,1395.71Zm-16.88.87c-0.41-.17-2.96-1.22-3.14-1.22-0.52,0-.69,1.05-0.75,1.46-0.23,1.45-.64,2.84-0.99,4.29a54.511,54.511,0,0,0-1.33,11.89,48.358,48.358,0,0,0,1.91,13.51c0.35,1.11.76,2.15,2.03,2.15,1.11,0,4.18-.7,4.18-2.32,0-.41-0.12-1.04-0.12-1.86,0-2.32,1.11-4.98,1.92-7.19l0.52-1.39c0.52-1.39,1.39-3.42,1.39-3.6,0-.75-1.74-1.8-2.26-1.8-0.7,0-1.74,2.5-2.03,3.14-0.23.58-.58,1.51-1.04,1.51-0.64,0-.58-2.5-0.58-2.96a30.853,30.853,0,0,1,.75-6.5,23.343,23.343,0,0,1,1.68-4.87,2.628,2.628,0,0,1,1.1-1.16,1.033,1.033,0,0,0,.7-0.76C3096.94,1398.27,3094.27,1397.16,3093,1396.58Z" transform="translate(-2496 -1391)"/>
</svg>
