<svg xmlns="http://www.w3.org/2000/svg" width="869.09" height="42" viewBox="0 0 869.09 42">
  <defs>
    <style>
      .cls-1 {
        fill-rule: evenodd;
      }
    </style>
  </defs>
  <path id="text-connect-3_pc.svg" class="cls-1" d="M2106.83,5621.88a1.084,1.084,0,0,1,1.25,1.29v2.26a1.077,1.077,0,0,1-1.25,1.28h-2.76a1.1,1.1,0,0,1-1.28-1.28v-2.26a1.107,1.107,0,0,1,1.28-1.29h2.76Zm-15.68-4.27a43.611,43.611,0,0,1-5.2,3.91,1.048,1.048,0,0,0-.69.82c0,0.83,1.66,3.04,2.62,3.04,1.15,0,5.71-4.14,6.76-5.06a0.507,0.507,0,0,1,.37-0.18,0.471,0.471,0,0,1,.42.5c0,0.78.09,1.34,1.1,1.34h0.64a1.031,1.031,0,0,1,1.2,1.24v2.21a1.1,1.1,0,0,1-1.29,1.28h-1.88c-1.75,0-3.5-.13-5.25-0.13-1.15,0-1.15.5-1.15,2.25,0,1.66-.04,2.25,1.11,2.25,1.74,0,3.54-.13,5.29-0.13h1.05a0.8,0.8,0,0,1,.92.73,1.043,1.043,0,0,1-.09.42,13.172,13.172,0,0,1-8.65,6.85,0.767,0.767,0,0,0-.78.74c0,0.73,1.47,3.31,2.53,3.31a4.577,4.577,0,0,0,1.57-.42c4.73-2.02,8.51-5.42,10.12-10.44a1.373,1.373,0,0,1,1.61-1.19h3.35a1.094,1.094,0,0,1,1.25,1.28v5.94c0,3.91,1.79,4.51,5.33,4.51h5.61c2.03,0,3.59-.33,4.65-2.17a13.062,13.062,0,0,0,1.52-4.64c0-1.11-2.62-1.61-3.31-1.61a0.921,0.921,0,0,0-.97.96c-0.64,3.04-1.43,3.22-2.99,3.22h-3.27c-1.79,0-1.97-.36-1.97-2.07v-4.14a1.083,1.083,0,0,1,1.28-1.28h1.98c1.75,0,3.5.13,5.25,0.13,1.15,0,1.1-.55,1.1-2.25,0-1.66.05-2.25-1.1-2.25-1.75,0-3.5.13-5.25,0.13h-1.98a1.083,1.083,0,0,1-1.28-1.28v-2.21a1.044,1.044,0,0,1,1.24-1.24h0.87c1.15,0,1.15-.56,1.2-1.57a0.45,0.45,0,0,1,.41-0.46,0.633,0.633,0,0,1,.37.14c0.97,0.87,5.01,4.32,6.12,4.32,1.01,0,2.71-2.62,2.71-3.31a1.856,1.856,0,0,0-1.19-1.15,30.987,30.987,0,0,1-3.91-2.67,1.015,1.015,0,0,1-.46-0.82,1.1,1.1,0,0,1,.41-0.79c1.2-1.1,2.3-2.25,3.4-3.45a0.592,0.592,0,0,1,.46-0.23c0.42,0,1.11.1,1.11-.5a2.267,2.267,0,0,0-1.11-1.2c-0.23-.18-0.5-0.37-0.73-0.55a6.473,6.473,0,0,0-1.75-1.2,1.01,1.01,0,0,0-.69.6,37.674,37.674,0,0,1-3.63,3.87,1.028,1.028,0,0,1-.74.36,0.8,0.8,0,0,1-.69-0.36c-0.41-.42-0.74-0.83-1.1-1.25a0.985,0.985,0,0,1-.28-0.69,1.221,1.221,0,0,1,.37-0.78c1.19-1.19,1.88-1.88,3.03-3.13a1.148,1.148,0,0,1,.51-0.27c0.51,0,1.33.14,1.33-.51a2.32,2.32,0,0,0-.96-1.06c-0.23-.18-0.51-0.41-0.74-0.59a8.427,8.427,0,0,0-1.98-1.29,1.217,1.217,0,0,0-.78.64,24.14,24.14,0,0,1-2.53,2.81,1.038,1.038,0,0,1-.73.37,1.051,1.051,0,0,1-.83-0.56c-0.42-.69-0.74-1.28-0.97-1.74-0.73-1.34-.96-1.71-1.56-1.71-0.74,0-2.99,1.02-2.99,1.98a2.659,2.659,0,0,0,.46,1.15,50.416,50.416,0,0,0,6.9,10.12,0.845,0.845,0,0,1,.18.46,0.537,0.537,0,0,1-.6.51c-0.87.04-1.74,0.04-2.62,0.04h-9.01c-0.83,0-1.61,0-2.44-.04a0.59,0.59,0,0,1-.65-0.51,0.6,0.6,0,0,1,.19-0.46c1.61-1.93,5.98-7.54,5.98-9.98a2.693,2.693,0,0,0-1.06-1.84,3.511,3.511,0,0,0-2.16-.46c-0.69,0-1.57.05-2.67,0.05h-3.59c-1.56,0-3.13-.1-4.69-0.1-1.1,0-1.06.51-1.06,2.12,0,1.56-.04,2.07,1.06,2.07,1.56,0,3.13-.09,4.69-0.09h2.03c0.73,0,1.24.04,1.24,0.64,0,0.83-1.84,3.31-2.44,4.05a1.255,1.255,0,0,1-.92.51,1.441,1.441,0,0,1-.78-0.28c-0.74-.51-4-2.81-4.65-2.81-0.87,0-2.16,1.89-2.16,2.58,0,0.41.69,0.87,1.79,1.56,0.6,0.42,1.38.92,2.21,1.52a1.166,1.166,0,0,1,.46.83A1.02,1.02,0,0,1,2091.15,5617.61Zm48.39-2.4a1.311,1.311,0,0,1-1.29-1.28v-4.56a1.293,1.293,0,0,1,1.29-1.29h17.43a1.262,1.262,0,0,1,1.29,1.29v4.56a1.278,1.278,0,0,1-1.29,1.28h-17.43Zm5.11,4.28a1.107,1.107,0,0,1,1.28,1.29v15a0.84,0.84,0,0,1-.78.96,1.571,1.571,0,0,1-.41-0.04,10.518,10.518,0,0,1-5.43-4.65,2.043,2.043,0,0,1-.41-1.1,3.149,3.149,0,0,1,.23-1.11c0.41-1.15.69-1.98,0.92-2.62,0.41-1.29.55-1.66,1.24-1.93a0.793,0.793,0,0,0,.64-0.6,1.063,1.063,0,0,0-.96-0.74,32.106,32.106,0,0,0-4.28-1.01c-0.69,0-.83.92-0.97,1.66a36.15,36.15,0,0,1-7.4,15.13,2.583,2.583,0,0,0-.79,1.24c0,0.97,2.67,2.21,3.5,2.21a2.434,2.434,0,0,0,1.56-1.15,40.389,40.389,0,0,0,3.59-5.7,0.891,0.891,0,0,1,.65-0.42,0.791,0.791,0,0,1,.64.37,12.994,12.994,0,0,0,5.75,4.56c3.59,1.33,6.76,1.65,15.36,1.65h4.88c0.87,0,1.75-.04,2.62-0.04a1.812,1.812,0,0,0,1.98-1.11,6.233,6.233,0,0,0,.46-2.44,1.064,1.064,0,0,0-1.01-1.33,9.441,9.441,0,0,0-1.01.09c-1.89.19-5.85,0.28-7.87,0.28-2.21,0-4.42,0-6.62-.09a1.119,1.119,0,0,1-1.2-1.34v-5.47a1.1,1.1,0,0,1,1.29-1.29h5.98c1.65,0,3.31.09,4.92,0.09,1.06,0,1.06-.5,1.06-2.16,0-1.7.04-2.25-1.06-2.25-1.66,0-3.27.13-4.92,0.13h-5.98a1.14,1.14,0,0,1-1.29-1.28v-3.5a1.114,1.114,0,0,1,1.29-1.29h5.52a0.736,0.736,0,0,1,.64.55c0.23,0.56.69,0.56,2.21,0.56,1.93,0,2.58.09,2.58-1.06,0-.32-0.1-2.62-0.1-3.27v-7.91c0-.92.05-1.84,0.05-2.76,0-1.79-1.43-1.98-2.85-1.98-1.29,0-2.58.09-3.87,0.09h-16c-1.34,0-2.63-.09-3.91-0.09-1.48,0-2.86.19-2.86,1.98,0,0.92.1,1.84,0.1,2.76v7.91c0,0.6-.14,3.04-0.14,3.27,0,1.15.69,1.06,2.53,1.06,1.56,0,2.02,0,2.3-.51a0.729,0.729,0,0,1,.64-0.6h5.71Zm47.93,0.23a1.908,1.908,0,0,1-.69-0.18c-1.2-.6-5.66-2.62-6.76-2.62-1.2,0-2.35,3.17-2.35,3.68a1.085,1.085,0,0,0,.97.92,35.958,35.958,0,0,1,5.47,2.16,1,1,0,0,1,.6.92,2.454,2.454,0,0,1-.74,1.29,33.524,33.524,0,0,1-12.74,9.2,3.071,3.071,0,0,1-.37.13c-0.6.23-1.33,0.51-1.33,1.06,0,0.65,2.25,3.45,3.26,3.45,1.11,0,6.31-3.17,7.41-3.95a38.673,38.673,0,0,0,8.19-7.55,1.5,1.5,0,0,1,1.15-.73c0.78,0,2.62,1.88,3.22,2.53a1.882,1.882,0,0,0,1.15.69c0.87,0,2.99-2.9,2.99-3.73,0-.6-2.81-2.81-3.41-3.27a1.66,1.66,0,0,1-.87-1.28,1.713,1.713,0,0,1,.28-0.83,72.822,72.822,0,0,0,4.41-10.03,2.486,2.486,0,0,1,1.06-1.61,0.826,0.826,0,0,0,.51-0.6c0-.5-1.57-1.06-2.44-1.38a22.575,22.575,0,0,0-3.22-1.06c-0.42,0-.46.65-0.51,1.02-0.37,3.08-2.25,7.59-3.72,10.39C2193.73,5618.99,2193.5,5619.72,2192.58,5619.72Zm57.77-5.84a1.147,1.147,0,0,0-.78.51c-6.53,8.32-18.03,17.02-28.2,20.01-0.59.18-1.42,0.27-1.42,0.78a12.709,12.709,0,0,0,1.38,2.76c0.32,0.55,1.29,2.39,1.79,2.39a0.455,0.455,0,0,0,.46-0.28c0.37-.78.42-0.82,1.93-1.56a79.908,79.908,0,0,0,24.98-17.34c0.6-.6,2.44-2.39,2.44-3.18C2252.93,5617.28,2251.27,5613.88,2250.35,5613.88Zm-27.18-7.36c-1.06,0-2.9,2.94-2.9,3.63a1.159,1.159,0,0,0,.74.88,56.77,56.77,0,0,1,6.11,4.28,5.012,5.012,0,0,0,1.84,1.24c0.88,0,3.04-2.49,3.04-3.54,0-.69-2.21-2.21-2.81-2.63C2228.32,5609.74,2223.9,5606.52,2223.17,5606.52Zm66.28,3.27c-0.46,0-2.2,1.38-2.2,1.93a1.089,1.089,0,0,0,.41.6,49.7,49.7,0,0,1,3.4,3.68,0.927,0.927,0,0,0,.56.46,3.738,3.738,0,0,0,2.2-2.12C2293.82,5613.79,2290.01,5609.79,2289.45,5609.79Zm4.56-3.36a4.122,4.122,0,0,0-2.21,1.93,1.027,1.027,0,0,0,.37.6,48.382,48.382,0,0,1,3.4,3.63,0.964,0.964,0,0,0,.6.46,3.621,3.621,0,0,0,2.21-2.07C2298.38,5610.38,2294.51,5606.43,2294.01,5606.43Zm-9.57,7.27c-0.64,0-3.4,1.84-3.4,2.66a1.867,1.867,0,0,0,.46.97,64.7,64.7,0,0,1,9.06,14.86,1.03,1.03,0,0,0,.92.83c0.83,0,4.32-1.61,4.32-2.76,0-1.48-5.1-9.3-6.21-10.91a52.926,52.926,0,0,0-4.14-5.19A1.371,1.371,0,0,0,2284.44,5613.7Zm-15.59-.92c-0.42,0-.51.41-0.79,1.05-2.34,5.98-7.26,12.24-11.91,16.7a0.965,0.965,0,0,0-.37.65c0,0.92,3.18,2.85,3.91,2.85,0.78,0,2.21-1.7,2.76-2.3a70.9,70.9,0,0,0,10.03-14.4,1.811,1.811,0,0,1,.83-0.92,0.992,0.992,0,0,0,.69-0.64c0-.42-0.74-0.79-1.15-1.06A26.87,26.87,0,0,0,2268.85,5612.78Zm39.92,6.94c-1.93,0-5.1-.14-5.7-0.14-1.2,0-1.29.37-1.29,2.95,0,1.42.05,2.3,1.24,2.3,1.94,0,3.87-.09,5.75-0.09h21.16c1.89,0,3.82.09,5.75,0.09,1.2,0,1.25-.88,1.25-2.35,0-2.53-.05-2.9-1.29-2.9-0.6,0-3.59.14-5.71,0.14h-21.16Zm50.28-6.94a0.721,0.721,0,0,1,.74.82,47.278,47.278,0,0,1-1.47,8.97c-1.29,4.7-3.87,9.94-6.17,9.94-2.34,0-2.94-4.28-2.94-5.98a14.234,14.234,0,0,1,8.28-13.25A5.248,5.248,0,0,1,2359.05,5612.78Zm4.42-5.39a18.951,18.951,0,0,0-19.09,19.32,14.463,14.463,0,0,0,1.42,6.54c1.25,2.34,3.45,4.37,6.26,4.37,2.53,0,4.55-1.71,6.07-3.55,4.42-5.29,6.03-13.47,6.53-20.19,0.05-.78.05-1.79,1.11-1.79a8.057,8.057,0,0,1,1.75.41c4.78,1.66,7.36,6.07,7.36,10.99,0,6.58-4.74,10.54-10.77,11.96-0.46.1-1.15,0.19-1.15,0.65,0,1.01,1.89,3.86,3.08,3.86,1.11,0,3.96-1.29,5.02-1.84a16.528,16.528,0,0,0,8.97-14.86,15.554,15.554,0,0,0-4.65-11.31A16.343,16.343,0,0,0,2363.47,5607.39Zm28.1,11.04c1.15,0,1.71-.04,1.71.56,0,1.28-1.48,5.61-2.03,6.9a30.8,30.8,0,0,1-6.35,9.66,1.745,1.745,0,0,0-.59,1.01c0,0.69,2.16,2.48,3.31,2.48a1.481,1.481,0,0,0,1.19-.64,32.563,32.563,0,0,0,6.08-9.43c1.19-2.62,3.4-9.34,3.4-12.15a3.044,3.044,0,0,0-3.17-2.76c-1.06,0-2.07.05-3.09,0.05h-1.42c-1.24,0-2.53-.09-3.77-0.09-1.02,0-.97.5-0.97,2.25s-0.05,2.26.97,2.26c1.24,0,2.48-.1,3.68-0.1h1.05Zm16.93-4.92c1.47-.87,8.97-5.47,8.97-6.94a4.328,4.328,0,0,0-1.15-2.07,2.231,2.231,0,0,0-2.07-1.06c-1.47,0-2.9.09-4.37,0.09h-10.9c-1.7,0-3.4-.14-5.11-0.14-1.1,0-1.05.51-1.05,2.16s-0.05,2.17,1.05,2.17c1.71,0,3.41-.1,5.11-0.1h9.57c0.5,0,1.1-.09,1.1.23,0,0.56-3.72,2.99-4.32,3.36a1.9,1.9,0,0,1-1.29.32h-0.64a0.644,0.644,0,0,0-.79.6c0,0.14.05,0.28,0.05,0.46a29.541,29.541,0,0,1,.14,3.41,1.015,1.015,0,0,1-1.24,1.19c-0.6,0-1.2-.09-1.8-0.09-1.15,0-1.06.78-1.06,1.98,0,1.33-.09,1.98,1.11,1.98,0.6,0,1.33-.05,1.98-0.1a0.936,0.936,0,0,1,1.01,1.11v0.18a0.936,0.936,0,0,1-1.01,1.11c-0.83-.05-2.35-0.1-2.99-0.1-1.15,0-1.11.65-1.11,2.03,0,1.33-.04,1.98,1.11,1.98,0.78,0,2.11-.05,2.94-0.1a0.935,0.935,0,0,1,1.06,1.11v0.23a0.916,0.916,0,0,1-1.06,1.06h-1.43c-1.28,0-2.62-.1-3.77-0.1-1.1,0-1.06.6-1.06,2.03,0,1.47-.04,2.11,1.06,2.11s2.49-.09,3.77-0.09h1.25a1.064,1.064,0,0,1,1.24,1.24v1.34c0,1.98.04,2.85-2.07,2.85-0.51,0-1.24-.05-1.75-0.09a5.136,5.136,0,0,0-.87-0.09c-0.69,0-.79.64-0.79,1.19,0,3.73.83,3.59,4.05,3.59,3.13,0,6.07-1.06,6.07-4.65,0-1.01-.09-1.97-0.09-2.99v-1.15a1.081,1.081,0,0,1,1.29-1.24h1.06c1.29,0,2.67.09,3.77,0.09,1.15,0,1.1-.64,1.1-2.07s0.05-2.07-1.1-2.07-2.48.1-3.77,0.1h-1.29a0.916,0.916,0,0,1-1.06-1.06v-0.23a0.955,0.955,0,0,1,1.01-1.11c0.79,0.05,2.17.1,2.9,0.1,1.15,0,1.11-.6,1.11-1.98s0.04-2.03-1.11-2.03c-0.96,0-1.93.14-2.9,0.1a0.918,0.918,0,0,1-1.01-1.11v-0.18a0.882,0.882,0,0,1,1.01-1.06c0.42,0,1.43.05,1.8,0.05,1.15,0,1.1-.56,1.1-1.98,0-1.34.05-1.98-1.1-1.98-0.55,0-1.06.05-1.57,0.09a1.067,1.067,0,0,1-1.24-1.15v-0.87A1.7,1.7,0,0,1,2408.5,5613.51Zm12.79,1.52a40.434,40.434,0,0,1-3.63,3.22,1.2,1.2,0,0,1-.56.18,0.705,0.705,0,0,1-.69-0.64,29.7,29.7,0,0,1-.55-3.27c-0.23-1.65-.27-2.07-1.19-2.07s-3.45.28-3.45,1.48c0,1.93,1.65,8.46,2.34,10.53a40.06,40.06,0,0,0,7.5,13.98,1.512,1.512,0,0,0,1.01.74c0.83,0,3.54-1.61,3.54-2.58a2.2,2.2,0,0,0-.73-1.19,38.006,38.006,0,0,1-6.53-10.86,1.482,1.482,0,0,1-.14-0.64,1.548,1.548,0,0,1,.69-1.2,54.59,54.59,0,0,0,4.74-3.72,0.778,0.778,0,0,1,.55-0.28c0.09,0,.27.05,0.37,0.05a0.963,0.963,0,0,0,.32.09,0.51,0.51,0,0,0,.5-0.51,4.346,4.346,0,0,0-1.05-1.56c-0.1-.09-0.23-0.28-0.46-0.51-0.6-.64-1.52-1.7-1.89-1.7A1.155,1.155,0,0,0,2421.29,5615.03Zm16.74-1.38c1.34,0,2.63.05,3.96,0.05,1.15,0,1.06-.69,1.06-1.89,0-1.24.09-1.93-1.06-1.93-1.33,0-2.62.09-3.96,0.09h-5.7c-1.33,0-2.62-.09-3.96-0.09-1.1,0-1.05.69-1.05,1.93s-0.05,1.89,1.05,1.89c1.34,0,2.63-.05,3.96-0.05h5.7Zm-1.05,12.19c1.15,0,2.25.09,3.4,0.09,1.1,0,1.06-.6,1.06-1.79,0-1.24.04-1.84-1.06-1.84-1.15,0-2.25.09-3.4,0.09h-2.9c-1.15,0-2.3-.09-3.45-0.09-1.11,0-1.06.64-1.06,1.84,0,1.15-.05,1.79,1.06,1.79,1.15,0,2.3-.09,3.45-0.09h2.9Zm0.04-6.07c1.15,0,2.35.09,3.36,0.09,1.1,0,1.06-.64,1.06-1.89s0.04-1.88-1.06-1.88-2.25.09-3.36,0.09h-3.03c-1.15,0-2.26-.09-3.41-0.09-1.06,0-1.01.64-1.01,1.88,0,1.29-.05,1.89,1.06,1.89,0.96,0,2.21-.09,3.36-0.09h3.03Zm0.42-12.42c1.1,0,2.11.04,3.03,0.04,0.97,0,.97-0.55.97-1.88,0-1.61-.05-1.89-1.11-1.89-0.59,0-1.51.09-2.89,0.09h-3.82c-1.06,0-2.16-.09-3.08-0.09-0.97,0-.92.65-0.92,1.89,0,1.29-.05,1.88.96,1.88,0.83,0,1.93-.04,3.04-0.04h3.82Zm-3.04,30.17a1.311,1.311,0,0,1-1.29-1.28v-2.67a1.32,1.32,0,0,1,1.29-1.29h1.93a1.32,1.32,0,0,1,1.29,1.29v2.67a1.311,1.311,0,0,1-1.29,1.28h-1.93Zm3.13,4.19c0.04,1.01.27,1.1,2.02,1.1,1.61,0,2.07-.04,2.07-1.05,0-1.15-.09-2.3-0.09-3.45v-4.79c0-.92.09-1.84,0.09-2.76,0-1.61-.64-2.25-2.3-2.25-0.83,0-1.65.04-2.48,0.04h-3.18c-0.82,0-1.61-.04-2.43-0.04-1.61,0-2.3.6-2.3,2.21,0,0.96.04,1.88,0.04,2.8v5.15c0,1.15-.04,2.3-0.04,3.45,0,1.06.5,1.06,2.11,1.06,1.8,0,2.16-.04,2.16-1.29a0.7,0.7,0,0,1,.83-0.82h2.81A0.592,0.592,0,0,1,2437.53,5641.71Zm16.24-4.55a1.207,1.207,0,0,1-1.29-1.29v-3.73a1.261,1.261,0,0,1,1.29-1.29h6.57a1.228,1.228,0,0,1,1.25,1.29v3.73a1.154,1.154,0,0,1-1.25,1.29h-6.57Zm-5.75-25.35c0,0.69-.05,1.33-0.05,2.02,0,1.11.55,1.11,2.3,1.11,0.23,0,.46-0.05.69-0.05a0.79,0.79,0,0,1,.87.69,4.511,4.511,0,0,1-.36,1.11,1.435,1.435,0,0,1-1.66,1.1h-1.01c-1.57,0-3.13-.09-4.69-0.09-0.97,0-.97.46-0.97,2.11,0,1.71,0,2.17.97,2.17s2.76-.1,3.86-0.14a0.7,0.7,0,0,1,.78.69,1.211,1.211,0,0,1-.09.41,42.2,42.2,0,0,1-5.98,8.51,2.587,2.587,0,0,0-.78,1.2c0,0.73,2.53,2.57,3.26,2.57,0.69,0,1.84-1.65,2.26-2.2a0.435,0.435,0,0,1,.32-0.19,0.493,0.493,0,0,1,.41.51v6.3c0,0.87-.09,2.58-0.09,2.99,0,0.87.65,0.83,2.21,0.83,1.75,0,2.3,0,2.3-.83,0-.18-0.05-0.37-0.05-0.55a0.914,0.914,0,0,1,1.06-1.01h6.9a0.879,0.879,0,0,1,1.06,1.01v0.41c0,0.92.32,0.97,2.21,0.97,1.79,0,2.25,0,2.25-.88,0-.13-0.04-2.43-0.04-2.94v-8.74c0-.87.04-1.7,0.04-2.48,0-1.52-1.47-1.66-2.62-1.66-1.01,0-2.02.05-3.04,0.05h-7.54a0.7,0.7,0,0,1-.74-0.69,1.728,1.728,0,0,1,.14-0.42c0.51-.92.97-1.88,1.47-2.8a1.622,1.622,0,0,1,1.75-1.06h7.32c1.56,0,3.17.14,4.73,0.14,0.92,0,.92-0.51.92-2.17s0-2.11-.96-2.11c-1.57,0-3.13.09-4.69,0.09h-5.57a0.806,0.806,0,0,1-.92-0.74,1.6,1.6,0,0,1,.09-0.41,1.533,1.533,0,0,1,.92-1.15,0.689,0.689,0,0,0,.55-0.51c0-.55-0.78-0.69-1.28-0.82-0.74-.23-2.44-0.69-3.13-0.88a1.074,1.074,0,0,1-1.01-.83,2.559,2.559,0,0,0-.05-0.64,1.086,1.086,0,0,1,1.29-1.2h3.17a1.051,1.051,0,0,1,1.24,1.15c0,0.74-.04,1.43-0.04,2.12,0,1.06.64,1.01,2.16,1.01,1.79,0,2.3,0,2.3-1.15,0-.64-0.05-1.29-0.05-1.93a1.013,1.013,0,0,1,1.11-1.2c0.78,0,2.99.1,3.54,0.1,1.06,0,1.01-.51,1.01-2.12s0.05-2.12-1.01-2.12c-0.46,0-2.76.1-3.45,0.1a1.055,1.055,0,0,1-1.24-1.15c-0.05-1.15.04-1.43,0.5-1.8a0.729,0.729,0,0,0,.51-0.55c0-.55-0.6-0.51-1.15-0.55-0.83-.09-2.85-0.28-3.59-0.28a0.583,0.583,0,0,0-.73.55,1.5,1.5,0,0,0,.04.42c0.09,0.55.09,1.52,0.14,2.11a1.116,1.116,0,0,1-1.29,1.25h-3.17a1.054,1.054,0,0,1-1.29-1.15c-0.05-1.06,0-1.43.55-1.75a0.79,0.79,0,0,0,.46-0.6c0-.51-0.64-0.51-1.24-0.55-0.69-.09-2.85-0.23-3.5-0.23-0.36,0-.73.04-0.73,0.55,0,0.09.04,0.32,0.04,0.41a14.4,14.4,0,0,1,.14,2.07,1.125,1.125,0,0,1-1.19,1.25c-0.74-.05-1.52-0.1-2.21-0.1-1.06,0-1.01.56-1.01,2.12s-0.05,2.12,1.01,2.12c0.46,0,1.61-.05,2.16-0.1A1.077,1.077,0,0,1,2448.02,5611.81Zm40.52-9.48c-0.46,0-.55.46-0.64,0.97a24.844,24.844,0,0,1-2.49,5.93c-0.41.56-1.65,0.6-2.85,0.6h-1.33c-1.34,0-2.53-.09-3.31-0.09-1.15,0-1.34.28-1.34,2.12,0,2.34.19,2.57,1.2,2.57,1.42,0,2.48-.14,3.22-0.14,0.64,0,1.01.14,1.01,0.56,0,0.87-6.67,10.12-7.73,11.27a1.9,1.9,0,0,0-.6,1.01c0,0.83,3.09,2.67,3.91,2.67a0.766,0.766,0,0,0,.65-0.46,30.166,30.166,0,0,1,3.86-5.39c1.8-1.84,6.03-4.04,8.6-4.04a1.917,1.917,0,0,1,2.03,1.56,6.476,6.476,0,0,1,.23,1.29,1.185,1.185,0,0,1-.83,1.06c-0.97.46-1.93,0.96-2.85,1.51-3.18,1.89-6.53,4.14-6.53,8.28,0,3.13,1.79,5.34,4.6,6.58a16.964,16.964,0,0,0,7.26,1.2,61.688,61.688,0,0,0,8.84-.6c1.01-.23,1.05-0.6,1.05-1.98,0-2.62-.32-3.13-0.92-3.13a5.29,5.29,0,0,0-.92.1,33.869,33.869,0,0,1-8.55,1.15c-2.21,0-6.67-.28-6.67-3.36,0-2.85,4.74-4.88,4.97-4.88a0.634,0.634,0,0,1,.59.78c0,0.97-.09,1.98-0.09,2.99,0,1.2.83,1.29,2.81,1.29,1.75,0,1.98-.18,1.98-1.84,0-1.42-.05-2.8-0.05-4.23v-0.6a1.42,1.42,0,0,1,1.2-1.52c1.79-.78,3.58-1.56,5.42-2.25,0.23-.09.46-0.14,0.65-0.23,0.87-.28,1.38-0.46,1.38-1.01,0-.78-1.11-4.33-1.98-4.33a4.082,4.082,0,0,0-1.2.46,40.057,40.057,0,0,1-5.38,2.63,0.764,0.764,0,0,1-.69-0.79c-0.6-2.89-2.3-4.14-5.24-4.14a12.793,12.793,0,0,0-5.02,1.2,1.748,1.748,0,0,1-.82.28,0.356,0.356,0,0,1-.37-0.33,14.919,14.919,0,0,1,1.56-2.66,1.61,1.61,0,0,1,1.38-.74c2.9-.32,5.8-0.83,8.7-1.43,0.96-.18,2.43-0.36,2.43-1.15a15.6,15.6,0,0,0-.36-2.48c-0.14-.64-0.37-1.38-1.15-1.38a3.4,3.4,0,0,0-1.15.28,33.6,33.6,0,0,1-5.34,1.28,0.445,0.445,0,0,1-.51-0.46,3.267,3.267,0,0,1,.46-1.05,2.563,2.563,0,0,1,1.52-1.57,0.734,0.734,0,0,0,.55-0.55C2493.69,5604.45,2488.96,5602.33,2488.54,5602.33Zm42.46,9.25a34.846,34.846,0,0,1-4.55,13.85,37.031,37.031,0,0,1-12.93,12.92,1.1,1.1,0,0,0-.78.78c0,1.06,1.29,3.68,2.48,3.68a5.061,5.061,0,0,0,2.21-1.1,42.351,42.351,0,0,0,15.41-18.77,0.558,0.558,0,0,1,.41-0.37,0.552,0.552,0,0,1,.46.37,41.93,41.93,0,0,0,11.87,16.7c0.78,0.64,4.51,3.63,5.29,3.63,1.24,0,2.99-2.57,2.99-3.72a0.989,0.989,0,0,0-.64-0.88c-10.67-6.21-17.07-16.79-17.07-29.21v-3.08c0-1.75-.41-2.71-2.3-2.71-0.73,0-1.47.04-2.25,0.04h-5.02c-1.1,0-2.25-.09-3.31-0.09-1.19,0-1.15.55-1.15,2.3,0,1.8-.04,2.39,1.15,2.39,1.11,0,2.21-.09,3.31-0.09h3.18c1.29,0,1.29.42,1.29,2.03A11.827,11.827,0,0,1,2531,5611.58Zm43.33,19.09a1,1,0,0,1,.92-0.64,0.655,0.655,0,0,0,.69-0.56,0.673,0.673,0,0,0-.55-0.55c-0.14-.09-0.23-0.09-0.23-0.18s0.05-.09.18-0.09h11.46c1.93,0,3.82.09,5.75,0.09,1.06,0,1.01-.83,1.01-2.26,0-1.47.05-2.3-1.01-2.3-1.93,0-3.82.1-5.75,0.1h-21.71c-1.89,0-3.82-.1-5.71-0.1-1.06,0-1.01.79-1.01,2.3,0,1.43-.05,2.26,1.01,2.26,1.89,0,3.82-.09,5.71-0.09h3.63a0.75,0.75,0,0,1,.87.69,1.031,1.031,0,0,1-.09.41c-1.1,2.35-2.16,4.6-3.45,6.85a1.77,1.77,0,0,1-1.79,1.11l-2.12.14c-1.98.13-2.3,0-2.3,0.64a25.508,25.508,0,0,0,.74,3.17c0.32,1.06.46,1.71,0.96,1.71a0.7,0.7,0,0,0,.51-0.37,1.036,1.036,0,0,1,.87-0.65c4.42-.32,7.59-0.59,11.46-0.92,3.77-.32,7.5-0.69,11.27-1.05,0.09,0,.18-0.05.32-0.05a1.6,1.6,0,0,1,1.47.97,9.613,9.613,0,0,1,.55.87c0.69,1.1.92,1.47,1.48,1.47,0.73,0,3.68-1.15,3.68-2.02,0-.65-3.18-5.11-3.78-5.94-1.05-1.51-2.48-3.4-3.68-4.83a1.317,1.317,0,0,0-1.05-.64c-0.79,0-3.5,1.29-3.5,2.07a17.158,17.158,0,0,0,2.02,2.76,1.023,1.023,0,0,1,.42.78,0.614,0.614,0,0,1-.65.65c-3.63.36-7.26,0.64-10.85,0.82a0.6,0.6,0,0,1-.74-0.59,0.664,0.664,0,0,1,.14-0.42C2572.4,5634.63,2573.5,5632.42,2574.33,5630.67Zm2.53-22.36a66.9,66.9,0,0,0,6.9,7.09,0.58,0.58,0,0,1,.19.37,0.51,0.51,0,0,1-.51.46c-1.1.04-2.16,0.04-3.22,0.04h-8.42c-1.01,0-2.02-.04-3.03-0.04a0.465,0.465,0,0,1-.46-0.46,0.409,0.409,0,0,1,.18-0.37,58.359,58.359,0,0,0,6.85-7.04,1.02,1.02,0,0,1,.74-0.41A0.969,0.969,0,0,1,2576.86,5608.31Zm-10.3,10.17c0,1.29,0,2.12.92,2.12,1.29,0,2.9-.1,4.32-0.1h8.42c1.38,0,3.13.1,4.28,0.1,0.87,0,.96-0.6.96-1.75v-0.97a0.572,0.572,0,0,1,.51-0.6,0.416,0.416,0,0,1,.32.14c1.34,0.97,7.13,4.97,8.47,4.97,1.01,0,2.25-2.67,2.25-3.54,0-.55-0.46-0.69-1.52-1.2a45.23,45.23,0,0,1-16.33-13.11,0.231,0.231,0,0,1-.04-0.18,0.3,0.3,0,0,1,.23-0.28,0.9,0.9,0,0,0,.87-0.69,0.777,0.777,0,0,0-.69-0.64c-0.74-.19-4.23-1.06-4.74-1.06a1.16,1.16,0,0,0-.87.74c-3.64,6.39-10.81,12.14-17.25,15.54-0.55.28-1.2,0.51-1.2,1.06,0,0.97,1.47,3.27,2.49,3.27,1.33,0,6.44-3.68,7.68-4.65a0.656,0.656,0,0,1,.41-0.14,0.572,0.572,0,0,1,.51.6v0.37Zm54.6,13.71a0.515,0.515,0,0,1,.46-0.55,0.568,0.568,0,0,1,.37.18,47.219,47.219,0,0,0,8.69,7.08c0.92,0.56,5.2,2.95,6.03,2.95,0.96,0,2.67-2.21,2.67-3.08,0-.51-0.65-0.74-1.25-1.02a40.909,40.909,0,0,1-12.32-7.77,0.5,0.5,0,0,1-.19-0.41,0.507,0.507,0,0,1,.55-0.46h5.71c1.79,0,3.59.13,5.38,0.13,1.1,0,1.1-.46,1.1-2.07,0-1.51,0-1.97-1.1-1.97-1.79,0-3.59.09-5.38,0.09h-9.43a1.1,1.1,0,0,1-1.29-1.2c0-1.38.05-1.84,0.55-2.21a0.857,0.857,0,0,0,.6-0.59c0-.42-0.69-0.46-1.01-0.51-0.88-.05-3.36-0.28-4.14-0.28-0.42,0-.88.05-0.88,0.6a0.947,0.947,0,0,0,.05.37,15.579,15.579,0,0,1,.14,2.53,1.1,1.1,0,0,1-1.24,1.29h-9.53c-1.79,0-3.58-.09-5.38-0.09-1.1,0-1.06.46-1.06,1.97,0,1.61-.04,2.07,1.06,2.07,1.8,0,3.59-.13,5.38-0.13h5.71c0.09,0.04.6,0.04,0.6,0.46a0.71,0.71,0,0,1-.19.41,44.257,44.257,0,0,1-11.91,7.41c-1.11.5-1.75,0.73-1.75,1.24,0,0.83,1.66,3.26,2.53,3.26a5.18,5.18,0,0,0,1.79-.64,2.412,2.412,0,0,1,.37-0.18,45.651,45.651,0,0,0,12.79-9.07,0.7,0.7,0,0,1,.41-0.18,0.454,0.454,0,0,1,.42.55v5.02c0,1.65-.09,3.26-0.09,4.69,0,1.38.64,1.38,2.48,1.38s2.44,0,2.44-1.38c0-1.57-.14-3.13-0.14-4.69v-5.2Zm-2.9-19.92a35.633,35.633,0,0,1-2.9-2.44,0.648,0.648,0,0,1-.13-0.41,0.473,0.473,0,0,1,.59-0.46h6.08c0.73,0,1.42.04,1.42,0.41,0,0.65-2.53,2.49-3.13,2.9a1.768,1.768,0,0,1-.96.37A1.8,1.8,0,0,1,2618.26,5612.27Zm1.7,5.93a64.207,64.207,0,0,0,14.54,5.29,15.431,15.431,0,0,0,2.48.46c1.48,0,2.21-2.3,2.21-3.26s-0.55-.97-1.33-1.11a55.163,55.163,0,0,1-13.71-3.86,0.755,0.755,0,0,1-.41-0.6,0.838,0.838,0,0,1,.36-0.64c1.43-.97,6.63-4.74,6.63-6.44,0-.32-1.01-2.76-3.27-2.76-1.33,0-2.67.04-4.05,0.04h-6.16a0.477,0.477,0,0,1-.55-0.46,0.549,0.549,0,0,1,.14-0.36,1.069,1.069,0,0,1,.96-0.6,0.773,0.773,0,0,0,.78-0.55c0-.37-0.46-0.46-1.65-0.74-0.23-.05-0.51-0.09-0.83-0.18a18.088,18.088,0,0,0-2.53-.6,1.457,1.457,0,0,0-1.01,1.01c-2.39,3.77-7.64,7.18-11.69,9.02-0.92.41-1.65,0.69-1.65,1.19,0,0.69,1.33,2.9,2.16,2.9,1.33,0,6.95-3.68,8.28-4.6a1.354,1.354,0,0,1,.83-0.32,1.191,1.191,0,0,1,.92.5,27.89,27.89,0,0,0,2.94,2.81,0.851,0.851,0,0,1,.32.64,0.808,0.808,0,0,1-.5.65,66.284,66.284,0,0,1-13.57,4.05c-1.57.32-2.39,0.41-2.39,1.05s0.73,3.22,2.11,3.22a6.673,6.673,0,0,0,.88-0.13,65.874,65.874,0,0,0,16.74-5.66,2.318,2.318,0,0,1,.97-0.28A2.219,2.219,0,0,1,2619.96,5618.2Zm46-7.77a1.09,1.09,0,0,1-1.28,1.29h-1.75a0.862,0.862,0,0,1-1.01-.88,0.881,0.881,0,0,1,.04-0.32,15.793,15.793,0,0,0,.46-1.98c0.23-1.1.37-1.65,0.78-1.93a1.085,1.085,0,0,0,.74-0.73,1.01,1.01,0,0,0-.97-0.69,25.3,25.3,0,0,0-3.81-.88c-0.65,0-.6.69-0.69,1.2a39.509,39.509,0,0,1-4.65,13.71,4.246,4.246,0,0,0-.6,1.33c0,0.97,2.95,1.89,3.59,1.89a1.114,1.114,0,0,0,.92-0.69,29.959,29.959,0,0,0,2.02-4.51,1.574,1.574,0,0,1,1.71-1.06h3.22a1.09,1.09,0,0,1,1.28,1.29v5.98a1.09,1.09,0,0,1-1.28,1.29h-4.42c-1.75,0-3.5-.1-5.29-0.1-1.2,0-1.2.51-1.2,2.3s-0.04,2.4,1.2,2.4c1.79,0,3.54-.14,5.29-0.14h4.42a1.1,1.1,0,0,1,1.28,1.29v4.37c0,2.39-.13,4.83-0.13,7.22,0,1.42.64,1.42,2.48,1.42,1.93,0,2.48,0,2.48-1.47,0-2.39-.09-4.78-0.09-7.17v-4.37a1.1,1.1,0,0,1,1.24-1.29h4.05c1.8,0,3.54.14,5.29,0.14,1.29,0,1.24-.6,1.24-2.4,0-1.74.05-2.3-1.24-2.3-1.75,0-3.49.1-5.29,0.1h-4.05a1.081,1.081,0,0,1-1.24-1.29v-5.98a1.081,1.081,0,0,1,1.24-1.29h2.99c1.8,0,3.55.09,5.34,0.09,1.1,0,1.06-.55,1.06-2.3,0-1.84.09-2.39-1.11-2.39-1.74,0-3.54.14-5.29,0.14h-2.99a1.081,1.081,0,0,1-1.24-1.29v-3.91c0-1.47.05-2.44,0.51-2.76a0.864,0.864,0,0,0,.55-0.69c0-.55-0.78-0.55-1.15-0.6-0.97-.04-3.17-0.18-4-0.18-0.42,0-.88.04-0.88,0.6,0,0.13.05,0.32,0.05,0.46,0.09,1.1.18,2.39,0.18,3.63v3.45Zm-19.5,25.39c0,2.07-.14,4.1-0.14,6.17,0,1.42.46,1.47,2.49,1.47,1.97,0,2.43-.05,2.43-1.47,0-2.07-.13-4.1-0.13-6.17v-17.2c0-1.52.04-2.39,0.55-2.76a0.765,0.765,0,0,0,.5-0.65c0-.59-0.92-0.55-1.33-0.59a0.515,0.515,0,0,1-.55-0.46,0.817,0.817,0,0,1,.09-0.33,59.6,59.6,0,0,0,3.91-7.68c0.37-.87.41-1.1,1.1-1.38a0.831,0.831,0,0,0,.69-0.6,1.242,1.242,0,0,0-1.01-.82c-0.6-.19-3.54-1.25-3.95-1.25a1.085,1.085,0,0,0-.88.97,41.424,41.424,0,0,1-9.06,15.32,2.381,2.381,0,0,0-.78,1.33c0,0.78,1.7,3.5,2.57,3.5,0.69,0,2.26-2.07,2.72-2.67a0.568,0.568,0,0,1,.37-0.18,0.411,0.411,0,0,1,.41.5v14.95Zm55.66-6.3c-0.87,0-2.48,3.27-2.48,3.91,0,0.74,3.08,4.6,10.53,4.6,1.84,0,9.61-.69,10.9-1.38a1.778,1.778,0,0,0,.55-1.7c0-2.35-.09-3.45-0.82-3.45a3.34,3.34,0,0,0-.97.18,37.634,37.634,0,0,1-10.12,1.47,7.878,7.878,0,0,1-6.99-3.22A0.816,0.816,0,0,0,2702.12,5629.52Zm1.06-19.92c-0.74,0-.97.69-0.97,2.9,0,0.51-.04,1.47.46,1.79,0.97,0.65,6.63.92,8.05,0.92a53.381,53.381,0,0,0,7.73-.64c0.87-.18.87-0.55,0.87-1.52a22.976,22.976,0,0,0-.18-2.48,1.039,1.039,0,0,0-.92-1.11,4.947,4.947,0,0,0-.83.14,30.129,30.129,0,0,1-6.99.92,29.188,29.188,0,0,1-6.03-.69A6.07,6.07,0,0,0,2703.18,5609.6Zm-11.04-3.59a0.973,0.973,0,0,0-.69,1.02,22.285,22.285,0,0,1-.6,2.3,54.856,54.856,0,0,0-2.35,15.22,31.7,31.7,0,0,0,2.81,14.12c0.6,1.25,1.15,2.26,1.93,2.26,0.97,0,3.59-1.11,3.59-2.26a4.851,4.851,0,0,0-.09-0.69c-0.05-.41-0.19-1.47-0.19-1.93,0-2.07,1.84-6.25,1.84-6.67a2.524,2.524,0,0,0-1.65-1.47,1.5,1.5,0,0,0-.97,1.1c-0.18.46-.83,1.8-1.24,1.8-1.06,0-1.24-5.57-1.24-6.44a36.549,36.549,0,0,1,2.57-13.07c0.46-1.15.65-1.56,1.43-1.97,0.46-.28.64-0.33,0.64-0.6a1.078,1.078,0,0,0-.92-0.78C2696.37,5607.67,2692.51,5606.01,2692.14,5606.01Zm45.81-.36c-0.64,0-.69.46-0.69,1.15v0.5c0,1.89-.41,6.3-0.55,8.42-0.27,3.63-.41,7.27-0.41,10.9,0,3.36.23,7.82,2.3,10.58a10.145,10.145,0,0,0,8.09,3.54,16.111,16.111,0,0,0,13.99-8.78c0.64-1.2,1.88-4.1,1.88-5.38,0-1.38-2.8-3.73-3.81-3.73-0.69,0-.79.78-0.92,1.52a14.664,14.664,0,0,1-2.81,6.81,11.65,11.65,0,0,1-8.65,4.46c-4.97,0-4.87-5.57-4.87-9.16,0-2.62.41-17.2,2.02-18.4a0.692,0.692,0,1,0-.37-1.33A38.139,38.139,0,0,0,2737.95,5605.65Zm33.91,6.02c0,0.46.41,4.83,1.51,4.83a3.264,3.264,0,0,0,.69-0.09,94.5,94.5,0,0,1,10.17-1.89c0.51-.09,2.58-0.41,2.94-0.41a0.646,0.646,0,0,1,.69.55,2.989,2.989,0,0,1-.82,1.11,20.4,20.4,0,0,0-5.06,13.2c0,8.97,6.71,11.45,14.53,11.45a1.448,1.448,0,0,0,1.34-.46,11.131,11.131,0,0,0,.82-4.09c0-.74-0.36-0.78-1.05-0.78-0.46,0-1.48.04-2.3,0.04-4.65,0-8.1-1.29-8.1-6.62a17.164,17.164,0,0,1,2.21-8.1,13.932,13.932,0,0,1,7.86-6.85,22.645,22.645,0,0,1,7.64-.97c1.06-.04,2.02.05,2.02-0.96a29.231,29.231,0,0,0-.36-3.36c-0.14-.55-0.23-1.15-0.92-1.15a2.641,2.641,0,0,0-.56.04c-3.45.56-6.99,1.02-10.44,1.43-6.71.78-13.43,1.47-20.15,1.89C2772.5,5610.61,2771.86,5610.48,2771.86,5611.67Zm66.56,1.84a0.764,0.764,0,0,0,.41.69c4.37,3.36,6.26,7.73,6.81,13.11,0.09,1.11.05,1.75,1.52,1.75a9.651,9.651,0,0,0,2.57-.41c0.79-.23,1.25-0.46,1.25-1.34a25.088,25.088,0,0,0-2.72-9.57c-2.21-4.23-6.07-7.13-7.08-7.13C2840.26,5610.61,2838.42,5612.64,2838.42,5613.51Zm-20.75-2.99a0.568,0.568,0,0,0-.64.51c-0.09.41-.23,6.25-0.23,6.99,0,4.88.37,10.67,2.67,15,1.51,2.8,4.18,5.88,7.59,5.88,2.16,0,3.58-1.38,4.92-2.89,0.64-.74,2.71-3.13,2.71-4.01,0-.82-2.34-2.71-3.31-2.71a1.8,1.8,0,0,0-1.24,1.15c-0.55,1.01-1.89,3.04-3.18,3.04-1.61,0-3.12-2.72-3.68-4.01a26.37,26.37,0,0,1-1.47-9.61,34.29,34.29,0,0,1,.37-4.88,3.306,3.306,0,0,1,.83-2.2,0.831,0.831,0,0,0,.46-0.6c0-.46-0.65-0.55-1.01-0.65C2821.67,5611.4,2818.27,5610.52,2817.67,5610.52Zm54.65,22.5c1.06,0,2.16,0,2.16.87,0,2.48-1.79,3.08-3.91,3.08-1.19,0-3.26-.27-3.26-1.84C2867.31,5633.15,2870.89,5633.02,2872.32,5633.02Zm1.56-28.85c-0.41,0-.69.1-0.69,0.56a3.662,3.662,0,0,0,.1.73c0.13,0.78.41,3.87,0.41,4.6,0,1.24-1.15,1.15-5.2,1.15-2.25,0-6.12-.37-7.08-0.37-0.78,0-.83.65-0.83,1.29a8.179,8.179,0,0,0,.51,3.36c0.27,0.37,1.42.41,2.66,0.41h1.38c2.49,0,6.17-.23,7.78-0.23,1.19,0,1.24,1.89,1.24,3.22,0,1.02-.64,1.15-2.35,1.15h-2.07c-1.74,0-4.32-.23-4.87-0.23-0.65,0-.78.42-0.78,0.97a9.715,9.715,0,0,0,.59,3.22c0.37,0.83,1.25.78,3.13,0.78,1.98,0,4.56-.18,5.52-0.18,1.15,0,1.06,1.7,1.06,3.17,0,0.46,0,1.29-.78,1.29-0.28,0-1.34-.09-1.89-0.09-3.82,0-8.83,1.47-8.83,6.12,0,4.27,4,5.98,7.68,5.98,3.73,0,7.36-1.15,8.33-5.11a1.016,1.016,0,0,1,.92-1.01c0.92,0,3.95,2.16,4.78,2.8a2.484,2.484,0,0,0,1.43.74c1.1,0,2.62-2.35,2.62-3.36,0-1.65-6.07-4.23-7.59-4.74-1.98-.64-2.16-0.27-2.16-5.06,0-1.28.92-1.28,2.67-1.47a41.642,41.642,0,0,0,4.73-.78c0.83-.18.88-0.64,0.88-2.16,0-1.75-.14-2.76-0.78-2.76a3.066,3.066,0,0,0-.88.18,39.05,39.05,0,0,1-5.89,1.11,0.781,0.781,0,0,1-.73-0.74,14.885,14.885,0,0,1-.23-2.44c0-1.29,1.1-1.24,2.07-1.38,2.44-.27,5.29-0.69,7.68-1.19,0.87-.19,1.29-0.28,1.29-1.2,0-.78-0.14-3.77-1.15-3.77a10.693,10.693,0,0,0-1.75.37,47.406,47.406,0,0,1-5.01,1.05c-0.33.05-2.12,0.33-2.3,0.33-0.83,0-.97-0.69-0.97-1.34,0.09-3.72.87-2.94,0.87-3.82,0-.5-0.64-0.59-1.84-0.73C2876.74,5604.5,2874.57,5604.17,2873.88,5604.17Zm42.09,18.45c1.89,0,2.3,2.62,2.3,4.05s-0.55,3.77-2.39,3.77-2.16-2.53-2.16-3.91S2914.18,5622.62,2915.97,5622.62Zm0.23-19.5a0.517,0.517,0,0,0-.59.55,1.168,1.168,0,0,0,.04.37,38.555,38.555,0,0,1,.46,5.7,1.359,1.359,0,0,1-1.01,1.43c-0.41.09-11.22,0.69-12.47,0.73-2.25.09-2.66,0-2.66,0.92a28.616,28.616,0,0,0,.36,3.31c0.14,0.6.19,1.25,0.92,1.25a3.284,3.284,0,0,0,.69-0.1c2.21-.46,8.15-1.1,10.54-1.33,0.55-.05,2.67-0.28,3.03-0.28,0.51,0,.83.23,0.83,1.94a0.6,0.6,0,0,1-.55.55c-4.65.41-6.49,4.46-6.49,8.69,0,3.36,1.48,7.68,5.48,7.68a4.118,4.118,0,0,0,1.06-.23,1.107,1.107,0,0,1,.36-0.04,0.345,0.345,0,0,1,.33.32,1.761,1.761,0,0,1-.23.69,14.8,14.8,0,0,1-3.32,4.46,3.507,3.507,0,0,0-1.05,1.29c0,0.83,3.72,1.98,4.27,1.98,2.03,0,6.95-8.24,6.95-15.64a14.041,14.041,0,0,0-1.43-6.44,3.935,3.935,0,0,1-.46-2.39v-1.61a1.475,1.475,0,0,1,.88-1.52c0.5-.14,4.78-0.19,5.61-0.19,2.58,0,6.03.23,6.67,0.23,0.46,0,1.01.05,1.01-2.76,0-2.07-.32-2.34-1.06-2.34-1.97,0-6.9.27-9.15,0.37-0.51,0-2.3.13-2.67,0.13a1.206,1.206,0,0,1-1.33-1.33c0-.97,0-1.98.04-2.94,0.05-1.34.42-1.71,0.74-1.94a0.672,0.672,0,0,0,.28-0.5c0-.42-1.38-0.55-2.49-0.65S2917.26,5603.12,2916.2,5603.12Zm31.74,28.29a4.047,4.047,0,0,1,4.1,4.09A4.1,4.1,0,1,1,2947.94,5631.41Zm0-2.3a6.39,6.39,0,1,0,6.4,6.39A6.376,6.376,0,0,0,2947.94,5629.11Z" transform="translate(-2085.25 -5601.69)"/>
</svg>
