<svg xmlns="http://www.w3.org/2000/svg" width="456.966" height="32.85" viewBox="0 0 456.966 32.85">
  <defs>
    <style>
      .cls-1 {
        fill-rule: evenodd;
      }
    </style>
  </defs>
  <path id="領域を超えて集まる人の想いと" class="cls-1" d="M997.517,1164.01c0-.47-2.233-2.42-2.7-2.42a0.7,0.7,0,0,0-.432.25,24.2,24.2,0,0,1-5.405,3.68,0.5,0.5,0,0,0-.4.43c0,0.54,1.225,2.24,1.982,2.24a2.221,2.221,0,0,0,.9-0.36,20.879,20.879,0,0,0,4.719-3.28,0.789,0.789,0,0,1,.541-0.29c0.036,0,.108.03,0.144,0.03,0.108,0,.18.04,0.252,0.04A0.364,0.364,0,0,0,997.517,1164.01Zm10.663,1.8a0.71,0.71,0,0,0-.54-0.58,22.192,22.192,0,0,1-4.79-3.39,1.206,1.206,0,0,0-.68-0.46,3.484,3.484,0,0,0-1.95,1.98c0,0.9,5.19,4.75,5.98,4.75C1006.89,1168.11,1008.18,1166.49,1008.18,1165.81Zm-12.86-9.05a0.948,0.948,0,0,1,.972-1h5.078a1.018,1.018,0,0,1,1.01,1v0.36a1.02,1.02,0,0,1-1.01,1.01h-5.078a0.951,0.951,0,0,1-.972-1.01v-0.36Zm0-5a0.805,0.805,0,0,1,.828-0.87h5.372a0.832,0.832,0,0,1,.86.87v0.43a0.83,0.83,0,0,1-.86.86h-5.372a0.8,0.8,0,0,1-.828-0.86v-0.43Zm6.2-5.66a0.8,0.8,0,0,1,.86.83v0.39a0.832,0.832,0,0,1-.86.87h-5.372a0.805,0.805,0,0,1-.828-0.87v-0.39a0.773,0.773,0,0,1,.828-0.83h5.372Zm-1.552-3.03a0.557,0.557,0,0,1-.649-0.54,0.866,0.866,0,0,1,.072-0.32c0.18-.36.324-0.72,0.5-1.12a1.226,1.226,0,0,1,1.335-.83h2.02c1.22,0,2.41.08,3.64,0.08,0.75,0,.72-0.47.72-1.66s0.07-1.66-.72-1.66c-1.23,0-2.42.07-3.64,0.07h-8.615c-1.225,0-2.414-.07-3.639-0.07-0.756,0-.72.43-0.72,1.66,0,1.26,0,1.66.72,1.66,1.225,0,2.414-.08,3.639-0.08h0.9a0.594,0.594,0,0,1,.684.54,0.874,0.874,0,0,1-.072.33c-0.18.39-.36,0.75-0.54,1.11a1.33,1.33,0,0,1-1.369.8H993.3a1.331,1.331,0,0,0-1.585,1.58c0,0.9.072,1.8,0.072,2.7v9.59c0,0.9-.072,1.8-0.072,2.7,0,1.23.468,1.62,1.693,1.62,0.793,0,1.621-.07,2.414-0.07h6.016c0.83,0,1.66.07,2.49,0.07a1.355,1.355,0,0,0,1.62-1.62c0-.9-0.04-1.8-0.04-2.7v-9.59c0-.9.04-1.8,0.04-2.7,0-1.22-.47-1.58-1.66-1.58-0.83,0-1.66.03-2.45,0.03h-1.872Zm-20.1,19.28c0,1.58-.108,3.17-0.108,4.76,0,1.18.324,1.22,1.837,1.22,1.442,0,1.766-.04,1.766-1.15,0-1.62-.072-3.25-0.072-4.83v-6.67a0.858,0.858,0,0,1,1.009-1.01h1.081a0.871,0.871,0,0,1,1.008,1.01v3.1c0,1.37.036,1.7-1.008,1.7-0.325,0-.829-0.04-0.937-0.04-0.577,0-.577.76-0.577,1.15,0,2.45.757,2.27,1.477,2.27,2.595,0,4.36-.39,4.36-3.42,0-.47-0.072-0.97-0.072-1.48v-4.03c0-.69.072-1.37,0.072-2.02,0-1.3-.4-1.66-1.657-1.66-0.577,0-1.117.07-1.658,0.07h-6.377c-1.045,0-2.09-.07-3.134-0.07-0.793,0-.757.43-0.757,1.77,0,1.37-.036,1.73.793,1.73,0.288,0,1.693-.04,1.981-0.04a0.821,0.821,0,0,1,.973.97v6.67Zm6.882-17.44a0.533,0.533,0,0,1,.144.36,0.5,0.5,0,0,1-.541.47c-0.54.04-1.045,0.07-1.585,0.07H983.07c-0.5,0-.973-0.03-1.478-0.07a0.486,0.486,0,0,1-.576-0.47,0.8,0.8,0,0,1,.144-0.36,31.54,31.54,0,0,0,2.018-3.39,0.561,0.561,0,0,1,.5-0.32,0.567,0.567,0,0,1,.469.29A29.827,29.827,0,0,0,986.745,1144.91Zm-6.882,2.7c-0.036.8-.036,1.37,0.829,1.37,0.792,0,1.585-.07,2.378-0.07h1.693c0.793,0,1.585.07,2.378,0.07,0.9,0,.829-0.57.829-1.8v-0.29a0.361,0.361,0,0,1,.252-0.36,0.449,0.449,0,0,1,.18.07,1.082,1.082,0,0,0,.649.4,3.619,3.619,0,0,0,2.125-2.23,1.311,1.311,0,0,0-.576-0.76,33.029,33.029,0,0,1-5.152-6.02,0.117,0.117,0,0,1-.036-0.1,0.315,0.315,0,0,1,.18-0.29,0.472,0.472,0,0,0,.252-0.33,1.157,1.157,0,0,0-.973-0.68,22.311,22.311,0,0,0-2.63-.79c-0.324,0-.4.25-0.577,0.75a29.529,29.529,0,0,1-5.872,9.87,3.019,3.019,0,0,0-.685,1.01c0,0.58,1.73,1.91,2.378,1.91,0.5,0,1.513-1.44,1.874-1.91a0.335,0.335,0,0,1,.252-0.11A0.315,0.315,0,0,1,979.863,1147.61Zm53.317,13.12c0-.4,0-1.52-0.57-1.52a3.1,3.1,0,0,0-.51.11c-1.51.44-9.22,1.91-10.88,2.09-0.36.04-.72,0-0.72,0.36a14.389,14.389,0,0,0,.65,2.31c0.32,0.94.47,1.3,0.83,1.3a0.611,0.611,0,0,0,.43-0.4c0.11-.32.14-0.47,0.83-0.58,1.91-.32,7.49-1.69,9.33-2.3C1033.04,1161.95,1033.18,1161.74,1033.18,1160.73Zm-6.77-8.79a1.007,1.007,0,0,1,1.01-1.01h0.61a1.007,1.007,0,0,1,1.01,1.01v1.83a1.027,1.027,0,0,1-1.01,1.01h-0.61a1.027,1.027,0,0,1-1.01-1.01v-1.83Zm5.58-.54c0-.62.04-1.23,0.04-1.84a1.3,1.3,0,0,0-1.48-1.55c-0.54,0-1.11.07-1.76,0.07h-2.16c-0.62,0-1.19-.07-1.77-0.07a1.286,1.286,0,0,0-1.44,1.55c0,0.61.03,1.22,0.03,1.84v4.68c0,0.65-.03,1.33-0.03,1.98,0,0.79.5,0.79,1.37,0.79,1.19,0,1.58.04,1.62-.54,0.04-.64.25-0.72,0.86-0.72h1.52c0.65,0,1.19.08,1.76,0.08a1.289,1.289,0,0,0,1.48-1.52c0-.61-0.04-1.19-0.04-1.76v-2.99Zm11.25-10.74a12.792,12.792,0,0,0-1.23-2.41c-0.25-.47-1.04-1.95-1.55-1.95-0.43,0-2.12.72-2.12,1.22a0.688,0.688,0,0,0,.21.47,28.9,28.9,0,0,1,1.51,2.6c0.47,0.93.58,1.29,0.98,1.29C1041.51,1141.88,1043.24,1141.27,1043.24,1140.66Zm-6.53.9c-0.03-1.04-.03-2.05-0.03-3.1a1.1,1.1,0,0,1,.39-1.15,0.65,0.65,0,0,0,.54-0.51c0-.46-0.54-0.43-1.72-0.54-0.37-.03-1.88-0.18-2.17-0.18a0.572,0.572,0,0,0-.68.65c0,0.11.07,0.94,0.07,1.95v2.88a0.813,0.813,0,0,1-.97.94h-3.93c-1.33,0-2.7-.11-4.03-0.11-0.94,0-.94.43-0.94,1.76,0,1.3,0,1.77.9,1.77,1.37,0,2.7-.11,4.07-0.11h4a0.889,0.889,0,0,1,1.05.97,60.568,60.568,0,0,0,1.62,12.25,1.5,1.5,0,0,1-.33,1.59,26.629,26.629,0,0,1-5.01,4.65,2.415,2.415,0,0,0-1.04,1.11,3.825,3.825,0,0,0,2.12,2.06c0.91,0,4.44-3.64,5.16-4.43a0.561,0.561,0,0,1,.47-0.22,0.653,0.653,0,0,1,.54.36c0.79,1.66,2.01,3.96,4.07,3.96,1.91,0,2.63-1.62,3.17-3.2a14.82,14.82,0,0,0,.65-3.71c0-1.26-1.62-1.59-2.24-1.59-0.54,0-.61.25-0.61,0.54-0.04.58-.18,3.53-0.9,3.53-0.69,0-1.55-2.38-1.77-2.95a2.378,2.378,0,0,1-.14-0.65,1.93,1.93,0,0,1,.32-0.97,41.816,41.816,0,0,0,3.5-7.53,1.613,1.613,0,0,1,.76-1.16,0.583,0.583,0,0,0,.57-0.43c0-.32-0.29-0.4-1.51-1.01-0.04-.03-0.15-0.07-0.22-0.11a8.832,8.832,0,0,0-1.69-.64c-0.4,0-.43.43-0.54,0.9a33.331,33.331,0,0,1-2.05,5.69,0.326,0.326,0,0,1-.29.22,0.391,0.391,0,0,1-.33-0.33,64.9,64.9,0,0,1-.72-7.93,0.847,0.847,0,0,1,.97-0.97h1.45c1.33,0,2.66.11,4.03,0.11,0.94,0,.94-0.43.94-1.77,0-1.26.03-1.76-.9-1.76-1.37,0-2.7.11-4.07,0.11h-1.52A0.855,0.855,0,0,1,1036.71,1141.56Zm-16.39,6.09c0.43,0,.87.07,1.3,0.07,0.79,0,.75-0.47.75-1.73s0.04-1.73-.75-1.73c-0.43,0-.87.04-1.3,0.04a0.847,0.847,0,0,1-.97-0.97v-4c0-1.44.03-1.59,0.43-1.84a0.763,0.763,0,0,0,.58-0.51c0-.39-0.51-0.43-0.8-0.46-0.5-.08-2.81-0.22-3.27-0.22-0.33,0-.62.04-0.62,0.43,0,0.11.04,0.22,0.04,0.33a20.494,20.494,0,0,1,.11,2.16v4.11a0.856,0.856,0,0,1-.98,1c-0.46-.03-1.29-0.07-1.73-0.07-0.79,0-.75.51-0.75,1.73,0,1.26-.04,1.73.75,1.73,0.62,0,1.19-.07,1.77-0.07a0.837,0.837,0,0,1,.94.97v8.11a1.047,1.047,0,0,1-.94,1.22c-0.86.18-1.48,0.29-1.95,0.36-0.86.15-1.08,0.18-1.08,0.51a4.847,4.847,0,0,0,.26,1.01c0.1,0.32.21,0.65,0.28,0.9,0.36,1.19.54,1.76,0.9,1.76a0.456,0.456,0,0,0,.4-0.36c0.25-.47.33-0.57,2.6-1.19,1.36-.36,4.25-1.29,5.54-1.8a1.021,1.021,0,0,0,.65-1.19c0-.43,0-1.83-0.61-1.83-0.14,0-1.33.36-1.59,0.43-0.1,0-.18.03-0.28,0.03a0.667,0.667,0,0,1-.65-0.79v-7.17A0.847,0.847,0,0,1,1020.32,1147.65Zm39.05-11.64c-0.36,0-.43.36-0.5,0.76a19.605,19.605,0,0,1-1.95,4.65c-0.32.43-1.29,0.46-2.23,0.46h-1.05c-1.04,0-1.98-.07-2.59-0.07-0.9,0-1.04.22-1.04,1.66,0,1.84.14,2.02,0.93,2.02,1.12,0,1.95-.11,2.52-0.11,0.51,0,.8.11,0.8,0.43,0,0.69-5.23,7.93-6.06,8.83a1.5,1.5,0,0,0-.46.79c0,0.65,2.41,2.09,3.06,2.09a0.6,0.6,0,0,0,.5-0.36,23.23,23.23,0,0,1,3.03-4.21c1.4-1.45,4.72-3.18,6.74-3.18a1.5,1.5,0,0,1,1.58,1.23,5.1,5.1,0,0,1,.18,1.01,0.928,0.928,0,0,1-.65.83,25.158,25.158,0,0,0-2.23,1.19c-2.49,1.47-5.12,3.24-5.12,6.48a5.47,5.47,0,0,0,3.61,5.15,13.329,13.329,0,0,0,5.69.94,47.016,47.016,0,0,0,6.92-.47c0.79-.18.83-0.47,0.83-1.55,0-2.05-.26-2.45-0.73-2.45a4.067,4.067,0,0,0-.72.08,26.574,26.574,0,0,1-6.7.9c-1.73,0-5.22-.22-5.22-2.63,0-2.24,3.71-3.82,3.89-3.82a0.5,0.5,0,0,1,.47.61c0,0.76-.07,1.55-0.07,2.34,0,0.94.64,1.01,2.19,1.01,1.37,0,1.55-.14,1.55-1.44,0-1.12-.03-2.2-0.03-3.32v-0.46a1.1,1.1,0,0,1,.93-1.19c1.41-.62,2.81-1.23,4.26-1.77,0.18-.07.36-0.11,0.5-0.18,0.68-.22,1.08-0.36,1.08-0.79,0-.61-0.86-3.39-1.55-3.39a3,3,0,0,0-.94.36,31.161,31.161,0,0,1-4.21,2.06,0.6,0.6,0,0,1-.54-0.62c-0.47-2.27-1.8-3.24-4.11-3.24a10.027,10.027,0,0,0-3.93.94,1.349,1.349,0,0,1-.64.21,0.271,0.271,0,0,1-.29-0.25,12.118,12.118,0,0,1,1.22-2.09,1.3,1.3,0,0,1,1.08-.58c2.27-.25,4.54-0.64,6.81-1.11,0.76-.15,1.91-0.29,1.91-0.9a11.317,11.317,0,0,0-.29-1.95,1.05,1.05,0,0,0-.9-1.08,2.7,2.7,0,0,0-.9.22,26.162,26.162,0,0,1-4.18,1.01,0.349,0.349,0,0,1-.39-0.36,2.357,2.357,0,0,1,.36-0.83,1.99,1.99,0,0,1,1.19-1.23,0.572,0.572,0,0,0,.43-0.43C1063.41,1137.67,1059.7,1136.01,1059.37,1136.01Zm38.55,5.23a10.151,10.151,0,0,1-4.29,6.3,0.978,0.978,0,0,0-.54.69c0,0.75,1.59,2.09,2.17,2.09a1.975,1.975,0,0,0,1-.58,13.33,13.33,0,0,0,4.98-8.5,0.951,0.951,0,0,1,1.11-.94h1.62c0.76,0,1.09.07,1.09,0.83a26.828,26.828,0,0,1-.44,4.21c-0.21,1.08-.65,1.26-1.69,1.26-0.25,0-.9-0.07-1.15-0.07-0.15,0-.36-0.03-0.54-0.03-0.44,0-.47.64-0.47,1.11,0,2.35.75,2.27,2.02,2.27,1.76,0,3.85-.11,4.61-1.98s1.15-6.66,1.15-8.79c0-1.44-.47-1.87-1.95-1.87-1,0-2.01.07-2.99,0.07h-6.12c-0.97,0-1.95-.07-2.92-0.07-0.86,0-.83.28-0.83,1.51,0,1.3-.03,1.62.79,1.62,0.87,0,1.7-.11,2.56-0.07a0.728,0.728,0,0,1,.87.72C1097.96,1141.09,1097.92,1141.2,1097.92,1141.24Zm-14.19,10.62a21,21,0,0,1,.14,3.36v4.79a0.414,0.414,0,0,1-.4.43,0.336,0.336,0,0,1-.28-0.14,6.338,6.338,0,0,1-.87-1.12,1.971,1.971,0,0,1-.36-1.19c0-.11.04-0.22,0.04-0.32,0.07-.76.07-1.3,0.1-1.7,0.04-1.04.08-1.22,0.58-1.44a0.548,0.548,0,0,0,.4-0.43,0.783,0.783,0,0,0-.8-0.51c-0.5-.07-2.16-0.36-2.55-0.36-0.44,0-.54.22-0.54,0.62v0.61a40.06,40.06,0,0,1-1.95,11.31,2.822,2.822,0,0,0-.18.69c0,0.79,1.73,1.26,2.34,1.26,0.58,0,.9-0.33,1.73-4.47a0.424,0.424,0,0,1,.36-0.36,0.48,0.48,0,0,1,.36.22c3.24,4.1,8.29,4.5,13.15,4.5,2.31,0,4.61.04,6.92,0.04,1.73,0,3.46-.04,5.19-0.08a4.492,4.492,0,0,0,1.98-.32,2.693,2.693,0,0,0,.68-2.13c0-.65-0.07-1.22-0.82-1.22-0.62,0-1.23.07-1.84,0.11-2.31.07-4.58,0.14-6.88,0.14a89.182,89.182,0,0,1-9.91-.36,16.393,16.393,0,0,1-2.23-.5,1.1,1.1,0,0,1-.91-1.27v-2.63a0.852,0.852,0,0,1,1.01-1h0.83c0.97,0,1.88.07,2.31,0.07,0.79,0,.75-0.51.75-1.66,0-1.22.04-1.69-.75-1.69-0.58,0-1.41.07-2.31,0.07h-0.83a0.836,0.836,0,0,1-1.01-.9c-0.03-1.23-.03-1.73.47-2.06a0.7,0.7,0,0,0,.51-0.54c0-.46-0.72-0.46-1.08-0.5a0.191,0.191,0,0,1-.08-0.07,0.077,0.077,0,0,1,.08-0.07h0.97c1.22,0,2.45.1,3.67,0.1,0.8,0,.76-0.43.76-1.73,0-1.22.04-1.65-.76-1.65-1.15,0-2.3.11-3.45,0.07a0.856,0.856,0,0,1-1.01-1.01v-2.13a0.836,0.836,0,0,1,.97-1c0.86-.04,1.73.07,2.56,0.07s0.79-.43.79-1.62c0-1.26.04-1.7-.79-1.7s-1.7.08-2.56,0.11a0.867,0.867,0,0,1-.97-1.01v-0.86c0-.83.03-1.3,0.46-1.55a0.815,0.815,0,0,0,.51-0.54c0-.43-0.61-0.47-0.94-0.51-0.75-.1-2.23-0.25-2.95-0.25-0.36,0-.69.07-0.69,0.51,0,0.1.04,0.25,0.04,0.36a17.783,17.783,0,0,1,.14,2.84,0.865,0.865,0,0,1-1.01,1.01c-0.93.04-1.9-.11-2.88-0.11-0.75,0-.75.4-0.75,1.7,0,1.26,0,1.62.75,1.62,0.98,0,1.95-.11,2.88-0.07a0.849,0.849,0,0,1,1.01,1v2.13a0.856,0.856,0,0,1-1.01,1.01h-0.5c-1.22,0-2.45-.07-3.67-0.07-0.8,0-.76.43-0.76,1.65,0,1.27-.07,1.73.76,1.73,1.22,0,2.45-.1,3.67-0.1h0.54A0.791,0.791,0,0,1,1083.73,1151.86Zm14.95,6.2a0.955,0.955,0,0,1-1.01-.97v-1.95a1.041,1.041,0,0,1,1.01-1.01h5.01a1.032,1.032,0,0,1,1,1.01v1.95a0.947,0.947,0,0,1-1,.97h-5.01Zm5.94,3.42c0.04,0.8.29,0.8,1.8,0.8,1.34,0,1.77.03,1.77-.8,0-.9-0.04-1.76-0.04-2.66v-4.18c0-.72.04-1.44,0.04-2.16,0-1.23-.83-1.44-1.87-1.44-0.83,0-1.66.03-2.45,0.03h-5.37c-0.83,0-1.66-.03-2.49-0.03-1.01,0-1.84.25-1.84,1.44,0,0.72.08,1.44,0.08,2.16v4.18c0,0.9-.08,1.76-0.08,2.66,0,0.83.44,0.8,1.77,0.8,1.44,0,1.73,0,1.8-.69a0.514,0.514,0,0,1,.54-0.54h5.91A0.381,0.381,0,0,1,1104.62,1161.48Zm27.53-4.79c0-2.99-2.17-3.6-3.14-3.6-0.25,0-.47.04-0.72,0.04a0.365,0.365,0,0,1-.36-0.36,1.327,1.327,0,0,1,.47-0.73,45.921,45.921,0,0,1,5.01-4.86,1.4,1.4,0,0,0,.79-0.9c0-.54-1.66-3.06-2.52-3.06a3.122,3.122,0,0,0-1.01.25,76.055,76.055,0,0,1-13.01,2.59c-0.39.04-.75,0.11-0.75,0.58a5.6,5.6,0,0,0,.82,2.02,3.282,3.282,0,0,1,.26.43,1.105,1.105,0,0,0,.97.83c0.61,0,4.83-1.12,5.66-1.33a21.857,21.857,0,0,1,2.19-.58,0.3,0.3,0,0,1,.33.29,5.994,5.994,0,0,1-1.3,1.69c-3.85,4.29-7.57,8.72-11.67,12.79a2.4,2.4,0,0,0-.87,1.23c0,0.83,2.13,2.63,2.88,2.63a2.226,2.226,0,0,0,1.01-.94c1.59-2.05,5.05-6.63,6.85-8.18a5.816,5.816,0,0,1,3.21-1.51,1.084,1.084,0,0,1,1.18,1.3,15.7,15.7,0,0,1-.21,2.26,18.026,18.026,0,0,0-.33,2.85,4.155,4.155,0,0,0,4.44,4.14,17.925,17.925,0,0,0,6.66-1.83c0.65-.36.61-1.52,0.61-2.16,0-.4.04-2.27-0.46-2.27a2.878,2.878,0,0,0-1.01.46c-1.44.9-3.61,2.17-5.34,2.17a1.036,1.036,0,0,1-1.18-1.19c0-.54.18-1.77,0.25-2.35A17.55,17.55,0,0,0,1132.15,1156.69Zm-9.95-19.78c-0.39,0-.54.15-0.9,1.12a9.754,9.754,0,0,0-.54,1.84c0,0.57.79,0.72,2.05,1.11,0.26,0.08.87,0.29,1.55,0.54,1.55,0.54,3.57,1.27,3.82,1.27,0.83,0,1.34-2.89,1.34-3.07a0.741,0.741,0,0,0-.69-0.68C1128.04,1138.79,1122.49,1136.91,1122.2,1136.91Zm22.88,6.42c0,0.36.32,3.78,1.19,3.78a3.327,3.327,0,0,0,.54-0.07,69.013,69.013,0,0,1,7.96-1.48c0.4-.07,2.02-0.32,2.3-0.32a0.515,0.515,0,0,1,.55.43,2.418,2.418,0,0,1-.65.86,16.013,16.013,0,0,0-3.97,10.34c0,7.03,5.26,8.97,11.39,8.97a1.11,1.11,0,0,0,1.04-.36,8.5,8.5,0,0,0,.65-3.2c0-.58-0.29-0.62-0.83-0.62-0.36,0-1.15.04-1.8,0.04-3.64,0-6.34-1.01-6.34-5.19a13.536,13.536,0,0,1,1.73-6.34,10.941,10.941,0,0,1,6.16-5.37,17.5,17.5,0,0,1,5.98-.75c0.83-.04,1.59.03,1.59-0.76a21.364,21.364,0,0,0-.29-2.63c-0.11-.43-0.18-0.9-0.72-0.9a2.028,2.028,0,0,0-.43.03c-2.71.44-5.48,0.8-8.18,1.12-5.26.61-10.52,1.15-15.78,1.48C1145.58,1142.5,1145.08,1142.39,1145.08,1143.33Zm44.17,7.49a0.8,0.8,0,0,1,.82.86v0.08a0.8,0.8,0,0,1-.82.86h-4.33a0.808,0.808,0,0,1-.86-0.86v-0.08a0.808,0.808,0,0,1,.86-0.86h4.33Zm0.14-4.14a0.621,0.621,0,0,1,.68.68v0.4a0.621,0.621,0,0,1-.68.68h-4.65a0.621,0.621,0,0,1-.68-0.68v-0.4a0.621,0.621,0,0,1,.68-0.68h4.65Zm-0.14-4.18a0.8,0.8,0,0,1,.82.86v0.11a0.8,0.8,0,0,1-.82.86h-4.33a0.808,0.808,0,0,1-.86-0.86v-0.11a0.808,0.808,0,0,1,.86-0.86h4.33Zm4.43,0.86a0.724,0.724,0,0,1,.83-0.86h5c1.37,0,2.71.07,4.08,0.07,0.82,0,.86-0.25.86-1.26,0-1.05-.04-1.3-0.86-1.3-1.37,0-2.71.07-4.08,0.07h-4.32a0.544,0.544,0,0,1-.5-0.83c0.18-.28.61-1.15,0.75-1.36a0.839,0.839,0,0,1,.69-0.33,0.4,0.4,0,0,0,.43-0.4,1.051,1.051,0,0,0-.9-0.61,23.1,23.1,0,0,0-3.03-.86,0.464,0.464,0,0,0-.43.36,32.1,32.1,0,0,1-1.37,3.24,1.35,1.35,0,0,1-1.44.79h-3.57a0.5,0.5,0,0,1-.57-0.47,0.63,0.63,0,0,1,.1-0.36c0.26-.39.44-0.72,0.58-0.97a1.41,1.41,0,0,1,1.01-.97,0.5,0.5,0,0,0,.47-0.43c0-.33-0.36-0.44-1.12-0.65a18.554,18.554,0,0,0-2.63-.65,0.6,0.6,0,0,0-.5.47,31.769,31.769,0,0,1-6.56,8.97,1.452,1.452,0,0,0-.58.76,3.752,3.752,0,0,0,1.95,2.16c0.5,0,1.55-1.19,1.91-1.59a0.548,0.548,0,0,1,.32-0.14,0.357,0.357,0,0,1,.33.43v4.54c0,0.83-.04,1.66-0.04,2.49,0,1.29.76,1.44,1.87,1.44,0.94,0,1.88-.04,2.78-0.04h3.85a0.8,0.8,0,0,1,.87.87c0,0.14.03,0.25,0.03,0.39a0.793,0.793,0,0,1-.93.94h-7.89c-1.41,0-2.85-.07-4.29-0.07-0.83,0-.83.32-0.83,1.51s0,1.51.83,1.51c1.44,0,2.88-.07,4.29-0.07h4.54a0.355,0.355,0,0,1,.36.29,0.322,0.322,0,0,1-.18.29,37.719,37.719,0,0,1-8.79,4,1.484,1.484,0,0,1-.29.07c-0.51.18-.83,0.25-0.83,0.68,0,0.58,1.08,2.35,1.87,2.35a7.246,7.246,0,0,0,2.06-.58,35.556,35.556,0,0,0,9.4-5.37,0.638,0.638,0,0,1,.36-0.11,0.458,0.458,0,0,1,.4.51v1.73c0,1.04-.08,2.09-0.08,3.1,0,1.18.54,1.15,1.95,1.15,1.37,0,1.87,0,1.87-1.15,0-1.05-.1-2.06-0.1-3.1v-1.8a0.444,0.444,0,0,1,.39-0.51,0.55,0.55,0,0,1,.33.14,35.28,35.28,0,0,0,6.08,4.04c0.91,0.5,4.22,2.13,5.05,2.13,0.94,0,2.09-1.88,2.09-2.45a0.577,0.577,0,0,0-.54-0.51,37.106,37.106,0,0,1-9.37-4.32,0.3,0.3,0,0,1-.18-0.29,0.355,0.355,0,0,1,.36-0.29h4.76c1.44,0,2.88.07,4.28,0.07,0.87,0,.87-0.32.87-1.51,0-1.15,0-1.51-.87-1.51-1.4,0-2.84.07-4.28,0.07h-8.18a0.571,0.571,0,0,1-.69-0.51,0.765,0.765,0,0,1,.36-0.61,0.774,0.774,0,0,0,.51-0.5c0-.29-0.25-0.43-0.94-0.47a0.085,0.085,0,0,1-.07-0.07c0-.04.04-0.04,0.07-0.04h7.64c1.4,0,2.77.04,4.14,0.04,0.8,0,.83-0.25.83-1.26,0-1.05-.03-1.3-0.86-1.3-1.37,0-2.74.07-4.11,0.07h-6.77a0.724,0.724,0,0,1-.83-0.86v-0.08a0.724,0.724,0,0,1,.83-0.86h3.45c1.34,0,2.64.07,3.97,0.07,0.86,0,.86-0.29.86-1.26,0-1.01-.03-1.26-0.86-1.26-1.33,0-2.63.07-3.97,0.07h-3.63a0.559,0.559,0,0,1-.65-0.68v-0.4a0.569,0.569,0,0,1,.68-0.68H1198c1.3,0,2.6.07,3.93,0.07,0.83,0,.86-0.22.86-1.26,0-1.01-.03-1.23-0.86-1.23-1.33,0-2.63.07-3.93,0.07h-3.49a0.724,0.724,0,0,1-.83-0.86v-0.11Zm28.64,16.68c0.83,0,1.69,0,1.69.69,0,1.94-1.4,2.41-3.06,2.41-0.94,0-2.56-.21-2.56-1.44C1218.39,1160.15,1221.2,1160.04,1222.32,1160.04Zm1.22-22.59c-0.32,0-.54.07-0.54,0.44a3.7,3.7,0,0,0,.07.57c0.11,0.61.33,3.03,0.33,3.6,0,0.98-.9.91-4.07,0.91-1.77,0-4.79-.29-5.55-0.29-0.61,0-.65.5-0.65,1.01a6.428,6.428,0,0,0,.4,2.63,3.626,3.626,0,0,0,2.09.32h1.08c1.94,0,4.82-.18,6.09-0.18,0.93,0,.97,1.48.97,2.52,0,0.79-.51.9-1.84,0.9h-1.62c-1.37,0-3.39-.18-3.82-0.18a0.6,0.6,0,0,0-.61.76,7.408,7.408,0,0,0,.47,2.52c0.28,0.65.97,0.61,2.45,0.61,1.55,0,3.56-.14,4.32-0.14,0.9,0,.83,1.33.83,2.49,0,0.36,0,1-.61,1-0.22,0-1.05-.07-1.48-0.07-2.99,0-6.92,1.16-6.92,4.79,0,3.36,3.14,4.69,6.02,4.69,2.92,0,5.76-.9,6.52-4a0.794,0.794,0,0,1,.72-0.79c0.72,0,3.1,1.69,3.75,2.19a1.94,1.94,0,0,0,1.11.58c0.87,0,2.06-1.84,2.06-2.63,0-1.3-4.76-3.31-5.95-3.71-1.55-.5-1.69-0.22-1.69-3.96,0-1.01.72-1.01,2.09-1.16a30.527,30.527,0,0,0,3.71-.61c0.65-.14.69-0.5,0.69-1.69,0-1.37-.11-2.16-0.62-2.16a2.356,2.356,0,0,0-.68.14,30.785,30.785,0,0,1-4.61.86,0.611,0.611,0,0,1-.58-0.57,11.615,11.615,0,0,1-.18-1.91c0-1.01.86-.97,1.62-1.08,1.91-.22,4.14-0.54,6.02-0.94,0.68-.14,1.01-0.22,1.01-0.94,0-.61-0.11-2.95-0.9-2.95a9.278,9.278,0,0,0-1.37.29,37.588,37.588,0,0,1-3.93.83c-0.25.03-1.66,0.25-1.8,0.25a0.833,0.833,0,0,1-.76-1.05c0.07-2.91.69-2.3,0.69-2.99,0-.39-0.51-0.46-1.45-0.57C1225.78,1137.7,1224.08,1137.45,1223.54,1137.45Zm34.05,24.47a1.08,1.08,0,0,1-.98,1.22c-1.08,0-2.81-.61-2.81-1.91a1.5,1.5,0,0,1,1.55-1.44A2.209,2.209,0,0,1,1257.59,1161.92Zm3.35-23.35a4.74,4.74,0,0,0-1.37.4,33.737,33.737,0,0,1-9.12,1.33h-0.86c-1.08,0-1.12.07-1.12,0.9,0,0.61.11,3.31,0.9,3.31,0.58,0,5.66-1.04,6.52-1.26,0.22-.03.69-0.14,0.87-0.14a0.513,0.513,0,0,1,.61.43,3.151,3.151,0,0,1-.94,1.3,142.328,142.328,0,0,1-11.2,11.31,1.8,1.8,0,0,0-.87,1.08c0,0.58,1.84,2.6,2.6,2.6a0.464,0.464,0,0,0,.39-0.26c1.3-1.47,2.6-2.95,4-4.32a10.956,10.956,0,0,1,8.07-3.53c3.14,0,6.09,1.44,6.09,4.94a5.854,5.854,0,0,1-4.36,5.55,0.456,0.456,0,0,1-.43-0.47,3.6,3.6,0,0,0-.65-2.31,5.88,5.88,0,0,0-4.79-2.56,4.53,4.53,0,0,0-4.61,4.36c0,3.68,4.25,4.9,7.24,4.9,5.8,0,11.46-3.31,11.46-9.69a7.453,7.453,0,0,0-4.29-6.99,10.552,10.552,0,0,0-4.43-1.08,7.418,7.418,0,0,0-1.48.14,1.851,1.851,0,0,1-.47.08,0.543,0.543,0,0,1-.61-0.47,1.067,1.067,0,0,1,.36-0.61,34.645,34.645,0,0,1,5.23-4.83,1.634,1.634,0,0,0,.79-0.76C1264.47,1141.31,1262.38,1138.57,1260.94,1138.57Zm29.9,12.9a29.863,29.863,0,0,0,9.37,13.83c0.61,0.54,3.28,2.63,3.96,2.63,0.86,0,2.38-1.8,2.38-2.73a1.482,1.482,0,0,0-.87-0.87,28,28,0,0,1-11.56-13.94,31.664,31.664,0,0,1-1.77-8.15c0-.25-0.03-0.54-0.03-0.79,0.03-1.15.07-2.3,0.07-3.42a0.679,0.679,0,0,1,.36-0.61,0.827,0.827,0,0,0,.65-0.62c0-.43-0.65-0.46-1.01-0.5-0.61-.11-2.56-0.32-3.1-0.32-0.72,0-.87.43-0.87,1.08,0,1.08.08,2.12,0.08,3.17,0,10.3-4.47,18.62-13.3,23.99a1.343,1.343,0,0,0-.9.87c0,0.86,1.51,2.7,2.42,2.7a4.36,4.36,0,0,0,1.87-.94,28.6,28.6,0,0,0,11.67-15.38,0.357,0.357,0,0,1,.29-0.25A0.335,0.335,0,0,1,1290.84,1151.47Zm29.9-7.28a0.571,0.571,0,0,1,.58.65,36.35,36.35,0,0,1-1.16,7.02c-1.01,3.68-3.02,7.79-4.82,7.79-1.84,0-2.31-3.35-2.31-4.69a11.139,11.139,0,0,1,6.49-10.37A3.8,3.8,0,0,1,1320.74,1144.19Zm3.46-4.22a14.85,14.85,0,0,0-14.95,15.14,11.286,11.286,0,0,0,1.11,5.11,5.83,5.83,0,0,0,4.9,3.43c1.99,0,3.57-1.34,4.76-2.78,3.46-4.14,4.72-10.55,5.12-15.81,0.03-.62.03-1.41,0.86-1.41a6.793,6.793,0,0,1,1.37.32,8.742,8.742,0,0,1,5.76,8.62c0,5.15-3.71,8.25-8.43,9.36-0.36.07-.9,0.15-0.9,0.51,0,0.79,1.48,3.02,2.42,3.02a14,14,0,0,0,3.92-1.44,12.937,12.937,0,0,0,7.03-11.63,12.217,12.217,0,0,0-3.64-8.87A12.825,12.825,0,0,0,1324.2,1139.97Zm29.61,24.04c-0.86,0-1.69-.11-1.69-1.16v-3.6c0-1.33-.04-1.8.65-2.2a0.622,0.622,0,0,0,.36-0.43,0.478,0.478,0,0,0-.44-0.4c-0.32-.07-3.24-0.25-3.63-0.25a0.472,0.472,0,0,0-.58.47c0,0.4.11,1.77,0.11,2.81v3.53c0,0.54-.04,1.05-0.04,1.59,0,2.88,1.62,2.95,4.54,2.95h6.92c1.84,0,3.03,0,4-1.19a9.675,9.675,0,0,0,1.58-4.36c0-1.33-2.45-1.62-2.73-1.62-0.62,0-.65.25-0.83,1.23-0.44,2.19-.54,2.63-2.35,2.63h-5.87Zm17.94,0.97c0-.79-1.54-3.75-1.98-4.58-0.47-.9-1.69-3.17-2.23-3.96a0.9,0.9,0,0,0-.79-0.47c-0.54,0-2.42.72-2.42,1.48a1.312,1.312,0,0,0,.36.79,48.435,48.435,0,0,1,3.68,7.21c0.21,0.57.29,0.93,0.75,0.93C1369.66,1166.38,1371.75,1165.66,1371.75,1164.98Zm-24.28-6.63c0-.4-0.65-0.54-1.04-0.65s-2.13-.65-2.42-0.65a0.713,0.713,0,0,0-.61.69,25.8,25.8,0,0,1-2.85,6.41,2.258,2.258,0,0,0-.54,1.08c0,0.79,1.84,1.37,2.49,1.37a1.154,1.154,0,0,0,1.01-.68,33.161,33.161,0,0,0,2.99-6.49,0.619,0.619,0,0,1,.5-0.61A0.532,0.532,0,0,0,1347.47,1158.35Zm11.93-8.79a0.832,0.832,0,0,1,.86-0.87h5.26a0.835,0.835,0,0,1,.87.87v0.32a0.835,0.835,0,0,1-.87.87h-5.26a0.832,0.832,0,0,1-.86-0.87v-0.32Zm0-4.47a0.806,0.806,0,0,1,.86-0.83h5.26a0.809,0.809,0,0,1,.87.83v0.18a0.835,0.835,0,0,1-.87.87h-5.26a0.832,0.832,0,0,1-.86-0.87v-0.18Zm6.99-4.25a0.832,0.832,0,0,1-.87.86h-5.26a0.83,0.83,0,0,1-.86-0.86v-0.18a0.838,0.838,0,0,1,.86-0.87h5.26a0.84,0.84,0,0,1,.87.87v0.18Zm-6.99,13.55a0.917,0.917,0,0,1,.86-0.8h5.59a0.417,0.417,0,0,1,.46.4c0.04,0.79.33,0.79,1.84,0.79,1.44,0,1.88.04,1.88-.83,0-.97-0.08-1.94-0.08-2.91v-10.31c0-.83.08-1.62,0.08-2.45,0-1.22-.69-1.44-1.77-1.44-0.83,0-1.62.04-2.45,0.04h-5.87c-0.83,0-1.66-.04-2.49-0.04-1.04,0-1.69.25-1.69,1.44,0,0.83.03,1.62,0.03,2.45v10.31c0,0.82,0,1.69-.03,2.55a1.122,1.122,0,0,1-.69,1.08c-0.32.19-1.33,0.73-1.33,1.16a1.782,1.782,0,0,0,.58.97,38.047,38.047,0,0,1,2.88,3.96,1.19,1.19,0,0,0,.86.76c0.58,0,2.35-.97,2.35-1.66,0-.57-2.49-3.78-3-4.36a0.49,0.49,0,0,1-.1-0.32,0.417,0.417,0,0,1,.46-0.4C1358.89,1154.78,1359.25,1154.75,1359.4,1154.39Zm-9.3-6.81c0.4,0.61,2.13,2.88,2.81,2.88a3.257,3.257,0,0,0,1.87-2.13,1.181,1.181,0,0,0-.64-0.86,21.3,21.3,0,0,1-3.53-3.57,0.434,0.434,0,0,1,.39-0.75h0.29c1.01,0,2.02.07,2.63,0.07,0.76,0,.76-0.4.76-1.59s0-1.58-.76-1.58-1.69.07-2.63,0.07h-0.76a0.859,0.859,0,0,1-1.01-1.01c-0.03-1.73,0-2.02.44-2.27a0.738,0.738,0,0,0,.5-0.47c0-.36-0.47-0.36-0.72-0.39-0.61-.08-2.63-0.26-3.17-0.26a0.469,0.469,0,0,0-.58.44,0.754,0.754,0,0,0,.04.28,17.243,17.243,0,0,1,.11,2.67,0.859,0.859,0,0,1-1.01,1.01h-1.3c-0.97,0-1.94-.07-2.63-0.07-0.79,0-.76.43-0.76,1.58s-0.03,1.59.76,1.59c0.58,0,1.59-.07,2.63-0.07h0.4a0.578,0.578,0,0,1,.65.54,0.742,0.742,0,0,1-.08.28,27.257,27.257,0,0,1-4.46,6.27,1.511,1.511,0,0,0-.47.83,3.265,3.265,0,0,0,2.05,2.02,1.021,1.021,0,0,0,.79-0.47,25.972,25.972,0,0,0,2.96-4.21,0.243,0.243,0,0,1,.22-0.15,0.284,0.284,0,0,1,.25.29v1.69c0,1.3-.11,2.63-0.11,3.97,0,0.86.4,0.9,1.84,0.9,1.37,0,1.76-.04,1.76-0.9,0-1.34-.11-2.67-0.11-3.97v-2.45a0.336,0.336,0,0,1,.29-0.36A0.58,0.58,0,0,1,1350.1,1147.58Zm43.09-2.81a0.61,0.61,0,0,0,.32.54c3.43,2.63,4.9,6.05,5.34,10.27,0.07,0.86.03,1.36,1.18,1.36a7.546,7.546,0,0,0,2.02-.32,1,1,0,0,0,.97-1.04,19.615,19.615,0,0,0-2.12-7.5c-1.73-3.31-4.76-5.58-5.55-5.58A3.469,3.469,0,0,0,1393.19,1144.77Zm-16.25-2.35a0.458,0.458,0,0,0-.51.4c-0.07.33-.18,4.9-0.18,5.48,0,3.82.29,8.36,2.09,11.74,1.19,2.2,3.28,4.62,5.95,4.62,1.69,0,2.81-1.09,3.85-2.27,0.51-.58,2.13-2.45,2.13-3.14,0-.65-1.84-2.13-2.59-2.13a1.454,1.454,0,0,0-.98.91c-0.43.79-1.47,2.37-2.48,2.37-1.26,0-2.45-2.12-2.89-3.13a20.742,20.742,0,0,1-1.15-7.53,26.838,26.838,0,0,1,.29-3.82,2.622,2.622,0,0,1,.65-1.73,0.639,0.639,0,0,0,.36-0.47c0-.36-0.51-0.43-0.79-0.5C1380.07,1143.11,1377.41,1142.42,1376.94,1142.42Zm37.47-3.56a2.229,2.229,0,0,0,.1.43,23.613,23.613,0,0,1,.69,2.38c0.36,1.48,1.37,5.29,1.8,6.59a1.225,1.225,0,0,1,.14.65,1.134,1.134,0,0,1-.61.94c-2.99,1.94-6.23,4.5-6.23,8.43a6.361,6.361,0,0,0,3.31,5.55c2.38,1.4,4.72,1.55,7.39,1.55a86.362,86.362,0,0,0,9.91-.58c0.72-.18.75-0.58,0.75-1.51v-0.44c0-.75-0.03-2.23-0.54-2.23a0.908,0.908,0,0,0-.32.04,54.452,54.452,0,0,1-9.4.93,14.465,14.465,0,0,1-4.8-.65c-1.11-.39-2.37-1.29-2.37-2.59a4.546,4.546,0,0,1,1.76-3.24,36.687,36.687,0,0,1,6.49-4.25,65.777,65.777,0,0,1,8.9-4.15,0.775,0.775,0,0,0,.68-0.57,7.35,7.35,0,0,0-1.04-2.2c-0.22-.36-0.83-1.44-1.3-1.44a2.216,2.216,0,0,0-.94.36c-0.93.61-6.7,4-7.35,4a1.04,1.04,0,0,1-.83-1.08,49.139,49.139,0,0,1-1.11-6.45c-0.08-.83,0-1.37-1.01-1.37a13.682,13.682,0,0,0-1.73.18C1415.6,1138.32,1414.41,1138.32,1414.41,1138.86Z" transform="translate(-975.094 -1135.59)"/>
</svg>
