<svg xmlns="http://www.w3.org/2000/svg" width="293.754" height="31.97" viewBox="0 0 293.754 31.97">
  <defs>
    <style>
      .cls-1 {
        fill-rule: evenodd;
      }
    </style>
  </defs>
  <path id="アイデアの重なりが" class="cls-1" d="M989.591,1146.89c-0.36,0-.36.18-0.36,0.47a19.337,19.337,0,0,1-.577,5.37,17.035,17.035,0,0,1-7.53,10.48,1.349,1.349,0,0,0-.865.8c0,0.65,2.342,2.52,2.955,2.52a2.55,2.55,0,0,0,1.189-.65c5.368-4.14,7.6-8.72,8.647-15.31a6.214,6.214,0,0,1,.72-2.6,0.516,0.516,0,0,0,.217-0.36c0-.39-0.5-0.39-0.757-0.43C992.69,1147.11,990.059,1146.89,989.591,1146.89Zm-6.305-5.47c-1.658,0-3.315-.08-4.972-0.08-0.829,0-.9.44-0.9,1.37v0.72c0,1.44.036,1.84,0.973,1.84,1.621,0,3.242-.11,4.9-0.11h15.457c0.324,0,1.116-.07,1.116.44s-4,4.03-4.647,4.61a2.324,2.324,0,0,0-.9,1.08c0,0.61,2.018,2.2,2.63,2.2a1.421,1.421,0,0,0,.865-0.51c1.333-1.19,3.2-3.02,4.464-4.32,0.44-.47,3.14-3.28,3.35-3.46a1.649,1.649,0,0,0,.8-0.97,4.479,4.479,0,0,0-1.34-2.09,2.048,2.048,0,0,0-1.33-.94,1.754,1.754,0,0,0-.47.04,25.854,25.854,0,0,1-3.745.18H983.286Zm44.164,6.37a1.917,1.917,0,0,1,.83-1.62,70.256,70.256,0,0,0,4.94-5.4,1.96,1.96,0,0,1,1.4-.87,0.414,0.414,0,0,0,.36-0.36c0-.43-1-1.04-1.4-1.29a12.865,12.865,0,0,0-2.45-1.48,0.964,0.964,0,0,0-.58.54,30.387,30.387,0,0,1-4.9,6.09,52.056,52.056,0,0,1-14.16,9.55,0.712,0.712,0,0,0-.57.61c0,0.68,2.19,2.88,2.81,2.88,0.93,0,6.66-3.82,7.74-4.61a4,4,0,0,1,1.41-.83c0.68,0,.58.79,0.58,1.01v9.8c0,1.55-.08,3.1-0.08,4.65,0,0.93.36,1.04,2.35,1.04,1.33,0,1.8-.11,1.8-1.08,0-1.55-.08-3.13-0.08-4.72v-13.91Zm44.46-11.74a3.082,3.082,0,0,0-1.76,1.44,0.758,0.758,0,0,0,.28.47c0.65,0.68,1.55,1.65,2.13,2.41a2.016,2.016,0,0,0,.9.9,2.864,2.864,0,0,0,1.77-1.58,7.734,7.734,0,0,0-1.44-1.91A8.086,8.086,0,0,0,1071.91,1136.05Zm-2.92,3.2a3.241,3.241,0,0,0-1.8,1.41,0.7,0.7,0,0,0,.33.47c0.75,0.86,1.51,1.73,2.19,2.66a1.844,1.844,0,0,0,.76.72,2.805,2.805,0,0,0,1.8-1.58A13.363,13.363,0,0,0,1068.99,1139.25Zm-20.93,9.48c-1.59,0-3.31-.11-4.58-0.11-0.86,0-.9.54-0.9,1.88,0,1.36-.03,2.05.94,2.05,1.41,0,3.03-.11,4.54-0.11h7.31a0.826,0.826,0,0,1,.83.87,15.606,15.606,0,0,1-.29,1.73,10.71,10.71,0,0,1-4.54,6.55,17.289,17.289,0,0,1-4.53,1.88,1.021,1.021,0,0,0-.98.64c0,0.58,1.95,2.96,2.74,2.96a6.164,6.164,0,0,0,1.69-.58,15.893,15.893,0,0,0,7.5-5.87,18.222,18.222,0,0,0,2.38-6.52c0.14-.76.14-1.66,1.15-1.66h4.72c1.55,0,3.1.07,4.65,0.07,0.93,0,1.01-.5,1.01-1.98,0-1.73-.08-1.91-1.12-1.91-1.51,0-3.03.11-4.54,0.11h-17.98Zm4.76-9.44c-1.63,0-3.35-.11-4.51-0.11-1.08,0-1.01.72-1.01,2.02s-0.07,1.87.94,1.87c1.55,0,3.06-.07,4.58-0.07h7.67c1.51,0,3.06.07,4.58,0.07,0.97,0,.97-0.5.97-1.73,0-1.44.07-2.16-1.01-2.16-1.22,0-2.95.11-4.54,0.11h-7.67Zm35.12,7.6c-0.36,0-.36.18-0.36,0.47a19.153,19.153,0,0,1-.58,5.37,17.027,17.027,0,0,1-7.53,10.48,1.347,1.347,0,0,0-.86.8c0,0.65,2.34,2.52,2.95,2.52a2.539,2.539,0,0,0,1.19-.65c5.37-4.14,7.61-8.72,8.65-15.31a6.214,6.214,0,0,1,.72-2.6,0.517,0.517,0,0,0,.22-0.36c0-.39-0.51-0.39-0.76-0.43C1091.04,1147.11,1088.41,1146.89,1087.94,1146.89Zm-6.3-5.47c-1.66,0-3.32-.08-4.98-0.08-0.82,0-.9.44-0.9,1.37v0.72c0,1.44.04,1.84,0.98,1.84,1.62,0,3.24-.11,4.9-0.11h15.45c0.33,0,1.12-.07,1.12.44s-4,4.03-4.65,4.61a2.34,2.34,0,0,0-.9,1.08c0,0.61,2.02,2.2,2.63,2.2a1.455,1.455,0,0,0,.87-0.51c1.33-1.19,3.2-3.02,4.46-4.32,0.44-.47,3.14-3.28,3.35-3.46a1.649,1.649,0,0,0,.8-0.97,4.479,4.479,0,0,0-1.34-2.09,2.048,2.048,0,0,0-1.33-.94,1.754,1.754,0,0,0-.47.04,25.82,25.82,0,0,1-3.74.18h-16.25Zm38.8,2.77a0.569,0.569,0,0,1,.57.65,36.326,36.326,0,0,1-1.15,7.02c-1.01,3.68-3.03,7.79-4.83,7.79-1.84,0-2.3-3.35-2.3-4.69a11.13,11.13,0,0,1,6.48-10.37A3.933,3.933,0,0,1,1120.44,1144.19Zm3.46-4.22a14.852,14.852,0,0,0-14.96,15.14,11.294,11.294,0,0,0,1.12,5.11,5.8,5.8,0,0,0,4.9,3.43c1.98,0,3.57-1.34,4.76-2.78,3.45-4.14,4.72-10.55,5.11-15.81,0.04-.62.04-1.41,0.87-1.41a6.953,6.953,0,0,1,1.37.32,8.755,8.755,0,0,1,5.76,8.62c0,5.15-3.71,8.25-8.43,9.36-0.36.07-.9,0.15-0.9,0.51,0,0.79,1.48,3.02,2.41,3.02a14.059,14.059,0,0,0,3.93-1.44,12.937,12.937,0,0,0,7.03-11.63,12.217,12.217,0,0,0-3.64-8.87A12.825,12.825,0,0,0,1123.9,1139.97Zm33.57,14.63a0.806,0.806,0,0,1,.83-0.86h4.43a0.832,0.832,0,0,1,.87.86v0.29a0.835,0.835,0,0,1-.87.87h-4.43a0.809,0.809,0,0,1-.83-0.87v-0.29Zm0.83-3.31a0.782,0.782,0,0,1-.83-0.83v-0.18a0.777,0.777,0,0,1,.83-0.83h4.43a0.8,0.8,0,0,1,.87.83v0.18a0.809,0.809,0,0,1-.87.83h-4.43Zm-5.33,2.45a0.83,0.83,0,0,1,.86.86v0.29a0.832,0.832,0,0,1-.86.87h-4.33a0.832,0.832,0,0,1-.86-0.87v-0.29a0.83,0.83,0,0,1,.86-0.86h4.33Zm0.86-3.28a0.806,0.806,0,0,1-.86.83h-4.33a0.806,0.806,0,0,1-.86-0.83v-0.18a0.8,0.8,0,0,1,.86-0.83h4.33a0.8,0.8,0,0,1,.86.83v0.18Zm3.64-9.51a0.932,0.932,0,0,1,.94-1.12c2.66-.36,5.29-0.68,7.92-1.3a6.384,6.384,0,0,1,.73-0.1,1.366,1.366,0,0,1,.54.1,1.2,1.2,0,0,0,.5.15,0.352,0.352,0,0,0,.32-0.36c0-.54-0.79-1.12-1.11-1.55a3.2,3.2,0,0,0-1.48-1.23,1.935,1.935,0,0,0-.65.15c-4.97,1.69-13.98,1.94-19.35,1.94h-2.45c-1,0-1.22.15-1.22,0.69a3.978,3.978,0,0,0,.29,1.44,0.849,0.849,0,0,0,.93.79c3.21,0,6.42-.14,9.62-0.29a0.707,0.707,0,0,1,.83.83v0.33a0.733,0.733,0,0,1-.86.86h-7.68c-1.4,0-2.81-.07-4.21-0.07-0.76,0-.76.36-0.76,1.44,0,1.01,0,1.41.72,1.41,1.41,0,2.85-.08,4.25-0.08h7.68a0.74,0.74,0,0,1,.86.87v0.11a0.733,0.733,0,0,1-.86.86H1149c-0.97,0-1.98-.07-2.95-0.07-1.04,0-1.8.21-1.8,1.4,0,0.69.03,1.37,0.03,2.13v4.65c0,0.68-.03,1.37-0.03,2.09,0,1.22.76,1.4,1.8,1.4,0.97,0,1.98-.07,2.95-0.07h4.15a0.581,0.581,0,0,1,.68.68v0.33a0.578,0.578,0,0,1-.68.68h-6.02c-1.3,0-2.59-.07-3.85-0.07-0.76,0-.76.4-0.76,1.37,0,1.01,0,1.37.76,1.37,1.29,0,2.59-.07,3.85-0.07h5.84a0.733,0.733,0,0,1,.86.86v0.22a0.733,0.733,0,0,1-.86.86h-8.29c-1.4,0-2.85-.07-4.25-0.07-0.72,0-.72.4-0.72,1.44,0,0.97,0,1.44.72,1.44,1.4,0,2.85-.07,4.25-0.07h21.8c1.4,0,2.81.07,4.21,0.07,0.76,0,.73-0.43.73-1.44,0-1.04.03-1.44-.73-1.44-1.4,0-2.81.07-4.21,0.07h-8.18a0.724,0.724,0,0,1-.83-0.86v-0.22a0.724,0.724,0,0,1,.83-0.86h5.8c1.3,0,2.56.07,3.86,0.07,0.75,0,.75-0.36.75-1.37,0-.97,0-1.37-0.72-1.37-1.29,0-2.59.07-3.89,0.07h-5.98a0.559,0.559,0,0,1-.65-0.68v-0.33a0.585,0.585,0,0,1,.69-0.68h4.21c1.01,0,1.98.07,2.99,0.07,1.05,0,1.77-.18,1.77-1.4,0-.72-0.04-1.41-0.04-2.09v-4.65c0-.72.04-1.41,0.04-2.13,0-1.22-.8-1.4-1.84-1.4-0.97,0-1.95.07-2.92,0.07h-4.07a0.724,0.724,0,0,1-.83-0.86v-0.11a0.731,0.731,0,0,1,.83-0.87h7.71c1.41,0,2.81.08,4.22,0.08,0.72,0,.72-0.4.72-1.45,0-1,.03-1.4-0.72-1.4-1.41,0-2.81.07-4.22,0.07h-7.57a0.846,0.846,0,0,1-.97-1.01v-0.32Zm31.6,19.71c1.8,0,1.83.39,1.83,1.11a1.683,1.683,0,0,1-1.87,1.95c-0.94,0-2.38-.58-2.38-1.7C1186.65,1160.87,1188.2,1160.66,1189.07,1160.66Zm1.76-12.72a0.722,0.722,0,0,0-.86.79c0,0.18.03,0.32,0.03,0.5,0.11,1.41.65,6.63,0.65,7.79a0.632,0.632,0,0,1-.76.61h-0.93c-2.85,0-5.98,1.15-5.98,4.47,0,3.35,3.42,4.9,6.34,4.9,2.45,0,4.57-.9,5.01-3.53a0.788,0.788,0,0,1,.57-0.83c0.58,0,2.34,1.26,2.89,1.65a1.819,1.819,0,0,0,.93.51c0.9,0,2.24-2.05,2.24-2.63,0-.87-4.26-2.85-5.08-3.17-0.11-.04-0.26-0.11-0.36-0.15a1.386,1.386,0,0,1-1.12-.9c-0.18-.75-0.36-5.94-0.36-6.99,0-.75.07-1.83,0.07-1.91a0.8,0.8,0,0,0-.72-0.75A14.484,14.484,0,0,0,1190.83,1147.94Zm5.51-5.55c-0.75,0-2.41,1.98-2.41,2.48a0.92,0.92,0,0,0,.47.58,20.463,20.463,0,0,1,4.5,4.65,1.192,1.192,0,0,0,.79.65c0.65,0,2.71-1.62,2.71-2.49C1202.4,1147.32,1197.24,1142.39,1196.34,1142.39Zm-12.1-5.87c-0.33,0-.33.36-0.33,0.61,0,1.15-.61,5.15-1.15,6.05a1.227,1.227,0,0,1-1.08.58,33.028,33.028,0,0,1-3.71.18h-1.66a0.526,0.526,0,0,0-.65.57,20.9,20.9,0,0,0,.26,2.09c0.14,0.83.28,1.16,0.9,1.16,0.82,0,3.6-.36,3.89-0.36a0.482,0.482,0,0,1,.5.47,14.121,14.121,0,0,1-.83,2.19,68.2,68.2,0,0,1-4.28,8.33,3.923,3.923,0,0,0-.65,1.29c0,0.76,2.41,1.8,3.2,1.8a0.709,0.709,0,0,0,.72-0.5,91.289,91.289,0,0,0,5.88-12.83c0.43-1.19.39-1.44,1.69-1.65,3.32-.62,3.75-0.69,3.75-1.48a17.383,17.383,0,0,0-.18-1.91c-0.07-.43-0.11-1.08-0.54-1.08a1.1,1.1,0,0,0-.36.07,17.049,17.049,0,0,1-2.06.54,0.419,0.419,0,0,1-.39-0.47,11.373,11.373,0,0,1,.39-1.62,6.332,6.332,0,0,1,.65-1.91,1.017,1.017,0,0,0,.58-0.65,0.736,0.736,0,0,0-.58-0.43C1187.62,1137.38,1184.63,1136.52,1184.24,1136.52Zm41.43,2.34a1.982,1.982,0,0,0,.07.47,35.038,35.038,0,0,1,1.26,10.05,21.2,21.2,0,0,1-1.66,9.08,13.589,13.589,0,0,1-4.9,5.62,0.852,0.852,0,0,0-.54.61c0,0.76,2.09,2.52,2.67,2.52,0.83,0,2.31-1.44,2.88-2.01,4.54-4.62,5.59-9.91,5.59-16.15a47.4,47.4,0,0,0-1.12-10.37c-0.14-.54-0.22-0.98-0.9-0.98C1228.62,1137.7,1225.67,1138.07,1225.67,1138.86Zm-10.49.54c-0.25-.11-1.83-0.76-1.94-0.76a0.988,0.988,0,0,0-.47.9c-0.14.9-.4,1.77-0.61,2.67a33.87,33.87,0,0,0-.83,7.38,30.02,30.02,0,0,0,1.19,8.4c0.21,0.68.47,1.33,1.26,1.33,0.68,0,2.59-.43,2.59-1.44,0-.25-0.07-0.65-0.07-1.15a14.324,14.324,0,0,1,1.19-4.47l0.32-.86c0.33-.87.87-2.13,0.87-2.24a1.979,1.979,0,0,0-1.41-1.11c-0.43,0-1.08,1.54-1.26,1.94a1.365,1.365,0,0,1-.65.94c-0.39,0-.36-1.55-0.36-1.84a18.8,18.8,0,0,1,.47-4.03,13.914,13.914,0,0,1,1.05-3.03,1.582,1.582,0,0,1,.68-0.72,0.622,0.622,0,0,0,.43-0.47C1217.63,1140.44,1215.98,1139.76,1215.18,1139.4Zm34.52-1.3a0.451,0.451,0,0,0-.44.54c0,0.07.08,0.83,0.08,1.41a32.643,32.643,0,0,1-.4,4.64,1.151,1.151,0,0,1-1.15,1.12c-1.98.36-4,.87-6.02,1.08-0.43.04-1.04,0.04-1.04,0.58,0,0.22.61,3.75,1.47,3.75a2.443,2.443,0,0,0,.76-0.26,30.146,30.146,0,0,1,4.14-1.26,0.456,0.456,0,0,1,.47.47,13.653,13.653,0,0,1-.9,2.74,28.7,28.7,0,0,1-6.45,10.02,1.344,1.344,0,0,0-.5.82c0,0.83,2.3,2.2,2.95,2.2a0.832,0.832,0,0,0,.61-0.36,32.609,32.609,0,0,0,3.57-5.11,40.6,40.6,0,0,0,4.61-10.78c0.25-1.01.65-1.29,2.67-1.29,2.2,0,2.3,1.51,2.3,3.27a21.388,21.388,0,0,1-1.62,8.15c-0.9,1.8-1.8,2.23-3.78,2.23-0.72,0-1.26-.14-1.62-0.14a0.507,0.507,0,0,0-.51.61,7.321,7.321,0,0,0,.65,2.59,1.48,1.48,0,0,0,1.66.83,7.36,7.36,0,0,0,6.81-3.89c1.59-2.88,2.16-7.75,2.16-11.02,0-2.02-.43-4.08-2.23-5.26a7.15,7.15,0,0,0-4.07-.8h-0.44a0.7,0.7,0,0,1-.79-0.72,2.142,2.142,0,0,1,.07-0.43c0.11-.58.18-1.08,0.26-1.48,0.18-1.29.25-1.87,0.93-2.38a0.6,0.6,0,0,0,.33-0.46,1.018,1.018,0,0,0-.94-0.58C1252.76,1138.79,1250.06,1138.1,1249.7,1138.1Zm14.66,0a3.01,3.01,0,0,0-1.73,1.51,0.888,0.888,0,0,0,.33.51,30.429,30.429,0,0,1,2.55,2.77,1.045,1.045,0,0,0,.51.4,2.714,2.714,0,0,0,1.73-1.66A14.425,14.425,0,0,0,1264.36,1138.1Zm3.39-2.56a3.218,3.218,0,0,0-1.73,1.52,0.808,0.808,0,0,0,.36.5c0.9,0.9,1.73,1.8,2.56,2.78a0.732,0.732,0,0,0,.5.39,2.808,2.808,0,0,0,1.73-1.66A14.705,14.705,0,0,0,1267.75,1135.54Zm-5.88,6.49c-0.57,0-2.55,1.19-2.55,1.84a1.171,1.171,0,0,0,.32.61,26.358,26.358,0,0,1,4.83,7.71,1.033,1.033,0,0,0,.83.83c0.72,0,2.99-1.34,2.99-2.16C1268.29,1149.96,1263.24,1142.03,1261.87,1142.03Z" transform="translate(-977.406 -1135.53)"/>
</svg>
