<svg xmlns="http://www.w3.org/2000/svg" width="375.346" height="32.75" viewBox="0 0 375.346 32.75">
  <defs>
    <style>
      .cls-1 {
        fill-rule: evenodd;
      }
    </style>
  </defs>
  <path id="創造する集団になること_" data-name="創造する集団になること。 " class="cls-1" d="M1002.56,1161.84c0,2.06,0,2.6-1.58,2.6-0.9,0-1.661-.15-1.985-0.15-0.721,0-.757.62-0.757,1.19,0,2.85.973,2.78,2.3,2.78,2.96,0,5.7-.51,5.7-4.07,0-.87-0.08-1.73-0.08-2.6v-22.23c0-1.44.04-1.76,0.44-2.02a0.684,0.684,0,0,0,.5-0.54c0-.5-0.65-0.54-1.66-0.61a5.469,5.469,0,0,1-.68-0.03,12.561,12.561,0,0,0-1.73-.11c-0.32,0-.61.03-0.61,0.43a1.123,1.123,0,0,0,.03.32,14.364,14.364,0,0,1,.11,2.27v22.77Zm-6.087-5.83c0,1.37-.072,2.7-0.072,4.07,0,0.94.36,0.97,1.693,0.97s1.657-.03,1.657-1.01c0-1.37-.072-2.7-0.072-4.03v-12.86c0-1.23.036-1.48,0.4-1.7a0.817,0.817,0,0,0,.54-0.54,0.535,0.535,0,0,0-.58-0.43c-0.5-.07-2.667-0.25-3.135-0.25a0.46,0.46,0,0,0-.576.43c0,0.07.036,0.18,0.036,0.29a17.908,17.908,0,0,1,.108,2.02v13.04Zm-11.206,8.36a1.039,1.039,0,0,1-1.008-1.01v-0.83a0.954,0.954,0,0,1,1.008-.97h4a0.955,0.955,0,0,1,1.009.97v0.83a1.041,1.041,0,0,1-1.009,1.01h-4Zm-2.378-13.26a0.681,0.681,0,0,1-.72-0.72v-0.22a0.686,0.686,0,0,1,.72-0.68h6.774a0.638,0.638,0,0,1,.685.68v0.22a0.654,0.654,0,0,1-.685.72h-6.774Zm0.253,3.82a0.83,0.83,0,0,1-.973-0.87,0.884,0.884,0,0,1,1.009-.83H989.7a0.575,0.575,0,0,1,.649.69v0.32a0.587,0.587,0,0,1-.685.69h-6.521Zm7.061,12.43c-0.036.79,0.325,0.75,1.694,0.75s1.873,0.04,1.873-.61c0-.14-0.072-1.19-0.072-1.84v-3.67c0-.51.036-0.97,0.036-1.37,0-.94-0.252-1.51-2.017-1.51-0.793,0-1.55.03-2.306,0.03H985.3c-0.756,0-1.513-.03-2.269-0.03h-0.577a0.635,0.635,0,0,1-.684-0.76v-0.14a0.867,0.867,0,0,1,.972-0.8h6.342c0.936,0,1.837.08,2.774,0.08s2.018-.04,2.018-1.27c0-.64-0.073-1.26-0.073-1.87v-3.89c0-.69.073-1.37,0.073-2.05,0-1.3-.973-1.41-2.054-1.41-0.9,0-1.838.07-2.738,0.07h-5.693c-1.009,0-1.982-.11-2.991-0.11-1.116,0-1.765.22-1.765,1.48,0,0.65.036,1.33,0.036,2.02v2.27c0,3.93-.685,8.18-2.846,11.53a2.547,2.547,0,0,0-.469.86c0,0.65,1.838,2.02,2.666,2.02a1.2,1.2,0,0,0,.973-0.83,24.809,24.809,0,0,0,1.514-3.1,0.248,0.248,0,0,1,.252-0.18c0.252,0,.252.33,0.252,0.51v2.12c0,0.54-.072,1.73-0.072,1.84,0,0.65.576,0.61,1.729,0.61,1.369,0,1.694,0,1.658-.75a0.507,0.507,0,0,1,.54-0.54h4.792A0.49,0.49,0,0,1,990.2,1167.36Zm-3.422-26.63c0.612,0.61,1.189,1.15,1.837,1.73a0.542,0.542,0,0,1,.144.33,0.369,0.369,0,0,1-.4.32h-3.6a4.777,4.777,0,0,1-.757,0,0.367,0.367,0,0,1-.4-0.32,0.538,0.538,0,0,1,.144-0.37c0.613-.54,1.189-1.11,1.766-1.69a0.871,0.871,0,0,1,.648-0.32A0.862,0.862,0,0,1,986.781,1140.73Zm-5.333,4.11a0.645,0.645,0,0,0,.757.76c0.865,0,1.729-.08,2.558-0.08h2.7c0.829,0,1.694.08,2.558,0.08,0.649,0,.721-0.26.757-0.83a0.356,0.356,0,0,1,.252-0.33,0.309,0.309,0,0,1,.18.07,8.34,8.34,0,0,0,2.342,1.3c0.865,0,2.162-1.84,2.162-2.59a0.973,0.973,0,0,0-.649-0.69,25.959,25.959,0,0,1-6.413-4.46,0.134,0.134,0,0,1-.036-0.15,0.163,0.163,0,0,1,.144-0.18,0.5,0.5,0,0,0,.505-0.43c0-.43-0.4-0.51-1.333-0.83a14.773,14.773,0,0,0-2.234-.68,1.028,1.028,0,0,0-.757.57,29.576,29.576,0,0,1-8.467,7.35,1.241,1.241,0,0,0-.828.79c0,0.73,1.225,2.38,1.981,2.38,0.613,0,2.883-1.76,3.459-2.23a0.751,0.751,0,0,0,.144-0.04A0.234,0.234,0,0,1,981.448,1144.84Zm38.222-2.13c0-.57-2.16-2.77-2.66-3.28s-2.92-3.02-3.46-3.02a3.653,3.653,0,0,0-2.24,1.94,1.025,1.025,0,0,0,.51.72,40.848,40.848,0,0,1,4.83,5.01,1.142,1.142,0,0,0,.75.54C1018.09,1144.62,1019.67,1143.33,1019.67,1142.71Zm-5.37,9.77a0.856,0.856,0,0,1,1.01.97v6.05a1.545,1.545,0,0,1-.75,1.52,28.254,28.254,0,0,1-3.35,2.01c-0.62.22-.91,0.4-0.91,0.76a7.216,7.216,0,0,0,.76,1.91c0.72,1.44.9,1.87,1.3,1.87a0.5,0.5,0,0,0,.5-0.43,0.934,0.934,0,0,1,.51-0.86c1.04-.76,1.98-1.55,2.99-2.35a0.819,0.819,0,0,1,.57-0.21,0.81,0.81,0,0,1,.65.43,5.108,5.108,0,0,0,2.78,2.27c1.98,0.76,5.22.94,10.7,0.94h9.47c1.52,0,2.16-.22,2.16-2.49,0-.61-0.07-1.01-0.72-1.01-0.25,0-2.19.07-2.66,0.11-2.31.07-4.65,0.11-6.96,0.11-5.98,0-9.11-.25-10.52-0.69-2.37-.75-2.91-2.16-2.91-4.5v-5.19c0-.97.07-1.98,0.07-2.95,0-1.41-.76-1.73-2.02-1.73-0.72,0-1.44.07-2.16,0.07h-1.23c-0.61,0-1.22-.07-1.8-0.07-0.83,0-.83.43-0.83,1.76,0,1.26,0,1.77.83,1.77,0.61,0,1.19-.07,1.8-0.07h0.72Zm13.08-12.58a0.669,0.669,0,0,1-.75-0.65,0.8,0.8,0,0,1,.03-0.28,1.183,1.183,0,0,1,.76-1.12,0.363,0.363,0,0,0,.29-0.33c0-.43-0.62-0.54-1.7-0.79a10.535,10.535,0,0,0-1.65-.39,0.492,0.492,0,0,0-.51.5,28.351,28.351,0,0,1-2.52,7.03,1.326,1.326,0,0,0-.22.64c0,0.73,2.24,1.27,2.6,1.27,0.54,0,.79-0.87,1.29-1.99a1.276,1.276,0,0,1,1.37-.86h2.13a0.872,0.872,0,0,1,1.01,1.01v1.4a0.872,0.872,0,0,1-1.01,1.01h-3.46c-1.3,0-2.59-.07-3.85-0.07-0.87,0-.87.4-0.87,1.55,0,1.19-.04,1.58.83,1.58,1.3,0,2.59-.07,3.89-0.07h13.01c1.26,0,2.56.07,3.85,0.07,0.9,0,.87-0.43.87-1.58,0-1.12.03-1.55-.87-1.55-1.29,0-2.59.07-3.85,0.07h-4a0.843,0.843,0,0,1-.97-1.01v-1.4a0.843,0.843,0,0,1,.97-1.01h1.08c1.37,0,2.7.07,4.07,0.07,0.79,0,.79-0.36.79-1.58s0-1.59-.79-1.59c-1.37,0-2.7.07-4.07,0.07h-1.08a0.829,0.829,0,0,1-.97-0.97c0-.97-0.04-1.55.39-1.91a0.717,0.717,0,0,0,.43-0.5c0-.44-0.54-0.47-0.82-0.51-0.62-.07-2.6-0.25-3.14-0.25a0.482,0.482,0,0,0-.61.47c0,0.11.03,0.29,0.03,0.39a15.832,15.832,0,0,1,.15,2.27,0.872,0.872,0,0,1-1.01,1.01h-1.12Zm0.22,18.2a1.034,1.034,0,0,1-1.01-1.01v-1.62a0.964,0.964,0,0,1,1.01-.98h7.24a0.964,0.964,0,0,1,1.01.98v1.62a1.034,1.034,0,0,1-1.01,1.01h-7.24Zm8.18,3.24c0.07,0.65.29,0.68,1.87,0.68,1.41,0,1.87,0,1.87-.79,0-.72-0.1-1.73-0.1-2.59v-3.57c0-.68.07-1.37,0.07-2.05,0-1.3-.87-1.52-1.98-1.52-0.9,0-1.8.08-2.71,0.08h-7.17c-0.9,0-1.8-.08-2.7-0.08-1.15,0-1.94.26-1.94,1.55,0,0.69.03,1.34,0.03,2.02v3.57c0,0.86-.07,1.73-0.07,2.59,0,0.79.4,0.79,1.84,0.79,1.4,0,1.76,0,1.87-.54a0.56,0.56,0,0,1,.58-0.57h8.1A0.417,0.417,0,0,1,1035.78,1161.34Zm21.86-9.44c1.48,0,1.81,2.05,1.81,3.17s-0.44,2.96-1.88,2.96-1.69-1.99-1.69-3.07S1056.24,1151.9,1057.64,1151.9Zm0.18-15.28a0.411,0.411,0,0,0-.46.44,0.892,0.892,0,0,0,.03.28,30.388,30.388,0,0,1,.36,4.47,1.058,1.058,0,0,1-.79,1.12c-0.33.07-8.79,0.54-9.76,0.58-1.77.07-2.09,0-2.09,0.72a22.772,22.772,0,0,0,.28,2.59c0.11,0.47.15,0.97,0.72,0.97a2.5,2.5,0,0,0,.54-0.07c1.73-.36,6.38-0.86,8.26-1.04,0.43-.04,2.09-0.22,2.37-0.22,0.4,0,.65.18,0.65,1.51a0.471,0.471,0,0,1-.43.44c-3.64.32-5.08,3.49-5.08,6.81,0,2.63,1.15,6.01,4.29,6.01a3.638,3.638,0,0,0,.83-0.18,0.892,0.892,0,0,1,.28-0.03,0.27,0.27,0,0,1,.26.25,1.437,1.437,0,0,1-.18.54,11.578,11.578,0,0,1-2.6,3.49,2.789,2.789,0,0,0-.83,1.01c0,0.65,2.92,1.55,3.35,1.55,1.59,0,5.44-6.45,5.44-12.25a11.081,11.081,0,0,0-1.11-5.04,3.035,3.035,0,0,1-.36-1.88v-1.26a1.167,1.167,0,0,1,.68-1.19c0.4-.1,3.75-0.14,4.4-0.14,2.01,0,4.72.18,5.22,0.18,0.36,0,.79.04,0.79-2.16,0-1.62-.25-1.84-0.82-1.84-1.55,0-5.41.22-7.17,0.29-0.4,0-1.81.11-2.09,0.11a0.953,0.953,0,0,1-1.05-1.05c0-.75,0-1.55.04-2.3a1.638,1.638,0,0,1,.57-1.52,0.538,0.538,0,0,0,.22-0.39c0-.33-1.08-0.44-1.95-0.51S1058.65,1136.62,1057.82,1136.62Zm34.41,25.3a1.079,1.079,0,0,1-.97,1.22c-1.08,0-2.81-.61-2.81-1.91a1.488,1.488,0,0,1,1.54-1.44A2.2,2.2,0,0,1,1092.23,1161.92Zm3.35-23.35a4.74,4.74,0,0,0-1.37.4,33.737,33.737,0,0,1-9.12,1.33h-0.86c-1.08,0-1.12.07-1.12,0.9,0,0.61.11,3.31,0.9,3.31,0.58,0,5.66-1.04,6.53-1.26,0.21-.03.68-0.14,0.86-0.14a0.513,0.513,0,0,1,.61.43,3.215,3.215,0,0,1-.93,1.3,144.172,144.172,0,0,1-11.21,11.31,1.819,1.819,0,0,0-.86,1.08c0,0.58,1.83,2.6,2.59,2.6a0.493,0.493,0,0,0,.4-0.26c1.29-1.47,2.59-2.95,4-4.32a10.923,10.923,0,0,1,8.07-3.53c3.13,0,6.09,1.44,6.09,4.94a5.864,5.864,0,0,1-4.36,5.55,0.457,0.457,0,0,1-.44-0.47,3.537,3.537,0,0,0-.65-2.31,5.852,5.852,0,0,0-4.79-2.56,4.53,4.53,0,0,0-4.61,4.36c0,3.68,4.25,4.9,7.24,4.9,5.8,0,11.46-3.31,11.46-9.69a7.453,7.453,0,0,0-4.29-6.99,10.515,10.515,0,0,0-4.43-1.08,7.418,7.418,0,0,0-1.48.14,1.851,1.851,0,0,1-.46.08,0.547,0.547,0,0,1-.62-0.47,1.067,1.067,0,0,1,.36-0.61,34.645,34.645,0,0,1,5.23-4.83,1.634,1.634,0,0,0,.79-0.76C1099.11,1141.31,1097.02,1138.57,1095.58,1138.57Zm26.66,12.25a0.806,0.806,0,0,1,.83.86v0.08a0.806,0.806,0,0,1-.83.86h-4.33a0.808,0.808,0,0,1-.86-0.86v-0.08a0.808,0.808,0,0,1,.86-0.86h4.33Zm0.14-4.14a0.628,0.628,0,0,1,.69.68v0.4a0.628,0.628,0,0,1-.69.68h-4.65a0.621,0.621,0,0,1-.68-0.68v-0.4a0.621,0.621,0,0,1,.68-0.68h4.65Zm-0.14-4.18a0.806,0.806,0,0,1,.83.86v0.11a0.806,0.806,0,0,1-.83.86h-4.33a0.808,0.808,0,0,1-.86-0.86v-0.11a0.808,0.808,0,0,1,.86-0.86h4.33Zm4.43,0.86a0.724,0.724,0,0,1,.83-0.86h5.01c1.37,0,2.7.07,4.07,0.07,0.83,0,.86-0.25.86-1.26,0-1.05-.03-1.3-0.86-1.3-1.37,0-2.7.07-4.07,0.07h-4.33a0.5,0.5,0,0,1-.57-0.5,0.566,0.566,0,0,1,.07-0.33c0.18-.28.61-1.15,0.75-1.36a0.852,0.852,0,0,1,.69-0.33,0.4,0.4,0,0,0,.43-0.4,1.051,1.051,0,0,0-.9-0.61,22.672,22.672,0,0,0-3.03-.86,0.464,0.464,0,0,0-.43.36,29.962,29.962,0,0,1-1.37,3.24,1.35,1.35,0,0,1-1.44.79h-3.56a0.505,0.505,0,0,1-.58-0.47,0.57,0.57,0,0,1,.11-0.36c0.25-.39.43-0.72,0.57-0.97a1.41,1.41,0,0,1,1.01-.97,0.5,0.5,0,0,0,.47-0.43c0-.33-0.36-0.44-1.12-0.65a18.554,18.554,0,0,0-2.63-.65,0.619,0.619,0,0,0-.5.47,31.577,31.577,0,0,1-6.56,8.97,1.433,1.433,0,0,0-.57.76,3.736,3.736,0,0,0,1.94,2.16c0.51,0,1.55-1.19,1.91-1.59a0.548,0.548,0,0,1,.32-0.14,0.352,0.352,0,0,1,.33.43v4.54c0,0.83-.04,1.66-0.04,2.49,0,1.29.76,1.44,1.88,1.44,0.93,0,1.87-.04,2.77-0.04h3.86a0.8,0.8,0,0,1,.86.87c0,0.14.04,0.25,0.04,0.39a0.8,0.8,0,0,1-.94.94h-7.89c-1.41,0-2.85-.07-4.29-0.07-0.83,0-.83.32-0.83,1.51s0,1.51.83,1.51c1.44,0,2.88-.07,4.29-0.07h4.54a0.355,0.355,0,0,1,.36.29,0.322,0.322,0,0,1-.18.29,37.532,37.532,0,0,1-8.79,4,1.484,1.484,0,0,1-.29.07c-0.5.18-.83,0.25-0.83,0.68,0,0.58,1.08,2.35,1.87,2.35a7.246,7.246,0,0,0,2.06-.58,35.4,35.4,0,0,0,9.4-5.37,0.638,0.638,0,0,1,.36-0.11,0.458,0.458,0,0,1,.4.51v1.73c0,1.04-.07,2.09-0.07,3.1,0,1.18.54,1.15,1.94,1.15,1.37,0,1.88,0,1.88-1.15,0-1.05-.11-2.06-0.11-3.1v-1.8a0.451,0.451,0,0,1,.39-0.51,0.55,0.55,0,0,1,.33.14,34.977,34.977,0,0,0,6.09,4.04c0.9,0.5,4.21,2.13,5.04,2.13,0.94,0,2.09-1.88,2.09-2.45a0.577,0.577,0,0,0-.54-0.51,37.106,37.106,0,0,1-9.37-4.32,0.3,0.3,0,0,1-.18-0.29,0.355,0.355,0,0,1,.36-0.29h4.76c1.44,0,2.88.07,4.29,0.07,0.86,0,.86-0.32.86-1.51,0-1.15,0-1.51-.86-1.51-1.41,0-2.85.07-4.29,0.07h-8.18a0.566,0.566,0,0,1-.68-0.51,0.741,0.741,0,0,1,.36-0.61,0.778,0.778,0,0,0,.5-0.5c0-.29-0.25-0.43-0.94-0.47a0.085,0.085,0,0,1-.07-0.07c0-.04.04-0.04,0.07-0.04h7.64c1.41,0,2.78.04,4.15,0.04,0.79,0,.82-0.25.82-1.26,0-1.05-.03-1.3-0.86-1.3-1.37,0-2.74.07-4.11,0.07h-6.77a0.724,0.724,0,0,1-.83-0.86v-0.08a0.724,0.724,0,0,1,.83-0.86h3.46c1.33,0,2.63.07,3.96,0.07,0.86,0,.86-0.29.86-1.26,0-1.01-.03-1.26-0.86-1.26-1.33,0-2.63.07-3.96,0.07h-3.64a0.559,0.559,0,0,1-.65-0.68v-0.4a0.569,0.569,0,0,1,.68-0.68h3.64c1.3,0,2.6.07,3.93,0.07,0.83,0,.86-0.22.86-1.26,0-1.01-.03-1.23-0.86-1.23-1.33,0-2.63.07-3.93,0.07h-3.49a0.724,0.724,0,0,1-.83-0.86v-0.11Zm43.23,18.05a1.007,1.007,0,0,1-1.01,1.01h-19.31a0.955,0.955,0,0,1-.97-1.01v-19.53a0.889,0.889,0,0,1,.97-0.97h19.31a0.974,0.974,0,0,1,1.01.97v19.53Zm-0.94,4.36a0.757,0.757,0,0,1,.87.83c0,0.07-.04.18-0.04,0.25,0,1.05.44,1.01,1.98,1.01,1.52,0,1.99.04,1.99-1.01,0-1.51-.11-2.99-0.11-4.5v-19.67c0-1.12.07-2.24,0.07-3.35,0-1.55-.79-1.84-2.16-1.84-1.15,0-2.34.07-3.5,0.07h-17.61c-1.16,0-2.35-.07-3.54-0.07-1.36,0-2.12.32-2.12,1.84,0,1.11.07,2.23,0.07,3.35v19.6c0,1.51-.11,3.02-0.11,4.54,0,1.01.44,1.01,1.98,1.01,1.52,0,1.95,0,1.95-1.01v-0.22a0.714,0.714,0,0,1,.83-0.83h19.45Zm-10.84-10.16a21.185,21.185,0,0,0-1.87-3.46c-0.29-.47-1.41-2.41-1.95-2.41-0.43,0-2.23,1.01-2.23,1.58a1.675,1.675,0,0,0,.32.69,34.477,34.477,0,0,1,2.6,4.39,0.957,0.957,0,0,0,.79.72C1156.28,1157.12,1158.12,1156.26,1158.12,1155.61Zm6.45-5.55a0.833,0.833,0,0,1,.94-0.97c0.54,0,1.94.07,2.34,0.07,0.86,0,.83-0.54.83-1.58,0-1.08.03-1.55-.83-1.55-0.54,0-1.7.03-2.31,0.07a0.839,0.839,0,0,1-.97-0.9c-0.04-1.15-.04-1.69.4-1.98a0.711,0.711,0,0,0,.43-0.51c0-.43-0.58-0.47-0.87-0.5-0.79-.07-2.09-0.22-2.84-0.22-0.33,0-.62.07-0.62,0.47,0,0.11.04,0.22,0.04,0.36a17.256,17.256,0,0,1,.11,2.27,0.846,0.846,0,0,1-.97,1.01h-6.13c-1.12,0-2.23-.07-3.39-0.07-0.86,0-.86.43-0.86,1.55,0,1.04-.04,1.58.83,1.58,1.15,0,2.3-.07,3.42-0.07h6.13a0.833,0.833,0,0,1,.97.97v5.88c0,1.76.07,2.19-1.66,2.19-0.36,0-.72,0-1.04-0.03a3.231,3.231,0,0,0-.62-0.04,0.621,0.621,0,0,0-.68.72,5.674,5.674,0,0,0,.36,1.91,1.593,1.593,0,0,0,1.69.65c2.24,0,5.37-.11,5.37-3.1,0-.83-0.07-1.62-0.07-2.45v-5.73Zm25.68,7.25c-0.68,0-1.94,2.55-1.94,3.06,0,0.57,2.41,3.6,8.25,3.6,1.44,0,7.53-.54,8.54-1.08a1.39,1.39,0,0,0,.43-1.33c0-1.84-.07-2.71-0.65-2.71a2.63,2.63,0,0,0-.75.15,29.58,29.58,0,0,1-7.93,1.15,6.182,6.182,0,0,1-5.48-2.52A0.64,0.64,0,0,0,1190.25,1157.31Zm0.83-15.61c-0.57,0-.75.54-0.75,2.27a1.741,1.741,0,0,0,.36,1.41c0.75,0.5,5.19.72,6.3,0.72a43.325,43.325,0,0,0,6.06-.5c0.68-.15.68-0.44,0.68-1.19a18.26,18.26,0,0,0-.14-1.95,0.812,0.812,0,0,0-.72-0.86,4.035,4.035,0,0,0-.65.1,23.217,23.217,0,0,1-5.48.72,22.773,22.773,0,0,1-4.72-.54A4.845,4.845,0,0,0,1191.08,1141.7Zm-8.64-2.81a0.761,0.761,0,0,0-.54.8,17.045,17.045,0,0,1-.47,1.8,42.96,42.96,0,0,0-1.84,11.92,24.694,24.694,0,0,0,2.2,11.06c0.47,0.98.9,1.77,1.51,1.77,0.76,0,2.81-.86,2.81-1.77a2.858,2.858,0,0,0-.07-0.54c-0.04-.32-0.14-1.15-0.14-1.51,0-1.62,1.44-4.9,1.44-5.22a1.981,1.981,0,0,0-1.3-1.16,1.175,1.175,0,0,0-.76.87,2.787,2.787,0,0,1-.97,1.4c-0.83,0-.97-4.36-0.97-5.04a28.572,28.572,0,0,1,2.01-10.23,2.316,2.316,0,0,1,1.12-1.55c0.36-.22.51-0.25,0.51-0.47a0.867,0.867,0,0,0-.72-0.61C1185.75,1140.19,1182.72,1138.89,1182.44,1138.89Zm43.01,21.77c1.8,0,1.84.39,1.84,1.11a1.687,1.687,0,0,1-1.87,1.95c-0.94,0-2.38-.58-2.38-1.7C1223.04,1160.87,1224.59,1160.66,1225.45,1160.66Zm1.77-12.72a0.729,0.729,0,0,0-.87.79c0,0.18.04,0.32,0.04,0.5,0.11,1.41.65,6.63,0.65,7.79a0.636,0.636,0,0,1-.76.61h-0.94c-2.84,0-5.98,1.15-5.98,4.47,0,3.35,3.43,4.9,6.34,4.9,2.45,0,4.58-.9,5.01-3.53a0.8,0.8,0,0,1,.58-0.83c0.58,0,2.34,1.26,2.88,1.65a1.849,1.849,0,0,0,.94.51c0.9,0,2.23-2.05,2.23-2.63,0-.87-4.25-2.85-5.08-3.17-0.11-.04-0.25-0.11-0.36-0.15a1.4,1.4,0,0,1-1.12-.9c-0.18-.75-0.36-5.94-0.36-6.99,0-.75.08-1.83,0.08-1.91a0.81,0.81,0,0,0-.72-0.75A14.616,14.616,0,0,0,1227.22,1147.94Zm5.51-5.55c-0.76,0-2.41,1.98-2.41,2.48a0.938,0.938,0,0,0,.46.58,20.508,20.508,0,0,1,4.51,4.65,1.192,1.192,0,0,0,.79.65c0.65,0,2.7-1.62,2.7-2.49C1238.78,1147.32,1233.63,1142.39,1232.73,1142.39Zm-12.11-5.87c-0.32,0-.32.36-0.32,0.61,0,1.15-.61,5.15-1.15,6.05a1.238,1.238,0,0,1-1.08.58,33.028,33.028,0,0,1-3.71.18h-1.66a0.523,0.523,0,0,0-.65.57c0,0.36.18,1.66,0.25,2.09,0.15,0.83.29,1.16,0.9,1.16,0.83,0,3.61-.36,3.89-0.36a0.485,0.485,0,0,1,.51.47,14.121,14.121,0,0,1-.83,2.19,66.892,66.892,0,0,1-4.29,8.33,3.923,3.923,0,0,0-.65,1.29c0,0.76,2.42,1.8,3.21,1.8a0.716,0.716,0,0,0,.72-0.5,91.238,91.238,0,0,0,5.87-12.83c0.44-1.19.4-1.44,1.7-1.65,3.31-.62,3.74-0.69,3.74-1.48a15.239,15.239,0,0,0-.18-1.91c-0.07-.43-0.1-1.08-0.54-1.08a1.149,1.149,0,0,0-.36.07,16.916,16.916,0,0,1-2.05.54,0.426,0.426,0,0,1-.4-0.47,11.514,11.514,0,0,1,.4-1.62,6.332,6.332,0,0,1,.65-1.91,1.026,1.026,0,0,0,.57-0.65,0.721,0.721,0,0,0-.57-0.43C1224.01,1137.38,1221.02,1136.52,1220.62,1136.52Zm36.97,25.4a1.08,1.08,0,0,1-.98,1.22c-1.08,0-2.81-.61-2.81-1.91a1.5,1.5,0,0,1,1.55-1.44A2.209,2.209,0,0,1,1257.59,1161.92Zm3.35-23.35a4.74,4.74,0,0,0-1.37.4,33.737,33.737,0,0,1-9.12,1.33h-0.86c-1.08,0-1.12.07-1.12,0.9,0,0.61.11,3.31,0.9,3.31,0.58,0,5.66-1.04,6.52-1.26,0.22-.03.69-0.14,0.87-0.14a0.513,0.513,0,0,1,.61.43,3.151,3.151,0,0,1-.94,1.3,142.328,142.328,0,0,1-11.2,11.31,1.8,1.8,0,0,0-.87,1.08c0,0.58,1.84,2.6,2.6,2.6a0.464,0.464,0,0,0,.39-0.26c1.3-1.47,2.6-2.95,4-4.32a10.956,10.956,0,0,1,8.07-3.53c3.14,0,6.09,1.44,6.09,4.94a5.854,5.854,0,0,1-4.36,5.55,0.456,0.456,0,0,1-.43-0.47,3.6,3.6,0,0,0-.65-2.31,5.88,5.88,0,0,0-4.79-2.56,4.53,4.53,0,0,0-4.61,4.36c0,3.68,4.25,4.9,7.24,4.9,5.8,0,11.46-3.31,11.46-9.69a7.453,7.453,0,0,0-4.29-6.99,10.552,10.552,0,0,0-4.43-1.08,7.418,7.418,0,0,0-1.48.14,1.851,1.851,0,0,1-.47.08,0.543,0.543,0,0,1-.61-0.47,1.067,1.067,0,0,1,.36-0.61,34.645,34.645,0,0,1,5.23-4.83,1.634,1.634,0,0,0,.79-0.76C1264.47,1141.31,1262.38,1138.57,1260.94,1138.57Zm17.65,18.09a8.4,8.4,0,0,0,1.4,3.49c2.35,3.28,6.38,3.75,10.13,3.75,2.16,0,8.9-.43,10.81-1.01a1.173,1.173,0,0,0,.86-1.33c0-2.35-.25-2.96-0.79-2.96a2.59,2.59,0,0,0-.54.11,45.122,45.122,0,0,1-10.74,1.26c-3.38,0-6.45-.54-7.2-4.36a0.655,0.655,0,0,0-.65-0.68C1281.83,1154.93,1278.59,1155.76,1278.59,1156.66Zm3.6-12.43a0.741,0.741,0,0,0,.51.75c1.76,0.72,6.23.9,8.21,0.9a48.793,48.793,0,0,0,6.52-.43c0.83-.14,1.01-0.21,1.01-1.08,0-1.48-.03-3.1-0.94-3.1a2.023,2.023,0,0,0-.46.07,30.668,30.668,0,0,1-6.53.72,23.169,23.169,0,0,1-6.12-.75,5.612,5.612,0,0,0-1.05-.22c-0.68,0-.75.65-0.86,1.26A12.307,12.307,0,0,0,1282.19,1144.23Zm33.87-5.37a2.229,2.229,0,0,0,.1.43,23.613,23.613,0,0,1,.69,2.38c0.36,1.48,1.37,5.29,1.8,6.59a1.225,1.225,0,0,1,.14.65,1.134,1.134,0,0,1-.61.94c-2.99,1.94-6.23,4.5-6.23,8.43a6.361,6.361,0,0,0,3.31,5.55c2.38,1.4,4.72,1.55,7.39,1.55a86.362,86.362,0,0,0,9.91-.58c0.72-.18.75-0.58,0.75-1.51v-0.44c0-.75-0.03-2.23-0.54-2.23a0.908,0.908,0,0,0-.32.04,54.452,54.452,0,0,1-9.4.93,14.465,14.465,0,0,1-4.8-.65c-1.11-.39-2.37-1.29-2.37-2.59a4.511,4.511,0,0,1,1.76-3.24,36.325,36.325,0,0,1,6.49-4.25,65.777,65.777,0,0,1,8.9-4.15,0.775,0.775,0,0,0,.68-0.57,7.35,7.35,0,0,0-1.04-2.2c-0.22-.36-0.83-1.44-1.3-1.44a2.216,2.216,0,0,0-.94.36c-0.93.61-6.7,4-7.35,4a1.04,1.04,0,0,1-.83-1.08,49.139,49.139,0,0,1-1.11-6.45c-0.08-.83,0-1.37-1.01-1.37a13.682,13.682,0,0,0-1.73.18C1317.25,1138.32,1316.06,1138.32,1316.06,1138.86Zm29.61,19.92a3.176,3.176,0,0,1,3.21,3.21A3.21,3.21,0,1,1,1345.67,1158.78Zm0-1.8a4.993,4.993,0,0,0-5.01,5.01A5.01,5.01,0,1,0,1345.67,1156.98Z" transform="translate(-975.344 -1135.59)"/>
</svg>
