<svg xmlns="http://www.w3.org/2000/svg" width="329.344" height="35.65" viewBox="0 0 329.344 35.65">
  <defs>
    <style>
      .cls-1 {
        fill-rule: evenodd;
      }
    </style>
  </defs>
  <path id="を_OOKINAWAで" data-name="を#OOKINAWAで" class="cls-1" d="M205.689,5327.16c-0.42,0-.5.42-0.588,0.88a23.131,23.131,0,0,1-2.268,5.42c-0.378.5-1.512,0.54-2.6,0.54h-1.218c-1.218,0-2.31-.08-3.024-0.08-1.05,0-1.218.25-1.218,1.93,0,2.14.168,2.35,1.092,2.35,1.3,0,2.268-.12,2.94-0.12,0.588,0,.924.12,0.924,0.5,0,0.8-6.09,9.24-7.056,10.29a1.763,1.763,0,0,0-.546.92c0,0.76,2.814,2.44,3.57,2.44a0.7,0.7,0,0,0,.588-0.42,27.721,27.721,0,0,1,3.528-4.92c1.638-1.68,5.5-3.69,7.854-3.69a1.744,1.744,0,0,1,1.848,1.43,5.712,5.712,0,0,1,.21,1.17,1.074,1.074,0,0,1-.756.97c-0.882.42-1.764,0.88-2.6,1.38-2.9,1.73-5.964,3.78-5.964,7.56a6.377,6.377,0,0,0,4.2,6.01,15.5,15.5,0,0,0,6.635,1.09,56.874,56.874,0,0,0,8.064-.54c0.924-.21.966-0.55,0.966-1.81,0-2.39-.294-2.86-0.84-2.86a5.379,5.379,0,0,0-.84.09,30.8,30.8,0,0,1-7.812,1.05c-2.015,0-6.089-.25-6.089-3.07,0-2.6,4.326-4.45,4.536-4.45a0.583,0.583,0,0,1,.546.71c0,0.89-.084,1.81-0.084,2.73,0,1.1.755,1.18,2.561,1.18,1.6,0,1.806-.17,1.806-1.68,0-1.3-.042-2.56-0.042-3.86v-0.55a1.3,1.3,0,0,1,1.092-1.39c1.638-.71,3.276-1.42,4.956-2.05,0.21-.09.42-0.13,0.588-0.21,0.8-.26,1.26-0.42,1.26-0.93,0-.71-1.008-3.94-1.806-3.94a3.37,3.37,0,0,0-1.092.42,38.37,38.37,0,0,1-4.914,2.39,0.7,0.7,0,0,1-.63-0.72c-0.546-2.64-2.1-3.77-4.787-3.77a11.618,11.618,0,0,0-4.578,1.09,1.686,1.686,0,0,1-.756.25,0.327,0.327,0,0,1-.336-0.29,13.517,13.517,0,0,1,1.428-2.44,1.479,1.479,0,0,1,1.26-.67c2.646-.3,5.291-0.76,7.937-1.3,0.882-.17,2.226-0.34,2.226-1.05a13.325,13.325,0,0,0-.336-2.27,1.236,1.236,0,0,0-1.05-1.26,3.093,3.093,0,0,0-1.05.25,30.831,30.831,0,0,1-4.871,1.18,0.41,0.41,0,0,1-.462-0.42,2.774,2.774,0,0,1,.42-0.97,2.293,2.293,0,0,1,1.386-1.43,0.676,0.676,0,0,0,.5-0.5C210.392,5329.09,206.067,5327.16,205.689,5327.16Zm50.191,15.91v-3.95H252.6l1.3-8.23h-4.452l-1.3,8.23H242.44l1.3-8.23h-4.494l-1.3,8.23h-3.99v3.95h3.4l-0.84,5.21H232.57v3.95h3.318l-1.386,8.73H239l1.344-8.73h5.754l-1.386,8.73h4.452l1.386-8.73h3.948v-3.95h-3.318l0.84-5.21h3.864Zm-8.358,0-0.8,5.21H240.97l0.84-5.21h5.712Zm36.414-.94a21.387,21.387,0,0,0-.295-3.17,10.035,10.035,0,0,0-.842-2.65,8.572,8.572,0,0,0-1.683-2.31,10.666,10.666,0,0,0-3.535-2.37,11.263,11.263,0,0,0-4.376-.82,11.106,11.106,0,0,0-4.356.82,10.726,10.726,0,0,0-3.514,2.37,8.572,8.572,0,0,0-1.683,2.31,10.561,10.561,0,0,0-.863,2.65,19.322,19.322,0,0,0-.315,3.17c-0.029,1.16-.042,2.45-0.042,3.88s0.013,2.73.042,3.89a19.322,19.322,0,0,0,.315,3.17,10.62,10.62,0,0,0,.863,2.64,8.274,8.274,0,0,0,1.683,2.31,10.913,10.913,0,0,0,3.514,2.38,11.288,11.288,0,0,0,4.356.82,11.449,11.449,0,0,0,4.376-.82,10.85,10.85,0,0,0,3.535-2.38,8.274,8.274,0,0,0,1.683-2.31,10.082,10.082,0,0,0,.842-2.64,21.387,21.387,0,0,0,.295-3.17c0.027-1.16.042-2.46,0.042-3.89S283.963,5343.29,283.936,5342.13Zm-4.6,7.64a18.566,18.566,0,0,1-.251,2.52,6.154,6.154,0,0,1-.545,1.72,5.721,5.721,0,0,1-.9,1.28,5.976,5.976,0,0,1-1.946,1.35,6.453,6.453,0,0,1-4.981,0,5.966,5.966,0,0,1-1.946-1.35,5.758,5.758,0,0,1-.9-1.28,6.188,6.188,0,0,1-.544-1.72,18.406,18.406,0,0,1-.251-2.52c-0.042-.99-0.062-2.25-0.062-3.76s0.02-2.76.062-3.76a18.747,18.747,0,0,1,.251-2.52,6.3,6.3,0,0,1,.544-1.72,5.574,5.574,0,0,1,2.847-2.62,6.336,6.336,0,0,1,4.981,0,5.8,5.8,0,0,1,1.946,1.34,5.721,5.721,0,0,1,.9,1.28,6.264,6.264,0,0,1,.545,1.72,18.913,18.913,0,0,1,.251,2.52c0.042,1,.063,2.25.063,3.76S279.379,5348.78,279.337,5349.77Zm32.57-7.64a21.26,21.26,0,0,0-.294-3.17,10.035,10.035,0,0,0-.842-2.65,8.594,8.594,0,0,0-1.683-2.31,10.676,10.676,0,0,0-3.535-2.37,11.265,11.265,0,0,0-4.377-.82,11.1,11.1,0,0,0-4.355.82,10.726,10.726,0,0,0-3.514,2.37,8.6,8.6,0,0,0-1.684,2.31,10.56,10.56,0,0,0-.862,2.65,19.426,19.426,0,0,0-.316,3.17c-0.028,1.16-.042,2.45-0.042,3.88s0.014,2.73.042,3.89a19.426,19.426,0,0,0,.316,3.17,10.618,10.618,0,0,0,.862,2.64,8.3,8.3,0,0,0,1.684,2.31,10.913,10.913,0,0,0,3.514,2.38,11.283,11.283,0,0,0,4.355.82,11.451,11.451,0,0,0,4.377-.82,10.86,10.86,0,0,0,3.535-2.38,8.294,8.294,0,0,0,1.683-2.31,10.082,10.082,0,0,0,.842-2.64,21.26,21.26,0,0,0,.294-3.17c0.028-1.16.042-2.46,0.042-3.89S311.935,5343.29,311.907,5342.13Zm-4.6,7.64a18.584,18.584,0,0,1-.25,2.52,6.154,6.154,0,0,1-.545,1.72,5.753,5.753,0,0,1-.9,1.28,5.976,5.976,0,0,1-1.946,1.35,6.453,6.453,0,0,1-4.981,0,5.966,5.966,0,0,1-1.946-1.35,5.758,5.758,0,0,1-.9-1.28,6.155,6.155,0,0,1-.544-1.72,18.406,18.406,0,0,1-.251-2.52c-0.042-.99-0.063-2.25-0.063-3.76s0.021-2.76.063-3.76a18.747,18.747,0,0,1,.251-2.52,6.265,6.265,0,0,1,.544-1.72,5.574,5.574,0,0,1,2.847-2.62,6.336,6.336,0,0,1,4.981,0,5.565,5.565,0,0,1,2.846,2.62,6.264,6.264,0,0,1,.545,1.72,18.931,18.931,0,0,1,.25,2.52c0.042,1,.063,2.25.063,3.76S307.35,5348.78,307.308,5349.77Zm35.511,11.19-10.71-18.18,9.7-11.72h-5.544l-12.222,15.04v-15.04h-4.578v29.9h4.578v-8.69l5.04-6.05,8.4,14.74h5.334Zm9.7,0v-29.9h-4.578v29.9h4.578Zm31.163,0v-29.9h-4.578v21l-13.818-21H361.13v29.9h4.578v-21.04l13.818,21.04h4.158Zm30.618,0-10.962-29.9h-3.654l-10.962,29.9h4.83l2.058-6h11.8l2.058,6h4.83Zm-8.148-9.87h-9.2l4.662-13.27Zm45.444-20.03H446.81l-5.208,21.38-6.006-21.38h-3.654l-6.006,21.38-5.208-21.38H415.94l7.812,29.9H427.7l6.048-20.95,6.09,20.95h3.948Zm27.215,29.9-10.962-29.9H464.2l-10.962,29.9h4.83l2.058-6h11.8l2.058,6h4.83Zm-8.148-9.87h-9.2l4.662-13.27Zm15.414-15.41a18.885,18.885,0,0,0,.462,3.03c0.126,0.46.336,1.38,0.924,1.38a3.4,3.4,0,0,0,.63-0.08,93.467,93.467,0,0,1,9.281-1.72c0.42-.05,2.352-0.38,2.646-0.38a0.539,0.539,0,0,1,.63.5,2.251,2.251,0,0,1-.714,1.01,18.652,18.652,0,0,0-4.62,12.05c0,8.19,6.132,10.46,13.272,10.46a1.163,1.163,0,0,0,1.344-.71,11.951,11.951,0,0,0,.63-3.45c0-.67-0.336-0.71-0.966-0.71-0.462,0-1.386.04-2.1,0.04-4.284,0-7.392-1.18-7.392-6.05a15.736,15.736,0,0,1,2.016-7.39,12.8,12.8,0,0,1,7.14-6.26,20.749,20.749,0,0,1,6.971-.88c1.008-.04,1.89.04,1.89-0.88a19.3,19.3,0,0,0-.378-3.07c-0.084-.5-0.168-1.05-0.8-1.05a2.022,2.022,0,0,0-.546.05c-3.149.5-6.341,0.92-9.533,1.3-6.09.71-12.221,1.34-18.353,1.72C486.667,5334.72,486.079,5334.59,486.079,5335.68Zm31.75,2.44c-0.5,0-2.142,1.09-2.142,1.59a1.021,1.021,0,0,0,.294.55,35.95,35.95,0,0,1,2.73,3.48,1.011,1.011,0,0,0,.63.55c0.5,0,2.142-1.18,2.142-1.76C521.483,5342.02,518.249,5338.12,517.829,5338.12Zm-5.081,2.31c-0.462,0-2.142,1.05-2.142,1.55a1.125,1.125,0,0,0,.378.59c0.924,1.13,1.848,2.31,2.688,3.53a0.866,0.866,0,0,0,.588.5c0.461,0,2.141-1.13,2.141-1.76C516.4,5344.33,513.21,5340.43,512.748,5340.43Z" transform="translate(-192.125 -5327.16)"/>
</svg>
