<svg xmlns="http://www.w3.org/2000/svg" width="520.034" height="33" viewBox="0 0 520.034 33">
  <defs>
    <style>
      .cls-1 {
        fill-rule: evenodd;
      }
    </style>
  </defs>
  <path id="沖縄をプロデュースする人が生まれ" class="cls-1" d="M982.6,1153.23a0.892,0.892,0,0,0-.684.8,51.359,51.359,0,0,1-5.693,9.94,2.791,2.791,0,0,0-.576.9c0,0.43,1.657,1.66,2.053,1.98a3.646,3.646,0,0,0,1.189.8,0.5,0.5,0,0,0,.469-0.54c0-.29-0.108-0.47-0.108-0.65a3.593,3.593,0,0,1,.468-0.9c0.793-1.3,5.476-9.34,5.476-10.24C985.2,1154.53,983.25,1153.23,982.6,1153.23Zm-4.792-9c-0.576,0-2.053,1.87-2.053,2.37a1.308,1.308,0,0,0,.72.8,42.854,42.854,0,0,1,4.252,3.13,1.091,1.091,0,0,0,.648.33c0.721,0,2.126-1.84,2.126-2.31,0-.54-1.585-1.62-2.054-1.98A20.942,20.942,0,0,0,977.809,1144.23Zm7.494-3.71c0-.51-1.909-1.77-2.377-2.09a15,15,0,0,0-3.063-1.88c-0.685,0-2.054,1.84-2.054,2.38a1.137,1.137,0,0,0,.649.76,42.719,42.719,0,0,1,4,2.77,1.262,1.262,0,0,0,.721.43C983.754,1142.89,985.3,1141.09,985.3,1140.52Zm13.944,12.64a1.025,1.025,0,0,1-1.009-1.01v-5.08a1.012,1.012,0,0,1,1.009-1.01h2.773a1.014,1.014,0,0,1,1.01,1.01v5.08a1.027,1.027,0,0,1-1.01,1.01h-2.773Zm-4.612-1.01a1.025,1.025,0,0,1-1.009,1.01H990.96a0.96,0.96,0,0,1-1.009-1.01v-5.08a0.99,0.99,0,0,1,1.009-1.01h2.666a1.012,1.012,0,0,1,1.009,1.01v5.08Zm-1.009,4.29a0.858,0.858,0,0,1,1.009,1.01v4.14c0,1.84-.108,3.71-0.108,5.55,0,1.05.4,1.12,1.874,1.12,1.585,0,1.945-.04,1.945-1.12,0-1.84-.108-3.71-0.108-5.55v-4.14a0.858,0.858,0,0,1,1.009-1.01h3.023a0.575,0.575,0,0,1,.69.65c0.03,1.08.29,1.12,1.84,1.12,1.4,0,1.87,0,1.87-1.05,0-1.01-.07-2.02-0.07-2.99v-7.1c0-.93.03-1.83,0.03-2.77,0-1.33-.65-1.69-1.87-1.69-1.01,0-2.02.03-3.03,0.03h-2.483a0.845,0.845,0,0,1-1.009-.97v-2.24c0-1.29.036-2.01,0.4-2.3a0.765,0.765,0,0,0,.433-0.54c0-.47-0.577-0.47-0.9-0.51-0.757-.03-2.378-0.18-3.062-0.18a0.487,0.487,0,0,0-.613.47c0,0.11.036,0.25,0.036,0.36a15.22,15.22,0,0,1,.108,2.6v2.34a0.845,0.845,0,0,1-1.009.97h-2.378c-1.045,0-2.053-.03-3.062-0.03-1.225,0-1.874.36-1.874,1.69,0,0.94.072,1.84,0.072,2.77v7.1c0,0.97-.072,1.98-0.072,2.99,0,1.05.469,1.05,1.838,1.05,1.585,0,1.837-.04,1.873-1.12a0.56,0.56,0,0,1,.649-0.65h2.954Zm31.634,6.52a21.177,21.177,0,0,0-.83-3.24c-0.83-2.45-1.08-3.17-1.62-3.17-0.44,0-1.91.43-1.91,0.97a2.424,2.424,0,0,0,.14.51,36.507,36.507,0,0,1,1.51,5.11c0.11,0.51.18,0.87,0.83,0.87C1023.89,1164.01,1025.26,1163.61,1025.26,1162.96Zm-11.64-6.34c-0.43,0-.43.36-0.47,0.65a35.5,35.5,0,0,1-1.08,6.48c-0.07.33-.43,1.66-0.43,1.88,0,0.65,1.8.97,2.05,0.97a0.744,0.744,0,0,0,.72-0.72c0.4-1.48,1.08-5.62,1.26-7.21a0.73,0.73,0,0,1,.47-0.82,0.471,0.471,0,0,0,.36-0.4,0.638,0.638,0,0,0-.68-0.47C1015.46,1156.91,1013.91,1156.62,1013.62,1156.62Zm18.01-.11a0.819,0.819,0,0,1,.87.87v0.32a0.835,0.835,0,0,1-.87.87h-1.73a0.832,0.832,0,0,1-.86-0.87v-0.32a0.816,0.816,0,0,1,.86-0.87h1.73Zm4.15,0.87a0.816,0.816,0,0,1,.86-0.87h1.84a0.793,0.793,0,0,1,.83.87v0.32a0.809,0.809,0,0,1-.83.87h-1.84a0.832,0.832,0,0,1-.86-0.87v-0.32Zm-3.28-3.86a0.8,0.8,0,0,1-.87.83h-1.73a0.8,0.8,0,0,1-.86-0.83v-0.29a0.83,0.83,0,0,1,.86-0.86h1.73a0.832,0.832,0,0,1,.87.86v0.29Zm4.14,0.83a0.8,0.8,0,0,1-.86-0.83v-0.29a0.83,0.83,0,0,1,.86-0.86h1.84a0.806,0.806,0,0,1,.83.86v0.29a0.777,0.777,0,0,1-.83.83h-1.84Zm-0.86-10.09a0.83,0.83,0,0,1,.86-0.86h1.41a0.83,0.83,0,0,1,.86.86v0.29a0.832,0.832,0,0,1-.86.87h-1.41a0.832,0.832,0,0,1-.86-0.87v-0.29Zm-4.15-.86a0.832,0.832,0,0,1,.87.86v0.29a0.835,0.835,0,0,1-.87.87h-1.19a0.8,0.8,0,0,1-.82-0.87v-0.29a0.8,0.8,0,0,1,.82-0.86h1.19Zm5.01-2.06a0.83,0.83,0,0,1-.86-0.86v-0.18a0.832,0.832,0,0,1,.86-0.87h1.41a0.832,0.832,0,0,1,.86.87v0.18a0.83,0.83,0,0,1-.86.86h-1.41Zm-4.14-.86a0.832,0.832,0,0,1-.87.86h-1.19a0.8,0.8,0,0,1-.82-0.86v-0.18a0.8,0.8,0,0,1,.82-0.87h1.19a0.835,0.835,0,0,1,.87.87v0.18Zm-0.87,7.28a0.727,0.727,0,0,1,.87.83v0.39a0.727,0.727,0,0,1-.87.83h-4.5c-0.9,0-1.37.22-1.37,1.19,0,0.65.04,1.3,0.04,1.95v6.95c0,0.76-.04,1.48-0.04,2.23,0,0.8.4,0.76,1.62,0.76,1.55,0,1.66.04,1.7-.9,0-.79.28-0.9,1.51-0.9h0.9a0.86,0.86,0,0,1,1.01.97c0,0.69-.04,1.33-0.04,1.98,0,2.45,1.08,3.5,3.53,3.5h3.93c1.23,0,2.81-.07,3.5-1.23a9.592,9.592,0,0,0,.9-3.28c0-.9-1.88-1.08-2.56-1.08a0.567,0.567,0,0,0-.69.47c-0.18,1.41-.21,2.09-1.87,2.09h-2.02c-1.29,0-1.4-.29-1.4-1.51v-0.9a0.869,0.869,0,0,1,1.01-1.01h1.37c1.18,0,2.08.03,2.77,0.03,1.26,0,1.76-.18,1.76-1.18,0-.62-0.03-1.27-0.03-1.88v-5.11c0-.65.03-1.3,0.03-1.95,0-1.04-.54-1.23-1.87-1.23-0.68,0-1.55.04-2.66,0.04h-1.52a0.724,0.724,0,0,1-.86-0.83v-0.39a0.724,0.724,0,0,1,.86-0.83h2.02a0.641,0.641,0,0,1,.43.18,2.391,2.391,0,0,0,1.33.21c1.05,0,1.7.08,1.7-.93,0-.65-0.04-1.26-0.04-1.91v-4.83c0-.69.04-1.26,0.04-1.8,0-1.01-.18-1.62-1.23-1.62-0.83,0-1.69.07-2.52,0.07h-8.36c-0.9,0-1.62-.07-2.16-0.07-1.04,0-1.55.21-1.55,1.29,0,0.72.04,1.41,0.04,2.13v4.83c0,0.65-.07,1.26-0.07,1.91,0,1.01.68,0.93,1.72,0.93a2.723,2.723,0,0,0,1.41-.21,0.92,0.92,0,0,1,.43-0.18h1.8Zm-17.83-5.84a1.525,1.525,0,0,0-.65-0.32c-0.65,0-1.55,1.91-1.55,2.45a0.863,0.863,0,0,0,.43.68,47.543,47.543,0,0,1,3.64,3.06,1.164,1.164,0,0,1,.43.8,1.241,1.241,0,0,1-.21.61c-0.33.57-.65,1.15-1.01,1.69a1.507,1.507,0,0,1-1.37.83c-0.14,0-.32.04-0.5,0.04-0.62,0-1.16-.04-1.16.39,0,0.18.47,2.49,0.54,2.85a1.055,1.055,0,0,0,.54.83,0.564,0.564,0,0,0,.51-0.36,0.512,0.512,0,0,1,.5-0.33c0.69-.07,1.34-0.14,2.02-0.25h0.18a0.768,0.768,0,0,1,.79.9v6.27c0,1.62-.07,3.24-0.07,4.86,0,1.19.29,1.23,1.66,1.23,1.33,0,1.62-.04,1.62-1.23,0-1.62-.07-3.24-0.07-4.86v-6.7a0.95,0.95,0,0,1,.9-1.12l0.36-.07h0.22a0.809,0.809,0,0,1,.82.65,0.616,0.616,0,0,0,.72.5c0.15,0,2.06-.1,2.06-0.97a23.562,23.562,0,0,0-.83-3.13c-1.05-3.17-1.15-3.39-1.8-3.39-0.51,0-1.91.29-1.91,0.9a6.566,6.566,0,0,0,.43,1.37,0.974,0.974,0,0,1,.07.32,0.71,0.71,0,0,1-.68.72c-0.54.04-1.05,0.11-1.55,0.15a0.446,0.446,0,0,1-.54-0.4,0.463,0.463,0,0,1,.11-0.32c1.58-2.45,3.13-4.94,4.57-7.53a0.917,0.917,0,0,1,.72-0.4c0.44-.07.58-0.18,0.58-0.47a1.628,1.628,0,0,0-1.08-.86,12.811,12.811,0,0,0-2.16-.83,0.93,0.93,0,0,0-.72.86c-0.62,1.16-1.26,2.27-1.88,3.43a0.757,0.757,0,0,1-.65.39,0.82,0.82,0,0,1-.54-0.25,2.707,2.707,0,0,1-.32-0.29,0.807,0.807,0,0,1-.29-0.54,0.717,0.717,0,0,1,.15-0.43c0.82-1.33,2.12-3.89,2.81-5.33a0.557,0.557,0,0,1,.5-0.33c0.25-.07.65-0.07,0.65-0.43,0-.61-2.99-1.66-3.17-1.66a0.664,0.664,0,0,0-.54.65c-0.43,1.23-1.66,3.89-2.27,5.12a0.678,0.678,0,0,1-.54.43A0.666,0.666,0,0,1,1013.8,1141.92Zm45.57-5.91c-0.36,0-.43.36-0.5,0.76a19.605,19.605,0,0,1-1.95,4.65c-0.32.43-1.29,0.46-2.23,0.46h-1.05c-1.04,0-1.98-.07-2.59-0.07-0.9,0-1.04.22-1.04,1.66,0,1.84.14,2.02,0.93,2.02,1.12,0,1.95-.11,2.52-0.11,0.51,0,.8.11,0.8,0.43,0,0.69-5.23,7.93-6.06,8.83a1.5,1.5,0,0,0-.46.79c0,0.65,2.41,2.09,3.06,2.09a0.6,0.6,0,0,0,.5-0.36,23.23,23.23,0,0,1,3.03-4.21c1.4-1.45,4.72-3.18,6.74-3.18a1.5,1.5,0,0,1,1.58,1.23,5.1,5.1,0,0,1,.18,1.01,0.928,0.928,0,0,1-.65.83,25.158,25.158,0,0,0-2.23,1.19c-2.49,1.47-5.12,3.24-5.12,6.48a5.47,5.47,0,0,0,3.61,5.15,13.329,13.329,0,0,0,5.69.94,47.016,47.016,0,0,0,6.92-.47c0.79-.18.83-0.47,0.83-1.55,0-2.05-.26-2.45-0.73-2.45a4.067,4.067,0,0,0-.72.08,26.574,26.574,0,0,1-6.7.9c-1.73,0-5.22-.22-5.22-2.63,0-2.24,3.71-3.82,3.89-3.82a0.5,0.5,0,0,1,.47.61c0,0.76-.07,1.55-0.07,2.34,0,0.94.64,1.01,2.19,1.01,1.37,0,1.55-.14,1.55-1.44,0-1.12-.03-2.2-0.03-3.32v-0.46a1.1,1.1,0,0,1,.93-1.19c1.41-.62,2.81-1.23,4.26-1.77,0.18-.07.36-0.11,0.5-0.18,0.68-.22,1.08-0.36,1.08-0.79,0-.61-0.86-3.39-1.55-3.39a3,3,0,0,0-.94.36,31.161,31.161,0,0,1-4.21,2.06,0.6,0.6,0,0,1-.54-0.62c-0.47-2.27-1.8-3.24-4.11-3.24a10.027,10.027,0,0,0-3.93.94,1.349,1.349,0,0,1-.64.21,0.271,0.271,0,0,1-.29-0.25,12.118,12.118,0,0,1,1.22-2.09,1.3,1.3,0,0,1,1.08-.58c2.27-.25,4.54-0.64,6.81-1.11,0.76-.15,1.91-0.29,1.91-0.9a11.317,11.317,0,0,0-.29-1.95,1.05,1.05,0,0,0-.9-1.08,2.7,2.7,0,0,0-.9.22,26.162,26.162,0,0,1-4.18,1.01,0.349,0.349,0,0,1-.39-0.36,2.357,2.357,0,0,1,.36-0.83,1.99,1.99,0,0,1,1.19-1.23,0.572,0.572,0,0,0,.43-0.43C1063.41,1137.67,1059.7,1136.01,1059.37,1136.01Zm27.42,5.44c-1.55,0-3.1-.07-4.65-0.07-1.04,0-1.01.4-1.01,2.05,0,1.63,0,1.95,1.08,1.95,1.52,0,2.99-.07,4.51-0.07h12.82c0.65,0,1.26.07,1.26,0.75,0,0.22-.07.65-0.1,0.9a16.936,16.936,0,0,1-5.88,10.49,25.723,25.723,0,0,1-8.97,4.76,0.636,0.636,0,0,0-.65.57c0,0.58,1.26,2.99,2.13,2.99a4.409,4.409,0,0,0,1.19-.29,33.168,33.168,0,0,0,6.92-3.71c5.69-3.96,8.35-8.72,9.54-15.49,0.26-1.41.54-1.77,0.54-2.09a4.212,4.212,0,0,0-1.22-1.66,2.814,2.814,0,0,0-1.73-1.15c-0.33,0-1.19.07-1.8,0.07h-13.98Zm20.75-4.57a1.938,1.938,0,0,1,1.95,1.94A1.93,1.93,0,1,1,1107.54,1136.88Zm0-1.63a3.57,3.57,0,1,0,3.6,3.57A3.559,3.559,0,0,0,1107.54,1135.25Zm25.9,10.35a1.025,1.025,0,0,1,1.08,1.04v10.59a1.075,1.075,0,0,1-1.08,1.08h-13.98a1.082,1.082,0,0,1-1.08-1.08v-10.59a1.049,1.049,0,0,1,1.08-1.04h13.98Zm-13.9-3.72c-0.98,0-1.99-.03-2.96-0.03-1.44,0-2.16.36-2.16,1.87,0,1.08.04,2.16,0.04,3.24v12.22c0,1.26-.08,2.52-0.08,3.78,0,1.3.29,1.3,1.98,1.3,2.17,0,2.06-.18,2.09-1.19,0.08-1.05.55-1.08,1.77-1.08h12.47c1.26,0,1.65.03,1.73,1.08,0.07,1.01,0,1.19,2.09,1.19,1.69,0,2.01,0,2.01-1.26s-0.07-2.56-.07-3.82v-12.22c0-1.04.04-2.12,0.04-3.2,0-1.66-.83-1.91-2.31-1.91-0.94,0-1.87.03-2.81,0.03h-13.83Zm54.32-5.83a3.082,3.082,0,0,0-1.76,1.44,0.732,0.732,0,0,0,.29.47,30.437,30.437,0,0,1,2.12,2.41,2.016,2.016,0,0,0,.9.9,2.864,2.864,0,0,0,1.77-1.58,7.494,7.494,0,0,0-1.44-1.91A8.086,8.086,0,0,0,1173.86,1136.05Zm-2.91,3.2a3.23,3.23,0,0,0-1.81,1.41,0.7,0.7,0,0,0,.33.47c0.76,0.86,1.51,1.73,2.2,2.66a1.782,1.782,0,0,0,.75.72,2.805,2.805,0,0,0,1.8-1.58A13.492,13.492,0,0,0,1170.95,1139.25Zm-20.94,9.48c-1.58,0-3.31-.11-4.57-0.11-0.87,0-.9.54-0.9,1.88,0,1.36-.04,2.05.93,2.05,1.41,0,3.03-.11,4.54-0.11h7.32a0.826,0.826,0,0,1,.83.87c0,0.25-.22,1.4-0.29,1.73a10.79,10.79,0,0,1-4.54,6.55,17.354,17.354,0,0,1-4.54,1.88,1.017,1.017,0,0,0-.97.64c0,0.58,1.94,2.96,2.73,2.96a6.341,6.341,0,0,0,1.7-.58,15.915,15.915,0,0,0,7.49-5.87,18.222,18.222,0,0,0,2.38-6.52c0.14-.76.14-1.66,1.15-1.66h4.72c1.55,0,3.1.07,4.65,0.07,0.94,0,1.01-.5,1.01-1.98,0-1.73-.07-1.91-1.12-1.91-1.51,0-3.02.11-4.54,0.11h-17.98Zm4.76-9.44c-1.62,0-3.35-.11-4.5-0.11-1.09,0-1.01.72-1.01,2.02s-0.08,1.87.93,1.87c1.55,0,3.07-.07,4.58-0.07h7.67c1.52,0,3.07.07,4.58,0.07,0.97,0,.97-0.5.97-1.73,0-1.44.07-2.16-1.01-2.16-1.22,0-2.95.11-4.54,0.11h-7.67Zm34.22,8.25c-1.44,0-2.95-.03-3.56-0.03-0.87,0-.8.68-0.8,1.62,0,1.15,0,1.76.83,1.76,0.9,0,2.31-.07,3.53-0.07H1194a0.818,0.818,0,0,1,.97.76c0,0.07-.1.61-0.1,0.72l-0.69,6.3a1.006,1.006,0,0,1-1.01.87h-8.61c-0.97,0-2.88-.08-3.49-0.08-0.83,0-.9.65-0.9,1.88,0,0.72-.04,1.55.93,1.55,0.87,0,2.24-.07,3.46-0.07h14.74c1.15,0,2.34.07,3.49,0.07,1.01,0,1.01-.61,1.01-1.62,0-1.19.04-1.81-.9-1.81-1.22,0-2.41.08-3.6,0.08h-0.97a0.772,0.772,0,0,1-.76-0.87l0.76-6.63c0.03-.18.14-0.97,0.25-1.65,0.07-.55.18-0.73,0.18-1.01a2.425,2.425,0,0,0-2.09-1.84c-0.15,0-.36.04-0.51,0.04-0.36.03-.79,0.03-1.22,0.03h-5.95Zm25.34,2.67c-1.17,0-3.1-.09-3.46-0.09-0.73,0-.78.23-0.78,1.79,0,0.87.02,1.4,0.75,1.4,1.17,0,2.35-.06,3.49-0.06h12.86c1.15,0,2.32.06,3.49,0.06,0.73,0,.76-0.53.76-1.43,0-1.53-.03-1.76-0.78-1.76-0.37,0-2.18.09-3.47,0.09h-12.86Zm31.51-8.9c-1.58,0-3.13-.07-4.68-0.07-0.9,0-.87.54-0.87,1.8,0,1.65-.07,2.2.91,2.2,1.54,0,3.09-.08,4.64-0.08h7.46c0.54,0,1.05.08,1.05,0.62a3.616,3.616,0,0,1-.62,1.22c-3.64,5.69-9.69,11.21-16.07,13.66a0.859,0.859,0,0,0-.75.72c0,0.64,1.66,3.06,2.41,3.06a6.09,6.09,0,0,0,1.59-.69,39.6,39.6,0,0,0,9-6.3,1.756,1.756,0,0,1,1.09-.61,1.216,1.216,0,0,1,.82.32,38.765,38.765,0,0,1,7.97,7.13,1.2,1.2,0,0,0,.9.55c0.75,0,2.74-2.13,2.74-2.89a0.671,0.671,0,0,0-.26-0.5c-0.83-.87-1.73-1.69-2.59-2.45a57.668,57.668,0,0,0-6.09-4.65,0.97,0.97,0,0,1-.54-0.86,1,1,0,0,1,.29-0.69,52.323,52.323,0,0,0,4.68-6.84c0.15-.26.36-0.62,0.58-0.94a7.292,7.292,0,0,0,.79-1.41c0-.46-1.55-2.45-2.3-2.45-0.22,0-.58.08-0.8,0.08a9.954,9.954,0,0,1-1.55.07h-9.8Zm35.38,10.59c1.48,0,1.8,2.05,1.8,3.17s-0.43,2.96-1.87,2.96-1.69-1.99-1.69-3.07S1279.82,1151.9,1281.22,1151.9Zm0.18-15.28a0.414,0.414,0,0,0-.47.44,0.681,0.681,0,0,0,.04.28,31.821,31.821,0,0,1,.36,4.47,1.058,1.058,0,0,1-.79,1.12c-0.33.07-8.79,0.54-9.77,0.58-1.76.07-2.09,0-2.09,0.72a20.731,20.731,0,0,0,.29,2.59c0.11,0.47.15,0.97,0.72,0.97a2.5,2.5,0,0,0,.54-0.07c1.73-.36,6.38-0.86,8.25-1.04,0.44-.04,2.09-0.22,2.38-0.22,0.4,0,.65.18,0.65,1.51a0.471,0.471,0,0,1-.43.44c-3.64.32-5.08,3.49-5.08,6.81,0,2.63,1.15,6.01,4.28,6.01a3.422,3.422,0,0,0,.83-0.18,0.955,0.955,0,0,1,.29-0.03,0.261,0.261,0,0,1,.25.25,1.281,1.281,0,0,1-.18.54,11.545,11.545,0,0,1-2.59,3.49,2.691,2.691,0,0,0-.83,1.01c0,0.65,2.92,1.55,3.35,1.55,1.59,0,5.44-6.45,5.44-12.25a10.961,10.961,0,0,0-1.12-5.04,3.106,3.106,0,0,1-.36-1.88v-1.26a1.161,1.161,0,0,1,.69-1.19c0.4-.1,3.75-0.14,4.39-0.14,2.02,0,4.72.18,5.23,0.18,0.36,0,.79.04,0.79-2.16,0-1.62-.25-1.84-0.83-1.84-1.55,0-5.4.22-7.17,0.29-0.39,0-1.8.11-2.09,0.11a0.946,0.946,0,0,1-1.04-1.05c0-.75,0-1.55.03-2.3a1.659,1.659,0,0,1,.58-1.52,0.538,0.538,0,0,0,.22-0.39c0-.33-1.08-0.44-1.95-0.51S1282.23,1136.62,1281.4,1136.62Zm34.41,25.3a1.08,1.08,0,0,1-.98,1.22c-1.08,0-2.81-.61-2.81-1.91a1.5,1.5,0,0,1,1.55-1.44A2.209,2.209,0,0,1,1315.81,1161.92Zm3.35-23.35a4.652,4.652,0,0,0-1.37.4,33.737,33.737,0,0,1-9.12,1.33h-0.86c-1.08,0-1.12.07-1.12,0.9,0,0.61.11,3.31,0.9,3.31,0.58,0,5.66-1.04,6.52-1.26,0.22-.03.69-0.14,0.87-0.14a0.513,0.513,0,0,1,.61.43,3.151,3.151,0,0,1-.94,1.3,142.328,142.328,0,0,1-11.2,11.31,1.8,1.8,0,0,0-.87,1.08c0,0.58,1.84,2.6,2.6,2.6a0.464,0.464,0,0,0,.39-0.26c1.3-1.47,2.6-2.95,4-4.32a10.94,10.94,0,0,1,8.07-3.53c3.14,0,6.09,1.44,6.09,4.94a5.854,5.854,0,0,1-4.36,5.55,0.449,0.449,0,0,1-.43-0.47,3.6,3.6,0,0,0-.65-2.31,5.88,5.88,0,0,0-4.79-2.56,4.53,4.53,0,0,0-4.61,4.36c0,3.68,4.25,4.9,7.24,4.9,5.8,0,11.46-3.31,11.46-9.69a7.453,7.453,0,0,0-4.29-6.99,10.552,10.552,0,0,0-4.43-1.08,7.418,7.418,0,0,0-1.48.14,1.851,1.851,0,0,1-.47.08,0.543,0.543,0,0,1-.61-0.47,1.067,1.067,0,0,1,.36-0.61,34.173,34.173,0,0,1,5.23-4.83,1.634,1.634,0,0,0,.79-0.76C1322.69,1141.31,1320.6,1138.57,1319.16,1138.57Zm29.9,12.9a29.863,29.863,0,0,0,9.37,13.83c0.61,0.54,3.27,2.63,3.96,2.63,0.86,0,2.38-1.8,2.38-2.73a1.482,1.482,0,0,0-.87-0.87,27.945,27.945,0,0,1-11.56-13.94,31.664,31.664,0,0,1-1.77-8.15c0-.25-0.03-0.54-0.03-0.79,0.03-1.15.07-2.3,0.07-3.42a0.679,0.679,0,0,1,.36-0.61,0.827,0.827,0,0,0,.65-0.62c0-.43-0.65-0.46-1.01-0.5-0.62-.11-2.56-0.32-3.1-0.32-0.72,0-.87.43-0.87,1.08,0,1.08.08,2.12,0.08,3.17,0,10.3-4.47,18.62-13.3,23.99a1.343,1.343,0,0,0-.9.87c0,0.86,1.51,2.7,2.41,2.7a4.34,4.34,0,0,0,1.88-.94,28.6,28.6,0,0,0,11.67-15.38,0.357,0.357,0,0,1,.29-0.25A0.335,0.335,0,0,1,1349.06,1151.47Zm28.03-13.37a0.451,0.451,0,0,0-.44.54c0,0.07.08,0.83,0.08,1.41a34.175,34.175,0,0,1-.4,4.64,1.151,1.151,0,0,1-1.15,1.12c-1.99.36-4,.87-6.02,1.08-0.43.04-1.05,0.04-1.05,0.58,0,0.22.62,3.75,1.48,3.75a2.534,2.534,0,0,0,.76-0.26,30.146,30.146,0,0,1,4.14-1.26,0.456,0.456,0,0,1,.47.47,13.653,13.653,0,0,1-.9,2.74,28.7,28.7,0,0,1-6.45,10.02,1.3,1.3,0,0,0-.5.82c0,0.83,2.3,2.2,2.95,2.2a0.832,0.832,0,0,0,.61-0.36,32.609,32.609,0,0,0,3.57-5.11,40.929,40.929,0,0,0,4.61-10.78c0.25-1.01.65-1.29,2.67-1.29,2.19,0,2.3,1.51,2.3,3.27a21.388,21.388,0,0,1-1.62,8.15c-0.9,1.8-1.8,2.23-3.78,2.23-0.72,0-1.26-.14-1.62-0.14a0.507,0.507,0,0,0-.51.61,7.321,7.321,0,0,0,.65,2.59,1.48,1.48,0,0,0,1.66.83,7.36,7.36,0,0,0,6.81-3.89c1.58-2.88,2.16-7.75,2.16-11.02,0-2.02-.43-4.08-2.23-5.26a7.167,7.167,0,0,0-4.08-.8h-0.43a0.7,0.7,0,0,1-.79-0.72,2.142,2.142,0,0,1,.07-0.43c0.11-.58.18-1.08,0.25-1.48,0.18-1.29.26-1.87,0.94-2.38a0.6,0.6,0,0,0,.33-0.46,1.018,1.018,0,0,0-.94-0.58C1380.15,1138.79,1377.45,1138.1,1377.09,1138.1Zm14.66,0a3.01,3.01,0,0,0-1.73,1.51,0.92,0.92,0,0,0,.32.51,29.162,29.162,0,0,1,2.56,2.77,1.045,1.045,0,0,0,.51.4,2.714,2.714,0,0,0,1.73-1.66A14.425,14.425,0,0,0,1391.75,1138.1Zm3.39-2.56a3.218,3.218,0,0,0-1.73,1.52,0.808,0.808,0,0,0,.36.5c0.9,0.9,1.73,1.8,2.56,2.78a0.732,0.732,0,0,0,.5.39,2.808,2.808,0,0,0,1.73-1.66A14.705,14.705,0,0,0,1395.14,1135.54Zm-5.88,6.49c-0.57,0-2.55,1.19-2.55,1.84a1.171,1.171,0,0,0,.32.61,26.358,26.358,0,0,1,4.83,7.71,1.033,1.033,0,0,0,.83.83c0.72,0,2.99-1.34,2.99-2.16C1395.68,1149.96,1390.63,1142.03,1389.26,1142.03Zm18.09,1.12a0.619,0.619,0,0,1-.76-0.62,0.728,0.728,0,0,1,.04-0.29c0.18-.57.32-1.08,0.43-1.44,0.32-1.19.39-1.44,0.97-1.73a0.837,0.837,0,0,0,.65-0.64c0-.44-0.61-0.51-2.34-0.98-0.33-.07-1.52-0.39-1.77-0.39-0.47,0-.5.54-0.57,0.93a29.764,29.764,0,0,1-5.55,12.51,1.867,1.867,0,0,0-.54.93c0,0.79,2.09,1.7,2.74,1.7,1.04,0,3.38-4.58,3.89-5.55a1.291,1.291,0,0,1,1.37-.83h5.26a0.852,0.852,0,0,1,1,1.01v3.85a0.852,0.852,0,0,1-1,1.01h-4.47c-1.44,0-2.85-.11-4.29-0.11-1.01,0-.97.47-0.97,1.84,0,1.41-.04,1.87.97,1.87,1.44,0,2.85-.1,4.29-0.1h4.47a0.846,0.846,0,0,1,1,1v5.23a0.839,0.839,0,0,1-1,.97h-7.61c-1.47,0-2.99-.07-4.5-0.07-0.94,0-.9.43-0.9,1.87,0,1.41-.04,1.88.9,1.88,1.51,0,3.03-.08,4.5-0.08h21.04c1.52,0,3,.08,4.51.08,0.94,0,.9-0.47.9-1.88s0.07-1.87-.9-1.87c-1.51,0-3.03.07-4.51,0.07h-7.45a0.856,0.856,0,0,1-1.01-.97v-5.23a0.862,0.862,0,0,1,1.01-1h4.57c1.44,0,2.88.1,4.33,0.1,0.97,0,.93-0.5.93-1.87,0-1.33.04-1.84-.93-1.84-1.45,0-2.89.11-4.33,0.11h-4.57a0.869,0.869,0,0,1-1.01-1.01v-3.85a0.869,0.869,0,0,1,1.01-1.01h6.12c1.48,0,2.96.07,4.43,0.07,0.94,0,.87-0.47.87-1.87s0.07-1.88-.87-1.88c-1.47,0-2.95.08-4.43,0.08h-6.12a0.86,0.86,0,0,1-1.01-.98v-2.7c0-1.26.03-1.95,0.43-2.27a0.742,0.742,0,0,0,.47-0.54c0-.43-0.61-0.47-0.94-0.5-0.57-.08-2.92-0.29-3.42-0.29-0.36,0-.69.07-0.69,0.5,0,0.11.04,0.25,0.04,0.36,0.07,0.79.14,1.77,0.14,2.7v2.74a0.842,0.842,0,0,1-1,.98h-3.82Zm37.1,16.89c0.83,0,1.7,0,1.7.69,0,1.94-1.41,2.41-3.07,2.41-0.93,0-2.55-.21-2.55-1.44C1440.53,1160.15,1443.34,1160.04,1444.45,1160.04Zm1.23-22.59c-0.33,0-.54.07-0.54,0.44a2.776,2.776,0,0,0,.07.57c0.11,0.61.32,3.03,0.32,3.6,0,0.98-.9.91-4.07,0.91-1.76,0-4.79-.29-5.55-0.29-0.61,0-.64.5-0.64,1.01a6.424,6.424,0,0,0,.39,2.63,3.666,3.666,0,0,0,2.09.32h1.08c1.95,0,4.83-.18,6.09-0.18,0.94,0,.98,1.48.98,2.52,0,0.79-.51.9-1.84,0.9h-1.62c-1.37,0-3.39-.18-3.82-0.18a0.606,0.606,0,0,0-.62.76,7.408,7.408,0,0,0,.47,2.52c0.29,0.65.98,0.61,2.45,0.61,1.55,0,3.57-.14,4.33-0.14,0.9,0,.83,1.33.83,2.49,0,0.36,0,1-.62,1-0.21,0-1.04-.07-1.47-0.07-2.99,0-6.92,1.16-6.92,4.79,0,3.36,3.13,4.69,6.01,4.69,2.92,0,5.77-.9,6.53-4a0.794,0.794,0,0,1,.72-0.79c0.72,0,3.1,1.69,3.74,2.19a1.936,1.936,0,0,0,1.12.58c0.87,0,2.05-1.84,2.05-2.63,0-1.3-4.75-3.31-5.94-3.71-1.55-.5-1.69-0.22-1.69-3.96,0-1.01.72-1.01,2.09-1.16a31.181,31.181,0,0,0,3.71-.61c0.65-.14.68-0.5,0.68-1.69,0-1.37-.11-2.16-0.61-2.16a2.421,2.421,0,0,0-.69.14,30.552,30.552,0,0,1-4.61.86,0.609,0.609,0,0,1-.57-0.57,11.615,11.615,0,0,1-.18-1.91c0-1.01.86-.97,1.62-1.08,1.91-.22,4.14-0.54,6.01-0.94,0.69-.14,1.01-0.22,1.01-0.94,0-.61-0.11-2.95-0.9-2.95a9.853,9.853,0,0,0-1.37.29,36.873,36.873,0,0,1-3.92.83c-0.26.03-1.66,0.25-1.81,0.25a0.832,0.832,0,0,1-.75-1.05c0.07-2.91.68-2.3,0.68-2.99,0-.39-0.5-0.46-1.44-0.57C1447.91,1137.7,1446.22,1137.45,1445.68,1137.45Zm28.03-.65c-0.4,0-.58.11-0.58,0.51,0,0.25.04,0.68,0.04,1.12,0,1.58-.15,3.74-0.15,4.72a2.283,2.283,0,0,1-.18,1.08c-0.43.86-5.01,1.65-6.09,1.8-0.43.07-1.19,0.07-1.19,0.65a10.622,10.622,0,0,0,.76,2.45,1.276,1.276,0,0,0,1.05,1.01,25.132,25.132,0,0,0,4.35-1.48,2.259,2.259,0,0,1,.65-0.18,0.471,0.471,0,0,1,.47.54c0,0.29-.07.61-0.07,0.94a3.45,3.45,0,0,1-.43,1.69c-1.66,2.99-3.35,5.94-5.3,8.79a3.788,3.788,0,0,0-.72,1.3c0,0.61,2.09,2.37,2.7,2.37a0.613,0.613,0,0,0,.47-0.43c0.36-.68,1.48-2.63,1.87-3.28a2.41,2.41,0,0,1,.87-1.08,0.408,0.408,0,0,1,.32.47c0,1.62-.21,5.62-0.21,5.95,0,0.72.65,0.72,1.51,0.72,2.67,0,2.63-.36,2.63-0.62,0-.39-0.11-2.34-0.18-3.82-0.04-.61-0.11-1.69-0.11-1.9,0-.83-0.14-5.23,0-5.7a12.347,12.347,0,0,1,2.02-2.3,36.373,36.373,0,0,1,3.93-3.5,5.427,5.427,0,0,1,2.81-1.44c1.08,0,1.08,1.26,1.08,2.05,0,3.25-.47,6.53-0.47,9.77,0,2.27.29,5.76,3.31,5.76a9.315,9.315,0,0,0,5.09-2.09c0.39-.28,1.72-1.22,1.72-1.73,0-.57-1.04-3.27-1.65-3.27a1.033,1.033,0,0,0-.69.39c-0.65.72-2.2,2.27-3.17,2.27-0.83,0-.79-1.26-0.79-2.12,0-1.52.11-3.14,0.18-4.69,0.11-1.84.18-3.71,0.18-5.58a6.613,6.613,0,0,0-.65-3.43,3.888,3.888,0,0,0-3.1-1.58c-1.98,0-3.78,1.3-5.22,2.56-0.87.72-2.31,2.02-3.06,2.81a0.53,0.53,0,0,1-.29.18,0.3,0.3,0,0,1-.29-0.36,3.411,3.411,0,0,1,.07-0.58c0.11-.25.79-1.51,0.97-1.76a0.837,0.837,0,0,0,.22-0.4,2.611,2.611,0,0,0-1.22-1.66,0.62,0.62,0,0,1-.58-0.61c0-.5.25-2.27,0.32-2.88,0.22-1.48.18-1.59,0.65-1.98a0.81,0.81,0,0,0,.29-0.55,0.5,0.5,0,0,0-.4-0.39C1477.09,1137.2,1474.1,1136.8,1473.71,1136.8Z" transform="translate(-975.656 -1135.25)"/>
</svg>
