<svg xmlns="http://www.w3.org/2000/svg" width="637.59" height="41.69" viewBox="0 0 637.59 41.69">
  <defs>
    <style>
      .cls-1 {
        fill-rule: evenodd;
      }
    </style>
  </defs>
  <path id="text-connect-3_pc.svg" class="cls-1" d="M2027.59,5982.7a2.98,2.98,0,0,1,1.11-.28,3.611,3.611,0,0,1,.96.18,83.669,83.669,0,0,1,9.11,4.01,4.242,4.242,0,0,0,1.43.55c0.82,0,2.34-2.3,2.34-3.08a1.157,1.157,0,0,0-.83-0.88,55.985,55.985,0,0,0-6.62-2.94,0.748,0.748,0,0,1-.41-0.55,1.494,1.494,0,0,1,.92-0.83c1.1-.6,3.4-1.89,3.58-1.89a0.879,0.879,0,0,1,.33.05h0.32a0.5,0.5,0,0,0,.6-0.42,3.415,3.415,0,0,0-1.11-1.38,8.814,8.814,0,0,0-2.39-1.93,1.208,1.208,0,0,0-.6.28,56.2,56.2,0,0,1-6.85,3.86,2.33,2.33,0,0,1-1.15.32,3.332,3.332,0,0,1-.92-0.18c-2.12-.6-4.28-1.15-6.44-1.7-0.6-.14-5.15-1.01-5.48-1.01-1.05,0-1.97,2.66-1.97,3.03a0.8,0.8,0,0,0,.46.69c0.32,0.14,6.39,1.29,7.31,1.47a0.533,0.533,0,0,1,.32.37,0.432,0.432,0,0,1-.32.37c-2.94,1.01-5.98,1.84-9.02,2.62-0.55.14-1.79,0.19-1.79,0.92,0,0.37.83,3.13,2.16,3.13a10.038,10.038,0,0,0,1.84-.41A102.82,102.82,0,0,0,2027.59,5982.7Zm4.33,13.7c0-.87,0-1.15.5-1.47a0.973,0.973,0,0,0,.6-0.69,0.717,0.717,0,0,0-.78-0.5c-0.55-.1-3.73-0.37-4.28-0.37a0.675,0.675,0,0,0-.78.69c0,0.09.04,0.27,0.04,0.41,0.05,0.46.1,1.43,0.14,1.93a1.082,1.082,0,0,1-1.29,1.15h-4.27a0.528,0.528,0,0,1-.65-0.5,0.574,0.574,0,0,1,.19-0.42c0.73-.92,1.42-1.88,2.16-2.76a2,2,0,0,1,1.98-.92h15.87c1.84,0,3.68.1,5.56,0.1,1.06,0,1.06-.46,1.06-2.03,0-1.65,0-2.11-1.06-2.11-1.88,0-3.72.09-5.56,0.09h-13.21a0.619,0.619,0,0,1-.73-0.6,0.822,0.822,0,0,1,.14-0.46c0.78-1.33.87-1.56,1.47-1.75a0.7,0.7,0,0,0,.73-0.55c0-.46-0.87-0.64-1.19-0.74a34.8,34.8,0,0,0-3.5-.96,0.838,0.838,0,0,0-.64.64,29.764,29.764,0,0,1-1.98,3.5,1.837,1.837,0,0,1-1.89.92h-6.71c-1.84,0-3.68-.09-5.57-0.09-1.06,0-1.06.46-1.06,2.07s0,2.07,1.06,2.07c1.89,0,3.73-.1,5.57-0.1h3.82a0.585,0.585,0,0,1,.64.56,0.776,0.776,0,0,1-.14.41,58.334,58.334,0,0,1-10.07,9.25c-0.37.23-1.34,0.82-1.34,1.33,0,0.69,2.03,2.76,2.76,2.76a2.36,2.36,0,0,0,1.15-.64,57.492,57.492,0,0,0,5.02-4.14,0.764,0.764,0,0,1,.41-0.19,0.514,0.514,0,0,1,.51.6v4.65c0,1.24-.09,2.48-0.09,3.72,0,1.06.69,1.01,2.39,1.01,1.65,0,2.3.1,2.3-1.01,0-1.24-.14-2.48-0.14-3.72v-4.7a1.122,1.122,0,0,1,1.29-1.28h3.72a1.122,1.122,0,0,1,1.29,1.28v4.97c0,1.89-.14,3.77-0.14,5.66,0,1.24.56,1.33,2.44,1.33,1.7,0,2.35-.04,2.35-1.28,0-1.89-.14-3.82-0.14-5.71v-4.97a1.122,1.122,0,0,1,1.29-1.28h4.05a1.118,1.118,0,0,1,1.28,1.28v3.87c0,1.1.05,1.47-1.61,1.47-0.82,0-1.61-.09-1.97-0.09-0.6,0-.69.46-0.69,0.96,0,3.27.87,3.22,2.3,3.22a12.646,12.646,0,0,0,4.78-.64c1.43-.69,1.7-1.7,1.7-3.13,0-.78-0.04-1.56-0.04-2.3v-4.69c0-1.06.04-1.93,0.04-2.53,0-1.38-1.06-1.47-2.16-1.47s-2.16.04-3.27,0.04h-4.41A1.028,1.028,0,0,1,2031.92,5996.4Zm46.32-15.87a1.079,1.079,0,0,1-1.29-1.19c0.05-.92.41-0.92,1.43-0.92h4.73c0.83,0,1.43-.09,1.43.87v0.46a0.731,0.731,0,0,1-.92.78h-5.38Zm5.98,4.05a0.87,0.87,0,0,1-.97.88h-5.56a0.942,0.942,0,0,1-1.11-.97,0.717,0.717,0,0,1,.05-0.32,0.826,0.826,0,0,1,.96-0.78h5.43A1.017,1.017,0,0,1,2084.22,5984.58Zm-8.83,4.83a1.451,1.451,0,0,1,1.65-1.15h5.43a0.921,0.921,0,0,1,1.1.92,0.881,0.881,0,0,1-.04.32c-0.37,1.25-.46,1.29-2.49,1.29-0.73,0-1.56-.04-1.97-0.04a0.946,0.946,0,0,0-.97,1.19c0,2.99,1.06,2.9,3.13,2.9,2.9,0,4.97-.09,6.02-2.67,1.15-2.9,1.75-11.87,1.75-15.22,0-1.61-.64-1.98-2.16-1.98-1.1,0-2.16.04-3.27,0.04h-5.19c-1.15,0-2.3-.04-3.45-0.04-1.34,0-2.17.27-2.17,2.02,0,5.34-.5,10.67-3.68,15.18a1.836,1.836,0,0,0-.5.92c0,0.97,2.48,1.93,3.26,1.93a1.242,1.242,0,0,0,1.06-.64A19.453,19.453,0,0,0,2075.39,5989.41Zm-2.67,11.78a0.925,0.925,0,0,1,1.1-1.06h8.56c1.75,0,3.45.09,5.15,0.09,1.01,0,1.01-.55,1.01-1.93s0-1.89-1.01-1.89c-1.7,0-3.4.1-5.15,0.1h-24.24c-1.71,0-3.45-.1-5.16-0.1-1.01,0-1.01.51-1.01,1.89s0,1.93,1.01,1.93c1.71,0,3.45-.09,5.16-0.09h8.46a0.94,0.94,0,0,1,1.1,1.06v0.69a0.938,0.938,0,0,1-1.1,1.1h-5.61c-1.66,0-3.31-.09-4.97-0.09-1.06,0-1.01.55-1.01,1.84s-0.09,1.93,1.01,1.93c1.66,0,3.31-.14,4.97-0.14h5.43a1.125,1.125,0,0,1,1.28,1.29v0.55a1.107,1.107,0,0,1-1.28,1.29h-10.08c-1.84,0-3.68-.09-5.52-0.09-0.96,0-.96.51-0.96,1.89,0,1.47,0,1.93,1.01,1.93,1.84,0,3.63-.09,5.47-0.09h27.79c1.84,0,3.63.09,5.47,0.09,1.01,0,.97-0.51.97-1.93,0-1.38.04-1.89-.97-1.89-1.84,0-3.63.09-5.47,0.09h-10.12a1.1,1.1,0,0,1-1.29-1.29v-0.55a1.114,1.114,0,0,1,1.29-1.29h5.61c1.65,0,3.31.14,4.97,0.14,1.1,0,1.05-.6,1.05-1.93s0.05-1.84-1.05-1.84c-1.66,0-3.32.09-4.97,0.09h-5.8a0.938,0.938,0,0,1-1.1-1.1v-0.69Zm-17.21-22.86c-1.51,0-2.99-.14-4.5-0.14-0.97,0-.92.55-0.92,2.07,0,1.61-.05,2.11.92,2.11a7.158,7.158,0,0,0,.92-0.04,0.915,0.915,0,0,1,1.01,1.06v2.99c0,1.05-.09,2.11-0.09,3.12,0,1.43.55,2.99,2.07,3.36a26.934,26.934,0,0,0,5.01.23c0.55,0,1.75.05,3.04,0.05a16.14,16.14,0,0,0,4-.28,2.593,2.593,0,0,0,1.33-2.62,1.2,1.2,0,0,0-1.33-1.47,5.033,5.033,0,0,0-.78.04c-0.92.1-2.58,0.14-3.5,0.14h-3.54c-1.93,0-1.93-.41-1.93-2.62v-2.76a1.107,1.107,0,0,1,1.28-1.29h6.67c1.48,0,2.99.09,4.47,0.09,0.96,0,.92-0.55.92-2.07,0-1.56.04-2.11-.92-2.11-1.48,0-2.99.14-4.47,0.14h-1.05a1.115,1.115,0,0,1-1.29-1.25c0.04-1.05,0-1.56.55-1.93a1.04,1.04,0,0,0,.64-0.69c0-.5-0.69-0.55-1.24-0.6-0.73-.09-3.03-0.32-3.72-0.32-0.46,0-.83.09-0.83,0.65v0.36a14.858,14.858,0,0,1,.14,2.49,1.1,1.1,0,0,1-1.25,1.29h-1.61Zm51.94,28.84a1.313,1.313,0,0,1,1.29-1.29h12.32a1.223,1.223,0,0,1,1.25,1.29v0.6a1.215,1.215,0,0,1-1.25,1.28h-12.32a1.3,1.3,0,0,1-1.29-1.28v-0.6Zm1.29-4.88a1.306,1.306,0,0,1-1.29-1.29v-0.46a1.278,1.278,0,0,1,1.29-1.28h12.32a1.194,1.194,0,0,1,1.25,1.28V6001a1.217,1.217,0,0,1-1.25,1.29h-12.32Zm15.22-15.96a49.612,49.612,0,0,0,5.02-6.16,1.493,1.493,0,0,1,1.47-.92,0.581,0.581,0,0,0,.64-0.51c0-.41-0.78-0.87-1.98-1.56-0.09-.05-0.23-0.14-0.41-0.23a8.824,8.824,0,0,0-2.16-1.06,0.789,0.789,0,0,0-.65.6,40.949,40.949,0,0,1-8,9.98,2.325,2.325,0,0,1-2.12.73h-1.19a1.077,1.077,0,0,1-1.29-1.24v-1.93a1.1,1.1,0,0,1,1.29-1.29c1.7-.04,3.4.09,5.15,0.09,1.1,0,1.06-.55,1.06-2.2,0-1.75.04-2.21-1.11-2.21-1.7,0-3.4.14-5.1,0.09a1.069,1.069,0,0,1-1.29-1.15c-0.05-1.29,0-1.79.55-2.16a0.945,0.945,0,0,0,.6-0.69c0-.55-0.69-0.6-1.1-0.65-0.83-.09-3.64-0.36-4.37-0.36a0.675,0.675,0,0,0-.83.69,1.829,1.829,0,0,0,.04.46,22.876,22.876,0,0,1,.14,2.62,1.1,1.1,0,0,1-1.29,1.24h-2.66c-1.84,0-3.64-.09-5.43-0.09-1.15,0-1.11.5-1.11,2.21s-0.04,2.2,1.11,2.2c1.79,0,3.59-.09,5.43-0.09h2.66a1.1,1.1,0,0,1,1.29,1.29v1.93a1.077,1.077,0,0,1-1.29,1.24h-7.72c-1.8,0-3.59-.09-5.39-0.09-1.1,0-1.1.51-1.1,2.26,0,1.65,0,2.16,1.1,2.16,1.8,0,3.59-.09,5.39-0.09h10.48a0.475,0.475,0,0,1,.51.5,0.639,0.639,0,0,1-.32.55c-2.07,1.2-2.53,1.57-4.88,2.76a67.889,67.889,0,0,1-11.41,4.6c-0.41.14-1.15,0.33-1.15,0.88,0,0.41,1.02,3.49,2.07,3.49,0.79,0,5.98-2.25,7-2.71a1.162,1.162,0,0,1,.41-0.09,0.816,0.816,0,0,1,.74.87v7.87c0,1.19-.1,2.34-0.1,3.54,0,1.1.46,1.2,1.61,1.2h0.83c2.03,0,2.39.09,2.44-1.29a0.758,0.758,0,0,1,.83-0.83h13.02a0.766,0.766,0,0,1,.87.83c0.05,1.38.46,1.29,2.39,1.29,1.89,0,2.49.09,2.49-1.25,0-1.19-.1-2.34-0.1-3.49v-8.97c0-1.24.05-2.3,0.05-3.13,0-1.66-.23-2.53-1.84-2.53-1.2,0-2.39.09-3.59,0.09h-7.13a0.563,0.563,0,0,1-.69-0.5,0.927,0.927,0,0,1,.46-0.56c1.15-.78,2.26-1.56,3.36-2.43a2.751,2.751,0,0,1,2.12-.69h7.17c1.8,0,3.59.09,5.38,0.09,1.11,0,1.06-.51,1.06-2.21,0-1.66.05-2.21-1.06-2.21-1.79,0-3.58.09-5.38,0.09h-2.57a0.522,0.522,0,0,1-.6-0.46A0.7,0.7,0,0,1,2123.96,5986.33Zm39.75,18.31c0,1.88-1.15,2.53-2.9,2.53-1.15,0-3.36-.51-3.36-1.98,0-1.43,2.25-1.79,3.31-1.79C2161.64,6003.4,2163.71,6003.44,2163.71,6004.64Zm-0.92-27.88a0.569,0.569,0,0,0-.65.65c0,0.13.05,0.32,0.05,0.46,0.18,1.15.55,5.61,0.55,6.57,0,1.02-1.06,1.11-2.16,1.11h-0.74c-2.39,0-6.48-.46-7.04-0.46-0.69,0-.73.55-0.73,1.15s0.04,3.22.46,3.49c0.41,0.33,2.34.37,3.49,0.37h0.6c1.84,0,5.11-.18,5.48-0.18,1.15,0,1.05,1.29,1.1,1.75,0.05,1.33.28,5.7,0.28,6.85a0.844,0.844,0,0,1-.92.97h-0.33a10.714,10.714,0,0,0-1.79-.14c-3.59,0-7.22,1.65-7.22,5.79,0,4.24,4,5.98,7.68,5.98,2.76,0,5.84-.92,6.67-3.86a0.75,0.75,0,0,1,.69-0.74c0.6,0,2.9,2.03,3.4,2.53a2.09,2.09,0,0,0,1.29.69c1.06,0,2.67-2.11,2.67-3.17a2.455,2.455,0,0,0-1.2-1.75,25.273,25.273,0,0,0-4.96-3.22c-1.02-.5-1.48-0.6-1.57-1.79-0.04-1.2-.37-8.24-0.37-9.16,0-1.15.56-1.33,1.57-1.47,5.43-.73,5.75-1.06,5.75-1.93,0-.69-0.32-3.86-1.24-3.86a4,4,0,0,0-.69.13,28.917,28.917,0,0,1-4.6,1.15,1.012,1.012,0,0,1-.97-1.19v-1.29c0-2.02.23-2.81,0.51-3.27a1.8,1.8,0,0,0,.5-0.92,0.458,0.458,0,0,0-.46-0.41A43.524,43.524,0,0,0,2162.79,5976.76Zm-14.63,1.52a17.591,17.591,0,0,0-2.95-1.2,0.748,0.748,0,0,0-.59.79c-0.51,2.02-1.15,4-1.66,6.02a52.79,52.79,0,0,0-1.61,12.88,33.129,33.129,0,0,0,2.71,14.17c0.33,0.64.69,1.52,1.48,1.52,0.23,0,3.49-.55,3.49-2.35,0-.73-0.09-1.47-0.09-2.21,0-2.66,2.25-7.72,2.25-8.37,0-.55-1.47-1.47-1.97-1.47-0.56,0-1.02,1.52-1.25,2.02-0.46,1.06-.69,1.66-1.01,1.66-0.87,0-1.01-4.37-1.01-5.11a42.559,42.559,0,0,1,2.53-13.98c0.55-1.43.83-1.84,1.89-2.35a0.48,0.48,0,0,0,.41-0.46c0-.46-0.83-0.78-1.2-0.92C2149.31,5978.83,2148.76,5978.56,2148.16,5978.28Zm62.57,11.66a25.486,25.486,0,0,0-.34-3.62,11.422,11.422,0,0,0-.96-3.03,9.594,9.594,0,0,0-1.93-2.64,12.278,12.278,0,0,0-4.04-2.71,12.985,12.985,0,0,0-5-.94,12.847,12.847,0,0,0-4.98.94,12.365,12.365,0,0,0-4.01,2.71,9.594,9.594,0,0,0-1.93,2.64,12.656,12.656,0,0,0-.98,3.03,21.629,21.629,0,0,0-.36,3.62c-0.03,1.33-.05,2.81-0.05,4.44s0.02,3.11.05,4.44a21.629,21.629,0,0,0,.36,3.62,12.656,12.656,0,0,0,.98,3.03,9.594,9.594,0,0,0,1.93,2.64,12.365,12.365,0,0,0,4.01,2.71,12.847,12.847,0,0,0,4.98.94,12.985,12.985,0,0,0,5-.94,12.278,12.278,0,0,0,4.04-2.71,9.594,9.594,0,0,0,1.93-2.64,11.422,11.422,0,0,0,.96-3.03,25.486,25.486,0,0,0,.34-3.62c0.03-1.33.04-2.81,0.04-4.44S2210.76,5991.27,2210.73,5989.94Zm-5.26,8.74a20.785,20.785,0,0,1-.29,2.88,6.959,6.959,0,0,1-.62,1.96,6.4,6.4,0,0,1-1.03,1.47,6.663,6.663,0,0,1-2.22,1.53,6.951,6.951,0,0,1-2.85.58,6.871,6.871,0,0,1-2.84-.58,6.317,6.317,0,0,1-3.26-3,6.959,6.959,0,0,1-.62-1.96,22.453,22.453,0,0,1-.29-2.88c-0.05-1.14-.07-2.57-0.07-4.3s0.02-3.16.07-4.3a22.453,22.453,0,0,1,.29-2.88,6.959,6.959,0,0,1,.62-1.96,6.317,6.317,0,0,1,3.26-3,6.871,6.871,0,0,1,2.84-.58,6.951,6.951,0,0,1,2.85.58,6.663,6.663,0,0,1,2.22,1.53,6.4,6.4,0,0,1,1.03,1.47,6.959,6.959,0,0,1,.62,1.96,20.785,20.785,0,0,1,.29,2.88c0.05,1.14.07,2.57,0.07,4.3S2205.52,5997.54,2205.47,5998.68Zm37.22-8.74a24.173,24.173,0,0,0-.33-3.62,11.811,11.811,0,0,0-.97-3.03,9.551,9.551,0,0,0-1.92-2.64,12.278,12.278,0,0,0-4.04-2.71,13.022,13.022,0,0,0-5-.94,12.847,12.847,0,0,0-4.98.94,12.365,12.365,0,0,0-4.01,2.71,9.594,9.594,0,0,0-1.93,2.64,11.824,11.824,0,0,0-.98,3.03,21.629,21.629,0,0,0-.36,3.62c-0.04,1.33-.05,2.81-0.05,4.44s0.01,3.11.05,4.44a21.629,21.629,0,0,0,.36,3.62,11.824,11.824,0,0,0,.98,3.03,9.594,9.594,0,0,0,1.93,2.64,12.365,12.365,0,0,0,4.01,2.71,12.847,12.847,0,0,0,4.98.94,13.022,13.022,0,0,0,5-.94,12.278,12.278,0,0,0,4.04-2.71,9.551,9.551,0,0,0,1.92-2.64,11.811,11.811,0,0,0,.97-3.03,24.173,24.173,0,0,0,.33-3.62c0.04-1.33.05-2.81,0.05-4.44S2242.73,5991.27,2242.69,5989.94Zm-5.25,8.74a22.453,22.453,0,0,1-.29,2.88,6.959,6.959,0,0,1-.62,1.96,6.342,6.342,0,0,1-3.25,3,7.292,7.292,0,0,1-5.7,0,6.663,6.663,0,0,1-2.22-1.53,6.4,6.4,0,0,1-1.03-1.47,6.959,6.959,0,0,1-.62-1.96,20.785,20.785,0,0,1-.29-2.88c-0.05-1.14-.07-2.57-0.07-4.3s0.02-3.16.07-4.3a20.785,20.785,0,0,1,.29-2.88,6.959,6.959,0,0,1,.62-1.96,6.4,6.4,0,0,1,1.03-1.47,6.663,6.663,0,0,1,2.22-1.53,7.292,7.292,0,0,1,5.7,0,6.342,6.342,0,0,1,3.25,3,6.959,6.959,0,0,1,.62,1.96,22.453,22.453,0,0,1,.29,2.88c0.05,1.14.07,2.57,0.07,4.3S2237.49,5997.54,2237.44,5998.68Zm40.58,12.79-12.24-20.79,11.09-13.39h-6.34l-13.96,17.19v-17.19h-5.24v34.18h5.24v-9.94l5.76-6.91,9.6,16.85h6.09Zm11.09,0v-34.18h-5.23v34.18h5.23Zm35.61,0v-34.18h-5.23v24l-15.79-24h-4.75v34.18h5.23v-24.05l15.79,24.05h4.75Zm35,0-12.53-34.18h-4.18l-12.53,34.18H2336l2.36-6.87h13.48l2.36,6.87h5.52Zm-9.32-11.28h-10.51l5.33-15.17Zm51.94-22.9h-5.47l-5.95,24.43-6.87-24.43h-4.17l-6.87,24.43-5.95-24.43h-5.47l8.93,34.18h4.51l6.91-23.95,6.96,23.95h4.51Zm31.1,34.18-12.52-34.18h-4.18l-12.53,34.18h5.52l2.35-6.87h13.49l2.35,6.87h5.52Zm-9.31-11.28h-10.51l5.33-15.17Zm37.14-9.08a2.018,2.018,0,0,1-.69-0.18c-1.19-.6-5.66-2.62-6.76-2.62-1.2,0-2.35,3.17-2.35,3.68a1.085,1.085,0,0,0,.97.92,38.162,38.162,0,0,1,5.47,2.16,1,1,0,0,1,.6.92,2.466,2.466,0,0,1-.73,1.29,33.376,33.376,0,0,1-12.75,9.2c-0.09.04-.23,0.09-0.36,0.14-0.6.23-1.34,0.5-1.34,1.05,0,0.65,2.26,3.45,3.27,3.45,1.1,0,6.3-3.17,7.4-3.95a38.413,38.413,0,0,0,8.19-7.55,1.528,1.528,0,0,1,1.15-.73c0.78,0,2.62,1.88,3.22,2.53a1.91,1.91,0,0,0,1.15.69c0.88,0,2.99-2.9,2.99-3.73,0-.6-2.8-2.8-3.4-3.26a1.689,1.689,0,0,1-.88-1.29,1.786,1.786,0,0,1,.28-0.83,71.686,71.686,0,0,0,4.42-10.03,2.437,2.437,0,0,1,1.05-1.61,0.826,0.826,0,0,0,.51-0.6c0-.5-1.56-1.05-2.44-1.38a22.01,22.01,0,0,0-3.22-1.05c-0.41,0-.46.64-0.5,1.01-0.37,3.08-2.26,7.59-3.73,10.39C2462.42,5990.38,2462.19,5991.11,2461.27,5991.11Zm55.02-5.84a1.126,1.126,0,0,0-.78.51c-6.54,8.32-18.04,17.02-28.2,20.01-0.6.18-1.43,0.27-1.43,0.78a13.177,13.177,0,0,0,1.38,2.76c0.32,0.55,1.29,2.39,1.8,2.39a0.47,0.47,0,0,0,.46-0.27c0.36-.79.41-0.83,1.93-1.57a80.138,80.138,0,0,0,24.98-17.34c0.59-.6,2.43-2.39,2.43-3.17C2518.86,5988.68,2517.21,5985.27,2516.29,5985.27Zm-27.19-7.36c-1.06,0-2.9,2.95-2.9,3.64a1.162,1.162,0,0,0,.74.87,56.925,56.925,0,0,1,6.12,4.28,4.933,4.933,0,0,0,1.84,1.24c0.87,0,3.03-2.48,3.03-3.54,0-.69-2.2-2.21-2.8-2.62C2494.25,5981.13,2489.84,5977.91,2489.1,5977.91Zm66.29,3.27c-0.46,0-2.21,1.38-2.21,1.93a1.143,1.143,0,0,0,.41.6c1.2,1.15,2.3,2.39,3.41,3.68a0.91,0.91,0,0,0,.55.46,3.7,3.7,0,0,0,2.21-2.12C2559.76,5985.18,2555.94,5981.18,2555.39,5981.18Zm4.55-3.36a4.2,4.2,0,0,0-2.21,1.93,1.027,1.027,0,0,0,.37.6c1.24,1.2,2.3,2.35,3.41,3.63a0.921,0.921,0,0,0,.59.46,3.621,3.621,0,0,0,2.21-2.07C2564.31,5981.78,2560.45,5977.82,2559.94,5977.82Zm-9.57,7.27c-0.64,0-3.4,1.84-3.4,2.67a1.915,1.915,0,0,0,.46.96,64.7,64.7,0,0,1,9.06,14.86,1.04,1.04,0,0,0,.92.83c0.83,0,4.33-1.61,4.33-2.76,0-1.47-5.11-9.29-6.21-10.9a53.376,53.376,0,0,0-4.14-5.2A1.393,1.393,0,0,0,2550.37,5985.09Zm-15.59-.92c-0.41,0-.51.41-0.78,1.06-2.35,5.98-7.27,12.23-11.92,16.69a0.953,0.953,0,0,0-.36.65c0,0.92,3.17,2.85,3.91,2.85,0.78,0,2.2-1.7,2.76-2.3a70.98,70.98,0,0,0,10.02-14.4,1.811,1.811,0,0,1,.83-0.92,0.973,0.973,0,0,0,.69-0.64c0-.42-0.73-0.78-1.15-1.06A26.406,26.406,0,0,0,2534.78,5984.17Zm42.04,6.94c-1.54,0-4.08-.13-4.56-0.13-0.96,0-1.03.36-1.03,2.94,0,1.43.04,2.3,0.99,2.3,1.55,0,3.09-.09,4.6-0.09h16.93c1.51,0,3.05.09,4.6,0.09,0.96,0,.99-0.87.99-2.35,0-2.53-.03-2.89-1.03-2.89-0.48,0-2.87.13-4.56,0.13h-16.93Zm47.98,9.8c-0.87,0-2.48,3.27-2.48,3.91,0,0.74,3.08,4.6,10.53,4.6,1.84,0,9.62-.69,10.9-1.38a1.784,1.784,0,0,0,.56-1.7c0-2.35-.1-3.45-0.83-3.45a3.34,3.34,0,0,0-.97.18,37.644,37.644,0,0,1-10.12,1.48,7.9,7.9,0,0,1-6.99-3.22A0.8,0.8,0,0,0,2624.8,6000.91Zm1.06-19.92c-0.74,0-.97.69-0.97,2.9,0,0.51-.04,1.47.46,1.8,0.97,0.64,6.63.92,8.05,0.92a53.263,53.263,0,0,0,7.73-.65c0.88-.18.88-0.55,0.88-1.52a23.193,23.193,0,0,0-.19-2.48,1.022,1.022,0,0,0-.92-1.1,5.151,5.151,0,0,0-.83.13,29.6,29.6,0,0,1-6.99.92,29.015,29.015,0,0,1-6.02-.69A6.305,6.305,0,0,0,2625.86,5980.99Zm-11.04-3.58a0.961,0.961,0,0,0-.69,1.01,21.641,21.641,0,0,1-.6,2.3,55.218,55.218,0,0,0-2.34,15.22,31.736,31.736,0,0,0,2.8,14.13c0.6,1.24,1.15,2.25,1.93,2.25,0.97,0,3.59-1.1,3.59-2.25a3.634,3.634,0,0,0-.09-0.69c-0.05-.42-0.18-1.48-0.18-1.94,0-2.07,1.84-6.25,1.84-6.67a2.54,2.54,0,0,0-1.66-1.47,1.518,1.518,0,0,0-.97,1.11c-0.18.46-.82,1.79-1.24,1.79-1.06,0-1.24-5.57-1.24-6.44a36.465,36.465,0,0,1,2.58-13.06c0.46-1.15.64-1.57,1.42-1.98,0.46-.28.65-0.32,0.65-0.6a1.1,1.1,0,0,0-.92-0.78C2619.05,5979.06,2615.19,5977.41,2614.82,5977.41Z" transform="translate(-2006.75 -5973.31)"/>
</svg>
