<svg xmlns="http://www.w3.org/2000/svg" width="532.78" height="52.72" viewBox="0 0 532.78 52.72">
  <defs>
    <style>
      .cls-1 {
        fill-rule: evenodd;
      }
    </style>
  </defs>
  <path id="知識や経験をシェアし" class="cls-1" d="M2532.78,1430.57a1.545,1.545,0,0,1-1.63-1.62V1405.4a1.545,1.545,0,0,1,1.63-1.62h6.14a1.53,1.53,0,0,1,1.57,1.62v23.55a1.53,1.53,0,0,1-1.57,1.62h-6.14Zm6.09,5.57a1.385,1.385,0,0,1,1.56,1.57c0,0.46-.06.93-0.06,1.39,0,1.57.7,1.51,2.96,1.51s3.02,0.06,3.02-1.51c0-2.32-.12-4.58-0.12-6.84v-25.99c0-1.8.06-3.54,0.06-5.34,0-2.43-1.28-2.95-3.42-2.95-1.34,0-2.67.05-4,.05h-6.27c-1.33,0-2.67-.05-4-0.05-2.21,0-3.42.58-3.42,2.95,0,1.8.11,3.6,0.11,5.34v26.57c0,2.32-.17,4.58-0.17,6.9,0,1.51.81,1.45,3.13,1.45s3.02,0.06,3.02-1.51c0-.69,0-1.33-0.06-1.97a1.389,1.389,0,0,1,1.57-1.57h6.09Zm-25.35-22.85c0.06-1.97.06-3.95,0.06-5.92a1.437,1.437,0,0,1,1.68-1.56c1.85-.06,3.83.11,5.45,0.11,1.39,0,1.33-.58,1.33-2.78,0-2.26.06-2.9-1.33-2.9-1.68,0-3.6.11-5.45,0.11h-6.27a0.989,0.989,0,0,1-1.16-.98c0-.12.06-0.29,0.06-0.47,0.58-1.56.93-2.61,1.16-3.36,0.52-1.45.58-1.68,1.45-1.97a1.377,1.377,0,0,0,.93-0.93c0-.58-0.58-0.7-1.97-1.05-0.41-.11-0.82-0.23-1.28-0.34-0.52-.12-2.55-0.64-2.96-0.64a0.755,0.755,0,0,0-.69.81,52.209,52.209,0,0,1-7.83,17.46,5.288,5.288,0,0,0-.93,1.68c0,1.05,3.36,2.73,3.88,2.73,1.28,0,4.01-5.11,4.59-6.32a1.9,1.9,0,0,1,2.03-1.16c1.21,0,1.62.4,1.62,1.62v5.86a1.388,1.388,0,0,1-1.62,1.51h-3.02c-1.91,0-3.94-.18-5.63-0.18-1.27,0-1.21.82-1.21,2.9,0,2.03-.06,2.85,1.21,2.85,1.57,0,3.66-.18,5.63-0.18h2.61c1.04,0.12,1.51.47,1.45,1.51-0.99,6.5-4.76,11.54-10.09,15.2-0.93.64-1.86,1.16-1.86,1.8,0,0.98,2.38,4,3.42,4a4.506,4.506,0,0,0,1.92-.93,29.4,29.4,0,0,0,10.38-12.36,0.821,0.821,0,0,1,.7-0.52,0.642,0.642,0,0,1,.58.41,38.888,38.888,0,0,0,5.16,7.48c0.52,0.58,1.91,2.15,2.67,2.15,1.04,0,3.71-2.61,3.71-3.66a2.028,2.028,0,0,0-.81-1.27,47.179,47.179,0,0,1-9.22-11.95,2.083,2.083,0,0,1-.29-0.99c0-.69.63-0.81,1.21-0.87h1.92c2.03,0,4.12.18,5.62,0.18,1.28,0,1.22-.7,1.22-2.85,0-2.2.06-2.9-1.22-2.9-1.62,0-3.71.18-5.62,0.18h-1.63A1.388,1.388,0,0,1,2513.52,1413.29Zm92.45-9.8a23.522,23.522,0,0,0-1.56-4.35c-1.69-3.89-2.09-4.59-2.79-4.59-0.64,0-3.3.87-3.3,1.74a3.32,3.32,0,0,0,.34,1.05,45.646,45.646,0,0,1,2.21,4.93c0.17,0.46.29,0.81,0.4,1.16,0.53,1.39.64,1.8,1.34,1.8C2603.01,1405.23,2605.97,1404.65,2605.97,1403.49Zm-25.69,3.82a16.227,16.227,0,0,0-.82-3.01c-0.58-1.97-.81-2.5-1.62-2.5-0.52,0-3.54.35-3.54,1.51a5.593,5.593,0,0,0,.23.87,21.731,21.731,0,0,1,.93,2.79c0.29,1.1.29,1.79,1.28,1.79C2577.14,1408.76,2580.28,1408.53,2580.28,1407.31Zm-13.17-2.08c1.51,0,3.25.11,4.35,0.11,1.45,0,1.33-.69,1.33-2.43s0.12-2.44-1.33-2.44c-1.22,0-2.84.12-4.35,0.12h-6.79c-1.56,0-3.13-.12-4.41-0.12-1.33,0-1.33.64-1.33,2.44s0,2.43,1.39,2.43c1.16,0,2.73-.11,4.35-0.11h6.79Zm-1.16,15.66c1.51,0,2.73.11,3.89,0.11,1.39,0,1.33-.63,1.33-2.43,0-1.74.06-2.44-1.39-2.44-0.93,0-2.32.12-3.83,0.12h-3.77c-1.51,0-2.96-.12-3.89-0.12-1.39,0-1.33.64-1.33,2.44,0,1.85-.06,2.43,1.33,2.43,0.99,0,2.32-.11,3.89-0.11h3.77Zm0.23-7.83c1.45,0,2.73.11,3.6,0.11,1.45,0,1.39-.64,1.39-2.43,0-1.63.06-2.32-1.33-2.32-0.82,0-2.27.11-3.66,0.11H2562c-1.39,0-2.84-.11-3.65-0.11-1.33,0-1.28.69-1.28,2.37,0,1.74-.05,2.38,1.34,2.38,0.81,0,2.2-.11,3.59-0.11h4.18Zm-0.17-15.55c1.56,0,2.84.12,3.83,0.12,1.39,0,1.33-.76,1.33-2.5,0-1.8.12-2.55-1.33-2.55-0.87,0-2.38.12-3.83,0.12h-3.83c-1.45,0-3.02-.12-3.83-0.12-1.45,0-1.33.75-1.33,2.55,0,1.74-.12,2.5,1.33,2.5,0.81,0,2.32-.12,3.83-0.12h3.83Zm0.52,35.91a1.451,1.451,0,0,1-1.57,1.62h-1.33a1.59,1.59,0,0,1-1.63-1.62v-3.43a1.59,1.59,0,0,1,1.63-1.62h1.33a1.541,1.541,0,0,1,1.57,1.62v3.43Zm-1.39,6.09a1.147,1.147,0,0,1,1.33,1.33v0.47c0,1.27.58,1.33,2.61,1.33s2.55-.06,2.55-1.33c0-1.45-.11-2.9-0.11-4.35v-6.85c0-1.16.11-2.38,0.11-3.54,0-1.97-.81-2.78-2.78-2.78-0.87,0-1.8.06-2.73,0.06h-4.23c-0.93,0-1.86-.06-2.79-0.06-1.97,0-2.66.93-2.66,2.84,0,1.16.05,2.32,0.05,3.48v6.85c0,1.45-.11,2.84-0.11,4.29,0,1.39.58,1.39,2.9,1.39,2.61,0,2.84-.06,2.78-1.8a1.172,1.172,0,0,1,1.34-1.33h1.74Zm17.86-10.62a1.269,1.269,0,0,1,1.34,1.39v0.53a1.3,1.3,0,0,1-1.34,1.39h-2.49a1.339,1.339,0,0,1-1.39-1.39v-0.53a1.307,1.307,0,0,1,1.39-1.39H2583Zm1.34-5.33a1.3,1.3,0,0,1-1.34,1.39h-2.49a1.339,1.339,0,0,1-1.39-1.39v-0.47a1.307,1.307,0,0,1,1.39-1.39H2583a1.269,1.269,0,0,1,1.34,1.39v0.47Zm7.89-8.01a102.283,102.283,0,0,0,1.21,14.04c0,0.23.06,0.52,0.06,0.75a2.659,2.659,0,0,1-.75,1.8,31.734,31.734,0,0,1-2.32,2.32,0.854,0.854,0,0,1-.52.23,0.649,0.649,0,0,1-.64-0.69c0-.76-0.06-1.45-0.06-2.15v-9.45c0-.99.06-2.03,0.06-3.02,0-1.62-.64-2.26-2.27-2.26-1.04,0-2.03.06-3.07,0.06h-4.47c-1.04,0-2.03-.06-3.07-0.06-1.74,0-2.26.75-2.26,2.38,0,0.98.06,1.91,0.06,2.9v13.22c0,1.28-.06,2.55-0.06,3.83,0,1.22.64,1.16,2.43,1.16h0.7c1.97,0,1.86-.12,1.86-2.15a1.3,1.3,0,0,1,1.56-1.56h5.16a0.525,0.525,0,0,1,.53.52,0.448,0.448,0,0,1-.24.41c-0.23.17-.4,0.29-0.58,0.4-0.69.47-1.1,0.76-1.1,1.22,0,1.04,1.63,3.19,2.96,3.19,1.28,0,5.51-4,6.56-5.05a1.463,1.463,0,0,1,.81-0.34,0.985,0.985,0,0,1,.81.69c0.93,2.38,2.32,4.7,5.16,4.7,2.73,0,4-1.91,4.99-4.23a21.931,21.931,0,0,0,1.57-6.33c0-1.45-1.86-2.03-3.02-2.03-0.99,0-.99.41-1.1,1.28-0.12.93-.52,4.7-1.68,4.7-0.93,0-1.63-2.85-1.86-3.6a3.777,3.777,0,0,1-.12-0.81,3.639,3.639,0,0,1,.58-1.68,74.842,74.842,0,0,0,5.05-8.94c0.46-.92.58-1.21,1.28-1.39a0.983,0.983,0,0,0,.87-0.75c0-.52-0.7-0.87-1.98-1.63a2.266,2.266,0,0,1-.4-0.23,9.783,9.783,0,0,0-2.5-1.22,0.615,0.615,0,0,0-.52.53,61.3,61.3,0,0,1-2.9,6.67,0.563,0.563,0,0,1-.46.34,0.5,0.5,0,0,1-.47-0.46c-0.29-2.44-.4-4.87-0.46-7.31a1.305,1.305,0,0,1,1.57-1.51c1.97-.06,3.94.12,5.91,0.12,1.34,0,1.28-.76,1.28-2.55,0-1.86.06-2.5-1.34-2.5-1.97,0-3.94.18-5.91,0.12a1.387,1.387,0,0,1-1.63-1.63v-12.64c0-1.39,0-1.63.64-1.92a1.371,1.371,0,0,0,.87-0.92c0-.76-1.39-0.93-3.48-1.05-0.52-.06-1.1-0.06-1.68-0.11h-0.75a0.882,0.882,0,0,0-1.05,1.04c0,0.46.06,2.26,0.06,3.65v12.07a1.343,1.343,0,0,1-1.62,1.51h-2.09a1.038,1.038,0,0,1-1.16-.99,1.615,1.615,0,0,1,.11-0.52c0.35-.87.7-1.68,0.99-2.55a0.9,0.9,0,0,1,.81-0.64,0.632,0.632,0,0,0,.64-0.52c0-.99-4.82-2.21-5.05-2.21a0.928,0.928,0,0,0-.64.93,27.082,27.082,0,0,1-1.5,5.11,1.891,1.891,0,0,1-2.15,1.39h-1.33c-1.98,0-3.95-.12-5.92-0.12-1.39,0-1.33.7-1.33,2.5,0,1.74-.12,2.55,1.27,2.55,1.97,0,4-.12,5.98-0.12h11.42A1.411,1.411,0,0,1,2592.23,1415.55Zm-7.72-20.65c-0.06-1.16,0-1.62.64-2.03a1.284,1.284,0,0,0,.87-0.87c0-.7-0.93-0.75-1.51-0.81-1.04-.12-3.65-0.41-4.64-0.41-0.58,0-1.04.12-1.04,0.81v0.53a22.444,22.444,0,0,1,.17,2.72c-0.06,1.05-.35,1.51-1.45,1.57-0.7,0-2.96-.12-3.42-0.12-1.05,0-1.05.76-1.05,2.61,0,1.98,0,2.56,1.11,2.56,1.39,0,2.84-.12,4.29-0.12h6.32c1.45,0,2.9.12,4.29,0.12,1.11,0,1.11-.64,1.11-2.56,0-1.85.05-2.61-1.05-2.61-0.23,0-2.61.12-3.13,0.12A1.328,1.328,0,0,1,2584.51,1394.9Zm43.91,0.58c-1.28,0-2.61,4.06-2.61,4.7,0,0.81.75,0.93,1.39,1.1a45.243,45.243,0,0,1,6.15,2.09,7.862,7.862,0,0,0,2.43.81c1.51,0,2.67-3.71,2.67-4.29,0-.93-2.26-1.74-3.42-2.2C2633.98,1397.28,2629.29,1395.48,2628.42,1395.48Zm-13.81,29.18a3.692,3.692,0,0,0,1.1-.64c0.87-.81,5.34-4.52,6.21-4.52a1.706,1.706,0,0,1,1.39,1.1c2.9,5.74,6.03,11.25,8.99,16.94,0.58,1.16.99,2.14,1.8,2.14,1.1,0,5.1-2.03,5.1-3.13a7.887,7.887,0,0,0-1.27-2.5c-1.45-2.26-10.21-16.53-10.21-18.09a1.821,1.821,0,0,1,1.16-1.45c4.06-2.44,10.5-6.09,15.2-6.09,2.96,0,5.33,1.5,5.33,4.64,0,5.04-6.96,6.9-10.96,7.6-0.75.11-1.86,0.17-1.86,1.16,0,0.81,1.57,4.75,3.08,4.75a16.23,16.23,0,0,0,2.26-.4c6.67-1.69,13.69-5.4,13.69-13.23,0-6.67-4.81-10.15-11.14-10.15-6.49,0-12.41,3.13-17.86,6.38a2.938,2.938,0,0,1-1.39.52,1.537,1.537,0,0,1-1.4-1.1c-0.46-.93-2.32-4.99-2.32-5.74a1.084,1.084,0,0,1,.12-0.47,2.337,2.337,0,0,0,.12-0.63,0.585,0.585,0,0,0-.7-0.58,8.668,8.668,0,0,0-1.92.58c-0.81.29-1.56,0.58-2.2,0.81-1.74.64-2.78,0.98-2.78,1.51a1.731,1.731,0,0,0,.58,1.1c0.92,1.22,4.35,6.55,4.35,7.83a2.431,2.431,0,0,1-1.45,1.8c-1.4.93-4.18,2.9-5.46,3.54-0.63.34-1.21,0.58-1.21,1.21C2610.96,1420.71,2613.51,1424.66,2614.61,1424.66Zm68.91,9.1a47.141,47.141,0,0,0-1.92-5.97c-1.16-3.02-1.8-4.81-2.78-4.81-0.58,0-3.31.58-3.31,1.68a2.7,2.7,0,0,0,.41,1.16,57,57,0,0,1,2.96,8.12c0.23,0.75.46,1.68,1.39,1.68C2680.73,1435.62,2683.52,1434.98,2683.52,1433.76Zm-14.97-8.23c0-.64-0.93-0.81-1.39-0.93a32.935,32.935,0,0,0-3.66-.81c-0.63,0-.69.64-0.75,1.1a53.008,53.008,0,0,1-2.84,11.6,9.581,9.581,0,0,0-.47,1.74c0,1.05,2.96,1.57,3.66,1.57,0.81,0,.98-0.76,1.22-1.45,0.63-2.21,2.37-8.76,2.72-10.91a1.248,1.248,0,0,1,.93-1.27A0.742,0.742,0,0,0,2668.55,1425.53Zm29.12-22.28a1.3,1.3,0,0,1-2.09,0,22.993,22.993,0,0,1-2.49-3.88,1.716,1.716,0,0,1-.18-0.58,0.866,0.866,0,0,1,1.05-.81h6.03c0.81,0,1.33.05,1.33,0.58C2701.32,1399.37,2698.37,1402.56,2697.67,1403.25Zm-2.49,8.99a2.327,2.327,0,0,1,1.21-.4,2.026,2.026,0,0,1,1.28.46,42.169,42.169,0,0,0,10.67,5.51,6.519,6.519,0,0,0,1.86.47c1.45,0,2.96-2.96,2.96-4.3a1.19,1.19,0,0,0-1.16-1.04,40.972,40.972,0,0,1-9.92-4.18,1.02,1.02,0,0,1-.58-0.92,1.119,1.119,0,0,1,.46-0.93,40.453,40.453,0,0,0,6.21-7.77,2.613,2.613,0,0,1,.23-0.41,6.969,6.969,0,0,0,1.04-2.61,4.815,4.815,0,0,0-1.27-2.38,3.123,3.123,0,0,0-2.61-.99c-1.16,0-2.32.06-3.54,0.06h-12.18c-1.86,0-3.66-.11-5.51-0.11-1.1,0-1.05.69-1.05,2.72,0,1.98-.05,2.67,1.05,2.67,0.69,0,1.39-.06,2.09-0.11a0.892,0.892,0,0,1,.63.58,39.71,39.71,0,0,0,4.59,7.83,1.859,1.859,0,0,1,.34.98,1.373,1.373,0,0,1-.63,1.05,46.48,46.48,0,0,1-7.89,3.94c-0.7.23-1.63,0.46-1.63,1.22,0,1.27,1.8,3.89,3.14,3.89C2686.76,1417.47,2693.44,1413.4,2695.18,1412.24Zm-27.56.12c-0.52.81-.98,1.57-1.56,2.38a2.449,2.449,0,0,1-2.27,1.33,12.131,12.131,0,0,1-1.45.06h-0.75c-1.16,0-1.74.06-1.74,0.64a25.252,25.252,0,0,0,.58,2.73c0.17,0.63.23,1.16,0.35,1.62,0.29,1.45.35,1.8,0.98,1.8a1.148,1.148,0,0,0,.87-0.7,0.9,0.9,0,0,1,.76-0.64c1.45-.11,2.84-0.29,4.23-0.46h0.23a1.285,1.285,0,0,1,1.34,1.45v10.67c0,2.5-.18,4.99-0.18,7.49,0,1.79.7,1.85,2.9,1.85,2.33,0,2.91-.06,2.91-1.85,0-2.5-.12-4.99-0.12-7.49v-11.42a1.58,1.58,0,0,1,1.45-1.86,12.335,12.335,0,0,0,1.33-.23h0.41a1.414,1.414,0,0,1,1.33.98l0.18,0.58c0.29,0.99.58,1.69,1.33,1.69,0.35,0,3.48-.82,3.48-1.92a11.458,11.458,0,0,0-.81-2.43c-1.1-2.38-2.32-5.05-3.6-7.78a1.3,1.3,0,0,0-1.21-.87c-0.64,0-3.19.81-3.19,1.68a8.969,8.969,0,0,0,.75,1.92,1.329,1.329,0,0,1,.17.52,1.04,1.04,0,0,1-1.04,1.05c-0.87.11-1.68,0.17-2.55,0.29a0.71,0.71,0,0,1-.82-0.7,1.516,1.516,0,0,1,.18-0.47c2.84-3.88,5.34-8,7.83-12.06a1.35,1.35,0,0,1,.99-0.58c0.58-.12,1.1-0.12,1.1-0.7a1.862,1.862,0,0,0-1.05-1.16c-0.17-.05-0.46-0.23-0.92-0.46a23.059,23.059,0,0,0-3.43-1.74c-0.46,0-.52.35-0.81,0.93-1.22,2.38-2.55,4.64-3.89,6.9a1.169,1.169,0,0,1-.98.64,1.51,1.51,0,0,1-.93-0.41,9.963,9.963,0,0,0-.81-0.75,1.215,1.215,0,0,1-.47-0.93,1.3,1.3,0,0,1,.18-0.64c1.56-3.07,2.78-5.62,4.17-8.82a1.3,1.3,0,0,1,.82-0.63c0.46-.06.98-0.12,0.98-0.7a1.452,1.452,0,0,0-.98-0.93,4.055,4.055,0,0,0-.47-0.17,31.351,31.351,0,0,0-3.83-1.45,0.857,0.857,0,0,0-.69.81,66.067,66.067,0,0,1-3.48,8.64,1.02,1.02,0,0,1-.87.64,1.22,1.22,0,0,1-.76-0.29,2.323,2.323,0,0,0-1.04-.58c-0.99,0-2.61,3.25-2.61,3.95a1.144,1.144,0,0,0,.7.92,63.843,63.843,0,0,1,6.43,5.28,1.793,1.793,0,0,1,.7,1.28A2.2,2.2,0,0,1,2667.62,1412.36Zm24.42,15.89a1.387,1.387,0,0,1,1.63,1.63v4.35a1.381,1.381,0,0,1-1.63,1.62h-3.77c-1.97,0-3.94-.11-5.91-0.11-1.51,0-1.45.81-1.45,2.78,0,2.09-.06,2.9,1.5,2.9,1.98,0,3.89-.17,5.86-0.17h16.53c1.98,0,3.95.17,5.92,0.17,1.51,0,1.45-.81,1.45-2.84,0-1.97.12-2.84-1.45-2.84-1.97,0-3.94.11-5.92,0.11h-3.77a1.374,1.374,0,0,1-1.62-1.62v-4.35a1.381,1.381,0,0,1,1.62-1.63h1.63c2.03,0,4.12.12,6.2,0.12,1.57,0,1.51-.75,1.51-2.78,0-1.92.06-2.79-1.45-2.79-2.09,0-4.17.18-6.26,0.18h-1.63a1.364,1.364,0,0,1-1.62-1.51c-0.06-2.26-.06-3.13.64-3.66a1.072,1.072,0,0,0,.69-0.87c0-.63-0.87-0.69-1.33-0.75-0.93-.12-4.18-0.46-4.99-0.46a0.786,0.786,0,0,0-.98.81,2.316,2.316,0,0,0,.05.58,24.964,24.964,0,0,1,.18,4.23,1.408,1.408,0,0,1-1.63,1.63h-0.87c-2.09,0-4.17-.18-6.26-0.18-1.51,0-1.45.81-1.45,2.79,0,2.08-.06,2.78,1.51,2.78,2.08,0,4.11-.12,6.2-0.12h0.87Zm43.44,1.8a33.682,33.682,0,0,0-.87-3.59c-0.81-2.85-1.1-3.19-1.74-3.19-0.58,0-1.85.46-1.85,1.16a2.755,2.755,0,0,0,.17.75,27.1,27.1,0,0,1,1.04,3.6c0.47,2.2.47,2.84,1.28,2.84C2734.15,1431.62,2735.48,1431.04,2735.48,1430.05Zm-4.06,2.67a41.137,41.137,0,0,0-.75-4.18c-0.76-3.48-1.05-4.11-1.8-4.11-0.64,0-1.8.4-1.8,1.21a1.935,1.935,0,0,0,.12.58c0.58,2.56.81,4.35,1.04,5.63,0.29,1.97.41,2.55,1.16,2.55A1.86,1.86,0,0,0,2731.42,1432.72Zm-4.35,2.73c0-.99-0.35-4.41-0.52-5.51-0.46-3.48-.58-4.35-1.62-4.35-0.53,0-1.74.23-1.74,1.1a5.08,5.08,0,0,0,.05.87,71.241,71.241,0,0,1,.82,7.89c0.05,0.75.05,1.51,1.1,1.51A1.654,1.654,0,0,0,2727.07,1435.45Zm-4-8.76c0-.7-3.02-1.05-3.42-1.05a0.684,0.684,0,0,0-.7.82v1.27a47.219,47.219,0,0,1-.93,8.99,3.348,3.348,0,0,0-.05.7c0,0.81,1.39,1.04,2.03,1.04,1.16,0,1.21-1.04,1.33-2.2,0.29-2.32.46-4.7,0.58-7.02,0.06-1.22-.06-1.51.41-1.74A0.925,0.925,0,0,0,2723.07,1426.69Zm27.9-21.58a0.7,0.7,0,0,1-.7-0.64,0.615,0.615,0,0,1,.24-0.52,56.923,56.923,0,0,0,4.23-4.93,1.16,1.16,0,0,1,.87-0.52,1.089,1.089,0,0,1,.93.52,50.609,50.609,0,0,0,4.41,4.99,0.746,0.746,0,0,1,.23.52,0.684,0.684,0,0,1-.64.58h-9.57Zm-22.04,8a1.541,1.541,0,0,1,1.56,1.63v0.7a1.538,1.538,0,0,1-1.56,1.62h-1.28a1.619,1.619,0,0,1-1.62-1.62v-0.7a1.622,1.622,0,0,1,1.62-1.63h1.28Zm0.23-7.71a1.292,1.292,0,0,1,1.33,1.39v0.81a1.3,1.3,0,0,1-1.33,1.4h-1.74a1.342,1.342,0,0,1-1.39-1.4v-0.81a1.339,1.339,0,0,1,1.39-1.39h1.74Zm1.33-5.57a1.262,1.262,0,0,1-1.33,1.39h-1.74a1.307,1.307,0,0,1-1.39-1.39v-0.75a1.339,1.339,0,0,1,1.39-1.39h1.74a1.292,1.292,0,0,1,1.33,1.39v0.75Zm21.35,17.52a1.362,1.362,0,0,1,1.57,1.57,11.252,11.252,0,0,1-.12,1.97c-0.11,1.1-.69,1.45-1.8,1.45h-0.93a1.382,1.382,0,0,1-1.62-1.57v-1.8a1.416,1.416,0,0,1,1.62-1.62h1.28Zm6.96,3.48c0.06-.64.06-1.33,0.12-1.97a1.408,1.408,0,0,1,1.62-1.51h1.39a1.379,1.379,0,0,1,1.57,1.62v1.8a1.345,1.345,0,0,1-1.57,1.57h-1.68A1.269,1.269,0,0,1,2758.8,1420.83Zm-11.83-12.47a1.054,1.054,0,0,0,1.27,1.22c1.28,0,2.56-.06,3.83-0.06a1.227,1.227,0,0,1,1.4,1.27v0.7a1.181,1.181,0,0,1-1.4,1.28h-1.45c-1.16,0-2.32-.06-3.54-0.06-1.91,0-3.42.29-3.42,2.61,0,0.93.06,1.91,0.06,2.9v4.23c0,1.16-.06,2.32-0.06,3.48,0,1.8,1.16,1.74,2.67,1.74a4.5,4.5,0,0,0,2.15-.29,9.434,9.434,0,0,1,1.04-.46h0.93a0.993,0.993,0,0,1,1.1.93,1.308,1.308,0,0,1-.12.46c-2.26,4.41-6.14,7.43-10.49,9.75a1.571,1.571,0,0,0-1.11,1.22c0,1.1,2.27,4,3.48,4,1.4,0,8.42-4.93,12.07-10.68a0.858,0.858,0,0,1,.81-0.46,0.977,0.977,0,0,1,.76.46,30.729,30.729,0,0,0,7.13,8.13c0.7,0.58,2.78,2.26,3.65,2.26,1.28,0,3.72-2.67,3.72-3.71,0-.58-1.11-1.22-1.63-1.51a30.687,30.687,0,0,1-9.45-9.46,1.647,1.647,0,0,1-.18-0.58,0.939,0.939,0,0,1,1.05-.81h1.74a9.434,9.434,0,0,1,1.04.46,4.487,4.487,0,0,0,2.15.29c1.45,0,2.67.12,2.67-1.74,0-1.16-.06-2.32-0.06-3.48v-4.23c0-.99.06-1.97,0.06-2.96,0-2.2-1.51-2.55-3.43-2.55-1.16,0-2.32.06-3.53,0.06h-1.57a1.17,1.17,0,0,1-1.39-1.34v-0.58a1.185,1.185,0,0,1,1.39-1.33c0.93,0,2.44.06,3.36,0.06a1.061,1.061,0,0,0,1.28-1.16,0.453,0.453,0,0,1,.41-0.47,0.642,0.642,0,0,1,.29.12c0.63,0.52,2.08,1.74,2.9,1.74,1.33,0,3.42-2.55,3.42-3.77a1.861,1.861,0,0,0-.99-1.22,52.072,52.072,0,0,1-11.71-10.62,0.257,0.257,0,0,1-.06-0.23,0.368,0.368,0,0,1,.29-0.35,0.608,0.608,0,0,0,.4-0.52c0-.75-0.98-0.98-2.2-1.39a19.184,19.184,0,0,0-3.54-1.16c-0.52,0-.75.41-1.1,1.04a38.708,38.708,0,0,1-10.67,11.84,0.822,0.822,0,0,1-.47.17,0.7,0.7,0,0,1-.64-0.69c-0.05-1.11.06-1.8-1.1-1.8-1.04,0-2.43.17-3.59,0.11a1.189,1.189,0,0,1-1.4-1.39v-0.75a1.189,1.189,0,0,1,1.4-1.39h1.39c1.22,0,2.38.11,3.59,0.11s1.22-.64,1.22-2.61c0-1.91,0-2.49-1.27-2.49-1.05,0-2.27.05-3.54,0.05h-9.69c-1.39,0-2.78-.05-4.18-0.05-2.2,0-3.36.58-3.36,2.9,0,1.51.06,2.96,0.06,4.41v16.35c0,1.8-.06,3.66-0.06,5.51,0,1.22.58,1.16,2.67,1.16h0.81a2.178,2.178,0,0,0,1.74-.4,1.649,1.649,0,0,1,1.1-.87h6.73c1.63,0,2.67-.18,2.67,1.56a55.69,55.69,0,0,1-1.28,10.27c-0.69,3.08-1.33,3.66-3.94,3.66-1.05,0-2.21-.12-2.5-0.12-0.81,0-1.04.75-1.04,2.09,0,3.19,1.33,3.65,3.02,3.65,4.29,0,6.84-.69,8.52-4.99,1.63-4.06,2.5-13.28,2.5-17.75,0-1.91-.06-3.19-2.84-3.19-0.76,0-1.45.06-2.21,0.06a1.322,1.322,0,0,1-1.51-1.56v-0.7a1.408,1.408,0,0,1,1.63-1.63c1.16,0,2.78.12,3.42,0.12,1.04,0,1.04-.7,1.04-2.15,0-1.62,0-2.2-1.1-2.2-0.81,0-2.2.17-3.59,0.12a1.2,1.2,0,0,1-1.4-1.4v-0.81a1.214,1.214,0,0,1,1.4-1.39c0.87,0,1.74.06,2.61,0.06a0.327,0.327,0,0,1,.23.4c-0.06,1.28,2.26,4.06,3.48,4.06,0.75,0,2.61-1.5,3.25-2.03a0.652,0.652,0,0,1,.34-0.11A0.579,0.579,0,0,1,2746.97,1408.36Zm48.2-17.23c-0.58,0-.7.58-0.82,1.22a31.321,31.321,0,0,1-3.13,7.48c-0.52.7-2.09,0.76-3.59,0.76h-1.69c-1.68,0-3.19-.12-4.17-0.12-1.45,0-1.69.35-1.69,2.67,0,2.96.24,3.25,1.51,3.25,1.8,0,3.13-.18,4.06-0.18,0.82,0,1.28.18,1.28,0.7,0,1.1-8.41,12.76-9.75,14.21a2.417,2.417,0,0,0-.75,1.28c0,1.04,3.89,3.36,4.93,3.36a0.951,0.951,0,0,0,.81-0.58,38,38,0,0,1,4.88-6.79c2.26-2.32,7.59-5.1,10.84-5.1a2.4,2.4,0,0,1,2.55,1.97,7.755,7.755,0,0,1,.29,1.63,1.483,1.483,0,0,1-1.04,1.33c-1.22.58-2.44,1.22-3.6,1.91-4,2.38-8.23,5.22-8.23,10.44,0,3.95,2.26,6.73,5.8,8.3a21.538,21.538,0,0,0,9.16,1.51c2.5,0,8.94-.23,11.14-0.76,1.28-.29,1.33-0.75,1.33-2.49,0-3.31-.4-3.95-1.16-3.95a7,7,0,0,0-1.16.12,42.31,42.31,0,0,1-10.79,1.45c-2.78,0-8.41-.35-8.41-4.23,0-3.6,5.98-6.15,6.27-6.15a0.8,0.8,0,0,1,.75.98c0,1.22-.11,2.5-0.11,3.77,0,1.51,1.04,1.63,3.54,1.63,2.2,0,2.49-.23,2.49-2.32,0-1.8-.06-3.54-0.06-5.34v-0.75c0-1.16.47-1.51,1.51-1.92,2.26-.98,4.52-1.97,6.84-2.84,0.29-.11.58-0.17,0.82-0.29,1.1-.35,1.74-0.58,1.74-1.27,0-.99-1.4-5.46-2.5-5.46a4.971,4.971,0,0,0-1.51.58c-0.92.52-6.09,3.31-6.78,3.31a0.961,0.961,0,0,1-.87-0.99c-0.76-3.65-2.9-5.22-6.62-5.22a16.056,16.056,0,0,0-6.32,1.51,2.26,2.26,0,0,1-1.04.35,0.46,0.46,0,0,1-.47-0.41,18.718,18.718,0,0,1,1.98-3.36,2.044,2.044,0,0,1,1.74-.93c3.65-.41,7.3-1.04,10.96-1.8,1.22-.23,3.07-0.46,3.07-1.45a18.889,18.889,0,0,0-.46-3.13c-0.17-.81-0.46-1.74-1.45-1.74a4.27,4.27,0,0,0-1.45.35,42.669,42.669,0,0,1-6.73,1.62,0.562,0.562,0,0,1-.64-0.58,3.936,3.936,0,0,1,.58-1.33c0.76-1.34.99-1.63,1.92-1.98a0.917,0.917,0,0,0,.69-0.69C2801.66,1393.8,2795.69,1391.13,2795.17,1391.13Zm39.38,42.29a1.373,1.373,0,0,0,.11.52q0.96,2.085,1.92,4.18c0.34,0.69.81,1.97,1.45,1.97a0.794,0.794,0,0,0,.58-0.35,3.193,3.193,0,0,1,2.2-1.68c7.08-2.55,14.44-6.44,19.84-11.72a51.11,51.11,0,0,0,10.73-16.42c0.06-.23.23-0.52,0.35-0.92a12.717,12.717,0,0,0,.75-2.27c0-1.16-3.48-4.35-4.35-4.35-0.75,0-.98.82-1.22,1.4-2.26,6.32-5.22,12.58-9.91,17.51-4.24,4.35-8.82,6.85-14.45,9.11a69.1,69.1,0,0,1-6.9,2.32C2835.3,1432.84,2834.55,1432.95,2834.55,1433.42Zm-4.12-21.12a1.414,1.414,0,0,0,.98.99,101.727,101.727,0,0,1,9.23,5.86,3.212,3.212,0,0,0,1.33.64c1.16,0,3.48-3.43,3.48-4.47,0-.93-2.96-2.55-4.52-3.48-0.99-.64-6.44-4-7.2-4C2832.63,1407.84,2830.43,1411.37,2830.43,1412.3Zm15.49-14.03c-1.57-1.05-4.35-2.96-5.05-2.96-1.04,0-3.54,3.19-3.54,4a1.556,1.556,0,0,0,.99,1.1,88.518,88.518,0,0,1,8.52,6.15,2.94,2.94,0,0,0,1.45.75c1.05,0,3.48-3.24,3.48-4.29a1.37,1.37,0,0,0-.63-0.98c-1.05-.87-3.14-2.32-4.35-3.19C2846.61,1398.73,2846.32,1398.5,2845.92,1398.27Zm49.76,10.73c-2.15,0-3.94-.12-5.51-0.12s-1.57.87-1.57,3.07c0,1.57.06,2.32,1.57,2.32,1.86,0,3.71-.05,5.51-0.05h3.13a1.729,1.729,0,0,1,1.74,1.68v11.14a1.7,1.7,0,0,1-1.74,1.68h-6.2c-1.92,0-3.95-.12-5.86-0.12-1.45,0-1.4,1.1-1.4,2.9,0,1.45,0,2.55,1.51,2.55,1.92,0,3.83-.11,5.75-0.11h21.11c1.91,0,3.83.11,5.74,0.11,1.45,0,1.51-1.04,1.51-2.55,0-1.8.06-2.9-1.39-2.9-1.97,0-3.95.12-5.86,0.12h-6.21a1.7,1.7,0,0,1-1.74-1.68V1415.9a1.729,1.729,0,0,1,1.74-1.68h3.14c1.79,0,3.65.05,5.51,0.05,1.5,0,1.56-.69,1.56-2.32,0-2.14,0-3.07-1.56-3.07-1.45,0-3.54.12-5.51,0.12h-14.97Zm56.84-.35c-0.58,0-.58.29-0.58,0.75a31.272,31.272,0,0,1-.93,8.65,27.494,27.494,0,0,1-12.12,16.88c-0.81.52-1.39,0.75-1.39,1.27,0,1.05,3.77,4.06,4.75,4.06a4.161,4.161,0,0,0,1.92-1.04c8.64-6.67,12.24-14.04,13.92-24.66,0.17-1.1.4-3.36,1.16-4.17a0.923,0.923,0,0,0,.35-0.58c0-.64-0.82-0.64-1.22-0.7C2957.51,1409,2953.27,1408.65,2952.52,1408.65Zm-10.15-8.82c-2.67,0-5.34-.11-8.01-0.11-1.33,0-1.45.69-1.45,2.2v1.16c0,2.32.06,2.96,1.57,2.96,2.61,0,5.22-.18,7.89-0.18h24.88c0.53,0,1.8-.11,1.8.7s-6.44,6.5-7.48,7.42c-0.41.35-1.45,1.17-1.45,1.75,0,0.98,3.25,3.53,4.23,3.53a2.319,2.319,0,0,0,1.4-.81c2.14-1.91,5.16-4.87,7.19-6.96,0.69-.75,5.04-5.28,5.39-5.57a2.608,2.608,0,0,0,1.28-1.56c0-1.05-1.45-2.61-2.15-3.37s-1.27-1.51-2.14-1.51a3.005,3.005,0,0,0-.76.06,41.58,41.58,0,0,1-6.03.29h-26.16Zm54.75-4.52c-0.81,0-.87.58-0.87,1.45v0.64c0,2.37-.52,7.94-0.69,10.61q-0.525,6.87-.53,13.75c0,4.23.29,9.86,2.9,13.34,2.38,3.07,6.38,4.47,10.21,4.47,7.54,0,14.16-4.59,17.64-11.08,0.81-1.51,2.37-5.17,2.37-6.79,0-1.74-3.53-4.7-4.81-4.7-0.87,0-.99.99-1.16,1.92a18.317,18.317,0,0,1-3.54,8.58,14.693,14.693,0,0,1-10.9,5.63c-6.27,0-6.15-7.02-6.15-11.55,0-3.3.52-21.69,2.55-23.2a1.252,1.252,0,0,0,.7-0.87,1.213,1.213,0,0,0-1.16-.81A48.82,48.82,0,0,0,2997.12,1395.31Z" transform="translate(-2495.38 -1390.56)"/>
</svg>
