<svg xmlns="http://www.w3.org/2000/svg" width="385.999" height="32.94" viewBox="0 0 385.999 32.94">
  <defs>
    <style>
      .cls-1 {
        fill-rule: evenodd;
      }
    </style>
  </defs>
  <path id="それは_自らアウトプットし" data-name="それは、自らアウトプットし" class="cls-1" d="M996.473,1137.52a2.6,2.6,0,0,0-.829.33c-1.693.79-7.854,1.66-9.908,1.84-0.649.07-1.009,0.1-1.009,0.79s0.468,3.31,1.369,3.31a3.082,3.082,0,0,0,.829-0.18c0.54-.14,4.287-1.15,4.576-1.15a0.3,0.3,0,0,1,.324.29,0.668,0.668,0,0,1-.252.43c-2.847,2.63-6.558,6.16-9.584,8.5a4.6,4.6,0,0,1-2.306,1.09c-1.189.28-1.658,0.32-1.658,0.86,0,0.68.649,3.17,1.478,3.17a3,3,0,0,0,.973-0.29c1.441-.57,4.9-1.73,6.377-2.16,0.4-.11,2.27-0.65,2.522-0.65a0.345,0.345,0,0,1,.36.33,0.432,0.432,0,0,1-.18.32c-1.729,1.55-3.135,3.14-3.135,5.62,0,3.1,2.342,5.05,5.008,6.05a17.665,17.665,0,0,0,4.828,1.12,1.028,1.028,0,0,0,1.081-.72,14.027,14.027,0,0,0,.649-2.63c0-.47-0.36-0.47-0.721-0.5-2.306-.15-6.989-0.58-6.989-3.72,0-2.63,2.81-4.86,4.864-6.08a19.7,19.7,0,0,1,7.42-2.45c1.08-.15,1.44-0.15,1.44-0.83,0-.33-0.29-2.45-0.36-2.78a0.651,0.651,0,0,0-.5-0.54,2.032,2.032,0,0,0-.43.07c-1.27.4-13.263,3.61-13.7,3.61a0.293,0.293,0,0,1-.325-0.25,1.03,1.03,0,0,1,.4-0.58c1.693-1.37,7.314-6.45,8.647-7.21,0.756-.43,1.477-0.75,1.477-1.26C999.211,1140.44,997.554,1137.52,996.473,1137.52Zm22.007-.72a0.454,0.454,0,0,0-.57.51c0,0.25.03,0.68,0.03,1.12,0,1.58-.14,3.74-0.14,4.72a2.415,2.415,0,0,1-.18,1.08c-0.43.86-5.01,1.65-6.09,1.8-0.43.07-1.19,0.07-1.19,0.65a10.622,10.622,0,0,0,.76,2.45,1.277,1.277,0,0,0,1.04,1.01,24.943,24.943,0,0,0,4.36-1.48,2.259,2.259,0,0,1,.65-0.18,0.477,0.477,0,0,1,.47.54c0,0.29-.07.61-0.07,0.94a3.467,3.467,0,0,1-.44,1.69c-1.65,2.99-3.35,5.94-5.29,8.79a3.788,3.788,0,0,0-.72,1.3c0,0.61,2.09,2.37,2.7,2.37a0.613,0.613,0,0,0,.47-0.43c0.36-.68,1.48-2.63,1.87-3.28a2.346,2.346,0,0,1,.87-1.08,0.408,0.408,0,0,1,.32.47c0,1.62-.22,5.62-0.22,5.95,0,0.72.65,0.72,1.52,0.72,2.66,0,2.63-.36,2.63-0.62,0-.39-0.11-2.34-0.18-3.82-0.04-.61-0.11-1.69-0.11-1.9,0-.83-0.14-5.23,0-5.7a12.347,12.347,0,0,1,2.02-2.3,36.268,36.268,0,0,1,3.92-3.5,5.5,5.5,0,0,1,2.81-1.44c1.09,0,1.09,1.26,1.09,2.05,0,3.25-.47,6.53-0.47,9.77,0,2.27.29,5.76,3.31,5.76a9.285,9.285,0,0,0,5.08-2.09c0.4-.28,1.73-1.22,1.73-1.73,0-.57-1.04-3.27-1.66-3.27a1.033,1.033,0,0,0-.68.39c-0.65.72-2.2,2.27-3.17,2.27-0.83,0-.79-1.26-0.79-2.12,0-1.52.1-3.14,0.18-4.69,0.1-1.84.18-3.71,0.18-5.58a6.613,6.613,0,0,0-.65-3.43,3.888,3.888,0,0,0-3.1-1.58c-1.98,0-3.78,1.3-5.22,2.56-0.87.72-2.31,2.02-3.07,2.81a0.5,0.5,0,0,1-.29.18,0.3,0.3,0,0,1-.28-0.36,2.632,2.632,0,0,1,.07-0.58c0.11-.25.79-1.51,0.97-1.76a0.931,0.931,0,0,0,.22-0.4,2.6,2.6,0,0,0-1.23-1.66,0.619,0.619,0,0,1-.57-0.61c0-.5.25-2.27,0.32-2.88,0.22-1.48.18-1.59,0.65-1.98a0.853,0.853,0,0,0,.29-0.55,0.5,0.5,0,0,0-.4-0.39C1021.87,1137.2,1018.88,1136.8,1018.48,1136.8Zm43.56,23.42c0,1.48-.9,1.99-2.27,1.99-0.9,0-2.63-.4-2.63-1.55,0-1.12,1.77-1.41,2.59-1.41C1060.42,1159.25,1062.04,1159.29,1062.04,1160.22Zm-0.72-21.83a0.444,0.444,0,0,0-.51.5c0,0.11.04,0.26,0.04,0.36,0.14,0.91.43,4.4,0.43,5.16,0,0.79-.83.86-1.69,0.86h-0.58c-1.87,0-5.08-.36-5.51-0.36-0.54,0-.58.43-0.58,0.9s0.04,2.52.36,2.74a8.083,8.083,0,0,0,2.74.29h0.47c1.44,0,4-.15,4.29-0.15,0.9,0,.83,1.01.86,1.37,0.04,1.05.22,4.47,0.22,5.37a0.661,0.661,0,0,1-.72.76h-0.25a9.567,9.567,0,0,0-1.41-.11c-2.81,0-5.66,1.3-5.66,4.54,0,3.31,3.14,4.68,6.02,4.68,2.16,0,4.58-.72,5.23-3.02a0.588,0.588,0,0,1,.54-0.58c0.46,0,2.27,1.59,2.66,1.98a1.683,1.683,0,0,0,1.01.54c0.83,0,2.09-1.65,2.09-2.48a1.9,1.9,0,0,0-.94-1.37,19.794,19.794,0,0,0-3.89-2.52c-0.79-.4-1.15-0.47-1.22-1.41-0.04-.94-0.29-6.45-0.29-7.17,0-.9.43-1.04,1.23-1.15,4.25-.58,4.5-0.83,4.5-1.52,0-.54-0.25-3.02-0.97-3.02a2.465,2.465,0,0,0-.54.11,23.511,23.511,0,0,1-3.61.9,0.794,0.794,0,0,1-.75-0.94v-1.01a5.143,5.143,0,0,1,.39-2.56,1.418,1.418,0,0,0,.4-0.72,0.352,0.352,0,0,0-.36-0.32A34.216,34.216,0,0,0,1061.32,1138.39Zm-11.46,1.19a14.171,14.171,0,0,0-2.3-.94,0.58,0.58,0,0,0-.47.61c-0.4,1.59-.9,3.14-1.3,4.72a41.383,41.383,0,0,0-1.26,10.09,25.973,25.973,0,0,0,2.12,11.1,1.644,1.644,0,0,0,1.16,1.19c0.18,0,2.74-.43,2.74-1.84,0-.58-0.08-1.15-0.08-1.73,0-2.09,1.77-6.05,1.77-6.56a2.236,2.236,0,0,0-1.55-1.15c-0.43,0-.79,1.19-0.97,1.59-0.36.83-.54,1.29-0.8,1.29-0.68,0-.79-3.42-0.79-4a33.432,33.432,0,0,1,1.98-10.95,2.581,2.581,0,0,1,1.48-1.84,0.383,0.383,0,0,0,.33-0.36,1.314,1.314,0,0,0-.94-0.72C1050.76,1140.01,1050.33,1139.79,1049.86,1139.58Zm25.25,21.04a1.023,1.023,0,0,0,.65.68,22.264,22.264,0,0,1,5.48,4.9,1.16,1.16,0,0,0,.72.54c0.83,0,2.63-1.98,2.63-2.77,0-.9-6.2-5.87-7.03-5.87A4.935,4.935,0,0,0,1075.11,1160.62Zm25.48-1.37a1.025,1.025,0,0,1,1-1.01h13.62a1.007,1.007,0,0,1,1.01,1.01v2.09a1.007,1.007,0,0,1-1.01,1.01h-13.62a1.025,1.025,0,0,1-1-1.01v-2.09Zm0-6.92a1,1,0,0,1,1-1.01h13.62a0.989,0.989,0,0,1,1.01,1.01v1.77a1.007,1.007,0,0,1-1.01,1.01h-13.62a1.025,1.025,0,0,1-1-1.01v-1.77Zm1-4.18a1,1,0,0,1-1-1.01v-1.65a1,1,0,0,1,1-1.01h13.62a0.983,0.983,0,0,1,1.01,1.01v1.65a0.983,0.983,0,0,1-1.01,1.01h-13.62Zm0.22-7.13c-1.08,0-2.16-.07-3.24-0.07-1.3,0-1.88.39-1.88,1.76,0,1.08.08,2.16,0.08,3.28v17.3c0,1.26-.08,2.55-0.08,3.82,0,1.04.47,1,2.02,1,1.52,0,1.98,0,1.98-1v-0.47a0.826,0.826,0,0,1,.98-0.94h13.51a0.833,0.833,0,0,1,.97.97v0.51c0,1.01.4,1.01,1.98,1.01s2.02,0,2.02-1.01c0-1.26-.07-2.52-0.07-3.82v-17.37c0-1.22.07-2.2,0.07-2.95,0-1.48-.29-2.09-1.91-2.09-1.08,0-2.13.07-3.21,0.07h-5.87a0.544,0.544,0,0,1-.61-0.5,0.472,0.472,0,0,1,.11-0.33c0.39-.72.75-1.44,1.15-2.16a0.634,0.634,0,0,1,.58-0.36c0.28-.07.61-0.07,0.61-0.47a1.036,1.036,0,0,0-.9-0.72,16.6,16.6,0,0,0-3.17-.76,0.627,0.627,0,0,0-.51.54,29.751,29.751,0,0,1-1.76,3.93,1.285,1.285,0,0,1-1.44.83h-1.41Zm31.88,2.59c-0.57,0-.61.54-0.61,1.59,0,0.25-.03.5-0.03,0.79a57.793,57.793,0,0,1-.87,7.86c-0.22,1.19-.5,2.37-0.83,3.53a5.43,5.43,0,0,0-.36,1.26c0,1.04,2.42,1.4,2.74,1.4a1.465,1.465,0,0,0,1.08-.75c2.27-2.85,6.09-6.02,9.87-6.02,2.31,0,4.33,1.33,4.33,3.82,0,3.06-2.67,4.18-5.23,4.83a24.319,24.319,0,0,1-4.79.72c-0.47.03-.9,0.07-0.9,0.65a7.558,7.558,0,0,0,.61,2.34,1.287,1.287,0,0,0,1.33,1.01,23.747,23.747,0,0,0,4.69-.98c4.36-1.29,8.18-3.45,8.18-8.57,0-4.54-3.43-7.5-7.86-7.5-3.42,0-5.58,1.45-8.25,3.32a0.792,0.792,0,0,1-.47.22,0.386,0.386,0,0,1-.36-0.44,6.458,6.458,0,0,1,.11-0.75c0.36-1.66.58-3.35,0.87-5.01a1.648,1.648,0,0,1,.75-1.41,0.463,0.463,0,0,0,.33-0.39,0.82,0.82,0,0,0-.65-0.51A26.4,26.4,0,0,0,1133.69,1143.61Zm2.31-4.14a1.2,1.2,0,0,0,.83.79,29.42,29.42,0,0,1,4.54,3.07,2.64,2.64,0,0,0,1.15.72c0.76,0,2.23-2.2,2.23-2.85,0-.61-2.09-1.77-2.63-2.09-0.64-.4-3.56-2.27-4.1-2.27C1137.15,1136.84,1136,1139,1136,1139.47Zm35.88,7.42c-0.36,0-.36.18-0.36,0.47a19.153,19.153,0,0,1-.58,5.37,17.027,17.027,0,0,1-7.53,10.48,1.347,1.347,0,0,0-.86.8c0,0.65,2.34,2.52,2.95,2.52a2.539,2.539,0,0,0,1.19-.65c5.37-4.14,7.61-8.72,8.65-15.31a6.214,6.214,0,0,1,.72-2.6,0.517,0.517,0,0,0,.22-0.36c0-.39-0.51-0.39-0.76-0.43C1174.98,1147.11,1172.35,1146.89,1171.88,1146.89Zm-6.3-5.47c-1.66,0-3.32-.08-4.98-0.08-0.82,0-.9.44-0.9,1.37v0.72c0,1.44.04,1.84,0.98,1.84,1.62,0,3.24-.11,4.9-0.11h15.45c0.33,0,1.12-.07,1.12.44s-4,4.03-4.65,4.61a2.34,2.34,0,0,0-.9,1.08c0,0.61,2.02,2.2,2.63,2.2a1.455,1.455,0,0,0,.87-0.51c1.33-1.19,3.2-3.02,4.46-4.32,0.44-.47,3.14-3.28,3.35-3.46a1.649,1.649,0,0,0,.8-0.97,4.479,4.479,0,0,0-1.34-2.09,2.048,2.048,0,0,0-1.33-.94,1.754,1.754,0,0,0-.47.04,25.82,25.82,0,0,1-3.74.18h-16.25Zm34.8,2.16c-1.34,0-2.67-.04-3.97-0.04-1.69,0-1.76.47-1.76,1.52,0,0.61.03,1.22,0.03,1.87v4.97c0,0.9-.03,1.8-0.03,2.7,0,0.87.25,0.94,1.8,0.94,1.87,0,2.2,0,2.2-1.01,0-.61-0.07-1.8-0.07-2.74v-3.6a1,1,0,0,1,1-1.01h13.98c0.69,0,1.41.07,1.41,0.94a20.513,20.513,0,0,1-1.59,5.73,21.754,21.754,0,0,1-11.06,10.55,0.788,0.788,0,0,0-.65.62c0,0.57,1.55,2.77,2.38,2.77,1.23,0,5.73-3.46,6.81-4.36,5.08-4.4,7.06-9.01,8.29-15.46,0.11-.46.22-0.93,0.36-1.4a4.57,4.57,0,0,0,.22-0.94c0-.5-0.4-0.79-1.05-1.4a2.263,2.263,0,0,0-1.33-.76,4.288,4.288,0,0,0-.72.04,13.185,13.185,0,0,1-1.73.07h-5.23a0.989,0.989,0,0,1-1.01-1.01v-1.55c0-2.09-.03-2.52.4-2.88a1.257,1.257,0,0,0,.43-0.54c0-.4-1.08-0.44-1.33-0.44-0.36,0-2.7-.18-3.06-0.18-0.25,0-.54.04-0.54,0.36a2.376,2.376,0,0,0,.03.44,32.252,32.252,0,0,1,.15,3.31v1.48a0.989,0.989,0,0,1-1.01,1.01h-3.35Zm35.27,4.57a0.4,0.4,0,0,1-.33.15,0.31,0.31,0,0,1-.29-0.36v-5.41c0-.9-0.03-1.58-0.03-2.12a2.839,2.839,0,0,1,.4-1.91,1.124,1.124,0,0,0,.18-0.47c0-.51-1.48-0.65-3.1-0.87-0.26-.03-1.01-0.14-1.23-0.14a0.431,0.431,0,0,0-.47.54c0,0.14.04,0.47,0.04,0.65,0.04,0.9.11,1.87,0.11,2.81v20.54c0,1.62-.11,3.24-0.11,4.86,0,1.19.61,1.23,2.05,1.23,2.2,0,2.24-.22,2.24-1.88,0-1.44-.08-2.84-0.08-4.29v-9.83a0.485,0.485,0,0,1,.44-0.58,0.61,0.61,0,0,1,.36.15,52.792,52.792,0,0,1,5.22,4.21,1.32,1.32,0,0,0,.79.47c0.73,0,2.42-1.87,2.42-2.49s-2.02-2.16-2.52-2.59c-0.72-.61-4.33-3.46-5.05-3.46A1.9,1.9,0,0,0,1235.65,1148.15Zm21.9-6.7c-1.55,0-3.1-.07-4.65-0.07-1.04,0-1.01.4-1.01,2.05,0,1.63,0,1.95,1.08,1.95,1.52,0,3-.07,4.51-0.07h12.82c0.65,0,1.27.07,1.27,0.75,0,0.22-.08.65-0.11,0.9a16.936,16.936,0,0,1-5.88,10.49,25.635,25.635,0,0,1-8.97,4.76,0.626,0.626,0,0,0-.64.57c0,0.58,1.26,2.99,2.12,2.99a4.32,4.32,0,0,0,1.19-.29,33.168,33.168,0,0,0,6.92-3.71c5.69-3.96,8.36-8.72,9.55-15.49,0.25-1.41.54-1.77,0.54-2.09a4.24,4.24,0,0,0-1.23-1.66,2.814,2.814,0,0,0-1.73-1.15c-0.32,0-1.19.07-1.8,0.07h-13.98Zm20.75-4.57a1.938,1.938,0,0,1,1.95,1.94A1.93,1.93,0,1,1,1278.3,1136.88Zm0-1.63a3.57,3.57,0,0,0,0,7.14A3.57,3.57,0,1,0,1278.3,1135.25Zm26.27,11.1c-0.4,0-.44.4-0.47,0.72a20.89,20.89,0,0,1-2.96,8.18c-2.59,4.22-6.52,6.34-11.17,7.6a0.632,0.632,0,0,0-.57.65c0,0.51,1.33,2.49,2.01,2.49a6.362,6.362,0,0,0,1.12-.29,20.579,20.579,0,0,0,9.8-6.27,26.874,26.874,0,0,0,4.94-10.09,1.108,1.108,0,0,1,.47-0.75,0.819,0.819,0,0,0,.43-0.54,0.809,0.809,0,0,0-.65-0.65A24.618,24.618,0,0,0,1304.57,1146.35Zm-6.38,1.3c-0.61-1.01-1.3-2.02-1.8-2.02-0.47,0-2.42.9-2.42,1.51a1.208,1.208,0,0,0,.33.73,39.269,39.269,0,0,1,2.52,4.25,0.971,0.971,0,0,0,.72.68c0.5,0,2.59-.94,2.59-1.66a14.008,14.008,0,0,0-1.62-2.95Zm-9.12,0c-0.47,0-2.41.9-2.41,1.55a1.333,1.333,0,0,0,.29.65,35.494,35.494,0,0,1,2.59,4.36,0.875,0.875,0,0,0,.69.61c0.43,0,2.59-.9,2.59-1.66a13.12,13.12,0,0,0-1.55-2.84c-0.36-.58-1.19-1.88-1.58-2.35A0.81,0.81,0,0,0,1289.07,1147.65Zm34.12,0.5a0.391,0.391,0,0,1-.32.15,0.3,0.3,0,0,1-.29-0.36v-5.41c0-.9-0.04-1.58-0.04-2.12a2.839,2.839,0,0,1,.4-1.91,1.124,1.124,0,0,0,.18-0.47c0-.51-1.48-0.65-3.1-0.87-0.25-.03-1.01-0.14-1.23-0.14-0.36,0-.46.18-0.46,0.54,0,0.14.03,0.47,0.03,0.65,0.04,0.9.11,1.87,0.11,2.81v20.54c0,1.62-.11,3.24-0.11,4.86,0,1.19.61,1.23,2.06,1.23,2.19,0,2.23-.22,2.23-1.88,0-1.44-.07-2.84-0.07-4.29v-9.83a0.484,0.484,0,0,1,.43-0.58,0.61,0.61,0,0,1,.36.15,51.654,51.654,0,0,1,5.22,4.21,1.315,1.315,0,0,0,.8.47c0.72,0,2.41-1.87,2.41-2.49s-2.02-2.16-2.52-2.59c-0.72-.61-4.32-3.46-5.05-3.46A1.9,1.9,0,0,0,1323.19,1148.15Zm21.58-9.54c-0.51,0-.54.36-0.54,0.9v0.39c0,1.48-.33,4.94-0.43,6.6q-0.33,4.26-.33,8.54c0,2.63.18,6.12,1.8,8.28a7.978,7.978,0,0,0,6.34,2.78,12.613,12.613,0,0,0,10.96-6.89,13.389,13.389,0,0,0,1.47-4.21c0-1.08-2.19-2.92-2.99-2.92-0.54,0-.61.61-0.72,1.19a11.427,11.427,0,0,1-2.19,5.33,9.148,9.148,0,0,1-6.78,3.5c-3.89,0-3.82-4.36-3.82-7.17,0-2.06.33-13.48,1.59-14.41a0.793,0.793,0,0,0,.43-0.55,0.756,0.756,0,0,0-.72-0.5A29.977,29.977,0,0,0,1344.77,1138.61Z" transform="translate(-978.031 -1135.25)"/>
</svg>
