<svg xmlns="http://www.w3.org/2000/svg" width="403.191" height="38.32" viewBox="0 0 403.191 38.32">
  <defs>
    <style>
      .cls-1 {
        fill-rule: evenodd;
      }
    </style>
  </defs>
  <path id="text-connect-5.svg" class="cls-1" d="M950.4,5113.09a31.624,31.624,0,0,1-4.158,12.64,33.764,33.764,0,0,1-11.8,11.81,0.982,0.982,0,0,0-.714.71c0,0.97,1.176,3.36,2.267,3.36a4.741,4.741,0,0,0,2.016-1.01,38.648,38.648,0,0,0,14.07-17.13,0.4,0.4,0,0,1,.8,0,38.138,38.138,0,0,0,10.835,15.24c0.714,0.59,4.116,3.32,4.83,3.32,1.134,0,2.73-2.35,2.73-3.4a0.905,0.905,0,0,0-.588-0.8,30.324,30.324,0,0,1-15.582-26.67v-2.81c0-1.6-.377-2.48-2.1-2.48-0.672,0-1.344.04-2.058,0.04h-4.578c-1.008,0-2.058-.08-3.024-0.08-1.092,0-1.05.5-1.05,2.1,0,1.64-.042,2.18,1.05,2.18,1.008,0,2.016-.08,3.024-0.08h2.9c1.176,0,1.176.38,1.176,1.85A11.649,11.649,0,0,1,950.4,5113.09Zm39.564,17.43a0.924,0.924,0,0,1,.84-0.59,0.589,0.589,0,0,0,.63-0.5,0.6,0.6,0,0,0-.5-0.5,0.328,0.328,0,0,1-.21-0.17c0-.09.042-0.09,0.168-0.09h10.457c1.76,0,3.49.09,5.25,0.09,0.97,0,.92-0.76.92-2.06,0-1.34.05-2.1-.92-2.1-1.76,0-3.49.08-5.25,0.08H981.517c-1.722,0-3.486-.08-5.208-0.08-0.966,0-.924.71-0.924,2.1,0,1.3-.042,2.06.924,2.06,1.722,0,3.486-.09,5.208-0.09h3.318a0.7,0.7,0,0,1,.8.63,0.979,0.979,0,0,1-.084.38c-1.008,2.14-1.974,4.2-3.15,6.26a1.6,1.6,0,0,1-1.638,1.01l-1.932.12c-1.806.13-2.1,0-2.1,0.59a24.086,24.086,0,0,0,.672,2.9c0.294,0.97.42,1.55,0.882,1.55a0.608,0.608,0,0,0,.462-0.33,0.928,0.928,0,0,1,.8-0.59c4.032-.29,6.93-0.55,10.458-0.84,3.444-.29,6.845-0.63,10.289-0.97,0.08,0,.17-0.04.29-0.04a1.476,1.476,0,0,1,1.35.88c0.21,0.3.38,0.59,0.5,0.8,0.63,1.01.84,1.35,1.35,1.35,0.67,0,3.36-1.05,3.36-1.85,0-.59-2.9-4.66-3.45-5.42-0.96-1.39-2.27-3.11-3.36-4.41a1.2,1.2,0,0,0-.964-0.59c-0.714,0-3.192,1.18-3.192,1.89a15.665,15.665,0,0,0,1.848,2.52,0.941,0.941,0,0,1,.378.72,0.544,0.544,0,0,1-.588.58c-3.318.34-6.635,0.59-9.911,0.76a0.551,0.551,0,0,1-.672-0.55,0.568,0.568,0,0,1,.126-0.37C988.2,5134.13,989.2,5132.12,989.959,5130.52Zm2.31-20.41a60.48,60.48,0,0,0,6.3,6.47,0.51,0.51,0,0,1,.168.34,0.467,0.467,0,0,1-.462.42c-1.008.04-1.974,0.04-2.94,0.04h-7.685c-0.924,0-1.848-.04-2.772-0.04a0.429,0.429,0,0,1-.42-0.42,0.38,0.38,0,0,1,.168-0.34,52.919,52.919,0,0,0,6.258-6.43,0.915,0.915,0,0,1,.672-0.37A0.892,0.892,0,0,1,992.269,5110.11Zm-9.408,9.28c0,1.18,0,1.93.84,1.93,1.176,0,2.646-.08,3.948-0.08h7.685c1.26,0,2.856.08,3.906,0.08,0.8,0,.88-0.54.88-1.59v-0.88a0.519,0.519,0,0,1,.46-0.55,0.38,0.38,0,0,1,.3.13c1.22,0.88,6.51,4.53,7.73,4.53,0.92,0,2.05-2.43,2.05-3.23,0-.51-0.42-0.63-1.38-1.09a41.3,41.3,0,0,1-14.912-11.97,0.21,0.21,0,0,1-.042-0.17,0.259,0.259,0,0,1,.21-0.25,0.824,0.824,0,0,0,.8-0.63,0.708,0.708,0,0,0-.63-0.59c-0.671-.17-3.863-0.97-4.325-0.97a1.073,1.073,0,0,0-.8.68c-3.318,5.83-9.87,11.08-15.749,14.19a1.431,1.431,0,0,0-1.092.97c0,0.88,1.344,2.98,2.267,2.98,1.218,0,5.88-3.36,7.014-4.24a0.558,0.558,0,0,1,.378-0.13,0.518,0.518,0,0,1,.462.55v0.33Zm49.849,12.52a0.487,0.487,0,0,1,.42-0.51,0.53,0.53,0,0,1,.34.17,43.293,43.293,0,0,0,7.94,6.47c0.84,0.5,4.74,2.69,5.5,2.69,0.88,0,2.44-2.02,2.44-2.82,0-.46-0.59-0.67-1.14-0.92a37.6,37.6,0,0,1-11.25-7.1,0.441,0.441,0,0,1-.17-0.38,0.477,0.477,0,0,1,.5-0.42h5.21c1.64,0,3.28.13,4.91,0.13,1.01,0,1.01-.42,1.01-1.89,0-1.39,0-1.81-1.01-1.81-1.63,0-3.27.09-4.91,0.09h-8.61a1.009,1.009,0,0,1-1.18-1.09c0-1.26.05-1.68,0.51-2.02a0.772,0.772,0,0,0,.54-0.55c0-.37-0.63-0.42-0.92-0.46-0.8-.04-3.07-0.25-3.78-0.25-0.38,0-.8.04-0.8,0.55a0.935,0.935,0,0,0,.04.33,14.07,14.07,0,0,1,.13,2.31,1,1,0,0,1-1.13,1.18h-8.7c-1.63,0-3.27-.09-4.91-0.09-1.01,0-.97.42-0.97,1.81,0,1.47-.04,1.89.97,1.89,1.64,0,3.28-.13,4.91-0.13h5.21c0.08,0.05.55,0.05,0.55,0.42a0.635,0.635,0,0,1-.17.38,40.194,40.194,0,0,1-10.88,6.76c-1.01.47-1.59,0.68-1.59,1.14,0,0.75,1.51,2.98,2.31,2.98a4.835,4.835,0,0,0,1.63-.59c0.13-.08.26-0.12,0.34-0.17a41.426,41.426,0,0,0,11.67-8.27,0.663,0.663,0,0,1,.38-0.17,0.415,0.415,0,0,1,.38.51v4.57c0,1.52-.08,2.99-0.08,4.29,0,1.26.58,1.26,2.26,1.26s2.23,0,2.23-1.26c0-1.43-.13-2.86-0.13-4.29v-4.74Zm-2.64-18.19a31.444,31.444,0,0,1-2.65-2.22,0.615,0.615,0,0,1-.12-0.38,0.433,0.433,0,0,1,.54-0.42h5.55c0.67,0,1.3.04,1.3,0.38,0,0.59-2.31,2.27-2.86,2.64A1.309,1.309,0,0,1,1030.07,5113.72Zm1.55,5.42a59.2,59.2,0,0,0,13.27,4.83,13.92,13.92,0,0,0,2.27.42c1.35,0,2.02-2.1,2.02-2.98s-0.51-.88-1.22-1.01a50.707,50.707,0,0,1-12.52-3.53,0.689,0.689,0,0,1-.37-0.54,0.758,0.758,0,0,1,.33-0.59c1.3-.88,6.05-4.33,6.05-5.88a3.371,3.371,0,0,0-2.98-2.52c-1.22,0-2.44.04-3.7,0.04h-5.63a0.437,0.437,0,0,1-.5-0.42,0.514,0.514,0,0,1,.13-0.33,0.97,0.97,0,0,1,.88-0.55,0.7,0.7,0,0,0,.71-0.5c0-.34-0.42-0.42-1.51-0.68-0.21-.04-0.46-0.08-0.76-0.16a16.051,16.051,0,0,0-2.31-.55,1.325,1.325,0,0,0-.92.92c-2.18,3.45-6.97,6.56-10.67,8.24-0.84.37-1.51,0.63-1.51,1.09,0,0.63,1.22,2.64,1.98,2.64,1.21,0,6.34-3.36,7.56-4.2a1.243,1.243,0,0,1,.75-0.29,1.072,1.072,0,0,1,.84.46,25.044,25.044,0,0,0,2.69,2.56,0.8,0.8,0,0,1,.29.59,0.741,0.741,0,0,1-.46.59,60.14,60.14,0,0,1-12.39,3.69c-1.43.3-2.18,0.38-2.18,0.97s0.67,2.94,1.93,2.94a4.446,4.446,0,0,0,.8-0.13,60.27,60.27,0,0,0,15.28-5.16,2.12,2.12,0,0,1,.89-0.25A1.956,1.956,0,0,1,1031.62,5119.14Zm42-7.1a1,1,0,0,1-1.17,1.18h-1.6a0.786,0.786,0,0,1-.92-0.8,0.728,0.728,0,0,1,.04-0.29,16.445,16.445,0,0,0,.42-1.81c0.21-1.01.33-1.51,0.71-1.76a1,1,0,0,0,.67-0.67,0.91,0.91,0,0,0-.88-0.63,23.052,23.052,0,0,0-3.48-.8c-0.59,0-.55.63-0.63,1.09a35.763,35.763,0,0,1-4.25,12.51,4.19,4.19,0,0,0-.54,1.22c0,0.88,2.69,1.72,3.27,1.72a1,1,0,0,0,.84-0.63,26.709,26.709,0,0,0,1.85-4.11,1.433,1.433,0,0,1,1.56-.97h2.94a1,1,0,0,1,1.17,1.18v5.46a0.991,0.991,0,0,1-1.17,1.17h-4.04c-1.59,0-3.19-.08-4.83-0.08-1.09,0-1.09.46-1.09,2.1s-0.04,2.18,1.09,2.18c1.64,0,3.24-.12,4.83-0.12h4.04a1.008,1.008,0,0,1,1.17,1.17v3.99c0,2.19-.12,4.41-0.12,6.6,0,1.3.58,1.3,2.26,1.3,1.77,0,2.27,0,2.27-1.34,0-2.19-.08-4.37-0.08-6.56v-3.99a1,1,0,0,1,1.13-1.17h3.7c1.64,0,3.23.12,4.83,0.12,1.17,0,1.13-.54,1.13-2.18,0-1.6.04-2.1-1.13-2.1-1.6,0-3.19.08-4.83,0.08h-3.7a0.978,0.978,0,0,1-1.13-1.17v-5.46a0.985,0.985,0,0,1,1.13-1.18h2.73c1.64,0,3.24.09,4.87,0.09,1.01,0,.97-0.51.97-2.1,0-1.68.08-2.19-1.01-2.19-1.59,0-3.23.13-4.83,0.13h-2.73a0.985,0.985,0,0,1-1.13-1.18v-3.57c0-1.34.04-2.22,0.46-2.52a0.765,0.765,0,0,0,.5-0.63c0-.5-0.71-0.5-1.05-0.54-0.88-.04-2.89-0.17-3.65-0.17-0.38,0-.8.04-0.8,0.55,0,0.12.04,0.29,0.04,0.42,0.09,1,.17,2.18.17,3.31v3.15Zm-17.8,23.19c0,1.89-.13,3.73-0.13,5.62,0,1.31.42,1.35,2.27,1.35,1.8,0,2.22-.04,2.22-1.35,0-1.89-.12-3.73-0.12-5.62v-15.71c0-1.39.04-2.18,0.5-2.52a0.687,0.687,0,0,0,.46-0.59c0-.54-0.84-0.5-1.21-0.54a0.48,0.48,0,0,1-.51-0.42,0.691,0.691,0,0,1,.09-0.3,54.276,54.276,0,0,0,3.56-7.01,1.614,1.614,0,0,1,1.01-1.26,0.782,0.782,0,0,0,.63-0.55,1.146,1.146,0,0,0-.92-0.75c-0.55-.17-3.23-1.14-3.61-1.14a0.989,0.989,0,0,0-.8.88,37.886,37.886,0,0,1-8.27,13.99,2.091,2.091,0,0,0-.72,1.22c0,0.71,1.56,3.19,2.35,3.19,0.63,0,2.06-1.89,2.48-2.44a0.555,0.555,0,0,1,.34-0.17,0.386,0.386,0,0,1,.38.47v13.65Zm50.81-5.76c-0.79,0-2.26,2.98-2.26,3.57,0,0.67,2.81,4.2,9.61,4.2,1.68,0,8.78-.63,9.96-1.26a1.637,1.637,0,0,0,.5-1.55c0-2.14-.08-3.15-0.75-3.15a2.815,2.815,0,0,0-.89.17,34.346,34.346,0,0,1-9.24,1.34,7.189,7.189,0,0,1-6.38-2.94A0.737,0.737,0,0,0,1106.63,5129.47Zm0.97-18.18c-0.67,0-.88.63-0.88,2.64a2.039,2.039,0,0,0,.42,1.64c0.88,0.59,6.05.84,7.35,0.84a48.353,48.353,0,0,0,7.05-.59c0.8-.16.8-0.5,0.8-1.38a19.262,19.262,0,0,0-.17-2.27,0.941,0.941,0,0,0-.84-1.01,4.181,4.181,0,0,0-.75.13,27.733,27.733,0,0,1-6.39.84,26.808,26.808,0,0,1-5.5-.63A5.091,5.091,0,0,0,1107.6,5111.29Zm-10.08-3.28a0.9,0.9,0,0,0-.63.93,18.522,18.522,0,0,1-.54,2.1,49.9,49.9,0,0,0-2.15,13.9,28.832,28.832,0,0,0,2.57,12.89c0.54,1.13,1.05,2.06,1.76,2.06,0.88,0,3.27-1.01,3.27-2.06a3.876,3.876,0,0,0-.08-0.63c-0.04-.38-0.17-1.34-0.17-1.76,0-1.89,1.68-5.72,1.68-6.09a2.288,2.288,0,0,0-1.51-1.35,1.35,1.35,0,0,0-.88,1.01c-0.17.42-.76,1.64-1.13,1.64-0.97,0-1.14-5.08-1.14-5.88a33.341,33.341,0,0,1,2.35-11.93,2.675,2.675,0,0,1,1.3-1.8c0.42-.26.59-0.3,0.59-0.55a0.981,0.981,0,0,0-.84-0.71C1101.38,5109.52,1097.86,5108.01,1097.52,5108.01Zm41.83-.33c-0.58,0-.63.42-0.63,1.05v0.46c0,1.72-.37,5.75-0.5,7.68q-0.375,4.98-.38,9.96c0,3.06.21,7.14,2.1,9.66a9.293,9.293,0,0,0,7.39,3.23,14.712,14.712,0,0,0,12.77-8.02,15.541,15.541,0,0,0,1.72-4.92c0-1.26-2.56-3.4-3.48-3.4-0.63,0-.72.72-0.84,1.39a13.309,13.309,0,0,1-2.57,6.21,10.625,10.625,0,0,1-7.89,4.08c-4.54,0-4.45-5.08-4.45-8.36,0-2.39.37-15.71,1.84-16.8a0.633,0.633,0,1,0-.33-1.22A35.731,35.731,0,0,0,1139.35,5107.68Zm30.96,5.5c0,0.42.38,4.41,1.38,4.41a2.737,2.737,0,0,0,.63-0.09,85.794,85.794,0,0,1,9.28-1.72c0.47-.08,2.36-0.38,2.69-0.38a0.6,0.6,0,0,1,.63.51,2.769,2.769,0,0,1-.75,1.01,18.61,18.61,0,0,0-4.62,12.05c0,8.19,6.13,10.46,13.27,10.46a1.32,1.32,0,0,0,1.22-.42,10.141,10.141,0,0,0,.75-3.74c0-.67-0.33-0.72-0.96-0.72-0.42,0-1.35.05-2.1,0.05-4.25,0-7.4-1.18-7.4-6.05a15.685,15.685,0,0,1,2.02-7.39,12.73,12.73,0,0,1,7.18-6.26,20.494,20.494,0,0,1,6.97-.88c0.97-.04,1.85.04,1.85-0.88a26.421,26.421,0,0,0-.33-3.07c-0.13-.5-0.21-1.05-0.84-1.05a2.195,2.195,0,0,0-.51.04c-3.15.51-6.38,0.93-9.53,1.3-6.13.72-12.26,1.35-18.4,1.73C1170.9,5112.21,1170.31,5112.09,1170.31,5113.18Zm60.77,1.68a0.7,0.7,0,0,0,.38.63c3.99,3.06,5.71,7.05,6.21,11.97,0.09,1,.05,1.59,1.39,1.59a8.88,8.88,0,0,0,2.35-.38,1.172,1.172,0,0,0,1.14-1.21,23.063,23.063,0,0,0-2.48-8.74c-2.02-3.86-5.55-6.51-6.47-6.51C1232.76,5112.21,1231.08,5114.06,1231.08,5114.86Zm-18.94-2.73a0.521,0.521,0,0,0-.59.46c-0.08.38-.21,5.71-0.21,6.38,0,4.45.34,9.75,2.44,13.69,1.38,2.57,3.82,5.38,6.93,5.38,1.97,0,3.27-1.26,4.49-2.65,0.59-.67,2.48-2.85,2.48-3.65,0-.76-2.14-2.48-3.03-2.48a1.663,1.663,0,0,0-1.13,1.05c-0.5.93-1.72,2.77-2.9,2.77-1.47,0-2.85-2.47-3.36-3.65a24.042,24.042,0,0,1-1.34-8.78,31.293,31.293,0,0,1,.34-4.45,3,3,0,0,1,.75-2.01,0.747,0.747,0,0,0,.42-0.55,0.955,0.955,0,0,0-.92-0.59C1215.79,5112.93,1212.69,5112.13,1212.14,5112.13Zm49.89,20.53c0.97,0,1.98,0,1.98.8,0,2.27-1.64,2.82-3.57,2.82-1.09,0-2.98-.26-2.98-1.68C1257.46,5132.79,1260.73,5132.66,1262.03,5132.66Zm1.43-26.33c-0.38,0-.63.09-0.63,0.51a3.083,3.083,0,0,0,.09.67c0.12,0.71.37,3.53,0.37,4.2,0,1.13-1.05,1.05-4.74,1.05-2.06,0-5.59-.34-6.47-0.34-0.71,0-.75.59-0.75,1.18a7.448,7.448,0,0,0,.46,3.06c0.25,0.34,1.3.38,2.43,0.38h1.26c2.27,0,5.63-.21,7.1-0.21,1.09,0,1.13,1.72,1.13,2.94,0,0.92-.58,1.05-2.14,1.05h-1.89c-1.59,0-3.94-.21-4.45-0.21-0.59,0-.71.38-0.71,0.88a8.8,8.8,0,0,0,.54,2.94c0.34,0.76,1.14.72,2.86,0.72,1.8,0,4.16-.17,5.04-0.17,1.05,0,.96,1.55.96,2.9,0,0.42,0,1.17-.71,1.17-0.25,0-1.22-.08-1.72-0.08-3.49,0-8.06,1.34-8.06,5.58,0,3.91,3.65,5.46,7.01,5.46,3.4,0,6.72-1.05,7.6-4.66a0.93,0.93,0,0,1,.84-0.92c0.84,0,3.61,1.97,4.37,2.56a2.306,2.306,0,0,0,1.3.67c1.01,0,2.39-2.14,2.39-3.06,0-1.52-5.54-3.87-6.93-4.33-1.8-.59-1.97-0.25-1.97-4.62,0-1.18.84-1.18,2.44-1.34a36.722,36.722,0,0,0,4.32-.72c0.76-.17.8-0.59,0.8-1.97,0-1.6-.13-2.52-0.71-2.52a2.491,2.491,0,0,0-.8.17,35.976,35.976,0,0,1-5.38,1,0.716,0.716,0,0,1-.67-0.67,13.21,13.21,0,0,1-.21-2.22c0-1.18,1.01-1.14,1.89-1.26,2.23-.25,4.83-0.63,7.01-1.09,0.8-.17,1.18-0.26,1.18-1.1,0-.71-0.13-3.44-1.05-3.44a10.147,10.147,0,0,0-1.6.34,44.136,44.136,0,0,1-4.57.96c-0.3.04-1.94,0.3-2.1,0.3a0.971,0.971,0,0,1-.89-1.22c0.09-3.4.8-2.69,0.8-3.49,0-.46-0.59-0.54-1.68-0.67C1266.07,5106.63,1264.09,5106.33,1263.46,5106.33Zm38.43,16.84c1.72,0,2.1,2.4,2.1,3.7s-0.5,3.44-2.18,3.44-1.98-2.31-1.98-3.57S1300.25,5123.17,1301.89,5123.17Zm0.21-17.8a0.47,0.47,0,0,0-.54.5,0.991,0.991,0,0,0,.04.34,35.989,35.989,0,0,1,.42,5.2,1.249,1.249,0,0,1-.93,1.31c-0.37.08-10.24,0.63-11.38,0.67-2.05.08-2.43,0-2.43,0.84a25.812,25.812,0,0,0,.33,3.02c0.13,0.55.17,1.14,0.84,1.14a3.417,3.417,0,0,0,.63-0.09c2.02-.42,7.44-1.01,9.62-1.22,0.5-.04,2.44-0.25,2.77-0.25,0.46,0,.76.21,0.76,1.77a0.545,0.545,0,0,1-.51.5c-4.24.38-5.92,4.07-5.92,7.94,0,3.06,1.35,7.01,5,7.01a4.329,4.329,0,0,0,.97-0.21,0.935,0.935,0,0,1,.33-0.04,0.321,0.321,0,0,1,.3.29,1.676,1.676,0,0,1-.21.63,13.606,13.606,0,0,1-3.03,4.08,3.168,3.168,0,0,0-.96,1.17c0,0.76,3.4,1.81,3.9,1.81,1.85,0,6.34-7.52,6.34-14.28a12.858,12.858,0,0,0-1.3-5.88,3.55,3.55,0,0,1-.42-2.19v-1.46a1.354,1.354,0,0,1,.8-1.39c0.46-.13,4.37-0.17,5.12-0.17,2.36,0,5.51.21,6.09,0.21,0.42,0,.93.04,0.93-2.52,0-1.89-.3-2.14-0.97-2.14-1.8,0-6.3.25-8.36,0.34-0.46,0-2.1.12-2.43,0.12a1.106,1.106,0,0,1-1.22-1.22c0-.88,0-1.8.04-2.68a1.924,1.924,0,0,1,.67-1.77,0.62,0.62,0,0,0,.26-0.46c0-.38-1.26-0.5-2.27-0.59S1303.07,5105.37,1302.1,5105.37Zm28.98,25.82a3.7,3.7,0,0,1,3.74,3.74A3.735,3.735,0,1,1,1331.08,5131.19Zm0-2.1a5.84,5.84,0,1,0,5.84,5.84A5.826,5.826,0,0,0,1331.08,5129.09Z" transform="translate(-933.719 -5104.06)"/>
</svg>
