<svg xmlns="http://www.w3.org/2000/svg" width="837.25" height="53.12" viewBox="0 0 837.25 53.12">
  <defs>
    <style>
      .cls-1 {
        fill-rule: evenodd;
      }
    </style>
  </defs>
  <path id="沖縄をプロデュースする人が生まれ" class="cls-1" d="M2507.43,1418.86c-0.64,0-.82.58-1.11,1.27a81.676,81.676,0,0,1-9.16,16.01,4.52,4.52,0,0,0-.93,1.45c0,0.7,2.67,2.67,3.31,3.19a5.886,5.886,0,0,0,1.91,1.28,0.8,0.8,0,0,0,.76-0.87c0-.46-0.18-0.75-0.18-1.04a5.625,5.625,0,0,1,.76-1.45c1.27-2.09,8.81-15.03,8.81-16.48C2511.6,1420.95,2508.47,1418.86,2507.43,1418.86Zm-7.72-14.5c-0.93,0-3.3,3.01-3.3,3.82,0,0.58.69,0.93,1.16,1.28a72.146,72.146,0,0,1,6.84,5.05,1.816,1.816,0,0,0,1.04.52c1.16,0,3.43-2.96,3.43-3.71,0-.87-2.56-2.61-3.31-3.19C2504.76,1407.49,2500.41,1404.36,2499.71,1404.36Zm12.07-5.98c0-.81-3.08-2.84-3.83-3.36-0.81-.58-4.18-3.02-4.93-3.02-1.1,0-3.31,2.96-3.31,3.83a1.82,1.82,0,0,0,1.05,1.22,71.455,71.455,0,0,1,6.43,4.46,2.061,2.061,0,0,0,1.16.7C2509.28,1402.21,2511.78,1399.31,2511.78,1398.38Zm22.45,20.36a1.662,1.662,0,0,1-1.63-1.62v-8.18a1.63,1.63,0,0,1,1.63-1.63h4.46a1.63,1.63,0,0,1,1.63,1.63v8.18a1.662,1.662,0,0,1-1.63,1.62h-4.46Zm-7.43-1.62a1.66,1.66,0,0,1-1.62,1.62h-4.3a1.547,1.547,0,0,1-1.62-1.62v-8.18a1.591,1.591,0,0,1,1.62-1.63h4.3a1.628,1.628,0,0,1,1.62,1.63v8.18Zm-1.62,6.9a1.374,1.374,0,0,1,1.62,1.62v6.67c0,2.96-.17,5.98-0.17,8.94,0,1.68.63,1.8,3.01,1.8,2.56,0,3.14-.06,3.14-1.8,0-2.96-.18-5.98-0.18-8.94v-6.67a1.381,1.381,0,0,1,1.63-1.62h4.87a0.919,0.919,0,0,1,1.1,1.04c0.06,1.74.46,1.8,2.96,1.8,2.26,0,3.01,0,3.01-1.68,0-1.62-.11-3.25-0.11-4.81v-11.43c0-1.51.06-2.96,0.06-4.47,0-2.14-1.05-2.72-3.02-2.72-1.62,0-3.25.05-4.87,0.05h-4a1.362,1.362,0,0,1-1.63-1.56v-3.6c0-2.09.06-3.25,0.64-3.71a1.228,1.228,0,0,0,.7-0.87c0-.76-0.93-0.76-1.45-0.81-1.22-.06-3.83-0.29-4.94-0.29-0.52,0-.98.11-0.98,0.75,0,0.17.06,0.41,0.06,0.58a24.668,24.668,0,0,1,.17,4.18v3.77a1.355,1.355,0,0,1-1.62,1.56h-3.83c-1.68,0-3.31-.05-4.93-0.05-1.97,0-3.02.58-3.02,2.72,0,1.51.12,2.96,0.12,4.47v11.43c0,1.56-.12,3.19-0.12,4.81,0,1.68.76,1.68,2.96,1.68,2.55,0,2.96-.06,3.02-1.8a0.9,0.9,0,0,1,1.04-1.04h4.76Zm50.92,10.5a33.657,33.657,0,0,0-1.33-5.22c-1.34-3.95-1.74-5.11-2.61-5.11-0.7,0-3.08.7-3.08,1.57a4.922,4.922,0,0,0,.23.81,58.09,58.09,0,0,1,2.44,8.24c0.17,0.81.29,1.39,1.33,1.39C2573.9,1436.2,2576.1,1435.56,2576.1,1434.52Zm-18.74-10.21c-0.69,0-.69.58-0.75,1.04a57.731,57.731,0,0,1-1.74,10.45c-0.12.52-.7,2.66-0.7,3.01,0,1.05,2.9,1.57,3.31,1.57a1.2,1.2,0,0,0,1.16-1.16c0.64-2.38,1.74-9.05,2.03-11.6a1.188,1.188,0,0,1,.75-1.34,0.736,0.736,0,0,0,.58-0.64,1.018,1.018,0,0,0-1.1-.75C2560.32,1424.77,2557.83,1424.31,2557.36,1424.31Zm29.01-.17a1.307,1.307,0,0,1,1.39,1.39v0.52a1.339,1.339,0,0,1-1.39,1.39h-2.79a1.339,1.339,0,0,1-1.39-1.39v-0.52a1.307,1.307,0,0,1,1.39-1.39h2.79Zm6.67,1.39a1.307,1.307,0,0,1,1.39-1.39h2.96a1.262,1.262,0,0,1,1.33,1.39v0.52a1.292,1.292,0,0,1-1.33,1.39h-2.96a1.339,1.339,0,0,1-1.39-1.39v-0.52Zm-5.28-6.21a1.3,1.3,0,0,1-1.39,1.34h-2.79a1.3,1.3,0,0,1-1.39-1.34v-0.46a1.339,1.339,0,0,1,1.39-1.39h2.79a1.339,1.339,0,0,1,1.39,1.39v0.46Zm6.67,1.34a1.3,1.3,0,0,1-1.39-1.34v-0.46a1.339,1.339,0,0,1,1.39-1.39h2.96a1.292,1.292,0,0,1,1.33,1.39v0.46a1.252,1.252,0,0,1-1.33,1.34h-2.96Zm-1.39-16.25a1.339,1.339,0,0,1,1.39-1.39h2.26a1.339,1.339,0,0,1,1.39,1.39v0.47a1.339,1.339,0,0,1-1.39,1.39h-2.26a1.339,1.339,0,0,1-1.39-1.39v-0.47Zm-6.67-1.39a1.339,1.339,0,0,1,1.39,1.39v0.47a1.339,1.339,0,0,1-1.39,1.39h-1.92a1.292,1.292,0,0,1-1.33-1.39v-0.47a1.292,1.292,0,0,1,1.33-1.39h1.92Zm8.06-3.3a1.342,1.342,0,0,1-1.39-1.4v-0.29a1.339,1.339,0,0,1,1.39-1.39h2.26a1.339,1.339,0,0,1,1.39,1.39v0.29a1.342,1.342,0,0,1-1.39,1.4h-2.26Zm-6.67-1.4a1.342,1.342,0,0,1-1.39,1.4h-1.92a1.3,1.3,0,0,1-1.33-1.4v-0.29a1.292,1.292,0,0,1,1.33-1.39h1.92a1.339,1.339,0,0,1,1.39,1.39v0.29Zm-1.39,11.72a1.17,1.17,0,0,1,1.39,1.33v0.64a1.173,1.173,0,0,1-1.39,1.34h-7.25c-1.45,0-2.21.34-2.21,1.91,0,1.05.06,2.09,0.06,3.13v11.2c0,1.22-.06,2.38-0.06,3.59,0,1.28.64,1.22,2.61,1.22,2.5,0,2.67.06,2.73-1.45,0-1.27.46-1.45,2.43-1.45h1.45a1.386,1.386,0,0,1,1.63,1.57c0,1.1-.06,2.15-0.06,3.19,0,3.94,1.74,5.63,5.69,5.63h6.32c1.97,0,4.52-.12,5.62-1.98a15.178,15.178,0,0,0,1.46-5.27c0-1.46-3.02-1.75-4.12-1.75a0.913,0.913,0,0,0-1.11.76c-0.29,2.26-.34,3.36-3.01,3.36h-3.25c-2.09,0-2.26-.46-2.26-2.43v-1.45a1.4,1.4,0,0,1,1.62-1.63h2.21c1.91,0,3.36.06,4.46,0.06,2.03,0,2.84-.29,2.84-1.91,0-.99-0.05-2.03-0.05-3.02v-8.24c0-1.04.05-2.08,0.05-3.13,0-1.68-.87-1.97-3.01-1.97-1.1,0-2.5.06-4.29,0.06h-2.44a1.17,1.17,0,0,1-1.39-1.34v-0.64a1.167,1.167,0,0,1,1.39-1.33h3.25a1.071,1.071,0,0,1,.69.29,3.809,3.809,0,0,0,2.15.35c1.68,0,2.73.11,2.73-1.51,0-1.04-.06-2.03-0.06-3.07v-7.78c0-1.1.06-2.03,0.06-2.9,0-1.62-.29-2.61-1.98-2.61-1.33,0-2.72.12-4.06,0.12h-13.45c-1.45,0-2.61-.12-3.48-0.12-1.69,0-2.5.35-2.5,2.09,0,1.16.06,2.26,0.06,3.42v7.78c0,1.04-.12,2.03-0.12,3.07,0,1.62,1.11,1.51,2.79,1.51a4.3,4.3,0,0,0,2.26-.35,1.455,1.455,0,0,1,.7-0.29h2.9Zm-28.72-9.4a2.552,2.552,0,0,0-1.04-.52c-1.04,0-2.49,3.08-2.49,3.95a1.388,1.388,0,0,0,.69,1.1c1.68,1.27,4.29,3.42,5.86,4.93a1.877,1.877,0,0,1,.7,1.27,2.073,2.073,0,0,1-.35.99c-0.52.93-1.05,1.86-1.63,2.73a2.393,2.393,0,0,1-2.2,1.33c-0.23,0-.52.06-0.81,0.06-0.99,0-1.86-.06-1.86.64,0,0.29.76,4,.87,4.58,0.12,0.46.41,1.33,0.87,1.33a0.881,0.881,0,0,0,.81-0.58,0.843,0.843,0,0,1,.82-0.52c1.1-.11,2.14-0.23,3.24-0.4h0.29a1.238,1.238,0,0,1,1.28,1.45v10.09c0,2.61-.12,5.22-0.12,7.83,0,1.91.47,1.97,2.67,1.97,2.15,0,2.61-.06,2.61-1.97,0-2.61-.11-5.22-0.11-7.83v-10.79a1.527,1.527,0,0,1,1.45-1.8l0.58-.11h0.35a1.307,1.307,0,0,1,1.33,1.04,0.989,0.989,0,0,0,1.16.81c0.23,0,3.31-.17,3.31-1.56a38.442,38.442,0,0,0-1.34-5.05c-1.68-5.11-1.85-5.45-2.9-5.45-0.81,0-3.07.46-3.07,1.45a10.952,10.952,0,0,0,.69,2.2,1.634,1.634,0,0,1,.12.52,1.143,1.143,0,0,1-1.1,1.16c-0.87.06-1.69,0.18-2.5,0.24a0.723,0.723,0,0,1-.87-0.64,0.81,0.81,0,0,1,.18-0.53c2.55-3.94,5.04-7.94,7.36-12.12a1.507,1.507,0,0,1,1.16-.64c0.7-.11.93-0.29,0.93-0.75,0-.58-0.93-0.99-1.74-1.39a20.379,20.379,0,0,0-3.48-1.34c-0.64,0-.87.58-1.16,1.4-0.99,1.85-2.03,3.65-3.02,5.51a1.225,1.225,0,0,1-1.04.63,1.349,1.349,0,0,1-.87-0.4,3.681,3.681,0,0,1-.52-0.47,1.305,1.305,0,0,1-.47-0.87,1.187,1.187,0,0,1,.24-0.69c1.33-2.15,3.42-6.27,4.52-8.59a0.907,0.907,0,0,1,.81-0.52c0.41-.12,1.05-0.12,1.05-0.7,0-.98-4.82-2.66-5.11-2.66a1.075,1.075,0,0,0-.87,1.04c-0.69,1.97-2.67,6.27-3.65,8.24a1.076,1.076,0,0,1-.87.69A1.1,1.1,0,0,1,2557.65,1400.64Zm73.38-9.51c-0.58,0-.7.58-0.82,1.22a31.321,31.321,0,0,1-3.13,7.48c-0.52.7-2.09,0.76-3.59,0.76h-1.69c-1.68,0-3.19-.12-4.17-0.12-1.45,0-1.69.35-1.69,2.67,0,2.96.24,3.25,1.51,3.25,1.8,0,3.13-.18,4.06-0.18,0.82,0,1.28.18,1.28,0.7,0,1.1-8.41,12.76-9.75,14.21a2.417,2.417,0,0,0-.75,1.28c0,1.04,3.89,3.36,4.93,3.36a0.951,0.951,0,0,0,.81-0.58,38,38,0,0,1,4.88-6.79c2.26-2.32,7.59-5.1,10.84-5.1a2.4,2.4,0,0,1,2.55,1.97,7.755,7.755,0,0,1,.29,1.63,1.483,1.483,0,0,1-1.04,1.33c-1.22.58-2.44,1.22-3.6,1.91-4,2.38-8.23,5.22-8.23,10.44,0,3.95,2.26,6.73,5.8,8.3a21.538,21.538,0,0,0,9.16,1.51c2.5,0,8.94-.23,11.14-0.76,1.28-.29,1.33-0.75,1.33-2.49,0-3.31-.4-3.95-1.16-3.95a7,7,0,0,0-1.16.12,42.31,42.31,0,0,1-10.79,1.45c-2.78,0-8.41-.35-8.41-4.23,0-3.6,5.98-6.15,6.27-6.15a0.8,0.8,0,0,1,.75.98c0,1.22-.11,2.5-0.11,3.77,0,1.51,1.04,1.63,3.53,1.63,2.21,0,2.5-.23,2.5-2.32,0-1.8-.06-3.54-0.06-5.34v-0.75c0-1.16.47-1.51,1.51-1.92,2.26-.98,4.52-1.97,6.84-2.84,0.29-.11.58-0.17,0.82-0.29,1.1-.35,1.74-0.58,1.74-1.27,0-.99-1.4-5.46-2.5-5.46a4.971,4.971,0,0,0-1.51.58c-0.92.52-6.09,3.31-6.78,3.31a0.961,0.961,0,0,1-.87-0.99c-0.76-3.65-2.9-5.22-6.62-5.22a16.056,16.056,0,0,0-6.32,1.51,2.26,2.26,0,0,1-1.04.35,0.46,0.46,0,0,1-.47-0.41,18.718,18.718,0,0,1,1.98-3.36,2.044,2.044,0,0,1,1.74-.93c3.65-.41,7.3-1.04,10.96-1.8,1.22-.23,3.07-0.46,3.07-1.45a18.889,18.889,0,0,0-.46-3.13c-0.17-.81-0.46-1.74-1.45-1.74a4.27,4.27,0,0,0-1.45.35,42.669,42.669,0,0,1-6.73,1.62,0.562,0.562,0,0,1-.64-0.58,3.936,3.936,0,0,1,.58-1.33c0.76-1.34.99-1.63,1.92-1.98a0.917,0.917,0,0,0,.69-0.69C2637.52,1393.8,2631.55,1391.13,2631.03,1391.13Zm44.13,8.76c-2.49,0-4.99-.12-7.48-0.12-1.68,0-1.62.64-1.62,3.31,0,2.61,0,3.13,1.74,3.13,2.43,0,4.81-.11,7.25-0.11h20.65c1.04,0,2.03.11,2.03,1.21a13.329,13.329,0,0,1-.18,1.45,27.2,27.2,0,0,1-9.45,16.88,41.128,41.128,0,0,1-14.45,7.66,1.021,1.021,0,0,0-1.04.93c0,0.93,2.03,4.81,3.42,4.81a7.28,7.28,0,0,0,1.92-.46,54,54,0,0,0,11.13-5.98c9.17-6.38,13.46-14.03,15.38-24.94,0.4-2.26.87-2.84,0.87-3.36,0-.76-1.45-2.15-1.98-2.67-0.75-.75-1.62-1.86-2.78-1.86-0.52,0-1.91.12-2.9,0.12h-22.51Zm33.41-7.37a3.124,3.124,0,0,1,3.14,3.13A3.105,3.105,0,1,1,2708.57,1392.52Zm0-2.61a5.745,5.745,0,0,0,0,11.49A5.745,5.745,0,1,0,2708.57,1389.91Zm41.71,16.65a1.667,1.667,0,0,1,1.74,1.68v17.06a1.754,1.754,0,0,1-1.74,1.74h-22.51a1.747,1.747,0,0,1-1.74-1.74v-17.06a1.691,1.691,0,0,1,1.74-1.68h22.51Zm-22.39-5.97c-1.57,0-3.2-.06-4.76-0.06-2.32,0-3.48.58-3.48,3.01,0,1.74.06,3.48,0.06,5.22v19.67c0,2.03-.12,4.06-0.12,6.09,0,2.09.46,2.09,3.19,2.09,3.48,0,3.31-.29,3.36-1.92,0.12-1.68.88-1.74,2.85-1.74h20.07c2.03,0,2.67.06,2.78,1.74,0.12,1.63,0,1.92,3.37,1.92,2.72,0,3.24,0,3.24-2.03s-0.11-4.12-.11-6.15v-19.67c0-1.68.06-3.42,0.06-5.16,0-2.67-1.34-3.07-3.72-3.07-1.5,0-3.01.06-4.52,0.06h-22.27Zm87.46-9.4c-0.64,0-2.84,1.62-2.84,2.32a1.174,1.174,0,0,0,.46.75c1.05,1.1,2.5,2.67,3.43,3.89,0.63,0.81,1.04,1.45,1.45,1.45,0.75,0,2.84-1.74,2.84-2.55,0-.58-1.86-2.56-2.32-3.08S2815.87,1391.19,2815.35,1391.19Zm-4.7,5.16c-0.63,0-2.9,1.63-2.9,2.26a1.149,1.149,0,0,0,.53.76c1.21,1.39,2.43,2.78,3.53,4.29a2.993,2.993,0,0,0,1.22,1.16c0.76,0,2.9-1.68,2.9-2.55C2815.93,1401.51,2811.29,1396.35,2810.65,1396.35Zm-33.7,15.26c-2.55,0-5.33-.18-7.36-0.18-1.4,0-1.45.87-1.45,3.02,0,2.2-.06,3.31,1.5,3.31,2.27,0,4.88-.18,7.31-0.18h11.78a1.326,1.326,0,0,1,1.33,1.39c0,0.41-.35,2.27-0.46,2.79a17.385,17.385,0,0,1-7.31,10.55,27.663,27.663,0,0,1-7.31,3.02c-0.7.23-1.57,0.35-1.57,1.05,0,0.92,3.14,4.75,4.41,4.75a10.146,10.146,0,0,0,2.73-.93c4.76-2.03,9.28-4.98,12.06-9.45a29.245,29.245,0,0,0,3.83-10.5c0.23-1.22.23-2.67,1.86-2.67h7.6c2.49,0,4.99.12,7.48,0.12,1.51,0,1.62-.81,1.62-3.19,0-2.79-.11-3.08-1.79-3.08-2.44,0-4.88.18-7.31,0.18h-28.95Zm7.66-15.2c-2.61,0-5.4-.17-7.25-0.17-1.74,0-1.63,1.16-1.63,3.24s-0.11,3.02,1.51,3.02c2.5,0,4.93-.12,7.37-0.12h12.35c2.44,0,4.94.12,7.37,0.12,1.57,0,1.57-.81,1.57-2.78,0-2.32.11-3.48-1.63-3.48-1.97,0-4.75.17-7.31,0.17h-12.35Zm55.1,13.28c-2.32,0-4.76-.06-5.74-0.06-1.39,0-1.28,1.11-1.28,2.61,0,1.86,0,2.85,1.34,2.85,1.45,0,3.71-.12,5.68-0.12h8.06a1.323,1.323,0,0,1,1.57,1.22c0,0.12-.18.99-0.18,1.16l-1.1,10.15a1.619,1.619,0,0,1-1.62,1.39h-13.86c-1.57,0-4.65-.11-5.63-0.11-1.34,0-1.45,1.04-1.45,3.01,0,1.16-.06,2.5,1.51,2.5,1.39,0,3.59-.12,5.57-0.12h23.72c1.86,0,3.77.12,5.63,0.12,1.62,0,1.62-.99,1.62-2.61,0-1.92.06-2.9-1.45-2.9-1.97,0-3.89.11-5.8,0.11h-1.57a1.233,1.233,0,0,1-1.21-1.39l1.21-10.67c0.06-.29.24-1.57,0.41-2.67,0.12-.87.29-1.16,0.29-1.63,0-1.33-2.03-2.95-3.36-2.95-0.24,0-.58.05-0.82,0.05-0.58.06-1.27,0.06-1.97,0.06h-9.57Zm40.8,4.3c-1.89,0-5-.14-5.58-0.14-1.17,0-1.26.36-1.26,2.88,0,1.4.04,2.25,1.21,2.25,1.89,0,3.78-.09,5.63-0.09h20.69c1.85,0,3.74.09,5.63,0.09,1.17,0,1.21-.85,1.21-2.29,0-2.48-.04-2.84-1.26-2.84-0.58,0-3.51.14-5.58,0.14h-20.69Zm50.73-14.33c-2.56,0-5.05-.12-7.55-0.12-1.45,0-1.39.87-1.39,2.9,0,2.67-.11,3.54,1.45,3.54,2.5,0,4.99-.12,7.49-0.12h12c0.87,0,1.69.12,1.69,0.99a5.714,5.714,0,0,1-.99,1.97c-5.86,9.17-15.6,18.04-25.87,21.99a1.412,1.412,0,0,0-1.22,1.16c0,1.04,2.67,4.93,3.89,4.93a9.7,9.7,0,0,0,2.55-1.1,64.369,64.369,0,0,0,14.5-10.16,2.8,2.8,0,0,1,1.74-.98,2.017,2.017,0,0,1,1.33.52,61.261,61.261,0,0,1,12.82,11.49,1.972,1.972,0,0,0,1.45.87c1.22,0,4.41-3.43,4.41-4.65a1.115,1.115,0,0,0-.4-0.81c-1.34-1.39-2.79-2.72-4.18-3.94a92.291,92.291,0,0,0-9.8-7.48,1.563,1.563,0,0,1-.87-1.4,1.587,1.587,0,0,1,.46-1.1,83.815,83.815,0,0,0,7.54-11.02c0.23-.41.58-0.99,0.93-1.51a11.11,11.11,0,0,0,1.28-2.26c0-.75-2.5-3.94-3.72-3.94-0.34,0-.92.11-1.27,0.11a15.146,15.146,0,0,1-2.5.12h-15.77Zm56.95,17.05c2.38,0,2.9,3.31,2.9,5.11s-0.69,4.75-3.01,4.75-2.73-3.19-2.73-4.93S2985.93,1416.71,2988.19,1416.71Zm0.29-24.59a0.654,0.654,0,0,0-.75.69,1.268,1.268,0,0,0,.06.47,50.524,50.524,0,0,1,.58,7.19,1.708,1.708,0,0,1-1.28,1.8c-0.52.11-14.15,0.87-15.72,0.93-2.84.11-3.36,0-3.36,1.16a34.751,34.751,0,0,0,.46,4.17c0.17,0.76.23,1.57,1.16,1.57a4.337,4.337,0,0,0,.87-0.12c2.78-.58,10.27-1.39,13.28-1.68,0.7-.06,3.37-0.35,3.83-0.35,0.64,0,1.05.29,1.05,2.44a0.741,0.741,0,0,1-.7.69c-5.86.53-8.18,5.63-8.18,10.97,0,4.23,1.86,9.68,6.9,9.68a5.363,5.363,0,0,0,1.34-.29,1.445,1.445,0,0,1,.46-0.05,0.439,0.439,0,0,1,.41.4,2.3,2.3,0,0,1-.29.87,18.573,18.573,0,0,1-4.18,5.63c-0.35.35-1.33,1.16-1.33,1.62,0,1.05,4.7,2.5,5.39,2.5,2.55,0,8.76-10.39,8.76-19.72a17.856,17.856,0,0,0-1.8-8.13,4.9,4.9,0,0,1-.58-3.01v-2.03a1.878,1.878,0,0,1,1.1-1.92c0.64-.17,6.04-0.23,7.08-0.23,3.25,0,7.6.29,8.41,0.29,0.58,0,1.28.06,1.28-3.48,0-2.61-.41-2.96-1.34-2.96-2.49,0-8.7.35-11.54,0.47-0.64,0-2.9.17-3.36,0.17a1.53,1.53,0,0,1-1.69-1.68c0-1.22,0-2.49.06-3.71,0.06-1.69.52-2.15,0.93-2.44a0.9,0.9,0,0,0,.35-0.64c0-.52-1.74-0.69-3.13-0.81S2989.82,1392.12,2988.48,1392.12Zm55.39,40.72a1.737,1.737,0,0,1-1.56,1.97c-1.74,0-4.53-.99-4.53-3.08a2.406,2.406,0,0,1,2.5-2.32A3.544,3.544,0,0,1,3043.87,1432.84Zm5.4-37.59a7.694,7.694,0,0,0-2.21.64c-3.36,1.33-10.96,2.14-14.67,2.14H3031c-1.75,0-1.8.12-1.8,1.45,0,0.99.17,5.34,1.45,5.34,0.93,0,9.1-1.68,10.5-2.03a12.962,12.962,0,0,1,1.39-.23,0.822,0.822,0,0,1,.98.69c0,0.58-1.04,1.63-1.5,2.09a235.008,235.008,0,0,1-18.04,18.22c-0.53.4-1.4,1.04-1.4,1.74,0,0.92,2.96,4.17,4.18,4.17a0.8,0.8,0,0,0,.64-0.4c2.09-2.38,4.18-4.76,6.44-6.96,3.71-3.66,7.71-5.69,12.99-5.69,5.05,0,9.8,2.32,9.8,7.95,0,5.86-5.51,8.93-7.02,8.93a0.718,0.718,0,0,1-.69-0.75,5.8,5.8,0,0,0-1.05-3.72,9.445,9.445,0,0,0-7.71-4.11,7.271,7.271,0,0,0-7.42,7.01c0,5.92,6.84,7.89,11.65,7.89,9.34,0,18.45-5.33,18.45-15.6a11.985,11.985,0,0,0-6.9-11.25,16.954,16.954,0,0,0-7.14-1.74,10.727,10.727,0,0,0-2.38.23,3.237,3.237,0,0,1-.75.11,0.879,0.879,0,0,1-.99-0.75,1.775,1.775,0,0,1,.58-0.99,56.324,56.324,0,0,1,8.42-7.77c0.63-.46,1.27-0.81,1.27-1.22C3054.95,1399.66,3051.59,1395.25,3049.27,1395.25Zm48.14,20.77a48.206,48.206,0,0,0,15.08,22.27c0.98,0.87,5.28,4.23,6.38,4.23,1.39,0,3.83-2.9,3.83-4.4,0-.58-0.81-1.05-1.39-1.4a44.942,44.942,0,0,1-18.62-22.45,50.891,50.891,0,0,1-2.85-13.1c0-.41-0.06-0.87-0.06-1.28,0.06-1.86.12-3.71,0.12-5.51a1.116,1.116,0,0,1,.58-0.99,1.283,1.283,0,0,0,1.04-.98c0-.7-1.04-0.76-1.62-0.82-0.99-.17-4.12-0.52-4.99-0.52-1.16,0-1.39.7-1.39,1.74,0,1.74.12,3.43,0.12,5.11,0,16.59-7.2,29.99-21.41,38.63-0.69.41-1.45,0.75-1.45,1.39,0,1.39,2.44,4.35,3.89,4.35,0.93,0,2.26-.98,3.01-1.51,8.76-5.97,15.78-14.44,18.8-24.76A0.469,0.469,0,0,1,3097.41,1416.02Zm45.12-21.53a0.729,0.729,0,0,0-.7.87c0,0.12.12,1.34,0.12,2.27a53.159,53.159,0,0,1-.64,7.48,1.849,1.849,0,0,1-1.85,1.8c-3.19.58-6.44,1.39-9.69,1.74-0.7.06-1.68,0.06-1.68,0.93,0,0.34.98,6.03,2.37,6.03a4.18,4.18,0,0,0,1.22-.41,49.077,49.077,0,0,1,6.67-2.03,0.732,0.732,0,0,1,.76.76,22.2,22.2,0,0,1-1.45,4.41,46.112,46.112,0,0,1-10.39,16.12,2.2,2.2,0,0,0-.81,1.34c0,1.33,3.71,3.53,4.76,3.53a1.349,1.349,0,0,0,.98-0.58,52.57,52.57,0,0,0,5.75-8.23,65.56,65.56,0,0,0,7.42-17.35c0.41-1.62,1.05-2.09,4.29-2.09,3.54,0,3.72,2.44,3.72,5.28,0,3.77-.93,9.81-2.61,13.11-1.45,2.9-2.9,3.6-6.09,3.6-1.16,0-2.03-.23-2.61-0.23a0.815,0.815,0,0,0-.82.98,11.7,11.7,0,0,0,1.05,4.18c0.58,1.22,1.39,1.33,2.67,1.33a11.861,11.861,0,0,0,10.96-6.26c2.55-4.64,3.48-12.47,3.48-17.75,0-3.25-.7-6.56-3.6-8.47-2.03-1.28-4.23-1.28-6.55-1.28h-0.7a1.122,1.122,0,0,1-1.27-1.16,2.757,2.757,0,0,1,.11-0.69c0.18-.93.29-1.74,0.41-2.38,0.29-2.09.4-3.02,1.51-3.83a0.96,0.96,0,0,0,.52-0.75c0-.64-1.05-0.82-1.51-0.93C3147.46,1395.6,3143.11,1394.49,3142.53,1394.49Zm23.61,0c-0.7,0-2.79,1.75-2.79,2.44a1.375,1.375,0,0,0,.53.81,49.694,49.694,0,0,1,4.11,4.47,1.732,1.732,0,0,0,.82.64c0.75,0,2.78-1.74,2.78-2.67C3171.59,1399.48,3166.72,1394.49,3166.14,1394.49Zm5.45-4.11c-0.58,0-2.78,1.74-2.78,2.43a1.3,1.3,0,0,0,.58.81c1.45,1.45,2.78,2.91,4.12,4.47a1.182,1.182,0,0,0,.81.64c0.69,0,2.78-1.74,2.78-2.67C3177.1,1395.42,3172.23,1390.38,3171.59,1390.38Zm-9.45,10.44c-0.93,0-4.12,1.91-4.12,2.96a1.85,1.85,0,0,0,.52.98c3.65,3.89,5.57,7.66,7.77,12.42a1.661,1.661,0,0,0,1.34,1.33c1.16,0,4.81-2.15,4.81-3.48C3172.46,1413.58,3164.34,1400.82,3162.14,1400.82Zm29.11,1.8a1,1,0,0,1-1.22-.99,1.217,1.217,0,0,1,.06-0.46c0.29-.93.52-1.74,0.7-2.32,0.52-1.92.63-2.32,1.56-2.79a1.364,1.364,0,0,0,1.05-1.04c0-.7-0.99-0.82-3.77-1.57-0.53-.12-2.44-0.64-2.85-0.64-0.75,0-.81.87-0.93,1.51a47.72,47.72,0,0,1-8.93,20.13,3.075,3.075,0,0,0-.87,1.51c0,1.27,3.37,2.72,4.41,2.72,1.68,0,5.45-7.36,6.26-8.93a2.086,2.086,0,0,1,2.21-1.33h8.47a1.374,1.374,0,0,1,1.62,1.62v6.21a1.374,1.374,0,0,1-1.62,1.62h-7.19c-2.33,0-4.59-.17-6.91-0.17-1.62,0-1.56.75-1.56,2.96,0,2.26-.06,3.01,1.56,3.01,2.32,0,4.58-.17,6.91-0.17h7.19a1.374,1.374,0,0,1,1.62,1.62v8.41a1.358,1.358,0,0,1-1.62,1.57h-12.24c-2.38,0-4.82-.12-7.25-0.12-1.51,0-1.45.7-1.45,3.02,0,2.26-.06,3.02,1.45,3.02,2.43,0,4.87-.12,7.25-0.12h33.87c2.44,0,4.82.12,7.26,0.12,1.5,0,1.45-.76,1.45-3.02s0.11-3.02-1.45-3.02c-2.44,0-4.88.12-7.26,0.12h-12a1.382,1.382,0,0,1-1.63-1.57v-8.41a1.4,1.4,0,0,1,1.63-1.62h7.36c2.32,0,4.64.17,6.96,0.17,1.57,0,1.51-.81,1.51-3.01,0-2.15.06-2.96-1.51-2.96-2.32,0-4.64.17-6.96,0.17h-7.36a1.4,1.4,0,0,1-1.63-1.62v-6.21a1.4,1.4,0,0,1,1.63-1.62h9.86c2.38,0,4.75.11,7.13,0.11,1.51,0,1.39-.75,1.39-3.01s0.12-3.02-1.39-3.02c-2.38,0-4.75.12-7.13,0.12h-9.86a1.386,1.386,0,0,1-1.63-1.57v-4.35c0-2.03.06-3.13,0.7-3.66a1.164,1.164,0,0,0,.75-0.87c0-.69-0.98-0.75-1.51-0.81-0.92-.11-4.69-0.46-5.51-0.46-0.58,0-1.1.11-1.1,0.81,0,0.17.06,0.41,0.06,0.58,0.12,1.28.23,2.84,0.23,4.35v4.41a1.361,1.361,0,0,1-1.62,1.57h-6.15Zm59.74,27.2c1.33,0,2.73,0,2.73,1.1,0,3.13-2.27,3.89-4.93,3.89-1.51,0-4.12-.35-4.12-2.32C3244.67,1429.99,3249.19,1429.82,3250.99,1429.82Zm1.97-36.37c-0.52,0-.87.12-0.87,0.7a4.834,4.834,0,0,0,.12.92c0.17,0.99.52,4.88,0.52,5.81,0,1.56-1.45,1.45-6.55,1.45-2.85,0-7.72-.47-8.94-0.47-0.98,0-1.04.81-1.04,1.63,0,1.04.06,3.36,0.64,4.23,0.34,0.46,1.79.52,3.36,0.52h1.74c3.13,0,7.77-.29,9.8-0.29,1.51,0,1.57,2.38,1.57,4.06,0,1.28-.81,1.45-2.96,1.45h-2.61c-2.2,0-5.45-.29-6.15-0.29-0.81,0-.98.52-0.98,1.22a12.072,12.072,0,0,0,.75,4.06c0.47,1.05,1.57.99,3.95,0.99,2.49,0,5.74-.23,6.96-0.23,1.45,0,1.33,2.14,1.33,4,0,0.58,0,1.62-.99,1.62-0.34,0-1.68-.11-2.37-0.11-4.82,0-11.14,1.85-11.14,7.71,0,5.4,5.05,7.54,9.69,7.54,4.69,0,9.28-1.45,10.49-6.44a1.3,1.3,0,0,1,1.17-1.27c1.16,0,4.98,2.72,6.03,3.54a3.191,3.191,0,0,0,1.8.92c1.39,0,3.3-2.96,3.3-4.23,0-2.09-7.65-5.34-9.57-5.98-2.49-.81-2.73-0.34-2.73-6.38,0-1.62,1.17-1.62,3.37-1.85a51.612,51.612,0,0,0,5.97-.99c1.05-.23,1.11-0.81,1.11-2.73,0-2.2-.18-3.48-0.99-3.48a3.625,3.625,0,0,0-1.1.24,49.665,49.665,0,0,1-7.43,1.39,1,1,0,0,1-.93-0.93,19.4,19.4,0,0,1-.29-3.07c0-1.63,1.4-1.57,2.62-1.74,3.07-.35,6.67-0.87,9.68-1.51,1.1-.23,1.63-0.35,1.63-1.51,0-.99-0.18-4.76-1.45-4.76a14.267,14.267,0,0,0-2.21.47,58.6,58.6,0,0,1-6.32,1.33c-0.41.06-2.67,0.41-2.9,0.41-1.05,0-1.22-.87-1.22-1.68,0.12-4.7,1.1-3.72,1.1-4.82,0-.64-0.81-0.75-2.32-0.93C3256.56,1393.86,3253.83,1393.45,3252.96,1393.45Zm45.13-1.04c-0.64,0-.93.17-0.93,0.81,0,0.4.06,1.1,0.06,1.8,0,2.55-.24,6.03-0.24,7.6a3.685,3.685,0,0,1-.29,1.74c-0.69,1.39-8.06,2.66-9.8,2.9-0.7.11-1.91,0.11-1.91,1.04a17.478,17.478,0,0,0,1.21,3.94,2.039,2.039,0,0,0,1.69,1.63c1.1,0,5.8-1.86,7.02-2.38a3.382,3.382,0,0,1,1.04-.29,0.764,0.764,0,0,1,.75.87c0,0.46-.11.99-0.11,1.51a5.521,5.521,0,0,1-.7,2.73c-2.67,4.81-5.39,9.57-8.53,14.15a6.074,6.074,0,0,0-1.16,2.09c0,0.98,3.37,3.83,4.35,3.83a1.019,1.019,0,0,0,.76-0.7c0.58-1.1,2.38-4.24,3.02-5.28,0.58-.87.98-1.74,1.39-1.74a0.655,0.655,0,0,1,.52.75c0,2.61-.35,9.05-0.35,9.58,0,1.16,1.05,1.16,2.44,1.16,4.29,0,4.23-.58,4.23-0.99,0-.64-0.17-3.77-0.29-6.15-0.06-.99-0.17-2.73-0.17-3.07,0-1.34-.23-8.41,0-9.17,0.35-.93,2.49-2.96,3.25-3.71a58.515,58.515,0,0,1,6.32-5.63c1.22-.93,2.9-2.32,4.52-2.32,1.74,0,1.74,2.03,1.74,3.31,0,5.22-.75,10.5-0.75,15.72,0,3.65.46,9.28,5.34,9.28,2.9,0,5.85-1.68,8.17-3.37,0.64-.46,2.79-1.97,2.79-2.78,0-.93-1.68-5.28-2.67-5.28a1.669,1.669,0,0,0-1.1.64c-1.05,1.16-3.54,3.65-5.11,3.65-1.33,0-1.27-2.03-1.27-3.42,0-2.43.17-5.04,0.29-7.54,0.17-2.96.29-5.97,0.29-8.99,0-1.74-.06-4-1.05-5.51a6.238,6.238,0,0,0-4.98-2.55c-3.19,0-6.1,2.09-8.42,4.12-1.39,1.16-3.71,3.24-4.93,4.52a0.763,0.763,0,0,1-.46.29,0.487,0.487,0,0,1-.46-0.58,4.392,4.392,0,0,1,.11-0.93c0.18-.4,1.28-2.43,1.57-2.84a1.439,1.439,0,0,0,.35-0.64,4.168,4.168,0,0,0-1.98-2.67,0.991,0.991,0,0,1-.92-0.98c0-.81.4-3.66,0.52-4.64,0.35-2.38.29-2.56,1.04-3.19a1.351,1.351,0,0,0,.47-0.87,0.8,0.8,0,0,0-.64-0.64C3303.54,1393.04,3298.72,1392.41,3298.09,1392.41Z" transform="translate(-2496.22 -1389.91)"/>
</svg>
