<svg xmlns="http://www.w3.org/2000/svg" width="814.78" height="52.57" viewBox="0 0 814.78 52.57">
  <defs>
    <style>
      .cls-1 {
        fill-rule: evenodd;
      }
    </style>
  </defs>
  <path id="次代と豊かな沖縄を創るでしょう_" data-name="次代と豊かな沖縄を創るでしょう。" class="cls-1" d="M2507.54,1417.29a1.062,1.062,0,0,0-.87.87,70.56,70.56,0,0,1-9.97,17.64,1.317,1.317,0,0,0-.35.63c0,0.7,1.39,1.69,1.91,2.09a5.415,5.415,0,0,1,.52.41c0.82,0.64,2.09,1.8,2.56,1.8a0.823,0.823,0,0,0,.69-0.93c0-.29-0.06-0.58-0.06-0.81a2.745,2.745,0,0,1,.58-1.74,124.242,124.242,0,0,0,8.42-15.14,12.565,12.565,0,0,0,.63-1.63C2511.6,1419.21,2508.35,1417.29,2507.54,1417.29Zm2.55-16.12c0-.99-3.19-3.48-4-4.18-0.93-.75-4.17-3.6-5.28-3.6s-3.19,2.79-3.19,3.77a1.9,1.9,0,0,0,1.05,1.22,80.983,80.983,0,0,1,6.44,5.28,3.353,3.353,0,0,0,1.68,1.16C2507.89,1404.82,2510.09,1401.92,2510.09,1401.17Zm12.19,6.14a1.4,1.4,0,0,1,1.62,1.63,36.38,36.38,0,0,1-.7,7.54c-1.85,10.27-5.68,15.25-14.85,20.19a2.266,2.266,0,0,0-.4.23c-0.64.35-1.51,0.81-1.51,1.39,0,0.75,2.09,4.23,3.42,4.23,0.82,0,3.43-1.74,4.24-2.26a31.638,31.638,0,0,0,12.7-14.96,0.688,0.688,0,0,1,.58-0.47,0.642,0.642,0,0,1,.58.41,37.23,37.23,0,0,0,10.56,13.22c0.93,0.76,5.04,3.89,5.97,3.89,1.1,0,3.95-2.61,3.95-4.12,0-.64-1.05-1.16-1.57-1.45-8.53-4.52-14.73-11.54-17.23-20.94a4.658,4.658,0,0,1-.23-1.51c0-.23.06-0.4,0.06-0.64,0.12-1.68.12-3.07,0.17-4.75a1.387,1.387,0,0,1,1.63-1.63h6.67c0.46,0,1.22,0,1.22.64,0,1.34-3.25,5.45-4.24,6.61a2.016,2.016,0,0,0-.58.93c0,1.05,2.61,2.79,4,2.79a1.656,1.656,0,0,0,1.11-.52,52.469,52.469,0,0,0,3.07-4.47c1.04-1.63,3.94-6.32,3.94-8.12,0-1.05-1.97-3.6-4-3.6-1.1,0-2.78.12-4.58,0.12h-14.44a1.034,1.034,0,0,1-1.16-.99,1.288,1.288,0,0,1,.11-0.46c0.81-2.15,1.28-3.54,1.57-4.47,0.52-1.57.64-1.86,1.45-2.2a1.071,1.071,0,0,0,.75-0.82c0-.87-1.04-1.04-3.94-1.68-0.41-.06-1.86-0.46-2.21-0.46-0.69,0-.69.52-0.81,1.16-1.27,6.55-4.99,14.33-8.52,19.95a6.159,6.159,0,0,0-.93,1.74c0,0.99,3.01,2.61,4.06,2.61a1.856,1.856,0,0,0,1.45-1.16c1.16-1.91,2.49-4.23,3.48-6.2a2.08,2.08,0,0,1,2.26-1.4h1.28Zm74.41-6.38c0-.81-2.49-3.94-3.13-4.75-0.99-1.16-1.91-2.32-3.02-3.43a1.4,1.4,0,0,0-1.16-.63c-0.92,0-3.88,1.56-3.88,2.61a2.439,2.439,0,0,0,.69,1.16,53.342,53.342,0,0,1,5.28,6.78,1.618,1.618,0,0,0,1.28.93C2593.56,1403.6,2596.69,1402.09,2596.69,1400.93Zm-13.22,13.34c0-.11-0.06-0.34-0.06-0.46a1.27,1.27,0,0,1,1.33-1.33l10.1-.76c1.39-.11,2.37-0.17,3.19-0.17,2.61-.12,2.72-0.35,2.72-2.09,0-3.19-.58-3.89-1.27-3.89-0.64,0-3.83.41-4.99,0.53l-10.33.81a1.328,1.328,0,0,1-1.62-1.39c-0.29-3.48-.52-6.96-0.52-10.45,0-.87.06-1.27,0.64-1.5a1.177,1.177,0,0,0,.92-0.99c0-.93-1.27-0.93-4.17-1.16-0.41-.06-1.92-0.23-2.27-0.23a1.032,1.032,0,0,0-1.21,1.16c0,0.4.11,1.85,0.11,2.32,0.12,5.1.23,7.42,0.58,11.25a1.342,1.342,0,0,1-1.33,1.63l-3.6.29c-1.33.11-2.61,0.11-3.42,0.17-2.26.12-2.67,0.17-2.67,1.33,0,3.77.29,4.64,1.39,4.64,0.41,0,4.24-.46,4.99-0.52l3.95-.29a1.469,1.469,0,0,1,1.79,1.45c1.22,7.25,3.25,16.13,7.37,22.28,1.8,2.72,4.35,5.8,7.89,5.8,3.07,0,4.87-1.97,6.21-4.58,0.69-1.28,2.03-4.82,2.03-6.21,0-1.86-3.25-2.84-4.12-2.84a0.965,0.965,0,0,0-.93.98c-0.29,1.74-1.1,6.21-3.31,6.21a2.98,2.98,0,0,1-2.14-1.28C2586.37,1429.53,2584.45,1421.06,2583.47,1414.27Zm-26.69,18.97c0,2.56-.17,5.17-0.17,7.72,0,1.85.64,1.85,3.13,1.85,2.55,0,3.14,0,3.14-1.85,0-2.55-.12-5.16-0.12-7.72v-20.47c0-1.8.06-2.67,0.64-3.14a1.047,1.047,0,0,0,.69-0.81c0-.58-0.63-0.64-1.1-0.69a0.511,0.511,0,0,1-.41-0.41,1.874,1.874,0,0,1,.24-0.52,73.372,73.372,0,0,0,5.28-11.2c0.4-1.16.46-1.27,1.39-1.62a1.074,1.074,0,0,0,.87-0.76c0-.75-1.1-1.04-2.96-1.68-0.52-.17-2.9-1.04-3.25-1.04-0.69,0-.98.98-1.16,1.51a64.179,64.179,0,0,1-13.17,22.5,3.133,3.133,0,0,0-1.04,1.69c0,1.04,2.44,3.94,3.54,3.94,0.93,0,2.84-2.49,3.48-3.25a0.91,0.91,0,0,1,.46-0.23,0.546,0.546,0,0,1,.52.64v15.54Zm59.46-37.53a2.977,2.977,0,0,0,.17.7,38.136,38.136,0,0,1,1.1,3.83c0.58,2.38,2.21,8.52,2.9,10.61a1.943,1.943,0,0,1,.23,1.05,1.781,1.781,0,0,1-.98,1.5c-4.82,3.14-10.04,7.26-10.04,13.58a10.208,10.208,0,0,0,5.34,8.93c3.83,2.26,7.6,2.5,11.89,2.5,2.78,0,13.75-.35,15.95-0.93,1.16-.29,1.22-0.93,1.22-2.44v-0.69c0-1.22-.06-3.6-0.87-3.6a1.543,1.543,0,0,0-.52.06,87.591,87.591,0,0,1-15.14,1.5,23.231,23.231,0,0,1-7.72-1.04c-1.79-.64-3.82-2.09-3.82-4.18,0-2.2,1.33-3.77,2.84-5.22,2.43-2.32,7.36-5.16,10.44-6.84a105.523,105.523,0,0,1,14.33-6.67,1.259,1.259,0,0,0,1.1-.93c0-.81-1.22-2.78-1.68-3.54-0.35-.58-1.34-2.32-2.09-2.32a3.736,3.736,0,0,0-1.51.58c-1.51.99-10.79,6.44-11.83,6.44-0.99,0-1.16-.99-1.34-1.74a79.905,79.905,0,0,1-1.8-10.38c-0.11-1.34,0-2.21-1.62-2.21a22.539,22.539,0,0,0-2.78.29C2618.15,1394.84,2616.24,1394.84,2616.24,1395.71Zm80.56,22.28c2.2,0,4.41.11,6.67,0.11,1.04,0,1.04-.52,1.04-2.03,0-1.45,0-2.09-1.04-2.09-2.2,0-4.47.12-6.67,0.12h-32.48c-2.21,0-4.41-.12-6.67-0.12-1.11,0-1.05.7-1.05,2.04,0,1.39-.06,2.08,1.05,2.08,2.26,0,4.46-.11,6.67-0.11h32.48Zm-12.65,13.69a1,1,0,0,1,1.11.92,1.692,1.692,0,0,1-.12.53,25.467,25.467,0,0,1-1.22,2.61,2.112,2.112,0,0,1-2.32,1.33h-3.42a1.106,1.106,0,0,1-.99-0.93,28.263,28.263,0,0,0-1.39-3.07,0.91,0.91,0,0,1-.11-0.52,0.875,0.875,0,0,1,.98-0.87h7.48Zm7.72-5.34a1.292,1.292,0,0,1-1.39,1.33h-20.07a1.292,1.292,0,0,1-1.39-1.33v-0.81a1.307,1.307,0,0,1,1.39-1.39h20.07a1.307,1.307,0,0,1,1.39,1.39v0.81Zm-1.39,7.66a1.023,1.023,0,0,1,.87-0.58,0.754,0.754,0,1,0,.29-1.45,0.169,0.169,0,0,1-.12-0.12,0.151,0.151,0,0,1,.18-0.12c0.75,0.06,1.5.06,2.26,0.06,1.62,0,3.42-.23,3.42-2.26,0-.99-0.06-1.91-0.06-2.9v-1.51c0-.98.06-1.91,0.06-2.9,0-1.97-1.86-2.2-3.36-2.2s-3.02.06-4.53,0.06h-18.1c-1.45,0-2.95-.06-4.41-0.06-1.62,0-3.48.17-3.48,2.2,0,0.99.12,1.97,0.12,2.9v1.51c0,0.99-.12,1.91-0.12,2.9,0,1.97,1.74,2.26,3.37,2.26h1.62a1.385,1.385,0,0,1,1.11.99,28.389,28.389,0,0,1,1.5,2.9,0.783,0.783,0,0,1,.18.52,0.971,0.971,0,0,1-1.1.87h-7.31c-2.27,0-4.53-.11-6.79-0.11-1.22,0-1.16.69-1.16,2.37,0,1.74,0,2.32,1.16,2.32,2.26,0,4.52-.11,6.79-0.11h35.44c2.26,0,4.52.11,6.78,0.11,1.22,0,1.17-.63,1.17-2.32s0.05-2.37-1.17-2.37c-2.26,0-4.52.11-6.78,0.11h-7.77a0.933,0.933,0,0,1-1.05-.81,0.953,0.953,0,0,1,.18-0.58C2689.9,1435.16,2690.19,1434.58,2690.48,1434Zm2.55-29.01a1.342,1.342,0,0,1,1.39,1.4v0.58a1.339,1.339,0,0,1-1.39,1.39h-3.02a1.339,1.339,0,0,1-1.39-1.39v-0.58a1.342,1.342,0,0,1,1.39-1.4h3.02Zm-9.75,1.98a1.339,1.339,0,0,1-1.39,1.39h-2.78a1.339,1.339,0,0,1-1.39-1.39v-0.58a1.342,1.342,0,0,1,1.39-1.4h2.78a1.342,1.342,0,0,1,1.39,1.4v0.58Zm-16.7-.58a1.342,1.342,0,0,1,1.39-1.4h3.02a1.342,1.342,0,0,1,1.39,1.4v0.58a1.339,1.339,0,0,1-1.39,1.39h-3.02a1.339,1.339,0,0,1-1.39-1.39v-0.58Zm22.04-6.62a1.339,1.339,0,0,1,1.39-1.39h3.02a1.339,1.339,0,0,1,1.39,1.39v0.35a1.339,1.339,0,0,1-1.39,1.39h-3.02a1.339,1.339,0,0,1-1.39-1.39v-0.35Zm-10.9,0a1.339,1.339,0,0,1,1.39-1.39h2.78a1.339,1.339,0,0,1,1.39,1.39v0.35a1.339,1.339,0,0,1-1.39,1.39h-2.78a1.339,1.339,0,0,1-1.39-1.39v-0.35Zm-9.75,1.74a1.339,1.339,0,0,1-1.39-1.39v-0.35a1.339,1.339,0,0,1,1.39-1.39h3.02a1.339,1.339,0,0,1,1.39,1.39v0.35a1.339,1.339,0,0,1-1.39,1.39h-3.02Zm9.92-7.94a1.258,1.258,0,0,1,.46-0.76,1.206,1.206,0,0,0,.76-0.87c0-.58-0.81-0.69-1.28-0.75-0.93-.06-4-0.41-4.75-0.41a0.8,0.8,0,0,0-.99.81c0,0.24.17,1.11,0.17,1.57a1.282,1.282,0,0,1-1.5,1.51h-1.63c-1.68,0-3.36-.06-5.05-0.06-1.5,0-2.9.17-2.9,2.09,0,0.99.06,2.03,0.06,3.02v7.3c0,0.99-.06,2.03-0.06,3.02,0,1.91,1.45,2.09,2.96,2.09,1.68,0,3.37-.06,4.99-0.06h22.74c1.68,0,3.31.06,4.99,0.06,1.56,0,2.96-.18,2.96-2.03,0-.99-0.06-2.03-0.06-3.08v-7.3c0-1.11.06-2.03,0.06-3.02,0-1.92-1.45-2.09-2.96-2.09-1.68,0-3.37.06-4.99,0.06h-1.57c-0.63,0-1.5-.18-1.5-0.99a1.164,1.164,0,0,1,.46-0.81,1.191,1.191,0,0,0,.75-0.87c0-.64-0.87-0.7-1.33-0.75-0.81-.06-4-0.41-4.7-0.41-0.58,0-.99.12-0.99,0.81,0,0.18.18,1.16,0.18,1.51a1.288,1.288,0,0,1-1.51,1.51h-2.26C2678.7,1394.67,2677.83,1394.44,2677.89,1393.57Zm69.95,6.2c-1.04,0-4.41,2.03-4.41,3.08a1.5,1.5,0,0,0,.52.98c3.89,4.12,5.46,7.43,7.78,12.42,0.29,0.58.58,1.33,1.33,1.33,1.16,0,4.81-2.14,4.81-3.42C2757.87,1412.71,2749.99,1399.77,2747.84,1399.77Zm-21.06-5.74c-0.63,0-.63.7-0.63,1.16,0,0.7.05,1.34,0.05,1.97a53.269,53.269,0,0,1-.58,7.49c-0.17,1.21-.75,1.5-1.91,1.74a92.7,92.7,0,0,1-9.63,1.79c-0.75.06-1.74,0.06-1.74,0.93,0,0.29.99,5.98,2.44,5.98a5.023,5.023,0,0,0,1.21-.35,47.131,47.131,0,0,1,6.62-2.03,0.7,0.7,0,0,1,.75.75,31.648,31.648,0,0,1-1.45,4.35,47.7,47.7,0,0,1-10.32,16.19,2.174,2.174,0,0,0-.82,1.33c0,1.34,3.72,3.54,4.7,3.54a1.6,1.6,0,0,0,1.05-.58,66.907,66.907,0,0,0,5.8-8.35,68.558,68.558,0,0,0,7.36-17.23c0.41-1.63.99-2.09,4.3-2.09,3.48,0,3.65,2.38,3.65,5.28,0,3.71-.87,9.74-2.55,13.11-1.45,2.84-2.9,3.54-6.03,3.54-1.16,0-2.15-.18-2.73-0.18s-0.75.41-.75,0.99a12.729,12.729,0,0,0,.98,4.12c0.64,1.22,1.39,1.39,2.67,1.39a11.842,11.842,0,0,0,10.96-6.27c2.56-4.64,3.48-12.47,3.48-17.8,0-3.19-.63-6.56-3.53-8.41-2.09-1.34-4.24-1.34-6.62-1.34-0.23,0-.46.06-0.69,0.06a1.175,1.175,0,0,1-1.28-1.22,2.483,2.483,0,0,1,.12-0.64c0.17-.98.29-1.79,0.4-2.49,0.35-2.03.47-2.96,1.57-3.77a0.858,0.858,0,0,0,.46-0.7c0-.64-0.98-0.81-1.45-0.93C2731.77,1395.13,2727.36,1394.03,2726.78,1394.03Zm60.27,36.78c2.9,0,2.95.63,2.95,1.79,0,2.04-.92,3.14-3.01,3.14-1.51,0-3.83-.93-3.83-2.73C2783.16,1431.15,2785.65,1430.81,2787.05,1430.81Zm2.84-20.48a1.173,1.173,0,0,0-1.39,1.28c0,0.29.05,0.52,0.05,0.81,0.18,2.26,1.05,10.67,1.05,12.53a1.018,1.018,0,0,1-1.22.98h-1.51c-4.58,0-9.63,1.86-9.63,7.2,0,5.39,5.51,7.89,10.21,7.89,3.95,0,7.37-1.45,8.07-5.69,0.05-.52.29-1.33,0.92-1.33,0.93,0,3.77,2.03,4.64,2.67a2.977,2.977,0,0,0,1.51.81c1.45,0,3.6-3.31,3.6-4.24,0-1.39-6.85-4.58-8.18-5.1-0.17-.06-0.41-0.18-0.58-0.23-0.87-.35-1.62-0.58-1.8-1.45-0.29-1.22-.58-9.57-0.58-11.26,0-1.22.12-2.96,0.12-3.07a1.294,1.294,0,0,0-1.16-1.22A24.627,24.627,0,0,0,2789.89,1410.33Zm8.87-8.93c-1.21,0-3.88,3.19-3.88,4a1.531,1.531,0,0,0,.75.93,32.778,32.778,0,0,1,7.25,7.48,1.9,1.9,0,0,0,1.28,1.04c1.04,0,4.35-2.61,4.35-4C2808.51,1409.34,2800.21,1401.4,2798.76,1401.4Zm-19.49-9.46c-0.52,0-.52.58-0.52,0.99,0,1.85-.98,8.29-1.85,9.74a1.971,1.971,0,0,1-1.74.93,52.162,52.162,0,0,1-5.98.29h-2.67a0.843,0.843,0,0,0-1.04.93c0,0.58.29,2.67,0.4,3.36,0.24,1.34.47,1.86,1.45,1.86,1.34,0,5.8-.58,6.27-0.58a0.782,0.782,0,0,1,.81.75,22.5,22.5,0,0,1-1.33,3.54,107.406,107.406,0,0,1-6.91,13.4,6.492,6.492,0,0,0-1.04,2.09c0,1.22,3.89,2.9,5.16,2.9a1.158,1.158,0,0,0,1.16-.81,147.056,147.056,0,0,0,9.46-20.65c0.69-1.92.64-2.32,2.72-2.67,5.34-.99,6.04-1.1,6.04-2.38a28.964,28.964,0,0,0-.29-3.07c-0.12-.7-0.18-1.74-0.87-1.74a2.288,2.288,0,0,0-.58.11,27.185,27.185,0,0,1-3.31.87,0.669,0.669,0,0,1-.64-0.75,19.276,19.276,0,0,1,.64-2.61c0.17-.64.58-2.67,1.04-3.08a1.64,1.64,0,0,0,.93-1.04,1.187,1.187,0,0,0-.93-0.7C2784.73,1393.33,2779.91,1391.94,2779.27,1391.94Zm44.84,26.92c-0.64,0-.82.58-1.11,1.27a81.676,81.676,0,0,1-9.16,16.01,4.52,4.52,0,0,0-.93,1.45c0,0.7,2.67,2.67,3.31,3.19a5.886,5.886,0,0,0,1.91,1.28,0.8,0.8,0,0,0,.76-0.87c0-.46-0.18-0.75-0.18-1.04a5.625,5.625,0,0,1,.76-1.45c1.27-2.09,8.81-15.03,8.81-16.48C2828.28,1420.95,2825.15,1418.86,2824.11,1418.86Zm-7.72-14.5c-0.93,0-3.3,3.01-3.3,3.82,0,0.58.69,0.93,1.16,1.28a72.146,72.146,0,0,1,6.84,5.05,1.816,1.816,0,0,0,1.04.52c1.16,0,3.43-2.96,3.43-3.71,0-.87-2.56-2.61-3.31-3.19C2821.44,1407.49,2817.09,1404.36,2816.39,1404.36Zm12.07-5.98c0-.81-3.08-2.84-3.83-3.36-0.81-.58-4.18-3.02-4.93-3.02-1.1,0-3.31,2.96-3.31,3.83a1.82,1.82,0,0,0,1.05,1.22,71.455,71.455,0,0,1,6.43,4.46,2.061,2.061,0,0,0,1.16.7C2825.96,1402.21,2828.46,1399.31,2828.46,1398.38Zm22.45,20.36a1.662,1.662,0,0,1-1.63-1.62v-8.18a1.63,1.63,0,0,1,1.63-1.63h4.46a1.63,1.63,0,0,1,1.63,1.63v8.18a1.662,1.662,0,0,1-1.63,1.62h-4.46Zm-7.43-1.62a1.66,1.66,0,0,1-1.62,1.62h-4.3a1.547,1.547,0,0,1-1.62-1.62v-8.18a1.591,1.591,0,0,1,1.62-1.63h4.3a1.628,1.628,0,0,1,1.62,1.63v8.18Zm-1.62,6.9a1.374,1.374,0,0,1,1.62,1.62v6.67c0,2.96-.17,5.98-0.17,8.94,0,1.68.63,1.8,3.01,1.8,2.56,0,3.14-.06,3.14-1.8,0-2.96-.18-5.98-0.18-8.94v-6.67a1.381,1.381,0,0,1,1.63-1.62h4.87a0.919,0.919,0,0,1,1.1,1.04c0.06,1.74.46,1.8,2.96,1.8,2.26,0,3.01,0,3.01-1.68,0-1.62-.11-3.25-0.11-4.81v-11.43c0-1.51.06-2.96,0.06-4.47,0-2.14-1.05-2.72-3.02-2.72-1.62,0-3.25.05-4.87,0.05h-4a1.362,1.362,0,0,1-1.63-1.56v-3.6c0-2.09.06-3.25,0.64-3.71a1.228,1.228,0,0,0,.7-0.87c0-.76-0.93-0.76-1.45-0.81-1.22-.06-3.83-0.29-4.94-0.29-0.52,0-.98.11-0.98,0.75,0,0.17.06,0.41,0.06,0.58a24.668,24.668,0,0,1,.17,4.18v3.77a1.355,1.355,0,0,1-1.62,1.56h-3.83c-1.68,0-3.31-.05-4.93-0.05-1.97,0-3.02.58-3.02,2.72,0,1.51.12,2.96,0.12,4.47v11.43c0,1.56-.12,3.19-0.12,4.81,0,1.68.76,1.68,2.96,1.68,2.55,0,2.96-.06,3.02-1.8a0.9,0.9,0,0,1,1.04-1.04h4.76Zm50.92,10.5a33.657,33.657,0,0,0-1.33-5.22c-1.34-3.95-1.74-5.11-2.61-5.11-0.7,0-3.08.7-3.08,1.57a4.922,4.922,0,0,0,.23.81,58.09,58.09,0,0,1,2.44,8.24c0.17,0.81.29,1.39,1.33,1.39C2890.58,1436.2,2892.78,1435.56,2892.78,1434.52Zm-18.74-10.21c-0.69,0-.69.58-0.75,1.04a57.731,57.731,0,0,1-1.74,10.45c-0.12.52-.7,2.66-0.7,3.01,0,1.05,2.9,1.57,3.31,1.57a1.2,1.2,0,0,0,1.16-1.16c0.64-2.38,1.74-9.05,2.03-11.6a1.188,1.188,0,0,1,.75-1.34,0.736,0.736,0,0,0,.58-0.64,1.018,1.018,0,0,0-1.1-.75C2877,1424.77,2874.51,1424.31,2874.04,1424.31Zm29.01-.17a1.307,1.307,0,0,1,1.39,1.39v0.52a1.339,1.339,0,0,1-1.39,1.39h-2.79a1.339,1.339,0,0,1-1.39-1.39v-0.52a1.307,1.307,0,0,1,1.39-1.39h2.79Zm6.67,1.39a1.307,1.307,0,0,1,1.39-1.39h2.96a1.262,1.262,0,0,1,1.33,1.39v0.52a1.292,1.292,0,0,1-1.33,1.39h-2.96a1.339,1.339,0,0,1-1.39-1.39v-0.52Zm-5.28-6.21a1.3,1.3,0,0,1-1.39,1.34h-2.79a1.3,1.3,0,0,1-1.39-1.34v-0.46a1.339,1.339,0,0,1,1.39-1.39h2.79a1.339,1.339,0,0,1,1.39,1.39v0.46Zm6.67,1.34a1.3,1.3,0,0,1-1.39-1.34v-0.46a1.339,1.339,0,0,1,1.39-1.39h2.96a1.292,1.292,0,0,1,1.33,1.39v0.46a1.252,1.252,0,0,1-1.33,1.34h-2.96Zm-1.39-16.25a1.339,1.339,0,0,1,1.39-1.39h2.26a1.339,1.339,0,0,1,1.39,1.39v0.47a1.339,1.339,0,0,1-1.39,1.39h-2.26a1.339,1.339,0,0,1-1.39-1.39v-0.47Zm-6.67-1.39a1.339,1.339,0,0,1,1.39,1.39v0.47a1.339,1.339,0,0,1-1.39,1.39h-1.92a1.292,1.292,0,0,1-1.33-1.39v-0.47a1.292,1.292,0,0,1,1.33-1.39h1.92Zm8.06-3.3a1.342,1.342,0,0,1-1.39-1.4v-0.29a1.339,1.339,0,0,1,1.39-1.39h2.26a1.339,1.339,0,0,1,1.39,1.39v0.29a1.342,1.342,0,0,1-1.39,1.4h-2.26Zm-6.67-1.4a1.342,1.342,0,0,1-1.39,1.4h-1.92a1.3,1.3,0,0,1-1.33-1.4v-0.29a1.292,1.292,0,0,1,1.33-1.39h1.92a1.339,1.339,0,0,1,1.39,1.39v0.29Zm-1.39,11.72a1.17,1.17,0,0,1,1.39,1.33v0.64a1.173,1.173,0,0,1-1.39,1.34h-7.25c-1.45,0-2.21.34-2.21,1.91,0,1.05.06,2.09,0.06,3.13v11.2c0,1.22-.06,2.38-0.06,3.59,0,1.28.64,1.22,2.61,1.22,2.5,0,2.67.06,2.73-1.45,0-1.27.46-1.45,2.43-1.45h1.45a1.386,1.386,0,0,1,1.63,1.57c0,1.1-.06,2.15-0.06,3.19,0,3.94,1.74,5.63,5.69,5.63h6.32c1.97,0,4.52-.12,5.62-1.98a15.178,15.178,0,0,0,1.46-5.27c0-1.46-3.02-1.75-4.12-1.75a0.913,0.913,0,0,0-1.11.76c-0.29,2.26-.34,3.36-3.01,3.36h-3.25c-2.09,0-2.26-.46-2.26-2.43v-1.45a1.4,1.4,0,0,1,1.62-1.63h2.21c1.91,0,3.36.06,4.46,0.06,2.03,0,2.84-.29,2.84-1.91,0-.99-0.05-2.03-0.05-3.02v-8.24c0-1.04.05-2.08,0.05-3.13,0-1.68-.87-1.97-3.01-1.97-1.1,0-2.5.06-4.29,0.06h-2.44a1.17,1.17,0,0,1-1.39-1.34v-0.64a1.167,1.167,0,0,1,1.39-1.33h3.25a1.071,1.071,0,0,1,.69.29,3.809,3.809,0,0,0,2.15.35c1.68,0,2.73.11,2.73-1.51,0-1.04-.06-2.03-0.06-3.07v-7.78c0-1.1.06-2.03,0.06-2.9,0-1.62-.29-2.61-1.98-2.61-1.33,0-2.72.12-4.06,0.12h-13.45c-1.45,0-2.61-.12-3.48-0.12-1.69,0-2.5.35-2.5,2.09,0,1.16.06,2.26,0.06,3.42v7.78c0,1.04-.12,2.03-0.12,3.07,0,1.62,1.11,1.51,2.79,1.51a4.3,4.3,0,0,0,2.26-.35,1.455,1.455,0,0,1,.7-0.29h2.9Zm-28.72-9.4a2.552,2.552,0,0,0-1.04-.52c-1.04,0-2.49,3.08-2.49,3.95a1.388,1.388,0,0,0,.69,1.1c1.68,1.27,4.29,3.42,5.86,4.93a1.877,1.877,0,0,1,.7,1.27,2.073,2.073,0,0,1-.35.99c-0.52.93-1.05,1.86-1.63,2.73a2.393,2.393,0,0,1-2.2,1.33c-0.23,0-.52.06-0.81,0.06-0.99,0-1.86-.06-1.86.64,0,0.29.76,4,.87,4.58,0.12,0.46.41,1.33,0.87,1.33a0.881,0.881,0,0,0,.81-0.58,0.843,0.843,0,0,1,.82-0.52c1.1-.11,2.14-0.23,3.24-0.4h0.29a1.238,1.238,0,0,1,1.28,1.45v10.09c0,2.61-.12,5.22-0.12,7.83,0,1.91.47,1.97,2.67,1.97,2.15,0,2.61-.06,2.61-1.97,0-2.61-.11-5.22-0.11-7.83v-10.79a1.533,1.533,0,0,1,1.45-1.8l0.58-.11h0.35a1.307,1.307,0,0,1,1.33,1.04,0.989,0.989,0,0,0,1.16.81c0.23,0,3.31-.17,3.31-1.56a38.442,38.442,0,0,0-1.34-5.05c-1.68-5.11-1.85-5.45-2.9-5.45-0.81,0-3.07.46-3.07,1.45a10.952,10.952,0,0,0,.69,2.2,1.634,1.634,0,0,1,.12.52,1.143,1.143,0,0,1-1.1,1.16c-0.87.06-1.69,0.18-2.5,0.24a0.723,0.723,0,0,1-.87-0.64,0.81,0.81,0,0,1,.18-0.53c2.55-3.94,5.04-7.94,7.36-12.12a1.507,1.507,0,0,1,1.16-.64c0.7-.11.93-0.29,0.93-0.75,0-.58-0.93-0.99-1.74-1.39a20.379,20.379,0,0,0-3.48-1.34c-0.64,0-.87.58-1.16,1.4-0.99,1.85-2.03,3.65-3.02,5.51a1.225,1.225,0,0,1-1.04.63,1.349,1.349,0,0,1-.87-0.4,3.681,3.681,0,0,1-.52-0.47,1.305,1.305,0,0,1-.47-0.87,1.187,1.187,0,0,1,.24-0.69c1.33-2.15,3.42-6.27,4.52-8.59a0.907,0.907,0,0,1,.81-0.52c0.41-.12,1.05-0.12,1.05-0.7,0-.98-4.82-2.66-5.11-2.66a1.075,1.075,0,0,0-.87,1.04c-0.69,1.97-2.67,6.27-3.65,8.24a1.076,1.076,0,0,1-.87.69A1.1,1.1,0,0,1,2874.33,1400.64Zm73.38-9.51c-0.58,0-.7.58-0.82,1.22a31.321,31.321,0,0,1-3.13,7.48c-0.52.7-2.09,0.76-3.59,0.76h-1.69c-1.68,0-3.19-.12-4.17-0.12-1.45,0-1.69.35-1.69,2.67,0,2.96.24,3.25,1.51,3.25,1.8,0,3.14-.18,4.06-0.18,0.82,0,1.28.18,1.28,0.7,0,1.1-8.41,12.76-9.75,14.21a2.417,2.417,0,0,0-.75,1.28c0,1.04,3.89,3.36,4.93,3.36a0.951,0.951,0,0,0,.81-0.58,38,38,0,0,1,4.88-6.79c2.26-2.32,7.59-5.1,10.84-5.1a2.4,2.4,0,0,1,2.55,1.97,7.755,7.755,0,0,1,.29,1.63,1.483,1.483,0,0,1-1.04,1.33c-1.22.58-2.44,1.22-3.6,1.91-4,2.38-8.23,5.22-8.23,10.44,0,3.95,2.26,6.73,5.8,8.3a21.538,21.538,0,0,0,9.16,1.51c2.5,0,8.94-.23,11.14-0.76,1.28-.29,1.33-0.75,1.33-2.49,0-3.31-.4-3.95-1.16-3.95a7,7,0,0,0-1.16.12,42.31,42.31,0,0,1-10.79,1.45c-2.78,0-8.41-.35-8.41-4.23,0-3.6,5.98-6.15,6.27-6.15a0.8,0.8,0,0,1,.75.98c0,1.22-.11,2.5-0.11,3.77,0,1.51,1.04,1.63,3.54,1.63,2.2,0,2.49-.23,2.49-2.32,0-1.8-.06-3.54-0.06-5.34v-0.75c0-1.16.47-1.51,1.51-1.92,2.26-.98,4.52-1.97,6.84-2.84,0.29-.11.58-0.17,0.82-0.29,1.1-.35,1.74-0.58,1.74-1.27,0-.99-1.4-5.46-2.5-5.46a4.971,4.971,0,0,0-1.51.58c-0.92.52-6.09,3.31-6.78,3.31a0.961,0.961,0,0,1-.87-0.99c-0.76-3.65-2.9-5.22-6.62-5.22a16.056,16.056,0,0,0-6.32,1.51,2.26,2.26,0,0,1-1.04.35,0.46,0.46,0,0,1-.47-0.41,18.718,18.718,0,0,1,1.98-3.36,2.044,2.044,0,0,1,1.74-.93c3.65-.41,7.3-1.04,10.96-1.8,1.22-.23,3.07-0.46,3.07-1.45a18.889,18.889,0,0,0-.46-3.13c-0.17-.81-0.46-1.74-1.45-1.74a4.27,4.27,0,0,0-1.45.35,42.669,42.669,0,0,1-6.73,1.62,0.562,0.562,0,0,1-.64-0.58,3.936,3.936,0,0,1,.58-1.33c0.76-1.34.99-1.63,1.92-1.98a0.917,0.917,0,0,0,.69-0.69C2954.2,1393.8,2948.23,1391.13,2947.71,1391.13Zm72.67,41.59c0,3.31,0,4.18-2.55,4.18-1.45,0-2.67-.23-3.19-0.23-1.16,0-1.22.98-1.22,1.91,0,4.58,1.57,4.47,3.71,4.47,4.76,0,9.17-.82,9.17-6.56,0-1.39-.12-2.78-0.12-4.18v-35.78c0-2.33.06-2.85,0.7-3.25a1.142,1.142,0,0,0,.81-0.87c0-.82-1.04-0.87-2.67-0.99a7.139,7.139,0,0,1-1.1-.06,23.7,23.7,0,0,0-2.78-.17c-0.53,0-.99.06-0.99,0.69a1.6,1.6,0,0,0,.06.53,23.832,23.832,0,0,1,.17,3.65v36.66Zm-9.8-9.4c0,2.21-.12,4.35-0.12,6.56,0,1.51.58,1.56,2.73,1.56s2.67-.05,2.67-1.62c0-2.2-.12-4.35-0.12-6.5v-20.7c0-1.98.06-2.38,0.64-2.73a1.284,1.284,0,0,0,.87-0.87,0.85,0.85,0,0,0-.93-0.7c-0.81-.11-4.29-0.4-5.04-0.4a0.739,0.739,0,0,0-.93.69c0,0.12.06,0.29,0.06,0.47a30.265,30.265,0,0,1,.17,3.25v20.99Zm-18.04,13.46a1.646,1.646,0,0,1-1.62-1.62v-1.34a1.527,1.527,0,0,1,1.62-1.56h6.44a1.533,1.533,0,0,1,1.62,1.56v1.34a1.653,1.653,0,0,1-1.62,1.62h-6.44Zm-3.83-21.34a1.1,1.1,0,0,1-1.16-1.17v-0.34a1.119,1.119,0,0,1,1.16-1.11h10.91a1.042,1.042,0,0,1,1.1,1.11v0.34a1.059,1.059,0,0,1-1.1,1.17h-10.91Zm0.41,6.14a1.331,1.331,0,0,1-1.57-1.39,1.418,1.418,0,0,1,1.62-1.33h10.5a0.922,0.922,0,0,1,1.05,1.1v0.52a0.935,0.935,0,0,1-1.1,1.1h-10.5Zm11.37,20.02c-0.06,1.27.52,1.21,2.72,1.21s3.02,0.06,3.02-.98c0-.23-0.12-1.92-0.12-2.96v-5.92c0-.81.06-1.56,0.06-2.2,0-1.51-.41-2.44-3.25-2.44-1.27,0-2.49.06-3.71,0.06h-6.61c-1.22,0-2.44-.06-3.66-0.06h-0.93a1.018,1.018,0,0,1-1.1-1.22v-0.23a1.386,1.386,0,0,1,1.57-1.27h10.21c1.51,0,2.96.11,4.46,0.11s3.25-.06,3.25-2.03c0-1.04-.11-2.03-0.11-3.01v-6.27c0-1.1.11-2.2,0.11-3.31,0-2.08-1.56-2.26-3.3-2.26-1.45,0-2.96.12-4.41,0.12h-9.17c-1.62,0-3.19-.18-4.81-0.18-1.8,0-2.84.35-2.84,2.38,0,1.05.05,2.15,0.05,3.25v3.66c0,6.32-1.1,13.16-4.58,18.56a4.135,4.135,0,0,0-.75,1.39c0,1.04,2.96,3.25,4.29,3.25a1.955,1.955,0,0,0,1.57-1.34,39.516,39.516,0,0,0,2.43-4.98,0.388,0.388,0,0,1,.41-0.29c0.4,0,.4.52,0.4,0.81v3.42c0,0.87-.11,2.78-0.11,2.96,0,1.04.93,0.98,2.78,0.98,2.21,0,2.73,0,2.67-1.21a0.819,0.819,0,0,1,.87-0.87h7.72A0.79,0.79,0,0,1,3000.49,1441.6Zm-5.51-42.87c0.98,0.99,1.91,1.86,2.95,2.78a0.867,0.867,0,0,1,.24.53,0.6,0.6,0,0,1-.64.52h-5.8a8.269,8.269,0,0,1-1.22,0,0.589,0.589,0,0,1-.64-0.52,0.83,0.83,0,0,1,.23-0.58c0.99-.87,1.92-1.8,2.85-2.73a1.406,1.406,0,0,1,1.04-.52A1.392,1.392,0,0,1,2994.98,1398.73Zm-8.59,6.61a1.037,1.037,0,0,0,1.22,1.22c1.39,0,2.78-.12,4.12-0.12h4.35c1.33,0,2.72.12,4.12,0.12,1.04,0,1.16-.41,1.21-1.33a0.581,0.581,0,0,1,.41-0.53,0.431,0.431,0,0,1,.29.12c0.75,0.52,3.02,2.09,3.77,2.09,1.39,0,3.48-2.96,3.48-4.18a1.538,1.538,0,0,0-1.04-1.1,41.722,41.722,0,0,1-10.33-7.19,0.226,0.226,0,0,1-.06-0.24,0.271,0.271,0,0,1,.24-0.29,0.815,0.815,0,0,0,.81-0.69c0-.7-0.64-0.81-2.15-1.34a23.25,23.25,0,0,0-3.59-1.1,1.657,1.657,0,0,0-1.22.93,47.54,47.54,0,0,1-13.63,11.83c-0.47.24-1.34,0.64-1.34,1.28,0,1.16,1.97,3.83,3.19,3.83,0.99,0,4.64-2.84,5.57-3.6a1.2,1.2,0,0,0,.23-0.06A0.385,0.385,0,0,1,2986.39,1405.34Zm69.31,27.5a1.737,1.737,0,0,1-1.56,1.97c-1.74,0-4.53-.99-4.53-3.08a2.406,2.406,0,0,1,2.5-2.32A3.544,3.544,0,0,1,3055.7,1432.84Zm5.4-37.59a7.694,7.694,0,0,0-2.21.64c-3.36,1.33-10.96,2.14-14.67,2.14h-1.39c-1.75,0-1.8.12-1.8,1.45,0,0.99.17,5.34,1.45,5.34,0.93,0,9.1-1.68,10.5-2.03a12.962,12.962,0,0,1,1.39-.23,0.822,0.822,0,0,1,.98.69c0,0.58-1.04,1.63-1.5,2.09a235.008,235.008,0,0,1-18.04,18.22c-0.53.4-1.4,1.04-1.4,1.74,0,0.92,2.96,4.17,4.18,4.17a0.8,0.8,0,0,0,.64-0.4c2.09-2.38,4.18-4.76,6.44-6.96,3.71-3.66,7.71-5.69,12.99-5.69,5.05,0,9.8,2.32,9.8,7.95,0,5.86-5.51,8.93-7.01,8.93a0.72,0.72,0,0,1-.7-0.75,5.8,5.8,0,0,0-1.05-3.72,9.445,9.445,0,0,0-7.71-4.11,7.271,7.271,0,0,0-7.42,7.01c0,5.92,6.84,7.89,11.65,7.89,9.34,0,18.45-5.33,18.45-15.6a11.985,11.985,0,0,0-6.9-11.25,16.954,16.954,0,0,0-7.14-1.74,10.727,10.727,0,0,0-2.38.23,3.237,3.237,0,0,1-.75.11,0.879,0.879,0,0,1-.99-0.75,1.775,1.775,0,0,1,.58-0.99,56.324,56.324,0,0,1,8.42-7.77c0.63-.46,1.27-0.81,1.27-1.22C3066.78,1399.66,3063.42,1395.25,3061.1,1395.25Zm24.47,7.66a26.139,26.139,0,0,0,.64,4.17c0.17,0.64.46,1.92,1.27,1.92a4.337,4.337,0,0,0,.87-0.12c3.72-.99,8.94-1.8,12.82-2.38,0.58-.06,3.25-0.52,3.66-0.52a0.751,0.751,0,0,1,.87.7,3.16,3.16,0,0,1-.99,1.39,25.784,25.784,0,0,0-6.38,16.65c0,11.31,8.47,14.44,18.33,14.44a1.616,1.616,0,0,0,1.86-.99,16.484,16.484,0,0,0,.87-4.75c0-.93-0.47-0.99-1.34-0.99-0.63,0-1.91.06-2.9,0.06-5.91,0-10.21-1.63-10.21-8.35a21.733,21.733,0,0,1,2.79-10.21,17.628,17.628,0,0,1,9.86-8.65c3.31-1.16,6.26-1.16,9.63-1.21,1.39-.06,2.61.05,2.61-1.22a26.687,26.687,0,0,0-.52-4.24c-0.12-.69-0.24-1.45-1.11-1.45a3.166,3.166,0,0,0-.75.06c-4.35.7-8.76,1.28-13.17,1.8-8.41.99-16.88,1.86-25.35,2.38C3086.38,1401.57,3085.57,1401.4,3085.57,1402.91Zm43.85,3.36c-0.69,0-2.96,1.51-2.96,2.2a1.428,1.428,0,0,0,.41.76,48.859,48.859,0,0,1,3.77,4.81,1.382,1.382,0,0,0,.87.76c0.7,0,2.96-1.63,2.96-2.44C3134.47,1411.66,3130,1406.27,3129.42,1406.27Zm-7.02,3.19c-0.63,0-2.95,1.45-2.95,2.15a1.5,1.5,0,0,0,.52.81c1.27,1.56,2.55,3.19,3.71,4.87a1.216,1.216,0,0,0,.81.7c0.64,0,2.96-1.57,2.96-2.44C3127.45,1414.85,3123.04,1409.46,3122.4,1409.46Zm27.26-14.15c-0.81,0-.87.58-0.87,1.45v0.64c0,2.37-.52,7.94-0.69,10.61q-0.525,6.87-.53,13.75c0,4.23.29,9.86,2.9,13.34,2.38,3.07,6.38,4.47,10.21,4.47,7.54,0,14.16-4.59,17.64-11.08,0.81-1.51,2.37-5.17,2.37-6.79,0-1.74-3.53-4.7-4.81-4.7-0.87,0-.99.99-1.16,1.92a18.317,18.317,0,0,1-3.54,8.58,14.693,14.693,0,0,1-10.9,5.63c-6.27,0-6.15-7.02-6.15-11.55,0-3.3.52-21.69,2.55-23.2a1.252,1.252,0,0,0,.7-0.87,1.213,1.213,0,0,0-1.16-.81A48.82,48.82,0,0,0,3149.66,1395.31Zm60.21,35.44c1.56,0,2.26,0,2.26,1.68,0,2.5-1.74,3.02-3.89,3.02-1.33,0-4.06-.29-4.06-2.09C3204.18,1431.15,3208.3,1430.75,3209.87,1430.75Zm1.79-27.55a0.872,0.872,0,0,0-1.04.87c0,0.23.12,0.75,0.12,0.98,0.4,3.48.52,9.69,0.63,13.46,0,1.04.24,5.92,0.24,6.38a1.212,1.212,0,0,1-1.4,1.22,19.759,19.759,0,0,0-3.19.17c-3.88.52-7.77,2.79-7.77,7.19,0,4.94,5.11,6.73,9.22,6.73,3.95,0,8.07-1.39,8.53-5.85,0.12-.82.12-1.86,1.22-1.86,1.33,0,6.26,2.78,7.54,3.65a2.386,2.386,0,0,0,1.04.47c1.11,0,2.79-2.85,2.79-3.83,0-1.8-9.51-4.93-11.26-5.4a1.793,1.793,0,0,1-1.62-1.62c-0.06-.81-0.23-5.51-0.23-6.32,0-1.51,1.22-1.57,2.15-1.74a41.078,41.078,0,0,0,7.36-1.63,1.422,1.422,0,0,0,1.34-1.16c0-.46-0.93-4.17-2.21-4.17a3.036,3.036,0,0,0-1.04.29,41.43,41.43,0,0,1-6.44,1.68c-0.81,0-1.28-.52-1.28-1.63,0-4.75.29-4.93,0.81-5.45a0.984,0.984,0,0,0,.35-0.75,1,1,0,0,0-.93-0.93C3215.84,1403.78,3212.3,1403.2,3211.66,1403.2Zm45.01-4.99c0,0.93,1.28,1.22,3.71,1.85,2.21,0.58,11.49,2.61,13.35,2.61,0.92,0,1.27-.58,1.56-1.74a24.049,24.049,0,0,0,.58-3.53c0-.87-0.64-0.87-1.45-0.93-4-.41-10.85-1.34-14.5-2.9a1.981,1.981,0,0,0-.93-0.35,1.358,1.358,0,0,0-1.16,1.1A13.789,13.789,0,0,0,3256.67,1398.21Zm11.02,7.25c-5.39,0-10.84,2.14-15.48,4.7-0.7.34-1.75,0.87-1.75,1.79,0,1.34,1.86,5.52,3.25,5.52a2.647,2.647,0,0,0,1.22-.58c3.6-3.02,7.54-5.46,12.41-5.46,4.94,0,8.07,3.08,8.07,8.01,0,8.06-8.59,14.38-15.55,16.59a1.3,1.3,0,0,0-1.16.98c0,0.93,2.38,4.88,4.12,4.88,1.1,0,4-1.57,4.99-2.15,7.37-4.47,14.09-11.66,14.09-20.77C3281.9,1410.45,3275.93,1405.46,3267.69,1405.46Zm35.38,22.33a5.1,5.1,0,0,1,5.16,5.16A5.16,5.16,0,1,1,3303.07,1427.79Zm0-2.9a8.065,8.065,0,1,0,8.06,8.06A8.043,8.043,0,0,0,3303.07,1424.89Z" transform="translate(-2496.34 -1390.59)"/>
</svg>
