<svg xmlns="http://www.w3.org/2000/svg" width="472.94" height="51.47" viewBox="0 0 472.94 51.47">
  <defs>
    <style>
      .cls-1 {
        fill-rule: evenodd;
      }
    </style>
  </defs>
  <path id="アイデアの重なりが" class="cls-1" d="M2512.62,1410.87c-0.58,0-.58.29-0.58,0.76a31.16,31.16,0,0,1-.93,8.64,27.467,27.467,0,0,1-12.12,16.88c-0.81.52-1.39,0.76-1.39,1.28,0,1.04,3.77,4.06,4.75,4.06a4.18,4.18,0,0,0,1.92-1.05c8.64-6.67,12.23-14.03,13.92-24.65,0.17-1.1.4-3.36,1.16-4.18a0.875,0.875,0,0,0,.35-0.58c0-.63-0.82-0.63-1.22-0.69C2517.61,1411.22,2513.37,1410.87,2512.62,1410.87Zm-10.15-8.81c-2.67,0-5.34-.12-8.01-0.12-1.33,0-1.45.7-1.45,2.21v1.16c0,2.32.06,2.95,1.57,2.95,2.61,0,5.22-.17,7.89-0.17h24.88c0.52,0,1.8-.12,1.8.7s-6.44,6.49-7.48,7.42c-0.41.35-1.45,1.16-1.45,1.74,0,0.99,3.25,3.54,4.23,3.54a2.269,2.269,0,0,0,1.39-.81c2.15-1.92,5.17-4.87,7.2-6.96,0.69-.76,5.04-5.28,5.39-5.57a2.6,2.6,0,0,0,1.28-1.57c0-1.04-1.45-2.61-2.15-3.36s-1.27-1.51-2.15-1.51a2.925,2.925,0,0,0-.75.06,41.648,41.648,0,0,1-6.03.29h-26.16Zm71.11,10.26c0-1.33.46-1.74,1.33-2.61a111.249,111.249,0,0,0,7.95-8.7,3.143,3.143,0,0,1,2.26-1.39,0.668,0.668,0,0,0,.58-0.58c0-.69-1.62-1.68-2.26-2.09a21.031,21.031,0,0,0-3.95-2.37,1.518,1.518,0,0,0-.92.87,49.745,49.745,0,0,1-7.89,9.8c-5.86,5.68-15.2,12.18-22.8,15.37a1.17,1.17,0,0,0-.93.99c0,1.1,3.54,4.64,4.53,4.64,1.51,0,10.73-6.15,12.47-7.43a6.388,6.388,0,0,1,2.26-1.33c1.1,0,.93,1.27.93,1.62v15.78c0,2.49-.12,4.99-0.12,7.48,0,1.51.58,1.68,3.77,1.68,2.15,0,2.9-.17,2.9-1.74,0-2.49-.11-5.04-0.11-7.59v-22.4Zm71.57-18.91c-0.64,0-2.84,1.63-2.84,2.33a1.174,1.174,0,0,0,.46.75c1.05,1.1,2.5,2.67,3.43,3.89,0.63,0.81,1.04,1.45,1.45,1.45,0.75,0,2.84-1.74,2.84-2.56,0-.58-1.86-2.55-2.32-3.07S2645.67,1393.41,2645.15,1393.41Zm-4.7,5.17c-0.64,0-2.9,1.62-2.9,2.26a1.126,1.126,0,0,0,.52.75c1.22,1.4,2.44,2.79,3.54,4.3a3.069,3.069,0,0,0,1.22,1.16c0.76,0,2.9-1.69,2.9-2.56C2645.73,1403.74,2641.09,1398.58,2640.45,1398.58Zm-33.7,15.25c-2.55,0-5.34-.17-7.37-0.17-1.39,0-1.45.87-1.45,3.02,0,2.2-.05,3.3,1.51,3.3,2.26,0,4.88-.17,7.31-0.17h11.78a1.326,1.326,0,0,1,1.33,1.39c0,0.41-.35,2.26-0.46,2.78a17.378,17.378,0,0,1-7.31,10.56,28,28,0,0,1-7.31,3.02c-0.7.23-1.57,0.35-1.57,1.04,0,0.93,3.14,4.76,4.41,4.76a10.146,10.146,0,0,0,2.73-.93c4.75-2.03,9.28-4.99,12.06-9.45a29.314,29.314,0,0,0,3.83-10.5c0.23-1.22.23-2.67,1.86-2.67h7.6c2.49,0,4.98.11,7.48,0.11,1.51,0,1.62-.81,1.62-3.19,0-2.78-.11-3.07-1.79-3.07-2.44,0-4.88.17-7.31,0.17h-28.95Zm7.66-15.19c-2.61,0-5.4-.18-7.25-0.18-1.74,0-1.63,1.16-1.63,3.25s-0.11,3.02,1.51,3.02c2.5,0,4.93-.12,7.37-0.12h12.35c2.44,0,4.93.12,7.37,0.12,1.57,0,1.57-.82,1.57-2.79,0-2.32.11-3.48-1.63-3.48-1.97,0-4.75.18-7.31,0.18h-12.35Zm56.55,12.23c-0.58,0-.58.29-0.58,0.76a31.16,31.16,0,0,1-.93,8.64,27.467,27.467,0,0,1-12.12,16.88c-0.81.52-1.39,0.76-1.39,1.28,0,1.04,3.77,4.06,4.75,4.06a4.18,4.18,0,0,0,1.92-1.05c8.64-6.67,12.24-14.03,13.92-24.65,0.17-1.1.4-3.36,1.16-4.18a0.875,0.875,0,0,0,.35-0.58c0-.63-0.82-0.63-1.22-0.69C2675.95,1411.22,2671.71,1410.87,2670.96,1410.87Zm-10.15-8.81c-2.67,0-5.34-.12-8.01-0.12-1.33,0-1.45.7-1.45,2.21v1.16c0,2.32.06,2.95,1.57,2.95,2.61,0,5.22-.17,7.89-0.17h24.88c0.52,0,1.8-.12,1.8.7s-6.44,6.49-7.48,7.42c-0.41.35-1.45,1.16-1.45,1.74,0,0.99,3.25,3.54,4.23,3.54a2.269,2.269,0,0,0,1.39-.81c2.15-1.92,5.17-4.87,7.2-6.96,0.69-.76,5.04-5.28,5.39-5.57a2.6,2.6,0,0,0,1.28-1.57c0-1.04-1.45-2.61-2.15-3.36s-1.27-1.51-2.14-1.51a2.966,2.966,0,0,0-.76.06,41.648,41.648,0,0,1-6.03.29h-26.16Zm62.46,4.46a0.921,0.921,0,0,1,.93,1.05,59.284,59.284,0,0,1-1.85,11.31c-1.63,5.92-4.88,12.53-7.78,12.53-2.95,0-3.71-5.4-3.71-7.54a17.952,17.952,0,0,1,10.44-16.71A6.667,6.667,0,0,1,2723.27,1406.52Zm5.57-6.78c-13.69,0-24.07,10.79-24.07,24.36a18.141,18.141,0,0,0,1.8,8.24c1.56,2.96,4.35,5.51,7.89,5.51,3.19,0,5.74-2.15,7.65-4.47,5.57-6.67,7.6-16.99,8.24-25.46,0.06-.99.06-2.27,1.39-2.27a9.739,9.739,0,0,1,2.21.53c6.03,2.08,9.28,7.65,9.28,13.86,0,8.29-5.98,13.28-13.57,15.08-0.58.12-1.45,0.23-1.45,0.81,0,1.28,2.37,4.88,3.88,4.88,1.39,0,4.99-1.63,6.32-2.32a20.853,20.853,0,0,0,11.32-18.74,19.655,19.655,0,0,0-5.86-14.27C2739.75,1401.42,2734.53,1399.74,2728.84,1399.74Zm54.06,23.55a1.292,1.292,0,0,1,1.33-1.39h7.14a1.339,1.339,0,0,1,1.39,1.39v0.46a1.339,1.339,0,0,1-1.39,1.39h-7.14a1.292,1.292,0,0,1-1.33-1.39v-0.46Zm1.33-5.34a1.244,1.244,0,0,1-1.33-1.33v-0.29a1.252,1.252,0,0,1,1.33-1.34h7.14a1.3,1.3,0,0,1,1.39,1.34v0.29a1.292,1.292,0,0,1-1.39,1.33h-7.14Zm-8.58,3.95a1.339,1.339,0,0,1,1.39,1.39v0.46a1.339,1.339,0,0,1-1.39,1.39h-6.96a1.339,1.339,0,0,1-1.39-1.39v-0.46a1.339,1.339,0,0,1,1.39-1.39h6.96Zm1.39-5.28a1.292,1.292,0,0,1-1.39,1.33h-6.96a1.292,1.292,0,0,1-1.39-1.33v-0.29a1.3,1.3,0,0,1,1.39-1.34h6.96a1.3,1.3,0,0,1,1.39,1.34v0.29Zm5.86-15.32a1.485,1.485,0,0,1,1.51-1.79c4.29-.58,8.52-1.11,12.76-2.09a7.758,7.758,0,0,1,1.16-.18,2.052,2.052,0,0,1,.87.18,2.252,2.252,0,0,0,.81.23,0.571,0.571,0,0,0,.52-0.58c0-.87-1.27-1.8-1.8-2.49-1.04-1.11-1.74-1.98-2.37-1.98a3.222,3.222,0,0,0-1.05.23c-8,2.73-22.5,3.14-31.15,3.14h-3.94c-1.63,0-1.97.23-1.97,1.1a6.352,6.352,0,0,0,.46,2.32c0.29,0.87.52,1.28,1.51,1.28,5.16,0,10.32-.24,15.49-0.47a1.133,1.133,0,0,1,1.33,1.34v0.52a1.189,1.189,0,0,1-1.39,1.39h-12.36c-2.26,0-4.52-.12-6.78-0.12-1.22,0-1.22.58-1.22,2.32,0,1.63,0,2.27,1.16,2.27,2.26,0,4.58-.12,6.84-0.12h12.36a1.189,1.189,0,0,1,1.39,1.39v0.18a1.189,1.189,0,0,1-1.39,1.39h-6.38c-1.57,0-3.19-.12-4.76-0.12-1.68,0-2.9.35-2.9,2.26,0,1.11.06,2.21,0.06,3.43v7.48c0,1.1-.06,2.2-0.06,3.36,0,1.98,1.22,2.27,2.9,2.27,1.57,0,3.19-.12,4.76-0.12h6.67a0.938,0.938,0,0,1,1.1,1.1v0.52a0.941,0.941,0,0,1-1.1,1.11h-9.69c-2.09,0-4.17-.12-6.21-0.12-1.21,0-1.21.64-1.21,2.21,0,1.62,0,2.2,1.21,2.2,2.09,0,4.18-.12,6.21-0.12h9.4a1.193,1.193,0,0,1,1.39,1.4v0.34a1.193,1.193,0,0,1-1.39,1.4h-13.34c-2.27,0-4.59-.12-6.85-0.12-1.16,0-1.16.64-1.16,2.32,0,1.57,0,2.32,1.16,2.32,2.26,0,4.58-.12,6.85-0.12h35.09c2.26,0,4.53.12,6.79,0.12,1.22,0,1.16-.7,1.16-2.32,0-1.68.06-2.32-1.16-2.32-2.26,0-4.53.12-6.79,0.12h-13.17a1.174,1.174,0,0,1-1.33-1.4v-0.34a1.174,1.174,0,0,1,1.33-1.4h9.34c2.09,0,4.12.12,6.21,0.12,1.22,0,1.22-.58,1.22-2.2,0-1.57,0-2.21-1.16-2.21-2.09,0-4.18.12-6.27,0.12h-9.63a0.9,0.9,0,0,1-1.04-1.11v-0.52a0.938,0.938,0,0,1,1.1-1.1h6.79c1.62,0,3.19.12,4.81,0.12,1.68,0,2.84-.29,2.84-2.27,0-1.16-.05-2.26-0.05-3.36v-7.48c0-1.16.05-2.26,0.05-3.43,0-1.97-1.27-2.26-2.95-2.26-1.57,0-3.14.12-4.7,0.12h-6.56a1.17,1.17,0,0,1-1.33-1.39v-0.18a1.17,1.17,0,0,1,1.33-1.39h12.42c2.26,0,4.52.12,6.78,0.12,1.16,0,1.16-.64,1.16-2.32,0-1.63.06-2.27-1.16-2.27-2.26,0-4.52.12-6.78,0.12h-12.18a1.358,1.358,0,0,1-1.57-1.62v-0.53Zm50.87,31.73c2.9,0,2.95.64,2.95,1.8,0,2.03-.92,3.13-3.01,3.13-1.51,0-3.83-.92-3.83-2.72C2829.88,1433.38,2832.37,1433.03,2833.77,1433.03Zm2.84-20.47a1.167,1.167,0,0,0-1.39,1.27c0,0.29.05,0.53,0.05,0.82,0.18,2.26,1.05,10.67,1.05,12.52a1.019,1.019,0,0,1-1.22.99h-1.51c-4.58,0-9.63,1.86-9.63,7.19,0,5.4,5.51,7.89,10.21,7.89,3.95,0,7.37-1.45,8.06-5.68,0.06-.52.29-1.34,0.93-1.34,0.93,0,3.77,2.03,4.64,2.67a2.977,2.977,0,0,0,1.51.81c1.45,0,3.6-3.3,3.6-4.23,0-1.39-6.85-4.58-8.18-5.11-0.18-.05-0.41-0.17-0.58-0.23-0.87-.35-1.63-0.58-1.8-1.45-0.29-1.22-.58-9.57-0.58-11.25,0-1.22.12-2.96,0.12-3.07a1.3,1.3,0,0,0-1.16-1.22A23.634,23.634,0,0,0,2836.61,1412.56Zm8.87-8.94c-1.22,0-3.88,3.19-3.88,4.01a1.511,1.511,0,0,0,.75.92,33.027,33.027,0,0,1,7.25,7.49,1.93,1.93,0,0,0,1.28,1.04c1.04,0,4.35-2.61,4.35-4C2855.23,1411.57,2846.93,1403.62,2845.48,1403.62Zm-19.49-9.45c-0.52,0-.52.58-0.52,0.99,0,1.85-.99,8.29-1.86,9.74a1.992,1.992,0,0,1-1.74.93,51.879,51.879,0,0,1-5.97.29h-2.67a0.839,0.839,0,0,0-1.04.93c0,0.58.29,2.66,0.4,3.36,0.23,1.33.47,1.86,1.45,1.86,1.34,0,5.8-.58,6.27-0.58a0.776,0.776,0,0,1,.81.75,22.873,22.873,0,0,1-1.33,3.54,108.105,108.105,0,0,1-6.91,13.4,6.3,6.3,0,0,0-1.04,2.09c0,1.22,3.89,2.9,5.16,2.9a1.158,1.158,0,0,0,1.16-.81,148.323,148.323,0,0,0,9.46-20.66c0.69-1.91.63-2.32,2.72-2.66,5.34-.99,6.04-1.11,6.04-2.38a29.4,29.4,0,0,0-.29-3.08c-0.12-.69-0.18-1.74-0.87-1.74a1.935,1.935,0,0,0-.58.12,29.7,29.7,0,0,1-3.31.87,0.674,0.674,0,0,1-.64-0.75,17.885,17.885,0,0,1,.64-2.61c0.17-.64.58-2.67,1.04-3.08a1.662,1.662,0,0,0,.93-1.04,1.187,1.187,0,0,0-.93-0.7C2831.44,1395.56,2826.63,1394.17,2825.99,1394.17Zm66.7,3.77a3.257,3.257,0,0,0,.12.75,56.238,56.238,0,0,1,2.03,16.19c0,4.93-.52,10.03-2.67,14.61a21.935,21.935,0,0,1-7.89,9.05,1.377,1.377,0,0,0-.87.99c0,1.22,3.37,4.06,4.3,4.06,1.33,0,3.71-2.32,4.64-3.25,7.3-7.42,8.99-15.95,8.99-25.98a76.639,76.639,0,0,0-1.8-16.71c-0.23-.87-0.35-1.57-1.45-1.57C2897.45,1396.08,2892.69,1396.66,2892.69,1397.94Zm-16.88.87c-0.4-.17-2.95-1.22-3.13-1.22-0.52,0-.69,1.05-0.75,1.45-0.23,1.45-.64,2.84-0.99,4.29a54.671,54.671,0,0,0-1.33,11.9,48.358,48.358,0,0,0,1.91,13.51c0.35,1.1.76,2.15,2.03,2.15,1.1,0,4.18-.7,4.18-2.32,0-.41-0.12-1.05-0.12-1.86,0-2.32,1.1-4.99,1.92-7.19l0.52-1.39c0.52-1.4,1.39-3.43,1.39-3.6,0-.75-1.74-1.8-2.26-1.8-0.7,0-1.74,2.5-2.03,3.13-0.23.58-.58,1.51-1.05,1.51-0.63,0-.58-2.49-0.58-2.96a30.129,30.129,0,0,1,.76-6.49,23.057,23.057,0,0,1,1.68-4.88,2.736,2.736,0,0,1,1.1-1.16,1,1,0,0,0,.7-0.75C2879.76,1400.49,2877.09,1399.39,2875.81,1398.81Zm55.57-2.09a0.729,0.729,0,0,0-.7.87c0,0.12.12,1.34,0.12,2.26a53.3,53.3,0,0,1-.64,7.49,1.856,1.856,0,0,1-1.86,1.79c-3.19.58-6.43,1.4-9.68,1.74-0.7.06-1.69,0.06-1.69,0.93,0,0.35.99,6.04,2.38,6.04a4.18,4.18,0,0,0,1.22-.41,47.7,47.7,0,0,1,6.67-2.03,0.73,0.73,0,0,1,.76.75,21.99,21.99,0,0,1-1.45,4.41,46.062,46.062,0,0,1-10.39,16.13,2.159,2.159,0,0,0-.81,1.33c0,1.34,3.71,3.54,4.76,3.54a1.349,1.349,0,0,0,.98-0.58,52.2,52.2,0,0,0,5.75-8.24,65.5,65.5,0,0,0,7.42-17.34c0.41-1.62,1.04-2.09,4.29-2.09,3.54,0,3.72,2.44,3.72,5.28,0,3.77-.93,9.8-2.61,13.11-1.45,2.9-2.91,3.6-6.1,3.6-1.16,0-2.03-.24-2.61-0.24a0.821,0.821,0,0,0-.81.99,11.55,11.55,0,0,0,1.05,4.18c0.58,1.21,1.39,1.33,2.66,1.33a11.866,11.866,0,0,0,10.97-6.26c2.55-4.65,3.48-12.48,3.48-17.75,0-3.25-.7-6.56-3.6-8.47-2.03-1.28-4.23-1.28-6.55-1.28h-0.7a1.13,1.13,0,0,1-1.28-1.16,2.936,2.936,0,0,1,.12-0.7c0.17-.92.29-1.74,0.41-2.37,0.29-2.09.4-3.02,1.51-3.83a0.976,0.976,0,0,0,.52-0.76c0-.63-1.05-0.81-1.51-0.92C2936.31,1397.82,2931.96,1396.72,2931.38,1396.72Zm23.61,0c-0.7,0-2.79,1.74-2.79,2.44a1.4,1.4,0,0,0,.52.81,48.479,48.479,0,0,1,4.12,4.47,1.706,1.706,0,0,0,.82.63c0.75,0,2.78-1.74,2.78-2.66C2960.44,1401.71,2955.57,1396.72,2954.99,1396.72Zm5.45-4.12c-0.58,0-2.78,1.74-2.78,2.44a1.3,1.3,0,0,0,.58.81c1.45,1.45,2.78,2.9,4.11,4.47a1.2,1.2,0,0,0,.82.64c0.69,0,2.78-1.74,2.78-2.67C2965.95,1397.65,2961.08,1392.6,2960.44,1392.6Zm-9.46,10.44c-0.92,0-4.11,1.92-4.11,2.96a1.842,1.842,0,0,0,.52.99c3.65,3.88,5.57,7.66,7.77,12.41a1.673,1.673,0,0,0,1.33,1.34c1.17,0,4.82-2.15,4.82-3.48C2961.31,1415.81,2953.19,1403.04,2950.98,1403.04Z" transform="translate(-2493 -1392.59)"/>
</svg>
