<svg xmlns="http://www.w3.org/2000/svg" width="384.44" height="37.85" viewBox="0 0 384.44 37.85">
  <defs>
    <style>
      .cls-1 {
        fill-rule: evenodd;
      }
    </style>
  </defs>
  <path id="text-connect-4.svg" class="cls-1" d="M953.713,5015.5a0.988,0.988,0,0,1,1.134,1.18v2.05a0.988,0.988,0,0,1-1.134,1.18h-2.52a1.015,1.015,0,0,1-1.176-1.18v-2.05a1.016,1.016,0,0,1,1.176-1.18h2.52Zm-14.322-3.9a39.129,39.129,0,0,1-4.745,3.56,0.969,0.969,0,0,0-.63.76c0,0.76,1.511,2.77,2.393,2.77,1.05,0,5.208-3.78,6.174-4.62a0.451,0.451,0,0,1,.336-0.17,0.43,0.43,0,0,1,.378.47c0,0.71.084,1.21,1.008,1.21h0.588a0.947,0.947,0,0,1,1.092,1.14v2.01a1.016,1.016,0,0,1-1.176,1.18h-1.722c-1.6,0-3.192-.13-4.788-0.13-1.05,0-1.05.47-1.05,2.06,0,1.51-.042,2.06,1.008,2.06,1.6,0,3.234-.13,4.83-0.13h0.966a0.742,0.742,0,0,1,.84.68,0.969,0.969,0,0,1-.084.37,11.986,11.986,0,0,1-7.9,6.26,0.7,0.7,0,0,0-.714.67c0,0.68,1.344,3.03,2.31,3.03a4.19,4.19,0,0,0,1.428-.38c4.326-1.85,7.77-4.96,9.24-9.53a1.267,1.267,0,0,1,1.47-1.1h3.066a1,1,0,0,1,1.134,1.18v5.42c0,3.57,1.637,4.11,4.871,4.11h5.124c1.848,0,3.276-.29,4.242-1.97a11.962,11.962,0,0,0,1.386-4.24c0-1.01-2.394-1.47-3.024-1.47a0.834,0.834,0,0,0-.882.88c-0.588,2.77-1.3,2.94-2.73,2.94h-2.982c-1.638,0-1.806-.34-1.806-1.89v-3.78a1,1,0,0,1,1.176-1.18h1.806c1.6,0,3.192.13,4.788,0.13,1.05,0,1.008-.5,1.008-2.06,0-1.51.042-2.06-1.008-2.06-1.6,0-3.192.13-4.788,0.13h-1.806a1,1,0,0,1-1.176-1.18v-2.01a0.961,0.961,0,0,1,1.134-1.14h0.8c1.05,0,1.05-.5,1.092-1.42a0.414,0.414,0,0,1,.378-0.42,0.576,0.576,0,0,1,.336.12c0.882,0.8,4.578,3.95,5.586,3.95,0.924,0,2.478-2.39,2.478-3.02a1.667,1.667,0,0,0-1.092-1.05,30.712,30.712,0,0,1-3.57-2.44,0.936,0.936,0,0,1-.42-0.75,1.01,1.01,0,0,1,.378-0.72c1.092-1.01,2.1-2.06,3.108-3.15a0.534,0.534,0,0,1,.42-0.21c0.378,0,1.008.09,1.008-.46a2.045,2.045,0,0,0-1.008-1.09c-0.21-.17-0.462-0.34-0.672-0.51a5.942,5.942,0,0,0-1.6-1.09,0.918,0.918,0,0,0-.63.55,33.3,33.3,0,0,1-3.318,3.53,0.939,0.939,0,0,1-.672.33,0.735,0.735,0,0,1-.63-0.33c-0.378-.38-0.672-0.76-1.008-1.14a0.93,0.93,0,0,1-.252-0.63,1.14,1.14,0,0,1,.336-0.71c1.092-1.09,1.722-1.72,2.772-2.86a1.035,1.035,0,0,1,.462-0.25c0.462,0,1.218.13,1.218-.46a2.069,2.069,0,0,0-.882-0.97c-0.21-.17-0.462-0.38-0.672-0.54a7.946,7.946,0,0,0-1.806-1.18,1.1,1.1,0,0,0-.714.59,22.818,22.818,0,0,1-2.31,2.56,0.952,0.952,0,0,1-.672.34,0.977,0.977,0,0,1-.756-0.51c-0.378-.63-0.672-1.17-0.882-1.59-0.672-1.22-.882-1.56-1.428-1.56-0.671,0-2.729.93-2.729,1.81a2.581,2.581,0,0,0,.42,1.05,46.123,46.123,0,0,0,6.3,9.24,0.724,0.724,0,0,1,.168.42,0.49,0.49,0,0,1-.546.46c-0.8.04-1.6,0.04-2.394,0.04h-8.231c-0.756,0-1.47,0-2.226-.04a0.508,0.508,0,0,1-.42-0.88c1.47-1.77,5.46-6.89,5.46-9.12a2.482,2.482,0,0,0-.966-1.68,3.257,3.257,0,0,0-1.974-.42c-0.63,0-1.428.05-2.436,0.05h-3.276c-1.428,0-2.856-.09-4.284-0.09-1.008,0-.966.46-0.966,1.93,0,1.43-.042,1.89.966,1.89,1.428,0,2.856-.08,4.284-0.08h1.848c0.672,0,1.134.04,1.134,0.59,0,0.75-1.68,3.02-2.226,3.69a1.125,1.125,0,0,1-.84.47,1.3,1.3,0,0,1-.714-0.26c-0.672-.46-3.654-2.56-4.242-2.56-0.8,0-1.974,1.72-1.974,2.35,0,0.38.63,0.8,1.638,1.43,0.546,0.38,1.26.84,2.016,1.39a1.064,1.064,0,0,1,.42.75A0.93,0.93,0,0,1,939.391,5011.6Zm44.184-2.19a1.2,1.2,0,0,1-1.176-1.17v-4.16a1.179,1.179,0,0,1,1.176-1.18h15.917a1.157,1.157,0,0,1,1.178,1.18v4.16a1.173,1.173,0,0,1-1.178,1.17H983.575Zm4.662,3.91a1.008,1.008,0,0,1,1.176,1.17v13.69a0.785,0.785,0,0,1-.714.89,1.1,1.1,0,0,1-.378-0.05,9.586,9.586,0,0,1-4.956-4.24,1.849,1.849,0,0,1-.378-1.01,2.845,2.845,0,0,1,.21-1c0.378-1.05.63-1.81,0.84-2.4,0.378-1.17.5-1.51,1.134-1.76a0.724,0.724,0,0,0,.588-0.55,0.95,0.95,0,0,0-.882-0.67,29.009,29.009,0,0,0-3.906-.92c-0.63,0-.756.84-0.882,1.51a33.085,33.085,0,0,1-6.761,13.82,2.327,2.327,0,0,0-.714,1.13c0,0.88,2.435,2.02,3.191,2.02a2.238,2.238,0,0,0,1.428-1.05,37.857,37.857,0,0,0,3.276-5.21,0.813,0.813,0,0,1,.588-0.38,0.728,0.728,0,0,1,.588.34,11.908,11.908,0,0,0,5.25,4.15c3.276,1.22,6.174,1.52,14.025,1.52h4.45c0.8,0,1.6-.05,2.4-0.05a1.642,1.642,0,0,0,1.8-1,5.6,5.6,0,0,0,.42-2.23,0.974,0.974,0,0,0-.92-1.22,6.21,6.21,0,0,0-.92.09c-1.73.16-5.34,0.25-7.19,0.25-2.012,0-4.028,0-6.044-.09a1.013,1.013,0,0,1-1.091-1.21v-5a1,1,0,0,1,1.175-1.18h5.46c1.51,0,3.02.09,4.49,0.09,0.97,0,.97-0.47.97-1.98,0-1.55.04-2.06-.97-2.06-1.51,0-2.98.13-4.49,0.13h-5.46a1.044,1.044,0,0,1-1.175-1.18v-3.19a1.008,1.008,0,0,1,1.175-1.17h5.04a0.672,0.672,0,0,1,.59.5c0.21,0.5.63,0.5,2.01,0.5,1.77,0,2.36.09,2.36-.96,0-.3-0.09-2.39-0.09-2.98v-7.23c0-.84.04-1.68,0.04-2.52,0-1.63-1.3-1.8-2.6-1.8-1.18,0-2.35.08-3.528,0.08H984.247c-1.218,0-2.394-.08-3.57-0.08-1.344,0-2.6.17-2.6,1.8,0,0.84.084,1.68,0.084,2.52v7.23c0,0.54-.126,2.77-0.126,2.98,0,1.05.63,0.96,2.31,0.96,1.428,0,1.848,0,2.1-.46a0.663,0.663,0,0,1,.588-0.54h5.208Zm43.763,0.21a1.851,1.851,0,0,1-.63-0.17c-1.09-.55-5.17-2.39-6.17-2.39-1.1,0-2.14,2.89-2.14,3.35a0.969,0.969,0,0,0,.88.84,34.323,34.323,0,0,1,4.99,1.98,0.916,0.916,0,0,1,.55.84,2.2,2.2,0,0,1-.67,1.17,30.357,30.357,0,0,1-11.63,8.4,1.865,1.865,0,0,1-.34.13c-0.55.21-1.22,0.46-1.22,0.97,0,0.58,2.06,3.15,2.98,3.15,1.01,0,5.76-2.9,6.76-3.62a35.211,35.211,0,0,0,7.48-6.88,1.38,1.38,0,0,1,1.05-.68c0.71,0,2.39,1.73,2.94,2.31a1.668,1.668,0,0,0,1.05.63c0.8,0,2.73-2.64,2.73-3.4,0-.54-2.56-2.56-3.11-2.98a1.541,1.541,0,0,1-.8-1.18,1.571,1.571,0,0,1,.26-0.75,66.117,66.117,0,0,0,4.03-9.16,2.244,2.244,0,0,1,.96-1.47,0.745,0.745,0,0,0,.47-0.54c0-.46-1.43-0.97-2.23-1.26a20,20,0,0,0-2.94-.97c-0.38,0-.42.59-0.46,0.93a33.214,33.214,0,0,1-3.4,9.49C1033.05,5012.85,1032.84,5013.53,1032,5013.53Zm52.75-5.34a1.046,1.046,0,0,0-.71.47c-5.97,7.6-16.47,15.53-25.75,18.26-0.54.17-1.3,0.26-1.3,0.72a11.865,11.865,0,0,0,1.26,2.52c0.3,0.5,1.18,2.18,1.64,2.18a0.414,0.414,0,0,0,.42-0.25c0.34-.71.38-0.76,1.76-1.43a73.023,73.023,0,0,0,22.81-15.83c0.54-.55,2.22-2.19,2.22-2.9C1087.1,5011.3,1085.59,5008.19,1084.75,5008.19Zm-24.82-6.72c-0.96,0-2.64,2.69-2.64,3.32a1.047,1.047,0,0,0,.67.8,51.344,51.344,0,0,1,5.58,3.91,4.6,4.6,0,0,0,1.68,1.13c0.8,0,2.77-2.27,2.77-3.23,0-.63-2.01-2.02-2.56-2.4C1064.63,5004.41,1060.6,5001.47,1059.93,5001.47Zm60.52,2.99a3.767,3.767,0,0,0-2.01,1.76,1.043,1.043,0,0,0,.37.55,45.3,45.3,0,0,1,3.11,3.36,0.866,0.866,0,0,0,.51.42,3.4,3.4,0,0,0,2.01-1.94C1124.44,5008.11,1120.96,5004.46,1120.45,5004.46Zm4.16-3.07a3.808,3.808,0,0,0-2.02,1.76,0.942,0.942,0,0,0,.34.55c1.13,1.09,2.1,2.14,3.11,3.32a0.858,0.858,0,0,0,.54.42,3.314,3.314,0,0,0,2.02-1.89C1128.6,5005,1125.07,5001.39,1124.61,5001.39Zm-8.74,6.64c-0.58,0-3.1,1.68-3.1,2.43a1.685,1.685,0,0,0,.42.88,59.4,59.4,0,0,1,8.27,13.57,0.934,0.934,0,0,0,.84.75c0.76,0,3.95-1.47,3.95-2.52,0-1.34-4.66-8.48-5.67-9.95a47.909,47.909,0,0,0-3.78-4.74A1.249,1.249,0,0,0,1115.87,5008.03Zm-14.23-.84c-0.38,0-.46.37-0.72,0.96-2.14,5.46-6.63,11.17-10.87,15.25a0.82,0.82,0,0,0-.34.58c0,0.84,2.9,2.61,3.57,2.61,0.71,0,2.02-1.56,2.52-2.1a64.629,64.629,0,0,0,9.15-13.15,1.675,1.675,0,0,1,.76-0.84,0.883,0.883,0,0,0,.63-0.58,1.976,1.976,0,0,0-1.05-.97A24.646,24.646,0,0,0,1101.64,5007.19Zm36.45,6.34c-1.76,0-4.66-.13-5.2-0.13-1.1,0-1.18.34-1.18,2.69,0,1.3.04,2.1,1.13,2.1,1.77,0,3.53-.09,5.25-0.09h19.32c1.72,0,3.49.09,5.25,0.09,1.09,0,1.14-.8,1.14-2.14,0-2.31-.05-2.65-1.18-2.65-0.55,0-3.28.13-5.21,0.13h-19.32Zm45.91-6.34a0.658,0.658,0,0,1,.67.75,43.176,43.176,0,0,1-1.34,8.19c-1.18,4.28-3.53,9.07-5.63,9.07-2.14,0-2.69-3.9-2.69-5.46a12.99,12.99,0,0,1,7.56-12.09A4.675,4.675,0,0,1,1184,5007.19Zm4.03-4.92a17.3,17.3,0,0,0-17.43,17.64,13.205,13.205,0,0,0,1.3,5.96c1.14,2.15,3.15,3.99,5.72,3.99,2.3,0,4.15-1.55,5.54-3.23,4.03-4.83,5.5-12.31,5.96-18.44,0.04-.71.04-1.63,1.01-1.63a7.71,7.71,0,0,1,1.6.37c4.36,1.52,6.72,5.55,6.72,10.04,0,6.01-4.33,9.62-9.83,10.92-0.42.08-1.05,0.17-1.05,0.59,0,0.92,1.72,3.53,2.81,3.53a16.5,16.5,0,0,0,4.58-1.68,15.1,15.1,0,0,0,8.19-13.57,14.209,14.209,0,0,0-4.24-10.33A14.934,14.934,0,0,0,1188.03,5002.27Zm25.66,10.08c1.05,0,1.56-.04,1.56.5a29.864,29.864,0,0,1-1.85,6.3,27.976,27.976,0,0,1-5.8,8.82,1.608,1.608,0,0,0-.54.93c0,0.63,1.97,2.27,3.02,2.27a1.37,1.37,0,0,0,1.09-.59,29.744,29.744,0,0,0,5.55-8.61c1.09-2.4,3.1-8.53,3.1-11.09a2.778,2.778,0,0,0-2.89-2.52c-0.97,0-1.89.04-2.82,0.04h-1.3c-1.13,0-2.31-.08-3.44-0.08-0.93,0-.88.46-0.88,2.06s-0.05,2.05.88,2.05c1.13,0,2.27-.08,3.36-0.08h0.96Zm15.46-4.49c1.34-.8,8.19-5,8.19-6.34a4.014,4.014,0,0,0-1.05-1.89,2.049,2.049,0,0,0-1.89-.97c-1.35,0-2.65.08-3.99,0.08h-9.96c-1.55,0-3.1-.12-4.66-0.12-1,0-.96.46-0.96,1.97s-0.04,1.98.96,1.98c1.56,0,3.11-.09,4.66-0.09h8.74c0.46,0,1.01-.08,1.01.21,0,0.51-3.4,2.73-3.95,3.07a1.731,1.731,0,0,1-1.18.29h-0.58a0.586,0.586,0,0,0-.72.55c0,0.12.04,0.25,0.04,0.42a24.573,24.573,0,0,1,.13,3.11,0.929,0.929,0,0,1-1.13,1.09c-0.55,0-1.1-.09-1.64-0.09-1.05,0-.97.72-0.97,1.81,0,1.22-.08,1.8,1.01,1.8,0.55,0,1.22-.04,1.81-0.08a0.849,0.849,0,0,1,.92,1.01v0.17a0.842,0.842,0,0,1-.92,1c-0.76-.04-2.15-0.08-2.73-0.08-1.05,0-1.01.59-1.01,1.85,0,1.22-.04,1.8,1.01,1.8,0.71,0,1.93-.04,2.68-0.08a0.846,0.846,0,0,1,.97,1.01v0.21a0.829,0.829,0,0,1-.97.96h-1.3c-1.17,0-2.39-.08-3.44-0.08-1.01,0-.97.55-0.97,1.85,0,1.34-.04,1.93.97,1.93s2.27-.08,3.44-0.08h1.14a0.968,0.968,0,0,1,1.13,1.13v1.22c0,1.8.04,2.6-1.89,2.6-0.46,0-1.13-.04-1.6-0.08a5.31,5.31,0,0,0-.79-0.09c-0.63,0-.72.59-0.72,1.1,0,3.4.76,3.27,3.7,3.27,2.85,0,5.54-.96,5.54-4.24,0-.92-0.08-1.81-0.08-2.73v-1.05a0.978,0.978,0,0,1,1.17-1.13h0.97c1.18,0,2.44.08,3.44,0.08,1.05,0,1.01-.59,1.01-1.89s0.04-1.89-1.01-1.89-2.26.08-3.44,0.08h-1.18a0.826,0.826,0,0,1-.96-0.96v-0.21a0.864,0.864,0,0,1,.92-1.01c0.72,0.04,1.98.08,2.65,0.08,1.05,0,1.01-.54,1.01-1.8s0.04-1.85-1.01-1.85c-0.88,0-1.77.13-2.65,0.08a0.827,0.827,0,0,1-.92-1v-0.17a0.807,0.807,0,0,1,.92-0.97c0.38,0,1.3.04,1.64,0.04,1.05,0,1.01-.5,1.01-1.8,0-1.22.04-1.81-1.01-1.81-0.5,0-.97.05-1.43,0.09a0.978,0.978,0,0,1-1.13-1.05v-0.8A1.54,1.54,0,0,1,1229.15,5007.86Zm11.67,1.38a34.846,34.846,0,0,1-3.31,2.94,1,1,0,0,1-.51.17,0.634,0.634,0,0,1-.63-0.59,26.787,26.787,0,0,1-.5-2.98c-0.21-1.51-.25-1.89-1.09-1.89s-3.15.25-3.15,1.35c0,1.76,1.51,7.72,2.14,9.61a36.575,36.575,0,0,0,6.84,12.77,1.406,1.406,0,0,0,.93.67c0.75,0,3.23-1.47,3.23-2.35a1.994,1.994,0,0,0-.67-1.09,34.99,34.99,0,0,1-5.96-9.91,1.4,1.4,0,0,1-.13-0.59,1.382,1.382,0,0,1,.63-1.09,48.767,48.767,0,0,0,4.33-3.41,0.733,0.733,0,0,1,.5-0.25c0.08,0,.25.04,0.34,0.04a0.652,0.652,0,0,0,.29.09,0.465,0.465,0,0,0,.46-0.46,3.882,3.882,0,0,0-.96-1.43c-0.09-.08-0.21-0.25-0.42-0.46a5.947,5.947,0,0,0-1.73-1.56A1.109,1.109,0,0,0,1240.82,5009.24Zm15.29-1.26c1.22,0,2.4.05,3.61,0.05,1.05,0,.97-0.63.97-1.73,0-1.13.08-1.76-.97-1.76-1.21,0-2.39.08-3.61,0.08h-5.2c-1.22,0-2.4-.08-3.62-0.08-1,0-.96.63-0.96,1.76s-0.04,1.73.96,1.73c1.22,0,2.4-.05,3.62-0.05h5.2Zm-0.96,11.13c1.05,0,2.06.09,3.1,0.09,1.01,0,.97-0.55.97-1.64,0-1.14.04-1.68-.97-1.68-1.04,0-2.05.08-3.1,0.08h-2.65c-1.05,0-2.1-.08-3.15-0.08-1.01,0-.96.59-0.96,1.68,0,1.05-.05,1.64.96,1.64,1.05,0,2.1-.09,3.15-0.09h2.65Zm0.04-5.54c1.05,0,2.14.08,3.06,0.08,1.01,0,.97-0.59.97-1.72s0.04-1.72-.97-1.72-2.05.08-3.06,0.08h-2.77c-1.05,0-2.06-.08-3.11-0.08-0.97,0-.92.59-0.92,1.72,0,1.18-.05,1.72.96,1.72,0.88,0,2.02-.08,3.07-0.08h2.77Zm0.38-11.34c1.01,0,1.93.04,2.77,0.04,0.88,0,.88-0.5.88-1.72,0-1.47-.04-1.72-1.01-1.72-0.54,0-1.38.08-2.64,0.08h-3.49c-0.96,0-1.97-.08-2.81-0.08-0.88,0-.84.59-0.84,1.72,0,1.18-.04,1.72.88,1.72,0.76,0,1.76-.04,2.77-0.04h3.49Zm-2.77,27.55a1.2,1.2,0,0,1-1.18-1.18v-2.43a1.2,1.2,0,0,1,1.18-1.18h1.76a1.216,1.216,0,0,1,1.18,1.18v2.43a1.209,1.209,0,0,1-1.18,1.18h-1.76Zm2.85,3.82c0.04,0.93.25,1.01,1.85,1.01,1.47,0,1.89-.04,1.89-0.97,0-1.05-.09-2.1-0.09-3.15v-4.36c0-.84.09-1.68,0.09-2.52,0-1.47-.59-2.06-2.1-2.06-0.76,0-1.51.04-2.27,0.04h-2.9c-0.75,0-1.47-.04-2.22-0.04-1.47,0-2.1.54-2.1,2.01,0,0.89.04,1.73,0.04,2.57v4.7c0,1.05-.04,2.1-0.04,3.15,0,0.97.46,0.97,1.93,0.97,1.64,0,1.97-.05,1.97-1.18a0.641,0.641,0,0,1,.76-0.76h2.56A0.54,0.54,0,0,1,1255.65,5033.6Zm14.83-4.16a1.1,1.1,0,0,1-1.18-1.17v-3.4a1.145,1.145,0,0,1,1.18-1.18h6a1.113,1.113,0,0,1,1.14,1.18v3.4a1.051,1.051,0,0,1-1.14,1.17h-6Zm-5.25-23.14c0,0.63-.05,1.22-0.05,1.85,0,1.01.51,1.01,2.1,1.01,0.21,0,.42-0.04.63-0.04a0.717,0.717,0,0,1,.8.63,4.27,4.27,0,0,1-.33,1.01,1.313,1.313,0,0,1-1.52,1h-0.92c-1.43,0-2.86-.08-4.28-0.08-0.89,0-.89.42-0.89,1.93,0,1.55,0,1.97.89,1.97s2.52-.08,3.52-0.12a0.645,0.645,0,0,1,.72.63,1.1,1.1,0,0,1-.09.38,38.975,38.975,0,0,1-5.46,7.77,2.331,2.331,0,0,0-.71,1.09c0,0.67,2.31,2.35,2.98,2.35,0.63,0,1.68-1.51,2.06-2.02a0.426,0.426,0,0,1,.29-0.16,0.448,0.448,0,0,1,.38.46v5.75c0,0.8-.08,2.35-0.08,2.73,0,0.8.59,0.76,2.01,0.76,1.6,0,2.1,0,2.1-.76,0-.17-0.04-0.33-0.04-0.5a0.842,0.842,0,0,1,.97-0.93h6.3a0.806,0.806,0,0,1,.96.93v0.38c0,0.84.3,0.88,2.02,0.88,1.64,0,2.06,0,2.06-.8,0-.13-0.04-2.23-0.04-2.69v-7.98c0-.8.04-1.55,0.04-2.27,0-1.38-1.35-1.51-2.4-1.51-0.92,0-1.84.04-2.77,0.04h-6.89a0.631,0.631,0,0,1-.67-0.63,1.365,1.365,0,0,1,.13-0.37c0.46-.84.88-1.73,1.34-2.57a1.484,1.484,0,0,1,1.6-.96h6.68c1.42,0,2.89.12,4.32,0.12,0.84,0,.84-0.46.84-1.97s0-1.93-.88-1.93c-1.43,0-2.86.08-4.28,0.08h-5.09a0.729,0.729,0,0,1-.84-0.67,1.393,1.393,0,0,1,.09-0.38,1.373,1.373,0,0,1,.84-1.05,0.625,0.625,0,0,0,.5-0.46c0-.5-0.71-0.63-1.17-0.75-0.68-.21-2.23-0.63-2.86-0.8a0.987,0.987,0,0,1-.92-0.76,2.2,2.2,0,0,0-.05-0.59,0.994,0.994,0,0,1,1.18-1.09h2.9a0.962,0.962,0,0,1,1.13,1.05c0,0.67-.04,1.3-0.04,1.93,0,0.97.59,0.93,1.97,0.93,1.64,0,2.1,0,2.1-1.05,0-.59-0.04-1.18-0.04-1.77a0.917,0.917,0,0,1,1.01-1.09c0.71,0,2.73.09,3.23,0.09,0.97,0,.93-0.47.93-1.94s0.04-1.93-.93-1.93c-0.42,0-2.52.09-3.15,0.09a0.966,0.966,0,0,1-1.13-1.05c-0.04-1.05.04-1.31,0.46-1.64a0.679,0.679,0,0,0,.46-0.51c0-.5-0.54-0.46-1.05-0.5-0.75-.08-2.6-0.25-3.27-0.25a0.533,0.533,0,0,0-.67.5,1.231,1.231,0,0,0,.04.38c0.08,0.5.08,1.39,0.12,1.93a1.013,1.013,0,0,1-1.17,1.14h-2.9a0.964,0.964,0,0,1-1.18-1.05c-0.04-.97,0-1.31.51-1.6a0.731,0.731,0,0,0,.42-0.55c0-.46-0.59-0.46-1.14-0.5-0.63-.08-2.6-0.21-3.19-0.21-0.33,0-.67.04-0.67,0.5,0,0.09.04,0.3,0.04,0.38a13.341,13.341,0,0,1,.13,1.89,1.037,1.037,0,0,1-1.09,1.14c-0.68-.05-1.39-0.09-2.02-0.09-0.97,0-.92.51-0.92,1.93s-0.05,1.94.92,1.94c0.42,0,1.47-.05,1.97-0.09A0.984,0.984,0,0,1,1265.23,5006.3Zm37-8.65c-0.42,0-.51.42-0.59,0.88a22.549,22.549,0,0,1-2.27,5.42c-0.38.51-1.51,0.55-2.6,0.55h-1.22c-1.22,0-2.31-.09-3.02-0.09-1.05,0-1.22.26-1.22,1.94,0,2.14.17,2.35,1.09,2.35,1.3,0,2.27-.13,2.94-0.13,0.59,0,.93.13,0.93,0.51,0,0.79-6.09,9.23-7.06,10.28a1.8,1.8,0,0,0-.55.93c0,0.75,2.82,2.43,3.57,2.43a0.686,0.686,0,0,0,.59-0.42,27.454,27.454,0,0,1,3.53-4.91c1.64-1.68,5.5-3.7,7.85-3.7a1.751,1.751,0,0,1,1.85,1.43,6.094,6.094,0,0,1,.21,1.18,1.076,1.076,0,0,1-.76.96c-0.88.42-1.76,0.89-2.6,1.39-2.9,1.72-5.96,3.78-5.96,7.56a6.375,6.375,0,0,0,4.2,6.01,15.619,15.619,0,0,0,6.63,1.09,55.5,55.5,0,0,0,8.07-.55c0.92-.21.96-0.54,0.96-1.8,0-2.4-.29-2.86-0.84-2.86a5.445,5.445,0,0,0-.84.08,30.364,30.364,0,0,1-7.81,1.05c-2.02,0-6.09-.25-6.09-3.06,0-2.61,4.33-4.45,4.54-4.45a0.575,0.575,0,0,1,.54.71c0,0.88-.08,1.81-0.08,2.73,0,1.09.75,1.18,2.56,1.18,1.6,0,1.81-.17,1.81-1.68,0-1.31-.05-2.57-0.05-3.87v-0.54a1.293,1.293,0,0,1,1.1-1.39c1.63-.71,3.27-1.43,4.95-2.06a5.72,5.72,0,0,0,.59-0.21c0.8-.25,1.26-0.42,1.26-0.92,0-.72-1.01-3.95-1.81-3.95a3.468,3.468,0,0,0-1.09.42,37.17,37.17,0,0,1-4.91,2.39,0.687,0.687,0,0,1-.63-0.71c-0.55-2.64-2.1-3.78-4.79-3.78a11.652,11.652,0,0,0-4.58,1.09,1.571,1.571,0,0,1-.75.26,0.33,0.33,0,0,1-.34-0.3,13.589,13.589,0,0,1,1.43-2.43,1.491,1.491,0,0,1,1.26-.68c2.64-.29,5.29-0.75,7.94-1.3,0.88-.17,2.22-0.33,2.22-1.05a14.11,14.11,0,0,0-.33-2.27,1.25,1.25,0,0,0-1.05-1.26,3.057,3.057,0,0,0-1.05.26,31.092,31.092,0,0,1-4.88,1.17,0.4,0.4,0,0,1-.46-0.42,2.929,2.929,0,0,1,.42-0.96,2.311,2.311,0,0,1,1.39-1.43,0.682,0.682,0,0,0,.5-0.51C1306.93,4999.58,1302.61,4997.65,1302.23,4997.65Z" transform="translate(-934 -4997.56)"/>
</svg>
