<svg xmlns="http://www.w3.org/2000/svg" width="352.593" height="35.97" viewBox="0 0 352.593 35.97">
  <defs>
    <style>
      .cls-1 {
        fill-rule: evenodd;
      }
    </style>
  </defs>
  <path id="つぶやいてください_" data-name="つぶやいてください。" class="cls-1" d="M195.459,5482.08c-1.764.55-2.267,0.72-2.267,1.26,0,1.18,1.889,4.2,3.191,4.2a2.477,2.477,0,0,0,1.092-.33c5.124-2.65,11.634-5.76,17.471-5.76,3.528,0,6.426,2.1,6.426,5.84,0,7.18-9.2,10.33-15.077,10.79-0.546.05-1.428,0.13-1.428,0.89a8.957,8.957,0,0,0,.966,2.81,1.479,1.479,0,0,0,1.344,1.01c1.89,0,6.383-1.39,8.189-2.1,5.628-2.31,10.752-6.85,10.752-13.32a10.885,10.885,0,0,0-2.856-7.39,11.31,11.31,0,0,0-8.274-3.06c-5.291,0-10.583,2.14-15.5,3.86C197.727,5481.41,196.425,5481.79,195.459,5482.08Zm69.173-8.31a3.583,3.583,0,0,0-2.016,1.72,0.871,0.871,0,0,0,.336.55,29.99,29.99,0,0,1,2.772,2.98,1.444,1.444,0,0,0,.882.8,3.4,3.4,0,0,0,2.016-1.94C268.622,5477.34,265.052,5473.77,264.632,5473.77Zm-9.492,24.48a9,9,0,0,0-1.848-5.29,1.329,1.329,0,0,1-.252-0.55,0.775,0.775,0,0,1,.8-0.58,8.753,8.753,0,0,1,2.478.67c2.814,1.22,5.25,4.16,6.51,6.84,0.294,0.63.5,1.22,1.008,1.22,0.966,0,3.948-1.59,3.948-2.31,0-.75-5.334-10.5-15.372-10.5a13.016,13.016,0,0,0-2.183.21c-0.168,0-.336.04-0.5,0.04a3.209,3.209,0,0,1-2.226-2.43,5.01,5.01,0,0,1,.882-2.56,2.618,2.618,0,0,0,.336-0.76c0-.63-2.9-1.68-3.486-1.68-1.3,0-2.058,3.95-2.058,5a4.436,4.436,0,0,0,1.134,3.02,1.382,1.382,0,0,1,.294.67,1.211,1.211,0,0,1-.924.97c-3.444,1.81-8.064,4.7-11.507,6.05a0.987,0.987,0,0,0-.8.71c0,0.55,2.1,4.54,2.813,4.54a0.948,0.948,0,0,0,.672-0.59,2.323,2.323,0,0,1,1.26-1.26c2.478-1.72,5.04-3.28,7.6-4.87,0.672-.42,3.234-2.06,3.906-2.06,0.966,0,2.772,2.69,2.772,4.28,0,1.22-.8,1.6-1.89,1.6a12.167,12.167,0,0,1-3.7-.67,4.347,4.347,0,0,0-1.05-.21,0.629,0.629,0,0,0-.63.75c0,0.55.126,3.11,0.462,3.45,0.63,0.59,4.956.88,5.964,0.88C252.7,5502.83,255.14,5501.74,255.14,5498.25Zm3.192-19.65a0.937,0.937,0,0,0,.336.5,40.692,40.692,0,0,1,3.108,3.4,0.737,0.737,0,0,0,.546.38,3.317,3.317,0,0,0,2.016-1.89c0-.54-3.528-4.16-3.948-4.16C259.928,5476.83,258.332,5478.05,258.332,5478.6Zm-11.759-6.01c-0.84,0-2.058,2.56-2.058,3.15a1.109,1.109,0,0,0,.924.88,28.113,28.113,0,0,1,6.048,3.74,1.387,1.387,0,0,0,.713.34c0.672,0,2.352-2.9,2.352-3.53a0.733,0.733,0,0,0-.336-0.59,32.987,32.987,0,0,0-3.359-2.01A24,24,0,0,0,246.573,5472.59Zm38.346,0.21c-0.924,0-1.89,2.94-1.89,3.4a0.964,0.964,0,0,0,1.008.8,33.665,33.665,0,0,1,4.452,1.51,5.584,5.584,0,0,0,1.764.59c1.091,0,1.931-2.69,1.931-3.11,0-.67-1.637-1.26-2.477-1.59A34.741,34.741,0,0,0,284.919,5472.8Zm-10,21.13a2.566,2.566,0,0,0,.8-0.47c0.63-.58,3.864-3.27,4.494-3.27a1.239,1.239,0,0,1,1.008.8c2.1,4.15,4.368,8.14,6.51,12.26,0.42,0.84.714,1.55,1.3,1.55,0.8,0,3.695-1.47,3.695-2.26a5.714,5.714,0,0,0-.924-1.81c-1.049-1.64-7.391-11.97-7.391-13.1a1.32,1.32,0,0,1,.84-1.05c2.94-1.77,7.6-4.41,11-4.41,2.142,0,3.864,1.09,3.864,3.36,0,3.65-5.04,4.99-7.938,5.5-0.546.08-1.343,0.12-1.343,0.84,0,0.59,1.133,3.44,2.225,3.44a11.723,11.723,0,0,0,1.638-.29c4.83-1.22,9.912-3.91,9.912-9.58,0-4.83-3.486-7.35-8.064-7.35-4.7,0-8.987,2.27-12.935,4.62a2.085,2.085,0,0,1-1.008.38,1.1,1.1,0,0,1-1.008-.8,25.444,25.444,0,0,1-1.68-4.15,0.78,0.78,0,0,1,.084-0.34,1.85,1.85,0,0,0,.084-0.46,0.421,0.421,0,0,0-.5-0.42,6.24,6.24,0,0,0-1.386.42c-0.588.21-1.134,0.42-1.6,0.59-1.26.46-2.016,0.71-2.016,1.09a1.261,1.261,0,0,0,.42.8c0.672,0.88,3.15,4.74,3.15,5.66a1.763,1.763,0,0,1-1.05,1.31c-1.008.67-3.024,2.1-3.948,2.56a1.168,1.168,0,0,0-.882.88C272.277,5491.07,274.125,5493.93,274.923,5493.93Zm57.917-14.07a0.7,0.7,0,0,0,.378.63c3.99,3.06,5.712,7.05,6.216,11.97,0.084,1,.042,1.59,1.386,1.59a8.881,8.881,0,0,0,2.352-.38,1.17,1.17,0,0,0,1.134-1.21,22.952,22.952,0,0,0-2.478-8.74c-2.016-3.86-5.544-6.51-6.468-6.51C334.52,5477.21,332.84,5479.06,332.84,5479.86Zm-18.941-2.73a0.518,0.518,0,0,0-.588.46c-0.084.38-.21,5.71-0.21,6.38,0,4.45.336,9.75,2.436,13.69,1.386,2.57,3.822,5.38,6.93,5.38,1.974,0,3.276-1.26,4.494-2.65,0.588-.67,2.478-2.85,2.478-3.65,0-.76-2.142-2.48-3.024-2.48a1.661,1.661,0,0,0-1.134,1.05c-0.5.93-1.722,2.77-2.9,2.77-1.47,0-2.856-2.47-3.36-3.65a24,24,0,0,1-1.344-8.78,31.292,31.292,0,0,1,.336-4.45,3.05,3.05,0,0,1,.756-2.01,0.742,0.742,0,0,0,.42-0.55,0.955,0.955,0,0,0-.924-0.59C317.553,5477.93,314.445,5477.13,313.9,5477.13Zm35.448,1.05c0,0.42.378,4.41,1.386,4.41a2.737,2.737,0,0,0,.63-0.09,85.56,85.56,0,0,1,9.282-1.72c0.462-.08,2.352-0.38,2.688-0.38a0.6,0.6,0,0,1,.63.51,2.79,2.79,0,0,1-.756,1.01,18.631,18.631,0,0,0-4.62,12.05c0,8.19,6.132,10.46,13.271,10.46a1.309,1.309,0,0,0,1.218-.42,10.1,10.1,0,0,0,.756-3.74c0-.67-0.336-0.72-0.966-0.72-0.42,0-1.344.05-2.1,0.05-4.241,0-7.391-1.18-7.391-6.05a15.7,15.7,0,0,1,2.016-7.39,12.707,12.707,0,0,1,7.181-6.26,20.487,20.487,0,0,1,6.972-.88c0.966-.04,1.848.04,1.848-0.88a25.188,25.188,0,0,0-.336-3.07c-0.126-.5-0.21-1.05-0.84-1.05a2.144,2.144,0,0,0-.5.04c-3.15.51-6.384,0.93-9.534,1.3-6.131.72-12.263,1.35-18.395,1.73C349.935,5477.21,349.347,5477.09,349.347,5478.18Zm58.337-4.66c-0.462-.47-1.68-1.89-2.226-1.89a1.032,1.032,0,0,0-.63.5,56.714,56.714,0,0,1-7.853,7.43,40.849,40.849,0,0,0-5.418,4.92,4.746,4.746,0,0,0-.924,2.89,6.413,6.413,0,0,0,2.016,4.46c2.058,2.43,4.368,4.7,6.636,6.97,1.722,1.76,3.486,3.53,5.081,5.42a2.55,2.55,0,0,0,1.3,1.09c1.008,0,3.57-2.4,3.57-3.4,0-.84-2.9-3.2-3.612-3.83-2.6-2.31-5.207-4.66-7.6-7.22-0.714-.76-2.1-2.27-2.1-3.32,0-.8.924-1.64,1.722-2.39,2.184-2.1,4.578-4.03,6.929-5.96q1.575-1.26,3.15-2.4a1.884,1.884,0,0,1,1.134-.5c0.294,0,.882.04,0.882-0.38C409.742,5475.45,408.062,5473.89,407.684,5473.52Zm28.561,23.81c-0.672,0-2.6,2.48-2.6,3.11,0,0.88,1.386,1.93,2.058,2.39,2.352,1.55,6.215,1.89,8.987,1.89,1.05,0,5.8-.21,6.552-0.55,0.5-.29.462-1.26,0.462-2.1,0-1.68,0-2.64-.714-2.64a1.558,1.558,0,0,0-.42.08,18.971,18.971,0,0,1-5.964.84c-2.562,0-5.753-.38-7.6-2.43A1.306,1.306,0,0,0,436.245,5497.33Zm3.15-9.62c0,0.71.209,0.92,1.049,0.92,0.546,0,1.05-.04,1.6-0.04a17.958,17.958,0,0,1,6.678,1.05,3.145,3.145,0,0,0,.882.21,0.727,0.727,0,0,0,.756-0.54,10.569,10.569,0,0,0,.8-2.94,0.781,0.781,0,0,0-.588-0.84,30.063,30.063,0,0,0-8.442-1.18C440.15,5484.35,439.4,5484.1,439.4,5487.71Zm11.843-17.3a3.524,3.524,0,0,0-2.058,1.72,0.956,0.956,0,0,0,.336.55,35.316,35.316,0,0,1,2.9,3.36,1.032,1.032,0,0,0,.63.5c0.5,0,2.058-1.26,2.058-1.89C455.1,5474.15,451.7,5470.41,451.238,5470.41Zm-17.345-.59c-0.42,0-.42.42-0.462,1.05-0.042,1.22-1.05,6.8-1.554,7.64-0.378.63-1.008,0.68-3.7,0.68-1.806,0-3.57-.17-3.948-0.17a0.6,0.6,0,0,0-.63.75,18.123,18.123,0,0,0,.336,3.07c0.252,0.8.924,0.76,1.764,0.76,1.3,0,3.15-.21,3.738-0.21a0.655,0.655,0,0,1,.756.62,6.706,6.706,0,0,1-.336,1.1c-1.638,4.45-4.788,11.76-7.434,15.54a3.084,3.084,0,0,0-.714,1.38c0,0.93,2.9,2.27,3.57,2.27,0.63,0,.966-0.59,1.512-1.6a130.434,130.434,0,0,0,7.812-18.52c0.378-1.17.5-1.38,1.722-1.63a63.655,63.655,0,0,0,6.887-1.64,1.284,1.284,0,0,0,.8-1.51c0-.63,0-3.2-0.84-3.2a2.368,2.368,0,0,0-.882.21,29.279,29.279,0,0,1-4.871,1.56,0.617,0.617,0,0,1-.63-0.63c0-.21.882-3.28,1.008-3.74a1.874,1.874,0,0,1,.966-1.47,0.623,0.623,0,0,0,.378-0.42c0-.46-1.176-0.76-1.554-0.88C437.043,5470.66,434.271,5469.82,433.893,5469.82Zm12.977,3.28c-0.378,0-2.058,1.13-2.058,1.68a1.062,1.062,0,0,0,.378.58,37.8,37.8,0,0,1,2.9,3.36,0.91,0.91,0,0,0,.588.47c0.5,0,2.058-1.22,2.058-1.85C450.734,5476.83,447.332,5473.1,446.87,5473.1Zm27.007-2.23c-0.588,0-4.074.88-4.074,1.72a1.382,1.382,0,0,0,.294.67c0.546,0.72,3.15,4.5,3.15,5.13a1,1,0,0,1-1.008.84,46.214,46.214,0,0,1-8.4.92c-0.546.04-1.008,0.09-1.008,0.76a8.126,8.126,0,0,0,.5,2.22c0.378,1.18.588,1.51,1.512,1.51a58.241,58.241,0,0,0,9.954-1.59,2.705,2.705,0,0,1,.546-0.13c0.924,0,1.218.8,1.6,1.47,0.839,1.51,1.511,2.65,2.435,4.08a1.607,1.607,0,0,1,.252.63,0.419,0.419,0,0,1-.462.37,1.547,1.547,0,0,1-.462-0.12,13.228,13.228,0,0,0-5.249-1.22c-4.7,0-8.862,3.02-8.862,8.02,0,4.96,3.948,7.48,8.316,8.57a31.93,31.93,0,0,0,7.223.97c0.882,0,1.218-.17,1.428-0.72a7.785,7.785,0,0,0,.42-2.56c0-.76-0.126-1.34-0.966-1.34-0.546,0-1.386.08-2.352,0.08-3.233,0-9.659-.88-9.659-5.21,0-2.43,2.31-3.74,4.494-3.74,3.611,0,7.895,2.1,9.953,3.53a4.016,4.016,0,0,0,1.6.88c0.882,0,2.982-1.84,2.982-2.77a1.958,1.958,0,0,0-.672-1.17,48.453,48.453,0,0,1-6.09-9.24,3.284,3.284,0,0,1-.714-1.6c0-.75.84-0.92,1.386-1.13a32.048,32.048,0,0,0,3.864-1.81c0.546-.29,1.26-0.63,1.26-1.09,0-.76-1.848-3.28-2.688-3.28a2.506,2.506,0,0,0-1.134.51c-0.8.5-3.78,2.27-4.578,2.27a1.234,1.234,0,0,1-1.134-.8c-0.881-1.64-1.679-3.28-2.6-4.87A1.078,1.078,0,0,0,473.877,5470.87Zm44.183,8.99a0.7,0.7,0,0,0,.378.63c3.99,3.06,5.712,7.05,6.216,11.97,0.084,1,.042,1.59,1.386,1.59a8.881,8.881,0,0,0,2.352-.38,1.17,1.17,0,0,0,1.134-1.21,22.952,22.952,0,0,0-2.478-8.74c-2.016-3.86-5.544-6.51-6.468-6.51C519.74,5477.21,518.06,5479.06,518.06,5479.86Zm-18.941-2.73a0.518,0.518,0,0,0-.588.46c-0.084.38-.21,5.71-0.21,6.38,0,4.45.336,9.75,2.436,13.69,1.386,2.57,3.822,5.38,6.93,5.38,1.974,0,3.276-1.26,4.494-2.65,0.588-.67,2.478-2.85,2.478-3.65,0-.76-2.142-2.48-3.024-2.48a1.661,1.661,0,0,0-1.134,1.05c-0.5.93-1.722,2.77-2.9,2.77-1.47,0-2.856-2.47-3.36-3.65a24,24,0,0,1-1.344-8.78,31.292,31.292,0,0,1,.336-4.45,3.05,3.05,0,0,1,.756-2.01,0.742,0.742,0,0,0,.42-0.55,0.955,0.955,0,0,0-.924-0.59C502.773,5477.93,499.665,5477.13,499.119,5477.13Zm40.824,19.06a3.7,3.7,0,0,1,3.738,3.74A3.738,3.738,0,1,1,539.943,5496.19Zm0-2.1a5.84,5.84,0,1,0,5.838,5.84A5.829,5.829,0,0,0,539.943,5494.09Z" transform="translate(-193.188 -5469.81)"/>
</svg>
