<svg xmlns="http://www.w3.org/2000/svg" width="433.625" height="38.35" viewBox="0 0 433.625 38.35">
  <defs>
    <style>
      .cls-1 {
        fill-rule: evenodd;
      }
    </style>
  </defs>
  <path id="入会金はかかりませんが_" data-name="入会金はかかりませんが、 " class="cls-1" d="M209.4,4798.09a31.624,31.624,0,0,1-4.158,12.64,33.764,33.764,0,0,1-11.8,11.81,0.982,0.982,0,0,0-.714.71c0,0.97,1.176,3.36,2.267,3.36a4.741,4.741,0,0,0,2.016-1.01,38.648,38.648,0,0,0,14.07-17.13,0.4,0.4,0,0,1,.8,0,38.138,38.138,0,0,0,10.835,15.24c0.714,0.59,4.116,3.32,4.83,3.32,1.134,0,2.73-2.35,2.73-3.4a0.905,0.905,0,0,0-.588-0.8,30.324,30.324,0,0,1-15.582-26.67v-2.81c0-1.6-.377-2.48-2.1-2.48-0.672,0-1.344.04-2.058,0.04h-4.578c-1.008,0-2.058-.08-3.024-0.08-1.092,0-1.05.5-1.05,2.1,0,1.64-.042,2.18,1.05,2.18,1.008,0,2.016-.08,3.024-0.08h2.9c1.176,0,1.176.38,1.176,1.85A11.649,11.649,0,0,1,209.4,4798.09Zm39.564,17.43a0.924,0.924,0,0,1,.84-0.59,0.589,0.589,0,0,0,.63-0.5,0.6,0.6,0,0,0-.5-0.5,0.328,0.328,0,0,1-.21-0.17c0-.09.042-0.09,0.168-0.09H260.34c1.764,0,3.486.09,5.25,0.09,0.966,0,.924-0.76.924-2.06,0-1.34.042-2.1-.924-2.1-1.764,0-3.486.08-5.25,0.08H240.517c-1.722,0-3.486-.08-5.208-0.08-0.966,0-.924.71-0.924,2.1,0,1.3-.042,2.06.924,2.06,1.722,0,3.486-.09,5.208-0.09h3.318a0.7,0.7,0,0,1,.8.63,0.979,0.979,0,0,1-.084.38c-1.008,2.14-1.974,4.2-3.15,6.26a1.6,1.6,0,0,1-1.638,1.01l-1.932.12c-1.806.13-2.1,0-2.1,0.59a24.086,24.086,0,0,0,.672,2.9c0.294,0.97.42,1.55,0.882,1.55a0.608,0.608,0,0,0,.462-0.33,0.928,0.928,0,0,1,.8-0.59c4.032-.29,6.93-0.55,10.458-0.84,3.444-.29,6.845-0.63,10.289-0.97,0.084,0,.168-0.04.294-0.04a1.472,1.472,0,0,1,1.344.88c0.21,0.3.378,0.59,0.5,0.8,0.63,1.01.84,1.35,1.344,1.35,0.672,0,3.36-1.05,3.36-1.85,0-.59-2.9-4.66-3.444-5.42-0.966-1.39-2.268-3.11-3.36-4.41a1.2,1.2,0,0,0-.966-0.59c-0.714,0-3.192,1.18-3.192,1.89a15.665,15.665,0,0,0,1.848,2.52,0.941,0.941,0,0,1,.378.72,0.544,0.544,0,0,1-.588.58c-3.318.34-6.635,0.59-9.911,0.76a0.551,0.551,0,0,1-.672-0.55,0.568,0.568,0,0,1,.126-0.37C247.2,4819.13,248.2,4817.12,248.959,4815.52Zm2.31-20.41a60.48,60.48,0,0,0,6.3,6.47,0.51,0.51,0,0,1,.168.34,0.467,0.467,0,0,1-.462.42c-1.008.04-1.974,0.04-2.94,0.04h-7.685c-0.924,0-1.848-.04-2.772-0.04a0.429,0.429,0,0,1-.42-0.42,0.38,0.38,0,0,1,.168-0.34,52.919,52.919,0,0,0,6.258-6.43,0.915,0.915,0,0,1,.672-0.37A0.892,0.892,0,0,1,251.269,4795.11Zm-9.408,9.28c0,1.18,0,1.93.84,1.93,1.176,0,2.646-.08,3.948-0.08h7.685c1.26,0,2.856.08,3.906,0.08,0.8,0,.882-0.54.882-1.59v-0.88a0.518,0.518,0,0,1,.462-0.55,0.366,0.366,0,0,1,.294.13c1.218,0.88,6.51,4.53,7.728,4.53,0.924,0,2.058-2.43,2.058-3.23,0-.51-0.42-0.63-1.386-1.09a41.325,41.325,0,0,1-14.91-11.97,0.21,0.21,0,0,1-.042-0.17,0.259,0.259,0,0,1,.21-0.25,0.824,0.824,0,0,0,.8-0.63,0.708,0.708,0,0,0-.63-0.59c-0.671-.17-3.863-0.97-4.325-0.97a1.073,1.073,0,0,0-.8.68c-3.318,5.83-9.87,11.08-15.749,14.19a1.431,1.431,0,0,0-1.092.97c0,0.88,1.344,2.98,2.267,2.98,1.218,0,5.88-3.36,7.014-4.24a0.558,0.558,0,0,1,.378-0.13,0.518,0.518,0,0,1,.462.55v0.33Zm60.605,10.84a0.4,0.4,0,0,0-.252-0.38,24.366,24.366,0,0,0-2.73-1.22,4.774,4.774,0,0,0-1.176-.46,0.657,0.657,0,0,0-.42.55,35.028,35.028,0,0,1-3.024,5.46,1.738,1.738,0,0,0-.336.75c0,0.76,2.562,1.68,3.024,1.68a1.077,1.077,0,0,0,.8-0.63,39.06,39.06,0,0,0,2.52-4.28,1.725,1.725,0,0,1,.84-1.05C301.962,4815.61,302.466,4815.56,302.466,4815.23Zm-17.639,4.58a15.358,15.358,0,0,0-1.554-3.28,28.52,28.52,0,0,0-1.638-2.65,1.012,1.012,0,0,0-.756-0.54c-0.546,0-2.856,1.13-2.856,1.76a1.725,1.725,0,0,0,.336.76,36.19,36.19,0,0,1,2.772,4.74,1.062,1.062,0,0,0,.924.89C282.517,4821.49,284.827,4820.6,284.827,4819.81Zm5.418-24.95a55.565,55.565,0,0,0,6.467,6.05,0.43,0.43,0,0,1,.168.33,0.439,0.439,0,0,1-.42.38c-1.092.04-2.184,0.04-3.276,0.04h-6.971c-1.05,0-2.1,0-3.108-.04a0.465,0.465,0,0,1-.5-0.42,0.422,0.422,0,0,1,.21-0.33,58.739,58.739,0,0,0,6.006-6.05,0.9,0.9,0,0,1,.714-0.34A0.937,0.937,0,0,1,290.245,4794.86Zm1.638,11.67a0.994,0.994,0,0,1,1.175-1.17h0.126c1.386,0,2.772.08,4.158,0.08,1.092,0,1.008-.59,1.008-2.22a0.521,0.521,0,0,1,.5-0.55,0.534,0.534,0,0,1,.294.09c1.05,0.75,6.384,4.36,7.308,4.36,1.008,0,2.016-2.35,2.016-3.23,0-.55-0.252-0.63-1.386-1.18a49.409,49.409,0,0,1-14.658-11.17,0.818,0.818,0,0,1-.042-0.17,0.229,0.229,0,0,1,.21-0.25,0.715,0.715,0,0,0,.63-0.54,0.691,0.691,0,0,0-.714-0.63c-0.671-.17-3.653-0.93-4.157-0.93a0.841,0.841,0,0,0-.714.59c-3.528,5.63-9.66,10.5-15.5,13.52-0.714.38-1.3,0.59-1.3,1.09,0,0.93,1.386,3.03,2.477,3.03,1.008,0,5.88-3.53,6.93-4.28a0.4,0.4,0,0,1,.336-0.13,0.466,0.466,0,0,1,.462.55c0,1.46-.042,2.05,1.05,2.05,1.344,0,2.73-.08,4.116-0.08h0.126a0.981,0.981,0,0,1,1.134,1.17V4808a0.988,0.988,0,0,1-1.134,1.18h-4.284c-1.638,0-3.276-.08-4.914-0.08-1.008,0-1.008.42-1.008,1.97,0,1.47,0,1.93,1.008,1.93,1.638,0,3.276-.08,4.914-0.08h4.284a0.981,0.981,0,0,1,1.134,1.17v6.68a0.988,0.988,0,0,1-1.134,1.18h-8.4c-1.722,0-3.486-.09-5.208-0.09-1.007,0-1.007.42-1.007,2.06,0,1.56-.042,2.1.965,2.1,1.764,0,3.486-.12,5.25-0.12h23.183c1.764,0,3.486.12,5.208,0.12,1.008,0,1.008-.54,1.008-2.1s0-2.06-1.008-2.06c-1.722,0-3.444.09-5.208,0.09h-8.064a1,1,0,0,1-1.175-1.18v-6.68a0.994,0.994,0,0,1,1.175-1.17h4.326c1.68,0,3.318.08,4.956,0.08,1.008,0,1.008-.46,1.008-1.97,0-1.47,0-1.93-1.05-1.93-1.638,0-3.276.08-4.914,0.08h-4.326a1,1,0,0,1-1.175-1.18v-1.47Zm42.293,11.34c0,1.73-1.05,2.31-2.646,2.31-1.049,0-3.065-.46-3.065-1.8,0-1.3,2.058-1.64,3.023-1.64C332.286,4816.74,334.176,4816.78,334.176,4817.87Zm-0.84-25.45a0.515,0.515,0,0,0-.588.59c0,0.13.042,0.3,0.042,0.42,0.168,1.05.5,5.13,0.5,6.01,0,0.92-.966,1.01-1.974,1.01h-0.671c-2.184,0-5.922-.42-6.426-0.42-0.63,0-.672.5-0.672,1.05s0.042,2.93.42,3.19a9.456,9.456,0,0,0,3.192.33h0.546c1.68,0,4.661-.17,5-0.17,1.05,0,.966,1.18,1.008,1.6,0.042,1.22.252,5.21,0.252,6.26a0.768,0.768,0,0,1-.84.88h-0.294a11.3,11.3,0,0,0-1.638-.13c-3.275,0-6.593,1.52-6.593,5.3,0,3.86,3.654,5.46,7.013,5.46,2.52,0,5.334-.84,6.09-3.53a0.68,0.68,0,0,1,.63-0.67c0.546,0,2.646,1.84,3.108,2.31a1.941,1.941,0,0,0,1.176.63c0.966,0,2.436-1.94,2.436-2.9a2.246,2.246,0,0,0-1.092-1.6,23.6,23.6,0,0,0-4.536-2.94c-0.924-.46-1.344-0.54-1.428-1.64-0.042-1.09-.336-7.51-0.336-8.35,0-1.05.5-1.22,1.428-1.35,4.956-.67,5.25-0.96,5.25-1.76,0-.63-0.294-3.53-1.134-3.53a3.528,3.528,0,0,0-.63.13,26.924,26.924,0,0,1-4.2,1.05,0.927,0.927,0,0,1-.882-1.09v-1.18a5.829,5.829,0,0,1,.462-2.98,1.689,1.689,0,0,0,.462-0.84,0.416,0.416,0,0,0-.42-0.38A39.783,39.783,0,0,0,333.336,4792.42Zm-13.355,1.39a16.2,16.2,0,0,0-2.688-1.09,0.686,0.686,0,0,0-.546.71c-0.462,1.85-1.05,3.66-1.512,5.5a48.28,48.28,0,0,0-1.47,11.76,30.261,30.261,0,0,0,2.478,12.94c0.294,0.59.63,1.38,1.344,1.38,0.21,0,3.192-.5,3.192-2.14,0-.67-0.084-1.34-0.084-2.01,0-2.44,2.058-7.06,2.058-7.65,0-.5-1.344-1.34-1.806-1.34-0.5,0-.924,1.38-1.134,1.85-0.42.96-.63,1.51-0.924,1.51-0.8,0-.924-3.99-0.924-4.66a38.76,38.76,0,0,1,2.31-12.77c0.5-1.3.756-1.68,1.722-2.14a0.454,0.454,0,0,0,.378-0.42,1.51,1.51,0,0,0-1.092-.84C321.031,4794.31,320.527,4794.06,319.981,4793.81Zm58.3,2.1c-0.756,0-3.192,1.47-3.192,2.23a1.091,1.091,0,0,0,.378.71c2.814,2.98,3.948,5.37,5.628,8.99a1.255,1.255,0,0,0,.966.96c0.84,0,3.486-1.55,3.486-2.48C385.542,4805.27,379.83,4795.91,378.276,4795.91Zm-15.245-4.16c-0.462,0-.462.51-0.462,0.84,0,0.51.042,0.97,0.042,1.43a38.779,38.779,0,0,1-.42,5.42,1.351,1.351,0,0,1-1.386,1.26,66.2,66.2,0,0,1-6.972,1.3c-0.546.04-1.26,0.04-1.26,0.67,0,0.21.714,4.33,1.764,4.33a3.28,3.28,0,0,0,.882-0.26,34.818,34.818,0,0,1,4.788-1.47,0.508,0.508,0,0,1,.546.55,22.78,22.78,0,0,1-1.05,3.15,34.556,34.556,0,0,1-7.476,11.72,1.573,1.573,0,0,0-.588.96c0,0.97,2.688,2.57,3.4,2.57a1.153,1.153,0,0,0,.756-0.42,48.619,48.619,0,0,0,4.2-6.05,49.623,49.623,0,0,0,5.334-12.48c0.294-1.17.714-1.51,3.108-1.51,2.519,0,2.645,1.72,2.645,3.82,0,2.69-.63,7.06-1.847,9.5-1.05,2.05-2.1,2.56-4.368,2.56-0.84,0-1.554-.13-1.974-0.13s-0.546.3-.546,0.72a9.188,9.188,0,0,0,.714,2.98,1.78,1.78,0,0,0,1.932,1.01,8.578,8.578,0,0,0,7.937-4.54c1.848-3.36,2.52-9.03,2.52-12.89,0-2.31-.462-4.75-2.562-6.09a8.2,8.2,0,0,0-4.787-.97c-0.168,0-.336.04-0.5,0.04a0.845,0.845,0,0,1-.924-0.88,1.85,1.85,0,0,1,.084-0.46c0.126-.71.21-1.3,0.294-1.81,0.252-1.47.336-2.14,1.134-2.73a0.61,0.61,0,0,0,.336-0.5c0-.46-0.714-0.59-1.05-0.67C366.643,4792.55,363.451,4791.75,363.031,4791.75Zm54.305,4.16c-0.756,0-3.192,1.47-3.192,2.23a1.091,1.091,0,0,0,.378.71c2.814,2.98,3.948,5.37,5.628,8.99a1.255,1.255,0,0,0,.966.96c0.84,0,3.486-1.55,3.486-2.48C424.6,4805.27,418.89,4795.91,417.336,4795.91Zm-15.245-4.16c-0.462,0-.462.51-0.462,0.84,0,0.51.042,0.97,0.042,1.43a38.779,38.779,0,0,1-.42,5.42,1.351,1.351,0,0,1-1.386,1.26,66.2,66.2,0,0,1-6.972,1.3c-0.546.04-1.26,0.04-1.26,0.67,0,0.21.714,4.33,1.764,4.33a3.28,3.28,0,0,0,.882-0.26,34.818,34.818,0,0,1,4.788-1.47,0.508,0.508,0,0,1,.546.55,22.78,22.78,0,0,1-1.05,3.15,34.556,34.556,0,0,1-7.476,11.72,1.573,1.573,0,0,0-.588.96c0,0.97,2.688,2.57,3.4,2.57a1.153,1.153,0,0,0,.756-0.42,48.619,48.619,0,0,0,4.2-6.05,49.623,49.623,0,0,0,5.334-12.48c0.294-1.17.714-1.51,3.108-1.51,2.519,0,2.645,1.72,2.645,3.82,0,2.69-.63,7.06-1.847,9.5-1.05,2.05-2.1,2.56-4.368,2.56-0.84,0-1.554-.13-1.974-0.13s-0.546.3-.546,0.72a9.188,9.188,0,0,0,.714,2.98,1.78,1.78,0,0,0,1.932,1.01,8.578,8.578,0,0,0,7.937-4.54c1.848-3.36,2.52-9.03,2.52-12.89,0-2.31-.462-4.75-2.562-6.09a8.2,8.2,0,0,0-4.787-.97c-0.168,0-.336.04-0.5,0.04a0.845,0.845,0,0,1-.924-0.88,1.85,1.85,0,0,1,.084-0.46c0.126-.71.21-1.3,0.294-1.81,0.252-1.47.336-2.14,1.134-2.73a0.61,0.61,0,0,0,.336-0.5c0-.46-0.714-0.59-1.05-0.67C405.7,4792.55,402.511,4791.75,402.091,4791.75Zm46.409,1.22a2.493,2.493,0,0,0,.084.55,40.716,40.716,0,0,1,1.47,11.71,24.841,24.841,0,0,1-1.932,10.59,15.955,15.955,0,0,1-5.711,6.55,0.977,0.977,0,0,0-.63.71c0,0.88,2.436,2.94,3.108,2.94,0.966,0,2.687-1.68,3.359-2.35,5.292-5.38,6.51-11.55,6.51-18.82a55.56,55.56,0,0,0-1.3-12.09c-0.168-.63-0.252-1.13-1.05-1.13C451.944,4791.63,448.5,4792.05,448.5,4792.97Zm-12.221.63c-0.294-.13-2.142-0.88-2.268-0.88-0.378,0-.5.75-0.546,1.05-0.168,1.05-.462,2.06-0.714,3.11a39.365,39.365,0,0,0-.966,8.6,34.892,34.892,0,0,0,1.386,9.79c0.252,0.8.546,1.55,1.47,1.55,0.8,0,3.024-.5,3.024-1.68,0-.29-0.084-0.75-0.084-1.34a16.563,16.563,0,0,1,1.386-5.21l0.378-1.01c0.378-1,1.008-2.47,1.008-2.6,0-.55-1.26-1.3-1.638-1.3-0.5,0-1.26,1.8-1.47,2.27a1.6,1.6,0,0,1-.756,1.09c-0.462,0-.42-1.81-0.42-2.14a22.211,22.211,0,0,1,.546-4.71,16.529,16.529,0,0,1,1.218-3.52,1.867,1.867,0,0,1,.8-0.84,0.754,0.754,0,0,0,.5-0.55C439.135,4794.82,437.2,4794.02,436.279,4793.6Zm41.5,24.06c0.966,0,1.974,0,1.974.8,0,2.27-1.638,2.82-3.57,2.82-1.092,0-2.982-.26-2.982-1.68C473.2,4817.79,476.473,4817.66,477.775,4817.66Zm1.428-26.33c-0.378,0-.63.09-0.63,0.51a3.655,3.655,0,0,0,.084.67c0.126,0.71.378,3.53,0.378,4.2,0,1.13-1.05,1.05-4.746,1.05-2.058,0-5.586-.34-6.468-0.34-0.714,0-.756.59-0.756,1.18a7.449,7.449,0,0,0,.462,3.06c0.252,0.34,1.3.38,2.436,0.38h1.26c2.268,0,5.628-.21,7.1-0.21,1.092,0,1.134,1.72,1.134,2.94,0,0.92-.588,1.05-2.142,1.05h-1.89c-1.6,0-3.948-.21-4.452-0.21a0.7,0.7,0,0,0-.714.88,8.66,8.66,0,0,0,.546,2.94c0.336,0.76,1.134.72,2.856,0.72,1.806,0,4.158-.17,5.04-0.17,1.05,0,.966,1.55.966,2.9,0,0.42,0,1.17-.714,1.17-0.252,0-1.218-.08-1.722-0.08-3.486,0-8.064,1.34-8.064,5.58,0,3.91,3.654,5.46,7.014,5.46,3.4,0,6.72-1.05,7.6-4.66a0.932,0.932,0,0,1,.84-0.92c0.84,0,3.612,1.97,4.368,2.56a2.324,2.324,0,0,0,1.3.67c1.008,0,2.394-2.14,2.394-3.06,0-1.52-5.544-3.87-6.93-4.33-1.806-.59-1.974-0.25-1.974-4.62,0-1.18.84-1.18,2.436-1.34a36.753,36.753,0,0,0,4.326-.72c0.756-.17.8-0.59,0.8-1.97,0-1.6-.126-2.52-0.714-2.52a2.537,2.537,0,0,0-.8.17,35.973,35.973,0,0,1-5.376,1,0.718,0.718,0,0,1-.672-0.67,13.641,13.641,0,0,1-.21-2.22c0-1.18,1.008-1.14,1.89-1.26,2.226-.25,4.83-0.63,7.014-1.09,0.8-.17,1.176-0.26,1.176-1.1,0-.71-0.126-3.44-1.05-3.44a10.1,10.1,0,0,0-1.6.34,44.175,44.175,0,0,1-4.578.96c-0.294.04-1.932,0.3-2.1,0.3a0.968,0.968,0,0,1-.882-1.22c0.084-3.4.8-2.69,0.8-3.49,0-.46-0.588-0.54-1.679-0.67C481.807,4791.63,479.833,4791.33,479.2,4791.33Zm31.542,3.78a0.571,0.571,0,0,0-.672.63,2.855,2.855,0,0,0,.084.59c0.21,1.51.294,4.91,0.294,6.47,0,1.26-.756,1.3-1.764,1.47-1.26.16-4.2,0.67-5.334,0.71-0.713,0-1.3,0-1.3.92,0,0.47.126,1.39,0.168,1.85,0.042,0.25.042,0.51,0.084,0.72,0.083,1,.21,1.68.839,1.68a2.968,2.968,0,0,0,.63-0.09c0.756-.21,5.5-1.3,5.964-1.3,0.8,0,.924.76,0.924,1.39,0.084,2.6.042,6.13,0.714,8.56,1.386,4.96,6.8,5.25,11.045,5.25,1.092,0,7.35-.21,7.98-0.67,0.5-.42.5-2.69,0.5-3.36,0-.46-0.084-1.22-0.672-1.22a0.987,0.987,0,0,0-.378.05,44.221,44.221,0,0,1-8.105.84c-2.94,0-5.586-.13-6.342-2.82a49.693,49.693,0,0,1-.5-7.64c0-1.18.462-1.51,1.554-1.72,0.84-.17,6.257-1.14,6.761-1.14a0.713,0.713,0,0,1,.714.72,14.44,14.44,0,0,1-.462,2.56c-0.462,1.43-1.428,1.8-2.855,1.8-0.336,0-.714-0.04-1.05-0.04a0.736,0.736,0,0,0-.672.84,7.357,7.357,0,0,0,.714,3.19,1.406,1.406,0,0,0,1.092.34c6.089,0,7.1-3.49,7.517-8.74,0.126-1.68.924-1.47,3.276-1.68,1.386-.12,2.394-0.21,3.15-0.25,2.016-.08,2.184,0,2.184-1.97,0-2.23,0-2.86-.8-2.86-0.546,0-2.688.34-3.36,0.42-0.546.09-3.024,0.47-3.36,0.47a0.945,0.945,0,0,1-.84-1.18c0-1.09-.042-2.14-0.042-3.23a4.405,4.405,0,0,1,.294-2.1,1.34,1.34,0,0,0,.378-0.68c0-.37-0.546-0.42-0.84-0.5a43.474,43.474,0,0,0-4.326-.71,0.514,0.514,0,0,0-.588.54,2.493,2.493,0,0,0,.084.55,33.4,33.4,0,0,1,.714,6.8c0,1.47-.714,1.39-3.023,1.72-0.756.09-4.872,0.8-5.25,0.8-0.84,0-.84-0.96-0.84-1.59v-1.14c0-1.22.042-2.77,0.588-3.4a1.162,1.162,0,0,0,.42-0.67,0.632,0.632,0,0,0-.546-0.51C514.777,4795.62,511.459,4795.11,510.745,4795.11Zm32.172,24.82c-0.042.09-.756,1.81-0.756,1.85,0,0.71,3.36,1.93,4.032,1.93,0.714,0,.8-0.75.924-1.3a29.1,29.1,0,0,1,3.864-8.82,12.386,12.386,0,0,1,4.284-3.82,7.805,7.805,0,0,1,3.612-1.18c1.218,0,1.6.84,1.6,1.93a19.006,19.006,0,0,1-.462,3.41,26.942,26.942,0,0,0-.546,4.87c0,2.64,1.218,5.21,4.2,5.21,3.276,0,6.132-2.31,8.442-4.41,1.008-.93,1.974-1.89,2.94-2.86a1.622,1.622,0,0,0,.462-0.92c0-.59-1.428-3.91-2.184-3.91a1.319,1.319,0,0,0-.84.59c-1.3,1.85-5.292,6.93-7.644,6.93-0.84,0-1.092-.88-1.092-1.6a23.906,23.906,0,0,1,.672-4.11,22.191,22.191,0,0,0,.546-4.08,6.975,6.975,0,0,0-.462-2.64,4.984,4.984,0,0,0-4.451-2.48,9.4,9.4,0,0,0-4.452,1.43,1.744,1.744,0,0,1-.756.29,0.452,0.452,0,0,1-.42-0.42c0-.59,3.654-5.92,4.242-6.72a40.6,40.6,0,0,1,2.646-3.44,1.827,1.827,0,0,1,1.091-.55,0.708,0.708,0,0,0,.756-0.67c0-.46-1.512-1.51-1.931-1.81a10.763,10.763,0,0,0-2.352-1.59,1.04,1.04,0,0,0-.63.63c-0.546,1.01-1.092,1.89-1.722,2.9a130.14,130.14,0,0,0-8.778,14.82C546.025,4812.88,544.471,4816.4,542.917,4819.93Zm49.938-27.84a0.522,0.522,0,0,0-.5.63c0,0.08.084,0.96,0.084,1.64a38.663,38.663,0,0,1-.462,5.41,1.348,1.348,0,0,1-1.344,1.31c-2.31.42-4.662,1-7.014,1.26-0.5.04-1.218,0.04-1.218,0.67,0,0.25.714,4.36,1.722,4.36a3.241,3.241,0,0,0,.882-0.29,35.3,35.3,0,0,1,4.83-1.47,0.53,0.53,0,0,1,.546.55,15.764,15.764,0,0,1-1.05,3.19,33.38,33.38,0,0,1-7.518,11.67,1.6,1.6,0,0,0-.588.97c0,0.97,2.688,2.56,3.444,2.56a0.98,0.98,0,0,0,.714-0.42,37.992,37.992,0,0,0,4.158-5.96,47.508,47.508,0,0,0,5.376-12.56c0.294-1.18.756-1.51,3.108-1.51,2.561,0,2.687,1.76,2.687,3.82,0,2.73-.671,7.1-1.889,9.49-1.05,2.1-2.1,2.61-4.41,2.61-0.84,0-1.47-.17-1.89-0.17a0.586,0.586,0,0,0-.588.71,8.491,8.491,0,0,0,.756,3.03,1.722,1.722,0,0,0,1.932.96,8.587,8.587,0,0,0,7.937-4.53c1.848-3.36,2.52-9.03,2.52-12.86,0-2.35-.5-4.74-2.6-6.13a8.433,8.433,0,0,0-4.745-.92h-0.5a0.816,0.816,0,0,1-.924-0.84,2,2,0,0,1,.084-0.5c0.126-.68.21-1.26,0.294-1.73,0.21-1.51.294-2.18,1.092-2.77a0.7,0.7,0,0,0,.378-0.54c0-.47-0.756-0.59-1.092-0.68C596.425,4792.89,593.275,4792.09,592.855,4792.09Zm17.093,0a3.5,3.5,0,0,0-2.016,1.76,1.031,1.031,0,0,0,.378.59,37.059,37.059,0,0,1,2.982,3.23,1.212,1.212,0,0,0,.588.47,3.166,3.166,0,0,0,2.016-1.94C613.9,4795.7,610.368,4792.09,609.948,4792.09Zm3.948-2.98a3.779,3.779,0,0,0-2.016,1.76,0.987,0.987,0,0,0,.42.59c1.05,1.05,2.016,2.1,2.982,3.23a0.865,0.865,0,0,0,.588.46,3.273,3.273,0,0,0,2.016-1.93C617.886,4792.76,614.358,4789.11,613.9,4789.11Zm-6.846,7.56c-0.672,0-2.982,1.38-2.982,2.14a1.32,1.32,0,0,0,.378.71,30.858,30.858,0,0,1,5.628,8.99,1.2,1.2,0,0,0,.966.96c0.84,0,3.486-1.55,3.486-2.52C614.526,4805.9,608.646,4796.67,607.05,4796.67Zm8.234,21.67a1.181,1.181,0,0,0,.755.79,25.98,25.98,0,0,1,6.384,5.72,1.384,1.384,0,0,0,.84.63c0.966,0,3.066-2.31,3.066-3.24,0-1.05-7.224-6.84-8.19-6.84C617.425,4815.4,615.284,4817.62,615.284,4818.34Z" transform="translate(-192.719 -4789.03)"/>
</svg>
