<svg xmlns="http://www.w3.org/2000/svg" width="323.279" height="32.66" viewBox="0 0 323.279 32.66">
  <defs>
    <style>
      .cls-1 {
        fill-rule: evenodd;
      }
    </style>
  </defs>
  <path id="そして_新しい価値を" data-name="そして、新しい価値を" class="cls-1" d="M996.473,1137.52a2.6,2.6,0,0,0-.829.33c-1.693.79-7.854,1.66-9.908,1.84-0.649.07-1.009,0.1-1.009,0.79s0.468,3.31,1.369,3.31a3.082,3.082,0,0,0,.829-0.18c0.54-.14,4.287-1.15,4.576-1.15a0.3,0.3,0,0,1,.324.29,0.668,0.668,0,0,1-.252.43c-2.847,2.63-6.558,6.16-9.584,8.5a4.6,4.6,0,0,1-2.306,1.09c-1.189.28-1.658,0.32-1.658,0.86,0,0.68.649,3.17,1.478,3.17a3,3,0,0,0,.973-0.29c1.441-.57,4.9-1.73,6.377-2.16,0.4-.11,2.27-0.65,2.522-0.65a0.345,0.345,0,0,1,.36.33,0.432,0.432,0,0,1-.18.32c-1.729,1.55-3.135,3.14-3.135,5.62,0,3.1,2.342,5.05,5.008,6.05a17.665,17.665,0,0,0,4.828,1.12,1.028,1.028,0,0,0,1.081-.72,14.027,14.027,0,0,0,.649-2.63c0-.47-0.36-0.47-0.721-0.5-2.306-.15-6.989-0.58-6.989-3.72,0-2.63,2.81-4.86,4.864-6.08a19.7,19.7,0,0,1,7.42-2.45c1.08-.15,1.44-0.15,1.44-0.83,0-.33-0.29-2.45-0.36-2.78a0.651,0.651,0,0,0-.5-0.54,2.032,2.032,0,0,0-.43.07c-1.27.4-13.263,3.61-13.7,3.61a0.293,0.293,0,0,1-.325-0.25,1.03,1.03,0,0,1,.4-0.58c1.693-1.37,7.314-6.45,8.647-7.21,0.756-.43,1.477-0.75,1.477-1.26C999.211,1140.44,997.554,1137.52,996.473,1137.52Zm20.817,1.09c-0.5,0-.54.36-0.54,0.9v0.39c0,1.48-.32,4.94-0.43,6.6q-0.315,4.26-.32,8.54c0,2.63.18,6.12,1.8,8.28a7.964,7.964,0,0,0,6.34,2.78,12.61,12.61,0,0,0,10.95-6.89,13.168,13.168,0,0,0,1.48-4.21c0-1.08-2.2-2.92-2.99-2.92-0.54,0-.61.61-0.72,1.19a11.442,11.442,0,0,1-2.2,5.33,9.127,9.127,0,0,1-6.77,3.5c-3.89,0-3.82-4.36-3.82-7.17,0-2.06.32-13.48,1.58-14.41a0.783,0.783,0,0,0,.44-0.55,0.756,0.756,0,0,0-.72-0.5A29.791,29.791,0,0,0,1017.29,1138.61Zm25.83,4.72c0,0.36.33,3.78,1.19,3.78a3.327,3.327,0,0,0,.54-0.07,69.584,69.584,0,0,1,7.97-1.48c0.39-.07,2.01-0.32,2.3-0.32a0.5,0.5,0,0,1,.54.43,2.418,2.418,0,0,1-.65.86,16,16,0,0,0-3.96,10.34c0,7.03,5.26,8.97,11.39,8.97a1.118,1.118,0,0,0,1.04-.36,8.5,8.5,0,0,0,.65-3.2c0-.58-0.29-0.62-0.83-0.62-0.36,0-1.15.04-1.8,0.04-3.64,0-6.34-1.01-6.34-5.19a13.42,13.42,0,0,1,1.73-6.34,10.91,10.91,0,0,1,6.16-5.37,17.469,17.469,0,0,1,5.98-.75c0.83-.04,1.58.03,1.58-0.76a23.468,23.468,0,0,0-.28-2.63c-0.11-.43-0.18-0.9-0.72-0.9a2.172,2.172,0,0,0-.44.03c-2.7.44-5.47,0.8-8.18,1.12-5.26.61-10.52,1.15-15.78,1.48C1043.63,1142.5,1043.12,1142.39,1043.12,1143.33Zm31.99,17.29a1.023,1.023,0,0,0,.65.68,22.264,22.264,0,0,1,5.48,4.9,1.16,1.16,0,0,0,.72.54c0.83,0,2.63-1.98,2.63-2.77,0-.9-6.2-5.87-7.03-5.87A4.935,4.935,0,0,0,1075.11,1160.62Zm38.77-14.66a9.734,9.734,0,0,0-.51-1.59c-0.46-1.19-.57-1.51-1.11-1.51-0.51,0-2.42.39-2.42,1.01a3.375,3.375,0,0,0,.15.5c0.21,0.61.36,1.01,0.47,1.37,0.36,1.12.39,1.19,1.01,1.19a6.063,6.063,0,0,0,1.62-.33A0.8,0.8,0,0,0,1113.88,1145.96Zm16.57,4.79a0.869,0.869,0,0,1,1.01,1.01v11.35c0,1.33-.11,2.7-0.11,4.03,0,1.08.44,1.12,1.91,1.12,1.52,0,1.91-.04,1.91-1.12,0-1.33-.11-2.7-0.11-4.03v-11.35a0.844,0.844,0,0,1,.94-0.98c0.65,0,1.26.08,1.87,0.08,0.94,0,.91-0.47.91-1.77,0-1.26.03-1.77-.91-1.77-0.97,0-2.16.08-3.31,0.08h-5.12a0.852,0.852,0,0,1-1-1.01v-2.63c0-1.8.07-1.98,1.36-2.13a40.952,40.952,0,0,0,6.89-1.51,1.561,1.561,0,0,1,1.04.04,3.413,3.413,0,0,0,.54.1,0.436,0.436,0,0,0,.51-0.43,4.259,4.259,0,0,0-.98-1.51c-0.32-.47-1.11-1.62-1.62-1.62a0.709,0.709,0,0,0-.39.1c-1.7.9-6.56,1.88-8.54,2.09-1.95.22-2.42,0.4-2.42,1.91v9.77c0,5.22-.79,10.37-4.14,14.59a1.771,1.771,0,0,0-.51.9c0,0.68,2.2,1.59,2.81,1.59a0.863,0.863,0,0,0,.73-0.44,19.57,19.57,0,0,0,2.12-3.6,30.065,30.065,0,0,0,2.6-11.89,0.864,0.864,0,0,1,1-.97h1.01Zm-13.4-12.18a1.386,1.386,0,0,1,.4-1.33,0.821,0.821,0,0,0,.43-0.51c0-.29-0.29-0.39-0.94-0.47-0.57-.07-2.63-0.25-3.1-0.25a0.482,0.482,0,0,0-.61.47v0.32a9.179,9.179,0,0,1,.14,1.73,0.856,0.856,0,0,1-1,.98h-0.62c-1.04,0-2.05-.08-3.1-0.08-0.9,0-.86.51-0.86,1.59s-0.04,1.59.86,1.59c1.05,0,2.06-.08,3.1-0.08h7.07c1.04,0,2.05.08,3.09,0.08,0.87,0,.87-0.47.87-1.59s0-1.59-.87-1.59c-1.04,0-2.05.08-3.09,0.08h-0.76A0.851,0.851,0,0,1,1117.05,1138.57Zm-5.19,18.59a27.681,27.681,0,0,1-4.07,5.69,0.945,0.945,0,0,0-.43.69c0,0.72,1.8,2.12,2.38,2.12,0.68,0,2.84-3.67,3.27-4.39a0.231,0.231,0,0,1,.22-0.11,0.271,0.271,0,0,1,.25.29v1.76c0,1.34-.11,2.71-0.11,4.04,0,1.01.4,1.01,1.84,1.01s1.8,0,1.8-1.01c0-1.37-.07-2.7-0.07-4.04v-2.34a0.3,0.3,0,0,1,.25-0.36,0.51,0.51,0,0,1,.29.15c0.33,0.46,1.59,2.3,2.13,2.3,0.65,0,1.91-1.69,1.91-2.3a0.623,0.623,0,0,0-.33-0.51,23.215,23.215,0,0,1-2.84-3.1,0.463,0.463,0,0,1-.11-0.32,0.444,0.444,0,0,1,.54-0.43c0.97,0,1.98.07,2.99,0.07,0.9,0,.86-0.47.86-1.66s0.04-1.69-.86-1.69c-1.15,0-2.31.11-3.5,0.11h-0.32a0.859,0.859,0,0,1-.97-0.83,0.65,0.65,0,0,1,.32-0.58,0.615,0.615,0,0,0,.4-0.47c0-.39-0.58-0.43-0.87-0.43-0.64-.04-2.27-0.14-2.88-0.14-0.25,0-.61,0-0.61.43a1.023,1.023,0,0,0,.03.32,4.9,4.9,0,0,1,.08.76,0.853,0.853,0,0,1-.98.94h-0.46c-1.19,0-2.35-.11-3.5-0.11-0.9,0-.86.43-0.86,1.69,0,1.23-.04,1.66.86,1.66,0.76,0,2.02-.07,2.81-0.07a0.533,0.533,0,0,1,.61.5A1.149,1.149,0,0,1,1111.86,1157.16Zm-0.39-9.94c-1.27,0-2.53-.08-3.79-0.08-0.9,0-.9.44-0.9,1.59,0,1.12-.03,1.59.9,1.59,1.26,0,2.52-.08,3.79-0.08h7.45c1.23,0,2.49.08,3.75,0.08,0.94,0,.9-0.4.9-1.59,0-1.12.04-1.59-.86-1.59-0.22,0-2.17.08-2.42,0.08a0.57,0.57,0,0,1-.65-0.54,12.706,12.706,0,0,1,.69-1.73,0.718,0.718,0,0,1,.5-0.47,0.58,0.58,0,0,0,.47-0.43c0-.51-2.74-1.23-3.24-1.23-0.33,0-.36.25-0.43,0.51a18.092,18.092,0,0,1-1.23,3.09,1.306,1.306,0,0,1-1.4.8h-3.53Zm36.96-8.61c-0.51,0-.54.36-0.54,0.9v0.39c0,1.48-.33,4.94-0.43,6.6q-0.33,4.26-.33,8.54c0,2.63.18,6.12,1.8,8.28a7.978,7.978,0,0,0,6.34,2.78,12.625,12.625,0,0,0,10.96-6.89,13.389,13.389,0,0,0,1.47-4.21c0-1.08-2.19-2.92-2.99-2.92-0.54,0-.61.61-0.72,1.19a11.532,11.532,0,0,1-2.19,5.33,9.148,9.148,0,0,1-6.78,3.5c-3.89,0-3.82-4.36-3.82-7.17,0-2.06.33-13.48,1.59-14.41a0.793,0.793,0,0,0,.43-0.55,0.756,0.756,0,0,0-.72-0.5A29.977,29.977,0,0,0,1148.43,1138.61Zm44.46,6.16a0.591,0.591,0,0,0,.32.54c3.42,2.63,4.9,6.05,5.33,10.27,0.07,0.86.04,1.36,1.19,1.36a7.675,7.675,0,0,0,2.02-.32,1,1,0,0,0,.97-1.04,19.8,19.8,0,0,0-2.12-7.5c-1.73-3.31-4.76-5.58-5.55-5.58A3.469,3.469,0,0,0,1192.89,1144.77Zm-16.25-2.35a0.453,0.453,0,0,0-.51.4c-0.07.33-.18,4.9-0.18,5.48,0,3.82.29,8.36,2.09,11.74,1.19,2.2,3.28,4.62,5.95,4.62,1.69,0,2.81-1.09,3.85-2.27,0.51-.58,2.13-2.45,2.13-3.14,0-.65-1.84-2.13-2.6-2.13a1.44,1.44,0,0,0-.97.91c-0.43.79-1.48,2.37-2.49,2.37-1.26,0-2.45-2.12-2.88-3.13a20.53,20.53,0,0,1-1.15-7.53,26.838,26.838,0,0,1,.29-3.82,2.572,2.572,0,0,1,.65-1.73,0.639,0.639,0,0,0,.36-0.47c0-.36-0.51-0.43-0.8-0.5C1179.77,1143.11,1177.1,1142.42,1176.64,1142.42Zm55.8,18.6a1.018,1.018,0,0,1-1.01,1h-0.5a0.947,0.947,0,0,1-.97-1v-10.31a0.955,0.955,0,0,1,.97-1.01h0.5a1.027,1.027,0,0,1,1.01,1.01v10.31Zm-12.54,1a1.016,1.016,0,0,1-1-1v-10.31a1.025,1.025,0,0,1,1-1.01h0.44a1.041,1.041,0,0,1,1.01,1.01v10.31a1.032,1.032,0,0,1-1.01,1h-0.44Zm5.84-12.32a1.007,1.007,0,0,1,1.01,1.01v10.31a1,1,0,0,1-1.01,1h-0.43a0.957,0.957,0,0,1-1.01-1v-10.31a0.965,0.965,0,0,1,1.01-1.01h0.43Zm1.01-4.36a0.983,0.983,0,0,1-1.01,1.01h-0.43a0.945,0.945,0,0,1-1.01-1.01v-3.38a0.96,0.96,0,0,1,1.01-1.01h0.43a1,1,0,0,1,1.01,1.01v3.38Zm-14.77.04a47.445,47.445,0,0,0,2.48-6.59,2.065,2.065,0,0,1,.33-0.83,0.174,0.174,0,0,1,.14-0.07c0.07,0,.22.07,0.22,0.36a6.411,6.411,0,0,0-.04.9c0,1.4-.07,1.91.87,1.91,1.33,0,2.63-.15,3.96-0.11a0.869,0.869,0,0,1,1.01,1.01v3.38a0.842,0.842,0,0,1-.97,1.01c-0.87.04-1.73-.03-2.6-0.03-1.22,0-1.94.28-1.94,1.62,0,0.9.07,1.83,0.07,2.74v12.79c0,1.19-.07,2.37-0.07,3.53,0,0.83.46,0.83,1.76,0.83,1.37,0,1.77,0,1.77-.87v-0.61a0.829,0.829,0,0,1,.97-0.97h11.46a0.829,0.829,0,0,1,.97.97V1167c0,0.86.4,0.86,1.77,0.86,1.4,0,1.8,0,1.8-.86,0-1.16-.07-2.31-0.07-3.46v-12.86c0-.91.03-1.84,0.03-2.74,0-1.37-.72-1.62-1.94-1.62-0.87,0-1.73.07-2.6,0.03a0.837,0.837,0,0,1-.94-1.01v-3.38a0.849,0.849,0,0,1,.98-1.01h0.47c1.44,0,2.84.11,4.28,0.11,0.9,0,.87-0.44.87-1.81s0.03-1.76-.87-1.76c-1.44,0-2.84.07-4.28,0.07h-11.61c-1.44,0-2.88-.07-4.32-0.07a0.4,0.4,0,0,1-.25-0.29,0.739,0.739,0,0,0-.61-0.54,25.287,25.287,0,0,0-3.17-.9,0.68,0.68,0,0,0-.62.72,35.436,35.436,0,0,1-6.12,12.97,1.861,1.861,0,0,0-.61,1.05c0,0.57,1.29,2.91,2.01,2.91,0.54,0,.94-0.61,1.62-1.51a0.282,0.282,0,0,1,.26-0.14,0.3,0.3,0,0,1,.28.36v10.12c0,1.66-.07,3.28-0.07,4.94,0,1.04.47,1.04,1.88,1.04,1.51,0,1.87-.03,1.87-1.11,0-1.63-.07-3.25-0.07-4.87v-13.47c0-1.01.03-1.66,0.39-1.91a0.746,0.746,0,0,0,.44-0.51c0-.43-0.58-0.43-0.87-0.47a0.345,0.345,0,0,1-.36-0.32A0.3,0.3,0,0,1,1211.98,1145.38Zm47.23,12a0.832,0.832,0,0,1,.86-0.87h4.8a0.832,0.832,0,0,1,.86.87v0.29a0.83,0.83,0,0,1-.86.86h-4.8a0.83,0.83,0,0,1-.86-0.86v-0.29Zm0-4.4a0.83,0.83,0,0,1,.86-0.86h4.8a0.83,0.83,0,0,1,.86.86v0.25a0.8,0.8,0,0,1-.86.83h-4.8a0.8,0.8,0,0,1-.86-0.83v-0.25Zm6.52-4.14a0.83,0.83,0,0,1-.86.86h-4.8a0.83,0.83,0,0,1-.86-0.86v-0.15a0.83,0.83,0,0,1,.86-0.86h4.8a0.83,0.83,0,0,1,.86.86v0.15Zm-7.03-6.38a0.846,0.846,0,0,1,1.01.97v0.65a0.849,0.849,0,0,1-.97.98c-0.4,0-.83-0.04-1.22-0.04-1.19,0-1.55.47-1.55,1.62,0,0.83.03,1.66,0.03,2.45v8.22c0,0.82-.03,1.65-0.03,2.48,0,1.26.46,1.62,1.62,1.62,0.72,0,1.4-.07,2.12-0.07h5.55c0.72,0,1.48.07,2.2,0.07,1.3,0,1.55-.54,1.55-1.73,0-.79-0.04-1.58-0.04-2.37v-8.22c0-.79.04-1.62,0.04-2.45,0-1.19-.36-1.62-1.59-1.62-0.72,0-1.44.04-2.16,0.04h-1.04a0.849,0.849,0,0,1-1.01-.98v-0.65a0.846,0.846,0,0,1,1.01-.97h2.81c1.29,0,2.59.07,3.89,0.07,0.83,0,.83-0.39.83-1.55s0-1.51-.83-1.51c-1.3,0-2.6.07-3.89,0.07h-2.81a0.869,0.869,0,0,1-1.01-1.01,1.523,1.523,0,0,1,.39-1.29,0.742,0.742,0,0,0,.47-0.54c0-.44-0.5-0.44-0.9-0.47-0.65-.07-2.41-0.22-2.95-0.22-0.36,0-.65.07-0.65,0.51v0.32a13.591,13.591,0,0,1,.14,1.77,0.855,0.855,0,0,1-1.01.93h-3.96c-1.3,0-2.59-.07-3.89-0.07-0.87,0-.83.47-0.83,1.51,0,1.12-.04,1.55.83,1.55,1.3,0,2.59-.07,3.89-0.07h3.96Zm-14.98,20.47c0,1.47-.08,2.91-0.08,4.36,0,1.04.33,1.11,1.84,1.11s1.84-.07,1.84-1.11c0-1.45-.07-2.89-0.07-4.36v-13.98c0-1.01.03-1.59,0.39-1.88a0.664,0.664,0,0,0,.44-0.5c0-.4-0.58-0.43-0.87-0.43a0.324,0.324,0,0,1-.32-0.33,0.511,0.511,0,0,1,.03-0.21,46.224,46.224,0,0,0,2.74-6.78,1.163,1.163,0,0,1,.69-1.01,0.647,0.647,0,0,0,.54-0.54,1.023,1.023,0,0,0-.87-0.61,19.3,19.3,0,0,0-2.99-.76,0.659,0.659,0,0,0-.54.65,34.726,34.726,0,0,1-6.52,13.19,1.988,1.988,0,0,0-.58,1.08c0,0.79,1.34,2.67,2.16,2.67,0.58,0,1.3-1.16,1.63-1.63a0.355,0.355,0,0,1,.25-0.14,0.33,0.33,0,0,1,.29.36v10.85Zm9.65,4.14a0.586,0.586,0,0,1,.69-0.65h13.44c1.36,0,2.73.07,4.1,0.07,0.76,0,.76-0.36.76-1.58,0-1.19,0-1.55-.76-1.55-1.37,0-2.74.07-4.1,0.07h-13.23a0.846,0.846,0,0,1-.97-1.01v-12.57c0-.98.04-1.52,0.4-1.77a0.677,0.677,0,0,0,.39-0.5c0-.4-0.54-0.44-0.86-0.47-0.58-.04-2.31-0.15-2.85-0.15a0.486,0.486,0,0,0-.61.47c0,0.11.03,0.22,0.03,0.33a23.219,23.219,0,0,1,.11,2.41v12.79c0,1.37-.07,2.74-0.07,4.11,0,1.08.4,1.08,1.77,1.08C1253.05,1168.15,1253.34,1168.15,1253.37,1167.07Zm34.05-31.06c-0.36,0-.44.36-0.51,0.76a20,20,0,0,1-1.94,4.65c-0.33.43-1.3,0.46-2.24,0.46h-1.04c-1.05,0-1.98-.07-2.6-0.07-0.9,0-1.04.22-1.04,1.66,0,1.84.14,2.02,0.94,2.02,1.11,0,1.94-.11,2.52-0.11,0.5,0,.79.11,0.79,0.43,0,0.69-5.22,7.93-6.05,8.83a1.513,1.513,0,0,0-.47.79c0,0.65,2.41,2.09,3.06,2.09a0.613,0.613,0,0,0,.51-0.36,23.182,23.182,0,0,1,3.02-4.21c1.41-1.45,4.72-3.18,6.74-3.18a1.5,1.5,0,0,1,1.58,1.23,4.492,4.492,0,0,1,.19,1.01,0.928,0.928,0,0,1-.65.83,24,24,0,0,0-2.24,1.19c-2.48,1.47-5.11,3.24-5.11,6.48a5.461,5.461,0,0,0,3.6,5.15,13.329,13.329,0,0,0,5.69.94,47.016,47.016,0,0,0,6.92-.47c0.79-.18.83-0.47,0.83-1.55,0-2.05-.25-2.45-0.72-2.45a3.963,3.963,0,0,0-.72.08,26.635,26.635,0,0,1-6.7.9c-1.73,0-5.23-.22-5.23-2.63,0-2.24,3.71-3.82,3.89-3.82a0.5,0.5,0,0,1,.47.61c0,0.76-.07,1.55-0.07,2.34,0,0.94.65,1.01,2.2,1.01,1.37,0,1.55-.14,1.55-1.44,0-1.12-.04-2.2-0.04-3.32v-0.46a1.1,1.1,0,0,1,.94-1.19c1.4-.62,2.81-1.23,4.25-1.77,0.18-.07.36-0.11,0.5-0.18,0.69-.22,1.08-0.36,1.08-0.79,0-.61-0.86-3.39-1.55-3.39a2.944,2.944,0,0,0-.93.36,31.835,31.835,0,0,1-4.22,2.06,0.6,0.6,0,0,1-.54-0.62c-0.47-2.27-1.8-3.24-4.11-3.24a9.938,9.938,0,0,0-3.92.94,1.387,1.387,0,0,1-.65.21,0.271,0.271,0,0,1-.29-0.25,11.586,11.586,0,0,1,1.23-2.09,1.292,1.292,0,0,1,1.08-.58c2.27-.25,4.54-0.64,6.81-1.11,0.75-.15,1.91-0.29,1.91-0.9a11.317,11.317,0,0,0-.29-1.95,1.067,1.067,0,0,0-.9-1.08,2.64,2.64,0,0,0-.9.22,26.423,26.423,0,0,1-4.18,1.01,0.352,0.352,0,0,1-.4-0.36,2.357,2.357,0,0,1,.36-0.83,1.99,1.99,0,0,1,1.19-1.23,0.572,0.572,0,0,0,.43-0.43C1291.45,1137.67,1287.74,1136.01,1287.42,1136.01Z" transform="translate(-978.031 -1135.75)"/>
</svg>
