<svg xmlns="http://www.w3.org/2000/svg" width="1064.19" height="42.47" viewBox="0 0 1064.19 42.47">
  <defs>
    <style>
      .cls-1 {
        fill-rule: evenodd;
      }
    </style>
  </defs>
  <path id="text-connect-5_pc.svg" class="cls-1" d="M2018.61,6313.71a0.626,0.626,0,0,0-.74.69c0,0.18.1,0.5,0.1,0.64a62.071,62.071,0,0,1,.32,7.13c0,1.1-.51,1.38-1.52,1.52-1.38.23-5.01,0.78-6.26,0.83-0.82.04-1.42,0.04-1.42,1.01,0,0.92.18,1.93,0.27,2.85,0.1,1.06.23,1.79,0.92,1.79a3.634,3.634,0,0,0,.69-0.09c0.83-.23,6.03-1.42,6.54-1.42,0.87,0,.96.82,0.96,1.51,0.09,2.86.05,6.72,0.83,9.39,1.52,5.43,7.41,5.75,12.05,5.75,1.24,0,8.1-.19,8.79-0.74,0.55-.46.55-2.94,0.55-3.68,0-.46-0.09-1.33-0.74-1.33-0.13,0-.32.09-0.41,0.09a44.641,44.641,0,0,1-8.92.92c-3.18,0-6.12-.18-6.95-3.13-0.41-1.47-.51-6.62-0.51-8.32,0-1.29.46-1.71,1.71-1.94,0.92-.18,6.85-1.24,7.4-1.24a0.767,0.767,0,0,1,.74.78v0.23c-0.32,2.49-.46,4.56-3.59,4.56-0.37,0-.78-0.05-1.15-0.05a0.806,0.806,0,0,0-.74.92,10.571,10.571,0,0,0,.6,3.22,1.314,1.314,0,0,0,1.34.65c6.76,0,7.68-3.82,8.23-9.57a1.465,1.465,0,0,1,1.66-1.66c2.11-.18,4.23-0.41,6.34-0.5,1.34-.05,1.48-0.05,1.48-2.12,0-2.53-.05-3.13-0.92-3.13-0.6,0-2.99.37-3.73,0.46-0.55.09-3.31,0.55-3.68,0.55-0.97,0-.97-0.87-0.97-1.61v-0.5c0-1.2-.04-2.39-0.04-3.59a4.3,4.3,0,0,1,.32-1.98,1,1,0,0,0,.09-0.37,0.89,0.89,0,0,0-.87-0.5,36.3,36.3,0,0,0-4.37-.69,0.627,0.627,0,0,0-.69.6,2.411,2.411,0,0,0,.09.59,34.116,34.116,0,0,1,.83,7.46c0,1.24-.51,1.47-1.66,1.65-0.87.14-7.04,1.15-7.36,1.15-0.92,0-.92-1.1-0.92-1.79v-1.24c0-1.34.05-3.04,0.65-3.68a1.477,1.477,0,0,0,.41-0.79,0.589,0.589,0,0,0-.55-0.5A50.677,50.677,0,0,0,2018.61,6313.71Zm28.2-7.09c-0.42,0-2.35,1.11-2.35,1.7a1.517,1.517,0,0,0,.32.6,48.215,48.215,0,0,1,2.95,3.91,0.936,0.936,0,0,0,.64.6c0.55,0,2.35-1.2,2.35-1.89C2050.72,6310.99,2047.36,6306.62,2046.81,6306.62Zm-4.88,2.76c-0.5,0-2.34,1.15-2.34,1.7a1.284,1.284,0,0,0,.41.69,46.388,46.388,0,0,1,2.85,3.87,0.866,0.866,0,0,0,.65.55c0.55,0,2.34-1.2,2.34-1.89a11.608,11.608,0,0,0-1.65-2.53C2043.82,6311.31,2042.39,6309.38,2041.93,6309.38Zm25.99,2.03a1.626,1.626,0,0,0-1.15,1.1,6.535,6.535,0,0,1-3.45,3.22,25.51,25.51,0,0,1-7.17,1.43c-0.97.09-1.38,0.13-1.38,0.73a12.665,12.665,0,0,0,1.19,3.73,1.363,1.363,0,0,0,.97.96,10.6,10.6,0,0,0,2.11-.73,8.9,8.9,0,0,1,1.52-.55,0.3,0.3,0,0,1,.32.27,1.138,1.138,0,0,1-.18.42c-2.44,4.23-4.14,8.18-4.14,13.11,0,6.67,4.28,11.31,11.04,11.31a13.661,13.661,0,0,0,12.33-7.54c1.52-2.95,2.16-7.36,2.16-10.67,0-.69-0.09-1.38-0.09-2.12,0-.23,0-0.6.32-0.6,0.37,0,1.01,1.47,1.15,1.84,0.32,0.65,1.15,2.49,1.93,2.49,0.6,0,3.73-1.48,3.73-2.49a2.664,2.664,0,0,0-.83-1.42c-3.08-3.82-5.8-8.47-6.72-13.39-0.13-.87-0.18-1.56-1.28-1.56-0.88,0-4.24.59-4.24,1.61a1.643,1.643,0,0,0,.14.64,29.356,29.356,0,0,1,2.03,11.64c0,4.14-.46,9.61-2.99,13.02a9.775,9.775,0,0,1-7.78,3.91c-4.37,0-6.25-2.99-6.25-7.09s1.38-7.45,3.35-10.95a32.155,32.155,0,0,1,5.94-7.49c0.37-.33,1.33-1.06,1.33-1.57C2071.83,6313.66,2069.12,6311.41,2067.92,6311.41Zm42.09-.23c-1.01,0-2.07,3.22-2.07,3.72,0,0.65.6,0.74,1.11,0.88a36.1,36.1,0,0,1,4.87,1.65,6.265,6.265,0,0,0,1.93.65c1.2,0,2.12-2.95,2.12-3.41,0-.73-1.79-1.38-2.71-1.75A39.272,39.272,0,0,0,2110.01,6311.18Zm-10.95,23.13a2.821,2.821,0,0,0,.88-0.5c0.69-.65,4.23-3.59,4.92-3.59a1.358,1.358,0,0,1,1.1.87c2.3,4.56,4.79,8.93,7.13,13.44,0.46,0.92.79,1.7,1.43,1.7,0.87,0,4.05-1.61,4.05-2.49a6.255,6.255,0,0,0-1.01-1.97c-1.15-1.8-8.1-13.11-8.1-14.36a1.467,1.467,0,0,1,.92-1.15c3.22-1.93,8.33-4.83,12.05-4.83,2.35,0,4.23,1.2,4.23,3.68,0,4.01-5.52,5.48-8.69,6.03-0.6.09-1.47,0.14-1.47,0.92,0,0.64,1.24,3.77,2.44,3.77a12.457,12.457,0,0,0,1.79-.32c5.29-1.33,10.86-4.28,10.86-10.49,0-5.29-3.82-8.05-8.84-8.05-5.15,0-9.84,2.49-14.16,5.06a2.28,2.28,0,0,1-1.11.42,1.207,1.207,0,0,1-1.1-.88,27.3,27.3,0,0,1-1.84-4.55,0.807,0.807,0,0,1,.09-0.37,1.825,1.825,0,0,0,.09-0.51,0.464,0.464,0,0,0-.55-0.46,7.655,7.655,0,0,0-1.52.46c-0.64.23-1.24,0.46-1.75,0.65-1.38.5-2.2,0.78-2.2,1.19a1.361,1.361,0,0,0,.46.88c0.73,0.96,3.45,5.2,3.45,6.21a1.907,1.907,0,0,1-1.15,1.42c-1.11.74-3.32,2.3-4.33,2.81a1.287,1.287,0,0,0-.96.97C2096.17,6331.19,2098.19,6334.31,2099.06,6334.31Zm61.6-22.95a2.566,2.566,0,0,0,.09.6,44.723,44.723,0,0,1,1.61,12.83,27.035,27.035,0,0,1-2.12,11.59,17.437,17.437,0,0,1-6.25,7.18,1.066,1.066,0,0,0-.69.78c0,0.97,2.67,3.22,3.4,3.22,1.06,0,2.95-1.84,3.68-2.57,5.8-5.89,7.13-12.65,7.13-20.61a61.24,61.24,0,0,0-1.42-13.25c-0.19-.69-0.28-1.24-1.15-1.24C2164.43,6309.89,2160.66,6310.35,2160.66,6311.36Zm-13.39.69c-0.32-.14-2.34-0.97-2.48-0.97-0.42,0-.55.83-0.6,1.15-0.18,1.15-.51,2.26-0.78,3.41a43.2,43.2,0,0,0-1.06,9.43,38.305,38.305,0,0,0,1.52,10.72c0.27,0.87.6,1.7,1.61,1.7,0.87,0,3.31-.55,3.31-1.84,0-.32-0.09-0.83-0.09-1.47a17.99,17.99,0,0,1,1.52-5.71l0.41-1.1c0.41-1.11,1.1-2.72,1.1-2.85,0-.6-1.38-1.43-1.79-1.43-0.55,0-1.38,1.98-1.61,2.48-0.18.46-.46,1.2-0.83,1.2-0.5,0-.46-1.98-0.46-2.35a24.149,24.149,0,0,1,.6-5.15,18.522,18.522,0,0,1,1.33-3.86,2.116,2.116,0,0,1,.88-0.92,0.8,0.8,0,0,0,.55-0.6C2150.4,6313.38,2148.28,6312.51,2147.27,6312.05Zm46.6,25.99c-0.74,0-2.85,2.71-2.85,3.4,0,0.97,1.52,2.12,2.25,2.63,2.58,1.7,6.81,2.07,9.85,2.07,1.15,0,6.34-.23,7.17-0.6,0.55-.32.51-1.38,0.51-2.3,0-1.84,0-2.9-.78-2.9a1.786,1.786,0,0,0-.46.09,20.82,20.82,0,0,1-6.54.92c-2.8,0-6.3-.41-8.32-2.67A1.448,1.448,0,0,0,2193.87,6338.04Zm3.45-10.53c0,0.78.23,1.01,1.15,1.01,0.6,0,1.15-.05,1.75-0.05a20.735,20.735,0,0,1,7.31,1.15,2.456,2.456,0,0,0,.97.23,0.8,0.8,0,0,0,.83-0.6,11.578,11.578,0,0,0,.87-3.22,0.873,0.873,0,0,0-.64-0.92,33.159,33.159,0,0,0-9.25-1.28C2198.15,6323.83,2197.32,6323.55,2197.32,6327.51Zm-6.03-19.6c-0.46,0-.46.46-0.5,1.15-0.05,1.33-1.15,7.45-1.7,8.37-0.42.69-1.11,0.74-4.05,0.74-1.98,0-3.91-.19-4.33-0.19a0.662,0.662,0,0,0-.69.83,20.208,20.208,0,0,0,.37,3.36c0.28,0.87,1.01.83,1.93,0.83,1.43,0,3.45-.23,4.1-0.23a0.72,0.72,0,0,1,.83.69,6.993,6.993,0,0,1-.37,1.19c-1.8,4.88-5.25,12.88-8.14,17.02a3.426,3.426,0,0,0-.79,1.52c0,1.01,3.18,2.49,3.91,2.49,0.69,0,1.06-.65,1.66-1.75a143.91,143.91,0,0,0,8.56-20.29c0.41-1.29.55-1.52,1.88-1.79a68.534,68.534,0,0,0,7.55-1.8c0.78-.23.87-0.87,0.87-1.65,0-.69,0-3.5-0.92-3.5a2.5,2.5,0,0,0-.97.23,32.124,32.124,0,0,1-5.33,1.7,0.673,0.673,0,0,1-.69-0.69c0-.23.96-3.58,1.1-4.09a2.035,2.035,0,0,1,1.06-1.61,0.677,0.677,0,0,0,.41-0.46c0-.51-1.28-0.83-1.7-0.97C2194.74,6308.83,2191.71,6307.91,2191.29,6307.91Zm51.25,10.99a0.753,0.753,0,0,0,.41.69c4.37,3.36,6.26,7.73,6.81,13.11,0.09,1.11.05,1.75,1.52,1.75a9.651,9.651,0,0,0,2.57-.41c0.79-.23,1.25-0.46,1.25-1.34a24.99,24.99,0,0,0-2.72-9.56c-2.21-4.24-6.07-7.13-7.08-7.13C2244.38,6316.01,2242.54,6318.03,2242.54,6318.9Zm-20.75-2.99a0.568,0.568,0,0,0-.64.51c-0.09.41-.23,6.26-0.23,6.99,0,4.88.37,10.67,2.67,15,1.51,2.8,4.18,5.89,7.59,5.89,2.16,0,3.58-1.38,4.92-2.9,0.64-.74,2.71-3.13,2.71-4,0-.83-2.34-2.72-3.31-2.72a1.8,1.8,0,0,0-1.24,1.15c-0.55,1.01-1.89,3.04-3.18,3.04-1.61,0-3.12-2.72-3.68-4a26.455,26.455,0,0,1-1.47-9.62,34.261,34.261,0,0,1,.37-4.87,3.312,3.312,0,0,1,.83-2.21,0.814,0.814,0,0,0,.46-0.6c0-.46-0.65-0.55-1.01-0.64C2225.79,6316.79,2222.39,6315.91,2221.79,6315.91Zm62.98,5.57a1.061,1.061,0,0,1,1.1-1.1h4.65a1.061,1.061,0,0,1,1.1,1.1v0.28a1.061,1.061,0,0,1-1.1,1.1h-4.65a1.061,1.061,0,0,1-1.1-1.1v-0.28Zm-5.89-1.1a1.061,1.061,0,0,1,1.1,1.1v0.28a1.061,1.061,0,0,1-1.1,1.1h-4.65a1.061,1.061,0,0,1-1.1-1.1v-0.28a1.061,1.061,0,0,1,1.1-1.1h4.65Zm13.02,15.5a0.9,0.9,0,0,1,.87.87v0.23a0.827,0.827,0,0,1-.87.88h-6.26a0.821,0.821,0,0,1-.87-0.88v-0.23a0.891,0.891,0,0,1,.87-0.87h6.26Zm-7.13-4a0.9,0.9,0,0,1,.87-0.88h6.26a0.914,0.914,0,0,1,.87.88v0.18a0.819,0.819,0,0,1-.87.87h-6.26a0.814,0.814,0,0,1-.87-0.87v-0.18Zm12.78-.19c0-.64.1-1.33,0.1-2.02,0-1.43-.74-1.84-2.07-1.84-1.25,0-2.49.09-3.73,0.09h-6.21a0.743,0.743,0,0,1-.87-0.87v-0.23a0.743,0.743,0,0,1,.87-0.88h3.82c1.42,0,2.8.05,4.18,0.05,1.06,0,2.58-.09,2.58-1.47,0-.46-0.09-0.88-0.09-1.66v-2.48c0-.79.09-1.2,0.09-1.66,0-1.43-1.56-1.52-2.62-1.52-1.38,0-2.76.09-4.14,0.09h-3.82a0.74,0.74,0,0,1-.87-0.87v-0.28a0.74,0.74,0,0,1,.87-0.87h9.34c1.88,0,3.82.09,5.7,0.09,1.06,0,1.01-.55,1.01-1.79s0.05-1.75-1.01-1.75c-1.88,0-3.77.09-5.7,0.09h-8.93a1.081,1.081,0,0,1-1.24-1.29,1.43,1.43,0,0,1,.46-1.33,0.914,0.914,0,0,0,.55-0.64c0-.56-0.78-0.56-1.24-0.6-0.73-.09-3.4-0.37-4-0.37-0.46,0-.83.09-0.83,0.64,0,0.1.05,0.28,0.05,0.42,0.09,0.64.14,1.29,0.18,1.93a1.108,1.108,0,0,1-1.29,1.24h-8.97c-1.88,0-3.81-.09-5.7-0.09-1.01,0-1.01.46-1.01,1.75s0,1.79,1.01,1.79c1.93,0,3.82-.09,5.7-0.09h9.39a0.74,0.74,0,0,1,.87.87v0.28a0.754,0.754,0,0,1-.87.87h-3.82c-1.38,0-2.76-.09-4.14-0.09-1.06,0-2.62.09-2.62,1.52,0,0.46.09,0.87,0.09,1.66v2.48c0,0.78-.09,1.2-0.09,1.66,0,1.38,1.56,1.47,2.62,1.47,1.38,0,2.76-.05,4.14-0.05h3.82a0.761,0.761,0,0,1,.87.88v0.23a0.757,0.757,0,0,1-.87.87h-9.48c-1.15,0-2.34-.09-3.49-0.09-0.79,0-.79.41-0.79,1.61,0,1.24,0,1.65.83,1.65,1.15,0,2.3-.09,3.45-0.09h9.48a0.761,0.761,0,0,1,.87.88v0.23a0.724,0.724,0,0,1-.87.82h-10.35c-1.93,0-3.91-.04-5.84-0.04-0.97,0-.92.55-0.92,1.52s-0.05,1.56.87,1.56c1.98,0,3.96-.09,5.89-0.09h10.35a0.754,0.754,0,0,1,.87.87v0.28a0.727,0.727,0,0,1-.87.83h-7.18c-1.84,0-3.72-.05-5.61-0.05-1.06,0-1.1.32-1.1,1.61s0.04,1.66,1.1,1.66c1.89,0,3.77-.1,5.61-0.1h6.76a1.1,1.1,0,0,1,1.29,1.2c-0.09,1.79-.27,2.39-2.57,2.39-1.11,0-1.98-.18-2.58-0.18-0.69,0-.87.41-0.87,1.06,0,3.63,1.51,3.4,2.8,3.4,3.36,0,8.1-.09,8.1-4.55,0-.46,0-1.66-0.05-2.12a1.054,1.054,0,0,1,1.24-1.2h5.98a0.78,0.78,0,0,1,.74.56c0.23,0.55.87,0.55,2.25,0.55,1.94,0,2.67.04,2.67-1.06,0-.87-0.14-2.07-0.14-3.27v-0.59a1.088,1.088,0,0,1,1.25-1.25c0.96,0,1.93.05,2.89,0.05,0.92,0,.92-0.51.92-1.56,0-.97.05-1.52-0.92-1.52s-1.93,0-2.94.04A1.125,1.125,0,0,1,2297.55,6331.69Zm25.67-23.96c-0.46,0-.55.46-0.64,0.96a24.918,24.918,0,0,1-2.49,5.94c-0.41.55-1.65,0.59-2.85,0.59h-1.33c-1.34,0-2.53-.09-3.31-0.09-1.15,0-1.34.28-1.34,2.12,0,2.34.19,2.57,1.2,2.57,1.42,0,2.48-.13,3.22-0.13,0.64,0,1.01.13,1.01,0.55,0,0.87-6.67,10.12-7.73,11.27a1.9,1.9,0,0,0-.6,1.01c0,0.83,3.09,2.67,3.91,2.67a0.766,0.766,0,0,0,.65-0.46,29.736,29.736,0,0,1,3.86-5.38c1.8-1.84,6.03-4.05,8.6-4.05a1.917,1.917,0,0,1,2.03,1.56,6.476,6.476,0,0,1,.23,1.29,1.185,1.185,0,0,1-.83,1.06,31.137,31.137,0,0,0-2.85,1.52c-3.18,1.88-6.53,4.14-6.53,8.28,0,3.12,1.79,5.33,4.6,6.57a16.964,16.964,0,0,0,7.26,1.2,60.276,60.276,0,0,0,8.84-.6c1.01-.23,1.05-0.6,1.05-1.98,0-2.62-.32-3.12-0.92-3.12a5.314,5.314,0,0,0-.92.09,33.869,33.869,0,0,1-8.55,1.15c-2.21,0-6.67-.28-6.67-3.36,0-2.85,4.74-4.88,4.97-4.88a0.638,0.638,0,0,1,.59.79c0,0.96-.09,1.97-0.09,2.99,0,1.19.83,1.28,2.81,1.28,1.75,0,1.98-.18,1.98-1.84,0-1.42-.05-2.8-0.05-4.23v-0.6a1.4,1.4,0,0,1,1.2-1.51c1.79-.79,3.58-1.57,5.42-2.26,0.23-.09.46-0.14,0.65-0.23,0.87-.27,1.38-0.46,1.38-1.01,0-.78-1.11-4.32-1.98-4.32a3.823,3.823,0,0,0-1.2.46c-0.73.41-4.83,2.62-5.38,2.62a0.761,0.761,0,0,1-.69-0.78c-0.6-2.9-2.3-4.14-5.24-4.14a12.781,12.781,0,0,0-5.02,1.19,1.748,1.748,0,0,1-.82.28,0.355,0.355,0,0,1-.37-0.32,14.983,14.983,0,0,1,1.56-2.67,1.633,1.633,0,0,1,1.38-.74c2.9-.32,5.8-0.83,8.7-1.42,0.96-.19,2.43-0.37,2.43-1.15a15.559,15.559,0,0,0-.36-2.49c-0.14-.64-0.37-1.38-1.15-1.38a3.4,3.4,0,0,0-1.15.28,33.657,33.657,0,0,1-5.34,1.29,0.45,0.45,0,0,1-.51-0.46,3.224,3.224,0,0,1,.46-1.06,2.563,2.563,0,0,1,1.52-1.57,0.734,0.734,0,0,0,.55-0.55C2328.37,6309.84,2323.64,6307.73,2323.22,6307.73Zm56.22,17.29v-4.51h-3.75l1.49-9.41h-5.09l-1.48,9.41h-6.53l1.49-9.41h-5.14l-1.49,9.41h-4.56v4.51h3.89l-0.96,5.95h-4.51v4.51h3.79l-1.58,9.99h5.13l1.54-9.99h6.57l-1.58,9.99h5.09l1.58-9.99h4.51v-4.51h-3.79l0.96-5.95h4.42Zm-9.55,0-0.92,5.95h-6.57l0.96-5.95h6.53Zm41.61-1.08a22.859,22.859,0,0,0-.34-3.62,11.422,11.422,0,0,0-.96-3.03,9.76,9.76,0,0,0-1.92-2.64,12.382,12.382,0,0,0-4.04-2.71,13.058,13.058,0,0,0-5-.94,12.847,12.847,0,0,0-4.98.94,12.513,12.513,0,0,0-4.02,2.71,9.76,9.76,0,0,0-1.92,2.64,12.239,12.239,0,0,0-.99,3.03,23.96,23.96,0,0,0-.36,3.62c-0.03,1.33-.04,2.81-0.04,4.44s0.01,3.11.04,4.44a23.96,23.96,0,0,0,.36,3.62,12.239,12.239,0,0,0,.99,3.03,9.76,9.76,0,0,0,1.92,2.64,12.513,12.513,0,0,0,4.02,2.71,12.847,12.847,0,0,0,4.98.94,13.058,13.058,0,0,0,5-.94,12.382,12.382,0,0,0,4.04-2.71,9.76,9.76,0,0,0,1.92-2.64,11.422,11.422,0,0,0,.96-3.03,22.859,22.859,0,0,0,.34-3.62c0.03-1.33.05-2.81,0.05-4.44S2411.53,6325.27,2411.5,6323.94Zm-5.25,8.74a22.453,22.453,0,0,1-.29,2.88,6.959,6.959,0,0,1-.62,1.96,6.317,6.317,0,0,1-3.26,3,6.871,6.871,0,0,1-2.84.58,6.951,6.951,0,0,1-2.85-.58,6.563,6.563,0,0,1-2.22-1.53,6.4,6.4,0,0,1-1.03-1.47,6.959,6.959,0,0,1-.62-1.96,20.785,20.785,0,0,1-.29-2.88c-0.05-1.14-.07-2.57-0.07-4.3s0.02-3.16.07-4.3a20.785,20.785,0,0,1,.29-2.88,6.959,6.959,0,0,1,.62-1.96,6.4,6.4,0,0,1,1.03-1.47,6.563,6.563,0,0,1,2.22-1.53,6.951,6.951,0,0,1,2.85-.58,6.871,6.871,0,0,1,2.84.58,6.317,6.317,0,0,1,3.26,3,6.959,6.959,0,0,1,.62,1.96,22.453,22.453,0,0,1,.29,2.88c0.04,1.14.07,2.57,0.07,4.3S2406.29,6331.54,2406.25,6332.68Zm37.22-8.74a24.1,24.1,0,0,0-.34-3.62,11.422,11.422,0,0,0-.96-3.03,9.76,9.76,0,0,0-1.92-2.64,12.488,12.488,0,0,0-4.04-2.71,13.058,13.058,0,0,0-5-.94,12.847,12.847,0,0,0-4.98.94,12.513,12.513,0,0,0-4.02,2.71,9.76,9.76,0,0,0-1.92,2.64,12.239,12.239,0,0,0-.99,3.03,21.629,21.629,0,0,0-.36,3.62c-0.03,1.33-.05,2.81-0.05,4.44s0.02,3.11.05,4.44a21.629,21.629,0,0,0,.36,3.62,12.239,12.239,0,0,0,.99,3.03,9.76,9.76,0,0,0,1.92,2.64,12.513,12.513,0,0,0,4.02,2.71,12.847,12.847,0,0,0,4.98.94,13.058,13.058,0,0,0,5-.94,12.488,12.488,0,0,0,4.04-2.71,9.76,9.76,0,0,0,1.92-2.64,11.422,11.422,0,0,0,.96-3.03,24.1,24.1,0,0,0,.34-3.62c0.03-1.33.05-2.81,0.05-4.44S2443.5,6325.27,2443.47,6323.94Zm-5.26,8.74a20.947,20.947,0,0,1-.28,2.88,6.947,6.947,0,0,1-.63,1.96,6.23,6.23,0,0,1-3.25,3,7.268,7.268,0,0,1-5.69,0,6.23,6.23,0,0,1-3.25-3,6.947,6.947,0,0,1-.63-1.96,20.947,20.947,0,0,1-.28-2.88c-0.05-1.14-.07-2.57-0.07-4.3s0.02-3.16.07-4.3a20.947,20.947,0,0,1,.28-2.88,6.947,6.947,0,0,1,.63-1.96,6.23,6.23,0,0,1,3.25-3,7.268,7.268,0,0,1,5.69,0,6.23,6.23,0,0,1,3.25,3,6.947,6.947,0,0,1,.63,1.96,20.947,20.947,0,0,1,.28,2.88c0.05,1.14.08,2.57,0.08,4.3S2438.26,6331.54,2438.21,6332.68Zm40.59,12.79-12.24-20.79,11.09-13.39h-6.34l-13.97,17.19v-17.19h-5.23v34.18h5.23v-9.94l5.76-6.91,9.6,16.85h6.1Zm11.08,0v-34.18h-5.23v34.18h5.23Zm35.62,0v-34.18h-5.23v24l-15.79-24h-4.76v34.18h5.24v-24.05l15.79,24.05h4.75Zm34.99,0-12.53-34.18h-4.17l-12.53,34.18h5.52l2.35-6.87h13.49l2.35,6.87h5.52Zm-9.31-11.28h-10.51l5.33-15.17Zm51.94-22.9h-5.48l-5.95,24.43-6.86-24.43h-4.18l-6.86,24.43-5.95-24.43h-5.48l8.93,34.18h4.51l6.92-23.95,6.96,23.95h4.51Zm31.1,34.18-12.53-34.18h-4.18l-12.52,34.18h5.52l2.35-6.87h13.49l2.35,6.87h5.52Zm-9.31-11.28h-10.52l5.33-15.17Zm17.4-17.13a20.06,20.06,0,0,0,.51,3.32c0.14,0.5.37,1.51,1.01,1.51a3.264,3.264,0,0,0,.69-0.09c2.95-.78,7.09-1.42,10.17-1.88,0.46-.05,2.57-0.42,2.9-0.42a0.6,0.6,0,0,1,.69.55,2.49,2.49,0,0,1-.79,1.11,20.472,20.472,0,0,0-5.06,13.2c0,8.97,6.72,11.45,14.54,11.45a1.272,1.272,0,0,0,1.47-.78,12.951,12.951,0,0,0,.69-3.77c0-.74-0.37-0.78-1.06-0.78-0.5,0-1.51.04-2.3,0.04-4.69,0-8.09-1.28-8.09-6.62a17.164,17.164,0,0,1,2.21-8.1,13.949,13.949,0,0,1,7.82-6.85,22.845,22.845,0,0,1,7.63-.97c1.11-.04,2.07.05,2.07-0.96a21.408,21.408,0,0,0-.41-3.36c-0.09-.55-0.19-1.15-0.88-1.15a2.355,2.355,0,0,0-.59.05c-3.45.55-6.95,1.01-10.45,1.42-6.67.78-13.38,1.47-20.1,1.89C2642.96,6316.01,2642.31,6315.87,2642.31,6317.06Zm34.78,2.67c-0.55,0-2.35,1.2-2.35,1.75a1.126,1.126,0,0,0,.33.6,38.606,38.606,0,0,1,2.99,3.82,1.059,1.059,0,0,0,.69.59c0.55,0,2.34-1.28,2.34-1.93C2681.09,6324.01,2677.55,6319.73,2677.09,6319.73Zm-5.57,2.53c-0.5,0-2.34,1.15-2.34,1.7a1.214,1.214,0,0,0,.41.65c1.01,1.24,2.03,2.53,2.95,3.86a0.942,0.942,0,0,0,.64.55c0.51,0,2.35-1.24,2.35-1.93C2675.53,6326.54,2672.03,6322.26,2671.52,6322.26Zm18.08-.92c-1.93.6-2.48,0.78-2.48,1.38,0,1.29,2.07,4.6,3.49,4.6a2.564,2.564,0,0,0,1.2-.37c5.61-2.89,12.74-6.3,19.14-6.3,3.86,0,7.03,2.3,7.03,6.4,0,7.86-10.07,11.31-16.51,11.82-0.6.04-1.56,0.14-1.56,0.96a10.011,10.011,0,0,0,1.05,3.09,1.626,1.626,0,0,0,1.48,1.1c2.07,0,6.99-1.52,8.97-2.3,6.16-2.53,11.77-7.5,11.77-14.58a11.874,11.874,0,0,0-3.13-8.1,12.349,12.349,0,0,0-9.06-3.36c-5.79,0-11.59,2.35-16.97,4.24C2692.09,6320.61,2690.66,6321.02,2689.6,6321.34Zm75.76-9.11a3.9,3.9,0,0,0-2.2,1.89,0.962,0.962,0,0,0,.36.6,33.093,33.093,0,0,1,3.04,3.26,1.549,1.549,0,0,0,.97.88,3.71,3.71,0,0,0,2.2-2.12C2769.73,6316.14,2765.82,6312.23,2765.36,6312.23Zm-10.39,26.82a9.764,9.764,0,0,0-2.03-5.79,1.484,1.484,0,0,1-.27-0.6,0.844,0.844,0,0,1,.87-0.65,9.4,9.4,0,0,1,2.72.74c3.08,1.33,5.75,4.55,7.13,7.5,0.32,0.69.55,1.33,1.1,1.33,1.06,0,4.32-1.75,4.32-2.53,0-.83-5.84-11.5-16.83-11.5a13.357,13.357,0,0,0-2.39.23c-0.19,0-.37.05-0.56,0.05-0.92,0-2.43-1.7-2.43-2.67a5.546,5.546,0,0,1,.96-2.81,2.63,2.63,0,0,0,.37-0.82c0-.69-3.17-1.84-3.82-1.84-1.42,0-2.25,4.32-2.25,5.47a4.831,4.831,0,0,0,1.24,3.31,1.527,1.527,0,0,1,.32.74,1.324,1.324,0,0,1-1.01,1.06c-3.77,1.97-8.83,5.15-12.6,6.62a1.111,1.111,0,0,0-.88.78c0,0.6,2.3,4.97,3.08,4.97a1.032,1.032,0,0,0,.74-0.64,2.528,2.528,0,0,1,1.38-1.38c2.71-1.89,5.52-3.59,8.33-5.34,0.73-.46,3.54-2.25,4.27-2.25,1.06,0,3.04,2.94,3.04,4.69,0,1.33-.87,1.75-2.07,1.75a13.547,13.547,0,0,1-4.05-.74,5.211,5.211,0,0,0-1.15-.23,0.7,0.7,0,0,0-.69.83c0,0.6.14,3.4,0.51,3.77,0.69,0.64,5.43.97,6.53,0.97C2752.3,6344.07,2754.97,6342.87,2754.97,6339.05Zm3.49-21.53a1.066,1.066,0,0,0,.37.56,42.953,42.953,0,0,1,3.41,3.72,0.785,0.785,0,0,0,.59.42,3.648,3.648,0,0,0,2.21-2.07c0-.6-3.86-4.56-4.32-4.56C2760.21,6315.59,2758.46,6316.93,2758.46,6317.52Zm-12.88-6.57c-0.92,0-2.25,2.8-2.25,3.45a1.226,1.226,0,0,0,1.01.96,30.948,30.948,0,0,1,6.63,4.1,1.608,1.608,0,0,0,.78.36c0.73,0,2.57-3.17,2.57-3.86a0.767,0.767,0,0,0-.36-0.64,35.475,35.475,0,0,0-3.68-2.21C2749.54,6312.69,2746.23,6310.95,2745.58,6310.95Zm42,0.23c-1.01,0-2.07,3.22-2.07,3.72,0,0.65.6,0.74,1.11,0.88a36.1,36.1,0,0,1,4.87,1.65,6.265,6.265,0,0,0,1.93.65c1.2,0,2.12-2.95,2.12-3.41,0-.73-1.79-1.38-2.71-1.75A39.272,39.272,0,0,0,2787.58,6311.18Zm-10.95,23.13a2.821,2.821,0,0,0,.88-0.5c0.69-.65,4.23-3.59,4.92-3.59a1.358,1.358,0,0,1,1.1.87c2.3,4.56,4.79,8.93,7.13,13.44,0.46,0.92.79,1.7,1.43,1.7,0.87,0,4.05-1.61,4.05-2.49a6.255,6.255,0,0,0-1.01-1.97c-1.15-1.8-8.1-13.11-8.1-14.36a1.467,1.467,0,0,1,.92-1.15c3.22-1.93,8.33-4.83,12.05-4.83,2.35,0,4.23,1.2,4.23,3.68,0,4.01-5.52,5.48-8.69,6.03-0.6.09-1.47,0.14-1.47,0.92,0,0.64,1.24,3.77,2.44,3.77a12.457,12.457,0,0,0,1.79-.32c5.29-1.33,10.86-4.28,10.86-10.49,0-5.29-3.82-8.05-8.84-8.05-5.15,0-9.84,2.49-14.16,5.06a2.28,2.28,0,0,1-1.11.42,1.207,1.207,0,0,1-1.1-.88,27.3,27.3,0,0,1-1.84-4.55,0.807,0.807,0,0,1,.09-0.37,1.825,1.825,0,0,0,.09-0.51,0.464,0.464,0,0,0-.55-0.46,7.655,7.655,0,0,0-1.52.46c-0.64.23-1.24,0.46-1.75,0.65-1.38.5-2.2,0.78-2.2,1.19a1.361,1.361,0,0,0,.46.88c0.73,0.96,3.45,5.2,3.45,6.21a1.907,1.907,0,0,1-1.15,1.42c-1.11.74-3.32,2.3-4.33,2.81a1.287,1.287,0,0,0-.96.97C2773.74,6331.19,2775.76,6334.31,2776.63,6334.31Zm63.44-15.41a0.753,0.753,0,0,0,.41.69c4.37,3.36,6.26,7.73,6.81,13.11,0.09,1.11.05,1.75,1.52,1.75a9.651,9.651,0,0,0,2.57-.41c0.79-.23,1.25-0.46,1.25-1.34a24.99,24.99,0,0,0-2.72-9.56c-2.21-4.24-6.07-7.13-7.08-7.13C2841.91,6316.01,2840.07,6318.03,2840.07,6318.9Zm-20.75-2.99a0.568,0.568,0,0,0-.64.51c-0.09.41-.23,6.26-0.23,6.99,0,4.88.37,10.67,2.67,15,1.51,2.8,4.18,5.89,7.59,5.89,2.16,0,3.58-1.38,4.92-2.9,0.64-.74,2.71-3.13,2.71-4,0-.83-2.34-2.72-3.31-2.72a1.8,1.8,0,0,0-1.24,1.15c-0.55,1.01-1.89,3.04-3.18,3.04-1.61,0-3.12-2.72-3.68-4a26.455,26.455,0,0,1-1.47-9.62,34.261,34.261,0,0,1,.37-4.87,3.312,3.312,0,0,1,.83-2.21,0.814,0.814,0,0,0,.46-0.6c0-.46-0.65-0.55-1.01-0.64C2823.32,6316.79,2819.92,6315.91,2819.32,6315.91Zm38.83,1.15c0,0.46.41,4.83,1.51,4.83a3.264,3.264,0,0,0,.69-0.09,92.09,92.09,0,0,1,10.17-1.88c0.51-.1,2.58-0.42,2.94-0.42a0.655,0.655,0,0,1,.69.55,2.989,2.989,0,0,1-.82,1.11,20.4,20.4,0,0,0-5.06,13.2c0,8.97,6.71,11.45,14.53,11.45a1.448,1.448,0,0,0,1.34-.46,11.09,11.09,0,0,0,.82-4.09c0-.74-0.36-0.78-1.05-0.78-0.46,0-1.48.04-2.3,0.04-4.65,0-8.1-1.28-8.1-6.62a17.164,17.164,0,0,1,2.21-8.1,13.932,13.932,0,0,1,7.86-6.85,22.645,22.645,0,0,1,7.64-.97c1.06-.04,2.02.05,2.02-0.96a29.472,29.472,0,0,0-.36-3.36c-0.14-.55-0.23-1.15-0.92-1.15a2.125,2.125,0,0,0-.56.05c-3.45.55-6.99,1.01-10.44,1.42-6.71.78-13.43,1.47-20.15,1.89C2858.79,6316.01,2858.15,6315.87,2858.15,6317.06Zm63.89-5.1c-0.51-.51-1.84-2.07-2.44-2.07a1.168,1.168,0,0,0-.69.55,62.587,62.587,0,0,1-8.6,8.14,45.347,45.347,0,0,0-5.93,5.38,5.248,5.248,0,0,0-1.02,3.18c0,2.07.92,3.4,2.21,4.87,2.26,2.67,4.79,5.16,7.27,7.64,1.89,1.93,3.82,3.86,5.57,5.93a2.752,2.752,0,0,0,1.42,1.2c1.11,0,3.91-2.62,3.91-3.73,0-.92-3.17-3.49-3.95-4.18-2.86-2.53-5.71-5.11-8.33-7.91-0.78-.83-2.3-2.49-2.3-3.64,0-.87,1.01-1.79,1.89-2.62,2.39-2.3,5.01-4.42,7.59-6.53,1.15-.92,2.3-1.8,3.45-2.62a2.006,2.006,0,0,1,1.24-.56c0.32,0,.96.05,0.96-0.41C2924.29,6314.07,2922.45,6312.37,2922.04,6311.96Zm31.28,26.08c-0.74,0-2.85,2.71-2.85,3.4,0,0.97,1.52,2.12,2.25,2.63,2.58,1.7,6.81,2.07,9.85,2.07,1.15,0,6.34-.23,7.17-0.6,0.55-.32.51-1.38,0.51-2.3,0-1.84,0-2.9-.78-2.9a1.786,1.786,0,0,0-.46.09,20.82,20.82,0,0,1-6.54.92c-2.8,0-6.3-.41-8.32-2.67A1.448,1.448,0,0,0,2953.32,6338.04Zm3.45-10.53c0,0.78.23,1.01,1.15,1.01,0.6,0,1.15-.05,1.75-0.05a19.66,19.66,0,0,1,7.31,1.15,3.8,3.8,0,0,0,.97.23,0.8,0.8,0,0,0,.83-0.6,11.578,11.578,0,0,0,.87-3.22,0.873,0.873,0,0,0-.64-0.92,33.159,33.159,0,0,0-9.25-1.28C2957.6,6323.83,2956.77,6323.55,2956.77,6327.51Zm12.97-18.96c-0.55,0-2.25,1.34-2.25,1.89a1.027,1.027,0,0,0,.37.6,39.035,39.035,0,0,1,3.17,3.68,1.114,1.114,0,0,0,.69.55c0.55,0,2.25-1.38,2.25-2.07C2973.97,6312.65,2970.25,6308.55,2969.74,6308.55Zm-19-.64c-0.46,0-.46.46-0.5,1.15-0.05,1.33-1.15,7.45-1.7,8.37-0.42.69-1.11,0.74-4.05,0.74-1.98,0-3.91-.19-4.33-0.19a0.662,0.662,0,0,0-.69.83,20.208,20.208,0,0,0,.37,3.36c0.28,0.87,1.01.83,1.93,0.83,1.43,0,3.45-.23,4.1-0.23a0.72,0.72,0,0,1,.83.69,6.993,6.993,0,0,1-.37,1.19c-1.8,4.88-5.25,12.88-8.14,17.02a3.426,3.426,0,0,0-.79,1.52c0,1.01,3.18,2.49,3.91,2.49,0.69,0,1.06-.65,1.66-1.75a143.91,143.91,0,0,0,8.56-20.29c0.41-1.29.55-1.52,1.88-1.79a68.534,68.534,0,0,0,7.55-1.8c0.78-.23.87-0.87,0.87-1.65,0-.69,0-3.5-0.92-3.5a2.5,2.5,0,0,0-.97.23,32.124,32.124,0,0,1-5.33,1.7,0.673,0.673,0,0,1-.69-0.69c0-.23.96-3.58,1.1-4.09a2.035,2.035,0,0,1,1.06-1.61,0.677,0.677,0,0,0,.41-0.46c0-.51-1.28-0.83-1.7-0.97C2954.19,6308.83,2951.16,6307.91,2950.74,6307.91Zm14.22,3.59c-0.42,0-2.26,1.24-2.26,1.84a1.2,1.2,0,0,0,.42.64,39.865,39.865,0,0,1,3.17,3.68,1,1,0,0,0,.65.51c0.55,0,2.25-1.34,2.25-2.03C2969.19,6315.59,2965.46,6311.5,2964.96,6311.5Zm29.58-2.44c-0.65,0-4.47.97-4.47,1.89a1.512,1.512,0,0,0,.33.73c0.59,0.78,3.45,4.92,3.45,5.61a1.09,1.09,0,0,1-1.11.92,51.317,51.317,0,0,1-9.2,1.02c-0.6.04-1.1,0.09-1.1,0.82a8.823,8.823,0,0,0,.55,2.44c0.41,1.29.64,1.66,1.66,1.66a64.564,64.564,0,0,0,10.9-1.75,2.607,2.607,0,0,1,.6-0.14c1.01,0,1.33.88,1.74,1.61,0.92,1.66,1.66,2.9,2.67,4.46a1.9,1.9,0,0,1,.28.69,0.469,0.469,0,0,1-.51.42,1.466,1.466,0,0,1-.5-0.14,14.654,14.654,0,0,0-5.75-1.33c-5.16,0-9.71,3.31-9.71,8.78,0,5.43,4.32,8.19,9.11,9.39a35.679,35.679,0,0,0,7.91,1.05c0.97,0,1.33-.18,1.56-0.78a8.3,8.3,0,0,0,.46-2.8c0-.83-0.13-1.48-1.05-1.48-0.6,0-1.52.1-2.58,0.1-3.54,0-10.58-.97-10.58-5.71,0-2.67,2.53-4.09,4.92-4.09,3.96,0,8.65,2.3,10.9,3.86a4.553,4.553,0,0,0,1.75.97c0.97,0,3.27-2.03,3.27-3.04a2.217,2.217,0,0,0-.74-1.29c-2.67-2.89-4.69-6.57-6.67-10.12a3.536,3.536,0,0,1-.78-1.74c0-.83.92-1.02,1.52-1.25a36.117,36.117,0,0,0,4.23-1.97c0.6-.33,1.38-0.69,1.38-1.2,0-.83-2.02-3.59-2.94-3.59a2.783,2.783,0,0,0-1.25.55c-0.87.56-4.14,2.49-5.01,2.49a1.341,1.341,0,0,1-1.24-.88c-0.97-1.79-1.84-3.58-2.85-5.33A1.191,1.191,0,0,0,2994.54,6309.06Zm48.39,9.84a0.753,0.753,0,0,0,.41.69c4.37,3.36,6.26,7.73,6.81,13.11,0.09,1.11.05,1.75,1.52,1.75a9.651,9.651,0,0,0,2.57-.41c0.79-.23,1.25-0.46,1.25-1.34a24.99,24.99,0,0,0-2.72-9.56c-2.21-4.24-6.07-7.13-7.08-7.13C3044.77,6316.01,3042.93,6318.03,3042.93,6318.9Zm-20.75-2.99a0.568,0.568,0,0,0-.64.51c-0.09.41-.23,6.26-0.23,6.99,0,4.88.37,10.67,2.67,15,1.51,2.8,4.18,5.89,7.59,5.89,2.16,0,3.58-1.38,4.92-2.9,0.64-.74,2.71-3.13,2.71-4,0-.83-2.34-2.72-3.31-2.72a1.8,1.8,0,0,0-1.24,1.15c-0.55,1.01-1.89,3.04-3.18,3.04-1.61,0-3.12-2.72-3.68-4a26.455,26.455,0,0,1-1.47-9.62,34.261,34.261,0,0,1,.37-4.87,3.312,3.312,0,0,1,.83-2.21,0.814,0.814,0,0,0,.46-0.6c0-.46-0.65-0.55-1.01-0.64C3026.18,6316.79,3022.78,6315.91,3022.18,6315.91Zm44.71,20.89a4.047,4.047,0,0,1,4.1,4.09A4.1,4.1,0,1,1,3066.89,6336.8Zm0-2.3a6.376,6.376,0,0,0-6.39,6.39,6.4,6.4,0,1,0,12.79,0A6.378,6.378,0,0,0,3066.89,6334.5Z" transform="translate(-2009.09 -6306.62)"/>
</svg>
