<svg xmlns="http://www.w3.org/2000/svg" width="632.84" height="53.28" viewBox="0 0 632.84 53.28">
  <defs>
    <style>
      .cls-1 {
        fill-rule: evenodd;
      }
    </style>
  </defs>
  <path id="新しい可能性にジョインし" class="cls-1" d="M2507.66,1407.14a16.26,16.26,0,0,0-.81-2.55c-0.76-1.92-.93-2.44-1.8-2.44-0.81,0-3.89.64-3.89,1.63a7.429,7.429,0,0,0,.23.81c0.35,0.98.58,1.62,0.76,2.2,0.58,1.8.64,1.92,1.62,1.92a9.537,9.537,0,0,0,2.61-.53C2506.96,1408.01,2507.66,1407.84,2507.66,1407.14Zm26.68,7.71a1.408,1.408,0,0,1,1.63,1.63v18.27c0,2.15-.18,4.35-0.18,6.5,0,1.74.7,1.8,3.08,1.8,2.43,0,3.07-.06,3.07-1.8,0-2.15-.17-4.35-0.17-6.5v-18.27a1.343,1.343,0,0,1,1.5-1.57c1.05,0,2.03.12,3.02,0.12,1.51,0,1.45-.76,1.45-2.84,0-2.03.06-2.85-1.45-2.85-1.57,0-3.48.12-5.34,0.12h-8.23a1.381,1.381,0,0,1-1.63-1.62v-4.24c0-2.9.12-3.19,2.21-3.42a66.266,66.266,0,0,0,11.08-2.44,3.3,3.3,0,0,1,.69-0.11,2.856,2.856,0,0,1,.99.17,4.488,4.488,0,0,0,.87.18,0.706,0.706,0,0,0,.81-0.7c0-.7-1.16-1.86-1.57-2.44-0.52-.75-1.79-2.61-2.61-2.61a1.109,1.109,0,0,0-.63.18c-2.73,1.45-10.56,3.01-13.75,3.36-3.13.35-3.89,0.64-3.89,3.08v15.71c0,8.42-1.27,16.71-6.67,23.5a2.8,2.8,0,0,0-.81,1.45c0,1.1,3.54,2.55,4.52,2.55a1.377,1.377,0,0,0,1.16-.7,30.331,30.331,0,0,0,3.43-5.8,48.342,48.342,0,0,0,4.17-19.14,1.412,1.412,0,0,1,1.63-1.57h1.62Zm-21.58-19.6c0-1.05,0-1.68.64-2.15a1.3,1.3,0,0,0,.7-0.81c0-.46-0.47-0.64-1.51-0.75-0.93-.12-4.24-0.41-4.99-0.41-0.52,0-.99.12-0.99,0.75v0.53a14.506,14.506,0,0,1,.24,2.78,1.388,1.388,0,0,1-1.63,1.57h-0.98c-1.69,0-3.31-.12-4.99-0.12-1.45,0-1.39.81-1.39,2.55s-0.06,2.56,1.39,2.56c1.68,0,3.3-.12,4.99-0.12h11.37c1.68,0,3.3.12,4.98,0.12,1.4,0,1.4-.76,1.4-2.56s0-2.55-1.4-2.55c-1.68,0-3.3.12-4.98,0.12h-1.22A1.371,1.371,0,0,1,2512.76,1395.25Zm-8.35,29.93a45.132,45.132,0,0,1-6.55,9.17,1.519,1.519,0,0,0-.7,1.1c0,1.16,2.9,3.42,3.83,3.42,1.1,0,4.58-5.92,5.28-7.08a0.342,0.342,0,0,1,.34-0.17,0.45,0.45,0,0,1,.41.46v2.85c0,2.14-.17,4.35-0.17,6.49,0,1.63.63,1.63,2.95,1.63s2.91,0,2.91-1.63c0-2.2-.12-4.35-0.12-6.49v-3.78a0.49,0.49,0,0,1,.41-0.58,0.858,0.858,0,0,1,.46.24c0.52,0.75,2.55,3.71,3.42,3.71,1.05,0,3.08-2.73,3.08-3.71a1.009,1.009,0,0,0-.53-0.82,37.315,37.315,0,0,1-4.58-4.98,0.861,0.861,0,0,1-.17-0.53,0.718,0.718,0,0,1,.87-0.69c1.56,0,3.19.11,4.81,0.11,1.45,0,1.39-.75,1.39-2.66s0.06-2.73-1.39-2.73c-1.85,0-3.71.17-5.62,0.17h-0.53a1.367,1.367,0,0,1-1.56-1.33,1.036,1.036,0,0,1,.52-0.93,0.967,0.967,0,0,0,.64-0.75c0-.64-0.93-0.7-1.39-0.7-1.05-.06-3.66-0.23-4.65-0.23-0.4,0-.98,0-0.98.7a1.4,1.4,0,0,0,.06.52,10.053,10.053,0,0,1,.11,1.22,1.36,1.36,0,0,1-1.56,1.5h-0.76c-1.91,0-3.77-.17-5.62-0.17-1.45,0-1.4.7-1.4,2.73,0,1.97-.05,2.66,1.4,2.66,1.21,0,3.24-.11,4.52-0.11a0.882,0.882,0,0,1,.99.81A2,2,0,0,1,2504.41,1425.18Zm-0.64-16.01c-2.03,0-4.06-.12-6.09-0.12-1.45,0-1.45.7-1.45,2.56,0,1.79-.06,2.55,1.45,2.55,2.03,0,4.06-.12,6.09-0.12h12.01c1.97,0,4,.12,6.03.12,1.51,0,1.45-.64,1.45-2.55,0-1.8.06-2.56-1.39-2.56-0.35,0-3.48.12-3.89,0.12a0.9,0.9,0,0,1-1.04-.87,21.341,21.341,0,0,1,1.1-2.78,1.211,1.211,0,0,1,.81-0.76,0.934,0.934,0,0,0,.76-0.69c0-.82-4.41-1.98-5.22-1.98-0.52,0-.58.41-0.7,0.82a28.84,28.84,0,0,1-1.97,4.98,2.1,2.1,0,0,1-2.26,1.28h-5.69Zm59.51-13.86c-0.81,0-.87.58-0.87,1.45v0.64c0,2.37-.52,7.94-0.7,10.61q-0.51,6.87-.52,13.75c0,4.23.29,9.86,2.9,13.34,2.38,3.07,6.38,4.47,10.21,4.47,7.54,0,14.16-4.59,17.64-11.08,0.81-1.51,2.37-5.17,2.37-6.79,0-1.74-3.53-4.7-4.81-4.7-0.87,0-.99.99-1.16,1.92a18.317,18.317,0,0,1-3.54,8.58,14.693,14.693,0,0,1-10.9,5.63c-6.27,0-6.15-7.02-6.15-11.55,0-3.3.52-21.69,2.55-23.2a1.252,1.252,0,0,0,.7-0.87,1.213,1.213,0,0,0-1.16-.81A48.82,48.82,0,0,0,2563.28,1395.31Zm71.58,9.92a0.966,0.966,0,0,0,.52.87c5.51,4.23,7.89,9.74,8.58,16.53,0.12,1.39.06,2.2,1.92,2.2a12.188,12.188,0,0,0,3.24-.52c0.99-.29,1.57-0.58,1.57-1.68,0-3.48-1.8-8.99-3.42-12.07-2.79-5.33-7.66-8.99-8.93-8.99C2637.18,1401.57,2634.86,1404.12,2634.86,1405.23Zm-26.17-3.77a0.721,0.721,0,0,0-.81.63c-0.11.53-.29,7.89-0.29,8.82,0,6.15.47,13.46,3.37,18.91,1.91,3.54,5.28,7.43,9.57,7.43,2.72,0,4.52-1.74,6.2-3.66,0.82-.93,3.43-3.94,3.43-5.05,0-1.04-2.96-3.42-4.18-3.42-0.75,0-1.22.87-1.57,1.45-0.69,1.28-2.37,3.83-4,3.83-2.03,0-3.94-3.42-4.64-5.05-1.51-3.65-1.86-8.23-1.86-12.12a43.227,43.227,0,0,1,.47-6.15c0.17-.98.23-2.14,1.04-2.78a1.013,1.013,0,0,0,.58-0.76c0-.58-0.81-0.69-1.27-0.81C2613.74,1402.56,2609.45,1401.46,2608.69,1401.46Zm60.56,20.53a1.628,1.628,0,0,1-1.63-1.62v-6.91a1.509,1.509,0,0,1,1.63-1.56h6.2a1.433,1.433,0,0,1,1.57,1.56v6.91a1.541,1.541,0,0,1-1.57,1.62h-6.2Zm7.71,6.73c0,0.17-.06.35-0.06,0.52,0,1.28.99,1.22,3.02,1.22,2.26,0,2.96,0,2.96-1.34,0-1.5-.12-3.01-0.12-4.52v-12.3c0-1.22.06-2.38,0.06-3.59,0-1.98-1.28-2.38-3.02-2.38-1.27,0-2.55.06-3.88,0.06h-7.19c-1.28,0-2.62-.06-3.89-0.06-1.74,0-3.02.4-3.02,2.38,0,1.21.06,2.37,0.06,3.59v14.04c0,1.51-.12,3.02-0.12,4.58,0,1.28.76,1.28,2.96,1.28,2.32,0,3.02,0,3.02-1.28,0-.69-0.06-1.33-0.06-1.97a1.348,1.348,0,0,1,1.57-1.57h6.38A1.172,1.172,0,0,1,2676.96,1428.72Zm14.39,3.13c0,3.66.29,4.82-4,4.82-1.57,0-2.79-.24-3.6-0.24-1.16,0-1.28.93-1.28,1.86a8.1,8.1,0,0,0,.93,3.65c0.58,0.82,1.97.82,2.9,0.82,2.55,0,7.02-.41,9.17-1.74,1.85-1.16,2.2-3.25,2.2-5.28,0-1.34-.06-2.73-0.06-4.06v-31.09a1.349,1.349,0,0,1,1.45-1.63c1.92,0.06,3.83.12,5.8,0.12,1.4,0,1.45-.58,1.45-2.96s0-3.08-1.51-3.08c-2.43,0-4.87.18-7.3,0.18h-33.53c-2.44,0-4.87-.18-7.31-0.18-1.51,0-1.45.76-1.45,3.08,0,2.26-.06,2.96,1.45,2.96,2.44,0,4.87-.12,7.31-0.12h25.75a1.4,1.4,0,0,1,1.63,1.63v31.26Zm26.56-6.96a1.339,1.339,0,0,1,1.39-1.39h6.67a1.339,1.339,0,0,1,1.39,1.39v0.93a1.292,1.292,0,0,1-1.39,1.33h-6.67a1.292,1.292,0,0,1-1.39-1.33v-0.93Zm1.39-5.86a1.339,1.339,0,0,1-1.39-1.39v-0.75a1.342,1.342,0,0,1,1.39-1.4h6.67a1.342,1.342,0,0,1,1.39,1.4v0.75a1.339,1.339,0,0,1-1.39,1.39h-6.67Zm8.06,15.95c0,1.8-.17,2.21-2.49,2.21-1.16,0-1.68-.12-2.21-0.12-1.16,0-1.21.76-1.21,1.68,0,3.43.98,3.72,3.01,3.72,4.82,0,8.41,0,8.41-5.05,0-1.16-.05-2.26-0.05-3.42v-17.06c0-1.39.05-2.72,0.05-4.12,0-1.97-1.04-2.26-2.78-2.26-1.28,0-2.49.06-3.77,0.06h-7.37c-1.27,0-2.55-.06-3.83-0.06-1.74,0-2.66.41-2.66,2.32,0,1.34.05,2.73,0.05,4.12v18.62c0,1.86-.11,3.77-0.11,5.63,0,1.27.69,1.33,2.84,1.33,2.38,0,2.78-.06,2.78-1.45,0-1.85-.11-3.65-0.11-5.51v-2.38a1.394,1.394,0,0,1,1.62-1.62h6.21a1.394,1.394,0,0,1,1.62,1.62v1.74Zm27.32-15.14a55.524,55.524,0,0,1-9.22,4.99,1.634,1.634,0,0,1-.52.12,1.021,1.021,0,0,1-.93-1.16c0-2.09-.06-3.54.81-4.06a1.077,1.077,0,0,0,.82-0.81c0-.76-0.99-0.82-1.57-0.82-0.81-.11-4.47-0.4-5.16-0.4-0.53,0-.93.11-0.93,0.75a2.317,2.317,0,0,0,.06.64,47.774,47.774,0,0,1,.17,4.93v9.28c0,1.28-.06,2.55-0.06,3.83,0,4.64,3.54,4.52,7.02,4.52h8.64c2.27,0,4.35-.17,5.63-2.37a21.337,21.337,0,0,0,2.09-6.85c0-1.68-2.9-2.49-4-2.49-1.22,0-1.22.69-1.4,1.74-0.63,4.35-1.68,4.64-3.71,4.64h-5.97c-1.92,0-2.44-.41-2.44-2.32v-2.15a1.835,1.835,0,0,1,1.45-2.09,67.131,67.131,0,0,0,11.6-4.81,1.3,1.3,0,0,1,.64-0.18,2.478,2.478,0,0,1,.7.18,1.619,1.619,0,0,0,.58.11,0.605,0.605,0,0,0,.69-0.58c0-.52-0.87-1.39-1.39-2.08-1.04-1.28-2.2-3.02-2.78-3.02A1.348,1.348,0,0,0,2754.68,1419.84Zm0.18-26.39c-1.74,1.51-7.02,4.12-9.22,5.05a1.028,1.028,0,0,1-.53.11,0.911,0.911,0,0,1-.92-1.04v-1.1c0-1.11.05-2.27,0.75-2.61a1.071,1.071,0,0,0,.75-0.82,1.017,1.017,0,0,0-1.04-.81c-0.7-.06-4.93-0.4-5.63-0.4a0.757,0.757,0,0,0-.93.75c0,0.23.06,0.46,0.06,0.64,0.12,1.62.18,3.42,0.18,4.99v7.94c0,1.34-.06,2.61-0.06,3.95,0,4.52,3.36,4.52,7.02,4.52h8.52c2.27,0,4.3-.17,5.51-2.38,0.93-1.62,2.15-4.58,2.15-6.43,0-1.92-2.55-2.44-3.94-2.44-1.16,0-1.28.46-1.45,1.45-0.58,3.42-.87,4.29-3.54,4.29h-5.98c-1.91,0-2.37-.4-2.37-2.32v-1.39a1.732,1.732,0,0,1,1.45-2.03,82.523,82.523,0,0,0,11.48-4.64,1.181,1.181,0,0,1,.58-0.23,3.379,3.379,0,0,1,.75.17,1.324,1.324,0,0,0,.64.18,0.614,0.614,0,0,0,.64-0.64c0-.64-1.86-2.73-2.38-3.48-0.64-.87-1.22-1.69-1.68-1.69A2.073,2.073,0,0,0,2754.86,1393.45Zm-41.42,13.98c5.4-.41,10.73-1.04,16.07-1.62h0.41a1.837,1.837,0,0,1,1.74,1.16c0.52,1.04.63,1.45,1.27,1.45,0.99,0,3.89-1.05,3.89-2.27,0-.87-2.44-5.22-3.02-6.2s-2.2-3.71-2.84-4.59a1.467,1.467,0,0,0-1.16-.75c-0.58,0-3.65.99-3.65,1.97a12.215,12.215,0,0,0,1.62,2.96,1.281,1.281,0,0,1,.17.64,0.953,0.953,0,0,1-.92.93c-1.86.17-3.72,0.35-5.57,0.46a0.753,0.753,0,0,1-.93-0.75,1.856,1.856,0,0,1,.11-0.52c1.11-1.98,2.03-3.95,3.02-5.98a1.345,1.345,0,0,1,.87-0.7c0.47-.11,1.1-0.17,1.1-0.75,0-.7-1.79-1.16-2.32-1.33-0.58-.18-3.3-1.05-3.71-1.05a0.881,0.881,0,0,0-.64.76,100.278,100.278,0,0,1-3.94,9.57c-0.58,1.16-1.28,1.33-2.5,1.33-2.49,0-2.84.18-2.84,0.81a31.28,31.28,0,0,0,1.1,4.12c0.24,0.87.47,1.68,1.11,1.68a1.166,1.166,0,0,0,.87-0.69A0.969,0.969,0,0,1,2713.44,1407.43Zm58.81,25.93c0,2.55-.11,5.05-0.11,7.6,0,1.51.4,2.09,2.96,2.09,2.08,0,2.9-.29,2.9-1.86,0-2.61-.12-5.22-0.12-7.83v-36.25c0-2.15.06-3.43,0.7-4.01a1.372,1.372,0,0,0,.81-0.98c0-.76-0.99-0.87-1.51-0.93-1.04-.12-3.42-0.29-4.41-0.29-0.75,0-1.33.06-1.33,0.98,0,0.58.11,4.01,0.11,6.85v34.63Zm-0.4-30.51c0-.7-1.05-0.81-1.68-0.93-0.12,0-.24-0.06-0.35-0.06-0.47-.06-2.61-0.35-2.9-0.35-0.76,0-.87.53-0.87,1.16v0.7a49.356,49.356,0,0,1-2.03,12.3,4.856,4.856,0,0,0-.29,1.27c0,1.05,2.55,1.57,3.42,1.57,1.1,0,1.28-.64,1.51-1.57a75.755,75.755,0,0,0,2.03-11.89c0.11-1.22.11-1.33,0.69-1.62A0.8,0.8,0,0,0,2771.85,1402.85Zm24.59,31.15a1.355,1.355,0,0,1-1.62,1.56h-5.16c-2.15,0-4.24-.11-6.38-0.11-1.51,0-1.45.69-1.45,2.78s-0.06,2.84,1.45,2.84c2.14,0,4.23-.11,6.38-0.11h18.56c2.14,0,4.23.11,6.38,0.11,1.51,0,1.45-.69,1.45-2.78s0.06-2.84-1.45-2.84c-2.09,0-4.24.11-6.38,0.11h-4.24a1.355,1.355,0,0,1-1.62-1.56v-7.83a1.381,1.381,0,0,1,1.62-1.63h1.63c2.09,0,4.17.18,6.26,0.18,1.45,0,1.39-.87,1.39-2.85,0-2.03.06-2.84-1.5-2.84-2.03,0-4.06.18-6.15,0.18h-1.63a1.381,1.381,0,0,1-1.62-1.63v-6.79a1.394,1.394,0,0,1,1.62-1.62h3.14c2.2,0,4.35.17,6.49,0.17,1.39,0,1.34-.75,1.34-2.78,0-2.15.05-2.84-1.34-2.84-2.14,0-4.29.17-6.49,0.17h-3.14a1.374,1.374,0,0,1-1.62-1.62v-6.03c0-2.04.06-2.96,0.7-3.37,0.52-.41.81-0.52,0.81-0.93,0-.64-0.87-0.69-1.34-0.69-0.92-.12-4.58-0.47-5.33-0.47-0.58,0-1.05.12-1.05,0.81,0,0.18.06,0.41,0.06,0.58,0.12,1.4.23,3.37,0.23,5.11v4.99a1.374,1.374,0,0,1-1.62,1.62h-1.63a1.148,1.148,0,0,1-1.33-1.16v-0.35c0.23-1.27.41-2.2,0.52-2.95,0.29-1.69.35-2.03,1.05-2.5a0.946,0.946,0,0,0,.58-0.75c0-.7-1.16-0.87-1.69-0.99-0.69-.12-3.48-0.7-4-0.7-0.87,0-.87.82-0.93,1.45a56.887,56.887,0,0,1-2.08,11.32,0.53,0.53,0,0,1-.41.29,0.449,0.449,0,0,1-.41-0.35c-0.34-1.57-.69-3.13-1.16-4.64-0.58-2.09-.81-3.02-1.85-3.02-0.41,0-2.9.52-2.9,1.63a3.379,3.379,0,0,0,.17.75,51.99,51.99,0,0,1,1.8,7.83c0.17,0.99.35,1.45,1.45,1.45,0.29,0,.58-0.06.87-0.06a0.6,0.6,0,0,1,.81.52,5.092,5.092,0,0,1-.46,1.16,19.742,19.742,0,0,0-1.22,3.08c0,1.28,3.02,2.09,4,2.09a1.182,1.182,0,0,0,1.16-.81,37.522,37.522,0,0,0,2.61-6.56c0.35-1.1.87-1.33,2.03-1.45h3.02a1.394,1.394,0,0,1,1.62,1.62v6.79a1.381,1.381,0,0,1-1.62,1.63h-2.09c-2.09,0-4.12-.18-6.15-0.18-1.56,0-1.51.81-1.51,2.84s-0.05,2.85,1.45,2.85c2.09,0,4.12-.18,6.21-0.18h2.09a1.4,1.4,0,0,1,1.62,1.63V1434Zm46.46-8.59c-1.1,0-3.13,4.12-3.13,4.93,0,0.93,3.88,5.8,13.28,5.8,2.32,0,12.12-.87,13.75-1.74,0.75-.4.69-1.45,0.69-2.14,0-2.96-.11-4.35-1.04-4.35a4,4,0,0,0-1.22.23,47.428,47.428,0,0,1-12.76,1.85c-3.89,0-6.32-.98-8.82-4.06A1.007,1.007,0,0,0,2842.9,1425.41Zm1.33-25.11c-0.92,0-1.21.87-1.21,3.65,0,0.64-.06,1.86.58,2.26,1.21,0.81,8.35,1.16,10.15,1.16a68.19,68.19,0,0,0,9.74-.81c1.1-.23,1.1-0.7,1.1-1.91a27.631,27.631,0,0,0-.23-3.14,1.3,1.3,0,0,0-1.16-1.39,5.361,5.361,0,0,0-1.04.18,38.254,38.254,0,0,1-8.82,1.16,37.362,37.362,0,0,1-7.6-.87A7.28,7.28,0,0,0,2844.23,1400.3Zm-13.92-4.53c-0.64,0-.75.76-0.87,1.28a26.329,26.329,0,0,1-.75,2.9,69.285,69.285,0,0,0-2.96,19.2c0,6.09.81,12.29,3.54,17.81,0.75,1.56,1.45,2.84,2.43,2.84,1.22,0,4.53-1.39,4.53-2.84a4.885,4.885,0,0,0-.12-0.87c-0.05-.53-0.23-1.86-0.23-2.44,0-2.61,2.32-7.89,2.32-8.41,0-.64-1.51-1.86-2.09-1.86-0.52,0-.87.64-1.21,1.39-0.24.58-1.05,2.27-1.57,2.27-1.34,0-1.57-7.02-1.57-8.12a46.013,46.013,0,0,1,3.25-16.48c0.58-1.45.81-1.97,1.8-2.49,0.58-.35.81-0.41,0.81-0.76a1.36,1.36,0,0,0-1.16-.98C2835.65,1397.86,2830.78,1395.77,2830.31,1395.77Zm80.8-3.36a1.473,1.473,0,0,0,.64.81,52.03,52.03,0,0,1,4.7,4.06,1.281,1.281,0,0,0,.75.46c0.75,0,2.55-2.03,2.55-2.9,0-.75-5.45-5.1-6.09-5.1S2911.11,1391.77,2911.11,1392.41Zm4.93,11.77a1.423,1.423,0,0,0-1.16,1.28c-2.44,6.32-4.87,11.43-9.74,16.3a39.7,39.7,0,0,1-14.45,9.1c-1.8.7-5.1,1.92-6.9,2.38-0.35.06-1.1,0.23-1.1,0.7a1.288,1.288,0,0,0,.11.46c0.7,1.57,1.39,3.14,2.15,4.7,0.17,0.47.64,1.51,1.22,1.51a1.494,1.494,0,0,0,.87-0.81,3.2,3.2,0,0,1,1.91-1.22c7.08-2.61,14.44-6.5,19.84-11.78a49.936,49.936,0,0,0,10.15-15.08,21.032,21.032,0,0,0,1.28-3.65C2920.22,1407.02,2916.97,1404.18,2916.04,1404.18Zm-10.09-6.78a1.019,1.019,0,0,0,.52.69c1.39,1.16,2.78,2.26,4.12,3.54a4.1,4.1,0,0,0,1.39,1.1c0.75,0,2.55-2.03,2.55-2.9,0-.46-1.51-1.74-2.32-2.43-0.69-.58-3.25-2.67-3.71-2.67C2907.86,1394.73,2905.95,1396.7,2905.95,1397.4Zm-27.38,15.37a1.167,1.167,0,0,0,.87.92,100.342,100.342,0,0,1,9.4,5.92,2.943,2.943,0,0,0,1.27.64c1.22,0,3.54-3.54,3.54-4.41s-1.74-1.74-3.65-2.96c-1.16-.69-7.31-4.52-8.13-4.52C2880.71,1408.36,2878.57,1411.84,2878.57,1412.77Zm10.44-17c-0.99,0-3.54,3.13-3.54,4.06a1.773,1.773,0,0,0,1.05,1.1,88.351,88.351,0,0,1,8.46,6.09,3.573,3.573,0,0,0,1.4.76c1.1,0,3.53-3.19,3.53-4.24,0-.81-2.32-2.26-3.59-3.19C2895.27,1399.6,2889.88,1395.77,2889.01,1395.77Zm55.1,12.18c-1.91,0-4.64-.11-5.74-0.11-1.4,0-1.28,1.16-1.28,2.84,0,1.62.06,2.55,1.39,2.55,1.45,0,3.95-.12,5.69-0.12h14.04a1.365,1.365,0,0,1,1.33,1.4v3.65a1.313,1.313,0,0,1-1.33,1.34h-13.64c-2.03,0-4.46-.12-5.74-0.12-1.39,0-1.28,1.1-1.28,2.2,0,1.92-.11,3.14,1.28,3.14,1.22,0,3.77-.12,5.8-0.12h13.58a1.349,1.349,0,0,1,1.33,1.33v3.66a1.311,1.311,0,0,1-1.33,1.33h-14.16c-2.09,0-4.75-.11-5.8-0.11-1.33,0-1.28,1.21-1.28,2.26,0,2.15,0,3.13,1.4,3.13,1.33,0,3.71-.06,5.74-0.06h13.63c1.22,0,1.68,0,1.8.64,0.29,1.16.58,1.28,2.9,1.28,2.03,0,2.55-.12,2.55-1.97,0-1.22-.06-2.5-0.06-3.72v-17.86c0-1.34.06-2.5,0.06-3.37,0-2.38-.4-3.25-3.19-3.25-1.16,0-2.32.06-3.42,0.06h-14.27Zm64.73,2.15c0-1.34.46-1.74,1.33-2.61a112.9,112.9,0,0,0,7.95-8.7,3.1,3.1,0,0,1,2.26-1.39,0.688,0.688,0,0,0,.58-0.58c0-.7-1.62-1.69-2.26-2.09a21.7,21.7,0,0,0-3.94-2.38,1.509,1.509,0,0,0-.93.87,49.456,49.456,0,0,1-7.89,9.8c-5.86,5.69-15.2,12.18-22.8,15.37a1.194,1.194,0,0,0-.93.99c0,1.1,3.54,4.64,4.53,4.64,1.51,0,10.73-6.15,12.47-7.42a6.417,6.417,0,0,1,2.26-1.34c1.1,0,.93,1.28.93,1.63v15.77c0,2.5-.12,4.99-0.12,7.49,0,1.5.58,1.68,3.77,1.68,2.15,0,2.9-.18,2.9-1.74,0-2.5-.11-5.05-0.11-7.6V1410.1Zm68.9-4.41a1.423,1.423,0,0,0-.98.64c-8.24,10.5-22.74,21.46-35.56,25.23-0.75.23-1.8,0.35-1.8,0.99a16.163,16.163,0,0,0,1.74,3.48c0.41,0.69,1.63,3.01,2.27,3.01a0.583,0.583,0,0,0,.58-0.34c0.46-.99.52-1.05,2.43-1.98,12.24-5.68,22.1-12.18,31.5-21.87,0.75-.75,3.07-3.01,3.07-4C3080.99,1409.98,3078.9,1405.69,3077.74,1405.69Zm-34.28-9.28c-1.33,0-3.65,3.71-3.65,4.58a1.453,1.453,0,0,0,.93,1.1,73.3,73.3,0,0,1,7.71,5.4,6.324,6.324,0,0,0,2.32,1.56c1.1,0,3.83-3.13,3.83-4.46,0-.87-2.78-2.79-3.54-3.31C3049.96,1400.47,3044.39,1396.41,3043.46,1396.41Zm54.58-1.1c-0.81,0-.87.58-0.87,1.45v0.64c0,2.37-.52,7.94-0.69,10.61q-0.525,6.87-.53,13.75c0,4.23.29,9.86,2.9,13.34,2.38,3.07,6.38,4.47,10.21,4.47,7.54,0,14.16-4.59,17.64-11.08,0.81-1.51,2.37-5.17,2.37-6.79,0-1.74-3.53-4.7-4.81-4.7-0.87,0-.99.99-1.16,1.92a18.317,18.317,0,0,1-3.54,8.58,14.693,14.693,0,0,1-10.9,5.63c-6.27,0-6.15-7.02-6.15-11.55,0-3.3.52-21.69,2.55-23.2a1.252,1.252,0,0,0,.7-0.87,1.213,1.213,0,0,0-1.16-.81A48.82,48.82,0,0,0,3098.04,1395.31Z" transform="translate(-2496.22 -1389.75)"/>
</svg>
