<svg xmlns="http://www.w3.org/2000/svg" width="735.65" height="52.9" viewBox="0 0 735.65 52.9">
  <defs>
    <style>
      .cls-1 {
        fill-rule: evenodd;
      }
    </style>
  </defs>
  <path id="領域を超えて集まる人の想いと" class="cls-1" d="M2531.44,1436.2c0-.75-3.6-3.89-4.35-3.89a1.122,1.122,0,0,0-.7.41,38.62,38.62,0,0,1-8.7,5.92,0.791,0.791,0,0,0-.63.69c0,0.87,1.97,3.6,3.19,3.6a3.545,3.545,0,0,0,1.45-.58,33.445,33.445,0,0,0,7.6-5.28,1.293,1.293,0,0,1,.87-0.46c0.05,0,.17.06,0.23,0.06,0.17,0,.29.05,0.4,0.05A0.584,0.584,0,0,0,2531.44,1436.2Zm17.17,2.9a1.166,1.166,0,0,0-.87-0.93,36.27,36.27,0,0,1-7.71-5.45,1.9,1.9,0,0,0-1.11-.75c-0.87,0-3.13,2.32-3.13,3.19,0,1.45,8.35,7.65,9.63,7.65C2546.52,1442.81,2548.61,1440.2,2548.61,1439.1Zm-20.71-14.56a1.535,1.535,0,0,1,1.57-1.62h8.18a1.653,1.653,0,0,1,1.62,1.62v0.58a1.662,1.662,0,0,1-1.62,1.63h-8.18a1.543,1.543,0,0,1-1.57-1.63v-0.58Zm0-8.06a1.294,1.294,0,0,1,1.34-1.39h8.64a1.339,1.339,0,0,1,1.39,1.39v0.7a1.339,1.339,0,0,1-1.39,1.39h-8.64a1.294,1.294,0,0,1-1.34-1.39v-0.7Zm9.98-9.11a1.294,1.294,0,0,1,1.39,1.34v0.63a1.342,1.342,0,0,1-1.39,1.4h-8.64a1.3,1.3,0,0,1-1.34-1.4v-0.63a1.25,1.25,0,0,1,1.34-1.34h8.64Zm-2.49-4.87a0.911,0.911,0,0,1-1.05-.87,1.328,1.328,0,0,1,.12-0.52c0.29-.58.52-1.16,0.81-1.8a1.974,1.974,0,0,1,2.15-1.33h3.24c1.98,0,3.89.11,5.86,0.11,1.22,0,1.16-.75,1.16-2.67s0.12-2.67-1.16-2.67c-1.97,0-3.88.12-5.86,0.12H2526.8c-1.97,0-3.89-.12-5.86-0.12-1.22,0-1.16.7-1.16,2.67,0,2.03,0,2.67,1.16,2.67,1.97,0,3.89-.11,5.86-0.11h1.45a0.95,0.95,0,0,1,1.1.87,1.373,1.373,0,0,1-.11.52c-0.29.64-.58,1.22-0.87,1.8a2.161,2.161,0,0,1-2.21,1.27h-1.51c-1.85,0-2.55.7-2.55,2.55,0,1.45.12,2.9,0.12,4.35v15.43c0,1.45-.12,2.9-0.12,4.35,0,1.98.76,2.61,2.73,2.61,1.27,0,2.61-.11,3.88-0.11h9.69c1.34,0,2.67.11,4,.11,1.92,0,2.61-.69,2.61-2.61,0-1.45-.05-2.9-0.05-4.35v-15.43c0-1.45.05-2.9,0.05-4.35,0-1.97-.75-2.55-2.66-2.55-1.34,0-2.67.06-3.95,0.06h-3.01Zm-32.37,31.03c0,2.56-.18,5.11-0.18,7.66,0,1.91.53,1.97,2.96,1.97,2.32,0,2.84-.06,2.84-1.85,0-2.61-.11-5.22-0.11-7.78V1422.8a1.374,1.374,0,0,1,1.62-1.62h1.74a1.4,1.4,0,0,1,1.63,1.62v4.99c0,2.2.06,2.73-1.63,2.73-0.52,0-1.33-.06-1.5-0.06-0.93,0-.93,1.22-0.93,1.85,0,3.95,1.22,3.66,2.38,3.66,4.17,0,7.01-.64,7.01-5.51,0-.76-0.11-1.57-0.11-2.38v-6.5c0-1.1.11-2.2,0.11-3.24,0-2.09-.63-2.67-2.66-2.67-0.93,0-1.8.11-2.67,0.11h-10.27c-1.68,0-3.36-.11-5.05-0.11-1.27,0-1.21.69-1.21,2.84,0,2.2-.06,2.78,1.27,2.78,0.47,0,2.73-.05,3.19-0.05a1.321,1.321,0,0,1,1.57,1.56v10.73Zm11.08-28.07a0.846,0.846,0,0,1,.23.58,0.8,0.8,0,0,1-.87.75c-0.87.06-1.68,0.12-2.55,0.12h-2.73c-0.81,0-1.57-.06-2.38-0.12a0.782,0.782,0,0,1-.93-0.75,1.2,1.2,0,0,1,.24-0.58,51.1,51.1,0,0,0,3.24-5.45,0.931,0.931,0,0,1,.82-0.53,0.914,0.914,0,0,1,.75.47A49.537,49.537,0,0,0,2514.1,1405.46Zm-11.08,4.35c-0.06,1.27-.06,2.2,1.33,2.2,1.28,0,2.55-.11,3.83-0.11h2.73c1.27,0,2.55.11,3.83,0.11,1.45,0,1.33-.93,1.33-2.9v-0.46a0.583,0.583,0,0,1,.41-0.58,0.747,0.747,0,0,1,.29.11,1.719,1.719,0,0,0,1.04.64c1.04,0,3.42-2.55,3.42-3.59a2.1,2.1,0,0,0-.93-1.22,53.415,53.415,0,0,1-8.29-9.69,0.211,0.211,0,0,1-.06-0.17,0.528,0.528,0,0,1,.29-0.47,0.718,0.718,0,0,0,.41-0.52c0-.64-0.93-0.87-1.57-1.1a38.719,38.719,0,0,0-4.23-1.28c-0.53,0-.64.41-0.93,1.22a47.56,47.56,0,0,1-9.46,15.89,4.748,4.748,0,0,0-1.1,1.63c0,0.93,2.79,3.07,3.83,3.07,0.81,0,2.44-2.32,3.02-3.07a0.5,0.5,0,0,1,.4-0.18A0.515,0.515,0,0,1,2503.02,1409.81Zm85.84,21.11c0-.64,0-2.43-0.93-2.43a3.9,3.9,0,0,0-.81.17c-2.44.7-14.85,3.07-17.52,3.36-0.58.06-1.16,0-1.16,0.58a24.313,24.313,0,0,0,1.05,3.72c0.52,1.51.75,2.09,1.33,2.09a0.971,0.971,0,0,0,.7-0.64c0.17-.52.23-0.76,1.33-0.93,3.08-.52,12.07-2.73,15.03-3.71C2588.63,1432.89,2588.86,1432.55,2588.86,1430.92Zm-10.9-14.15a1.607,1.607,0,0,1,1.62-1.62h0.99a1.619,1.619,0,0,1,1.62,1.62v2.96a1.66,1.66,0,0,1-1.62,1.62h-0.99a1.646,1.646,0,0,1-1.62-1.62v-2.96Zm8.99-.87c0-.99.05-1.97,0.05-2.96,0-1.68-.63-2.49-2.37-2.49-0.87,0-1.8.11-2.85,0.11h-3.48c-0.98,0-1.91-.11-2.84-0.11-1.74,0-2.32.87-2.32,2.49,0,0.99.06,1.97,0.06,2.96v7.54c0,1.04-.06,2.15-0.06,3.19,0,1.28.81,1.28,2.21,1.28,1.91,0,2.55.05,2.61-.87,0.05-1.05.4-1.16,1.39-1.16h2.43c1.05,0,1.92.11,2.85,0.11,1.68,0,2.37-.75,2.37-2.43,0-.99-0.05-1.92-0.05-2.85v-4.81Zm18.09-17.29c0-.58-1.56-3.19-1.97-3.88-0.4-.76-1.68-3.14-2.49-3.14-0.7,0-3.42,1.16-3.42,1.98a1.143,1.143,0,0,0,.34.75c0.53,0.7,2.03,3.37,2.44,4.18,0.75,1.51.93,2.09,1.57,2.09C2602.26,1400.59,2605.04,1399.6,2605.04,1398.61Zm-10.49,1.45c-0.06-1.68-.06-3.3-0.06-4.99,0-.69-0.06-1.56.64-1.85a1.07,1.07,0,0,0,.87-0.81c0-.76-0.87-0.7-2.79-0.87-0.58-.06-3.01-0.29-3.48-0.29a0.919,0.919,0,0,0-1.1,1.04c0,0.17.12,1.51,0.12,3.13v4.64a1.305,1.305,0,0,1-1.57,1.51h-6.32c-2.15,0-4.35-.17-6.5-0.17-1.51,0-1.51.69-1.51,2.84,0,2.09,0,2.84,1.45,2.84,2.21,0,4.35-.17,6.56-0.17h6.43a1.422,1.422,0,0,1,1.69,1.56,97.435,97.435,0,0,0,2.61,19.73,2.509,2.509,0,0,1,.17.92,2.464,2.464,0,0,1-.69,1.63,42.73,42.73,0,0,1-8.07,7.48c-0.46.35-1.68,1.16-1.68,1.8,0,0.93,2.55,3.31,3.42,3.31,1.45,0,7.14-5.86,8.3-7.14a0.93,0.93,0,0,1,.75-0.35,1.03,1.03,0,0,1,.87.58c1.28,2.67,3.25,6.38,6.56,6.38,3.07,0,4.23-2.61,5.1-5.16a23.537,23.537,0,0,0,1.05-5.97c0-2.03-2.62-2.56-3.6-2.56-0.87,0-.99.41-0.99,0.87-0.06.93-.29,5.69-1.45,5.69-1.1,0-2.49-3.83-2.84-4.76a3.565,3.565,0,0,1-.23-1.04,3.154,3.154,0,0,1,.52-1.57,67.655,67.655,0,0,0,5.63-12.12c0.29-.81.52-1.63,1.21-1.86a0.966,0.966,0,0,0,.93-0.69c0-.53-0.46-0.64-2.43-1.63a2.3,2.3,0,0,0-.35-0.17,13.8,13.8,0,0,0-2.73-1.05c-0.64,0-.69.7-0.87,1.45a53.118,53.118,0,0,1-3.3,9.17,0.525,0.525,0,0,1-.47.35,0.612,0.612,0,0,1-.52-0.52,102.012,102.012,0,0,1-1.16-12.77,1.359,1.359,0,0,1,1.57-1.56h2.32c2.14,0,4.29.17,6.49,0.17,1.51,0,1.51-.69,1.51-2.84,0-2.03.06-2.84-1.45-2.84-2.2,0-4.35.17-6.55,0.17h-2.44A1.356,1.356,0,0,1,2594.55,1400.06Zm-26.4,9.81c0.7,0,1.4.11,2.09,0.11,1.28,0,1.22-.75,1.22-2.78s0.06-2.79-1.22-2.79c-0.69,0-1.39.06-2.09,0.06a1.356,1.356,0,0,1-1.56-1.56v-6.44c0-2.32.05-2.56,0.69-2.96,0.52-.29.93-0.41,0.93-0.81,0-.64-0.81-0.7-1.28-0.76-0.81-.11-4.52-0.35-5.27-0.35-0.53,0-.99.06-0.99,0.7,0,0.17.06,0.35,0.06,0.52a34.224,34.224,0,0,1,.17,3.48v6.62a1.375,1.375,0,0,1-1.56,1.62c-0.76-.06-2.09-0.12-2.79-0.12-1.27,0-1.22.82-1.22,2.79,0,2.03-.05,2.78,1.22,2.78,0.99,0,1.92-.11,2.84-0.11a1.336,1.336,0,0,1,1.51,1.56v13.05a1.7,1.7,0,0,1-1.51,1.98c-1.39.29-2.37,0.46-3.13,0.58-1.39.23-1.74,0.29-1.74,0.81a8.022,8.022,0,0,0,.41,1.62c0.17,0.52.35,1.05,0.46,1.45,0.58,1.92.87,2.84,1.45,2.84a0.732,0.732,0,0,0,.64-0.58c0.41-.75.52-0.92,4.18-1.91,2.2-.58,6.84-2.09,8.93-2.9,0.93-.35,1.04-0.99,1.04-1.91,0-.7,0-2.96-0.98-2.96-0.23,0-2.15.58-2.56,0.69-0.17,0-.29.06-0.46,0.06a1.073,1.073,0,0,1-1.04-1.27v-11.55A1.352,1.352,0,0,1,2568.15,1409.87Zm62.88-18.74c-0.58,0-.7.58-0.82,1.22a31.321,31.321,0,0,1-3.13,7.48c-0.52.7-2.09,0.76-3.59,0.76h-1.69c-1.68,0-3.19-.12-4.17-0.12-1.45,0-1.69.35-1.69,2.67,0,2.96.24,3.25,1.51,3.25,1.8,0,3.13-.18,4.06-0.18,0.82,0,1.28.18,1.28,0.7,0,1.1-8.41,12.76-9.75,14.21a2.417,2.417,0,0,0-.75,1.28c0,1.04,3.89,3.36,4.93,3.36a0.951,0.951,0,0,0,.81-0.58,38,38,0,0,1,4.88-6.79c2.26-2.32,7.59-5.1,10.84-5.1a2.4,2.4,0,0,1,2.55,1.97,7.755,7.755,0,0,1,.29,1.63,1.483,1.483,0,0,1-1.04,1.33c-1.22.58-2.44,1.22-3.6,1.91-4,2.38-8.23,5.22-8.23,10.44,0,3.95,2.26,6.73,5.8,8.3a21.538,21.538,0,0,0,9.16,1.51c2.5,0,8.94-.23,11.14-0.76,1.28-.29,1.33-0.75,1.33-2.49,0-3.31-.4-3.95-1.16-3.95a7,7,0,0,0-1.16.12,42.31,42.31,0,0,1-10.79,1.45c-2.78,0-8.41-.35-8.41-4.23,0-3.6,5.98-6.15,6.27-6.15a0.8,0.8,0,0,1,.75.98c0,1.22-.11,2.5-0.11,3.77,0,1.51,1.04,1.63,3.53,1.63,2.21,0,2.5-.23,2.5-2.32,0-1.8-.06-3.54-0.06-5.34v-0.75c0-1.16.47-1.51,1.51-1.92,2.26-.98,4.52-1.97,6.84-2.84,0.29-.11.58-0.17,0.82-0.29,1.1-.35,1.74-0.58,1.74-1.27,0-.99-1.4-5.46-2.5-5.46a4.971,4.971,0,0,0-1.51.58c-0.92.52-6.09,3.31-6.78,3.31a0.961,0.961,0,0,1-.87-0.99c-0.76-3.65-2.9-5.22-6.62-5.22a16.056,16.056,0,0,0-6.32,1.51,2.26,2.26,0,0,1-1.04.35,0.46,0.46,0,0,1-.47-0.41,18.718,18.718,0,0,1,1.98-3.36,2.044,2.044,0,0,1,1.74-.93c3.65-.41,7.3-1.04,10.96-1.8,1.22-.23,3.07-0.46,3.07-1.45a18.889,18.889,0,0,0-.46-3.13c-0.17-.81-0.46-1.74-1.45-1.74a4.27,4.27,0,0,0-1.45.35,42.669,42.669,0,0,1-6.73,1.62,0.562,0.562,0,0,1-.64-0.58,3.936,3.936,0,0,1,.58-1.33c0.76-1.34.99-1.63,1.92-1.98a0.917,0.917,0,0,0,.69-0.69C2637.52,1393.8,2631.55,1391.13,2631.03,1391.13Zm62.06,8.41c-0.99,4.53-3.25,7.37-6.91,10.15a1.552,1.552,0,0,0-.87,1.1c0,1.22,2.56,3.37,3.48,3.37a3.339,3.339,0,0,0,1.63-.93,21.365,21.365,0,0,0,8-13.69,1.552,1.552,0,0,1,1.8-1.51h2.61c1.22,0,1.74.12,1.74,1.34a45.026,45.026,0,0,1-.69,6.78c-0.35,1.74-1.05,2.03-2.73,2.03-0.41,0-1.45-.11-1.86-0.11-0.23,0-.58-0.06-0.87-0.06-0.69,0-.75,1.04-0.75,1.8,0,3.77,1.22,3.65,3.25,3.65,2.84,0,6.2-.17,7.42-3.19s1.86-10.73,1.86-14.15c0-2.32-.76-3.02-3.13-3.02-1.63,0-3.25.12-4.82,0.12h-9.86c-1.57,0-3.13-.12-4.7-0.12-1.39,0-1.33.47-1.33,2.44,0,2.09-.06,2.61,1.27,2.61,1.4,0,2.73-.17,4.12-0.12a1.171,1.171,0,0,1,1.4,1.16C2693.15,1399.31,2693.09,1399.48,2693.09,1399.54Zm-22.86,17.11a33.663,33.663,0,0,1,.23,5.4v7.71a0.65,0.65,0,0,1-.63.7,0.543,0.543,0,0,1-.47-0.23,11.2,11.2,0,0,1-1.39-1.8,3.1,3.1,0,0,1-.58-1.92c0-.17.06-0.34,0.06-0.52,0.11-1.22.11-2.09,0.17-2.72,0.06-1.69.12-1.98,0.93-2.32a0.881,0.881,0,0,0,.64-0.7c0-.58-0.81-0.75-1.28-0.81-0.81-.12-3.48-0.58-4.12-0.58a0.788,0.788,0,0,0-.87.98v0.99a64.476,64.476,0,0,1-3.13,18.21,4.684,4.684,0,0,0-.29,1.11c0,1.27,2.79,2.03,3.77,2.03,0.93,0,1.45-.53,2.79-7.2a0.668,0.668,0,0,1,.58-0.58,0.794,0.794,0,0,1,.58.35c5.22,6.61,13.34,7.25,21.17,7.25,3.71,0,7.42.06,11.14,0.06,2.78,0,5.56-.06,8.35-0.12a7.178,7.178,0,0,0,3.19-.52c0.99-.75,1.1-2.32,1.1-3.42,0-1.04-.11-1.97-1.33-1.97-0.99,0-1.98.11-2.96,0.17-3.71.12-7.37,0.23-11.08,0.23-4.12,0-12.18,0-15.95-.58a24.077,24.077,0,0,1-3.6-.81,1.762,1.762,0,0,1-1.45-2.03v-4.23a1.387,1.387,0,0,1,1.63-1.63h1.33c1.57,0,3.02.12,3.71,0.12,1.28,0,1.22-.81,1.22-2.67,0-1.97.06-2.73-1.22-2.73-0.93,0-2.26.12-3.71,0.12h-1.33a1.352,1.352,0,0,1-1.63-1.45c-0.06-1.97-.06-2.78.76-3.31a1.145,1.145,0,0,0,.81-0.87c0-.75-1.16-0.75-1.74-0.81a0.259,0.259,0,0,1-.12-0.11,0.129,0.129,0,0,1,.12-0.12h1.56c1.98,0,3.95.17,5.92,0.17,1.28,0,1.22-.69,1.22-2.78,0-1.97.06-2.67-1.22-2.67-1.86,0-3.71.17-5.57,0.12a1.381,1.381,0,0,1-1.62-1.63v-3.42a1.355,1.355,0,0,1,1.56-1.62c1.4-.06,2.79.11,4.12,0.11s1.28-.69,1.28-2.61c0-2.03.06-2.72-1.28-2.72s-2.72.11-4.12,0.17c-1.1-.12-1.56-0.46-1.56-1.62v-1.4c0-1.33.06-2.09,0.75-2.49a1.281,1.281,0,0,0,.81-0.87c0-.7-0.98-0.76-1.5-0.81a43.707,43.707,0,0,0-4.76-.41c-0.58,0-1.1.12-1.1,0.81,0,0.18.05,0.41,0.05,0.58a30.288,30.288,0,0,1,.24,4.59,1.4,1.4,0,0,1-1.63,1.62c-1.51.06-3.07-.17-4.64-0.17-1.22,0-1.22.63-1.22,2.72,0,2.03,0,2.61,1.22,2.61,1.57,0,3.13-.17,4.64-0.11a1.381,1.381,0,0,1,1.63,1.62v3.42a1.387,1.387,0,0,1-1.63,1.63h-0.81c-1.97,0-3.94-.12-5.92-0.12-1.27,0-1.21.7-1.21,2.67,0,2.03-.12,2.78,1.21,2.78,1.98,0,3.95-.17,5.92-0.17h0.87A1.265,1.265,0,0,1,2670.23,1416.65Zm24.08,9.98a1.543,1.543,0,0,1-1.63-1.57v-3.13a1.662,1.662,0,0,1,1.63-1.62h8.06a1.653,1.653,0,0,1,1.62,1.62v3.13a1.535,1.535,0,0,1-1.62,1.57h-8.06Zm9.57,5.51c0.05,1.28.46,1.28,2.9,1.28,2.14,0,2.84.05,2.84-1.28,0-1.45-.06-2.84-0.06-4.29v-6.73c0-1.16.06-2.32,0.06-3.48,0-1.97-1.34-2.32-3.02-2.32-1.33,0-2.67.06-3.94,0.06h-8.64c-1.34,0-2.67-.06-4.01-0.06-1.62,0-2.96.41-2.96,2.32,0,1.16.12,2.32,0.12,3.48v6.73c0,1.45-.12,2.84-0.12,4.29,0,1.33.7,1.28,2.85,1.28,2.32,0,2.78,0,2.9-1.11a0.819,0.819,0,0,1,.87-0.87h9.51A0.624,0.624,0,0,1,2703.88,1432.14Zm44.31-7.71c0-4.82-3.48-5.8-5.05-5.8-0.41,0-.75.05-1.16,0.05a0.58,0.58,0,0,1-.58-0.58,2.152,2.152,0,0,1,.75-1.16,74.446,74.446,0,0,1,8.07-7.83,2.232,2.232,0,0,0,1.27-1.45c0-.87-2.66-4.93-4.06-4.93a4.955,4.955,0,0,0-1.62.41,122.638,122.638,0,0,1-20.94,4.17c-0.64.06-1.22,0.18-1.22,0.93a8.811,8.811,0,0,0,1.33,3.25,3.869,3.869,0,0,1,.41.7c0.52,0.87.75,1.33,1.57,1.33,0.98,0,7.77-1.8,9.1-2.15,0.64-.17,3.08-0.92,3.54-0.92a0.469,0.469,0,0,1,.52.46c0,0.58-1.56,2.15-2.08,2.73-6.21,6.9-12.19,14.03-18.8,20.59-0.46.46-1.39,1.28-1.39,1.97,0,1.34,3.42,4.24,4.64,4.24,0.58,0,1.28-1.11,1.62-1.51,2.56-3.31,8.13-10.68,11.03-13.17,1.33-1.1,3.36-2.44,5.16-2.44,1.39,0,1.91.76,1.91,2.09a25.181,25.181,0,0,1-.35,3.66,30,30,0,0,0-.52,4.58c0,4.06,3.19,6.67,7.14,6.67a28.825,28.825,0,0,0,10.73-2.96c1.04-.58.98-2.43,0.98-3.48,0-.64.06-3.65-0.75-3.65a4.584,4.584,0,0,0-1.62.75c-2.32,1.45-5.8,3.48-8.59,3.48a1.667,1.667,0,0,1-1.91-1.91c0-.87.29-2.85,0.4-3.77A26.907,26.907,0,0,0,2748.19,1424.43Zm-16.01-31.85c-0.64,0-.87.23-1.45,1.8a15.387,15.387,0,0,0-.87,2.96c0,0.93,1.27,1.16,3.3,1.8,0.41,0.11,1.4.46,2.5,0.87,2.49,0.87,5.74,2.03,6.15,2.03,1.33,0,2.14-4.64,2.14-4.93a1.192,1.192,0,0,0-1.1-1.11C2741.57,1395.6,2732.64,1392.58,2732.18,1392.58Zm36.83,10.33c0,0.58.52,6.09,1.91,6.09a4.337,4.337,0,0,0,.87-0.12,114.588,114.588,0,0,1,12.82-2.38c0.64-.11,3.25-0.52,3.71-0.52a0.819,0.819,0,0,1,.87.7,3.869,3.869,0,0,1-1.04,1.39,25.731,25.731,0,0,0-6.38,16.65c0,11.31,8.47,14.44,18.33,14.44a1.806,1.806,0,0,0,1.68-.58,13.85,13.85,0,0,0,1.04-5.16c0-.93-0.46-0.99-1.33-0.99-0.58,0-1.86.06-2.9,0.06-5.86,0-10.21-1.63-10.21-8.35a21.723,21.723,0,0,1,2.78-10.21,17.617,17.617,0,0,1,9.92-8.65c3.25-1.16,6.21-1.16,9.63-1.21,1.34-.06,2.55.05,2.55-1.22a35.906,35.906,0,0,0-.46-4.24c-0.17-.69-0.29-1.45-1.16-1.45a2.8,2.8,0,0,0-.7.06c-4.35.7-8.81,1.28-13.16,1.8-8.47.99-16.94,1.86-25.41,2.38C2769.82,1401.57,2769.01,1401.4,2769.01,1402.91Zm71.11,12.06a1.292,1.292,0,0,1,1.33,1.39v0.12a1.292,1.292,0,0,1-1.33,1.39h-6.96a1.315,1.315,0,0,1-1.4-1.39v-0.12a1.315,1.315,0,0,1,1.4-1.39h6.96Zm0.23-6.67a1.01,1.01,0,0,1,1.1,1.1v0.64a1,1,0,0,1-1.1,1.1h-7.48a1.008,1.008,0,0,1-1.11-1.1v-0.64a1.013,1.013,0,0,1,1.11-1.1h7.48Zm-0.23-6.73a1.292,1.292,0,0,1,1.33,1.39v0.18a1.292,1.292,0,0,1-1.33,1.39h-6.96a1.315,1.315,0,0,1-1.4-1.39v-0.18a1.315,1.315,0,0,1,1.4-1.39h6.96Zm7.13,1.39a1.17,1.17,0,0,1,1.33-1.39h8.07c2.2,0,4.35.12,6.55,0.12,1.34,0,1.39-.41,1.39-2.03,0-1.68-.05-2.09-1.39-2.09-2.2,0-4.35.12-6.55,0.12h-6.96a0.83,0.83,0,0,1-.93-0.82,0.91,0.91,0,0,1,.11-0.52c0.29-.46.99-1.86,1.22-2.2a1.356,1.356,0,0,1,1.11-.53,0.636,0.636,0,0,0,.69-0.63c0-.58-0.99-0.87-1.45-0.99a36.815,36.815,0,0,0-4.87-1.39,0.757,0.757,0,0,0-.7.58,53.684,53.684,0,0,1-2.2,5.22,2.189,2.189,0,0,1-2.32,1.28h-5.74a0.818,0.818,0,0,1-.93-0.76,1.04,1.04,0,0,1,.17-0.58c0.41-.64.7-1.16,0.93-1.57,0.64-1.1.75-1.33,1.62-1.56a0.812,0.812,0,0,0,.76-0.7c0-.52-0.58-0.69-1.8-1.04a29.632,29.632,0,0,0-4.24-1.05,1,1,0,0,0-.81.76,51.021,51.021,0,0,1-10.55,14.44,2.372,2.372,0,0,0-.93,1.22c0,0.93,2.26,3.48,3.13,3.48,0.81,0,2.49-1.91,3.07-2.55a0.856,0.856,0,0,1,.53-0.23,0.568,0.568,0,0,1,.52.69v7.31c0,1.34-.06,2.67-0.06,4,0,2.09,1.22,2.32,3.02,2.32,1.5,0,3.01-.05,4.46-0.05h6.21c0.99,0,1.22.46,1.39,1.39,0,0.23.06,0.4,0.06,0.64a1.278,1.278,0,0,1-1.51,1.5h-12.7c-2.26,0-4.58-.11-6.9-0.11-1.34,0-1.34.52-1.34,2.43s0,2.44,1.34,2.44c2.32,0,4.64-.12,6.9-0.12h7.31a0.571,0.571,0,0,1,.58.47,0.513,0.513,0,0,1-.29.46,59.972,59.972,0,0,1-14.16,6.44,1.65,1.65,0,0,1-.46.12c-0.81.29-1.33,0.4-1.33,1.1,0,0.93,1.74,3.77,3.01,3.77a11.752,11.752,0,0,0,3.31-.93,56.772,56.772,0,0,0,15.14-8.64,0.953,0.953,0,0,1,.58-0.18,0.74,0.74,0,0,1,.64.82v2.78c0,1.68-.12,3.37-0.12,4.99,0,1.91.87,1.86,3.13,1.86,2.21,0,3.02,0,3.02-1.86,0-1.68-.18-3.31-0.18-4.99v-2.9a0.731,0.731,0,0,1,.64-0.81,0.829,0.829,0,0,1,.52.23,57.532,57.532,0,0,0,9.81,6.5c1.45,0.81,6.78,3.42,8.12,3.42,1.51,0,3.36-3.02,3.36-3.94a0.931,0.931,0,0,0-.87-0.82,59.566,59.566,0,0,1-15.08-6.96,0.474,0.474,0,0,1-.29-0.46,0.571,0.571,0,0,1,.58-0.47h7.66c2.32,0,4.64.12,6.9,0.12,1.39,0,1.39-.52,1.39-2.44,0-1.85,0-2.43-1.39-2.43-2.26,0-4.58.11-6.9,0.11h-13.17a0.909,0.909,0,0,1-1.1-.81,1.187,1.187,0,0,1,.58-0.98,1.233,1.233,0,0,0,.81-0.82c0-.46-0.41-0.69-1.51-0.75a0.12,0.12,0,0,1-.11-0.12c0-.05.05-0.05,0.11-0.05h12.3c2.26,0,4.47.05,6.67,0.05,1.28,0,1.33-.4,1.33-2.03,0-1.68-.05-2.08-1.39-2.08-2.2,0-4.41.11-6.61,0.11h-10.91a1.167,1.167,0,0,1-1.33-1.39v-0.12a1.17,1.17,0,0,1,1.33-1.39h5.57c2.15,0,4.24.12,6.38,0.12,1.4,0,1.4-.47,1.4-2.03,0-1.63-.06-2.03-1.4-2.03-2.14,0-4.23.11-6.38,0.11h-5.86a0.9,0.9,0,0,1-1.04-1.1v-0.64a0.919,0.919,0,0,1,1.1-1.1h5.86c2.09,0,4.18.12,6.32,0.12,1.34,0,1.4-.35,1.4-2.03,0-1.63-.06-1.98-1.4-1.98-2.14,0-4.23.12-6.32,0.12h-5.63a1.17,1.17,0,0,1-1.33-1.39v-0.18Zm46.11,26.86c1.33,0,2.73,0,2.73,1.1,0,3.13-2.27,3.89-4.93,3.89-1.51,0-4.12-.35-4.12-2.32C2887.04,1429.99,2891.56,1429.82,2893.36,1429.82Zm1.97-36.37c-0.52,0-.87.12-0.87,0.7a4.834,4.834,0,0,0,.12.92c0.17,0.99.52,4.88,0.52,5.81,0,1.56-1.45,1.45-6.55,1.45-2.85,0-7.72-.47-8.94-0.47-0.98,0-1.04.81-1.04,1.63,0,1.04.06,3.36,0.64,4.23,0.34,0.46,1.79.52,3.36,0.52h1.74c3.13,0,7.77-.29,9.8-0.29,1.51,0,1.57,2.38,1.57,4.06,0,1.28-.81,1.45-2.96,1.45h-2.61c-2.2,0-5.45-.29-6.15-0.29-0.81,0-.98.52-0.98,1.22a12.072,12.072,0,0,0,.75,4.06c0.46,1.05,1.57.99,3.95,0.99,2.49,0,5.74-.23,6.96-0.23,1.45,0,1.33,2.14,1.33,4,0,0.58,0,1.62-.99,1.62-0.34,0-1.68-.11-2.37-0.11-4.82,0-11.14,1.85-11.14,7.71,0,5.4,5.05,7.54,9.69,7.54,4.69,0,9.28-1.45,10.49-6.44a1.3,1.3,0,0,1,1.16-1.27c1.17,0,4.99,2.72,6.04,3.54a3.191,3.191,0,0,0,1.8.92c1.39,0,3.3-2.96,3.3-4.23,0-2.09-7.65-5.34-9.57-5.98-2.49-.81-2.73-0.34-2.73-6.38,0-1.62,1.16-1.62,3.37-1.85a51.612,51.612,0,0,0,5.97-.99c1.05-.23,1.11-0.81,1.11-2.73,0-2.2-.18-3.48-0.99-3.48a3.625,3.625,0,0,0-1.1.24,49.665,49.665,0,0,1-7.43,1.39,1,1,0,0,1-.93-0.93,19.4,19.4,0,0,1-.29-3.07c0-1.63,1.4-1.57,2.62-1.74,3.07-.35,6.67-0.87,9.68-1.51,1.1-.23,1.63-0.35,1.63-1.51,0-.99-0.18-4.76-1.45-4.76a14.267,14.267,0,0,0-2.21.47,58.6,58.6,0,0,1-6.32,1.33c-0.41.06-2.67,0.41-2.9,0.41-1.05,0-1.22-.87-1.22-1.68,0.12-4.7,1.1-3.72,1.1-4.82,0-.64-0.81-0.75-2.32-0.93C2898.93,1393.86,2896.2,1393.45,2895.33,1393.45Zm54.81,39.39a1.737,1.737,0,0,1-1.56,1.97c-1.74,0-4.53-.99-4.53-3.08a2.406,2.406,0,0,1,2.5-2.32A3.544,3.544,0,0,1,2950.14,1432.84Zm5.4-37.59a7.694,7.694,0,0,0-2.21.64c-3.36,1.33-10.96,2.14-14.67,2.14h-1.39c-1.75,0-1.8.12-1.8,1.45,0,0.99.17,5.34,1.45,5.34,0.93,0,9.1-1.68,10.5-2.03a12.962,12.962,0,0,1,1.39-.23,0.822,0.822,0,0,1,.98.69c0,0.58-1.04,1.63-1.5,2.09a235.008,235.008,0,0,1-18.04,18.22c-0.53.4-1.4,1.04-1.4,1.74,0,0.92,2.96,4.17,4.18,4.17a0.8,0.8,0,0,0,.64-0.4c2.09-2.38,4.18-4.76,6.44-6.96,3.71-3.66,7.71-5.69,12.99-5.69,5.05,0,9.8,2.32,9.8,7.95,0,5.86-5.51,8.93-7.02,8.93a0.718,0.718,0,0,1-.69-0.75,5.8,5.8,0,0,0-1.05-3.72,9.445,9.445,0,0,0-7.71-4.11,7.271,7.271,0,0,0-7.42,7.01c0,5.92,6.84,7.89,11.65,7.89,9.34,0,18.45-5.33,18.45-15.6a11.985,11.985,0,0,0-6.9-11.25,16.954,16.954,0,0,0-7.14-1.74,10.727,10.727,0,0,0-2.38.23,3.237,3.237,0,0,1-.75.11,0.879,0.879,0,0,1-.99-0.75,1.775,1.775,0,0,1,.58-0.99,56.324,56.324,0,0,1,8.42-7.77c0.63-.46,1.27-0.81,1.27-1.22C2961.22,1399.66,2957.86,1395.25,2955.54,1395.25Zm48.14,20.77a48.206,48.206,0,0,0,15.08,22.27c0.98,0.87,5.28,4.23,6.38,4.23,1.39,0,3.83-2.9,3.83-4.4,0-.58-0.81-1.05-1.4-1.4a44.973,44.973,0,0,1-18.61-22.45,50.891,50.891,0,0,1-2.85-13.1c0-.41-0.06-0.87-0.06-1.28,0.06-1.86.12-3.71,0.12-5.51a1.116,1.116,0,0,1,.58-0.99,1.283,1.283,0,0,0,1.04-.98c0-.7-1.04-0.76-1.62-0.82-0.99-.17-4.12-0.52-4.99-0.52-1.16,0-1.39.7-1.39,1.74,0,1.74.12,3.43,0.12,5.11,0,16.59-7.2,29.99-21.41,38.63-0.69.41-1.45,0.75-1.45,1.39,0,1.39,2.44,4.35,3.89,4.35,0.93,0,2.26-.98,3.01-1.51,8.76-5.97,15.78-14.44,18.8-24.76A0.469,0.469,0,0,1,3003.68,1416.02Zm48.14-11.72a0.911,0.911,0,0,1,.92,1.04,59.156,59.156,0,0,1-1.85,11.31c-1.63,5.92-4.87,12.53-7.77,12.53-2.96,0-3.72-5.39-3.72-7.54a17.938,17.938,0,0,1,10.44-16.7A6.359,6.359,0,0,1,3051.82,1404.3Zm5.56-6.79c-13.68,0-24.07,10.79-24.07,24.36a18.141,18.141,0,0,0,1.8,8.24c1.57,2.96,4.35,5.51,7.89,5.51,3.19,0,5.74-2.15,7.66-4.47,5.56-6.67,7.59-16.99,8.23-25.46,0.06-.99.06-2.26,1.39-2.26a10.272,10.272,0,0,1,2.21.52c6.03,2.09,9.28,7.66,9.28,13.86,0,8.3-5.97,13.29-13.57,15.08-0.58.12-1.45,0.24-1.45,0.82,0,1.27,2.37,4.87,3.88,4.87,1.4,0,4.99-1.62,6.33-2.32a20.851,20.851,0,0,0,11.31-18.74,19.655,19.655,0,0,0-5.86-14.27C3068.29,1399.19,3063.07,1397.51,3057.38,1397.51Zm47.68,38.69c-1.39,0-2.73-.17-2.73-1.85v-5.81c0-2.14-.05-2.9,1.05-3.53a1.018,1.018,0,0,0,.58-0.7,0.745,0.745,0,0,0-.7-0.64c-0.52-.11-5.22-0.4-5.86-0.4a0.749,0.749,0,0,0-.92.75c0,0.64.17,2.84,0.17,4.52v5.69c0,0.87-.06,1.68-0.06,2.55,0,4.64,2.61,4.76,7.31,4.76h11.14c2.96,0,4.87,0,6.44-1.92a15.554,15.554,0,0,0,2.55-7.02c0-2.14-3.95-2.61-4.41-2.61-0.99,0-1.04.41-1.33,1.98-0.7,3.54-.87,4.23-3.77,4.23h-9.46Zm28.89,1.57c0-1.28-2.5-6.04-3.19-7.37-0.76-1.45-2.73-5.1-3.6-6.38a1.452,1.452,0,0,0-1.28-.75c-0.87,0-3.88,1.16-3.88,2.37a2.157,2.157,0,0,0,.58,1.28,77.62,77.62,0,0,1,5.91,11.6c0.35,0.93.47,1.51,1.22,1.51C3130.58,1440.03,3133.95,1438.87,3133.95,1437.77Zm-39.1-10.68c0-.63-1.04-0.87-1.68-1.04s-3.42-1.04-3.89-1.04a1.117,1.117,0,0,0-.98,1.1,41.414,41.414,0,0,1-4.59,10.32,3.635,3.635,0,0,0-.87,1.74c0,1.28,2.96,2.21,4.01,2.21a1.853,1.853,0,0,0,1.62-1.1,53.142,53.142,0,0,0,4.81-10.45,1.015,1.015,0,0,1,.82-0.98A0.87,0.87,0,0,0,3094.85,1427.09Zm19.2-14.15a1.339,1.339,0,0,1,1.39-1.39h8.47a1.339,1.339,0,0,1,1.39,1.39v0.52a1.339,1.339,0,0,1-1.39,1.39h-8.47a1.339,1.339,0,0,1-1.39-1.39v-0.52Zm0-7.19a1.3,1.3,0,0,1,1.39-1.34h8.47a1.3,1.3,0,0,1,1.39,1.34v0.29a1.339,1.339,0,0,1-1.39,1.39h-8.47a1.339,1.339,0,0,1-1.39-1.39v-0.29Zm11.25-6.85a1.342,1.342,0,0,1-1.39,1.4h-8.47a1.342,1.342,0,0,1-1.39-1.4v-0.29a1.339,1.339,0,0,1,1.39-1.39h8.47a1.339,1.339,0,0,1,1.39,1.39v0.29Zm-11.25,21.81c0.29-.69.52-1.27,1.39-1.27h8.99a0.677,0.677,0,0,1,.76.64c0.06,1.27.52,1.27,2.96,1.27,2.32,0,3.01.06,3.01-1.33,0-1.57-.11-3.13-0.11-4.7v-16.59c0-1.33.11-2.61,0.11-3.95,0-1.97-1.1-2.32-2.84-2.32-1.33,0-2.61.06-3.94,0.06h-9.46c-1.33,0-2.67-.06-4-0.06-1.68,0-2.73.41-2.73,2.32,0,1.34.06,2.62,0.06,3.95v16.59c0,1.33,0,2.73-.06,4.12a1.825,1.825,0,0,1-1.1,1.74c-0.52.29-2.15,1.16-2.15,1.85a2.935,2.935,0,0,0,.93,1.57,62.075,62.075,0,0,1,4.64,6.38,1.967,1.967,0,0,0,1.39,1.22c0.93,0,3.78-1.57,3.78-2.67,0-.93-4.01-6.09-4.82-7.02a0.776,0.776,0,0,1-.17-0.52,0.669,0.669,0,0,1,.75-0.64C3113.24,1421.35,3113.82,1421.29,3114.05,1420.71Zm-14.96-10.96c0.63,0.99,3.42,4.64,4.52,4.64,0.93,0,3.02-2.38,3.02-3.42,0-.58-0.41-0.87-1.05-1.39a35.524,35.524,0,0,1-5.68-5.75,0.708,0.708,0,0,1-.23-0.58,0.741,0.741,0,0,1,.87-0.63H3101c1.62,0,3.25.11,4.23,0.11,1.22,0,1.22-.64,1.22-2.55s0-2.55-1.22-2.55-2.72.11-4.23,0.11h-1.22a1.374,1.374,0,0,1-1.62-1.62c-0.06-2.79,0-3.25.69-3.66a1.176,1.176,0,0,0,.82-0.75c0-.58-0.76-0.58-1.16-0.64-0.99-.11-4.24-0.4-5.11-0.4a0.743,0.743,0,0,0-.93.69,1.435,1.435,0,0,0,.06.47,27.008,27.008,0,0,1,.17,4.29,1.374,1.374,0,0,1-1.62,1.62h-2.09c-1.56,0-3.13-.11-4.23-0.11-1.28,0-1.22.69-1.22,2.55s-0.06,2.55,1.22,2.55c0.93,0,2.55-.11,4.23-0.11h0.64a0.927,0.927,0,0,1,1.04.87,1.288,1.288,0,0,1-.11.46,44.723,44.723,0,0,1-7.19,10.09,2.383,2.383,0,0,0-.76,1.34c0,1.04,2.32,3.25,3.31,3.25a1.626,1.626,0,0,0,1.27-.76,41.677,41.677,0,0,0,4.76-6.79,0.4,0.4,0,0,1,.35-0.23,0.438,0.438,0,0,1,.4.47v2.72c0,2.09-.17,4.24-0.17,6.38,0,1.4.64,1.45,2.96,1.45,2.2,0,2.84-.05,2.84-1.45,0-2.14-.17-4.29-0.17-6.38v-3.94c0.06-.29.11-0.58,0.46-0.58A0.862,0.862,0,0,1,3099.09,1409.75Zm69.37-4.52a0.966,0.966,0,0,0,.52.87c5.51,4.23,7.89,9.74,8.58,16.53,0.12,1.39.06,2.2,1.92,2.2a12.188,12.188,0,0,0,3.24-.52c0.99-.29,1.57-0.58,1.57-1.68,0-3.48-1.8-8.99-3.42-12.07-2.79-5.33-7.66-8.99-8.93-8.99C3170.78,1401.57,3168.46,1404.12,3168.46,1405.23Zm-26.17-3.77a0.721,0.721,0,0,0-.81.63c-0.11.53-.29,7.89-0.29,8.82,0,6.15.47,13.46,3.37,18.91,1.91,3.54,5.28,7.43,9.57,7.43,2.72,0,4.52-1.74,6.2-3.66,0.82-.93,3.43-3.94,3.43-5.05,0-1.04-2.96-3.42-4.18-3.42-0.75,0-1.22.87-1.57,1.45-0.69,1.28-2.37,3.83-4,3.83-2.03,0-3.94-3.42-4.64-5.05-1.51-3.65-1.85-8.23-1.85-12.12a43.226,43.226,0,0,1,.46-6.15c0.17-.98.23-2.14,1.04-2.78a1.013,1.013,0,0,0,.58-0.76c0-.58-0.81-0.69-1.27-0.81C3147.34,1402.56,3143.05,1401.46,3142.29,1401.46Zm60.33-5.75a2.977,2.977,0,0,0,.17.7,38.136,38.136,0,0,1,1.1,3.83c0.58,2.38,2.21,8.52,2.9,10.61a1.943,1.943,0,0,1,.23,1.05,1.781,1.781,0,0,1-.98,1.5c-4.82,3.14-10.04,7.26-10.04,13.58a10.208,10.208,0,0,0,5.34,8.93c3.83,2.26,7.6,2.5,11.89,2.5,2.78,0,13.75-.35,15.95-0.93,1.16-.29,1.22-0.93,1.22-2.44v-0.69c0-1.22-.06-3.6-0.87-3.6a1.543,1.543,0,0,0-.52.06,87.591,87.591,0,0,1-15.14,1.5,23.231,23.231,0,0,1-7.72-1.04c-1.79-.64-3.82-2.09-3.82-4.18,0-2.2,1.33-3.77,2.84-5.22,2.43-2.32,7.36-5.16,10.44-6.84a105.523,105.523,0,0,1,14.33-6.67,1.259,1.259,0,0,0,1.1-.93c0-.81-1.22-2.78-1.68-3.54-0.35-.58-1.34-2.32-2.09-2.32a3.736,3.736,0,0,0-1.51.58c-1.51.99-10.79,6.44-11.83,6.44-0.99,0-1.16-.99-1.34-1.74a79.905,79.905,0,0,1-1.8-10.38c-0.11-1.34,0-2.21-1.62-2.21a22.539,22.539,0,0,0-2.78.29C3204.53,1394.84,3202.62,1394.84,3202.62,1395.71Z" transform="translate(-2495.38 -1390.44)"/>
</svg>
