<svg xmlns="http://www.w3.org/2000/svg" width="358.752" height="29.97" viewBox="0 0 358.752 29.97">
  <defs>
    <style>
      .cls-1 {
        fill-rule: evenodd;
      }
    </style>
  </defs>
  <path id="_これから_OOKINAWAの" data-name=" これから、OOKINAWAの" class="cls-1" d="M997.948,1237.84a8.4,8.4,0,0,0,1.4,3.49c2.337,3.28,6.377,3.75,10.127,3.75,2.16,0,8.9-.43,10.81-1.01a1.173,1.173,0,0,0,.86-1.33c0-2.35-.25-2.96-0.79-2.96a2.465,2.465,0,0,0-.54.11,45.122,45.122,0,0,1-10.74,1.26c-3.39,0-6.45-.54-7.21-4.36a0.647,0.647,0,0,0-.64-0.68C1001.19,1236.11,997.948,1236.94,997.948,1237.84Zm3.6-12.43a0.741,0.741,0,0,0,.51.75c1.76,0.72,6.23.9,8.21,0.9a48.793,48.793,0,0,0,6.52-.43c0.83-.14,1.01-0.22,1.01-1.08,0-1.48-.04-3.1-0.94-3.1a2.211,2.211,0,0,0-.47.07,30.5,30.5,0,0,1-6.52.72,23.169,23.169,0,0,1-6.12-.75,5.612,5.612,0,0,0-1.05-.22c-0.68,0-.75.65-0.86,1.26A12.307,12.307,0,0,0,1001.55,1225.41Zm34.95-7.43c-0.4,0-.58.11-0.58,0.51,0,0.25.04,0.68,0.04,1.12,0,1.58-.15,3.74-0.15,4.72a2.283,2.283,0,0,1-.18,1.08c-0.43.86-5.01,1.65-6.09,1.8-0.43.07-1.19,0.07-1.19,0.65a10.622,10.622,0,0,0,.76,2.45,1.265,1.265,0,0,0,1.04,1,24.879,24.879,0,0,0,4.36-1.47,2.259,2.259,0,0,1,.65-0.18,0.471,0.471,0,0,1,.47.54c0,0.29-.07.61-0.07,0.93a3.46,3.46,0,0,1-.43,1.7c-1.66,2.99-3.35,5.94-5.3,8.79a3.788,3.788,0,0,0-.72,1.3c0,0.61,2.09,2.37,2.7,2.37a0.613,0.613,0,0,0,.47-0.43c0.36-.68,1.48-2.63,1.87-3.28a2.41,2.41,0,0,1,.87-1.08,0.408,0.408,0,0,1,.32.47c0,1.62-.21,5.62-0.21,5.95,0,0.72.65,0.72,1.51,0.72,2.67,0,2.63-.36,2.63-0.62,0-.39-0.11-2.34-0.18-3.82-0.04-.61-0.11-1.69-0.11-1.9,0-.83-0.14-5.23,0-5.7a12.038,12.038,0,0,1,2.02-2.3,36.373,36.373,0,0,1,3.93-3.5,5.427,5.427,0,0,1,2.81-1.44c1.08,0,1.08,1.26,1.08,2.05,0,3.25-.47,6.53-0.47,9.77,0,2.27.29,5.76,3.31,5.76a9.255,9.255,0,0,0,5.08-2.09c0.4-.28,1.73-1.22,1.73-1.73,0-.57-1.04-3.27-1.65-3.27a1.033,1.033,0,0,0-.69.39c-0.65.72-2.2,2.27-3.17,2.27-0.83,0-.79-1.26-0.79-2.12,0-1.52.11-3.14,0.18-4.69,0.11-1.84.18-3.71,0.18-5.58a6.613,6.613,0,0,0-.65-3.43,3.888,3.888,0,0,0-3.1-1.58c-1.98,0-3.78,1.3-5.22,2.56a41.093,41.093,0,0,0-3.06,2.81,0.53,0.53,0,0,1-.29.18,0.3,0.3,0,0,1-.29-0.36,2.56,2.56,0,0,1,.07-0.58c0.11-.25.79-1.51,0.97-1.76a0.837,0.837,0,0,0,.22-0.4,2.6,2.6,0,0,0-1.23-1.66,0.619,0.619,0,0,1-.57-0.61c0-.51.25-2.27,0.32-2.88,0.22-1.48.18-1.59,0.65-1.98a0.81,0.81,0,0,0,.29-0.55,0.5,0.5,0,0,0-.4-0.39C1039.88,1218.38,1036.89,1217.98,1036.5,1217.98Zm47.88,4.58c-0.65,0-2.74,1.26-2.74,1.91a0.935,0.935,0,0,0,.32.61,24.906,24.906,0,0,1,4.83,7.71,1.085,1.085,0,0,0,.83.83c0.72,0,2.99-1.33,2.99-2.12C1090.61,1230.59,1085.71,1222.56,1084.38,1222.56Zm-13.08-3.57c-0.4,0-.4.44-0.4,0.72,0,0.44.04,0.83,0.04,1.23a34.167,34.167,0,0,1-.36,4.65,1.168,1.168,0,0,1-1.19,1.08,58.218,58.218,0,0,1-5.98,1.11c-0.47.04-1.08,0.04-1.08,0.58,0,0.18.61,3.71,1.51,3.71a3.083,3.083,0,0,0,.76-0.21,28.467,28.467,0,0,1,4.1-1.27,0.436,0.436,0,0,1,.47.47,19.4,19.4,0,0,1-.9,2.7,29.681,29.681,0,0,1-6.41,10.06,1.311,1.311,0,0,0-.51.83c0,0.82,2.31,2.19,2.92,2.19a1,1,0,0,0,.65-0.36,41.081,41.081,0,0,0,3.6-5.18,42.828,42.828,0,0,0,4.58-10.71c0.25-1,.61-1.29,2.66-1.29,2.17,0,2.27,1.47,2.27,3.28a21.8,21.8,0,0,1-1.58,8.14c-0.9,1.76-1.8,2.2-3.75,2.2-0.72,0-1.33-.11-1.69-0.11a0.485,0.485,0,0,0-.47.61,7.735,7.735,0,0,0,.61,2.56,1.524,1.524,0,0,0,1.66.86,7.36,7.36,0,0,0,6.81-3.89c1.59-2.88,2.16-7.74,2.16-11.06,0-1.98-.39-4.07-2.2-5.22a7.028,7.028,0,0,0-4.1-.83c-0.15,0-.29.03-0.44,0.03a0.724,0.724,0,0,1-.79-0.75,1.865,1.865,0,0,1,.07-0.4c0.11-.61.18-1.12,0.26-1.55,0.21-1.26.28-1.84,0.97-2.34a0.554,0.554,0,0,0,.29-0.43,0.97,0.97,0,0,0-.9-0.58C1074.4,1219.68,1071.66,1218.99,1071.3,1218.99Zm25.65,5.8c-0.58,0-.62.54-0.62,1.59,0,0.25-.03.5-0.03,0.79a57.793,57.793,0,0,1-.87,7.86c-0.21,1.19-.5,2.37-0.82,3.53a5.465,5.465,0,0,0-.37,1.26c0,1.04,2.42,1.4,2.74,1.4a1.43,1.43,0,0,0,1.08-.75c2.27-2.85,6.09-6.02,9.88-6.02,2.3,0,4.32,1.33,4.32,3.82,0,3.06-2.67,4.18-5.22,4.83a24.53,24.53,0,0,1-4.8.72c-0.47.03-.9,0.07-0.9,0.65a7.305,7.305,0,0,0,.62,2.34,1.28,1.28,0,0,0,1.33,1.01,23.5,23.5,0,0,0,4.68-.98c4.36-1.29,8.18-3.46,8.18-8.57,0-4.54-3.42-7.5-7.85-7.5-3.43,0-5.59,1.45-8.25,3.32a0.819,0.819,0,0,1-.47.22,0.38,0.38,0,0,1-.36-0.44,6.423,6.423,0,0,1,.1-0.75c0.37-1.66.58-3.35,0.87-5.01a1.634,1.634,0,0,1,.76-1.41,0.467,0.467,0,0,0,.32-0.39,0.82,0.82,0,0,0-.65-0.51A26.282,26.282,0,0,0,1096.95,1224.79Zm2.3-4.14a1.2,1.2,0,0,0,.83.79,29.42,29.42,0,0,1,4.54,3.07,2.7,2.7,0,0,0,1.15.72c0.76,0,2.24-2.2,2.24-2.85,0-.61-2.09-1.77-2.63-2.09-0.65-.4-3.57-2.27-4.11-2.27C1100.41,1218.02,1099.25,1220.18,1099.25,1220.65Zm22.34,21.15a1,1,0,0,0,.65.68,22.219,22.219,0,0,1,5.47,4.9,1.186,1.186,0,0,0,.72.54c0.83,0,2.63-1.98,2.63-2.77,0-.9-6.19-5.87-7.02-5.87A4.935,4.935,0,0,0,1121.59,1241.8Zm36.35-11.53a18.694,18.694,0,0,0-.27-2.7,9.588,9.588,0,0,0-.76-2.36,7.732,7.732,0,0,0-1.49-2.07,10.222,10.222,0,0,0-10.81-2.09,9.641,9.641,0,0,0-3.06,2.09,7.561,7.561,0,0,0-1.5,2.07,9.153,9.153,0,0,0-.74,2.36,18.78,18.78,0,0,0-.25,2.7c-0.02.96-.04,2-0.04,3.1s0.02,2.14.04,3.1a18.78,18.78,0,0,0,.25,2.7,9.153,9.153,0,0,0,.74,2.36,7.561,7.561,0,0,0,1.5,2.07,9.641,9.641,0,0,0,3.06,2.09,9.851,9.851,0,0,0,3.89.72,9.224,9.224,0,0,0,6.92-2.81,7.732,7.732,0,0,0,1.49-2.07,9.588,9.588,0,0,0,.76-2.36,18.694,18.694,0,0,0,.27-2.7c0.02-.96.03-1.99,0.03-3.1S1157.96,1231.23,1157.94,1230.27Zm-5.03,6.14a13.538,13.538,0,0,1-.2,2,4.317,4.317,0,0,1-.39,1.28,4.668,4.668,0,0,1-.61.89,4.461,4.461,0,0,1-1.36.99,4.335,4.335,0,0,1-1.85.37,4.46,4.46,0,0,1-1.87-.37,4.168,4.168,0,0,1-1.37-.99,3.864,3.864,0,0,1-.6-0.89,5.478,5.478,0,0,1-.38-1.28,15.28,15.28,0,0,1-.19-2c-0.04-.8-0.06-1.82-0.06-3.04s0.02-2.24.06-3.04a15.28,15.28,0,0,1,.19-2,5.478,5.478,0,0,1,.38-1.28,3.864,3.864,0,0,1,.6-0.89,4.168,4.168,0,0,1,1.37-.99,4.46,4.46,0,0,1,1.87-.37,4.335,4.335,0,0,1,1.85.37,4.461,4.461,0,0,1,1.36.99,4.668,4.668,0,0,1,.61.89,4.317,4.317,0,0,1,.39,1.28,13.538,13.538,0,0,1,.2,2c0.04,0.8.06,1.82,0.06,3.04S1152.95,1235.61,1152.91,1236.41Zm28.59-6.14a18.694,18.694,0,0,0-.27-2.7,9.588,9.588,0,0,0-.76-2.36,7.732,7.732,0,0,0-1.49-2.07,9.827,9.827,0,0,0-3.05-2.09,9.716,9.716,0,0,0-3.87-.72,9.851,9.851,0,0,0-3.89.72,9.641,9.641,0,0,0-3.06,2.09,7.561,7.561,0,0,0-1.5,2.07,9.153,9.153,0,0,0-.74,2.36,18.78,18.78,0,0,0-.25,2.7c-0.02.96-.04,2-0.04,3.1s0.02,2.14.04,3.1a18.78,18.78,0,0,0,.25,2.7,9.153,9.153,0,0,0,.74,2.36,7.561,7.561,0,0,0,1.5,2.07,9.641,9.641,0,0,0,3.06,2.09,9.851,9.851,0,0,0,3.89.72,9.716,9.716,0,0,0,3.87-.72,9.827,9.827,0,0,0,3.05-2.09,7.732,7.732,0,0,0,1.49-2.07,9.588,9.588,0,0,0,.76-2.36,18.694,18.694,0,0,0,.27-2.7c0.02-.96.03-1.99,0.03-3.1S1181.52,1231.23,1181.5,1230.27Zm-5.03,6.14a13.538,13.538,0,0,1-.2,2,4.317,4.317,0,0,1-.39,1.28,4.075,4.075,0,0,1-1.97,1.88,4.335,4.335,0,0,1-1.85.37,4.46,4.46,0,0,1-1.87-.37,4.168,4.168,0,0,1-1.37-.99,3.864,3.864,0,0,1-.6-0.89,5.478,5.478,0,0,1-.38-1.28,15.28,15.28,0,0,1-.19-2c-0.04-.8-0.06-1.82-0.06-3.04s0.02-2.24.06-3.04a15.28,15.28,0,0,1,.19-2,5.478,5.478,0,0,1,.38-1.28,3.864,3.864,0,0,1,.6-0.89,4.168,4.168,0,0,1,1.37-.99,4.46,4.46,0,0,1,1.87-.37,4.335,4.335,0,0,1,1.85.37,4.075,4.075,0,0,1,1.97,1.88,4.317,4.317,0,0,1,.39,1.28,13.538,13.538,0,0,1,.2,2c0.04,0.8.06,1.82,0.06,3.04S1176.51,1235.61,1176.47,1236.41Zm31.29,9.79-9.11-15.46,8.5-10.2h-6.09l-9.04,11.17v-11.17h-5.01v25.66h5.01v-7.71l3.31-3.97,6.59,11.68h5.84Zm8.57,0v-25.66h-5v25.66h5Zm25.98,0v-25.66h-5.01v15.71l-10.16-15.71h-4.46v25.66h5v-15.75l10.16,15.75h4.47Zm26.15,0-9.36-25.66h-3.93l-9.33,25.66h5.22l1.55-4.54h9.12l1.51,4.54h5.22Zm-8.07-8.76h-6.37l3.24-9.33Zm40.35-16.9h-5.22l-4,16.18-4.68-16.18h-3.75l-4.68,16.18-3.97-16.18h-5.22l6.84,25.66h4.18l4.72-15.57,4.72,15.57h4.18Zm23.38,25.66-9.36-25.66h-3.93l-9.33,25.66h5.22l1.55-4.54h9.12l1.51,4.54h5.22Zm-8.07-8.76h-6.37l3.24-9.33Zm24.21-12.07a0.571,0.571,0,0,1,.58.65,36.452,36.452,0,0,1-1.15,7.02c-1.01,3.68-3.03,7.79-4.83,7.79-1.84,0-2.31-3.35-2.31-4.69a11.139,11.139,0,0,1,6.49-10.37A3.963,3.963,0,0,1,1340.26,1225.37Zm3.46-4.22a14.85,14.85,0,0,0-14.95,15.14,11.165,11.165,0,0,0,1.12,5.11,5.8,5.8,0,0,0,4.9,3.43c1.98,0,3.56-1.34,4.75-2.78,3.46-4.14,4.72-10.55,5.12-15.82,0.04-.61.04-1.4,0.86-1.4a6.639,6.639,0,0,1,1.37.32,8.747,8.747,0,0,1,5.77,8.61c0,5.16-3.71,8.26-8.43,9.37-0.36.07-.9,0.15-0.9,0.51,0,0.79,1.47,3.02,2.41,3.02a14.174,14.174,0,0,0,3.93-1.44,12.95,12.95,0,0,0,7.02-11.64,12.171,12.171,0,0,0-3.64-8.86A12.81,12.81,0,0,0,1343.72,1221.15Z" transform="translate(-997.938 -1217.97)"/>
</svg>
