<svg xmlns="http://www.w3.org/2000/svg" width="386.66" height="32.4" viewBox="0 0 386.66 32.4">
  <defs>
    <style>
      .cls-1 {
        fill-rule: evenodd;
      }
    </style>
  </defs>
  <path id="増えていくような場になり" class="cls-1" d="M992.87,1162.71a0.817,0.817,0,0,1,.864-0.87h6.956a0.816,0.816,0,0,1,.86.87v0.18a0.83,0.83,0,0,1-.86.86h-6.956a0.831,0.831,0,0,1-.864-0.86v-0.18Zm0.864-3.35a0.817,0.817,0,0,1-.864-0.87v-0.1a0.833,0.833,0,0,1,.864-0.87h6.956a0.832,0.832,0,0,1,.86.87v0.1a0.816,0.816,0,0,1-.86.87h-6.956Zm7.786,7.78c0,0.15-.04.29-0.04,0.43,0,0.72.72,0.69,1.84,0.69,1.4,0,1.8,0,1.8-.79s-0.04-1.55-.04-2.31v-6.99c0-.72.04-1.44,0.04-2.16a1.21,1.21,0,0,0-1.48-1.3c-0.79,0-1.62.04-2.45,0.04h-7.96c-0.829,0-1.621-.04-2.45-0.04a1.207,1.207,0,0,0-1.477,1.3c0,0.72.036,1.44,0.036,2.16v6.95c0,0.76-.036,1.55-0.036,2.31,0,0.79.468,0.76,1.8,0.76,1.369,0,1.838.03,1.838-.76a0.7,0.7,0,0,0-.036-0.29,0.6,0.6,0,0,1,.684-0.65h7.28A0.577,0.577,0,0,1,1001.52,1167.14Zm-5.876-17.76a0.812,0.812,0,0,1-.865.86h-2.558a0.832,0.832,0,0,1-.865-0.86v-0.29a0.832,0.832,0,0,1,.865-0.86h2.558a0.812,0.812,0,0,1,.865.86v0.29Zm4.215,0.86a0.831,0.831,0,0,1-.864-0.86v-0.29a0.831,0.831,0,0,1,.864-0.86h2.561a0.83,0.83,0,0,1,.86.86v0.29a0.83,0.83,0,0,1-.86.86h-2.561ZM999,1144.55a0.831,0.831,0,0,1,.864-0.86h2.561a0.83,0.83,0,0,1,.86.86v0.29a0.83,0.83,0,0,1-.86.86h-2.561a0.831,0.831,0,0,1-.864-0.86v-0.29Zm-4.216-.86a0.812,0.812,0,0,1,.865.86v0.29a0.812,0.812,0,0,1-.865.86h-2.558a0.832,0.832,0,0,1-.865-0.86v-0.29a0.832,0.832,0,0,1,.865-0.86h2.558Zm-0.648-2.67c-0.144,0-.144-0.07-0.144-0.11s0-.07.108-0.11a1.44,1.44,0,0,0,1.045-.83,6.487,6.487,0,0,0-.937-1.94c-1.009-1.77-1.333-2.05-1.73-2.05-0.72,0-2.774.68-2.774,1.22a1.174,1.174,0,0,0,.288.61,20.632,20.632,0,0,1,1.514,2.38,0.858,0.858,0,0,1,.072.29,0.492,0.492,0,0,1-.577.5h-1.369c-1.045,0-1.874.22-1.874,1.44,0,0.73.037,1.41,0.037,2.13v4.86c0,0.69-.037,1.41-0.037,2.09,0,1.27.829,1.48,1.91,1.48,1.009,0,2.018-.07,3.027-0.07h9.26c1.01,0,2.02.07,3.06,0.07s1.88-.25,1.88-1.48c0-.68-0.08-1.4-0.08-2.09v-4.86c0-.76.08-1.4,0.08-2.09,0-1.26-.83-1.48-1.91-1.48h-1.3a0.461,0.461,0,0,1-.54-0.43,0.517,0.517,0,0,1,.11-0.32c0.39-.62.79-1.19,1.15-1.84a0.677,0.677,0,0,1,.61-0.36c0.36-.07.65-0.11,0.65-0.4,0-.36-0.4-0.5-1.66-1.01a20.3,20.3,0,0,0-2.05-.68c-0.25,0-.33.11-0.51,0.58a32.788,32.788,0,0,1-2.157,3.78,1.461,1.461,0,0,1-1.477.72h-3.675Zm-14.448,16.83a1.1,1.1,0,0,1-.829,1.26c-0.756.21-1.333,0.36-1.765,0.46-1.477.4-1.586,0.4-1.586,0.8a4.012,4.012,0,0,0,.289,1.08c0.18,0.47.324,0.9,0.468,1.22,0.324,0.98.468,1.44,0.937,1.44a0.474,0.474,0,0,0,.468-0.32,1.105,1.105,0,0,1,1.009-.72c1.513-.5,6.7-2.38,7.927-2.99,0.648-.32.792-0.79,0.792-1.77,0-.54-0.108-1.8-0.828-1.8a23.642,23.642,0,0,0-2.414.87,0.792,0.792,0,0,1-.289.07,0.671,0.671,0,0,1-.612-0.76v-7.49a0.868,0.868,0,0,1,.973-1.01c0.108,0,1.909.07,1.909,0.07,0.793,0.04.757-.54,0.757-1.76,0-1.3.036-1.81-.757-1.81-0.576,0-1.333.08-1.945,0.08a0.84,0.84,0,0,1-.937-0.98v-4.32c0-1.33.036-1.62,0.4-1.87a0.774,0.774,0,0,0,.541-0.58c0-.36-0.469-0.4-0.721-0.43-0.613-.04-2.774-0.22-3.279-0.22-0.36,0-.612.07-0.612,0.47,0,0.11.036,0.29,0.036,0.4,0.036,0.46.072,1.44,0.072,2.3v4.25a0.84,0.84,0,0,1-.937.98c-0.612,0-1.333-.08-1.946-0.08-0.792,0-.756.47-0.756,1.81,0,1.26-.036,1.76.756,1.76,0.361,0,1.442-.07,1.946-0.07a0.847,0.847,0,0,1,.937,1.01v8.65Zm50.507-1.16c0-2.99-2.16-3.6-3.13-3.6-0.25,0-.47.04-0.72,0.04a0.365,0.365,0,0,1-.36-0.36,1.327,1.327,0,0,1,.47-0.73,45.831,45.831,0,0,1,5-4.86,1.385,1.385,0,0,0,.8-0.9c0-.54-1.66-3.06-2.53-3.06a3.064,3.064,0,0,0-1,.25,76.055,76.055,0,0,1-13.01,2.59c-0.4.04-.76,0.11-0.76,0.58a5.446,5.446,0,0,0,.83,2.02,2.389,2.389,0,0,1,.25.43,1.126,1.126,0,0,0,.98.83c0.61,0,4.82-1.12,5.65-1.33a22,22,0,0,1,2.2-.58,0.292,0.292,0,0,1,.32.29,5.944,5.944,0,0,1-1.29,1.69c-3.86,4.29-7.57,8.72-11.68,12.79a2.439,2.439,0,0,0-.86,1.23c0,0.83,2.13,2.63,2.88,2.63a2.329,2.329,0,0,0,1.01-.94c1.59-2.05,5.04-6.63,6.85-8.18a5.788,5.788,0,0,1,3.2-1.51,1.087,1.087,0,0,1,1.19,1.3,17.265,17.265,0,0,1-.21,2.26,18.026,18.026,0,0,0-.33,2.85,4.146,4.146,0,0,0,4.43,4.14,17.975,17.975,0,0,0,6.67-1.83c0.65-.36.61-1.52,0.61-2.16,0-.4.04-2.27-0.47-2.27a2.961,2.961,0,0,0-1.01.46c-1.44.9-3.6,2.17-5.33,2.17a1.039,1.039,0,0,1-1.19-1.19c0-.54.18-1.77,0.25-2.35A16.392,16.392,0,0,0,1030.19,1156.69Zm-9.94-19.78c-0.4,0-.54.15-0.9,1.12a9.066,9.066,0,0,0-.54,1.84c0,0.57.79,0.72,2.05,1.11,0.25,0.08.87,0.29,1.55,0.54,1.55,0.54,3.57,1.27,3.82,1.27,0.83,0,1.33-2.89,1.33-3.07a0.731,0.731,0,0,0-.68-0.68C1026.09,1138.79,1020.54,1136.91,1020.25,1136.91Zm22.87,6.42c0,0.36.33,3.78,1.19,3.78a3.327,3.327,0,0,0,.54-0.07,69.584,69.584,0,0,1,7.97-1.48c0.39-.07,2.01-0.32,2.3-0.32a0.5,0.5,0,0,1,.54.43,2.418,2.418,0,0,1-.65.86,16,16,0,0,0-3.96,10.34c0,7.03,5.26,8.97,11.39,8.97a1.118,1.118,0,0,0,1.04-.36,8.5,8.5,0,0,0,.65-3.2c0-.58-0.29-0.62-0.83-0.62-0.36,0-1.15.04-1.8,0.04-3.64,0-6.34-1.01-6.34-5.19a13.42,13.42,0,0,1,1.73-6.34,10.91,10.91,0,0,1,6.16-5.37,17.469,17.469,0,0,1,5.98-.75c0.83-.04,1.58.03,1.58-0.76a23.468,23.468,0,0,0-.28-2.63c-0.11-.43-0.18-0.9-0.72-0.9a2.172,2.172,0,0,0-.44.03c-2.7.44-5.47,0.8-8.18,1.12-5.26.61-10.52,1.15-15.78,1.48C1043.63,1142.5,1043.12,1142.39,1043.12,1143.33Zm51.41,1.44a0.6,0.6,0,0,0,.33.54c3.42,2.63,4.9,6.05,5.33,10.27,0.07,0.86.04,1.36,1.19,1.36a7.675,7.675,0,0,0,2.02-.32,1,1,0,0,0,.97-1.04,19.8,19.8,0,0,0-2.12-7.5c-1.73-3.31-4.76-5.58-5.55-5.58A3.483,3.483,0,0,0,1094.53,1144.77Zm-16.24-2.35a0.453,0.453,0,0,0-.51.4c-0.07.33-.18,4.9-0.18,5.48,0,3.82.29,8.36,2.09,11.74,1.19,2.2,3.28,4.62,5.95,4.62,1.69,0,2.81-1.09,3.85-2.27,0.51-.58,2.13-2.45,2.13-3.14,0-.65-1.84-2.13-2.6-2.13a1.44,1.44,0,0,0-.97.91c-0.43.79-1.48,2.37-2.49,2.37-1.26,0-2.45-2.12-2.88-3.13a20.53,20.53,0,0,1-1.15-7.53,26.838,26.838,0,0,1,.29-3.82,2.614,2.614,0,0,1,.64-1.73,0.631,0.631,0,0,0,.37-0.47c0-.36-0.51-0.43-0.8-0.5C1081.42,1143.11,1078.75,1142.42,1078.29,1142.42Zm49.82-3.09c-0.4-.4-1.44-1.63-1.91-1.63a0.94,0.94,0,0,0-.54.44,48.46,48.46,0,0,1-6.74,6.37,34.991,34.991,0,0,0-4.64,4.22,4.113,4.113,0,0,0-.8,2.49,5.49,5.49,0,0,0,1.73,3.82c1.77,2.08,3.75,4.03,5.7,5.98,1.47,1.51,2.99,3.02,4.35,4.64a2.211,2.211,0,0,0,1.12.94c0.87,0,3.06-2.05,3.06-2.92,0-.72-2.48-2.74-3.09-3.28-2.24-1.98-4.47-4-6.53-6.19-0.61-.65-1.8-1.95-1.8-2.85,0-.68.8-1.4,1.48-2.05,1.87-1.8,3.93-3.46,5.94-5.12,0.91-.72,1.81-1.4,2.71-2.05a1.585,1.585,0,0,1,.97-0.44c0.25,0,.76.04,0.76-0.32C1129.88,1140.98,1128.44,1139.65,1128.11,1139.33Zm24.1,19.31c1.55,0,1.98.03,1.98,1.44,0,2.2-1.29,2.77-3.28,2.77-1.15,0-3.53-.32-3.53-1.83C1147.38,1158.96,1150.73,1158.64,1152.21,1158.64Zm1.41-21.87c-0.33,0-.65.07-0.65,0.43a1.982,1.982,0,0,0,.07.47,54.159,54.159,0,0,1,.47,8c0.03,2.23.14,4.47,0.21,6.74,0.04,0.46.11,1.65,0.11,2.01,0,0.9-.68.87-1.29,0.87h-0.73c-3.56,0-8.03,1.51-8.03,5.8,0,3.78,4.04,5.19,7.21,5.19a8.472,8.472,0,0,0,5.33-1.59,4.867,4.867,0,0,0,1.51-3.71c0.04-.29-0.03-1.12.69-1.12,1.08,0,5.18,2.16,6.19,2.85a3.659,3.659,0,0,0,1.23.65c0.65,0,2.02-2.13,2.02-2.88a1.137,1.137,0,0,0-.62-0.76,34.085,34.085,0,0,0-8.1-3.35c-0.9-.25-1.52-0.25-1.66-1.19-0.11-.58-0.29-4.94-0.29-5.73,0-1.08.51-1.22,1.44-1.33a42.569,42.569,0,0,0,5.33-1.05c1.77-.5,2.02-0.65,2.02-1.11a7.083,7.083,0,0,0-.61-2.02,1.371,1.371,0,0,0-.97-1.08,2.764,2.764,0,0,0-.87.21,22.966,22.966,0,0,1-5.47,1.37,0.857,0.857,0,0,1-.9-1.04c0-1.19.03-2.38,0.1-3.61a1.634,1.634,0,0,1,.51-1.36,0.9,0.9,0,0,0,.32-0.54,0.738,0.738,0,0,0-.68-0.55C1156.9,1137.2,1154.16,1136.77,1153.62,1136.77Zm28.49,3.64c0,0.57.8,0.75,2.31,1.15a75.987,75.987,0,0,0,8.29,1.62c0.57,0,.79-0.36.97-1.08a15.279,15.279,0,0,0,.36-2.2c0-.54-0.4-0.54-0.9-0.57-2.49-.26-6.74-0.83-9.01-1.81a1.364,1.364,0,0,0-.58-0.21,0.849,0.849,0,0,0-.72.68A8.511,8.511,0,0,0,1182.11,1140.41Zm6.85,4.5a20.631,20.631,0,0,0-9.62,2.92,1.547,1.547,0,0,0-1.08,1.12c0,0.82,1.15,3.42,2.01,3.42a1.621,1.621,0,0,0,.76-0.36c2.24-1.87,4.69-3.39,7.71-3.39a4.647,4.647,0,0,1,5.01,4.97c0,5.01-5.33,8.94-9.66,10.31a0.818,0.818,0,0,0-.72.61c0,0.58,1.48,3.03,2.56,3.03a10.562,10.562,0,0,0,3.1-1.34c4.58-2.77,8.76-7.24,8.76-12.89C1197.79,1148.01,1194.07,1144.91,1188.96,1144.91Zm32.89,15.75c1.8,0,1.84.39,1.84,1.11a1.69,1.69,0,0,1-1.88,1.95c-0.93,0-2.37-.58-2.37-1.7C1219.44,1160.87,1220.98,1160.66,1221.85,1160.66Zm1.76-12.72a0.722,0.722,0,0,0-.86.79c0,0.18.04,0.32,0.04,0.5,0.1,1.41.64,6.63,0.64,7.79a0.628,0.628,0,0,1-.75.61h-0.94c-2.84,0-5.98,1.15-5.98,4.47,0,3.35,3.42,4.9,6.34,4.9,2.45,0,4.58-.9,5.01-3.53a0.8,0.8,0,0,1,.58-0.83c0.57,0,2.34,1.26,2.88,1.65a1.849,1.849,0,0,0,.94.51c0.9,0,2.23-2.05,2.23-2.63,0-.87-4.25-2.85-5.08-3.17-0.11-.04-0.25-0.11-0.36-0.15a1.4,1.4,0,0,1-1.12-.9c-0.18-.75-0.36-5.94-0.36-6.99,0-.75.07-1.83,0.07-1.91a0.8,0.8,0,0,0-.72-0.75A14.484,14.484,0,0,0,1223.61,1147.94Zm5.52-5.55c-0.76,0-2.42,1.98-2.42,2.48a0.952,0.952,0,0,0,.47.58,20.722,20.722,0,0,1,4.51,4.65,1.192,1.192,0,0,0,.79.65c0.65,0,2.7-1.62,2.7-2.49C1235.18,1147.32,1230.03,1142.39,1229.13,1142.39Zm-12.11-5.87c-0.32,0-.32.36-0.32,0.61a22.008,22.008,0,0,1-1.16,6.05,1.215,1.215,0,0,1-1.08.58,32.8,32.8,0,0,1-3.71.18h-1.65a0.523,0.523,0,0,0-.65.57c0,0.36.18,1.66,0.25,2.09,0.14,0.83.29,1.16,0.9,1.16,0.83,0,3.6-.36,3.89-0.36a0.492,0.492,0,0,1,.51.47,14.121,14.121,0,0,1-.83,2.19,66.892,66.892,0,0,1-4.29,8.33,3.923,3.923,0,0,0-.65,1.29c0,0.76,2.41,1.8,3.21,1.8a0.724,0.724,0,0,0,.72-0.5,91.238,91.238,0,0,0,5.87-12.83c0.43-1.19.4-1.44,1.69-1.65,3.32-.62,3.75-0.69,3.75-1.48a17.383,17.383,0,0,0-.18-1.91c-0.07-.43-0.11-1.08-0.54-1.08a1.149,1.149,0,0,0-.36.07,16.916,16.916,0,0,1-2.05.54,0.42,0.42,0,0,1-.4-0.47,11.514,11.514,0,0,1,.4-1.62,6.322,6.322,0,0,1,.64-1.91,1.017,1.017,0,0,0,.58-0.65,0.736,0.736,0,0,0-.58-0.43C1220.41,1137.38,1217.42,1136.52,1217.02,1136.52Zm45.54,7.27a0.832,0.832,0,0,1,.86.87v0.36a0.83,0.83,0,0,1-.86.86h-6.31a0.83,0.83,0,0,1-.86-0.86v-0.36a0.832,0.832,0,0,1,.86-0.87h6.31Zm-6.31-2.19a0.832,0.832,0,0,1-.86-0.87v-0.32a0.832,0.832,0,0,1,.86-0.87h6.31a0.832,0.832,0,0,1,.86.87v0.32a0.832,0.832,0,0,1-.86.87h-6.31Zm10.6-1.08c0-.65.07-1.34,0.07-1.99,0-1.29-.69-1.62-1.84-1.62-0.9,0-1.8.07-2.7,0.07h-5.91c-0.94,0-1.84-.07-2.74-0.07-1.19,0-1.84.36-1.84,1.62,0,0.65.08,1.3,0.08,1.99v4.39c0,0.65-.08,1.3-0.08,1.98,0,1.26.69,1.62,1.88,1.62,0.9,0,1.8-.07,2.7-0.07h5.91c0.9,0,1.8.07,2.74,0.07,1.15,0,1.8-.39,1.8-1.62,0-.65-0.07-1.33-0.07-1.98v-4.39Zm-3.03,17.47c0.54,0.04.94,0,.94,0.68a23.252,23.252,0,0,1-.58,4.8,1.355,1.355,0,0,1-1.66,1.19,4.408,4.408,0,0,1-.72-0.04c-0.36-.04-0.93-0.11-1.26-0.11-0.57,0-.61.47-0.61,0.9,0,2.81.61,2.78,2.31,2.78,2.3,0,4.25-.22,5.11-2.67a35.707,35.707,0,0,0,1.05-8.83c0-1.22-.26-1.91-1.63-1.91-0.9,0-1.83.08-2.77,0.08h-7.17a0.552,0.552,0,0,1-.61-0.51,0.876,0.876,0,0,1,.07-0.32c0.07-.11.11-0.22,0.18-0.33a0.912,0.912,0,0,1,.97-0.57h7.71c1.34,0,2.71.07,4.07,0.07,0.8,0,.76-0.58.76-1.59s0.04-1.58-.76-1.58c-1.36,0-2.73.11-4.07,0.11h-11.63c-1.37,0-2.71-.11-4.08-0.11-0.79,0-.75.57-0.75,1.58s-0.04,1.59.75,1.59c0.76,0,2.2-.04,3.03-0.07a0.517,0.517,0,0,1,.54.5,0.5,0.5,0,0,1-.11.32,19.454,19.454,0,0,1-6.09,6.09,1.435,1.435,0,0,0-.82.87,2.707,2.707,0,0,0,1.73,1.8,2.173,2.173,0,0,0,1.08-.54,22.237,22.237,0,0,0,4.21-3.64,1.528,1.528,0,0,1,1.33-.54h0.15a0.494,0.494,0,0,1,.54.43,0.55,0.55,0,0,1-.14.33,20.754,20.754,0,0,1-5.52,4.93,1.645,1.645,0,0,0-.83.79,2.488,2.488,0,0,0,1.7,1.59,0.859,0.859,0,0,0,.5-0.14,19,19,0,0,0,3.68-2.85,23.376,23.376,0,0,0,3.56-4.43,1.261,1.261,0,0,1,1.26-.65h0.29a0.553,0.553,0,0,1,.62.54,0.887,0.887,0,0,1-.08.32,23.227,23.227,0,0,1-6.3,7.07,1.618,1.618,0,0,0-.76.86,2.418,2.418,0,0,0,1.73,1.55,2.3,2.3,0,0,0,1.05-.58,23.96,23.96,0,0,0,7.2-9.18A0.862,0.862,0,0,1,1263.82,1157.99Zm-22.55-1.12a17.315,17.315,0,0,1-2.56.83,0.868,0.868,0,0,0-.9.69,15.75,15.75,0,0,0,.83,2.52c0.28,0.75.39,1.15,0.79,1.15a0.759,0.759,0,0,0,.54-0.68,1.023,1.023,0,0,1,.79-0.58c2.7-1.08,5.95-2.49,8.5-3.82a1.04,1.04,0,0,0,.62-1.08c0-.4-0.11-2.34-0.65-2.34a12,12,0,0,0-1.8.79c-0.36.18-.72,0.36-0.83,0.4a1.266,1.266,0,0,1-.36.11,0.613,0.613,0,0,1-.54-0.73v-6.19a0.883,0.883,0,0,1,.97-1.01c0.83,0.03,1.91.11,2.45,0.11,0.76,0,.72-0.47.72-1.77,0-1.37,0-1.76-.72-1.76-0.83,0-1.62.1-2.45,0.07a0.846,0.846,0,0,1-.97-1.01v-3.39c0-1.19.03-1.58,0.39-1.8a0.806,0.806,0,0,0,.54-0.58,0.621,0.621,0,0,0-.68-0.46c-0.65-.04-2.81-0.22-3.35-0.22-0.36,0-.61.07-0.61,0.47a1.936,1.936,0,0,0,.03.43,24.007,24.007,0,0,1,.11,2.85v2.7a0.872,0.872,0,0,1-1.01,1.01c-0.43-.04-1.87-0.07-2.2-0.07-0.75,0-.72.43-0.72,1.76,0,1.26-.03,1.77.72,1.77,0.69,0,1.48-.11,2.24-0.11a0.867,0.867,0,0,1,.97,1.01v7.6A1.167,1.167,0,0,1,1241.27,1156.87Zm43.73,0.44c-0.68,0-1.94,2.55-1.94,3.06,0,0.57,2.41,3.6,8.25,3.6,1.44,0,7.53-.54,8.54-1.08a1.39,1.39,0,0,0,.43-1.33c0-1.84-.07-2.71-0.65-2.71a2.63,2.63,0,0,0-.76.15,29.45,29.45,0,0,1-7.92,1.15,6.172,6.172,0,0,1-5.48-2.52A0.64,0.64,0,0,0,1285,1157.31Zm0.83-15.61c-0.58,0-.76.54-0.76,2.27a1.778,1.778,0,0,0,.36,1.41c0.76,0.5,5.19.72,6.31,0.72a43.182,43.182,0,0,0,6.05-.5c0.69-.15.69-0.44,0.69-1.19a16,16,0,0,0-.15-1.95,0.8,0.8,0,0,0-.72-0.86,4.217,4.217,0,0,0-.65.1,23.067,23.067,0,0,1-5.47.72,22.7,22.7,0,0,1-4.72-.54A4.99,4.99,0,0,0,1285.83,1141.7Zm-8.65-2.81a0.783,0.783,0,0,0-.54.8,14.857,14.857,0,0,1-.46,1.8,42.96,42.96,0,0,0-1.84,11.92,24.694,24.694,0,0,0,2.2,11.06c0.46,0.98.9,1.77,1.51,1.77,0.76,0,2.81-.86,2.81-1.77a4.006,4.006,0,0,0-.07-0.54c-0.04-.32-0.15-1.15-0.15-1.51,0-1.62,1.44-4.9,1.44-5.22a1.965,1.965,0,0,0-1.29-1.16,1.175,1.175,0,0,0-.76.87,2.787,2.787,0,0,1-.97,1.4c-0.83,0-.98-4.36-0.98-5.04a28.583,28.583,0,0,1,2.02-10.23,2.316,2.316,0,0,1,1.12-1.55c0.36-.22.5-0.25,0.5-0.47a0.854,0.854,0,0,0-.72-0.61C1280.5,1140.19,1277.47,1138.89,1277.18,1138.89Zm43.02,21.77c1.8,0,1.84.39,1.84,1.11a1.69,1.69,0,0,1-1.88,1.95c-0.93,0-2.37-.58-2.37-1.7C1317.79,1160.87,1319.34,1160.66,1320.2,1160.66Zm1.77-12.72a0.726,0.726,0,0,0-.87.79c0,0.18.04,0.32,0.04,0.5,0.1,1.41.65,6.63,0.65,7.79a0.636,0.636,0,0,1-.76.61h-0.94c-2.84,0-5.98,1.15-5.98,4.47,0,3.35,3.42,4.9,6.34,4.9,2.45,0,4.58-.9,5.01-3.53a0.8,0.8,0,0,1,.58-0.83c0.57,0,2.34,1.26,2.88,1.65a1.849,1.849,0,0,0,.94.51c0.9,0,2.23-2.05,2.23-2.63,0-.87-4.25-2.85-5.08-3.17-0.11-.04-0.25-0.11-0.36-0.15a1.4,1.4,0,0,1-1.12-.9c-0.18-.75-0.36-5.94-0.36-6.99,0-.75.07-1.83,0.07-1.91a0.8,0.8,0,0,0-.72-0.75A14.5,14.5,0,0,0,1321.97,1147.94Zm5.51-5.55c-0.76,0-2.42,1.98-2.42,2.48a0.952,0.952,0,0,0,.47.58,20.722,20.722,0,0,1,4.51,4.65,1.192,1.192,0,0,0,.79.65c0.65,0,2.7-1.62,2.7-2.49C1333.53,1147.32,1328.38,1142.39,1327.48,1142.39Zm-12.11-5.87c-0.32,0-.32.36-0.32,0.61,0,1.15-.61,5.15-1.16,6.05a1.215,1.215,0,0,1-1.08.58,32.8,32.8,0,0,1-3.71.18h-1.65a0.523,0.523,0,0,0-.65.57c0,0.36.18,1.66,0.25,2.09,0.14,0.83.29,1.16,0.9,1.16,0.83,0,3.6-.36,3.89-0.36a0.485,0.485,0,0,1,.51.47,14.121,14.121,0,0,1-.83,2.19,66.892,66.892,0,0,1-4.29,8.33,3.923,3.923,0,0,0-.65,1.29c0,0.76,2.41,1.8,3.21,1.8a0.724,0.724,0,0,0,.72-0.5,91.238,91.238,0,0,0,5.87-12.83c0.43-1.19.4-1.44,1.69-1.65,3.32-.62,3.75-0.69,3.75-1.48a17.383,17.383,0,0,0-.18-1.91c-0.07-.43-0.11-1.08-0.54-1.08a1.149,1.149,0,0,0-.36.07,16.916,16.916,0,0,1-2.05.54,0.42,0.42,0,0,1-.4-0.47,11.514,11.514,0,0,1,.4-1.62,6.069,6.069,0,0,1,.65-1.91,1.026,1.026,0,0,0,.57-0.65,0.721,0.721,0,0,0-.57-0.43C1318.76,1137.38,1315.77,1136.52,1315.37,1136.52Zm41.43,2.34a2.673,2.673,0,0,0,.07.47,34.7,34.7,0,0,1,1.27,10.05,21.351,21.351,0,0,1-1.66,9.08,13.732,13.732,0,0,1-4.9,5.62,0.832,0.832,0,0,0-.54.61c0,0.76,2.09,2.52,2.66,2.52,0.83,0,2.31-1.44,2.89-2.01,4.54-4.62,5.58-9.91,5.58-16.15a47.4,47.4,0,0,0-1.12-10.37c-0.14-.54-0.21-0.98-0.9-0.98C1359.76,1137.7,1356.8,1138.07,1356.8,1138.86Zm-10.48.54c-0.25-.11-1.84-0.76-1.95-0.76a1.009,1.009,0,0,0-.47.9c-0.14.9-.39,1.77-0.61,2.67a33.87,33.87,0,0,0-.83,7.38,30.02,30.02,0,0,0,1.19,8.4c0.22,0.68.47,1.33,1.26,1.33,0.69,0,2.6-.43,2.6-1.44,0-.25-0.08-0.65-0.08-1.15a14.324,14.324,0,0,1,1.19-4.47l0.33-.86c0.32-.87.86-2.13,0.86-2.24a1.982,1.982,0,0,0-1.4-1.11c-0.43,0-1.08,1.54-1.26,1.94a1.4,1.4,0,0,1-.65.94c-0.4,0-.36-1.55-0.36-1.84a18.8,18.8,0,0,1,.47-4.03,13.892,13.892,0,0,1,1.04-3.03,1.656,1.656,0,0,1,.69-0.72,0.622,0.622,0,0,0,.43-0.47C1348.77,1140.44,1347.11,1139.76,1346.32,1139.4Z" transform="translate(-975.5 -1135.94)"/>
</svg>
