<svg xmlns="http://www.w3.org/2000/svg" width="687.5" height="52.78" viewBox="0 0 687.5 52.78">
  <defs>
    <style>
      .cls-1 {
        fill-rule: evenodd;
      }
    </style>
  </defs>
  <path id="沖縄でもっとも共創性がある" class="cls-1" d="M2507.43,1418.86c-0.64,0-.82.58-1.11,1.27a81.676,81.676,0,0,1-9.16,16.01,4.52,4.52,0,0,0-.93,1.45c0,0.7,2.67,2.67,3.31,3.19a5.886,5.886,0,0,0,1.91,1.28,0.8,0.8,0,0,0,.76-0.87c0-.46-0.18-0.75-0.18-1.04a5.625,5.625,0,0,1,.76-1.45c1.27-2.09,8.81-15.03,8.81-16.48C2511.6,1420.95,2508.47,1418.86,2507.43,1418.86Zm-7.72-14.5c-0.93,0-3.3,3.01-3.3,3.82,0,0.58.69,0.93,1.16,1.28a72.146,72.146,0,0,1,6.84,5.05,1.816,1.816,0,0,0,1.04.52c1.16,0,3.43-2.96,3.43-3.71,0-.87-2.56-2.61-3.31-3.19C2504.76,1407.49,2500.41,1404.36,2499.71,1404.36Zm12.07-5.98c0-.81-3.08-2.84-3.83-3.36-0.81-.58-4.18-3.02-4.93-3.02-1.1,0-3.31,2.96-3.31,3.83a1.82,1.82,0,0,0,1.05,1.22,71.455,71.455,0,0,1,6.43,4.46,2.061,2.061,0,0,0,1.16.7C2509.28,1402.21,2511.78,1399.31,2511.78,1398.38Zm22.45,20.36a1.662,1.662,0,0,1-1.63-1.62v-8.18a1.63,1.63,0,0,1,1.63-1.63h4.46a1.63,1.63,0,0,1,1.63,1.63v8.18a1.662,1.662,0,0,1-1.63,1.62h-4.46Zm-7.43-1.62a1.66,1.66,0,0,1-1.62,1.62h-4.3a1.547,1.547,0,0,1-1.62-1.62v-8.18a1.591,1.591,0,0,1,1.62-1.63h4.3a1.628,1.628,0,0,1,1.62,1.63v8.18Zm-1.62,6.9a1.374,1.374,0,0,1,1.62,1.62v6.67c0,2.96-.17,5.98-0.17,8.94,0,1.68.63,1.8,3.01,1.8,2.56,0,3.14-.06,3.14-1.8,0-2.96-.18-5.98-0.18-8.94v-6.67a1.381,1.381,0,0,1,1.63-1.62h4.87a0.919,0.919,0,0,1,1.1,1.04c0.06,1.74.46,1.8,2.96,1.8,2.26,0,3.01,0,3.01-1.68,0-1.62-.11-3.25-0.11-4.81v-11.43c0-1.51.06-2.96,0.06-4.47,0-2.14-1.05-2.72-3.02-2.72-1.62,0-3.25.05-4.87,0.05h-4a1.362,1.362,0,0,1-1.63-1.56v-3.6c0-2.09.06-3.25,0.64-3.71a1.228,1.228,0,0,0,.7-0.87c0-.76-0.93-0.76-1.45-0.81-1.22-.06-3.83-0.29-4.94-0.29-0.52,0-.98.11-0.98,0.75,0,0.17.06,0.41,0.06,0.58a24.668,24.668,0,0,1,.17,4.18v3.77a1.355,1.355,0,0,1-1.62,1.56h-3.83c-1.68,0-3.31-.05-4.93-0.05-1.97,0-3.02.58-3.02,2.72,0,1.51.12,2.96,0.12,4.47v11.43c0,1.56-.12,3.19-0.12,4.81,0,1.68.76,1.68,2.96,1.68,2.55,0,2.96-.06,3.02-1.8a0.9,0.9,0,0,1,1.04-1.04h4.76Zm47.44,10.5a33.657,33.657,0,0,0-1.33-5.22c-1.34-3.95-1.74-5.11-2.61-5.11-0.7,0-3.08.7-3.08,1.57a4.922,4.922,0,0,0,.23.81,58.09,58.09,0,0,1,2.44,8.24c0.17,0.81.29,1.39,1.33,1.39C2570.42,1436.2,2572.62,1435.56,2572.62,1434.52Zm-18.74-10.21c-0.69,0-.69.58-0.75,1.04a57.731,57.731,0,0,1-1.74,10.45c-0.12.52-.7,2.66-0.7,3.01,0,1.05,2.9,1.57,3.31,1.57a1.2,1.2,0,0,0,1.16-1.16c0.64-2.38,1.74-9.05,2.03-11.6a1.188,1.188,0,0,1,.75-1.34,0.736,0.736,0,0,0,.58-0.64,1.018,1.018,0,0,0-1.1-.75C2556.84,1424.77,2554.35,1424.31,2553.88,1424.31Zm29.01-.17a1.307,1.307,0,0,1,1.39,1.39v0.52a1.339,1.339,0,0,1-1.39,1.39h-2.79a1.339,1.339,0,0,1-1.39-1.39v-0.52a1.307,1.307,0,0,1,1.39-1.39h2.79Zm6.67,1.39a1.307,1.307,0,0,1,1.39-1.39h2.96a1.262,1.262,0,0,1,1.33,1.39v0.52a1.292,1.292,0,0,1-1.33,1.39h-2.96a1.339,1.339,0,0,1-1.39-1.39v-0.52Zm-5.28-6.21a1.3,1.3,0,0,1-1.39,1.34h-2.79a1.3,1.3,0,0,1-1.39-1.34v-0.46a1.339,1.339,0,0,1,1.39-1.39h2.79a1.339,1.339,0,0,1,1.39,1.39v0.46Zm6.67,1.34a1.3,1.3,0,0,1-1.39-1.34v-0.46a1.339,1.339,0,0,1,1.39-1.39h2.96a1.292,1.292,0,0,1,1.33,1.39v0.46a1.252,1.252,0,0,1-1.33,1.34h-2.96Zm-1.39-16.25a1.339,1.339,0,0,1,1.39-1.39h2.26a1.339,1.339,0,0,1,1.39,1.39v0.47a1.339,1.339,0,0,1-1.39,1.39h-2.26a1.339,1.339,0,0,1-1.39-1.39v-0.47Zm-6.67-1.39a1.339,1.339,0,0,1,1.39,1.39v0.47a1.339,1.339,0,0,1-1.39,1.39h-1.92a1.292,1.292,0,0,1-1.33-1.39v-0.47a1.292,1.292,0,0,1,1.33-1.39h1.92Zm8.06-3.3a1.342,1.342,0,0,1-1.39-1.4v-0.29a1.339,1.339,0,0,1,1.39-1.39h2.26a1.339,1.339,0,0,1,1.39,1.39v0.29a1.342,1.342,0,0,1-1.39,1.4h-2.26Zm-6.67-1.4a1.342,1.342,0,0,1-1.39,1.4h-1.92a1.3,1.3,0,0,1-1.33-1.4v-0.29a1.292,1.292,0,0,1,1.33-1.39h1.92a1.339,1.339,0,0,1,1.39,1.39v0.29Zm-1.39,11.72a1.17,1.17,0,0,1,1.39,1.33v0.64a1.173,1.173,0,0,1-1.39,1.34h-7.25c-1.45,0-2.21.34-2.21,1.91,0,1.05.06,2.09,0.06,3.13v11.2c0,1.22-.06,2.38-0.06,3.59,0,1.28.64,1.22,2.61,1.22,2.5,0,2.67.06,2.73-1.45,0-1.27.46-1.45,2.43-1.45h1.45a1.386,1.386,0,0,1,1.63,1.57c0,1.1-.06,2.15-0.06,3.19,0,3.94,1.74,5.63,5.69,5.63h6.32c1.97,0,4.52-.12,5.62-1.98a15.178,15.178,0,0,0,1.46-5.27c0-1.46-3.02-1.75-4.12-1.75a0.913,0.913,0,0,0-1.11.76c-0.29,2.26-.34,3.36-3.01,3.36h-3.25c-2.09,0-2.26-.46-2.26-2.43v-1.45a1.4,1.4,0,0,1,1.62-1.63h2.21c1.91,0,3.36.06,4.46,0.06,2.03,0,2.84-.29,2.84-1.91,0-.99-0.05-2.03-0.05-3.02v-8.24c0-1.04.05-2.08,0.05-3.13,0-1.68-.87-1.97-3.01-1.97-1.1,0-2.5.06-4.29,0.06h-2.44a1.17,1.17,0,0,1-1.39-1.34v-0.64a1.167,1.167,0,0,1,1.39-1.33h3.25a1.071,1.071,0,0,1,.69.29,3.809,3.809,0,0,0,2.15.35c1.68,0,2.73.11,2.73-1.51,0-1.04-.06-2.03-0.06-3.07v-7.78c0-1.1.06-2.03,0.06-2.9,0-1.62-.29-2.61-1.98-2.61-1.33,0-2.72.12-4.06,0.12h-13.45c-1.45,0-2.61-.12-3.48-0.12-1.69,0-2.5.35-2.5,2.09,0,1.16.06,2.26,0.06,3.42v7.78c0,1.04-.12,2.03-0.12,3.07,0,1.62,1.11,1.51,2.79,1.51a4.3,4.3,0,0,0,2.26-.35,1.455,1.455,0,0,1,.7-0.29h2.9Zm-28.72-9.4a2.552,2.552,0,0,0-1.04-.52c-1.04,0-2.49,3.08-2.49,3.95a1.388,1.388,0,0,0,.69,1.1c1.68,1.27,4.29,3.42,5.86,4.93a1.877,1.877,0,0,1,.7,1.27,2.073,2.073,0,0,1-.35.99c-0.52.93-1.05,1.86-1.63,2.73a2.393,2.393,0,0,1-2.2,1.33c-0.23,0-.52.06-0.81,0.06-0.99,0-1.86-.06-1.86.64,0,0.29.76,4,.87,4.58,0.12,0.46.41,1.33,0.87,1.33a0.881,0.881,0,0,0,.81-0.58,0.843,0.843,0,0,1,.82-0.52c1.1-.11,2.14-0.23,3.24-0.4h0.29a1.238,1.238,0,0,1,1.28,1.45v10.09c0,2.61-.12,5.22-0.12,7.83,0,1.91.47,1.97,2.67,1.97,2.15,0,2.61-.06,2.61-1.97,0-2.61-.11-5.22-0.11-7.83v-10.79a1.527,1.527,0,0,1,1.45-1.8l0.58-.11h0.35a1.307,1.307,0,0,1,1.33,1.04,0.989,0.989,0,0,0,1.16.81c0.23,0,3.31-.17,3.31-1.56a38.442,38.442,0,0,0-1.34-5.05c-1.68-5.11-1.85-5.45-2.9-5.45-0.81,0-3.07.46-3.07,1.45a10.952,10.952,0,0,0,.69,2.2,1.634,1.634,0,0,1,.12.52,1.143,1.143,0,0,1-1.1,1.16c-0.87.06-1.69,0.18-2.5,0.24a0.723,0.723,0,0,1-.87-0.64,0.81,0.81,0,0,1,.18-0.53c2.55-3.94,5.04-7.94,7.36-12.12a1.507,1.507,0,0,1,1.16-.64c0.7-.11.93-0.29,0.93-0.75,0-.58-0.93-0.99-1.74-1.39a20.379,20.379,0,0,0-3.48-1.34c-0.64,0-.87.58-1.16,1.4-0.99,1.85-2.03,3.65-3.02,5.51a1.225,1.225,0,0,1-1.04.63,1.349,1.349,0,0,1-.87-0.4,3.681,3.681,0,0,1-.52-0.47,1.305,1.305,0,0,1-.47-0.87,1.187,1.187,0,0,1,.24-0.69c1.33-2.15,3.42-6.27,4.52-8.59a0.907,0.907,0,0,1,.81-0.52c0.41-.12,1.05-0.12,1.05-0.7,0-.98-4.82-2.66-5.11-2.66a1.075,1.075,0,0,0-.87,1.04c-0.69,1.97-2.67,6.27-3.65,8.24a1.076,1.076,0,0,1-.87.69A1.1,1.1,0,0,1,2554.17,1400.64Zm52.9,2.27a26.139,26.139,0,0,0,.64,4.17c0.17,0.64.46,1.92,1.27,1.92a4.337,4.337,0,0,0,.87-0.12c3.72-.99,8.94-1.8,12.82-2.38,0.58-.06,3.25-0.52,3.66-0.52a0.751,0.751,0,0,1,.87.7,3.16,3.16,0,0,1-.99,1.39,25.784,25.784,0,0,0-6.38,16.65c0,11.31,8.47,14.44,18.33,14.44a1.616,1.616,0,0,0,1.86-.99,16.484,16.484,0,0,0,.87-4.75c0-.93-0.47-0.99-1.34-0.99-0.63,0-1.91.06-2.9,0.06-5.91,0-10.21-1.63-10.21-8.35a21.733,21.733,0,0,1,2.79-10.21,17.628,17.628,0,0,1,9.86-8.65c3.31-1.16,6.26-1.16,9.63-1.21,1.39-.06,2.61.05,2.61-1.22a26.687,26.687,0,0,0-.52-4.24c-0.12-.69-0.24-1.45-1.11-1.45a3.166,3.166,0,0,0-.75.06c-4.35.7-8.76,1.28-13.17,1.8-8.41.99-16.88,1.86-25.35,2.38C2607.88,1401.57,2607.07,1401.4,2607.07,1402.91Zm43.85,3.36c-0.69,0-2.96,1.51-2.96,2.2a1.428,1.428,0,0,0,.41.76,48.859,48.859,0,0,1,3.77,4.81,1.382,1.382,0,0,0,.87.76c0.7,0,2.96-1.63,2.96-2.44C2655.97,1411.66,2651.5,1406.27,2650.92,1406.27Zm-7.02,3.19c-0.63,0-2.95,1.45-2.95,2.15a1.5,1.5,0,0,0,.52.81c1.27,1.56,2.55,3.19,3.71,4.87a1.216,1.216,0,0,0,.81.7c0.64,0,2.96-1.57,2.96-2.44C2648.95,1414.85,2644.54,1409.46,2643.9,1409.46Zm38.46-16.82a22.231,22.231,0,0,0-2.9-.93c-0.58,0-.7.52-0.87,1.16-0.47,1.68-1.74,5.8-2.27,7.77a1.439,1.439,0,0,1-1.33,1.4,1.72,1.72,0,0,1-.75-0.18,35.094,35.094,0,0,1-3.95-2.03,3.212,3.212,0,0,0-1.33-.64c-1.22,0-2.15,4.01-2.15,4.99,0,1.05,1.16,1.57,5.22,3.13,0.81,0.29,1.86.64,1.86,1.92,0,0.35-.18.87-0.23,1.27-0.18.87-.41,1.63-0.53,2.27-0.34,1.68-.52,2.49-1.5,2.49a10.633,10.633,0,0,1-3.72-1.62,3.09,3.09,0,0,0-1.45-.58c-1.45,0-2.03,4.58-2.03,4.93a1.549,1.549,0,0,0,1.1,1.39,19.727,19.727,0,0,0,3.43,1.39c1.33,0.41,2.32.76,2.32,2.03,0,0.58-.23,2.79-0.23,4.24,0,8.81,5.16,13.86,13.92,13.86,7.71,0,16.01-3.13,16.01-12.12a31.816,31.816,0,0,0-1.92-10.15c-0.46-1.28-.64-2.21-1.56-2.21-0.64,0-4.93.76-4.93,2.15a2.929,2.929,0,0,0,.23,1.04,25.232,25.232,0,0,1,1.97,8.41,5.814,5.814,0,0,1-1.28,4.12c-1.79,2.03-5.8,2.73-8.41,2.73-5.04,0-7.71-2.67-7.71-7.72,0-2.49,0-3.94,1.56-3.94a6.672,6.672,0,0,1,.93.11c1.39,0.18,4.12.58,5.45,0.58a1.531,1.531,0,0,0,1.63-1.33,13.021,13.021,0,0,0,.75-3.89c0-.58-0.17-0.98-1.74-0.98-1.74,0-3.48-.06-5.22-0.23-0.81-.06-2.03-0.12-2.03-1.34,0-.46.81-4.12,0.99-4.81a1.619,1.619,0,0,1,1.56-1.4,1.692,1.692,0,0,1,.53.12,72.641,72.641,0,0,0,7.89.87c0.81,0,1.04-.46,1.27-1.28a17.1,17.1,0,0,0,.64-3.77c0-1.16-.87-1.1-1.97-1.1-1.98-.06-3.95-0.23-5.92-0.46-0.81-.12-1.57-0.35-1.57-1.34a1.98,1.98,0,0,1,.18-0.81c0.46-1.39.93-2.84,1.45-4.23,0.81-2.09,1.22-2.15,2.03-2.56a0.793,0.793,0,0,0,.52-0.63C2686.3,1393.8,2683.34,1392.99,2682.36,1392.64Zm34.39,23.32c0,1.22,2.09,4.7,3.59,4.7a3.081,3.081,0,0,0,1.63-.58c4.93-2.67,12.47-5.86,18.1-5.86,3.54,0,6.49,2.09,6.49,5.86,0,3.71-2.61,6.55-5.68,8.29a26.209,26.209,0,0,1-9.92,2.9c-0.75.06-1.86,0.17-1.86,1.16,0,0.46.82,4.41,2.73,4.41,2.15,0,6.9-1.57,8.93-2.44,6.09-2.61,11.37-7.02,11.37-14.21,0-7.02-5.28-11.37-12.06-11.37-5.46,0-11.55,2.32-16.71,4.18a46.206,46.206,0,0,1-5.34,1.74A1.361,1.361,0,0,0,2716.75,1415.96Zm60.15-20.25a2.977,2.977,0,0,0,.17.7,38.136,38.136,0,0,1,1.1,3.83c0.58,2.38,2.21,8.52,2.9,10.61a1.943,1.943,0,0,1,.23,1.05,1.781,1.781,0,0,1-.98,1.5c-4.82,3.14-10.04,7.26-10.04,13.58a10.208,10.208,0,0,0,5.34,8.93c3.83,2.26,7.6,2.5,11.89,2.5,2.78,0,13.75-.35,15.95-0.93,1.16-.29,1.22-0.93,1.22-2.44v-0.69c0-1.22-.06-3.6-0.87-3.6a1.543,1.543,0,0,0-.52.06,87.591,87.591,0,0,1-15.14,1.5,23.231,23.231,0,0,1-7.72-1.04c-1.79-.64-3.82-2.09-3.82-4.18,0-2.2,1.33-3.77,2.84-5.22,2.43-2.32,7.36-5.16,10.44-6.84a105.523,105.523,0,0,1,14.33-6.67,1.259,1.259,0,0,0,1.1-.93c0-.81-1.22-2.78-1.68-3.54-0.35-.58-1.34-2.32-2.09-2.32a3.736,3.736,0,0,0-1.51.58c-1.51.99-10.79,6.44-11.83,6.44-0.99,0-1.16-.99-1.34-1.74a79.905,79.905,0,0,1-1.8-10.38c-0.11-1.34,0-2.21-1.62-2.21a22.539,22.539,0,0,0-2.78.29C2778.81,1394.84,2776.9,1394.84,2776.9,1395.71Zm63.8-3.07a22.231,22.231,0,0,0-2.9-.93c-0.58,0-.7.52-0.87,1.16-0.47,1.68-1.74,5.8-2.27,7.77a1.439,1.439,0,0,1-1.33,1.4,1.72,1.72,0,0,1-.75-0.18,35.094,35.094,0,0,1-3.95-2.03,3.212,3.212,0,0,0-1.33-.64c-1.22,0-2.15,4.01-2.15,4.99,0,1.05,1.16,1.57,5.22,3.13,0.81,0.29,1.86.64,1.86,1.92,0,0.35-.18.87-0.23,1.27-0.18.87-.41,1.63-0.53,2.27-0.34,1.68-.52,2.49-1.5,2.49a10.633,10.633,0,0,1-3.72-1.62,3.09,3.09,0,0,0-1.45-.58c-1.45,0-2.03,4.58-2.03,4.93a1.549,1.549,0,0,0,1.1,1.39,19.727,19.727,0,0,0,3.43,1.39c1.33,0.41,2.32.76,2.32,2.03,0,0.58-.23,2.79-0.23,4.24,0,8.81,5.16,13.86,13.92,13.86,7.71,0,16.01-3.13,16.01-12.12a31.816,31.816,0,0,0-1.92-10.15c-0.46-1.28-.64-2.21-1.56-2.21-0.64,0-4.93.76-4.93,2.15a2.929,2.929,0,0,0,.23,1.04,25.232,25.232,0,0,1,1.97,8.41,5.814,5.814,0,0,1-1.28,4.12c-1.79,2.03-5.8,2.73-8.41,2.73-5.04,0-7.71-2.67-7.71-7.72,0-2.49,0-3.94,1.56-3.94a6.672,6.672,0,0,1,.93.11c1.39,0.18,4.12.58,5.45,0.58a1.531,1.531,0,0,0,1.63-1.33,13.021,13.021,0,0,0,.75-3.89c0-.58-0.17-0.98-1.74-0.98-1.74,0-3.48-.06-5.22-0.23-0.81-.06-2.03-0.12-2.03-1.34,0-.46.81-4.12,0.99-4.81a1.619,1.619,0,0,1,1.56-1.4,1.692,1.692,0,0,1,.53.12,72.641,72.641,0,0,0,7.89.87c0.81,0,1.04-.46,1.27-1.28a17.1,17.1,0,0,0,.64-3.77c0-1.16-.87-1.1-1.97-1.1-1.98-.06-3.95-0.23-5.92-0.46-0.81-.12-1.57-0.35-1.57-1.34a1.98,1.98,0,0,1,.18-0.81c0.46-1.39.93-2.84,1.45-4.23,0.81-2.09,1.22-2.15,2.03-2.56a0.793,0.793,0,0,0,.52-0.63C2844.64,1393.8,2841.68,1392.99,2840.7,1392.64Zm78.18,46.4a1.606,1.606,0,0,0-1.1-1.16,53.466,53.466,0,0,1-14.09-10.38,1.746,1.746,0,0,0-1.11-.7c-0.75,0-4.29,2.44-4.29,3.31,0,1.04,6.21,6.27,7.31,7.14,1.39,1.1,7.89,5.74,9.28,5.74C2916.16,1442.99,2918.88,1439.91,2918.88,1439.04Zm-29.29-8.35c0-.58-2.09-1.91-2.61-2.26a13.671,13.671,0,0,0-3.07-1.74,1.45,1.45,0,0,0-.82.64,55.182,55.182,0,0,1-13.8,10.44c-0.47.23-1.34,0.64-1.34,1.27,0,0.93,2.73,3.95,4.01,3.95a4.6,4.6,0,0,0,1.97-.87,64.316,64.316,0,0,0,12.76-9.98,1.739,1.739,0,0,1,1.62-.75C2888.78,1431.39,2889.59,1431.33,2889.59,1430.69Zm-2.09-20.88a1.63,1.63,0,0,1,1.63-1.63h9.22a1.662,1.662,0,0,1,1.62,1.63v9.05a1.653,1.653,0,0,1-1.62,1.62h-9.22a1.622,1.622,0,0,1-1.63-1.62v-9.05Zm-5.86,9.05a1.394,1.394,0,0,1-1.62,1.62h-3.42c-2.5,0-4.93-.17-7.43-0.17-1.33,0-1.27.87-1.27,2.9s-0.06,2.9,1.27,2.9c2.5,0,4.93-.18,7.43-0.18h33.87c2.44,0,4.87.18,7.37,0.18,1.33,0,1.33-.81,1.33-2.9s0-2.9-1.33-2.9c-2.5,0-4.93.17-7.37,0.17h-3.01a1.4,1.4,0,0,1-1.63-1.62v-9.05a1.387,1.387,0,0,1,1.63-1.63h1.27c2.32,0,4.64.18,7.02,0.18,1.28,0,1.22-.87,1.22-2.9,0-2.15.06-2.96-1.22-2.96-2.38,0-4.7.12-7.02,0.12h-1.27a1.368,1.368,0,0,1-1.63-1.57v-5.11c0-1.5.06-2.26,0.7-2.72a1.174,1.174,0,0,0,.81-0.87c0-.7-1.04-0.76-1.62-0.81-0.99-.12-4.12-0.41-4.99-0.41-0.58,0-1.05.12-1.05,0.81,0,0.18.06,0.41,0.06,0.58,0.12,1.39.23,2.73,0.23,4.06v4.47a1.361,1.361,0,0,1-1.62,1.57h-9.22a1.368,1.368,0,0,1-1.63-1.57V1396c0-1.56.06-2.32,0.7-2.72a1.237,1.237,0,0,0,.81-0.93c0-.7-1.04-0.76-1.62-0.81-0.99-.12-4.12-0.41-4.99-0.41a0.807,0.807,0,0,0-.99.87v0.52a24.759,24.759,0,0,1,.23,4.12v4.41a1.361,1.361,0,0,1-1.62,1.57h-1.39c-2.32,0-4.7-.12-7.02-0.12-1.34,0-1.28.75-1.28,2.96,0,2.09-.06,2.9,1.28,2.9,2.32,0,4.7-.18,7.02-0.18h1.39a1.381,1.381,0,0,1,1.62,1.63v9.05Zm84.8,13.86c0,3.31,0,4.18-2.55,4.18-1.45,0-2.67-.23-3.19-0.23-1.16,0-1.22.98-1.22,1.91,0,4.58,1.57,4.47,3.71,4.47,4.76,0,9.17-.82,9.17-6.56,0-1.39-.12-2.78-0.12-4.18v-35.78c0-2.33.06-2.85,0.7-3.25a1.142,1.142,0,0,0,.81-0.87c0-.82-1.04-0.87-2.67-0.99a7.139,7.139,0,0,1-1.1-.06,23.7,23.7,0,0,0-2.78-.17c-0.53,0-.99.06-0.99,0.69a1.6,1.6,0,0,0,.06.53,23.832,23.832,0,0,1,.17,3.65v36.66Zm-9.8-9.4c0,2.21-.12,4.35-0.12,6.56,0,1.51.58,1.56,2.73,1.56s2.67-.05,2.67-1.62c0-2.2-.12-4.35-0.12-6.5v-20.7c0-1.98.06-2.38,0.64-2.73a1.284,1.284,0,0,0,.87-0.87,0.85,0.85,0,0,0-.93-0.7c-0.81-.11-4.29-0.4-5.04-0.4a0.739,0.739,0,0,0-.93.69c0,0.12.06,0.29,0.06,0.47a30.265,30.265,0,0,1,.17,3.25v20.99Zm-18.04,13.46a1.646,1.646,0,0,1-1.62-1.62v-1.34a1.527,1.527,0,0,1,1.62-1.56h6.44a1.533,1.533,0,0,1,1.62,1.56v1.34a1.653,1.653,0,0,1-1.62,1.62h-6.44Zm-3.83-21.34a1.1,1.1,0,0,1-1.16-1.17v-0.34a1.119,1.119,0,0,1,1.16-1.11h10.91a1.042,1.042,0,0,1,1.1,1.11v0.34a1.059,1.059,0,0,1-1.1,1.17h-10.91Zm0.41,6.14a1.331,1.331,0,0,1-1.57-1.39,1.418,1.418,0,0,1,1.62-1.33h10.5a0.922,0.922,0,0,1,1.05,1.1v0.52a0.935,0.935,0,0,1-1.1,1.1h-10.5Zm11.37,20.02c-0.06,1.27.52,1.21,2.72,1.21s3.02,0.06,3.02-.98c0-.23-0.12-1.92-0.12-2.96v-5.92c0-.81.06-1.56,0.06-2.2,0-1.51-.41-2.44-3.25-2.44-1.27,0-2.49.06-3.71,0.06h-6.61c-1.22,0-2.44-.06-3.66-0.06h-0.93a1.018,1.018,0,0,1-1.1-1.22v-0.23a1.386,1.386,0,0,1,1.57-1.27h10.21c1.51,0,2.96.11,4.46,0.11s3.25-.06,3.25-2.03c0-1.04-.11-2.03-0.11-3.01v-6.27c0-1.1.11-2.2,0.11-3.31,0-2.08-1.56-2.26-3.3-2.26-1.45,0-2.96.12-4.41,0.12h-9.17c-1.62,0-3.19-.18-4.81-0.18-1.8,0-2.84.35-2.84,2.38,0,1.05.05,2.15,0.05,3.25v3.66c0,6.32-1.1,13.16-4.58,18.56a4.135,4.135,0,0,0-.75,1.39c0,1.04,2.96,3.25,4.29,3.25a1.955,1.955,0,0,0,1.57-1.34,39.516,39.516,0,0,0,2.43-4.98,0.388,0.388,0,0,1,.41-0.29c0.4,0,.4.52,0.4,0.81v3.42c0,0.87-.11,2.78-0.11,2.96,0,1.04.93,0.98,2.78,0.98,2.21,0,2.73,0,2.67-1.21a0.819,0.819,0,0,1,.87-0.87h7.72A0.79,0.79,0,0,1,2946.55,1441.6Zm-5.51-42.87c0.98,0.99,1.91,1.86,2.95,2.78a0.867,0.867,0,0,1,.24.53,0.6,0.6,0,0,1-.64.52h-5.8a8.269,8.269,0,0,1-1.22,0,0.589,0.589,0,0,1-.64-0.52,0.83,0.83,0,0,1,.23-0.58c0.99-.87,1.92-1.8,2.85-2.73a1.406,1.406,0,0,1,1.04-.52A1.392,1.392,0,0,1,2941.04,1398.73Zm-8.59,6.61a1.037,1.037,0,0,0,1.22,1.22c1.39,0,2.78-.12,4.12-0.12h4.35c1.33,0,2.72.12,4.12,0.12,1.04,0,1.16-.41,1.21-1.33a0.581,0.581,0,0,1,.41-0.53,0.431,0.431,0,0,1,.29.12c0.75,0.52,3.02,2.09,3.77,2.09,1.39,0,3.48-2.96,3.48-4.18a1.538,1.538,0,0,0-1.04-1.1,41.722,41.722,0,0,1-10.33-7.19,0.226,0.226,0,0,1-.06-0.24,0.271,0.271,0,0,1,.24-0.29,0.815,0.815,0,0,0,.81-0.69c0-.7-0.64-0.81-2.15-1.34a23.25,23.25,0,0,0-3.59-1.1,1.657,1.657,0,0,0-1.22.93,47.54,47.54,0,0,1-13.63,11.83c-0.47.24-1.34,0.64-1.34,1.28,0,1.16,1.97,3.83,3.19,3.83,0.99,0,4.64-2.84,5.57-3.6a1.2,1.2,0,0,0,.23-0.06A0.385,0.385,0,0,1,2932.45,1405.34Zm53.24,28.02c0,2.55-.11,5.05-0.11,7.6,0,1.51.4,2.09,2.96,2.09,2.08,0,2.9-.29,2.9-1.86,0-2.61-.12-5.22-0.12-7.83v-36.25c0-2.15.06-3.43,0.7-4.01a1.372,1.372,0,0,0,.81-0.98c0-.76-0.99-0.87-1.51-0.93-1.04-.12-3.42-0.29-4.41-0.29-0.75,0-1.33.06-1.33,0.98,0,0.58.11,4.01,0.11,6.85v34.63Zm-0.4-30.51c0-.7-1.05-0.81-1.68-0.93-0.12,0-.24-0.06-0.35-0.06-0.47-.06-2.61-0.35-2.9-0.35-0.76,0-.87.53-0.87,1.16v0.7a49.356,49.356,0,0,1-2.03,12.3,4.856,4.856,0,0,0-.29,1.27c0,1.05,2.55,1.57,3.42,1.57,1.1,0,1.28-.64,1.51-1.57a75.755,75.755,0,0,0,2.03-11.89c0.11-1.22.11-1.33,0.69-1.62A0.8,0.8,0,0,0,2985.29,1402.85Zm24.59,31.15a1.355,1.355,0,0,1-1.62,1.56h-5.16c-2.15,0-4.24-.11-6.38-0.11-1.51,0-1.45.69-1.45,2.78s-0.06,2.84,1.45,2.84c2.14,0,4.23-.11,6.38-0.11h18.56c2.14,0,4.23.11,6.38,0.11,1.51,0,1.45-.69,1.45-2.78s0.06-2.84-1.45-2.84c-2.09,0-4.24.11-6.38,0.11h-4.24a1.355,1.355,0,0,1-1.62-1.56v-7.83a1.381,1.381,0,0,1,1.62-1.63h1.63c2.09,0,4.17.18,6.26,0.18,1.45,0,1.39-.87,1.39-2.85,0-2.03.06-2.84-1.5-2.84-2.03,0-4.06.18-6.15,0.18h-1.63a1.381,1.381,0,0,1-1.62-1.63v-6.79a1.394,1.394,0,0,1,1.62-1.62h3.14c2.2,0,4.35.17,6.49,0.17,1.39,0,1.34-.75,1.34-2.78,0-2.15.05-2.84-1.34-2.84-2.14,0-4.29.17-6.49,0.17h-3.14a1.374,1.374,0,0,1-1.62-1.62v-6.03c0-2.04.06-2.96,0.7-3.37,0.52-.41.81-0.52,0.81-0.93,0-.64-0.87-0.69-1.34-0.69-0.92-.12-4.58-0.47-5.33-0.47-0.58,0-1.05.12-1.05,0.81,0,0.18.06,0.41,0.06,0.58,0.12,1.4.23,3.37,0.23,5.11v4.99a1.374,1.374,0,0,1-1.62,1.62h-1.63a1.148,1.148,0,0,1-1.33-1.16v-0.35c0.23-1.27.41-2.2,0.52-2.95,0.29-1.69.35-2.03,1.05-2.5a0.946,0.946,0,0,0,.58-0.75c0-.7-1.16-0.87-1.69-0.99-0.69-.12-3.48-0.7-4-0.7-0.87,0-.87.82-0.93,1.45a56.887,56.887,0,0,1-2.08,11.32,0.53,0.53,0,0,1-.41.29,0.449,0.449,0,0,1-.41-0.35c-0.34-1.57-.69-3.13-1.16-4.64-0.58-2.09-.81-3.02-1.85-3.02-0.41,0-2.9.52-2.9,1.63a3.379,3.379,0,0,0,.17.75,51.99,51.99,0,0,1,1.8,7.83c0.17,0.99.35,1.45,1.45,1.45,0.29,0,.58-0.06.87-0.06a0.6,0.6,0,0,1,.81.52,5.092,5.092,0,0,1-.46,1.16,19.742,19.742,0,0,0-1.22,3.08c0,1.28,3.02,2.09,4,2.09a1.182,1.182,0,0,0,1.16-.81,37.522,37.522,0,0,0,2.61-6.56c0.35-1.1.87-1.33,2.03-1.45h3.02a1.394,1.394,0,0,1,1.62,1.62v6.79a1.381,1.381,0,0,1-1.62,1.63h-2.09c-2.09,0-4.12-.18-6.15-0.18-1.56,0-1.51.81-1.51,2.84s-0.05,2.85,1.45,2.85c2.09,0,4.12-.18,6.21-0.18h2.09a1.4,1.4,0,0,1,1.62,1.63V1434Zm42.4-39.51a0.729,0.729,0,0,0-.7.87c0,0.12.12,1.34,0.12,2.27a53.159,53.159,0,0,1-.64,7.48,1.849,1.849,0,0,1-1.85,1.8c-3.19.58-6.44,1.39-9.69,1.74-0.7.06-1.68,0.06-1.68,0.93,0,0.34.98,6.03,2.37,6.03a4.18,4.18,0,0,0,1.22-.41,49.077,49.077,0,0,1,6.67-2.03,0.732,0.732,0,0,1,.76.76,22.2,22.2,0,0,1-1.45,4.41,46.112,46.112,0,0,1-10.39,16.12,2.2,2.2,0,0,0-.81,1.34c0,1.33,3.71,3.53,4.76,3.53a1.349,1.349,0,0,0,.98-0.58,52.57,52.57,0,0,0,5.75-8.23,65.56,65.56,0,0,0,7.42-17.35c0.41-1.62,1.05-2.09,4.29-2.09,3.54,0,3.72,2.44,3.72,5.28,0,3.77-.93,9.81-2.61,13.11-1.45,2.9-2.9,3.6-6.09,3.6-1.16,0-2.03-.23-2.61-0.23a0.815,0.815,0,0,0-.82.98,11.7,11.7,0,0,0,1.05,4.18c0.58,1.22,1.39,1.33,2.67,1.33a11.861,11.861,0,0,0,10.96-6.26c2.55-4.64,3.48-12.47,3.48-17.75,0-3.25-.7-6.56-3.6-8.47-2.03-1.28-4.23-1.28-6.55-1.28h-0.7a1.122,1.122,0,0,1-1.27-1.16,2.757,2.757,0,0,1,.11-0.69c0.18-.93.29-1.74,0.41-2.38,0.29-2.09.4-3.02,1.51-3.83a0.96,0.96,0,0,0,.52-0.75c0-.64-1.05-0.82-1.51-0.93C3057.21,1395.6,3052.86,1394.49,3052.28,1394.49Zm23.61,0c-0.7,0-2.79,1.75-2.79,2.44a1.375,1.375,0,0,0,.53.81,49.694,49.694,0,0,1,4.11,4.47,1.732,1.732,0,0,0,.82.64c0.75,0,2.78-1.74,2.78-2.67C3081.34,1399.48,3076.47,1394.49,3075.89,1394.49Zm5.45-4.11c-0.58,0-2.78,1.74-2.78,2.43a1.3,1.3,0,0,0,.58.81c1.45,1.45,2.78,2.91,4.11,4.47a1.2,1.2,0,0,0,.82.64c0.69,0,2.78-1.74,2.78-2.67C3086.85,1395.42,3081.98,1390.38,3081.34,1390.38Zm-9.45,10.44c-0.93,0-4.12,1.91-4.12,2.96a1.85,1.85,0,0,0,.52.98c3.65,3.89,5.57,7.66,7.77,12.42a1.661,1.661,0,0,0,1.34,1.33c1.16,0,4.81-2.15,4.81-3.48C3082.21,1413.58,3074.09,1400.82,3071.89,1400.82Zm42.51,13.74a0.624,0.624,0,0,1,.75.53,2.558,2.558,0,0,1-.35.93c-0.46.92-2.61,5.1-3.59,5.1-0.52,0-.58-1.39-0.58-2.32v-0.7c0-1.27-.06-2.43.58-2.84A8.217,8.217,0,0,1,3114.4,1414.56Zm-9.98,4.01c0.58,0,.7.46,0.7,0.98s-0.06,1.11-.06,1.69c0,1.79.17,4.23,0.17,4.75a2.092,2.092,0,0,1-.69,1.8c-1.57,1.22-4.93,3.25-6.96,3.25a1.506,1.506,0,0,1-1.63-1.74C3095.95,1424.6,3103.2,1418.57,3104.42,1418.57Zm3.89-25.29a0.879,0.879,0,0,0-.93.92c-0.29,2.09-.52,4.12-0.81,6.15a2.318,2.318,0,0,1-.58,1.57,2.278,2.278,0,0,1-1.57.52c-1.97.18-3.94,0.23-5.91,0.23-1.05,0-2.04-.05-3.02-0.05-1.05,0-1.39.17-1.39,3.07,0,2.73.34,2.73,2.9,2.73,2.14,0,4.29-.29,6.44-0.47,0.23,0,1.04-.11,1.27-0.11a0.911,0.911,0,0,1,.99.98c0,2.79-1.34,3.08-1.68,3.25-6.56,3.13-13.93,10.21-13.93,17.92,0,3.89,2.5,6.97,6.56,6.97,3.02,0,6.09-1.51,8.58-3.14a1.554,1.554,0,0,1,.64-0.23,0.684,0.684,0,0,1,.64.58,1.033,1.033,0,0,0,.99.81c1.27,0,4.4-1.97,4.4-3.07v-0.29c-0.05-.29-0.34-1.97-0.34-2.15a1.514,1.514,0,0,1,.58-1.16,52.042,52.042,0,0,0,7.77-11.08c0.35-.69.7-1.45,1.57-1.45,0.69,0,5.8,1.86,5.8,8.3,0,7.31-7.49,10.79-13.58,12.41-0.64.18-1.27,0.23-1.27,0.87,0,1.1,1.39,4.64,2.66,4.64,1.92,0,18.33-4.99,18.33-18.15,0-9.92-8.06-14.51-17.05-14.51-1.16,0-2.61.18-3.77,0.29-0.17,0-.35.06-0.46,0.06a0.843,0.843,0,0,1-.93-0.75c0-.64.23-2.09,1.56-2.32,2.32-.35,5.92-1.05,8.18-1.57,1.45-.29,2.85-0.52,2.85-1.62,0-.23-0.47-4.64-1.86-4.64a2.711,2.711,0,0,0-.99.29,45.581,45.581,0,0,1-6.84,1.91,4.647,4.647,0,0,1-.87.18,0.84,0.84,0,0,1-.81-0.87c0-.24.29-1.45,0.34-1.8,0.35-1.39.53-1.68,1.28-2.15a1.1,1.1,0,0,0,.58-0.75c0-.58-0.93-0.76-2.49-1.22C3111.5,1394.2,3108.71,1393.28,3108.31,1393.28Zm56.43,39.56a1.737,1.737,0,0,1-1.56,1.97c-1.74,0-4.53-.99-4.53-3.08a2.406,2.406,0,0,1,2.5-2.32A3.544,3.544,0,0,1,3164.74,1432.84Zm5.4-37.59a7.694,7.694,0,0,0-2.21.64c-3.36,1.33-10.96,2.14-14.67,2.14h-1.39c-1.75,0-1.8.12-1.8,1.45,0,0.99.17,5.34,1.45,5.34,0.93,0,9.1-1.68,10.5-2.03a12.962,12.962,0,0,1,1.39-.23,0.822,0.822,0,0,1,.98.69c0,0.58-1.04,1.63-1.5,2.09a235.008,235.008,0,0,1-18.04,18.22c-0.53.4-1.4,1.04-1.4,1.74,0,0.92,2.96,4.17,4.18,4.17a0.8,0.8,0,0,0,.64-0.4c2.09-2.38,4.18-4.76,6.44-6.96,3.71-3.66,7.71-5.69,12.99-5.69,5.05,0,9.8,2.32,9.8,7.95,0,5.86-5.51,8.93-7.01,8.93a0.72,0.72,0,0,1-.7-0.75,5.8,5.8,0,0,0-1.05-3.72,9.445,9.445,0,0,0-7.71-4.11,7.271,7.271,0,0,0-7.42,7.01c0,5.92,6.84,7.89,11.65,7.89,9.34,0,18.45-5.33,18.45-15.6a11.985,11.985,0,0,0-6.9-11.25,16.954,16.954,0,0,0-7.14-1.74,10.727,10.727,0,0,0-2.38.23,3.237,3.237,0,0,1-.75.11,0.879,0.879,0,0,1-.99-0.75,1.775,1.775,0,0,1,.58-0.99,56.324,56.324,0,0,1,8.42-7.77c0.63-.46,1.27-0.81,1.27-1.22C3175.82,1399.66,3172.46,1395.25,3170.14,1395.25Z" transform="translate(-2496.22 -1390.38)"/>
</svg>
