<svg xmlns="http://www.w3.org/2000/svg" width="394.21" height="42.09" viewBox="0 0 394.21 42.09">
  <defs>
    <style>
      .cls-1 {
        fill-rule: evenodd;
      }
    </style>
  </defs>
  <path id="text-connect-1.svg" class="cls-1" d="M2688.18,6448.5a34.653,34.653,0,0,1-4.56,13.85,37.031,37.031,0,0,1-12.92,12.93,1.089,1.089,0,0,0-.79.78c0,1.06,1.29,3.68,2.49,3.68a5.238,5.238,0,0,0,2.21-1.1,42.418,42.418,0,0,0,15.41-18.77,0.441,0.441,0,0,1,.87,0,41.8,41.8,0,0,0,11.87,16.7c0.78,0.64,4.51,3.63,5.29,3.63,1.24,0,2.99-2.58,2.99-3.73a0.987,0.987,0,0,0-.65-0.87c-10.67-6.21-17.06-16.79-17.06-29.21v-3.08c0-1.75-.42-2.72-2.3-2.72-0.74,0-1.47.05-2.26,0.05h-5.01c-1.1,0-2.25-.09-3.31-0.09-1.2,0-1.15.55-1.15,2.3,0,1.79-.05,2.39,1.15,2.39,1.1,0,2.21-.09,3.31-0.09h3.17c1.29,0,1.29.41,1.29,2.02C2688.22,6447.63,2688.22,6448.04,2688.18,6448.5Zm43.33,19.09a0.99,0.99,0,0,1,.92-0.64,0.558,0.558,0,1,0,.14-1.1,0.352,0.352,0,0,1-.23-0.19c0-.09.04-0.09,0.18-0.09h11.45c1.94,0,3.82.09,5.75,0.09,1.06,0,1.02-.83,1.02-2.25,0-1.47.04-2.3-1.02-2.3-1.93,0-3.81.09-5.75,0.09h-21.71c-1.88,0-3.82-.09-5.7-0.09-1.06,0-1.01.78-1.01,2.3,0,1.42-.05,2.25,1.01,2.25,1.88,0,3.82-.09,5.7-0.09h3.64a0.756,0.756,0,0,1,.87.69,1.183,1.183,0,0,1-.09.41c-1.11,2.35-2.16,4.6-3.45,6.86a1.754,1.754,0,0,1-1.8,1.1l-2.11.14c-1.98.14-2.3,0-2.3,0.65a28.366,28.366,0,0,0,.73,3.17c0.33,1.06.46,1.7,0.97,1.7a0.678,0.678,0,0,0,.51-0.37,1.012,1.012,0,0,1,.87-0.64c4.42-.32,7.59-0.6,11.45-0.92,3.78-.32,7.5-0.69,11.27-1.06,0.1,0,.19-0.04.33-0.04a1.6,1.6,0,0,1,1.47.96c0.23,0.32.41,0.65,0.55,0.88,0.69,1.1.92,1.47,1.47,1.47,0.74,0,3.68-1.15,3.68-2.03,0-.64-3.17-5.1-3.77-5.93-1.06-1.52-2.48-3.41-3.68-4.83a1.335,1.335,0,0,0-1.06-.65c-0.78,0-3.49,1.29-3.49,2.07a17.158,17.158,0,0,0,2.02,2.76,1.033,1.033,0,0,1,.41.79,0.593,0.593,0,0,1-.64.64c-3.63.37-7.27,0.65-10.86,0.83a0.625,0.625,0,0,1-.59-1.01C2729.58,6471.55,2730.68,6469.34,2731.51,6467.59Zm2.53-22.35a65.869,65.869,0,0,0,6.9,7.08,0.568,0.568,0,0,1,.18.37,0.5,0.5,0,0,1-.5.46c-1.11.05-2.17,0.05-3.22,0.05h-8.42c-1.01,0-2.03-.05-3.04-0.05a0.465,0.465,0,0,1-.46-0.46,0.418,0.418,0,0,1,.19-0.37,57.654,57.654,0,0,0,6.85-7.04,1,1,0,0,1,.74-0.41A0.992,0.992,0,0,1,2734.04,6445.24Zm-10.31,10.16c0,1.29,0,2.12.92,2.12,1.29,0,2.9-.09,4.33-0.09h8.42c1.38,0,3.12.09,4.27,0.09,0.88,0,.97-0.6.97-1.75v-0.96a0.566,0.566,0,0,1,.51-0.6,0.4,0.4,0,0,1,.32.14c1.33,0.96,7.13,4.96,8.46,4.96,1.01,0,2.26-2.66,2.26-3.54,0-.55-0.46-0.69-1.52-1.19a45.25,45.25,0,0,1-16.33-13.11,0.229,0.229,0,0,1-.05-0.19,0.277,0.277,0,0,1,.23-0.27,0.909,0.909,0,0,0,.88-0.69,0.786,0.786,0,0,0-.69-0.65c-0.74-.18-4.24-1.06-4.74-1.06a1.2,1.2,0,0,0-.88.74c-3.63,6.39-10.81,12.14-17.25,15.55-0.55.27-1.19,0.5-1.19,1.06,0,0.96,1.47,3.26,2.48,3.26,1.34,0,6.44-3.68,7.68-4.64a0.611,0.611,0,0,1,.42-0.14,0.551,0.551,0,0,1,.5.6v0.36Zm58.33,14.77c0,1.89-1.15,2.53-2.9,2.53-1.15,0-3.35-.51-3.35-1.98,0-1.42,2.25-1.79,3.31-1.79C2779.99,6468.93,2782.06,6468.97,2782.06,6470.17Zm-0.92-27.88a0.562,0.562,0,0,0-.64.65c0,0.14.04,0.32,0.04,0.46,0.19,1.15.56,5.61,0.56,6.58,0,1.01-1.06,1.1-2.17,1.1h-0.73c-2.39,0-6.49-.46-7.04-0.46-0.69,0-.74.55-0.74,1.15s0.05,3.22.46,3.5c0.42,0.32,2.35.36,3.5,0.36h0.6c1.84,0,5.1-.18,5.47-0.18,1.15,0,1.06,1.29,1.11,1.75,0.04,1.33.27,5.7,0.27,6.85a0.839,0.839,0,0,1-.92.97h-0.32a12.1,12.1,0,0,0-1.79-.14c-3.59,0-7.23,1.66-7.23,5.8,0,4.23,4.01,5.98,7.69,5.98,2.76,0,5.84-.92,6.67-3.87a0.741,0.741,0,0,1,.69-0.73c0.59,0,2.89,2.02,3.4,2.53a2.114,2.114,0,0,0,1.29.69c1.06,0,2.67-2.12,2.67-3.18a2.484,2.484,0,0,0-1.2-1.75,25.811,25.811,0,0,0-4.97-3.22c-1.01-.5-1.47-0.59-1.56-1.79-0.05-1.2-.37-8.23-0.37-9.15,0-1.15.55-1.34,1.56-1.48,5.43-.73,5.75-1.05,5.75-1.93,0-.69-0.32-3.86-1.24-3.86a3.522,3.522,0,0,0-.69.14,30.036,30.036,0,0,1-4.6,1.15,1.014,1.014,0,0,1-.96-1.2v-1.29a6.483,6.483,0,0,1,.5-3.26,1.9,1.9,0,0,0,.51-0.92,0.459,0.459,0,0,0-.46-0.42A43.679,43.679,0,0,0,2781.14,6442.29Zm-14.63,1.52a17.273,17.273,0,0,0-2.94-1.19,0.762,0.762,0,0,0-.6.78c-0.5,2.02-1.15,4-1.65,6.02a52.79,52.79,0,0,0-1.61,12.88,33.1,33.1,0,0,0,2.71,14.17c0.32,0.65.69,1.52,1.47,1.52,0.23,0,3.5-.55,3.5-2.34,0-.74-0.09-1.48-0.09-2.21,0-2.67,2.25-7.73,2.25-8.38,0-.55-1.47-1.47-1.98-1.47-0.55,0-1.01,1.52-1.24,2.03-0.46,1.05-.69,1.65-1.01,1.65-0.88,0-1.01-4.37-1.01-5.1a42.359,42.359,0,0,1,2.53-13.99c0.55-1.42.82-1.84,1.88-2.34a0.508,0.508,0,0,0,.42-0.46c0-.46-0.83-0.79-1.2-0.92C2767.66,6444.36,2767.11,6444.09,2766.51,6443.81Zm33.17,26.87a1.307,1.307,0,0,0,.83.87,28.378,28.378,0,0,1,6.99,6.26,1.524,1.524,0,0,0,.92.69c1.06,0,3.36-2.53,3.36-3.54,0-1.15-7.91-7.5-8.97-7.5C2802.03,6467.46,2799.68,6469.89,2799.68,6470.68Zm53.45-14.26c1.7,0,3.41.09,5.11,0.09,1.15,0,1.1-.51,1.1-2.12,0-1.56.05-2.16-1.1-2.16-1.7,0-3.41.09-5.11,0.09h-11.22c-1.7,0-3.41-.09-5.11-0.09-1.15,0-1.1.6-1.1,2.16,0,1.52-.05,2.12,1.1,2.12,1.7,0,3.41-.09,5.11-0.09h11.22Zm-3.13-13.76c-0.04-1.01-.04-1.79.56-2.21a1,1,0,0,0,.55-0.69c0-.55-0.97-0.55-1.38-0.59-0.97-.1-3.13-0.28-4.05-0.28-0.41,0-.87.05-0.87,0.6a1.791,1.791,0,0,0,.04.46,16.192,16.192,0,0,1,.14,2.62,1.1,1.1,0,0,1-1.29,1.24h-7.59c-1.56,0-2.9-.09-4-0.09-2.35,0-3.68.28-3.68,1.89,0,0.59.05,1.42,0.05,2.43v2.17c0,0.59-.1,1.38-0.1,1.93,0,1.06.79,1.01,2.49,1.01,1.52,0,2.39.09,2.39-.97v-0.64a12.045,12.045,0,0,1-.09-1.33v-0.88a1.1,1.1,0,0,1,1.29-1.29h26.12a1.1,1.1,0,0,1,1.29,1.29v1.06c0,0.6-.09,1.47-0.09,1.98,0,1.06.87,0.96,2.44,0.96,1.61,0,2.44.05,2.44-1.01,0-.5-0.1-1.33-0.1-1.93v-2.35c0-1.05.05-2.11,0.05-2.43,0-1.52-1.33-1.84-2.58-1.84-1.7,0-3.4.04-5.1,0.04h-7.64A1.05,1.05,0,0,1,2850,6442.66Zm11.32,21.58c1.84,0,3.68.13,5.57,0.13,1.05,0,1.01-.55,1.01-2.16s0.04-2.16-1.01-2.16c-1.89,0-3.73.09-5.57,0.09h-27.51c-1.84,0-3.72-.09-5.56-0.09-1.06,0-1.02.55-1.02,2.16s-0.04,2.16,1.02,2.16c1.84,0,3.72-.13,5.56-0.13h4.74a1,1,0,0,1,1.1.96v0.28c-1.05,5.93-5.61,9.02-11.22,10.07-0.69.14-1.38,0.14-1.38,0.83,0,0.6,1.01,3.82,2.39,3.82a18.234,18.234,0,0,0,4.51-1.29,16.945,16.945,0,0,0,7.45-5.2,17.465,17.465,0,0,0,3.18-6.71,0.749,0.749,0,0,1,.46-0.65,1.207,1.207,0,0,0,.78-0.69c0-.46-0.69-0.55-2.16-0.92a0.3,0.3,0,0,1-.19-0.27c0-.19.19-0.19,0.32-0.23h4.1a1.121,1.121,0,0,1,1.29,1.28v7c0,0.87-.05,1.79-0.05,2.67,0,4.18,1.98,4.27,5.8,4.27h6.34c2.44,0,3.59.05,4.74-1.7a17.742,17.742,0,0,0,1.89-6.76c0-1.43-2.39-1.84-3.45-1.84s-1.06.5-1.29,2.3c-0.55,3.86-1.1,3.63-2.9,3.63h-4.14c-1.65,0-2.11-.27-2.11-1.93v-7.64a1.134,1.134,0,0,1,1.28-1.28h6.03Zm28.34-19.19a1,1,0,0,1,.73-0.41,1.013,1.013,0,0,1,.78.41,51.892,51.892,0,0,0,10.95,10.54c1.06,0.73,5.84,3.95,6.86,3.95,1.1,0,2.43-2.66,2.43-3.68a1.3,1.3,0,0,0-.96-0.92c-6.58-3.22-12.61-7.63-16.84-13.7a1.492,1.492,0,0,1-.04-0.19,0.277,0.277,0,0,1,.23-0.27,0.748,0.748,0,0,0,.55-0.65c0-.64-0.97-0.73-1.75-0.92-0.74-.14-2.94-0.73-3.5-0.73a0.874,0.874,0,0,0-.73.64c-3.68,6.53-10.17,12.05-16.65,15.73-1.02.55-1.71,0.88-1.71,1.47,0,0.97,1.57,3.27,2.72,3.27,0.83,0,3.59-2.02,4.37-2.58A64.171,64.171,0,0,0,2889.66,6445.05Zm-1.66,18.5a1.074,1.074,0,0,1-1.24,1.28h-3.08c-1.8,0-3.59-.09-5.39-0.09-1.15,0-1.1.55-1.1,2.21s-0.05,2.25,1.1,2.25c1.8,0,3.59-.13,5.39-0.13h3.08a1.091,1.091,0,0,1,1.24,1.28v2.63a1.081,1.081,0,0,1-1.24,1.29h-9.16c-1.88,0-3.77-.14-5.65-0.14-1.11,0-1.06.64-1.06,2.34,0,1.75-.05,2.35,1.06,2.35,1.88,0,3.77-.09,5.65-0.09h25.76c1.89,0,3.78.09,5.66,0.09,1.11,0,1.06-.6,1.06-2.35,0-1.7.05-2.34-1.06-2.34-1.88,0-3.77.14-5.66,0.14h-9.06a1.1,1.1,0,0,1-1.29-1.29v-2.63a1.107,1.107,0,0,1,1.29-1.28h2.99c1.8,0,3.59.13,5.38,0.13,1.2,0,1.15-.59,1.15-2.25s0.05-2.21-1.15-2.21c-1.79,0-3.58.09-5.38,0.09h-2.99a1.09,1.09,0,0,1-1.29-1.28v-2.3a1.1,1.1,0,0,1,1.29-1.29h1.7c1.66,0,3.32.09,4.93,0.09,1.19,0,1.15-.6,1.15-2.25,0-1.57.04-2.21-1.15-2.21-1.61,0-3.27.14-4.93,0.14h-10.9c-1.65,0-3.31-.14-4.97-0.14-1.15,0-1.1.64-1.1,2.21,0,1.74-.05,2.25,1.15,2.25,1.66,0,3.27-.09,4.92-0.09h1.66a1.081,1.081,0,0,1,1.24,1.29v2.3Zm42.83,9.8a22.144,22.144,0,0,0-.97-3.96c-1.01-3.31-1.29-3.82-2.07-3.82-0.69,0-2.39.37-2.39,1.24a3.182,3.182,0,0,0,.23.88,45.152,45.152,0,0,1,1.65,5.84c0.14,0.64.23,1.33,1.02,1.33C2928.8,6474.86,2930.83,6474.4,2930.83,6473.35Zm-11.73-6.63c0-.51-1.11-0.69-1.57-0.78s-1.93-.42-2.25-0.42a0.646,0.646,0,0,0-.6.74,52.712,52.712,0,0,1-1.7,9.48,6.827,6.827,0,0,0-.28,1.24c0,0.83,2.16,1.29,2.81,1.29a0.89,0.89,0,0,0,.87-0.78,84.234,84.234,0,0,0,1.7-9.34,0.813,0.813,0,0,1,.51-0.83A0.687,0.687,0,0,0,2919.1,6466.72Zm16.14-21.85a1,1,0,0,1,1.15.97v0.23a14,14,0,0,1-5.33,9.33,2.837,2.837,0,0,0-1.15,1.2c0,0.78,1.88,2.9,2.76,2.9a2.86,2.86,0,0,0,1.42-.83,18.463,18.463,0,0,0,6.72-12.6,1.185,1.185,0,0,1,1.38-1.2h4.18c1.02,0,1.43.09,1.43,1.1a28.863,28.863,0,0,1-.69,5.89c-0.41,1.61-1.2,1.98-2.85,1.98-0.32,0-1.01-.05-1.38-0.05a3.63,3.63,0,0,0-.65-0.09c-0.73,0-.78.92-0.78,1.47,0,3.09.74,3.18,2.81,3.18,2.44,0,5.2-.19,6.48-2.62,1.25-2.4,1.94-9.39,1.94-12.24,0-2.44-.83-2.85-3.32-2.85-0.96,0-2.11.09-3.58,0.09h-9.85c-1.33,0-2.71-.09-4.09-0.09-1.11,0-1.06.5-1.06,2.21,0,1.61-.05,2.11,1.06,2.11C2932.9,6444.96,2934.14,6444.92,2935.24,6444.87Zm2.67,28.57a1.287,1.287,0,0,1-1.29-1.29v-5.8a1.293,1.293,0,0,1,1.29-1.29h8a1.32,1.32,0,0,1,1.29,1.29v5.8a1.313,1.313,0,0,1-1.29,1.29h-8Zm9.2,6.07c0,0.92.46,0.92,2.35,0.92,1.79,0,2.34,0,2.34-.92,0-.78-0.09-2.21-0.09-3.31v-10.77c0-.92.05-1.79,0.05-2.71,0-1.52-1.38-1.7-2.58-1.7-1.1,0-2.16.04-3.27,0.04h-8c-1.1,0-2.16-.04-3.27-0.04-1.24,0-2.57.18-2.57,1.74,0,0.83.04,1.71,0.04,2.67v10.72c0,1.06-.09,2.39-0.09,3.31s0.6,0.92,2.39.92c1.84,0,2.3,0,2.3-.92,0-.32-0.04-0.64-0.04-0.96a0.926,0.926,0,0,1,1.06-1.06h8.14a1.064,1.064,0,0,1,1.24,1.24v0.83Zm-31.51-32.8a1.576,1.576,0,0,0-.83-0.51c-0.87,0-2.07,2.63-2.07,3.22a0.973,0.973,0,0,0,.46.74,50.415,50.415,0,0,1,4.88,4.6,1.711,1.711,0,0,1,.46,1.01,1.98,1.98,0,0,1-.28.88c-0.37.55-.69,1.1-1.06,1.65a1.991,1.991,0,0,1-1.79,1.06c-0.37.05-.69,0-1.06,0.05-0.92,0-1.33,0-1.33.64a11.219,11.219,0,0,0,.37,2.12c0.09,0.36.18,0.69,0.27,0.96,0.28,1.06.37,1.43,0.83,1.43a0.64,0.64,0,0,0,.51-0.32,0.64,0.64,0,0,1,.64-0.56l3.08-.27h0.19a0.982,0.982,0,0,1,1.01,1.15v7.96c0,2.16-.09,4.28-0.09,6.44,0,1.38.64,1.38,2.25,1.38,1.84,0,2.25-.05,2.25-1.57,0-2.07-.13-4.14-0.13-6.25v-8.51a1.262,1.262,0,0,1,1.24-1.43l0.87-.14h0.23a0.786,0.786,0,0,1,.78.65c0.19,0.82.28,1.47,1.06,1.47,0.6,0,2.67-.69,2.67-1.47a22.687,22.687,0,0,0-1.06-3.96c-1.19-3.45-1.47-4.6-2.39-4.6-0.6,0-2.53.51-2.53,1.29a6.634,6.634,0,0,0,.51,1.52,1.433,1.433,0,0,1,.09.41,0.872,0.872,0,0,1-.88.87l-2.57.28a0.564,0.564,0,0,1-.69-0.51,0.549,0.549,0,0,1,.14-0.36,93.847,93.847,0,0,0,6.16-9.62,0.716,0.716,0,0,1,.69-0.46c0.23,0,.78,0,0.78-0.46,0-.37-0.55-0.64-1.24-1.01a16.275,16.275,0,0,0-3.13-1.38,0.959,0.959,0,0,0-.64.74c-0.83,1.74-1.7,3.4-2.62,5.06a0.959,0.959,0,0,1-.79.5,0.886,0.886,0,0,1-.64-0.32l-0.6-.6a0.977,0.977,0,0,1-.32-0.69,1.123,1.123,0,0,1,.18-0.55c1.2-2.16,2.58-4.83,3.55-7.08a0.542,0.542,0,0,1,.5-0.42c0.37-.04.88-0.04,0.88-0.55,0-.46-0.83-0.78-1.61-1.1a12.453,12.453,0,0,0-2.53-.97c-0.42,0-.46.37-0.6,0.83a66.2,66.2,0,0,1-2.76,6.53,0.807,0.807,0,0,1-.69.46A1.074,1.074,0,0,1,2915.6,6446.71Zm56.53,12.56c0-2.39-.09-2.85.65-3.27a0.927,0.927,0,0,0,.6-0.64,0.739,0.739,0,0,0-.83-0.6c-0.69-.09-3.82-0.32-4.46-0.32-0.51,0-.97.09-0.97,0.69v0.41a25.888,25.888,0,0,1,.18,3.73v2.39c0,6.12-2.8,11.55-8.37,14.35a1.633,1.633,0,0,0-1.15,1.02c0,0.82,1.75,3.31,3.08,3.31a1.756,1.756,0,0,0,.97-0.32,19.16,19.16,0,0,0,6.62-5.8,22.132,22.132,0,0,0,3.68-12.51v-2.44Zm4.65-14.03a58.706,58.706,0,0,0,7.91,8.6,0.479,0.479,0,0,1,.19.37,0.394,0.394,0,0,1-.46.37c-0.6-.05-2.03-0.14-2.58-0.14-0.51,0-1.01,0-1.01.64,0,0.14.04,0.28,0.04,0.46,0.1,1.11.19,2.26,0.19,3.36v14.54c0,1.84-.14,3.63-0.14,5.47,0,1.52.55,1.52,2.53,1.52,1.93,0,2.48,0,2.48-1.52,0-1.84-.13-3.63-0.13-5.47v-14.22a9.823,9.823,0,0,1,.18-2.85,0.746,0.746,0,0,1,.69-0.51,1.429,1.429,0,0,1,.92.42c1.06,0.83,5.61,4.28,6.67,4.28,1.01,0,2.85-2.4,2.85-3.22,0-.6-0.92-1.02-1.33-1.25a58.55,58.55,0,0,1-14.03-11.36,42.21,42.21,0,0,1-2.62-3.31,0.566,0.566,0,0,1-.05-0.23,0.337,0.337,0,0,1,.23-0.28,0.572,0.572,0,0,0,.46-0.55,0.827,0.827,0,0,0-.69-0.69c-0.83-.18-3.96-0.96-4.6-0.96a0.843,0.843,0,0,0-.74.59c-3.35,6.63-11.27,13.76-17.48,17.67a0.832,0.832,0,0,0-.55.73c0,0.51,1.61,3.18,2.76,3.18a3.5,3.5,0,0,0,1.57-.74,66.05,66.05,0,0,0,15.31-14.86,0.953,0.953,0,0,1,.74-0.41A0.864,0.864,0,0,1,2976.78,6445.24Zm56.12,26.72c0,2.72,0,3.36-2.12,3.36-1.1,0-1.79-.13-2.34-0.13-0.92,0-.97.78-0.97,1.47,0,3.45,1.15,3.49,2.67,3.49,3.96,0,7.45-.5,7.45-5.29,0-1.05-.09-2.16-0.09-3.26v-28.06c0-1.84.05-2.4,0.51-2.76a1.08,1.08,0,0,0,.64-0.69c0-.56-0.78-0.56-1.15-0.6-0.97-.05-3.13-0.19-3.96-0.19-0.41,0-.82.05-0.82,0.6a1.333,1.333,0,0,0,.04.37,19.716,19.716,0,0,1,.14,2.94v28.75Zm-8.23-7.91c0,1.8-.1,3.59-0.1,5.38,0,1.29.46,1.34,2.21,1.34,1.8,0,2.21-.05,2.21-1.38,0-1.8-.09-3.54-0.09-5.34v-15.73c0-1.61.04-2.02,0.5-2.35a1.157,1.157,0,0,0,.65-0.69,0.68,0.68,0,0,0-.74-0.55c-0.6-.04-3.49-0.27-4.05-0.27-0.36,0-.78.04-0.78,0.55a1.155,1.155,0,0,0,.05.41,23.8,23.8,0,0,1,.14,3.18v15.45Zm-11.92-20.01c0-.09.05-0.18,0.05-0.27v-1.38c0-1.02.04-1.52,0.5-1.89a0.873,0.873,0,0,0,.51-0.6c0-.55-0.69-0.6-1.1-0.6-0.74-.09-2.95-0.23-3.59-0.23-0.42,0-.83.05-0.83,0.6,0,0.14.05,0.32,0.05,0.46a24.764,24.764,0,0,1,.13,2.58v1.24a1.077,1.077,0,0,1-1.24,1.29h-0.92a0.9,0.9,0,0,1-1.06-.88c0-.09.05-0.23,0.05-0.32,0.32-1.65.32-1.93,0.69-2.11a0.836,0.836,0,0,0,.64-0.65c0-.46-0.59-0.6-1.88-0.87-0.28-.09-2.21-0.42-2.39-0.42a0.592,0.592,0,0,0-.6.69,31.874,31.874,0,0,1-2.21,8.79,4.463,4.463,0,0,0-.46,1.24c0,0.74,2.39,1.47,3.04,1.47,0.82,0,.96-0.78,1.38-1.79a1.439,1.439,0,0,1,1.65-1.1h2.07a1.071,1.071,0,0,1,1.24,1.28v1.25a1.071,1.071,0,0,1-1.24,1.28h-2.48c-1.66,0-3.31-.09-4.97-0.09-1.24,0-1.2.55-1.2,2.16,0,1.52-.04,2.17,1.15,2.17,1.71,0,3.36-.14,5.02-0.14h2.48a1.091,1.091,0,0,1,1.24,1.29v1.28a1.077,1.077,0,0,1-1.24,1.29h-1.15c-1.15,0-2.3-.09-3.45-0.09-1.38,0-2.39.23-2.39,1.84,0,0.92.05,2.02,0.05,3.36v5.33c0,1.57-.05,3.09-0.05,4.65,0,1.38.46,1.34,2.21,1.34,1.79,0,2.21,0,2.21-1.38,0-1.52-.05-3.09-0.05-4.61v-5.15a1.081,1.081,0,0,1,1.24-1.29h1.38a1.077,1.077,0,0,1,1.24,1.29v5.48c0,2.34-.09,4.69-0.09,7.04,0,1.33.42,1.38,2.26,1.38s2.25-.05,2.25-1.34c0-2.39-.14-4.74-0.14-7.08v-5.48a1.114,1.114,0,0,1,1.29-1.29h1.47a1.1,1.1,0,0,1,1.29,1.29v4.56c0,1.56.05,2.16-1.2,2.16-0.46,0-1.05-.05-1.24-0.05-0.64,0-.64.79-0.64,1.34,0,2.48.55,3.03,2.44,3.03,3.12,0,5.1-.55,5.1-4.14,0-.87-0.09-1.7-0.09-2.57v-4.6c0-1.34.09-2.4,0.09-3.27,0-1.66-1.1-1.84-2.48-1.84-1.15,0-2.3.09-3.45,0.09h-1.29a1.114,1.114,0,0,1-1.29-1.29v-1.28a1.129,1.129,0,0,1,1.29-1.29h2.3c1.66,0,3.31.14,5.01,0.14,1.2,0,1.15-.6,1.15-2.17,0-1.61.05-2.16-1.19-2.16-1.66,0-3.31.09-4.97,0.09h-2.3a1.107,1.107,0,0,1-1.29-1.28v-1.25a1.107,1.107,0,0,1,1.29-1.28h2.39c1.43,0,3.13.09,4,.09,0.83,0,.83-0.51.83-2.07,0-1.66,0-2.16-.83-2.16-1.15,0-2.57.09-4,.09h-2.39A1.116,1.116,0,0,1,3012.75,6444.04Zm44.99,24.29a4.038,4.038,0,0,1,4.09,4.09A4.09,4.09,0,1,1,3057.74,6468.33Zm0-2.3a6.4,6.4,0,1,0,6.39,6.39A6.376,6.376,0,0,0,3057.74,6466.03Z" transform="translate(-2669.91 -6438.47)"/>
</svg>
