<svg xmlns="http://www.w3.org/2000/svg" width="680.41" height="55.65" viewBox="0 0 680.41 55.65">
  <defs>
    <style>
      .cls-1 {
        fill-rule: evenodd;
      }
    </style>
  </defs>
  <path id="_OOKINAWA_おおきなわ_は_" data-name="「OOKINAWA（おおきなわ）」は、" class="cls-1" d="M2533.12,1386.78c-0.92,0-1.85-.11-2.72-0.11-1.98,0-2.79.52-2.79,2.55,0,1.91.12,3.77,0.12,5.68v36.72c0,2.38-.12,4.76-0.12,7.14,0,2.2.18,2.32,2.79,2.32,2.55,0,2.78-.06,2.78-2.27,0-2.37-.11-4.81-0.11-7.19v-36.95c0-1.62.23-2.55,2.08-2.55h8.7c0.93,0,1.92.17,2.9,0.17,1.63,0,1.63-.75,1.63-2.9,0-1.91.06-2.78-1.57-2.78-1.16,0-2.43.17-3.77,0.17h-9.92Zm46.63,26.11a27.872,27.872,0,0,0-.43-4.35,15.646,15.646,0,0,0-1.22-3.8,12.02,12.02,0,0,0-2.41-3.34,14.83,14.83,0,0,0-11.13-4.52,15.794,15.794,0,0,0-6.27,1.16,15.441,15.441,0,0,0-4.93,3.36,12.227,12.227,0,0,0-2.41,3.34,14.386,14.386,0,0,0-1.18,3.8,29.219,29.219,0,0,0-.41,4.35c-0.04,1.54-.06,3.21-0.06,4.98s0.02,3.45.06,4.99a29.219,29.219,0,0,0,.41,4.35,14.386,14.386,0,0,0,1.18,3.8,12.227,12.227,0,0,0,2.41,3.34,15.441,15.441,0,0,0,4.93,3.36,15.972,15.972,0,0,0,6.27,1.16,15.734,15.734,0,0,0,6.23-1.16,15.542,15.542,0,0,0,4.9-3.36,12.02,12.02,0,0,0,2.41-3.34,15.646,15.646,0,0,0,1.22-3.8,27.872,27.872,0,0,0,.43-4.35c0.04-1.54.06-3.21,0.06-4.99S2579.79,1414.43,2579.75,1412.89Zm-8.09,9.88a24.014,24.014,0,0,1-.32,3.22,7.271,7.271,0,0,1-.64,2.06,6.762,6.762,0,0,1-.98,1.42,6.6,6.6,0,0,1-2.18,1.6,7.049,7.049,0,0,1-2.98.61,7.27,7.27,0,0,1-3.02-.61,6.482,6.482,0,0,1-2.2-1.6,5.726,5.726,0,0,1-.96-1.42,8.07,8.07,0,0,1-.61-2.06,24.014,24.014,0,0,1-.32-3.22c-0.06-1.29-.09-2.92-0.09-4.9s0.03-3.6.09-4.9a24.191,24.191,0,0,1,.32-3.22,8.2,8.2,0,0,1,.61-2.06,5.917,5.917,0,0,1,.96-1.42,6.459,6.459,0,0,1,2.2-1.59,7.115,7.115,0,0,1,3.02-.61,6.9,6.9,0,0,1,2.98.61,6.575,6.575,0,0,1,2.18,1.59,7.031,7.031,0,0,1,.98,1.42,7.377,7.377,0,0,1,.64,2.06,24.191,24.191,0,0,1,.32,3.22c0.06,1.3.09,2.93,0.09,4.9S2571.72,1421.48,2571.66,1422.77Zm44.86-9.88a27.872,27.872,0,0,0-.43-4.35,15.224,15.224,0,0,0-1.22-3.8,12.02,12.02,0,0,0-2.41-3.34,14.83,14.83,0,0,0-11.13-4.52,15.794,15.794,0,0,0-6.27,1.16,15.552,15.552,0,0,0-4.93,3.36,12.184,12.184,0,0,0-2.4,3.34,14.4,14.4,0,0,0-1.19,3.8,30.614,30.614,0,0,0-.41,4.35c-0.04,1.54-.06,3.21-0.06,4.98s0.02,3.45.06,4.99a30.614,30.614,0,0,0,.41,4.35,14.4,14.4,0,0,0,1.19,3.8,12.184,12.184,0,0,0,2.4,3.34,15.552,15.552,0,0,0,4.93,3.36,15.972,15.972,0,0,0,6.27,1.16,15.7,15.7,0,0,0,6.23-1.16,15.542,15.542,0,0,0,4.9-3.36,12.02,12.02,0,0,0,2.41-3.34,15.224,15.224,0,0,0,1.22-3.8,27.872,27.872,0,0,0,.43-4.35c0.04-1.54.06-3.21,0.06-4.99S2616.56,1414.43,2616.52,1412.89Zm-8.09,9.88a24.014,24.014,0,0,1-.32,3.22,7.292,7.292,0,0,1-.63,2.06,6.8,6.8,0,0,1-.99,1.42,6.6,6.6,0,0,1-2.18,1.6,7.049,7.049,0,0,1-2.98.61,7.3,7.3,0,0,1-3.02-.61,6.482,6.482,0,0,1-2.2-1.6,5.726,5.726,0,0,1-.96-1.42,8.494,8.494,0,0,1-.61-2.06,25.791,25.791,0,0,1-.32-3.22c-0.06-1.29-.08-2.92-0.08-4.9s0.02-3.6.08-4.9a26,26,0,0,1,.32-3.22,8.635,8.635,0,0,1,.61-2.06,5.917,5.917,0,0,1,.96-1.42,6.459,6.459,0,0,1,2.2-1.59,7.147,7.147,0,0,1,3.02-.61,6.9,6.9,0,0,1,2.98.61,6.575,6.575,0,0,1,2.18,1.59,7.075,7.075,0,0,1,.99,1.42,7.4,7.4,0,0,1,.63,2.06,24.191,24.191,0,0,1,.32,3.22c0.06,1.3.09,2.93,0.09,4.9S2608.49,1421.48,2608.43,1422.77Zm49.21,15.75-14.67-24.88,13.69-16.41h-9.8l-14.56,17.98v-17.98h-8.06v41.29h8.06v-12.41l5.33-6.38,10.62,18.79h9.39Zm18.45,0v-41.29h-8.06v41.29h8.06Zm46.46,0v-41.29h-8.07v25.28l-16.35-25.28h-7.19v41.29H2699v-25.34l16.35,25.34h7.2Zm46.74,0-15.08-41.29h-6.32l-15.02,41.29h8.41l2.49-7.31h14.68l2.43,7.31h8.41Zm-12.99-14.09h-10.26l5.22-15.02Zm63.8-27.2h-8.41l-6.44,26.04-7.54-26.04h-6.03l-7.54,26.04-6.38-26.04h-8.41l11.02,41.29h6.73l7.6-25.05,7.6,25.05h6.72Zm34.16,41.29-15.08-41.29h-6.32l-15.02,41.29h8.41l2.49-7.31h14.68l2.43,7.31h8.41Zm-12.99-14.09H2831l5.22-15.02Zm35.7,14.32a2.29,2.29,0,0,0,1.44.99c0.76,0,2.47-1.35,2.47-2.2a1.681,1.681,0,0,0-.63-1.04c-4.86-5.17-7.87-11.42-7.87-18.62s3.01-13.46,7.87-18.63a1.745,1.745,0,0,0,.63-1.08c0-.72-1.62-2.16-2.52-2.16a2.736,2.736,0,0,0-1.48,1.08c-5.31,5.8-8.55,12.82-8.55,20.79A30.4,30.4,0,0,0,2876.97,1438.75Zm41.8-29.74c-0.99-.81-2.83-2.34-3.37-2.34-0.72,0-2.7,2.25-2.7,2.93a1.552,1.552,0,0,0,.81,1.08,64.242,64.242,0,0,1,5.98,5.04,1.838,1.838,0,0,0,.99.54c0.9,0,2.84-2.21,2.84-3.06,0-.5-2.25-2.39-3.47-3.33C2919.49,1409.6,2919.13,1409.28,2918.77,1409.01Zm-21.15,17.82c0,0.18.05,0.4,0.05,0.63,0,0.09.09,1.93,0.09,1.98a0.3,0.3,0,0,1-.32.36,0.93,0.93,0,0,1-.54-0.27,10.615,10.615,0,0,0-2.29-1.4,1.022,1.022,0,0,0-.99.9,1.393,1.393,0,0,0,.54.86,9.141,9.141,0,0,1,2.74,3.51c0.36,0.76.68,1.71,1.67,1.71,1.21,0,3.96-1.08,3.96-3.29,0-.45-0.32-4.5-0.41-5.44-0.04-.63-0.13-2.43-0.13-2.97a1.492,1.492,0,0,1,.72-1.39,17.526,17.526,0,0,1,7.92-2.16c2.52,0,5.4,1.39,5.4,4.23,0,3.28-3.83,4.13-6.44,4.13a36.143,36.143,0,0,1-3.69-.4c-0.67,0-.81.58-0.81,1.17a8.848,8.848,0,0,0,.72,3.24c0.23,0.45,1.17.49,1.89,0.49h0.54c2.7,0,6.75-.45,9.05-2.02a7.944,7.944,0,0,0,3.6-6.7c0-5.4-4.82-8.51-9.81-8.51a21.023,21.023,0,0,0-7.47,1.49,4.4,4.4,0,0,1-1.13.4c-0.58,0-.67-0.99-0.67-1.75V1415c0-2.07.09-2.39,1.75-2.7,3.42-.59,4.19-0.59,4.19-1.76,0-.76-0.14-3.69-1.17-3.69a2.511,2.511,0,0,0-.77.23c-0.45.13-2.52,0.76-2.83,0.76a0.789,0.789,0,0,1-.77-0.76c0-.18.05-0.45,0.05-0.63,0.04-.41.09-0.77,0.13-1.04,0.14-1.39.18-1.93,0.86-2.47a1.237,1.237,0,0,0,.45-0.72,0.943,0.943,0,0,0-.9-0.59c-0.9-.18-3.92-0.81-4.59-0.81a0.577,0.577,0,0,0-.59.68c0,0.18.09,1.21,0.09,2.11,0,1.26-.04,2.52-0.09,3.78a1.812,1.812,0,0,1-.36,1.35,2.362,2.362,0,0,1-1.66.54c-1.4.18-2.97,0.27-4.36,0.32-0.86.04-.95,0.22-0.95,1.44,0,3.28.72,3.33,1.31,3.33,0.67,0,3.73-.54,4.58-0.72,0.09,0,.18-0.05.27-0.05a0.98,0.98,0,0,1,.99,1.04v0.45c0,0.67-.04,1.35-0.04,2.02v1.53c0,1.4-.18,1.44-1.89,2.48-2.47,1.53-4.86,3.15-7.38,4.59-0.54.31-1.03,0.44-1.03,0.94,0,0.9,1.8,4.27,2.7,4.27a1.381,1.381,0,0,0,.67-0.36c0.77-.67,6.12-4.99,6.66-4.99C2897.58,1425.57,2897.58,1426.02,2897.62,1426.83Zm62.1-17.82c-0.99-.81-2.83-2.34-3.37-2.34-0.72,0-2.7,2.25-2.7,2.93a1.552,1.552,0,0,0,.81,1.08,64.242,64.242,0,0,1,5.98,5.04,1.838,1.838,0,0,0,.99.54c0.9,0,2.84-2.21,2.84-3.06,0-.5-2.25-2.39-3.47-3.33C2960.44,1409.6,2960.08,1409.28,2959.72,1409.01Zm-21.15,17.82c0,0.18.05,0.4,0.05,0.63,0,0.09.09,1.93,0.09,1.98a0.3,0.3,0,0,1-.32.36,0.93,0.93,0,0,1-.54-0.27,10.615,10.615,0,0,0-2.29-1.4,1.022,1.022,0,0,0-.99.9,1.393,1.393,0,0,0,.54.86,9.141,9.141,0,0,1,2.74,3.51c0.36,0.76.68,1.71,1.67,1.71,1.21,0,3.96-1.08,3.96-3.29,0-.45-0.32-4.5-0.41-5.44-0.04-.63-0.13-2.43-0.13-2.97a1.492,1.492,0,0,1,.72-1.39,17.526,17.526,0,0,1,7.92-2.16c2.52,0,5.4,1.39,5.4,4.23,0,3.28-3.83,4.13-6.44,4.13a36.143,36.143,0,0,1-3.69-.4c-0.67,0-.81.58-0.81,1.17a8.848,8.848,0,0,0,.72,3.24c0.23,0.45,1.17.49,1.89,0.49h0.54c2.7,0,6.75-.45,9.05-2.02a7.944,7.944,0,0,0,3.6-6.7c0-5.4-4.82-8.51-9.81-8.51a21.023,21.023,0,0,0-7.47,1.49,4.4,4.4,0,0,1-1.13.4c-0.58,0-.67-0.99-0.67-1.75V1415c0-2.07.09-2.39,1.75-2.7,3.42-.59,4.19-0.59,4.19-1.76,0-.76-0.14-3.69-1.17-3.69a2.511,2.511,0,0,0-.77.23c-0.45.13-2.52,0.76-2.83,0.76a0.789,0.789,0,0,1-.77-0.76c0-.18.05-0.45,0.05-0.63,0.04-.41.09-0.77,0.13-1.04,0.14-1.39.18-1.93,0.86-2.47a1.237,1.237,0,0,0,.45-0.72,0.943,0.943,0,0,0-.9-0.59c-0.9-.18-3.92-0.81-4.59-0.81a0.577,0.577,0,0,0-.59.68c0,0.18.09,1.21,0.09,2.11,0,1.26-.04,2.52-0.09,3.78a1.812,1.812,0,0,1-.36,1.35,2.362,2.362,0,0,1-1.66.54c-1.39.18-2.97,0.27-4.36,0.32-0.86.04-.95,0.22-0.95,1.44,0,3.28.72,3.33,1.31,3.33,0.67,0,3.73-.54,4.58-0.72,0.09,0,.18-0.05.27-0.05a0.98,0.98,0,0,1,.99,1.04v0.45c0,0.67-.04,1.35-0.04,2.02v1.53c0,1.4-.18,1.44-1.89,2.48-2.47,1.53-4.86,3.15-7.38,4.59-0.54.31-1.03,0.44-1.03,0.94,0,0.9,1.8,4.27,2.7,4.27a1.381,1.381,0,0,0,.67-0.36c0.77-.67,6.12-4.99,6.66-4.99C2938.53,1425.57,2938.53,1426.02,2938.57,1426.83Zm45.41-27.94c-0.77,0-3.92.63-3.92,1.57a3.329,3.329,0,0,0,.54,1.17,12.462,12.462,0,0,1,1.26,2.75,1.1,1.1,0,0,1-1.17,1.03,27,27,0,0,1-3.46.45c-0.63.05-1.8,0-1.8,0.95a11.353,11.353,0,0,0,.76,2.88,0.976,0.976,0,0,0,.99.76,40.73,40.73,0,0,0,5.13-.81c0.32-.04,1.17-0.27,1.4-0.27,0.9,0,1.71,2.52,1.71,2.61a1.115,1.115,0,0,1-.99.86,46.657,46.657,0,0,1-9.58,1.53c-1.17.09-1.98,0-1.98,0.85a11.169,11.169,0,0,0,.54,2.75,1.173,1.173,0,0,0,1.17,1.12c2.29,0,9.62-1.53,11.96-2.25a1.451,1.451,0,0,1,.63-0.13,1.435,1.435,0,0,1,1.22,1.08,34.142,34.142,0,0,1,1.71,3.28,0.406,0.406,0,0,1-.41.41,1.889,1.889,0,0,1-.45-0.09,13.477,13.477,0,0,0-4.45-.77c-4.55,0-8.55,2.43-8.55,7.33,0,3.51,2.25,6.03,5.4,7.25a23.571,23.571,0,0,0,8.68,1.17c2.12,0,2.57-.09,2.57-2.88,0-1.31-.18-2.07-1.08-2.07a10.783,10.783,0,0,0-1.31.09,19.461,19.461,0,0,1-2.74.22c-2.43,0-7.02-.72-7.02-3.96,0-2.33,2.56-3.05,4.45-3.05a12.036,12.036,0,0,1,8.28,3.19,0.972,0.972,0,0,0,.72.36c0.99,0,3.65-1.89,3.65-2.92a4.649,4.649,0,0,0-1.08-1.94c-0.81-1.03-4.55-6.84-4.55-7.83a1.475,1.475,0,0,1,1.26-1.21c1.22-.5,2.43-1.04,3.6-1.62,0.9-.5,1.89-0.9,1.89-1.58s-1.53-3.46-2.29-3.46a2.574,2.574,0,0,0-1.08.49c-0.95.59-4.41,2.61-5.36,2.61-0.54,0-.85-0.58-1.35-1.84a1.7,1.7,0,0,1-.22-0.68,1.155,1.155,0,0,1,1.03-.9,30.448,30.448,0,0,0,3.24-1.48,1.508,1.508,0,0,0,.95-1.08c0-.77-1.17-3.51-1.98-3.51a3.812,3.812,0,0,0-1.13.45,15.278,15.278,0,0,1-3.46,1.53c-0.9,0-1.17-.95-1.53-1.98C2985.15,1399.61,2985.06,1398.89,2983.98,1398.89Zm44.46,29.56c2.25,0,2.29.49,2.29,1.39,0,1.58-.72,2.43-2.34,2.43-1.17,0-2.97-.72-2.97-2.11C3025.42,1428.72,3027.36,1428.45,3028.44,1428.45Zm2.2-15.88a0.912,0.912,0,0,0-1.08.99c0,0.22.05,0.4,0.05,0.63,0.13,1.75.81,8.28,0.81,9.72a0.791,0.791,0,0,1-.95.76h-1.17c-3.55,0-7.47,1.44-7.47,5.58,0,4.18,4.28,6.12,7.92,6.12,3.06,0,5.72-1.13,6.26-4.41a0.985,0.985,0,0,1,.72-1.04c0.72,0,2.92,1.58,3.6,2.07a2.239,2.239,0,0,0,1.17.63c1.12,0,2.79-2.56,2.79-3.28,0-1.08-5.31-3.56-6.35-3.96-0.13-.05-0.31-0.14-0.45-0.18a1.748,1.748,0,0,1-1.39-1.12c-0.23-.95-0.45-7.43-0.45-8.73,0-.95.09-2.3,0.09-2.39a1,1,0,0,0-.9-0.94A18.828,18.828,0,0,0,3030.64,1412.57Zm6.89-6.93c-0.95,0-3.02,2.47-3.02,3.1a1.16,1.16,0,0,0,.59.72,25.4,25.4,0,0,1,5.62,5.81,1.509,1.509,0,0,0,.99.81c0.81,0,3.38-2.03,3.38-3.11C3045.09,1411.8,3038.65,1405.64,3037.53,1405.64Zm-15.12-7.34c-0.41,0-.41.45-0.41,0.77,0,1.44-.76,6.43-1.44,7.56a1.545,1.545,0,0,1-1.35.72,39.866,39.866,0,0,1-4.63.22h-2.07a0.658,0.658,0,0,0-.81.72c0,0.45.23,2.07,0.32,2.61,0.18,1.04.36,1.44,1.12,1.44,1.04,0,4.5-.45,4.86-0.45a0.613,0.613,0,0,1,.63.59,16.937,16.937,0,0,1-1.04,2.74,82.381,82.381,0,0,1-5.35,10.4,4.983,4.983,0,0,0-.81,1.61c0,0.95,3.02,2.25,4.01,2.25a0.9,0.9,0,0,0,.9-0.63,115.249,115.249,0,0,0,7.33-16.01c0.54-1.49.49-1.8,2.11-2.07,4.14-.77,4.68-0.86,4.68-1.85a21.265,21.265,0,0,0-.22-2.38c-0.09-.54-0.14-1.35-0.68-1.35a1.5,1.5,0,0,0-.45.09,22.66,22.66,0,0,1-2.56.67,0.523,0.523,0,0,1-.5-0.58,13.87,13.87,0,0,1,.5-2.03,7.686,7.686,0,0,1,.81-2.38,1.35,1.35,0,0,0,.72-0.81,0.913,0.913,0,0,0-.72-0.54C3026.64,1399.38,3022.9,1398.3,3022.41,1398.3Zm38.29,0.68a0.545,0.545,0,0,0-.67.63c0,0.31.04,0.81,0.04,1.44,0,1.53-.09,3.06-0.09,4.59a4.156,4.156,0,0,1-.22,1.84,1.721,1.721,0,0,1-1.4.77,26.241,26.241,0,0,1-4.94.45h-0.63c-0.59,0-1.04.09-1.04,0.76a18.952,18.952,0,0,0,.72,3.42,1.242,1.242,0,0,0,1.04,1.08,45.177,45.177,0,0,0,4.76-1.08,4.413,4.413,0,0,1,.77-0.13,0.8,0.8,0,0,1,.72.94v0.59a3.7,3.7,0,0,1-.27,1.75c-1.62,3.38-4.95,7.34-7.6,10.03a3.351,3.351,0,0,0-1.13,1.53c0,0.86,2.57,3.47,3.38,3.47a0.94,0.94,0,0,0,.67-0.63c0.68-1.04,2.52-3.38,3.37-4.41a1.8,1.8,0,0,1,.9-0.72,0.6,0.6,0,0,1,.45.72c0,1.44,0,2.92-.04,4.36,0,0.23-.09,2.16-0.14,3.56,0,0.22-.04,1.08-0.04,1.44,0,0.9.58,0.94,1.89,0.94,2.97,0,3.37-.27,3.37-0.76s-0.27-4.77-.31-6.03c-0.14-2.61-.18-5.26-0.18-7.92a2.6,2.6,0,0,1,.54-1.8c2.38-2.92,7.6-6.39,11.43-6.39,3.64,0,5.89,3.24,5.89,6.62,0,5.89-6.03,8.5-10.93,9.62-0.63.14-1.17,0.27-1.17,1.04,0,0.94,1.21,3.73,2.47,3.73a13.359,13.359,0,0,0,3.69-1.08c5.85-2.38,10.94-6.7,10.94-13.49,0-5.94-4.37-11.07-10.49-11.07-4.59,0-8.1,2.47-11.43,5.35a1.2,1.2,0,0,1-.58.41c-0.23,0-.27-0.27-0.27-0.72,0-.77,1.66-2.88,2.2-3.47a1.813,1.813,0,0,0,.63-0.94,5.92,5.92,0,0,0-1.75-2.43c-0.5-.09-0.68-0.18-0.68-0.68,0-.54.23-2.61,0.32-3.24,0.18-1.89.27-1.84,0.81-2.38a0.844,0.844,0,0,0,.31-0.59,0.669,0.669,0,0,0-.54-0.54C3064.93,1399.43,3061.33,1398.98,3060.7,1398.98Zm32.09-1.98a2.29,2.29,0,0,0-1.44-.99c-0.76,0-2.47,1.35-2.47,2.2a1.681,1.681,0,0,0,.63,1.04c4.86,5.17,7.87,11.43,7.87,18.63s-3.01,13.45-7.87,18.62a1.7,1.7,0,0,0-.63,1.08c0,0.72,1.62,2.16,2.52,2.16a2.736,2.736,0,0,0,1.48-1.08c5.31-5.8,8.55-12.82,8.55-20.78A30.427,30.427,0,0,0,3092.79,1397Zm30.67,42.96c0.87,0,1.8.12,2.73,0.12,1.91,0,2.73-.53,2.73-2.56,0-1.91-.12-3.77-0.12-5.68v-36.72c0-2.38.12-4.76,0.12-7.13,0-2.21-.12-2.32-2.79-2.32-2.49,0-2.78.05-2.78,2.14,0,2.44.11,4.88,0.11,7.31v36.95c0,1.63-.23,2.55-2.08,2.55h-8.65c-0.98,0-1.97-.17-2.96-0.17-1.62,0-1.56.81-1.56,3.02,0,1.85,0,2.66,1.51,2.66,1.16,0,2.43-.17,3.82-0.17h9.92Zm48.26-9.15c0,2.37-1.45,3.19-3.65,3.19-1.45,0-4.24-.64-4.24-2.5,0-1.8,2.85-2.26,4.18-2.26C3169.11,1429.24,3171.72,1429.3,3171.72,1430.81Zm-1.16-35.16a0.711,0.711,0,0,0-.81.82c0,0.17.06,0.4,0.06,0.58,0.23,1.45.69,7.07,0.69,8.29,0,1.28-1.33,1.39-2.72,1.39h-0.93c-3.02,0-8.18-.58-8.88-0.58-0.87,0-.92.7-0.92,1.45s0.05,4.06.58,4.41c0.52,0.41,2.95.47,4.4,0.47h0.76c2.32,0,6.44-.24,6.9-0.24,1.45,0,1.34,1.63,1.39,2.21,0.06,1.68.35,7.19,0.35,8.64a1.059,1.059,0,0,1-1.16,1.22h-0.4a14.457,14.457,0,0,0-2.27-.17c-4.52,0-9.1,2.08-9.1,7.3,0,5.34,5.04,7.55,9.68,7.55,3.48,0,7.37-1.16,8.41-4.88a0.953,0.953,0,0,1,.87-0.93c0.76,0,3.66,2.56,4.3,3.2a2.658,2.658,0,0,0,1.62.87c1.34,0,3.37-2.67,3.37-4.01a3.133,3.133,0,0,0-1.51-2.2,31.916,31.916,0,0,0-6.27-4.06c-1.27-.64-1.85-0.76-1.97-2.26-0.06-1.51-.46-10.39-0.46-11.55,0-1.45.69-1.68,1.97-1.85,6.84-.93,7.25-1.34,7.25-2.44,0-.87-0.41-4.87-1.57-4.87a4.607,4.607,0,0,0-.87.17,36.439,36.439,0,0,1-5.8,1.45,1.276,1.276,0,0,1-1.22-1.51v-1.62c0-2.55.29-3.54,0.64-4.12a2.338,2.338,0,0,0,.64-1.16,0.571,0.571,0,0,0-.58-0.52A54.839,54.839,0,0,0,3170.56,1395.65Zm-18.44,1.92a21.611,21.611,0,0,0-3.72-1.51,0.952,0.952,0,0,0-.75.99c-0.64,2.55-1.45,5.04-2.09,7.6a66.781,66.781,0,0,0-2.03,16.24c0,6.15.81,12.29,3.42,17.86,0.41,0.82.87,1.92,1.86,1.92,0.29,0,4.41-.7,4.41-2.96,0-.93-0.12-1.86-0.12-2.78,0-3.37,2.84-9.75,2.84-10.56,0-.7-1.85-1.86-2.49-1.86-0.7,0-1.28,1.92-1.57,2.55-0.58,1.34-.87,2.09-1.27,2.09-1.1,0-1.28-5.51-1.28-6.44a53.616,53.616,0,0,1,3.19-17.63c0.7-1.8,1.05-2.32,2.38-2.96a0.608,0.608,0,0,0,.52-0.58c0-.58-1.04-0.98-1.51-1.16C3153.57,1398.27,3152.87,1397.92,3152.12,1397.57Zm40.65,33.87a1.657,1.657,0,0,0,1.05,1.11,35.624,35.624,0,0,1,8.81,7.89,1.942,1.942,0,0,0,1.16.87c1.34,0,4.24-3.19,4.24-4.47,0-1.45-9.98-9.46-11.31-9.46C3195.73,1427.38,3192.77,1430.46,3192.77,1431.44Z" transform="translate(-2527.62 -1385.66)"/>
</svg>
