<svg xmlns="http://www.w3.org/2000/svg" width="564.061" height="33.63" viewBox="0 0 564.061 33.63">
  <defs>
    <style>
      .cls-1 {
        fill-rule: evenodd;
      }
    </style>
  </defs>
  <path id="クリエイティブ集団を目指しています_" data-name="クリエイティブ集団を目指しています。" class="cls-1" d="M1011.47,1198.41a0.585,0.585,0,0,1-.62-0.61,5.641,5.641,0,0,1,.65-1.3c0.62-1.11.72-1.29,1.23-1.47a0.541,0.541,0,0,0,.32-0.4c0-.4-1.84-1.08-2.16-1.26a12.088,12.088,0,0,0-1.91-.79,1.092,1.092,0,0,0-.58.86,33.2,33.2,0,0,1-9.615,12.9,0.562,0.562,0,0,0-.325.5c0,0.76,2.63,2.13,3.06,2.13,0.98,0,5.12-4.94,5.8-5.91a1.637,1.637,0,0,1,1.52-1.01h6.84c0.51,0,1.08.04,1.08,0.51,0,0.9-2.16,4.39-2.77,5.29a31.931,31.931,0,0,1-13.91,11.53,0.9,0.9,0,0,0-.719.65c0,0.68,2.269,2.45,3.059,2.45,0.76,0,4.15-2.13,4.94-2.63,6.63-4.29,10.16-9.55,13.69-16.39a21.032,21.032,0,0,1,1.12-1.95,2.252,2.252,0,0,0,.43-0.9c0-.47-1.59-2.45-2.31-2.45-0.14,0-.28.04-0.39,0.04a8.555,8.555,0,0,1-2.02.21h-6.41Zm40.67-1.66a3.041,3.041,0,0,1,.25-1.54,0.74,0.74,0,0,0,.33-0.51c0-.32-0.43-0.36-0.72-0.43a30.4,30.4,0,0,0-3.57-.36c-0.29,0-.43.07-0.43,0.36a3.17,3.17,0,0,0,.07.61,18.864,18.864,0,0,1,.11,2.49v7.82a45.126,45.126,0,0,1-.43,6.95c-0.62,4.07-2.89,6.12-6.42,7.96a1.632,1.632,0,0,0-.97.76c0,0.65,2.49,2.45,3.03,2.45,0.64,0,3.35-2.02,3.96-2.52a12.214,12.214,0,0,0,4.39-8.36,54.9,54.9,0,0,0,.4-7.68v-8Zm-14.12,3.36c0-.83-0.04-1.48-0.04-2.02a3.263,3.263,0,0,1,.4-2.09,0.814,0.814,0,0,0,.18-0.4c0-.32-0.51-0.32-1.26-0.47-0.51-.07-2.74-0.39-3.1-0.39a0.291,0.291,0,0,0-.33.36c0,0.21.04,0.43,0.04,0.65,0.04,0.93.11,1.87,0.11,2.84v7.6c0,1.7-.11,3.36-0.11,5.05,0,0.97.47,1.08,2.16,1.08s2.02-.14,2.02-1.26c0-1.62-.07-3.28-0.07-4.9v-6.05Zm32.06-1.95c-1.55,0-3.13-.07-4.68-0.07-0.72,0-.94.21-0.94,1.58v0.87c0,1.08.11,1.48,1.12,1.48,1.47,0,2.95-.08,4.46-0.08h2.89a1.063,1.063,0,0,1,1.08,1.08v10.09a1.057,1.057,0,0,1-1.08,1.05h-5.62c-1.52,0-3.46-.08-4.54-0.08-0.9,0-.94.33-0.94,2.06,0,1.22,0,1.91,1.01,1.91,1.08,0,2.92-.11,4.47-0.11h17.43c1.55,0,3.39.11,4.47,0.11,1.01,0,1.01-.72,1.01-1.88,0-1.76-.04-2.09-0.94-2.09-1.08,0-3.06.08-4.54,0.08h-5.62a1.057,1.057,0,0,1-1.08-1.05v-10.09a1.063,1.063,0,0,1,1.08-1.08h2.89c1.51,0,2.99.08,4.46,0.08,1.01,0,1.12-.4,1.12-1.52v-0.86c0-1.34-.22-1.55-0.94-1.55-1.58,0-3.13.07-4.72,0.07h-11.85Zm41.68,5.26a1.917,1.917,0,0,1,.83-1.62,70.4,70.4,0,0,0,4.94-5.41,1.949,1.949,0,0,1,1.4-.86,0.414,0.414,0,0,0,.36-0.36c0-.43-1.01-1.05-1.4-1.3a13.183,13.183,0,0,0-2.45-1.47,0.964,0.964,0,0,0-.58.54,30.051,30.051,0,0,1-4.9,6.08,51.607,51.607,0,0,1-14.16,9.55,0.724,0.724,0,0,0-.57.61c0,0.69,2.19,2.89,2.81,2.89,0.93,0,6.66-3.82,7.74-4.61a4,4,0,0,1,1.41-.83c0.68,0,.57.79,0.57,1.01v9.8c0,1.54-.07,3.09-0.07,4.64,0,0.94.36,1.05,2.34,1.05,1.34,0,1.81-.11,1.81-1.08,0-1.55-.08-3.14-0.08-4.72v-13.91Zm20.75,0.94c-1.51,0-3.02-.11-4.57-0.11-0.8,0-.9.4-0.9,2.05,0,1.3.03,1.84,0.97,1.84,1.51,0,3.03-.07,4.5-0.07h7.32a0.841,0.841,0,0,1,.86.83,17.287,17.287,0,0,1-.32,1.76,10.691,10.691,0,0,1-4.54,6.56,17.133,17.133,0,0,1-4.51,1.87c-0.32.08-1.01,0.22-1.01,0.62,0,0.61,1.99,2.99,2.78,2.99a16.933,16.933,0,0,0,3.75-1.59,14.7,14.7,0,0,0,7.78-11.35c0.11-.76.14-1.69,1.15-1.69h4.72c1.55,0,3.1.07,4.69,0.07,0.97,0,.97-0.68.97-1.91,0-1.69.03-1.98-1.08-1.98-1.55,0-3.07.11-4.58,0.11h-17.98Zm4.9-9.44c-1.58,0-3.13-.07-4.68-0.07-0.94,0-.97.39-0.97,1.9,0,1.37-.11,1.95.97,1.95,1.51,0,3.06-.07,4.61-0.07h7.86c1.54,0,3.09.07,4.61,0.07,1.01,0,.97-0.5.97-1.62,0-1.77.04-2.23-.94-2.23-1.58,0-3.13.07-4.68,0.07h-7.75Zm39.56,13.36a2.062,2.062,0,0,1,.94-1.98,44.048,44.048,0,0,0,3.24-3.6,1.736,1.736,0,0,1,1.04-.79,0.488,0.488,0,0,0,.51-0.44,1.785,1.785,0,0,0-1.01-1.08,7.852,7.852,0,0,0-2.13-1.26,1.014,1.014,0,0,0-.61.65c-2.99,4.97-8.93,9.19-14.16,11.64a1.064,1.064,0,0,0-.83.76,4.3,4.3,0,0,0,2.31,2.37c0.72,0,5.12-2.92,5.91-3.49a1.994,1.994,0,0,1,.93-0.51,0.483,0.483,0,0,1,.44.54v7.46c0,1.12-.08,2.27-0.08,3.39,0,0.97.11,1.15,2.13,1.15,0.69,0,1.44-.07,1.44-0.97,0-1.23-.07-2.41-0.07-3.64v-10.2Zm23.31-11.2c-1.55,0-3.1-.07-4.65-0.07-1.05,0-1.01.39-1.01,2.09,0,1.58,0,1.91,1.08,1.91,1.51,0,2.99-.08,4.51-0.08h12.82c0.65,0,1.26.08,1.26,0.76a7.6,7.6,0,0,1-.11.9,16.9,16.9,0,0,1-5.87,10.49,25.354,25.354,0,0,1-8.97,4.75,0.637,0.637,0,0,0-.65.58c0,0.61,1.3,3.03,2.13,3.03a4.48,4.48,0,0,0,1.19-.33,32.812,32.812,0,0,0,6.91-3.71c5.7-3.96,8.36-8.72,9.55-15.49,0.25-1.41.54-1.77,0.54-2.09a5.308,5.308,0,0,0-1.26-1.7,2.692,2.692,0,0,0-1.73-1.11c-0.5,0-2.16.07-3.17,0.07h-12.57Zm21.4-6.81a3.1,3.1,0,0,0-1.73,1.51,0.734,0.734,0,0,0,.29.44,35.489,35.489,0,0,1,2.7,2.91,0.868,0.868,0,0,0,.47.33,2.966,2.966,0,0,0,1.69-1.66C1225.1,1193.33,1222.08,1190.27,1221.68,1190.27Zm-3.28,2.77a3.237,3.237,0,0,0-1.73,1.52,0.948,0.948,0,0,0,.29.47,29.321,29.321,0,0,1,2.7,2.88,0.723,0.723,0,0,0,.47.32,2.893,2.893,0,0,0,1.73-1.66A13.992,13.992,0,0,0,1218.4,1193.04Zm18.77,13.41a0.806,0.806,0,0,1,.83.86v0.07a0.809,0.809,0,0,1-.83.87h-4.33a0.811,0.811,0,0,1-.86-0.87v-0.07a0.808,0.808,0,0,1,.86-0.86h4.33Zm0.14-4.15a0.636,0.636,0,0,1,.69.69v0.39a0.631,0.631,0,0,1-.69.69h-4.65a0.624,0.624,0,0,1-.68-0.69v-0.39a0.628,0.628,0,0,1,.68-0.69h4.65Zm-0.14-4.18a0.809,0.809,0,0,1,.83.87v0.11a0.806,0.806,0,0,1-.83.86h-4.33a0.808,0.808,0,0,1-.86-0.86v-0.11a0.811,0.811,0,0,1,.86-0.87h4.33Zm4.43,0.87a0.731,0.731,0,0,1,.83-0.87h5.01c1.37,0,2.7.08,4.07,0.08,0.83,0,.86-0.26.86-1.27,0-1.04-.03-1.29-0.86-1.29-1.37,0-2.7.07-4.07,0.07h-4.33a0.509,0.509,0,0,1-.57-0.5,0.566,0.566,0,0,1,.07-0.33c0.18-.29.61-1.15,0.76-1.37a0.812,0.812,0,0,1,.68-0.32,0.4,0.4,0,0,0,.43-0.4,1.051,1.051,0,0,0-.9-0.61,22.781,22.781,0,0,0-3.03-.87,0.475,0.475,0,0,0-.43.36,29.3,29.3,0,0,1-1.37,3.25,1.35,1.35,0,0,1-1.44.79h-3.56a0.511,0.511,0,0,1-.58-0.47,0.57,0.57,0,0,1,.11-0.36c0.25-.4.43-0.72,0.57-0.97a1.391,1.391,0,0,1,1.01-.97,0.5,0.5,0,0,0,.47-0.44c0-.32-0.36-0.43-1.12-0.65a18.412,18.412,0,0,0-2.63-.64,0.621,0.621,0,0,0-.5.46,31.623,31.623,0,0,1-6.56,8.98,1.448,1.448,0,0,0-.57.75,3.707,3.707,0,0,0,1.94,2.16c0.51,0,1.55-1.18,1.91-1.58a0.561,0.561,0,0,1,.32-0.15,0.36,0.36,0,0,1,.33.44v4.54c0,0.83-.04,1.65-0.04,2.48,0,1.3.76,1.44,1.88,1.44,0.93,0,1.87-.03,2.77-0.03h3.86a0.793,0.793,0,0,1,.86.86c0,0.15.04,0.26,0.04,0.4a0.8,0.8,0,0,1-.94.94h-7.89c-1.41,0-2.85-.08-4.29-0.08-0.83,0-.83.33-0.83,1.52s0,1.51.83,1.51c1.44,0,2.88-.07,4.29-0.07h4.54a0.346,0.346,0,0,1,.36.29,0.308,0.308,0,0,1-.18.28,36.735,36.735,0,0,1-8.79,4,1.07,1.07,0,0,1-.29.08c-0.5.18-.83,0.25-0.83,0.68,0,0.58,1.08,2.34,1.87,2.34a7.559,7.559,0,0,0,2.06-.57,35.243,35.243,0,0,0,9.4-5.37,0.638,0.638,0,0,1,.36-0.11,0.454,0.454,0,0,1,.4.5v1.73c0,1.05-.07,2.09-0.07,3.1,0,1.19.54,1.16,1.94,1.16,1.37,0,1.88,0,1.88-1.16,0-1.04-.11-2.05-0.11-3.1v-1.8a0.447,0.447,0,0,1,.39-0.5,0.55,0.55,0,0,1,.33.14,35.555,35.555,0,0,0,6.09,4.04c0.9,0.5,4.21,2.12,5.04,2.12,0.94,0,2.09-1.87,2.09-2.45a0.577,0.577,0,0,0-.54-0.5,36.79,36.79,0,0,1-9.37-4.33,0.3,0.3,0,0,1-.18-0.28,0.346,0.346,0,0,1,.36-0.29h4.76c1.44,0,2.88.07,4.29,0.07,0.86,0,.86-0.32.86-1.51,0-1.16,0-1.52-.86-1.52-1.41,0-2.85.08-4.29,0.08h-8.18a0.566,0.566,0,0,1-.68-0.51,0.727,0.727,0,0,1,.36-0.61,0.768,0.768,0,0,0,.5-0.51c0-.28-0.25-0.43-0.94-0.46a0.086,0.086,0,0,1-.07-0.08c0-.03.04-0.03,0.07-0.03h7.64c1.41,0,2.78.03,4.15,0.03,0.79,0,.82-0.25.82-1.26,0-1.04-.03-1.29-0.86-1.29-1.37,0-2.74.07-4.11,0.07h-6.77a0.727,0.727,0,0,1-.83-0.87v-0.07a0.724,0.724,0,0,1,.83-0.86h3.46c1.33,0,2.63.07,3.96,0.07,0.87,0,.87-0.29.87-1.26,0-1.01-.04-1.26-0.87-1.26-1.33,0-2.63.07-3.96,0.07h-3.64a0.562,0.562,0,0,1-.65-0.69v-0.39a0.572,0.572,0,0,1,.68-0.69h3.64c1.3,0,2.6.08,3.93,0.08,0.83,0,.87-0.22.87-1.27,0-1-.04-1.22-0.87-1.22-1.33,0-2.63.07-3.93,0.07h-3.49a0.724,0.724,0,0,1-.83-0.86v-0.11Zm41.79,18.05a1.007,1.007,0,0,1-1.01,1.01h-19.31a0.955,0.955,0,0,1-.97-1.01v-19.53a0.889,0.889,0,0,1,.97-0.97h19.31a0.974,0.974,0,0,1,1.01.97v19.53Zm-0.94,4.36a0.757,0.757,0,0,1,.87.83c0,0.07-.04.18-0.04,0.25,0,1.04.43,1.01,1.98,1.01,1.52,0,1.99.03,1.99-1.01,0-1.51-.11-2.99-0.11-4.5V1198.3c0-1.11.07-2.23,0.07-3.35,0-1.55-.79-1.83-2.16-1.83-1.15,0-2.34.07-3.5,0.07h-17.62c-1.15,0-2.34-.07-3.53-0.07-1.37,0-2.12.32-2.12,1.83,0,1.12.07,2.24,0.07,3.35v19.6c0,1.52-.11,3.03-0.11,4.54,0,1.01.43,1.01,1.98,1.01,1.52,0,1.95,0,1.95-1.01v-0.21a0.714,0.714,0,0,1,.83-0.83h19.45Zm-10.84-10.16a20.784,20.784,0,0,0-1.87-3.46c-0.29-.47-1.41-2.41-1.95-2.41-0.43,0-2.23,1-2.23,1.58a1.675,1.675,0,0,0,.32.69,33.278,33.278,0,0,1,2.59,4.39,0.957,0.957,0,0,0,.8.72C1269.77,1212.75,1271.61,1211.89,1271.61,1211.24Zm6.45-5.55a0.83,0.83,0,0,1,.94-0.97c0.54,0,1.94.07,2.34,0.07,0.86,0,.83-0.54.83-1.59,0-1.08.03-1.55-.83-1.55-0.54,0-1.7.04-2.31,0.08a0.839,0.839,0,0,1-.97-0.9c-0.04-1.16-.04-1.7.39-1.99a0.694,0.694,0,0,0,.44-0.5c0-.43-0.58-0.47-0.87-0.5-0.79-.08-2.09-0.22-2.84-0.22-0.33,0-.62.07-0.62,0.47,0,0.11.04,0.21,0.04,0.36a17.173,17.173,0,0,1,.11,2.27,0.849,0.849,0,0,1-.98,1.01h-6.12c-1.12,0-2.23-.08-3.39-0.08-0.86,0-.86.44-0.86,1.55,0,1.05-.04,1.59.83,1.59,1.15,0,2.3-.07,3.42-0.07h6.12a0.836,0.836,0,0,1,.98.97v5.87c0,1.77.07,2.2-1.66,2.2a8.7,8.7,0,0,1-1.04-.04,4.292,4.292,0,0,0-.62-0.03,0.617,0.617,0,0,0-.68.72,5.72,5.72,0,0,0,.36,1.91,1.593,1.593,0,0,0,1.69.65c2.24,0,5.37-.11,5.37-3.1,0-.83-0.07-1.62-0.07-2.45v-5.73Zm25.94-14.05c-0.36,0-.44.36-0.51,0.76a19.749,19.749,0,0,1-1.94,4.64c-0.33.44-1.3,0.47-2.24,0.47h-1.04c-1.05,0-1.98-.07-2.6-0.07-0.9,0-1.04.22-1.04,1.66,0,1.83.14,2.01,0.94,2.01,1.11,0,1.94-.1,2.52-0.1,0.5,0,.79.1,0.79,0.43,0,0.68-5.22,7.93-6.05,8.83a1.476,1.476,0,0,0-.47.79c0,0.65,2.41,2.09,3.06,2.09a0.613,0.613,0,0,0,.51-0.36,23.611,23.611,0,0,1,3.02-4.22c1.41-1.44,4.72-3.17,6.74-3.17a1.49,1.49,0,0,1,1.58,1.23,4.39,4.39,0,0,1,.19,1.01,0.916,0.916,0,0,1-.65.82c-0.76.36-1.52,0.76-2.24,1.19-2.48,1.48-5.11,3.25-5.11,6.49a5.461,5.461,0,0,0,3.6,5.15,13.329,13.329,0,0,0,5.69.94,48.427,48.427,0,0,0,6.92-.47c0.79-.18.83-0.47,0.83-1.55,0-2.05-.25-2.45-0.72-2.45a5.17,5.17,0,0,0-.72.07,26.187,26.187,0,0,1-6.7.9c-1.73,0-5.23-.21-5.23-2.63,0-2.23,3.71-3.82,3.89-3.82a0.506,0.506,0,0,1,.47.62c0,0.75-.07,1.55-0.07,2.34,0,0.93.65,1.01,2.2,1.01,1.37,0,1.55-.15,1.55-1.44,0-1.12-.04-2.2-0.04-3.32v-0.47a1.113,1.113,0,0,1,.94-1.19c1.4-.61,2.81-1.22,4.25-1.76,0.18-.07.36-0.11,0.5-0.18,0.69-.22,1.08-0.36,1.08-0.79,0-.62-0.86-3.39-1.55-3.39a2.944,2.944,0,0,0-.93.36,32.984,32.984,0,0,1-4.22,2.05,0.6,0.6,0,0,1-.54-0.61c-0.47-2.27-1.8-3.24-4.11-3.24a9.926,9.926,0,0,0-3.92.93,1.4,1.4,0,0,1-.65.22,0.277,0.277,0,0,1-.29-0.25,11.586,11.586,0,0,1,1.23-2.09,1.268,1.268,0,0,1,1.08-.58c2.27-.25,4.54-0.65,6.81-1.12,0.75-.14,1.91-0.28,1.91-0.9a11.348,11.348,0,0,0-.29-1.94,1.059,1.059,0,0,0-.9-1.08,2.875,2.875,0,0,0-.9.21,25.37,25.37,0,0,1-4.18,1.01,0.352,0.352,0,0,1-.4-0.36,2.438,2.438,0,0,1,.36-0.83,1.97,1.97,0,0,1,1.19-1.22,0.587,0.587,0,0,0,.43-0.43C1308.03,1193.3,1304.32,1191.64,1304,1191.64Zm27.12,21.98a0.9,0.9,0,0,1,.98-0.98h12.39a0.958,0.958,0,0,1,1.01.98v3.24a1.034,1.034,0,0,1-1.01,1.01H1332.1a0.958,0.958,0,0,1-.98-1.01v-3.24Zm0-8.15a0.95,0.95,0,0,1,.98-1h12.39a1.025,1.025,0,0,1,1.01,1v2.78a1.041,1.041,0,0,1-1.01,1.01H1332.1a0.963,0.963,0,0,1-.98-1.01v-2.78Zm0.98-4.39a0.937,0.937,0,0,1-.98-1.01v-2.59a0.952,0.952,0,0,1,.98-1.01h12.39a1.027,1.027,0,0,1,1.01,1.01v2.59a1.007,1.007,0,0,1-1.01,1.01H1332.1Zm13.33,21.87c0,0.83.5,0.9,1.37,0.9h0.64c1.59,0,2.06.07,2.06-1.05,0-1.4-.07-2.84-0.07-4.25v-20.39c0-1.15.07-2.31,0.07-3.46,0-1.4-.58-1.84-1.95-1.84-1.04,0-2.09.08-3.13,0.08H1332.2c-1.08,0-2.12-.08-3.17-0.08-1.29,0-1.91.44-1.91,1.81,0,1.15.08,2.34,0.08,3.49v20.32c0,1.44-.11,2.88-0.11,4.29,0,1.08.54,1.04,2.05,1.04,1.59,0,2.06.04,2.06-1.04v-0.36a0.834,0.834,0,0,1,.97-0.94h12.28a0.85,0.85,0,0,1,.98.97v0.51Zm27.74-5.87a1.018,1.018,0,0,1,1-1.01h6.45a1,1,0,0,1,1.01,1.01v0.64a1,1,0,0,1-1.01,1.01h-6.45a1.018,1.018,0,0,1-1-1.01v-0.64Zm1-3.86a1.025,1.025,0,0,1-1-1.01v-0.43a1.025,1.025,0,0,1,1-1.01h6.45a1,1,0,0,1,1.01,1.01v0.43a1,1,0,0,1-1.01,1.01h-6.45Zm7.43,9.48a0.966,0.966,0,0,0-.04.36c0,0.83.43,0.83,1.84,0.83,1.37,0,1.8,0,1.8-.87s-0.07-1.77-.07-2.67v-8.9c0-.82.07-1.65,0.07-2.48,0-1.23-.54-1.44-1.77-1.44-0.57,0-1.29.07-2.16,0.07h-7.74c-0.87,0-1.59-.07-2.13-0.07-1.22,0-1.76.21-1.76,1.4,0,0.83.03,1.7,0.03,2.52v8.8c0,0.86-.07,1.83-0.07,2.7s0.47,0.83,1.76.83c1.27,0,1.88.07,1.88-.8v-0.32a0.7,0.7,0,0,1,.83-0.79h6.7A0.732,0.732,0,0,1,1381.6,1222.7Zm-8.9-28a2.341,2.341,0,0,1,.47-1.69,0.7,0.7,0,0,0,.43-0.54c0-.44-0.65-0.44-0.97-0.47-0.72-.04-2.27-0.18-2.92-0.18-0.36,0-.62.07-0.62,0.5v0.36a27.338,27.338,0,0,1,.15,2.99v4.08c0,0.75-.07,1.51-0.07,2.27,0,2.91,2.23,2.91,4.5,2.91h8.29c2.05,0,3.02-.03,4.07-2.01a10.642,10.642,0,0,0,1.04-3.46c0-1.01-2.12-1.26-2.55-1.26-0.69,0-.73.43-0.83,1-0.47,2.56-1.34,2.49-2.56,2.49h-6.77c-1.23,0-1.66-.07-1.66-1.44v-0.72a0.975,0.975,0,0,1,.93-1.15,52.889,52.889,0,0,0,9.7-2.56,1.115,1.115,0,0,1,.39-0.11,1.488,1.488,0,0,1,.51.18,1.159,1.159,0,0,0,.47.14,0.366,0.366,0,0,0,.39-0.36,7.1,7.1,0,0,0-1.01-2.05c-0.57-.9-0.86-1.37-1.15-1.37a1.484,1.484,0,0,0-.54.25,43.467,43.467,0,0,1-8.72,2.96,0.955,0.955,0,0,1-.29.03A0.7,0.7,0,0,1,1372.7,1194.7Zm-8.22,6.63c0.62,0,1.88.07,2.34,0.07,0.91,0,.83-0.54.83-1.73,0-1.22.08-1.73-.83-1.73-0.64,0-1.62.11-2.34,0.08a0.846,0.846,0,0,1-.97-1.01v-2.53c0-1,.04-1.51.4-1.72a0.727,0.727,0,0,0,.46-0.58c0-.43-0.61-0.47-0.9-0.47-0.64-.04-2.41-0.18-2.99-0.18-0.36,0-.72.04-0.72,0.5,0,0.11.04,0.26,0.04,0.33,0.07,0.79.11,1.58,0.11,2.38v2.27a0.849,0.849,0,0,1-.98,1.01c-0.93.03-1.83-.08-2.7-0.08-0.9,0-.86.44-0.86,1.73,0,1.26-.04,1.73.86,1.73,0.72,0,1.77-.11,2.7-0.07a0.849,0.849,0,0,1,.98,1.01v4.94a1.114,1.114,0,0,1-.87,1.26c-1.26.32-2.2,0.54-2.81,0.64-1.19.26-1.47,0.33-1.47,0.8,0,0.29.68,2.77,0.82,3.24a0.717,0.717,0,0,0,.58.72,0.564,0.564,0,0,0,.5-0.5,0.848,0.848,0,0,1,.73-0.72c0.32-.11.82-0.29,1.62-0.54a0.681,0.681,0,0,1,.28-0.04,0.6,0.6,0,0,1,.62.72v4.76c0,1.87.03,2.23-1.48,2.23a10.113,10.113,0,0,1-1.12-.04,2.97,2.97,0,0,0-.5-0.03c-0.61,0-.72.39-0.72,0.9a5.373,5.373,0,0,0,.47,2.27,2.126,2.126,0,0,0,1.91.61c2.66,0,5.08-.47,5.08-3.71,0-.76-0.04-1.51-0.04-2.27v-6.02a1.19,1.19,0,0,1,.86-1.33c3.25-1.3,3.43-1.33,3.43-2.56,0-.5-0.04-1.94-0.76-1.94a22.962,22.962,0,0,0-2.63,1.04c-0.11,0-.18.04-0.29,0.04a0.62,0.62,0,0,1-.61-0.72v-3.75A0.86,0.86,0,0,1,1364.48,1201.33Zm32.17-7.1c-0.5,0-.54.36-0.54,0.9v0.4c0,1.48-.32,4.94-0.43,6.59-0.22,2.85-.32,5.7-0.32,8.54,0,2.63.18,6.13,1.8,8.29a7.956,7.956,0,0,0,6.34,2.77,12.6,12.6,0,0,0,10.95-6.88,13.338,13.338,0,0,0,1.48-4.21c0-1.08-2.2-2.92-2.99-2.92-0.54,0-.61.61-0.72,1.19a11.485,11.485,0,0,1-2.2,5.33,9.117,9.117,0,0,1-6.77,3.49c-3.89,0-3.82-4.36-3.82-7.17,0-2.05.32-13.47,1.58-14.41a0.788,0.788,0,0,0,.44-0.54,0.743,0.743,0,0,0-.72-0.5A30.192,30.192,0,0,0,1396.65,1194.23Zm25.83,4.72c0,0.36.33,3.79,1.19,3.79a2.518,2.518,0,0,0,.54-0.08,71.805,71.805,0,0,1,7.97-1.47c0.39-.08,2.01-0.33,2.3-0.33a0.513,0.513,0,0,1,.54.43,2.363,2.363,0,0,1-.65.87,16,16,0,0,0-3.96,10.34c0,7.03,5.26,8.97,11.39,8.97a1.118,1.118,0,0,0,1.04-.36,8.554,8.554,0,0,0,.65-3.21c0-.57-0.29-0.61-0.83-0.61-0.36,0-1.15.04-1.8,0.04-3.64,0-6.34-1.01-6.34-5.19a13.42,13.42,0,0,1,1.73-6.34,10.874,10.874,0,0,1,6.16-5.37,17.723,17.723,0,0,1,5.98-.76c0.83-.03,1.58.04,1.58-0.75a23.221,23.221,0,0,0-.28-2.63c-0.11-.44-0.18-0.9-0.72-0.9a2.172,2.172,0,0,0-.44.03c-2.7.43-5.47,0.79-8.18,1.12-5.26.61-10.52,1.15-15.78,1.48C1422.99,1198.12,1422.48,1198.02,1422.48,1198.95Zm51.41,1.44a0.58,0.58,0,0,0,.33.54c3.42,2.63,4.9,6.06,5.33,10.27,0.07,0.87.04,1.37,1.19,1.37a7.675,7.675,0,0,0,2.02-.32,1.006,1.006,0,0,0,.97-1.05,19.632,19.632,0,0,0-2.13-7.49c-1.72-3.32-4.75-5.59-5.54-5.59A3.505,3.505,0,0,0,1473.89,1200.39Zm-16.24-2.34a0.453,0.453,0,0,0-.51.4c-0.07.32-.18,4.9-0.18,5.47,0,3.82.29,8.36,2.09,11.75,1.19,2.2,3.28,4.61,5.95,4.61,1.69,0,2.81-1.08,3.85-2.27,0.5-.57,2.13-2.45,2.13-3.13,0-.65-1.84-2.13-2.6-2.13a1.425,1.425,0,0,0-.97.9c-0.43.8-1.48,2.38-2.49,2.38-1.26,0-2.45-2.13-2.88-3.13a20.53,20.53,0,0,1-1.15-7.53,26.838,26.838,0,0,1,.29-3.82,2.576,2.576,0,0,1,.64-1.73,0.616,0.616,0,0,0,.36-0.47,0.821,0.821,0,0,0-.79-0.51C1460.78,1198.74,1458.11,1198.05,1457.65,1198.05Zm42.07,17.62c0.83,0,1.7,0,1.7.68,0,1.95-1.41,2.42-3.06,2.42-0.94,0-2.56-.22-2.56-1.44C1495.8,1215.78,1498.61,1215.67,1499.72,1215.67Zm1.23-22.59c-0.32,0-.54.07-0.54,0.43a2.872,2.872,0,0,0,.07.58c0.11,0.61.33,3.03,0.33,3.6,0,0.97-.91.9-4.08,0.9-1.76,0-4.79-.29-5.54-0.29-0.62,0-.65.51-0.65,1.01a6.4,6.4,0,0,0,.39,2.63,3.56,3.56,0,0,0,2.09.33h1.08c1.95,0,4.83-.18,6.09-0.18,0.94,0,.98,1.47.98,2.52,0,0.79-.51.9-1.84,0.9h-1.62c-1.37,0-3.39-.18-3.82-0.18a0.6,0.6,0,0,0-.62.76,7.657,7.657,0,0,0,.47,2.52c0.29,0.65.98,0.61,2.45,0.61,1.55,0,3.57-.14,4.33-0.14,0.9,0,.83,1.33.83,2.48,0,0.36,0,1.01-.62,1.01-0.21,0-1.04-.07-1.47-0.07-2.99,0-6.92,1.15-6.92,4.79,0,3.35,3.13,4.69,6.02,4.69,2.91,0,5.76-.91,6.52-4a0.8,0.8,0,0,1,.72-0.8c0.72,0,3.1,1.7,3.74,2.2a2,2,0,0,0,1.12.58c0.87,0,2.05-1.84,2.05-2.63,0-1.3-4.75-3.32-5.94-3.71-1.55-.51-1.69-0.22-1.69-3.97,0-1.01.72-1.01,2.09-1.15a32.975,32.975,0,0,0,3.71-.61c0.65-.15.68-0.51,0.68-1.7,0-1.36-.11-2.16-0.61-2.16a2.14,2.14,0,0,0-.69.15,30.552,30.552,0,0,1-4.61.86,0.609,0.609,0,0,1-.57-0.57,11.615,11.615,0,0,1-.18-1.91c0-1.01.86-.98,1.62-1.09,1.91-.21,4.14-0.54,6.01-0.93,0.69-.15,1.01-0.22,1.01-0.94,0-.61-0.1-2.95-0.9-2.95a9.8,9.8,0,0,0-1.37.28,34.549,34.549,0,0,1-3.92.83c-0.26.04-1.66,0.26-1.81,0.26a0.832,0.832,0,0,1-.75-1.05c0.07-2.92.68-2.3,0.68-2.99,0-.4-0.5-0.47-1.44-0.58C1503.18,1193.33,1501.49,1193.08,1500.95,1193.08Zm32.24,14.45c1.48,0,1.8,2.05,1.8,3.17s-0.43,2.95-1.87,2.95-1.69-1.98-1.69-3.06S1531.79,1207.53,1533.19,1207.53Zm0.18-15.28a0.411,0.411,0,0,0-.47.43,0.728,0.728,0,0,0,.04.29,30.169,30.169,0,0,1,.36,4.47,1.065,1.065,0,0,1-.79,1.12c-0.33.07-8.79,0.54-9.77,0.57-1.76.07-2.09,0-2.09,0.72a20.889,20.889,0,0,0,.29,2.6c0.11,0.47.15,0.97,0.72,0.97a3.327,3.327,0,0,0,.54-0.07c1.73-.36,6.38-0.87,8.25-1.05,0.44-.03,2.09-0.21,2.38-0.21,0.4,0,.65.18,0.65,1.51a0.453,0.453,0,0,1-.43.43c-3.64.33-5.08,3.5-5.08,6.81,0,2.63,1.15,6.02,4.29,6.02a3.448,3.448,0,0,0,.82-0.18,0.728,0.728,0,0,1,.29-0.04,0.269,0.269,0,0,1,.25.26,1.281,1.281,0,0,1-.18.54,11.669,11.669,0,0,1-2.59,3.49,2.691,2.691,0,0,0-.83,1.01c0,0.65,2.92,1.55,3.35,1.55,1.59,0,5.44-6.45,5.44-12.25a11.151,11.151,0,0,0-1.11-5.05,2.985,2.985,0,0,1-.36-1.87v-1.26a1.167,1.167,0,0,1,.68-1.19c0.4-.11,3.75-0.14,4.4-0.14,2.01,0,4.72.18,5.22,0.18,0.36,0,.79.03,0.79-2.16,0-1.63-.25-1.84-0.83-1.84-1.55,0-5.4.21-7.17,0.29-0.39,0-1.8.1-2.09,0.1a0.947,0.947,0,0,1-1.04-1.04c0-.76,0-1.55.04-2.31a1.628,1.628,0,0,1,.57-1.51,0.558,0.558,0,0,0,.22-0.4c0-.32-1.08-0.43-1.95-0.5S1534.2,1192.25,1533.37,1192.25Zm24.14,22.16a3.17,3.17,0,0,1,3.21,3.21A3.21,3.21,0,1,1,1557.51,1214.41Zm0-1.8a5.005,5.005,0,1,0,5.01,5.01A4.993,4.993,0,0,0,1557.51,1212.61Z" transform="translate(-998.469 -1190.28)"/>
</svg>
