<svg xmlns="http://www.w3.org/2000/svg" width="534.41" height="52.09" viewBox="0 0 534.41 52.09">
  <defs>
    <style>
      .cls-1 {
        fill-rule: evenodd;
      }
    </style>
  </defs>
  <path id="リトライし続けること_" data-name="リトライし続けること。" class="cls-1" d="M2536.43,1399.37a4.843,4.843,0,0,1,.41-2.5,1.162,1.162,0,0,0,.52-0.81c0-.52-0.7-0.58-1.16-0.7a51.2,51.2,0,0,0-5.74-.58c-0.47,0-.7.12-0.7,0.58a5.576,5.576,0,0,0,.12.99,31.568,31.568,0,0,1,.17,4v12.59a72.7,72.7,0,0,1-.7,11.2c-0.98,6.55-4.64,9.86-10.32,12.82-0.47.23-1.57,0.69-1.57,1.21,0,1.05,4,3.95,4.87,3.95,1.05,0,5.4-3.25,6.38-4.06,4.36-3.6,6.33-7.95,7.08-13.46a88.26,88.26,0,0,0,.64-12.36v-12.87Zm-22.74,5.39c0-1.33-.06-2.38-0.06-3.25,0-1.79.12-2.66,0.64-3.36a1.253,1.253,0,0,0,.29-0.64c0-.52-0.81-0.52-2.03-0.75-0.81-.12-4.41-0.64-4.99-0.64-0.4,0-.52.17-0.52,0.58,0,0.35.06,0.7,0.06,1.04,0.06,1.51.17,3.02,0.17,4.59v12.23c0,2.73-.17,5.4-0.17,8.13,0,1.56.75,1.74,3.48,1.74s3.25-.24,3.25-2.03c0-2.61-.12-5.28-0.12-7.89v-9.75Zm61.83,5.92a0.633,0.633,0,0,1-.52.23,0.5,0.5,0,0,1-.47-0.58v-8.7c0-1.45-.05-2.55-0.05-3.42,0-1.57.11-2.44,0.63-3.08a1.639,1.639,0,0,0,.29-0.75c0-.81-2.37-1.05-4.98-1.39-0.41-.06-1.63-0.24-1.98-0.24-0.58,0-.75.29-0.75,0.87,0,0.24.06,0.76,0.06,1.05,0.06,1.45.17,3.02,0.17,4.52v33.07c0,2.61-.17,5.22-0.17,7.83,0,1.91.98,1.97,3.3,1.97,3.54,0,3.6-.35,3.6-3.02,0-2.32-.12-4.58-0.12-6.9v-15.83a0.777,0.777,0,0,1,.7-0.93,1,1,0,0,1,.58.23,85.771,85.771,0,0,1,8.41,6.79,2.136,2.136,0,0,0,1.28.75c1.16,0,3.88-3.02,3.88-4s-3.24-3.48-4.06-4.18c-1.16-.99-6.96-5.57-8.12-5.57A2.99,2.99,0,0,0,2575.52,1410.68Zm40.72-2.38c-2.5,0-4.99-.12-7.43-0.12-1.62,0-1.68.41-1.68,3.37,0,2.26,0,2.84,1.62,2.84,2.5,0,4.93-.12,7.37-0.12h21.58c0.93,0,2.49-.11,2.49,1.28a14.919,14.919,0,0,1-1.56,3.77,41.859,41.859,0,0,1-17.81,16.48c-0.58.29-2.03,0.81-2.03,1.5,0,0.99,2.67,4.3,4,4.3,1.8,0,8.06-4.47,9.69-5.8a48.52,48.52,0,0,0,12-13.69,40.3,40.3,0,0,0,3.37-7.84,14.921,14.921,0,0,0,.75-2.37c0-1.05-2.9-3.83-4.12-3.83a7.341,7.341,0,0,0-1.04.11c-1.22.12-3.89,0.12-5.22,0.12h-21.98Zm3.88-12.53c-2.26,0-5.22-.17-6.84-0.17-1.45,0-1.57.69-1.57,3.42,0,2.15,0,2.84,1.62,2.84,2.27,0,4.53-.11,6.79-0.11h14.21c2.27,0,4.53.11,6.85,0.11,1.56,0,1.56-.75,1.56-2.72,0-2.9-.11-3.54-1.56-3.54-1.51,0-4.47.17-6.85,0.17h-14.21Zm65.08,14.33c0-1.34.46-1.74,1.33-2.61a112.9,112.9,0,0,0,7.95-8.7,3.1,3.1,0,0,1,2.26-1.39,0.688,0.688,0,0,0,.58-0.58c0-.7-1.62-1.69-2.26-2.09a21.7,21.7,0,0,0-3.94-2.38,1.509,1.509,0,0,0-.93.87,49.456,49.456,0,0,1-7.89,9.8c-5.86,5.69-15.2,12.18-22.8,15.37a1.194,1.194,0,0,0-.93.99c0,1.1,3.54,4.64,4.53,4.64,1.51,0,10.73-6.15,12.47-7.42a6.417,6.417,0,0,1,2.26-1.34c1.1,0,.93,1.28.93,1.63v15.77c0,2.5-.12,4.99-0.12,7.49,0,1.5.58,1.68,3.77,1.68,2.15,0,2.9-.18,2.9-1.74,0-2.5-.11-5.05-0.11-7.6V1410.1Zm36.42-14.79c-0.81,0-.87.58-0.87,1.45v0.64c0,2.37-.52,7.94-0.7,10.61q-0.51,6.87-.52,13.75c0,4.23.29,9.86,2.9,13.34,2.38,3.07,6.38,4.47,10.21,4.47,7.54,0,14.16-4.59,17.64-11.08,0.81-1.51,2.37-5.17,2.37-6.79,0-1.74-3.53-4.7-4.81-4.7-0.87,0-.99.99-1.16,1.92a18.317,18.317,0,0,1-3.54,8.58,14.693,14.693,0,0,1-10.9,5.63c-6.27,0-6.15-7.02-6.15-11.55,0-3.3.52-21.69,2.55-23.2a1.252,1.252,0,0,0,.7-0.87,1.213,1.213,0,0,0-1.16-.81A48.82,48.82,0,0,0,2721.62,1395.31Zm72.16,27.61a1.355,1.355,0,0,0,.81-0.87c0-.52-1.51-0.87-4.06-1.1-0.41-.06-1.45-0.18-1.86-0.18-0.75,0-.87.41-0.87,1.1,0,0.35.06,0.64,0.06,0.99a17.2,17.2,0,0,1-1.97,8.47,16.624,16.624,0,0,1-6.85,5.97c-0.52.24-1.27,0.47-1.27,1.11,0,1.21,2.14,3.94,3.53,3.94,0.99,0,3.08-1.51,3.95-2.15,5.68-4.35,7.48-9.16,7.95-16.12A1.261,1.261,0,0,1,2793.78,1422.92Zm10.03,13.05c-1.33,0-1.68-.41-1.68-1.97v-8.18c0-2.09.17-2.73,0.87-3.19a1.238,1.238,0,0,0,.58-0.76c0-.63-0.93-0.63-1.51-0.69-0.87-.12-4.06-0.41-4.81-0.41a0.669,0.669,0,0,0-.82.64v0.46a26.936,26.936,0,0,1,.18,3.83v9.92c0,0.81-.06,1.57-0.06,2.32,0,3.13,1.91,3.71,4.64,3.71h3.94c1.63,0,3.95,0,4.93-1.56a20.133,20.133,0,0,0,1.98-7.6,1.437,1.437,0,0,0-1.05-1.51,6.627,6.627,0,0,0-2.96-.75c-1.1,0-1.21.63-1.39,1.97-0.35,2.44-.35,3.77-2.09,3.77h-0.75Zm-22.22-3.37a34.549,34.549,0,0,0-1.21-4.81c-1.11-3.77-1.4-4.29-2.38-4.29-0.76,0-3.08.4-3.08,1.39a3.567,3.567,0,0,0,.29,1.1,56.413,56.413,0,0,1,1.8,6.21c0.35,1.56.52,2.2,1.39,2.2C2778.93,1434.4,2781.59,1434,2781.59,1432.6Zm-13.92-7.07c0-.7-1.04-0.87-1.56-0.99a23.411,23.411,0,0,0-3.08-.69c-0.64,0-.69.58-0.75,1.5a6.906,6.906,0,0,1-.06,1.05,50.825,50.825,0,0,1-2.44,11.43,3.671,3.671,0,0,0-.23.81c0,1.04,2.5,1.51,3.31,1.51a1.137,1.137,0,0,0,1.27-1.05,99,99,0,0,0,2.27-11.77,1.088,1.088,0,0,1,.52-1.05A0.913,0.913,0,0,0,2767.67,1425.53Zm-3.88-25.12a1.775,1.775,0,0,0-.99-0.58c-0.93,0-2.67,3.42-2.67,4a1.821,1.821,0,0,0,.87,1.28,55.1,55.1,0,0,1,5.16,4.76,1.907,1.907,0,0,1,.64,1.27,1.7,1.7,0,0,1-.35,1.05c-0.52.87-1.04,1.79-1.56,2.66a2.424,2.424,0,0,1-2.44,1.4h-1.22c-0.63,0-1.16.06-1.16,0.64,0,0.52.53,2.78,0.7,3.65,0.35,1.68.52,2.49,1.1,2.49a0.973,0.973,0,0,0,.81-0.69,0.924,0.924,0,0,1,.64-0.58c1.16-.12,2.32-0.29,3.48-0.47a1.266,1.266,0,0,1,1.51,1.45v10.21c0,2.61-.17,5.22-0.17,7.89,0,1.86.52,1.97,2.78,1.97,2.2,0,2.73-.11,2.73-1.91,0-2.67-.18-5.28-0.18-7.95v-10.9c0.12-1.16.41-1.68,1.57-1.86a3.226,3.226,0,0,1,.7-0.06,1.357,1.357,0,0,1,1.33,1.11,0.928,0.928,0,0,0,.99.87,7.591,7.591,0,0,0,2.26-.47,1.047,1.047,0,0,1,.4-0.11,0.59,0.59,0,0,1,.64.52c0.29,0.81.76,0.93,2.79,0.93,1.33,0,2.72.05,2.72-1.16,0-.47-0.11-1.45-0.11-1.86a1.33,1.33,0,0,1,1.62-1.33h15.31a1.359,1.359,0,0,1,1.57,1.56c0,0.52-.06,1.22-0.06,1.68,0,1.28,1.1,1.22,2.79,1.22,1.74,0,2.9.06,2.9-1.22,0-.23-0.06-1.27-0.06-2.03v-1.68c0-1.1.06-1.62,0.06-2.26,0-1.86-1.63-2.21-4.12-2.21-1.16,0-2.55.12-4.06,0.12h-13.17c-1.51,0-2.9-.12-4.06-0.12-2.49,0-4.12.35-4.12,2.21a10.775,10.775,0,0,0,.06,1.39c0,0.29.12,0.93-.23,0.93a0.454,0.454,0,0,1-.35-0.46c-0.7-2.21-1.39-4.36-2.15-6.5-0.34-.87-0.52-1.57-1.33-1.57-0.52,0-3.54.7-3.54,1.74a15.584,15.584,0,0,0,.81,2.21,1.694,1.694,0,0,1,.06.52,1.117,1.117,0,0,1-1.1,1.16c-0.76.06-1.45,0.17-2.21,0.23a0.7,0.7,0,0,1-.81-0.7,1.308,1.308,0,0,1,.12-0.46c2.67-4,5.22-8.06,7.54-12.3a1.164,1.164,0,0,1,1.1-.63,0.659,0.659,0,0,0,.76-0.64c0-.58-2.61-1.86-3.19-2.15a11.071,11.071,0,0,0-2.03-.93,1.113,1.113,0,0,0-.87.99c-0.99,2.15-2.21,4.18-3.31,6.21a1.182,1.182,0,0,1-.99.63,1.349,1.349,0,0,1-.87-0.4,2.246,2.246,0,0,1-.87-1.34,1.428,1.428,0,0,1,.29-0.81,75.682,75.682,0,0,0,4.58-7.95,1.052,1.052,0,0,1,.88-0.4c0.46,0,1.1-.06,1.1-0.7a1.643,1.643,0,0,0-.99-1.16,33.4,33.4,0,0,0-4.23-1.91,0.871,0.871,0,0,0-.7.81c-0.75,2.09-2.78,6.44-3.83,8.53a0.856,0.856,0,0,1-.69.46A0.765,0.765,0,0,1,2763.79,1400.41Zm35.09-5.28c0-1.1,0-1.8.64-2.32a1.327,1.327,0,0,0,.75-0.87c0-.69-1.04-0.75-1.56-0.81-0.93-.06-4.18-0.41-4.99-0.41a0.8,0.8,0,0,0-.99.82,1.942,1.942,0,0,0,.06.58,25.31,25.31,0,0,1,.17,3.01,1.356,1.356,0,0,1-1.62,1.51h-3.08c-2.08,0-4.17-.11-6.26-0.11-1.28,0-1.28.52-1.28,2.61,0,2.03.06,2.49,1.28,2.49,2.09,0,4.18-.12,6.26-0.12h3.08a1.381,1.381,0,0,1,1.62,1.63v0.75a1.381,1.381,0,0,1-1.62,1.63h-1.92c-1.79,0-3.59-.12-5.16-0.12-1.22,0-1.16.58-1.16,2.61,0,1.97,0,2.55,1.16,2.55,1.74,0,3.42-.11,5.16-0.11h13.4c1.69,0,3.43.11,5.11,0.11,1.22,0,1.22-.58,1.22-2.55s0-2.61-1.22-2.61c-1.51,0-3.37.12-5.11,0.12h-2.37a1.365,1.365,0,0,1-1.57-1.63v-0.75a1.365,1.365,0,0,1,1.57-1.63h3.48c2.08,0,4.17.12,6.26,0.12,1.28,0,1.28-.52,1.28-2.49,0-2.09,0-2.61-1.34-2.61-2.09,0-4.17.11-6.2,0.11h-3.48A1.322,1.322,0,0,1,2798.88,1395.13Zm46.17,1.16a2.5,2.5,0,0,0,.06.7,70.711,70.711,0,0,1,1.45,9.51,1.568,1.568,0,0,1-1.22,1.57c-1.34.29-7.25,0.75-8.88,0.87-2.55.11-2.78,0.11-2.78,2.38,0,3.65.93,3.77,1.68,3.77a11.71,11.71,0,0,0,2.03-.24c1.04-.17,7.83-1.21,8.3-1.21,1.33,0,1.45,1.16,1.45,2.96v1.21c0,8.24-1.92,13.52-8.3,18.86a0.943,0.943,0,0,0-.46.87c0,1.04,3.19,3.82,4.23,3.82,1.22,0,3.42-2.61,4.12-3.53,4.58-5.69,6.38-11.72,6.38-18.97,0-1.51-.06-3.08-0.06-4.64,0-2.03,1.68-1.98,3.77-2.21,3.02-.4,3.66-0.46,3.66-1.91,0-.99-0.06-4.53-1.34-4.53a4.337,4.337,0,0,0-.87.12c-0.64.17-3.83,0.87-4.29,0.87-0.99,0-1.28-.81-1.33-1.68-0.06-1.8-.29-3.6-0.29-5.4,0-2.2.87-2.08,0.87-2.84a0.838,0.838,0,0,0-.82-0.58c-1.74-.29-3.53-0.23-5.33-0.41-0.29,0-.7-0.11-0.99-0.11A0.852,0.852,0,0,0,2845.05,1396.29Zm-17.17,1.98c-0.64-.24-4.88-1.74-5.17-1.74-0.69,0-.75.87-0.87,1.39a12.787,12.787,0,0,1-.4,1.62,68.439,68.439,0,0,0-2.96,19.03c0,6.15,1.04,12.93,4.12,18.33,0.75,1.27,1.1,1.8,2.03,1.8,0.52,0,4.41-.82,4.41-3.08,0-.93-0.06-1.86-0.06-2.73,0-3.82,2.15-9.39,2.15-10.15,0-.69-1.92-1.74-2.44-1.74-0.64,0-1.04,1.28-1.62,2.73-0.24.52-.82,2.55-1.28,2.55-1.1,0-1.51-6.73-1.51-7.83a47.429,47.429,0,0,1,3.13-16.3,3.393,3.393,0,0,1,1.86-2.09,0.8,0.8,0,0,0,.58-0.63C2829.85,1398.79,2829.04,1398.61,2827.88,1398.27Zm63.68,34.57a1.737,1.737,0,0,1-1.56,1.97c-1.74,0-4.53-.99-4.53-3.08a2.406,2.406,0,0,1,2.5-2.32A3.544,3.544,0,0,1,2891.56,1432.84Zm5.4-37.59a7.694,7.694,0,0,0-2.21.64c-3.36,1.33-10.96,2.14-14.67,2.14h-1.4c-1.74,0-1.79.12-1.79,1.45,0,0.99.17,5.34,1.45,5.34,0.93,0,9.1-1.68,10.5-2.03a12.962,12.962,0,0,1,1.39-.23,0.822,0.822,0,0,1,.98.69c0,0.58-1.04,1.63-1.5,2.09a235.008,235.008,0,0,1-18.04,18.22c-0.53.4-1.4,1.04-1.4,1.74,0,0.92,2.96,4.17,4.18,4.17a0.8,0.8,0,0,0,.64-0.4c2.09-2.38,4.18-4.76,6.44-6.96,3.71-3.66,7.71-5.69,12.99-5.69,5.05,0,9.8,2.32,9.8,7.95,0,5.86-5.51,8.93-7.02,8.93a0.718,0.718,0,0,1-.69-0.75,5.8,5.8,0,0,0-1.05-3.72,9.445,9.445,0,0,0-7.71-4.11,7.271,7.271,0,0,0-7.42,7.01c0,5.92,6.84,7.89,11.65,7.89,9.34,0,18.45-5.33,18.45-15.6a11.985,11.985,0,0,0-6.9-11.25,16.954,16.954,0,0,0-7.14-1.74,10.727,10.727,0,0,0-2.38.23,3.237,3.237,0,0,1-.75.11,0.879,0.879,0,0,1-.99-0.75,1.775,1.775,0,0,1,.58-0.99,56.324,56.324,0,0,1,8.42-7.77c0.63-.46,1.27-0.81,1.27-1.22C2902.64,1399.66,2899.28,1395.25,2896.96,1395.25Zm28.41,29.12c0,1.56,1.4,4.35,2.27,5.62,3.77,5.28,10.26,6.04,16.3,6.04,3.48,0,14.32-.7,17.4-1.63a1.88,1.88,0,0,0,1.39-2.14c0-3.77-.41-4.76-1.28-4.76a5.562,5.562,0,0,0-.87.17,71.756,71.756,0,0,1-17.28,2.03c-5.45,0-10.38-.87-11.6-7.01a1.063,1.063,0,0,0-1.05-1.11C2930.59,1421.58,2925.37,1422.92,2925.37,1424.37Zm5.8-20.01a1.21,1.21,0,0,0,.82,1.21c2.84,1.16,10.03,1.45,13.22,1.45a79.812,79.812,0,0,0,10.5-.69c1.34-.23,1.63-0.35,1.63-1.74,0-2.38-.06-4.99-1.51-4.99a2.951,2.951,0,0,0-.76.12,49.6,49.6,0,0,1-10.5,1.16,37.373,37.373,0,0,1-9.86-1.22,8.235,8.235,0,0,0-1.68-.35c-1.1,0-1.22,1.04-1.39,2.03A20.618,20.618,0,0,0,2931.17,1404.36Zm54.53-8.65a2.977,2.977,0,0,0,.17.7,38.136,38.136,0,0,1,1.1,3.83c0.58,2.38,2.21,8.52,2.9,10.61a1.943,1.943,0,0,1,.23,1.05,1.781,1.781,0,0,1-.98,1.5c-4.82,3.14-10.04,7.26-10.04,13.58a10.208,10.208,0,0,0,5.34,8.93c3.83,2.26,7.6,2.5,11.89,2.5,2.78,0,13.75-.35,15.95-0.93,1.16-.29,1.22-0.93,1.22-2.44v-0.69c0-1.22-.06-3.6-0.87-3.6a1.543,1.543,0,0,0-.52.06,87.591,87.591,0,0,1-15.14,1.5,23.231,23.231,0,0,1-7.72-1.04c-1.79-.64-3.82-2.09-3.82-4.18,0-2.2,1.33-3.77,2.84-5.22,2.43-2.32,7.36-5.16,10.44-6.84a105.523,105.523,0,0,1,14.33-6.67,1.259,1.259,0,0,0,1.1-.93c0-.81-1.22-2.78-1.68-3.54-0.35-.58-1.34-2.32-2.09-2.32a3.736,3.736,0,0,0-1.51.58c-1.51.99-10.79,6.44-11.83,6.44-0.99,0-1.16-.99-1.34-1.74a79.905,79.905,0,0,1-1.8-10.38c-0.11-1.34,0-2.21-1.62-2.21a22.539,22.539,0,0,0-2.78.29C2987.61,1394.84,2985.7,1394.84,2985.7,1395.71Zm47.67,32.08a5.1,5.1,0,0,1,5.16,5.16A5.16,5.16,0,1,1,3033.37,1427.79Zm0-2.9a8.065,8.065,0,1,0,8.06,8.06A8.043,8.043,0,0,0,3033.37,1424.89Z" transform="translate(-2507.03 -1390.72)"/>
</svg>
