<svg xmlns="http://www.w3.org/2000/svg" width="427.004" height="32.81" viewBox="0 0 427.004 32.81">
  <defs>
    <style>
      .cls-1 {
        fill-rule: evenodd;
      }
    </style>
  </defs>
  <path id="沖縄でもっとも共創性がある" class="cls-1" d="M982.6,1153.23a0.892,0.892,0,0,0-.684.8,51.359,51.359,0,0,1-5.693,9.94,2.791,2.791,0,0,0-.576.9c0,0.43,1.657,1.66,2.053,1.98a3.646,3.646,0,0,0,1.189.8,0.5,0.5,0,0,0,.469-0.54c0-.29-0.108-0.47-0.108-0.65a3.593,3.593,0,0,1,.468-0.9c0.793-1.3,5.476-9.34,5.476-10.24C985.2,1154.53,983.25,1153.23,982.6,1153.23Zm-4.792-9c-0.576,0-2.053,1.87-2.053,2.37a1.308,1.308,0,0,0,.72.8,42.854,42.854,0,0,1,4.252,3.13,1.091,1.091,0,0,0,.648.33c0.721,0,2.126-1.84,2.126-2.31,0-.54-1.585-1.62-2.054-1.98A20.942,20.942,0,0,0,977.809,1144.23Zm7.494-3.71c0-.51-1.909-1.77-2.377-2.09a15,15,0,0,0-3.063-1.88c-0.685,0-2.054,1.84-2.054,2.38a1.137,1.137,0,0,0,.649.76,42.719,42.719,0,0,1,4,2.77,1.262,1.262,0,0,0,.721.43C983.754,1142.89,985.3,1141.09,985.3,1140.52Zm13.944,12.64a1.025,1.025,0,0,1-1.009-1.01v-5.08a1.012,1.012,0,0,1,1.009-1.01h2.773a1.014,1.014,0,0,1,1.01,1.01v5.08a1.027,1.027,0,0,1-1.01,1.01h-2.773Zm-4.612-1.01a1.025,1.025,0,0,1-1.009,1.01H990.96a0.96,0.96,0,0,1-1.009-1.01v-5.08a0.99,0.99,0,0,1,1.009-1.01h2.666a1.012,1.012,0,0,1,1.009,1.01v5.08Zm-1.009,4.29a0.858,0.858,0,0,1,1.009,1.01v4.14c0,1.84-.108,3.71-0.108,5.55,0,1.05.4,1.12,1.874,1.12,1.585,0,1.945-.04,1.945-1.12,0-1.84-.108-3.71-0.108-5.55v-4.14a0.858,0.858,0,0,1,1.009-1.01h3.023a0.575,0.575,0,0,1,.69.65c0.03,1.08.29,1.12,1.84,1.12,1.4,0,1.87,0,1.87-1.05,0-1.01-.07-2.02-0.07-2.99v-7.1c0-.93.03-1.83,0.03-2.77,0-1.33-.65-1.69-1.87-1.69-1.01,0-2.02.03-3.03,0.03h-2.483a0.845,0.845,0,0,1-1.009-.97v-2.24c0-1.29.036-2.01,0.4-2.3a0.765,0.765,0,0,0,.433-0.54c0-.47-0.577-0.47-0.9-0.51-0.757-.03-2.378-0.18-3.062-0.18a0.487,0.487,0,0,0-.613.47c0,0.11.036,0.25,0.036,0.36a15.22,15.22,0,0,1,.108,2.6v2.34a0.845,0.845,0,0,1-1.009.97h-2.378c-1.045,0-2.053-.03-3.062-0.03-1.225,0-1.874.36-1.874,1.69,0,0.94.072,1.84,0.072,2.77v7.1c0,0.97-.072,1.98-0.072,2.99,0,1.05.469,1.05,1.838,1.05,1.585,0,1.837-.04,1.873-1.12a0.56,0.56,0,0,1,.649-0.65h2.954Zm29.464,6.52a21.091,21.091,0,0,0-.82-3.24c-0.83-2.45-1.08-3.17-1.63-3.17-0.43,0-1.9.43-1.9,0.97a2.424,2.424,0,0,0,.14.51,36.507,36.507,0,0,1,1.51,5.11c0.11,0.51.18,0.87,0.83,0.87C1021.73,1164.01,1023.09,1163.61,1023.09,1162.96Zm-11.63-6.34c-0.44,0-.44.36-0.47,0.65a36.383,36.383,0,0,1-1.08,6.48c-0.07.33-.43,1.66-0.43,1.88,0,0.65,1.8.97,2.05,0.97a0.744,0.744,0,0,0,.72-0.72c0.4-1.48,1.08-5.62,1.26-7.21a0.73,0.73,0,0,1,.47-0.82,0.471,0.471,0,0,0,.36-0.4,0.638,0.638,0,0,0-.68-0.47C1013.29,1156.91,1011.75,1156.62,1011.46,1156.62Zm18.01-.11a0.819,0.819,0,0,1,.87.87v0.32a0.835,0.835,0,0,1-.87.87h-1.73a0.832,0.832,0,0,1-.86-0.87v-0.32a0.816,0.816,0,0,1,.86-0.87h1.73Zm4.15,0.87a0.816,0.816,0,0,1,.86-0.87h1.84a0.793,0.793,0,0,1,.83.87v0.32a0.809,0.809,0,0,1-.83.87h-1.84a0.832,0.832,0,0,1-.86-0.87v-0.32Zm-3.28-3.86a0.8,0.8,0,0,1-.87.83h-1.73a0.8,0.8,0,0,1-.86-0.83v-0.29a0.83,0.83,0,0,1,.86-0.86h1.73a0.832,0.832,0,0,1,.87.86v0.29Zm4.14,0.83a0.8,0.8,0,0,1-.86-0.83v-0.29a0.83,0.83,0,0,1,.86-0.86h1.84a0.806,0.806,0,0,1,.83.86v0.29a0.777,0.777,0,0,1-.83.83h-1.84Zm-0.86-10.09a0.83,0.83,0,0,1,.86-0.86h1.41a0.83,0.83,0,0,1,.86.86v0.29a0.832,0.832,0,0,1-.86.87h-1.41a0.832,0.832,0,0,1-.86-0.87v-0.29Zm-4.15-.86a0.832,0.832,0,0,1,.87.86v0.29a0.835,0.835,0,0,1-.87.87h-1.19a0.809,0.809,0,0,1-.83-0.87v-0.29a0.806,0.806,0,0,1,.83-0.86h1.19Zm5.01-2.06a0.83,0.83,0,0,1-.86-0.86v-0.18a0.832,0.832,0,0,1,.86-0.87h1.41a0.832,0.832,0,0,1,.86.87v0.18a0.83,0.83,0,0,1-.86.86h-1.41Zm-4.14-.86a0.832,0.832,0,0,1-.87.86h-1.19a0.806,0.806,0,0,1-.83-0.86v-0.18a0.809,0.809,0,0,1,.83-0.87h1.19a0.835,0.835,0,0,1,.87.87v0.18Zm-0.87,7.28a0.731,0.731,0,0,1,.87.83v0.39a0.731,0.731,0,0,1-.87.83h-4.5c-0.9,0-1.37.22-1.37,1.19,0,0.65.04,1.3,0.04,1.95v6.95c0,0.76-.04,1.48-0.04,2.23,0,0.8.4,0.76,1.62,0.76,1.55,0,1.66.04,1.69-.9,0-.79.29-0.9,1.52-0.9h0.9a0.86,0.86,0,0,1,1.01.97c0,0.69-.04,1.33-0.04,1.98,0,2.45,1.08,3.5,3.53,3.5h3.93c1.22,0,2.81-.07,3.49-1.23a9.373,9.373,0,0,0,.9-3.28c0-.9-1.87-1.08-2.55-1.08a0.563,0.563,0,0,0-.69.47c-0.18,1.41-.21,2.09-1.87,2.09h-2.02c-1.3,0-1.4-.29-1.4-1.51v-0.9a0.862,0.862,0,0,1,1-1.01h1.37c1.19,0,2.09.03,2.78,0.03,1.26,0,1.76-.18,1.76-1.18,0-.62-0.03-1.27-0.03-1.88v-5.11c0-.65.03-1.3,0.03-1.95,0-1.04-.54-1.23-1.87-1.23-0.68,0-1.55.04-2.67,0.04h-1.51a0.724,0.724,0,0,1-.86-0.83v-0.39a0.724,0.724,0,0,1,.86-0.83h2.02a0.641,0.641,0,0,1,.43.18,2.391,2.391,0,0,0,1.33.21c1.05,0,1.7.08,1.7-.93,0-.65-0.04-1.26-0.04-1.91v-4.83c0-.69.04-1.26,0.04-1.8,0-1.01-.18-1.62-1.23-1.62-0.83,0-1.69.07-2.52,0.07h-8.36c-0.9,0-1.62-.07-2.16-0.07-1.05,0-1.55.21-1.55,1.29,0,0.72.04,1.41,0.04,2.13v4.83c0,0.65-.08,1.26-0.08,1.91,0,1.01.69,0.93,1.73,0.93a2.723,2.723,0,0,0,1.41-.21,0.92,0.92,0,0,1,.43-0.18h1.8Zm-17.83-5.84a1.525,1.525,0,0,0-.65-0.32c-0.65,0-1.55,1.91-1.55,2.45a0.863,0.863,0,0,0,.43.68,47.543,47.543,0,0,1,3.64,3.06,1.164,1.164,0,0,1,.43.8,1.241,1.241,0,0,1-.21.61c-0.33.57-.65,1.15-1.01,1.69a1.507,1.507,0,0,1-1.37.83c-0.14,0-.33.04-0.51,0.04-0.61,0-1.15-.04-1.15.39,0,0.18.47,2.49,0.54,2.85a1.011,1.011,0,0,0,.54.83,0.564,0.564,0,0,0,.51-0.36,0.512,0.512,0,0,1,.5-0.33c0.69-.07,1.33-0.14,2.02-0.25h0.18a0.768,0.768,0,0,1,.79.9v6.27c0,1.62-.07,3.24-0.07,4.86,0,1.19.29,1.23,1.66,1.23,1.33,0,1.62-.04,1.62-1.23,0-1.62-.07-3.24-0.07-4.86v-6.7a0.95,0.95,0,0,1,.9-1.12l0.36-.07h0.21a0.812,0.812,0,0,1,.83.65,0.616,0.616,0,0,0,.72.5c0.15,0,2.06-.1,2.06-0.97a23.562,23.562,0,0,0-.83-3.13c-1.05-3.17-1.15-3.39-1.8-3.39-0.51,0-1.91.29-1.91,0.9a6.566,6.566,0,0,0,.43,1.37,0.974,0.974,0,0,1,.07.32,0.71,0.71,0,0,1-.68.72c-0.54.04-1.05,0.11-1.55,0.15a0.446,0.446,0,0,1-.54-0.4,0.463,0.463,0,0,1,.11-0.32c1.58-2.45,3.13-4.94,4.57-7.53a0.917,0.917,0,0,1,.72-0.4c0.43-.07.58-0.18,0.58-0.47a1.628,1.628,0,0,0-1.08-.86,12.811,12.811,0,0,0-2.16-.83,0.949,0.949,0,0,0-.73.86c-0.61,1.16-1.26,2.27-1.87,3.43a0.757,0.757,0,0,1-.65.39,0.82,0.82,0,0,1-.54-0.25,2.1,2.1,0,0,1-.32-0.29,0.769,0.769,0,0,1-.29-0.54,0.785,0.785,0,0,1,.14-0.43c0.83-1.33,2.13-3.89,2.81-5.33a0.584,0.584,0,0,1,.51-0.33c0.25-.07.65-0.07,0.65-0.43,0-.61-2.99-1.66-3.17-1.66a0.655,0.655,0,0,0-.54.65c-0.44,1.23-1.66,3.89-2.27,5.12a0.678,0.678,0,0,1-.54.43A0.666,0.666,0,0,1,1011.64,1141.92Zm32.85,1.41a16.572,16.572,0,0,0,.4,2.59c0.11,0.4.29,1.19,0.79,1.19a3.327,3.327,0,0,0,.54-0.07,79.826,79.826,0,0,1,7.96-1.48c0.37-.04,2.02-0.32,2.27-0.32a0.465,0.465,0,0,1,.55.43,1.941,1.941,0,0,1-.62.86,16,16,0,0,0-3.96,10.34c0,7.03,5.26,8.97,11.38,8.97a1,1,0,0,0,1.16-.61,10.121,10.121,0,0,0,.54-2.95c0-.58-0.29-0.62-0.83-0.62-0.4,0-1.19.04-1.8,0.04-3.68,0-6.34-1.01-6.34-5.19a13.42,13.42,0,0,1,1.73-6.34,10.959,10.959,0,0,1,6.12-5.37,17.717,17.717,0,0,1,5.98-.75c0.87-.04,1.62.03,1.62-0.76a16.862,16.862,0,0,0-.32-2.63c-0.07-.43-0.14-0.9-0.69-0.9a2.372,2.372,0,0,0-.46.03c-2.71.44-5.44,0.8-8.18,1.12-5.23.61-10.49,1.15-15.75,1.48C1045,1142.5,1044.49,1142.39,1044.49,1143.33Zm27.24,2.09a3.012,3.012,0,0,0-1.84,1.36,0.853,0.853,0,0,0,.26.47,32.663,32.663,0,0,1,2.34,2.99,0.859,0.859,0,0,0,.54.47,2.988,2.988,0,0,0,1.84-1.51A14.691,14.691,0,0,0,1071.73,1145.42Zm-4.36,1.98c-0.39,0-1.84.9-1.84,1.33a0.906,0.906,0,0,0,.33.5c0.79,0.98,1.58,1.99,2.3,3.03a0.771,0.771,0,0,0,.51.43c0.4,0,1.84-.97,1.84-1.51C1070.51,1150.75,1067.77,1147.4,1067.37,1147.4Zm23.89-10.45a12.926,12.926,0,0,0-1.81-.58c-0.36,0-.43.33-0.54,0.72-0.28,1.05-1.08,3.61-1.4,4.83a0.9,0.9,0,0,1-.83.87,1.152,1.152,0,0,1-.47-0.11,24.666,24.666,0,0,1-2.45-1.26,1.833,1.833,0,0,0-.83-0.4c-0.75,0-1.33,2.49-1.33,3.1,0,0.65.72,0.97,3.24,1.94a1.311,1.311,0,0,1,1.16,1.19,6.906,6.906,0,0,1-.15.8c-0.11.54-.25,1-0.32,1.4-0.22,1.05-.33,1.55-0.94,1.55a6.472,6.472,0,0,1-2.31-1.01,1.991,1.991,0,0,0-.9-0.36c-0.9,0-1.26,2.85-1.26,3.06a0.964,0.964,0,0,0,.69.87,11.355,11.355,0,0,0,2.12.86c0.83,0.25,1.44.47,1.44,1.26,0,0.36-.14,1.73-0.14,2.63,0,5.48,3.21,8.61,8.65,8.61,4.79,0,9.94-1.94,9.94-7.53a19.646,19.646,0,0,0-1.19-6.3c-0.29-.79-0.39-1.37-0.97-1.37-0.4,0-3.06.47-3.06,1.33a1.93,1.93,0,0,0,.14.65,15.661,15.661,0,0,1,1.23,5.23,3.614,3.614,0,0,1-.8,2.55c-1.11,1.27-3.6,1.7-5.22,1.7-3.14,0-4.79-1.66-4.79-4.79,0-1.55,0-2.45.97-2.45a3.254,3.254,0,0,1,.58.07c0.86,0.11,2.55.36,3.38,0.36a0.948,0.948,0,0,0,1.01-.83,7.99,7.99,0,0,0,.47-2.41c0-.36-0.11-0.62-1.08-0.62a31.921,31.921,0,0,1-3.24-.14c-0.51-.04-1.26-0.07-1.26-0.83,0-.29.5-2.56,0.61-2.99a0.991,0.991,0,0,1,.97-0.86,0.976,0.976,0,0,1,.33.07,45.034,45.034,0,0,0,4.9.54,0.8,0.8,0,0,0,.79-0.79,10.783,10.783,0,0,0,.39-2.35c0-.72-0.54-0.68-1.22-0.68-1.23-.04-2.45-0.15-3.68-0.29a0.877,0.877,0,0,1-.97-0.83,1.29,1.29,0,0,1,.11-0.5c0.29-.87.58-1.77,0.9-2.63,0.51-1.3.76-1.34,1.26-1.59a0.507,0.507,0,0,0,.33-0.39C1093.71,1137.67,1091.87,1137.16,1091.26,1136.95Zm21.36,14.48c0,0.76,1.3,2.92,2.23,2.92a1.893,1.893,0,0,0,1.01-.36c3.06-1.66,7.75-3.64,11.24-3.64,2.2,0,4.04,1.3,4.04,3.64,0,2.31-1.62,4.07-3.53,5.15a16.03,16.03,0,0,1-6.16,1.8c-0.47.04-1.16,0.11-1.16,0.72,0,0.29.51,2.74,1.7,2.74a20.475,20.475,0,0,0,5.54-1.51c3.79-1.62,7.07-4.36,7.07-8.83,0-4.36-3.28-7.06-7.5-7.06-3.38,0-7.17,1.44-10.37,2.59a26.828,26.828,0,0,1-3.32,1.09A0.829,0.829,0,0,0,1112.62,1151.43Zm37.36-12.57a1.7,1.7,0,0,0,.11.43c0.28,0.76.46,1.55,0.68,2.38,0.36,1.48,1.37,5.29,1.8,6.59a1.227,1.227,0,0,1,.15.65,1.145,1.145,0,0,1-.62.94c-2.99,1.94-6.23,4.5-6.23,8.43a6.361,6.361,0,0,0,3.31,5.55c2.38,1.4,4.72,1.55,7.39,1.55a86.362,86.362,0,0,0,9.91-.58c0.72-.18.76-0.58,0.76-1.51v-0.44c0-.75-0.04-2.23-0.54-2.23a0.935,0.935,0,0,0-.33.04,54.452,54.452,0,0,1-9.4.93,14.371,14.371,0,0,1-4.79-.65c-1.12-.39-2.38-1.29-2.38-2.59a4.546,4.546,0,0,1,1.76-3.24,36.687,36.687,0,0,1,6.49-4.25,65.777,65.777,0,0,1,8.9-4.15,0.764,0.764,0,0,0,.68-0.57,7.115,7.115,0,0,0-1.04-2.2c-0.22-.36-0.83-1.44-1.3-1.44a2.267,2.267,0,0,0-.94.36c-0.93.61-6.7,4-7.35,4a1.04,1.04,0,0,1-.83-1.08,49.139,49.139,0,0,1-1.11-6.45c-0.07-.83,0-1.37-1.01-1.37a13.682,13.682,0,0,0-1.73.18C1151.17,1138.32,1149.98,1138.32,1149.98,1138.86Zm39.63-1.91a12.926,12.926,0,0,0-1.81-.58c-0.36,0-.43.33-0.54,0.72-0.28,1.05-1.08,3.61-1.4,4.83a0.9,0.9,0,0,1-.83.87,1.152,1.152,0,0,1-.47-0.11,24.666,24.666,0,0,1-2.45-1.26,1.833,1.833,0,0,0-.83-0.4c-0.75,0-1.33,2.49-1.33,3.1,0,0.65.72,0.97,3.24,1.94a1.311,1.311,0,0,1,1.16,1.19,6.906,6.906,0,0,1-.15.8c-0.11.54-.25,1-0.32,1.4-0.22,1.05-.33,1.55-0.94,1.55a6.472,6.472,0,0,1-2.31-1.01,1.991,1.991,0,0,0-.9-0.36c-0.9,0-1.26,2.85-1.26,3.06a0.964,0.964,0,0,0,.69.87,11.355,11.355,0,0,0,2.12.86c0.83,0.25,1.44.47,1.44,1.26,0,0.36-.14,1.73-0.14,2.63,0,5.48,3.21,8.61,8.65,8.61,4.79,0,9.94-1.94,9.94-7.53a19.646,19.646,0,0,0-1.19-6.3c-0.29-.79-0.39-1.37-0.97-1.37-0.4,0-3.06.47-3.06,1.33a1.93,1.93,0,0,0,.14.65,15.661,15.661,0,0,1,1.23,5.23,3.614,3.614,0,0,1-.8,2.55c-1.11,1.27-3.6,1.7-5.22,1.7-3.13,0-4.79-1.66-4.79-4.79,0-1.55,0-2.45.97-2.45a3.254,3.254,0,0,1,.58.07c0.86,0.11,2.56.36,3.38,0.36a0.948,0.948,0,0,0,1.01-.83,7.99,7.99,0,0,0,.47-2.41c0-.36-0.11-0.62-1.08-0.62a31.921,31.921,0,0,1-3.24-.14c-0.51-.04-1.26-0.07-1.26-0.83,0-.29.5-2.56,0.61-2.99a1,1,0,0,1,.97-0.86,0.976,0.976,0,0,1,.33.07,45.034,45.034,0,0,0,4.9.54,0.8,0.8,0,0,0,.79-0.79,10.808,10.808,0,0,0,.4-2.35c0-.72-0.55-0.68-1.23-0.68-1.22-.04-2.45-0.15-3.67-0.29a0.88,0.88,0,0,1-.98-0.83,1.29,1.29,0,0,1,.11-0.5c0.29-.87.58-1.77,0.9-2.63,0.51-1.3.76-1.34,1.26-1.59a0.507,0.507,0,0,0,.33-0.39C1192.06,1137.67,1190.22,1137.16,1189.61,1136.95Zm48.56,28.82a1,1,0,0,0-.68-0.72,33.366,33.366,0,0,1-8.76-6.45,1.088,1.088,0,0,0-.68-0.43c-0.47,0-2.67,1.51-2.67,2.05,0,0.65,3.86,3.89,4.54,4.44,0.86,0.68,4.9,3.56,5.76,3.56C1236.48,1168.22,1238.17,1166.31,1238.17,1165.77Zm-18.19-5.19c0-.36-1.3-1.19-1.63-1.4a8.2,8.2,0,0,0-1.91-1.08,0.9,0.9,0,0,0-.5.39,34.124,34.124,0,0,1-8.57,6.49,1.219,1.219,0,0,0-.83.79c0,0.58,1.69,2.45,2.48,2.45a2.8,2.8,0,0,0,1.23-.54,39.478,39.478,0,0,0,7.92-6.2,1.1,1.1,0,0,1,1.01-.46C1219.47,1161.02,1219.98,1160.98,1219.98,1160.58Zm-1.3-12.97a1.013,1.013,0,0,1,1.01-1.01h5.73a1.048,1.048,0,0,1,1.01,1.01v5.62a1.034,1.034,0,0,1-1.01,1.01h-5.73a1,1,0,0,1-1.01-1.01v-5.62Zm-3.64,5.62a0.869,0.869,0,0,1-1.01,1.01h-2.12c-1.55,0-3.07-.11-4.62-0.11-0.83,0-.79.54-0.79,1.81s-0.04,1.8.79,1.8c1.55,0,3.07-.11,4.62-0.11h21.04c1.51,0,3.02.11,4.57,0.11,0.83,0,.83-0.51.83-1.8s0-1.81-.83-1.81c-1.55,0-3.06.11-4.57,0.11h-1.88a0.869,0.869,0,0,1-1.01-1.01v-5.62a0.859,0.859,0,0,1,1.01-1.01h0.8c1.44,0,2.88.11,4.36,0.11,0.79,0,.75-0.54.75-1.8,0-1.33.04-1.84-.75-1.84-1.48,0-2.92.08-4.36,0.08h-0.8a0.849,0.849,0,0,1-1.01-.98V1139c0-.93.04-1.4,0.44-1.69a0.731,0.731,0,0,0,.5-0.54c0-.43-0.65-0.47-1.01-0.51-0.61-.07-2.56-0.25-3.1-0.25-0.36,0-.65.07-0.65,0.51,0,0.1.04,0.25,0.04,0.36,0.07,0.86.15,1.69,0.15,2.52v2.77a0.849,0.849,0,0,1-1.01.98h-5.73a0.849,0.849,0,0,1-1.01-.98v-3.13c0-.97.03-1.44,0.43-1.7a0.745,0.745,0,0,0,.51-0.57c0-.43-0.65-0.47-1.01-0.51-0.62-.07-2.56-0.25-3.1-0.25a0.5,0.5,0,0,0-.61.54v0.33a15.578,15.578,0,0,1,.14,2.55v2.74a0.849,0.849,0,0,1-1.01.98h-0.86c-1.44,0-2.92-.08-4.36-0.08-0.83,0-.8.47-0.8,1.84,0,1.3-.03,1.8.8,1.8,1.44,0,2.92-.11,4.36-0.11h0.86a0.859,0.859,0,0,1,1.01,1.01v5.62Zm52.67,8.61c0,2.06,0,2.6-1.58,2.6-0.9,0-1.66-.15-1.99-0.15-0.72,0-.75.62-0.75,1.19,0,2.85.97,2.78,2.3,2.78,2.96,0,5.7-.51,5.7-4.07,0-.87-0.08-1.73-0.08-2.6v-22.23c0-1.44.04-1.76,0.44-2.02a0.684,0.684,0,0,0,.5-0.54c0-.5-0.65-0.54-1.66-0.61a5.469,5.469,0,0,1-.68-0.03,12.561,12.561,0,0,0-1.73-.11c-0.32,0-.61.03-0.61,0.43a1.123,1.123,0,0,0,.03.32,14.364,14.364,0,0,1,.11,2.27v22.77Zm-6.09-5.83c0,1.37-.07,2.7-0.07,4.07,0,0.94.36,0.97,1.69,0.97s1.66-.03,1.66-1.01c0-1.37-.07-2.7-0.07-4.03v-12.86c0-1.23.04-1.48,0.4-1.7a0.817,0.817,0,0,0,.54-0.54,0.535,0.535,0,0,0-.58-0.43c-0.51-.07-2.67-0.25-3.14-0.25a0.458,0.458,0,0,0-.57.43c0,0.07.03,0.18,0.03,0.29a16.2,16.2,0,0,1,.11,2.02v13.04Zm-11.2,8.36a1.034,1.034,0,0,1-1.01-1.01v-0.83a0.95,0.95,0,0,1,1.01-.97h4a0.961,0.961,0,0,1,1.01.97v0.83a1.048,1.048,0,0,1-1.01,1.01h-4Zm-2.38-13.26a0.682,0.682,0,0,1-.72-0.72v-0.22a0.684,0.684,0,0,1,.72-0.68h6.77a0.638,0.638,0,0,1,.69.68v0.22a0.654,0.654,0,0,1-.69.72h-6.77Zm0.25,3.82a0.828,0.828,0,0,1-.97-0.87,0.884,0.884,0,0,1,1.01-.83h6.52a0.575,0.575,0,0,1,.65.69v0.32a0.588,0.588,0,0,1-.69.69h-6.52Zm7.06,12.43c-0.03.79,0.33,0.75,1.7,0.75s1.87,0.04,1.87-.61c0-.14-0.07-1.19-0.07-1.84v-3.67c0-.51.03-0.97,0.03-1.37,0-.94-0.25-1.51-2.01-1.51-0.8,0-1.55.03-2.31,0.03h-4.11c-0.75,0-1.51-.03-2.27-0.03h-0.57a0.636,0.636,0,0,1-.69-0.76v-0.14a0.875,0.875,0,0,1,.98-0.8h6.34c0.93,0,1.83.08,2.77,0.08s2.02-.04,2.02-1.27c0-.64-0.07-1.26-0.07-1.87v-3.89c0-.69.07-1.37,0.07-2.05,0-1.3-.97-1.41-2.06-1.41-0.9,0-1.83.07-2.73,0.07h-5.7c-1.01,0-1.98-.11-2.99-0.11-1.11,0-1.76.22-1.76,1.48,0,0.65.03,1.33,0.03,2.02v2.27c0,3.93-.68,8.18-2.84,11.53a2.45,2.45,0,0,0-.47.86c0,0.65,1.84,2.02,2.67,2.02a1.208,1.208,0,0,0,.97-0.83,25.352,25.352,0,0,0,1.51-3.1,0.252,0.252,0,0,1,.25-0.18c0.26,0,.26.33,0.26,0.51v2.12c0,0.54-.08,1.73-0.08,1.84,0,0.65.58,0.61,1.73,0.61,1.37,0,1.7,0,1.66-.75a0.509,0.509,0,0,1,.54-0.54h4.79A0.49,0.49,0,0,1,1255.35,1167.36Zm-3.42-26.63c0.61,0.61,1.19,1.15,1.84,1.73a0.55,0.55,0,0,1,.14.33,0.368,0.368,0,0,1-.39.32h-3.61a4.691,4.691,0,0,1-.75,0,0.367,0.367,0,0,1-.4-0.32,0.573,0.573,0,0,1,.14-0.37c0.62-.54,1.19-1.11,1.77-1.69a0.872,0.872,0,0,1,.65-0.32A0.86,0.86,0,0,1,1251.93,1140.73Zm-5.33,4.11a0.641,0.641,0,0,0,.75.76c0.87,0,1.73-.08,2.56-0.08h2.71c0.82,0,1.69.08,2.55,0.08,0.65,0,.72-0.26.76-0.83a0.364,0.364,0,0,1,.25-0.33,0.3,0.3,0,0,1,.18.07,8.456,8.456,0,0,0,2.34,1.3c0.87,0,2.17-1.84,2.17-2.59a0.98,0.98,0,0,0-.65-0.69,26.054,26.054,0,0,1-6.42-4.46,0.133,0.133,0,0,1-.03-0.15,0.162,0.162,0,0,1,.14-0.18,0.511,0.511,0,0,0,.51-0.43c0-.43-0.4-0.51-1.34-0.83a14.492,14.492,0,0,0-2.23-.68,1.034,1.034,0,0,0-.76.57,29.508,29.508,0,0,1-8.46,7.35,1.24,1.24,0,0,0-.83.79c0,0.73,1.22,2.38,1.98,2.38,0.61,0,2.88-1.76,3.46-2.23a0.62,0.62,0,0,0,.14-0.04A0.237,0.237,0,0,1,1246.6,1144.84Zm33.07,17.4c0,1.59-.07,3.14-0.07,4.72,0,0.94.25,1.3,1.84,1.3,1.29,0,1.8-.18,1.8-1.15,0-1.63-.08-3.25-0.08-4.87v-22.52c0-1.33.04-2.12,0.44-2.48a0.888,0.888,0,0,0,.5-0.62c0-.46-0.61-0.54-0.94-0.57-0.64-.07-2.12-0.18-2.73-0.18-0.47,0-.83.03-0.83,0.61,0,0.36.07,2.49,0.07,4.25v21.51Zm-0.25-18.95c0-.43-0.65-0.5-1.05-0.58-0.07,0-.14-0.03-0.21-0.03-0.29-.04-1.62-0.22-1.81-0.22-0.46,0-.54.33-0.54,0.72v0.43a30.366,30.366,0,0,1-1.26,7.64,3.218,3.218,0,0,0-.18.79c0,0.65,1.59.98,2.13,0.98,0.68,0,.79-0.4.94-0.98a47.031,47.031,0,0,0,1.26-7.38c0.07-.76.07-0.83,0.43-1.01A0.489,0.489,0,0,0,1279.42,1143.29Zm15.27,19.35a0.839,0.839,0,0,1-1,.97h-3.21c-1.33,0-2.63-.07-3.96-0.07-0.94,0-.91.43-0.91,1.73s-0.03,1.76.91,1.76c1.33,0,2.63-.07,3.96-0.07h11.53c1.33,0,2.63.07,3.96,0.07,0.94,0,.9-0.43.9-1.73s0.04-1.76-.9-1.76c-1.3,0-2.63.07-3.96,0.07h-2.63a0.846,0.846,0,0,1-1.01-.97v-4.87a0.859,0.859,0,0,1,1.01-1.01h1.01c1.29,0,2.59.11,3.89,0.11,0.9,0,.86-0.54.86-1.76,0-1.26.04-1.77-.93-1.77-1.27,0-2.53.11-3.82,0.11h-1.01a0.859,0.859,0,0,1-1.01-1.01v-4.21a0.869,0.869,0,0,1,1.01-1.01h1.94c1.37,0,2.71.1,4.04,0.1,0.86,0,.83-0.46.83-1.72,0-1.34.03-1.77-.83-1.77-1.33,0-2.67.11-4.04,0.11h-1.94a0.859,0.859,0,0,1-1.01-1.01v-3.75c0-1.26.04-1.84,0.43-2.09a0.806,0.806,0,0,0,.51-0.57c0-.4-0.54-0.44-0.83-0.44-0.58-.07-2.85-0.28-3.32-0.28-0.36,0-.65.07-0.65,0.5,0,0.11.04,0.25,0.04,0.36,0.07,0.86.14,2.09,0.14,3.17v3.1a0.852,0.852,0,0,1-1,1.01h-1.01a0.715,0.715,0,0,1-.83-0.72V1143c0.14-.79.25-1.37,0.32-1.84,0.18-1.04.22-1.26,0.65-1.55a0.582,0.582,0,0,0,.36-0.46c0-.44-0.72-0.54-1.04-0.62-0.44-.07-2.17-0.43-2.49-0.43-0.54,0-.54.51-0.58,0.9a35.409,35.409,0,0,1-1.29,7.03,0.328,0.328,0,0,1-.26.18,0.277,0.277,0,0,1-.25-0.22c-0.21-.97-0.43-1.94-0.72-2.88-0.36-1.3-.5-1.87-1.15-1.87-0.25,0-1.8.32-1.8,1a2.455,2.455,0,0,0,.1.47,30.985,30.985,0,0,1,1.12,4.87c0.11,0.61.22,0.9,0.9,0.9,0.18,0,.36-0.04.54-0.04,0.29-.03.51,0.07,0.51,0.33a3.1,3.1,0,0,1-.29.72,11.954,11.954,0,0,0-.76,1.91c0,0.79,1.88,1.29,2.49,1.29a0.732,0.732,0,0,0,.72-0.5,23.806,23.806,0,0,0,1.62-4.07,1.154,1.154,0,0,1,1.26-.9h1.88a0.862,0.862,0,0,1,1,1.01v4.21a0.852,0.852,0,0,1-1,1.01h-1.3c-1.3,0-2.56-.11-3.82-0.11-0.97,0-.94.51-0.94,1.77s-0.03,1.76.9,1.76c1.3,0,2.56-.11,3.86-0.11h1.3a0.866,0.866,0,0,1,1,1.01v4.87Zm26.34-24.54a0.444,0.444,0,0,0-.43.54c0,0.07.07,0.83,0.07,1.41a32.643,32.643,0,0,1-.4,4.64,1.151,1.151,0,0,1-1.15,1.12c-1.98.36-4,.87-6.02,1.08-0.43.04-1.04,0.04-1.04,0.58,0,0.22.61,3.75,1.47,3.75a2.443,2.443,0,0,0,.76-0.26,30.146,30.146,0,0,1,4.14-1.26,0.456,0.456,0,0,1,.47.47,13.653,13.653,0,0,1-.9,2.74,28.7,28.7,0,0,1-6.45,10.02,1.344,1.344,0,0,0-.5.82c0,0.83,2.3,2.2,2.95,2.2a0.832,0.832,0,0,0,.61-0.36,31.954,31.954,0,0,0,3.57-5.11,40.6,40.6,0,0,0,4.61-10.78c0.26-1.01.65-1.29,2.67-1.29,2.2,0,2.31,1.51,2.31,3.27a21.4,21.4,0,0,1-1.63,8.15c-0.9,1.8-1.8,2.23-3.78,2.23-0.72,0-1.26-.14-1.62-0.14a0.5,0.5,0,0,0-.5.61,7.307,7.307,0,0,0,.64,2.59,1.48,1.48,0,0,0,1.66.83,7.36,7.36,0,0,0,6.81-3.89c1.59-2.88,2.16-7.75,2.16-11.02,0-2.02-.43-4.08-2.23-5.26a7.15,7.15,0,0,0-4.07-.8h-0.43a0.7,0.7,0,0,1-.8-0.72,2.142,2.142,0,0,1,.07-0.43c0.11-.58.18-1.08,0.26-1.48,0.18-1.29.25-1.87,0.93-2.38a0.6,0.6,0,0,0,.33-0.46,1.018,1.018,0,0,0-.94-0.58C1324.09,1138.79,1321.39,1138.1,1321.03,1138.1Zm14.66,0a3.01,3.01,0,0,0-1.73,1.51,0.888,0.888,0,0,0,.33.51,32.048,32.048,0,0,1,2.56,2.77,0.983,0.983,0,0,0,.5.4,2.714,2.714,0,0,0,1.73-1.66A14.425,14.425,0,0,0,1335.69,1138.1Zm3.39-2.56a3.218,3.218,0,0,0-1.73,1.52,0.847,0.847,0,0,0,.36.5c0.9,0.9,1.73,1.8,2.56,2.78a0.753,0.753,0,0,0,.5.39,2.808,2.808,0,0,0,1.73-1.66A14.519,14.519,0,0,0,1339.08,1135.54Zm-5.87,6.49c-0.58,0-2.56,1.19-2.56,1.84a1.171,1.171,0,0,0,.32.61,26.358,26.358,0,0,1,4.83,7.71,1.033,1.033,0,0,0,.83.83c0.72,0,2.99-1.34,2.99-2.16C1339.62,1149.96,1334.58,1142.03,1333.21,1142.03Zm26.4,8.54a0.387,0.387,0,0,1,.47.32,1.517,1.517,0,0,1-.22.58c-0.28.57-1.62,3.17-2.23,3.17-0.32,0-.36-0.87-0.36-1.44v-0.43c0-.8-0.04-1.52.36-1.77A5.2,5.2,0,0,1,1359.61,1150.57Zm-6.19,2.48c0.36,0,.43.29,0.43,0.62s-0.04.68-.04,1.04c0,1.12.11,2.63,0.11,2.96a1.3,1.3,0,0,1-.43,1.11c-0.98.76-3.07,2.02-4.33,2.02a0.938,0.938,0,0,1-1.01-1.08C1348.15,1156.8,1352.66,1153.05,1353.42,1153.05Zm2.41-15.71a0.556,0.556,0,0,0-.58.58c-0.18,1.3-.32,2.56-0.5,3.82a1.427,1.427,0,0,1-.36.97,1.4,1.4,0,0,1-.97.33c-1.23.11-2.45,0.14-3.68,0.14-0.65,0-1.26-.03-1.87-0.03-0.65,0-.87.1-0.87,1.91,0,1.69.22,1.69,1.8,1.69,1.34,0,2.67-.18,4-0.29,0.15,0,.65-0.07.8-0.07a0.562,0.562,0,0,1,.61.61c0,1.73-.83,1.91-1.05,2.02-4.07,1.94-8.64,6.34-8.64,11.13a4.016,4.016,0,0,0,4.07,4.32,10.329,10.329,0,0,0,5.33-1.94,0.875,0.875,0,0,1,.4-0.14,0.417,0.417,0,0,1,.39.36,0.658,0.658,0,0,0,.61.5c0.8,0,2.74-1.23,2.74-1.91v-0.18c-0.03-.18-0.21-1.22-0.21-1.33a0.909,0.909,0,0,1,.36-0.72,32.506,32.506,0,0,0,4.83-6.89,1.182,1.182,0,0,1,.97-0.9,4.969,4.969,0,0,1,3.6,5.16c0,4.54-4.65,6.7-8.43,7.71-0.4.1-.79,0.14-0.79,0.54,0,0.68.86,2.88,1.65,2.88,1.19,0,11.39-3.1,11.39-11.28,0-6.16-5.01-9.01-10.59-9.01a23.056,23.056,0,0,0-2.34.19c-0.11,0-.22.03-0.29,0.03a0.521,0.521,0,0,1-.58-0.47,1.364,1.364,0,0,1,.97-1.44c1.44-.21,3.68-0.65,5.08-0.97,0.9-.18,1.77-0.33,1.77-1.01,0-.14-0.29-2.88-1.15-2.88a1.786,1.786,0,0,0-.62.18,29.054,29.054,0,0,1-4.25,1.19,3.413,3.413,0,0,1-.54.1,0.517,0.517,0,0,1-.5-0.54c0-.14.18-0.9,0.21-1.11a1.638,1.638,0,0,1,.8-1.34,0.672,0.672,0,0,0,.36-0.46c0-.36-0.58-0.47-1.55-0.76C1357.81,1137.92,1356.08,1137.34,1355.83,1137.34Zm35.05,24.58a1.079,1.079,0,0,1-.97,1.22c-1.08,0-2.81-.61-2.81-1.91a1.5,1.5,0,0,1,1.55-1.44A2.2,2.2,0,0,1,1390.88,1161.92Zm3.35-23.35a4.832,4.832,0,0,0-1.37.4,33.722,33.722,0,0,1-9.11,1.33h-0.87c-1.08,0-1.11.07-1.11,0.9,0,0.61.11,3.31,0.9,3.31,0.57,0,5.65-1.04,6.52-1.26,0.22-.03.68-0.14,0.86-0.14a0.522,0.522,0,0,1,.62.43,3.151,3.151,0,0,1-.94,1.3,142.451,142.451,0,0,1-11.21,11.31,1.819,1.819,0,0,0-.86,1.08c0,0.58,1.84,2.6,2.59,2.6a0.493,0.493,0,0,0,.4-0.26c1.3-1.47,2.59-2.95,4-4.32a10.94,10.94,0,0,1,8.07-3.53c3.13,0,6.09,1.44,6.09,4.94a5.854,5.854,0,0,1-4.36,5.55,0.443,0.443,0,0,1-.43-0.47,3.6,3.6,0,0,0-.65-2.31,5.88,5.88,0,0,0-4.79-2.56,4.532,4.532,0,0,0-4.62,4.36c0,3.68,4.26,4.9,7.25,4.9,5.8,0,11.45-3.31,11.45-9.69a7.444,7.444,0,0,0-4.28-6.99,10.552,10.552,0,0,0-4.43-1.08,7.418,7.418,0,0,0-1.48.14,2.013,2.013,0,0,1-.47.08,0.543,0.543,0,0,1-.61-0.47,1.016,1.016,0,0,1,.36-0.61,34.1,34.1,0,0,1,5.22-4.83,1.588,1.588,0,0,0,.79-0.76C1397.76,1141.31,1395.67,1138.57,1394.23,1138.57Z" transform="translate(-975.656 -1135.53)"/>
</svg>
