<svg xmlns="http://www.w3.org/2000/svg" width="621.47" height="53.03" viewBox="0 0 621.47 53.03">
  <defs>
    <style>
      .cls-1 {
        fill-rule: evenodd;
      }
    </style>
  </defs>
  <path id="それは_自らアウトプットし_" data-name="それは、自らアウトプットし " class="cls-1" d="M2529.76,1393.57a4.131,4.131,0,0,0-1.34.52c-2.72,1.27-12.64,2.67-15.95,2.96-1.04.11-1.62,0.17-1.62,1.27s0.75,5.34,2.2,5.34a5.363,5.363,0,0,0,1.34-.29c0.87-.23,6.9-1.86,7.36-1.86a0.485,0.485,0,0,1,.53.47,1.074,1.074,0,0,1-.41.69c-4.58,4.24-10.56,9.92-15.43,13.69a7.221,7.221,0,0,1-3.71,1.74c-1.92.47-2.67,0.53-2.67,1.4,0,1.1,1.04,5.1,2.38,5.1a4.931,4.931,0,0,0,1.56-.46c2.32-.93,7.89-2.79,10.27-3.48,0.64-.18,3.66-1.05,4.06-1.05a0.557,0.557,0,0,1,.58.52,0.686,0.686,0,0,1-.29.53c-2.78,2.49-5.04,5.04-5.04,9.04,0,4.99,3.77,8.13,8.06,9.75a28.63,28.63,0,0,0,7.77,1.8,1.651,1.651,0,0,0,1.74-1.16,22.643,22.643,0,0,0,1.05-4.24c0-.75-0.58-0.75-1.16-0.81-3.72-.23-11.26-0.93-11.26-5.97,0-4.24,4.53-7.83,7.83-9.81a32.043,32.043,0,0,1,11.95-3.94c1.74-.23,2.32-0.23,2.32-1.34,0-.52-0.46-3.94-0.58-4.46a1.045,1.045,0,0,0-.81-0.87,3.506,3.506,0,0,0-.7.11c-2.03.64-21.34,5.8-22.04,5.8a0.464,0.464,0,0,1-.52-0.4,1.7,1.7,0,0,1,.64-0.93c2.72-2.2,11.77-10.38,13.92-11.6,1.22-.7,2.38-1.22,2.38-2.03C2534.17,1398.27,2531.5,1393.57,2529.76,1393.57Zm35.44-1.16c-0.64,0-.93.17-0.93,0.81,0,0.4.06,1.1,0.06,1.8,0,2.55-.24,6.03-0.24,7.6a3.685,3.685,0,0,1-.29,1.74c-0.69,1.39-8.06,2.66-9.8,2.9-0.7.11-1.91,0.11-1.91,1.04a17.478,17.478,0,0,0,1.21,3.94,2.039,2.039,0,0,0,1.69,1.63c1.1,0,5.8-1.86,7.01-2.38a3.44,3.44,0,0,1,1.05-.29,0.764,0.764,0,0,1,.75.87c0,0.46-.11.99-0.11,1.51a5.521,5.521,0,0,1-.7,2.73c-2.67,4.81-5.39,9.57-8.53,14.15a6.074,6.074,0,0,0-1.16,2.09c0,0.98,3.37,3.83,4.35,3.83a1.019,1.019,0,0,0,.76-0.7c0.58-1.1,2.38-4.24,3.01-5.28,0.58-.87.99-1.74,1.4-1.74a0.655,0.655,0,0,1,.52.75c0,2.61-.35,9.05-0.35,9.58,0,1.16,1.05,1.16,2.44,1.16,4.29,0,4.23-.58,4.23-0.99,0-.64-0.17-3.77-0.29-6.15-0.06-.99-0.17-2.73-0.17-3.07,0-1.34-.23-8.41,0-9.17,0.35-.93,2.49-2.96,3.25-3.71a58.515,58.515,0,0,1,6.32-5.63c1.22-.93,2.9-2.32,4.52-2.32,1.74,0,1.74,2.03,1.74,3.31,0,5.22-.75,10.5-0.75,15.72,0,3.65.46,9.28,5.34,9.28,2.9,0,5.85-1.68,8.17-3.37,0.64-.46,2.79-1.97,2.79-2.78,0-.93-1.68-5.28-2.67-5.28a1.669,1.669,0,0,0-1.1.64c-1.05,1.16-3.54,3.65-5.11,3.65-1.33,0-1.27-2.03-1.27-3.42,0-2.43.17-5.04,0.29-7.54,0.17-2.96.29-5.97,0.29-8.99,0-1.74-.06-4-1.05-5.51a6.238,6.238,0,0,0-4.98-2.55c-3.19,0-6.1,2.09-8.42,4.12-1.39,1.16-3.71,3.24-4.93,4.52a0.763,0.763,0,0,1-.46.29,0.487,0.487,0,0,1-.46-0.58,4.392,4.392,0,0,1,.11-0.93c0.18-.4,1.28-2.43,1.57-2.84a1.439,1.439,0,0,0,.35-0.64,4.168,4.168,0,0,0-1.98-2.67,0.991,0.991,0,0,1-.92-0.98c0-.81.4-3.66,0.52-4.64,0.35-2.38.29-2.56,1.04-3.19a1.351,1.351,0,0,0,.47-0.87,0.8,0.8,0,0,0-.64-0.64C2570.65,1393.04,2565.83,1392.41,2565.2,1392.41Zm70.12,37.7c0,2.38-1.45,3.19-3.66,3.19-1.45,0-4.23-.64-4.23-2.49,0-1.8,2.84-2.27,4.18-2.27C2632.71,1428.54,2635.32,1428.6,2635.32,1430.11Zm-1.16-35.15a0.708,0.708,0,0,0-.81.81c0,0.17.05,0.41,0.05,0.58,0.24,1.45.7,7.08,0.7,8.3,0,1.27-1.33,1.39-2.73,1.39h-0.92c-3.02,0-8.18-.58-8.88-0.58-0.87,0-.93.69-0.93,1.45s0.06,4.06.58,4.41c0.53,0.4,2.96.46,4.41,0.46h0.76c2.32,0,6.43-.23,6.9-0.23,1.45,0,1.33,1.62,1.39,2.2,0.06,1.69.35,7.2,0.35,8.65a1.055,1.055,0,0,1-1.16,1.21h-0.41a15.63,15.63,0,0,0-2.26-.17c-4.52,0-9.11,2.09-9.11,7.31,0,5.34,5.05,7.54,9.69,7.54,3.48,0,7.37-1.16,8.41-4.87a0.946,0.946,0,0,1,.87-0.93c0.76,0,3.66,2.55,4.29,3.19a2.658,2.658,0,0,0,1.63.87c1.33,0,3.36-2.67,3.36-4a3.1,3.1,0,0,0-1.51-2.21,32.3,32.3,0,0,0-6.26-4.06c-1.28-.64-1.86-0.75-1.97-2.26-0.06-1.51-.47-10.38-0.47-11.54,0-1.45.7-1.69,1.98-1.86,6.84-.93,7.25-1.33,7.25-2.44,0-.87-0.41-4.87-1.57-4.87a4.488,4.488,0,0,0-.87.18,37.548,37.548,0,0,1-5.8,1.45,1.281,1.281,0,0,1-1.22-1.51v-1.63c0-2.55.29-3.53,0.64-4.11a2.38,2.38,0,0,0,.64-1.16,0.579,0.579,0,0,0-.58-0.53A54.744,54.744,0,0,0,2634.16,1394.96Zm-18.45,1.91a22.512,22.512,0,0,0-3.71-1.51,0.943,0.943,0,0,0-.75.99c-0.64,2.55-1.45,5.05-2.09,7.6a66.3,66.3,0,0,0-2.03,16.24c0,6.15.81,12.3,3.42,17.87,0.41,0.81.87,1.91,1.86,1.91,0.29,0,4.41-.69,4.41-2.96,0-.92-0.12-1.85-0.12-2.78,0-3.37,2.84-9.75,2.84-10.56,0-.69-1.85-1.85-2.49-1.85-0.7,0-1.28,1.91-1.57,2.55-0.58,1.33-.87,2.09-1.28,2.09-1.1,0-1.27-5.51-1.27-6.44a53.675,53.675,0,0,1,3.19-17.64c0.7-1.79,1.04-2.32,2.38-2.95a0.625,0.625,0,0,0,.52-0.58c0-.58-1.04-0.99-1.51-1.16C2617.16,1397.57,2616.47,1397.22,2615.71,1396.87Zm40.66,33.88a1.65,1.65,0,0,0,1.04,1.1,35.689,35.689,0,0,1,8.82,7.89,1.9,1.9,0,0,0,1.16.87c1.34,0,4.24-3.19,4.24-4.47,0-1.45-9.98-9.45-11.32-9.45C2659.33,1426.69,2656.37,1429.76,2656.37,1430.75Zm41.01-2.21a1.66,1.66,0,0,1,1.62-1.62h21.93a1.619,1.619,0,0,1,1.62,1.62v3.37a1.613,1.613,0,0,1-1.62,1.62H2699a1.653,1.653,0,0,1-1.62-1.62v-3.37Zm0-11.13a1.622,1.622,0,0,1,1.62-1.63h21.93a1.585,1.585,0,0,1,1.62,1.63v2.84a1.607,1.607,0,0,1-1.62,1.62H2699a1.646,1.646,0,0,1-1.62-1.62v-2.84Zm1.62-6.73a1.622,1.622,0,0,1-1.62-1.63v-2.66a1.622,1.622,0,0,1,1.62-1.63h21.93a1.585,1.585,0,0,1,1.62,1.63v2.66a1.585,1.585,0,0,1-1.62,1.63H2699Zm0.35-11.49c-1.74,0-3.48-.11-5.22-0.11-2.09,0-3.02.64-3.02,2.84,0,1.74.12,3.48,0.12,5.28v27.84c0,2.03-.12,4.12-0.12,6.15,0,1.68.76,1.62,3.25,1.62,2.44,0,3.19,0,3.19-1.62v-0.75a1.322,1.322,0,0,1,1.57-1.51h21.75a1.341,1.341,0,0,1,1.57,1.56v0.82c0,1.62.63,1.62,3.19,1.62s3.24,0,3.24-1.62c0-2.03-.11-4.06-0.11-6.15V1407.2c0-1.97.11-3.54,0.11-4.76,0-2.38-.46-3.36-3.07-3.36-1.74,0-3.42.11-5.16,0.11h-9.46a0.866,0.866,0,0,1-.98-0.81,0.776,0.776,0,0,1,.17-0.52c0.64-1.16,1.22-2.32,1.86-3.48a1.02,1.02,0,0,1,.92-0.58c0.47-.12.99-0.12,0.99-0.76,0-.58-0.64-0.87-1.45-1.16a27.742,27.742,0,0,0-5.1-1.21,0.987,0.987,0,0,0-.82.87,46.6,46.6,0,0,1-2.84,6.32,2.074,2.074,0,0,1-2.32,1.33h-2.26Zm51.33,4.18c-0.93,0-.99.87-0.99,2.55,0,0.41-.06.81-0.06,1.28a91,91,0,0,1-1.39,12.64c-0.35,1.92-.81,3.83-1.33,5.69a8.614,8.614,0,0,0-.58,2.03c0,1.68,3.88,2.26,4.41,2.26a2.371,2.371,0,0,0,1.74-1.22c3.65-4.58,9.8-9.68,15.89-9.68,3.71,0,6.96,2.14,6.96,6.14,0,4.93-4.29,6.73-8.41,7.78a39.691,39.691,0,0,1-7.71,1.16c-0.76.05-1.45,0.11-1.45,1.04a12.2,12.2,0,0,0,.98,3.77c0.52,1.1.87,1.63,2.15,1.63a38.93,38.93,0,0,0,7.54-1.57c7.02-2.09,13.17-5.57,13.17-13.81,0-7.3-5.51-12.06-12.65-12.06-5.51,0-8.99,2.32-13.28,5.34a1.319,1.319,0,0,1-.76.34,0.609,0.609,0,0,1-.58-0.69,8.551,8.551,0,0,1,.18-1.22c0.58-2.67.93-5.4,1.39-8.06,0.23-1.16.29-1.69,1.22-2.27a0.747,0.747,0,0,0,.52-0.63c0-.47-0.64-0.64-1.04-0.82A42.412,42.412,0,0,0,2750.68,1403.37Zm3.71-6.67c0,0.64.76,0.93,1.34,1.28a46.977,46.977,0,0,1,7.3,4.93c0.47,0.34,1.22,1.16,1.86,1.16,1.22,0,3.6-3.54,3.6-4.59,0-.98-3.37-2.84-4.24-3.36-1.04-.64-5.74-3.66-6.61-3.66C2756.25,1392.46,2754.39,1395.94,2754.39,1396.7Zm57.77,11.95c-0.58,0-.58.29-0.58,0.75a31.272,31.272,0,0,1-.93,8.65,27.494,27.494,0,0,1-12.12,16.88c-0.81.52-1.39,0.75-1.39,1.27,0,1.05,3.77,4.06,4.75,4.06a4.161,4.161,0,0,0,1.92-1.04c8.64-6.67,12.24-14.04,13.92-24.66,0.17-1.1.4-3.36,1.16-4.17a0.923,0.923,0,0,0,.35-0.58c0-.64-0.82-0.64-1.22-0.7C2817.15,1409,2812.91,1408.65,2812.16,1408.65Zm-10.15-8.82c-2.67,0-5.34-.11-8.01-0.11-1.33,0-1.45.69-1.45,2.2v1.16c0,2.32.06,2.96,1.57,2.96,2.61,0,5.22-.18,7.89-0.18h24.88c0.53,0,1.8-.11,1.8.7s-6.44,6.5-7.48,7.42c-0.41.35-1.45,1.17-1.45,1.75,0,0.98,3.25,3.53,4.23,3.53a2.319,2.319,0,0,0,1.4-.81c2.14-1.91,5.16-4.87,7.19-6.96,0.69-.75,5.04-5.28,5.39-5.57a2.608,2.608,0,0,0,1.28-1.56c0-1.05-1.45-2.61-2.15-3.37s-1.27-1.51-2.14-1.51a3.005,3.005,0,0,0-.76.06,41.58,41.58,0,0,1-6.03.29h-26.16Zm56.03,3.48c-2.15,0-4.3-.06-6.38-0.06-2.73,0-2.85.76-2.85,2.44,0,0.99.06,1.97,0.06,3.02v8c0,1.45-.06,2.9-0.06,4.35,0,1.39.41,1.51,2.9,1.51,3.02,0,3.54,0,3.54-1.62,0-.99-0.11-2.9-0.11-4.41v-5.8a1.622,1.622,0,0,1,1.62-1.63h22.51c1.1,0,2.26.12,2.26,1.51,0,2.2-1.62,7.14-2.55,9.22-3.42,7.66-10.21,13.58-17.81,17a1.233,1.233,0,0,0-1.04.99c0,0.92,2.49,4.46,3.82,4.46,1.98,0,9.23-5.57,10.97-7.02,8.18-7.07,11.37-14.5,13.34-24.88,0.17-.76.35-1.51,0.58-2.26a7.652,7.652,0,0,0,.35-1.51c0-.81-0.64-1.28-1.69-2.26a3.628,3.628,0,0,0-2.14-1.22,7.517,7.517,0,0,0-1.16.06,21.785,21.785,0,0,1-2.79.11H2873a1.577,1.577,0,0,1-1.62-1.62v-2.5c0-3.36-.06-4.06.64-4.64a1.923,1.923,0,0,0,.69-0.87c0-.64-1.74-0.69-2.14-0.69-0.58,0-4.35-.29-4.93-0.29-0.41,0-.87.05-0.87,0.58a3.5,3.5,0,0,0,.05.69,51.575,51.575,0,0,1,.24,5.34v2.38a1.585,1.585,0,0,1-1.63,1.62h-5.39Zm56.78,7.37a0.633,0.633,0,0,1-.52.23,0.5,0.5,0,0,1-.47-0.58v-8.7c0-1.45-.05-2.55-0.05-3.42,0-1.57.11-2.44,0.63-3.08a1.639,1.639,0,0,0,.29-0.75c0-.81-2.37-1.05-4.98-1.39-0.41-.06-1.63-0.24-1.98-0.24-0.58,0-.75.29-0.75,0.87,0,0.24.06,0.76,0.06,1.05,0.06,1.45.17,3.02,0.17,4.52v33.07c0,2.61-.17,5.22-0.17,7.83,0,1.91.98,1.97,3.3,1.97,3.54,0,3.6-.35,3.6-3.02,0-2.32-.12-4.58-0.12-6.9v-15.83a0.777,0.777,0,0,1,.7-0.93,1,1,0,0,1,.58.23,85.771,85.771,0,0,1,8.41,6.79,2.136,2.136,0,0,0,1.28.75c1.16,0,3.88-3.02,3.88-4s-3.24-3.48-4.06-4.18c-1.16-.99-6.96-5.57-8.12-5.57A2.99,2.99,0,0,0,2914.82,1410.68Zm35.26-10.79c-2.49,0-4.99-.12-7.48-0.12-1.68,0-1.62.64-1.62,3.31,0,2.61,0,3.13,1.74,3.13,2.43,0,4.81-.11,7.25-0.11h20.65c1.04,0,2.03.11,2.03,1.21a13.329,13.329,0,0,1-.18,1.45,27.2,27.2,0,0,1-9.45,16.88,41.171,41.171,0,0,1-14.44,7.66,1.024,1.024,0,0,0-1.05.93c0,0.93,2.03,4.81,3.42,4.81a7.28,7.28,0,0,0,1.92-.46,54,54,0,0,0,11.13-5.98c9.17-6.38,13.46-14.03,15.38-24.94,0.4-2.26.87-2.84,0.87-3.36,0-.76-1.45-2.15-1.98-2.67-0.75-.75-1.62-1.86-2.78-1.86-0.52,0-1.91.12-2.9,0.12h-22.51Zm33.41-7.37a3.124,3.124,0,0,1,3.14,3.13A3.105,3.105,0,1,1,2983.49,1392.52Zm0-2.61a5.745,5.745,0,1,0,5.81,5.74A5.715,5.715,0,0,0,2983.49,1389.91Zm42.29,17.87c-0.64,0-.7.64-0.76,1.16a33.8,33.8,0,0,1-4.75,13.17c-4.18,6.78-10.5,10.2-17.99,12.24a1,1,0,0,0-.92,1.04c0,0.81,2.14,4,3.24,4a10.57,10.57,0,0,0,1.8-.46,33.127,33.127,0,0,0,15.78-10.1c4-4.81,6.21-10.26,7.95-16.24a1.885,1.885,0,0,1,.75-1.22,0.976,0.976,0,0,0-.35-1.91A39.028,39.028,0,0,0,3025.78,1407.78Zm-10.27,2.09c-0.99-1.63-2.09-3.25-2.9-3.25-0.76,0-3.89,1.45-3.89,2.43a1.95,1.95,0,0,0,.52,1.16,61.37,61.37,0,0,1,4.06,6.85,1.606,1.606,0,0,0,1.16,1.1c0.82,0,4.18-1.51,4.18-2.67,0-.75-2.09-3.94-2.61-4.75Zm-14.68,0c-0.75,0-3.88,1.45-3.88,2.49a2.15,2.15,0,0,0,.46,1.04,58.231,58.231,0,0,1,4.18,7.02,1.36,1.36,0,0,0,1.1.99c0.7,0,4.18-1.45,4.18-2.67,0-.75-1.98-3.77-2.5-4.58-0.58-.93-1.91-3.02-2.55-3.77A1.288,1.288,0,0,0,3000.83,1409.87Zm54.93,0.81a0.633,0.633,0,0,1-.52.23,0.5,0.5,0,0,1-.47-0.58v-8.7c0-1.45-.05-2.55-0.05-3.42,0-1.57.11-2.44,0.63-3.08a1.639,1.639,0,0,0,.29-0.75c0-.81-2.37-1.05-4.98-1.39-0.41-.06-1.63-0.24-1.98-0.24-0.58,0-.75.29-0.75,0.87,0,0.24.06,0.76,0.06,1.05,0.06,1.45.17,3.02,0.17,4.52v33.07c0,2.61-.17,5.22-0.17,7.83,0,1.91.98,1.97,3.3,1.97,3.54,0,3.6-.35,3.6-3.02,0-2.32-.12-4.58-0.12-6.9v-15.83a0.777,0.777,0,0,1,.7-0.93,1,1,0,0,1,.58.23,85.771,85.771,0,0,1,8.41,6.79,2.136,2.136,0,0,0,1.28.75c1.16,0,3.88-3.02,3.88-4s-3.24-3.48-4.06-4.18c-1.16-.99-6.96-5.57-8.12-5.57A2.99,2.99,0,0,0,3055.76,1410.68Zm34.74-15.37c-0.81,0-.87.58-0.87,1.45v0.64c0,2.37-.52,7.94-0.69,10.61q-0.525,6.87-.53,13.75c0,4.23.29,9.86,2.9,13.34,2.38,3.07,6.38,4.47,10.21,4.47,7.54,0,14.16-4.59,17.64-11.08,0.81-1.51,2.37-5.17,2.37-6.79,0-1.74-3.53-4.7-4.81-4.7-0.87,0-.99.99-1.16,1.92a18.317,18.317,0,0,1-3.54,8.58,14.693,14.693,0,0,1-10.9,5.63c-6.27,0-6.15-7.02-6.15-11.55,0-3.3.52-21.69,2.55-23.2a1.252,1.252,0,0,0,.7-0.87,1.213,1.213,0,0,0-1.16-.81A48.82,48.82,0,0,0,3090.5,1395.31Z" transform="translate(-2500.06 -1389.91)"/>
</svg>
