<svg xmlns="http://www.w3.org/2000/svg" width="161.5" height="20.281" viewBox="0 0 161.5 20.281">
  <defs>
    <style>
      .cls-1 {
        fill-rule: evenodd;
      }
    </style>
  </defs>
  <path id="site-name.svg" class="cls-1" d="M895.944,47.517a13.182,13.182,0,0,0-.21-2.1,7.374,7.374,0,0,0-.588-1.834,5.8,5.8,0,0,0-1.162-1.61,7.154,7.154,0,0,0-5.376-2.184,7.672,7.672,0,0,0-3.024.56,7.52,7.52,0,0,0-2.38,1.624,5.824,5.824,0,0,0-1.162,1.61,7.036,7.036,0,0,0-.574,1.834,14.655,14.655,0,0,0-.2,2.1q-0.027,1.12-.028,2.408t0.028,2.408a14.644,14.644,0,0,0,.2,2.1,7.026,7.026,0,0,0,.574,1.834,5.818,5.818,0,0,0,1.162,1.61,7.507,7.507,0,0,0,2.38,1.624,7.665,7.665,0,0,0,3.024.56,7.154,7.154,0,0,0,5.376-2.184,5.8,5.8,0,0,0,1.162-1.61,7.364,7.364,0,0,0,.588-1.834,13.172,13.172,0,0,0,.21-2.1q0.029-1.12.028-2.408T895.944,47.517Zm-3.906,4.774a11.847,11.847,0,0,1-.154,1.554,3.544,3.544,0,0,1-.308.994A3.241,3.241,0,0,1,890.05,56.3a3.371,3.371,0,0,1-1.442.294,3.471,3.471,0,0,1-1.456-.294,3.126,3.126,0,0,1-1.064-.77,2.893,2.893,0,0,1-.462-0.686,3.994,3.994,0,0,1-.294-0.994,12.023,12.023,0,0,1-.154-1.554q-0.042-.938-0.042-2.366t0.042-2.366a12.038,12.038,0,0,1,.154-1.554,4,4,0,0,1,.294-0.994,2.9,2.9,0,0,1,.462-0.686,3.131,3.131,0,0,1,1.064-.77,3.471,3.471,0,0,1,1.456-.294,3.371,3.371,0,0,1,1.442.294,3.241,3.241,0,0,1,1.526,1.456,3.548,3.548,0,0,1,.308.994,11.862,11.862,0,0,1,.154,1.554q0.042,0.938.042,2.366T892.038,52.291Zm24.738-4.774a13.182,13.182,0,0,0-.21-2.1,7.374,7.374,0,0,0-.588-1.834,5.8,5.8,0,0,0-1.162-1.61,7.154,7.154,0,0,0-5.376-2.184,7.672,7.672,0,0,0-3.024.56,7.52,7.52,0,0,0-2.38,1.624,5.824,5.824,0,0,0-1.162,1.61,7.036,7.036,0,0,0-.574,1.834,14.655,14.655,0,0,0-.2,2.1q-0.027,1.12-.028,2.408t0.028,2.408a14.644,14.644,0,0,0,.2,2.1,7.026,7.026,0,0,0,.574,1.834,5.818,5.818,0,0,0,1.162,1.61,7.507,7.507,0,0,0,2.38,1.624,7.665,7.665,0,0,0,3.024.56,7.154,7.154,0,0,0,5.376-2.184,5.8,5.8,0,0,0,1.162-1.61,7.364,7.364,0,0,0,.588-1.834,13.172,13.172,0,0,0,.21-2.1q0.029-1.12.028-2.408T916.776,47.517Zm-3.906,4.774a11.847,11.847,0,0,1-.154,1.554,3.544,3.544,0,0,1-.308.994,3.241,3.241,0,0,1-1.526,1.456,3.371,3.371,0,0,1-1.442.294,3.471,3.471,0,0,1-1.456-.294,3.126,3.126,0,0,1-1.064-.77,2.893,2.893,0,0,1-.462-0.686,3.994,3.994,0,0,1-.294-0.994,12.023,12.023,0,0,1-.154-1.554q-0.042-.938-0.042-2.366t0.042-2.366a12.038,12.038,0,0,1,.154-1.554,4,4,0,0,1,.294-0.994,2.9,2.9,0,0,1,.462-0.686,3.131,3.131,0,0,1,1.064-.77,3.471,3.471,0,0,1,1.456-.294,3.371,3.371,0,0,1,1.442.294,3.241,3.241,0,0,1,1.526,1.456,3.548,3.548,0,0,1,.308.994,11.862,11.862,0,0,1,.154,1.554q0.042,0.938.042,2.366T912.87,52.291Zm26.838,7.6-7.084-12.012,6.608-7.924H934.5l-7.028,8.68v-8.68H923.58V59.893h3.892V53.9l2.576-3.08,5.124,9.072h4.536Zm9.184,0V39.957H945V59.893h3.892Zm22.708,0V39.957h-3.892V52.165l-7.9-12.208H956.34V59.893h3.892V47.657l7.9,12.236H971.6Zm22.848,0-7.28-19.936h-3.052l-7.252,19.936h4.06l1.2-3.528h7.084l1.176,3.528h4.06Zm-6.272-6.8H983.22l2.52-7.252Zm33.884-13.132H1018l-3.11,12.572-3.64-12.572h-2.91l-3.64,12.572-3.08-12.572h-4.065l5.325,19.936h3.24l3.67-12.1,3.67,12.1h3.25Zm20.69,19.936-7.28-19.936h-3.05l-7.26,19.936h4.06l1.21-3.528h7.08l1.18,3.528h4.06Zm-6.27-6.8h-4.96l2.52-7.252Z" transform="translate(-881.25 -39.781)"/>
</svg>
