<svg xmlns="http://www.w3.org/2000/svg" viewBox="0 0 129.7 105.41"><path class="cls-1" d="M40.79,105.41c48.94,0,75.71-40.55,75.71-75.71,0-1.16,0-2.3-.08-3.44A54.37,54.37,0,0,0,129.7,12.48a53.29,53.29,0,0,1-15.28,4.19A26.75,26.75,0,0,0,126.12,2a53.53,53.53,0,0,1-16.9,6.46,26.62,26.62,0,0,0-46,18.2,26.25,26.25,0,0,0,.7,6.06A75.53,75.53,0,0,1,9,4.87,26.63,26.63,0,0,0,17.26,40.4a26.57,26.57,0,0,1-12-3.33v.34A26.61,26.61,0,0,0,26.55,63.49a26.47,26.47,0,0,1-12,.46A26.62,26.62,0,0,0,39.4,82.43a53.4,53.4,0,0,1-33,11.39A55.4,55.4,0,0,1,0,93.46a75.4,75.4,0,0,0,40.79,12"/></svg>
